<svg width="39" height="22" viewBox="0 0 39 22" fill="none" xmlns="http://www.w3.org/2000/svg">
<path d="M0.664062 7.28125V5.00781C1.71875 4.96094 2.45703 4.89062 2.87891 4.79688C3.55078 4.64844 4.09766 4.35156 4.51953 3.90625C4.80859 3.60156 5.02734 3.19531 5.17578 2.6875C5.26172 2.38281 5.30469 2.15625 5.30469 2.00781H8.08203V19H4.66016V7.28125H0.664062ZM24.9102 15.3438H22.9883V19H19.7188V15.3438H12.9922V12.4258L19.2383 2.11328H22.9883V12.7305H24.9102V15.3438ZM19.7188 12.7305V5.39453L15.4648 12.7305H19.7188ZM32.9375 16.8086C33.5547 16.7305 34.0039 16.5898 34.2852 16.3867C34.7773 16.0273 35.0234 15.4062 35.0234 14.5234C35.0234 13.8516 34.793 13.3203 34.332 12.9297C34.0586 12.7031 33.5938 12.4688 32.9375 12.2266V16.8086ZM31.8242 4.5625C31.1445 4.57812 30.6406 4.76172 30.3125 5.11328C29.9844 5.45703 29.8203 5.92969 29.8203 6.53125C29.8203 7.1875 30.0664 7.70703 30.5586 8.08984C30.832 8.30078 31.2539 8.49609 31.8242 8.67578V4.5625ZM32.9609 21.7773H31.8242V19.4453C30.2852 19.2734 29.1367 18.9375 28.3789 18.4375C27.043 17.5391 26.3867 16.0078 26.4102 13.8438H29.5742C29.6836 14.8281 29.8359 15.4883 30.0312 15.8242C30.3359 16.3477 30.9336 16.6875 31.8242 16.8438V11.8398L30.875 11.5586C29.3828 11.1211 28.3281 10.5117 27.7109 9.73047C27.1016 8.94922 26.7969 8.00781 26.7969 6.90625C26.7969 6.17969 26.9141 5.51953 27.1484 4.92578C27.3906 4.33203 27.7266 3.82031 28.1562 3.39062C28.7109 2.83594 29.3281 2.45312 30.0078 2.24219C30.4219 2.10938 31.0273 2.01172 31.8242 1.94922V0.390625H32.9375V1.97266C34.2109 2.07422 35.2109 2.38672 35.9375 2.91016C37.2578 3.74609 37.9414 5.10156 37.9883 6.97656H34.9062C34.8438 6.28125 34.7266 5.77344 34.5547 5.45312C34.2578 4.89844 33.7188 4.59375 32.9375 4.53906V9.00391C34.7969 9.64453 36.0469 10.2109 36.6875 10.7031C37.7422 11.5234 38.2695 12.6797 38.2695 14.1719C38.2695 16.1406 37.5469 17.5703 36.1016 18.4609C35.2188 19.0078 34.1719 19.3281 32.9609 19.4219V21.7773Z" fill="#FF9F0D"/>
</svg>
