<svg width="206" height="255" viewBox="0 0 206 255" fill="none" xmlns="http://www.w3.org/2000/svg">
<path d="M1.80469 249V231.727H5.37891V238.312H12.1289V231.727H15.7148V249H12.1289V241.289H5.37891V249H1.80469ZM25.9453 242.789C25.7344 242.922 25.5195 243.031 25.3008 243.117C25.0898 243.195 24.7969 243.27 24.4219 243.34L23.6719 243.48C22.9688 243.605 22.4648 243.758 22.1602 243.938C21.6445 244.242 21.3867 244.715 21.3867 245.355C21.3867 245.926 21.543 246.34 21.8555 246.598C22.1758 246.848 22.5625 246.973 23.0156 246.973C23.7344 246.973 24.3945 246.762 24.9961 246.34C25.6055 245.918 25.9219 245.148 25.9453 244.031V242.789ZM23.918 241.23C24.5352 241.152 24.9766 241.055 25.2422 240.938C25.7188 240.734 25.957 240.418 25.957 239.988C25.957 239.465 25.7734 239.105 25.4062 238.91C25.0469 238.707 24.5156 238.605 23.8125 238.605C23.0234 238.605 22.4648 238.801 22.1367 239.191C21.9023 239.48 21.7461 239.871 21.668 240.363H18.4453C18.5156 239.246 18.8281 238.328 19.3828 237.609C20.2656 236.484 21.7812 235.922 23.9297 235.922C25.3281 235.922 26.5703 236.199 27.6562 236.754C28.7422 237.309 29.2852 238.355 29.2852 239.895V245.754C29.2852 246.16 29.293 246.652 29.3086 247.23C29.332 247.668 29.3984 247.965 29.5078 248.121C29.6172 248.277 29.7812 248.406 30 248.508V249H26.3672C26.2656 248.742 26.1953 248.5 26.1562 248.273C26.1172 248.047 26.0859 247.789 26.0625 247.5C25.6016 248 25.0703 248.426 24.4688 248.777C23.75 249.191 22.9375 249.398 22.0312 249.398C20.875 249.398 19.918 249.07 19.1602 248.414C18.4102 247.75 18.0352 246.812 18.0352 245.602C18.0352 244.031 18.6406 242.895 19.8516 242.191C20.5156 241.809 21.4922 241.535 22.7812 241.371L23.918 241.23ZM41.0625 242.613C41.0625 241.629 40.8359 240.758 40.3828 240C39.9375 239.242 39.2109 238.863 38.2031 238.863C36.9922 238.863 36.1602 239.438 35.707 240.586C35.4727 241.195 35.3555 241.969 35.3555 242.906C35.3555 244.391 35.75 245.434 36.5391 246.035C37.0078 246.387 37.5625 246.562 38.2031 246.562C39.1328 246.562 39.8398 246.203 40.3242 245.484C40.8164 244.766 41.0625 243.809 41.0625 242.613ZM39.1641 235.945C40.6562 235.945 41.918 236.496 42.9492 237.598C43.9883 238.699 44.5078 240.316 44.5078 242.449C44.5078 244.699 44 246.414 42.9844 247.594C41.9766 248.773 40.6758 249.363 39.082 249.363C38.0664 249.363 37.2227 249.109 36.5508 248.602C36.1836 248.32 35.8242 247.91 35.4727 247.371V254.027H32.168V236.227H35.3672V238.113C35.7266 237.559 36.1094 237.121 36.5156 236.801C37.2578 236.23 38.1406 235.945 39.1641 235.945ZM55.7344 242.613C55.7344 241.629 55.5078 240.758 55.0547 240C54.6094 239.242 53.8828 238.863 52.875 238.863C51.6641 238.863 50.832 239.438 50.3789 240.586C50.1445 241.195 50.0273 241.969 50.0273 242.906C50.0273 244.391 50.4219 245.434 51.2109 246.035C51.6797 246.387 52.2344 246.562 52.875 246.562C53.8047 246.562 54.5117 246.203 54.9961 245.484C55.4883 244.766 55.7344 243.809 55.7344 242.613ZM53.8359 235.945C55.3281 235.945 56.5898 236.496 57.6211 237.598C58.6602 238.699 59.1797 240.316 59.1797 242.449C59.1797 244.699 58.6719 246.414 57.6562 247.594C56.6484 248.773 55.3477 249.363 53.7539 249.363C52.7383 249.363 51.8945 249.109 51.2227 248.602C50.8555 248.32 50.4961 247.91 50.1445 247.371V254.027H46.8398V236.227H50.0391V238.113C50.3984 237.559 50.7812 237.121 51.1875 236.801C51.9297 236.23 52.8125 235.945 53.8359 235.945ZM62.1211 251.449L62.543 251.473C62.8711 251.488 63.1836 251.477 63.4805 251.438C63.7773 251.398 64.0273 251.309 64.2305 251.168C64.4258 251.035 64.6055 250.758 64.7695 250.336C64.9414 249.914 65.0117 249.656 64.9805 249.562L60.293 236.227H64.0078L66.7969 245.648L69.4336 236.227H72.9844L68.6016 248.789C67.7578 251.211 67.0898 252.711 66.5977 253.289C66.1055 253.875 65.1211 254.168 63.6445 254.168C63.3477 254.168 63.1094 254.164 62.9297 254.156C62.75 254.156 62.4805 254.145 62.1211 254.121V251.449ZM81.1641 240.504C81.1641 237.488 81.9727 235.164 83.5898 233.531C84.9961 232.109 86.7852 231.398 88.957 231.398C91.8633 231.398 93.9883 232.352 95.332 234.258C96.0742 235.328 96.4727 236.402 96.5273 237.48H92.918C92.6836 236.652 92.3828 236.027 92.0156 235.605C91.3594 234.855 90.3867 234.48 89.0977 234.48C87.7852 234.48 86.75 235.012 85.9922 236.074C85.2344 237.129 84.8555 238.625 84.8555 240.562C84.8555 242.5 85.2539 243.953 86.0508 244.922C86.8555 245.883 87.875 246.363 89.1094 246.363C90.375 246.363 91.3398 245.949 92.0039 245.121C92.3711 244.676 92.6758 244.008 92.918 243.117H96.4922C96.1797 245 95.3789 246.531 94.0898 247.711C92.8086 248.891 91.1641 249.48 89.1562 249.48C86.6719 249.48 84.7188 248.684 83.2969 247.09C81.875 245.488 81.1641 243.293 81.1641 240.504ZM102.316 236.227V243.926C102.316 244.652 102.402 245.199 102.574 245.566C102.879 246.215 103.477 246.539 104.367 246.539C105.508 246.539 106.289 246.078 106.711 245.156C106.93 244.656 107.039 243.996 107.039 243.176V236.227H110.426V249H107.18V247.195C107.148 247.234 107.07 247.352 106.945 247.547C106.82 247.742 106.672 247.914 106.5 248.062C105.977 248.531 105.469 248.852 104.977 249.023C104.492 249.195 103.922 249.281 103.266 249.281C101.375 249.281 100.102 248.602 99.4453 247.242C99.0781 246.492 98.8945 245.387 98.8945 243.926V236.227H102.316ZM116.262 244.922C116.332 245.516 116.484 245.938 116.719 246.188C117.133 246.633 117.898 246.855 119.016 246.855C119.672 246.855 120.191 246.758 120.574 246.562C120.965 246.367 121.16 246.074 121.16 245.684C121.16 245.309 121.004 245.023 120.691 244.828C120.379 244.633 119.219 244.297 117.211 243.82C115.766 243.461 114.746 243.012 114.152 242.473C113.559 241.941 113.262 241.176 113.262 240.176C113.262 238.996 113.723 237.984 114.645 237.141C115.574 236.289 116.879 235.863 118.559 235.863C120.152 235.863 121.449 236.184 122.449 236.824C123.457 237.457 124.035 238.555 124.184 240.117H120.844C120.797 239.688 120.676 239.348 120.48 239.098C120.113 238.645 119.488 238.418 118.605 238.418C117.879 238.418 117.359 238.531 117.047 238.758C116.742 238.984 116.59 239.25 116.59 239.555C116.59 239.938 116.754 240.215 117.082 240.387C117.41 240.566 118.57 240.875 120.562 241.312C121.891 241.625 122.887 242.098 123.551 242.73C124.207 243.371 124.535 244.172 124.535 245.133C124.535 246.398 124.062 247.434 123.117 248.238C122.18 249.035 120.727 249.434 118.758 249.434C116.75 249.434 115.266 249.012 114.305 248.168C113.352 247.316 112.875 246.234 112.875 244.922H116.262ZM125.707 238.723V236.344H127.488V232.781H130.793V236.344H132.867V238.723H130.793V245.473C130.793 245.996 130.859 246.324 130.992 246.457C131.125 246.582 131.531 246.645 132.211 246.645C132.312 246.645 132.418 246.645 132.527 246.645C132.645 246.637 132.758 246.629 132.867 246.621V249.117L131.285 249.176C129.707 249.23 128.629 248.957 128.051 248.355C127.676 247.973 127.488 247.383 127.488 246.586V238.723H125.707ZM140.742 246.645C141.719 246.645 142.469 246.297 142.992 245.602C143.516 244.906 143.777 243.918 143.777 242.637C143.777 241.355 143.516 240.371 142.992 239.684C142.469 238.988 141.719 238.641 140.742 238.641C139.766 238.641 139.012 238.988 138.48 239.684C137.957 240.371 137.695 241.355 137.695 242.637C137.695 243.918 137.957 244.906 138.48 245.602C139.012 246.297 139.766 246.645 140.742 246.645ZM147.281 242.637C147.281 244.512 146.742 246.117 145.664 247.453C144.586 248.781 142.949 249.445 140.754 249.445C138.559 249.445 136.922 248.781 135.844 247.453C134.766 246.117 134.227 244.512 134.227 242.637C134.227 240.793 134.766 239.195 135.844 237.844C136.922 236.492 138.559 235.816 140.754 235.816C142.949 235.816 144.586 236.492 145.664 237.844C146.742 239.195 147.281 240.793 147.281 242.637ZM163.957 235.945C164.52 235.945 165.074 236.055 165.621 236.273C166.168 236.492 166.664 236.875 167.109 237.422C167.469 237.867 167.711 238.414 167.836 239.062C167.914 239.492 167.953 240.121 167.953 240.949L167.93 249H164.508V240.867C164.508 240.383 164.43 239.984 164.273 239.672C163.977 239.078 163.43 238.781 162.633 238.781C161.711 238.781 161.074 239.164 160.723 239.93C160.543 240.336 160.453 240.824 160.453 241.395V249H157.09V241.395C157.09 240.637 157.012 240.086 156.855 239.742C156.574 239.125 156.023 238.816 155.203 238.816C154.25 238.816 153.609 239.125 153.281 239.742C153.102 240.094 153.012 240.617 153.012 241.312V249H149.625V236.25H152.871V238.113C153.285 237.449 153.676 236.977 154.043 236.695C154.691 236.195 155.531 235.945 156.562 235.945C157.539 235.945 158.328 236.16 158.93 236.59C159.414 236.988 159.781 237.5 160.031 238.125C160.469 237.375 161.012 236.824 161.66 236.473C162.348 236.121 163.113 235.945 163.957 235.945ZM176.074 238.641C175.301 238.641 174.699 238.883 174.27 239.367C173.848 239.852 173.582 240.508 173.473 241.336H178.664C178.609 240.453 178.34 239.785 177.855 239.332C177.379 238.871 176.785 238.641 176.074 238.641ZM176.074 235.887C177.137 235.887 178.094 236.086 178.945 236.484C179.797 236.883 180.5 237.512 181.055 238.371C181.555 239.129 181.879 240.008 182.027 241.008C182.113 241.594 182.148 242.438 182.133 243.539H173.391C173.438 244.82 173.84 245.719 174.598 246.234C175.059 246.555 175.613 246.715 176.262 246.715C176.949 246.715 177.508 246.52 177.938 246.129C178.172 245.918 178.379 245.625 178.559 245.25H181.969C181.883 246.008 181.488 246.777 180.785 247.559C179.691 248.801 178.16 249.422 176.191 249.422C174.566 249.422 173.133 248.898 171.891 247.852C170.648 246.805 170.027 245.102 170.027 242.742C170.027 240.531 170.586 238.836 171.703 237.656C172.828 236.477 174.285 235.887 176.074 235.887ZM191.332 235.922C191.395 235.922 191.445 235.926 191.484 235.934C191.531 235.934 191.629 235.938 191.777 235.945V239.367C191.566 239.344 191.379 239.328 191.215 239.32C191.051 239.312 190.918 239.309 190.816 239.309C189.473 239.309 188.57 239.746 188.109 240.621C187.852 241.113 187.723 241.871 187.723 242.895V249H184.359V236.227H187.547V238.453C188.062 237.602 188.512 237.02 188.895 236.707C189.52 236.184 190.332 235.922 191.332 235.922ZM196.348 244.922C196.418 245.516 196.57 245.938 196.805 246.188C197.219 246.633 197.984 246.855 199.102 246.855C199.758 246.855 200.277 246.758 200.66 246.562C201.051 246.367 201.246 246.074 201.246 245.684C201.246 245.309 201.09 245.023 200.777 244.828C200.465 244.633 199.305 244.297 197.297 243.82C195.852 243.461 194.832 243.012 194.238 242.473C193.645 241.941 193.348 241.176 193.348 240.176C193.348 238.996 193.809 237.984 194.73 237.141C195.66 236.289 196.965 235.863 198.645 235.863C200.238 235.863 201.535 236.184 202.535 236.824C203.543 237.457 204.121 238.555 204.27 240.117H200.93C200.883 239.688 200.762 239.348 200.566 239.098C200.199 238.645 199.574 238.418 198.691 238.418C197.965 238.418 197.445 238.531 197.133 238.758C196.828 238.984 196.676 239.25 196.676 239.555C196.676 239.938 196.84 240.215 197.168 240.387C197.496 240.566 198.656 240.875 200.648 241.312C201.977 241.625 202.973 242.098 203.637 242.73C204.293 243.371 204.621 244.172 204.621 245.133C204.621 246.398 204.148 247.434 203.203 248.238C202.266 249.035 200.812 249.434 198.844 249.434C196.836 249.434 195.352 249.012 194.391 248.168C193.438 247.316 192.961 246.234 192.961 244.922H196.348Z" fill="white"/>
<path d="M71.25 197C71.3021 194.969 71.7383 193.113 72.5586 191.434C73.3529 189.546 75.2279 187.547 78.1836 185.438C80.7487 183.602 82.4089 182.286 83.1641 181.492C84.3229 180.255 84.9023 178.901 84.9023 177.43C84.9023 176.232 84.5703 175.236 83.9062 174.441C83.2422 173.647 82.2917 173.25 81.0547 173.25C79.362 173.25 78.2096 173.882 77.5977 175.145C77.2461 175.874 77.0378 177.033 76.9727 178.621H71.5625C71.6536 176.212 72.0898 174.266 72.8711 172.781C74.3555 169.956 76.9922 168.543 80.7812 168.543C83.776 168.543 86.1589 169.376 87.9297 171.043C89.7005 172.697 90.5859 174.891 90.5859 177.625C90.5859 179.721 89.9609 181.583 88.7109 183.211C87.8906 184.292 86.543 185.496 84.668 186.824L82.4414 188.406C81.0482 189.396 80.0911 190.112 79.5703 190.555C79.0625 190.997 78.6328 191.512 78.2812 192.098H90.6445V197H71.25ZM93.5156 197C93.5677 194.969 94.0039 193.113 94.8242 191.434C95.6185 189.546 97.4935 187.547 100.449 185.438C103.014 183.602 104.674 182.286 105.43 181.492C106.589 180.255 107.168 178.901 107.168 177.43C107.168 176.232 106.836 175.236 106.172 174.441C105.508 173.647 104.557 173.25 103.32 173.25C101.628 173.25 100.475 173.882 99.8633 175.145C99.5117 175.874 99.3034 177.033 99.2383 178.621H93.8281C93.9193 176.212 94.3555 174.266 95.1367 172.781C96.6211 169.956 99.2578 168.543 103.047 168.543C106.042 168.543 108.424 169.376 110.195 171.043C111.966 172.697 112.852 174.891 112.852 177.625C112.852 179.721 112.227 181.583 110.977 183.211C110.156 184.292 108.809 185.496 106.934 186.824L104.707 188.406C103.314 189.396 102.357 190.112 101.836 190.555C101.328 190.997 100.898 191.512 100.547 192.098H112.91V197H93.5156ZM121.465 183.113C121.465 186.368 121.732 188.862 122.266 190.594C122.799 192.312 123.893 193.172 125.547 193.172C127.201 193.172 128.281 192.312 128.789 190.594C129.31 188.862 129.57 186.368 129.57 183.113C129.57 179.702 129.31 177.176 128.789 175.535C128.281 173.895 127.201 173.074 125.547 173.074C123.893 173.074 122.799 173.895 122.266 175.535C121.732 177.176 121.465 179.702 121.465 183.113ZM125.547 168.484C129.154 168.484 131.68 169.754 133.125 172.293C134.583 174.832 135.312 178.439 135.312 183.113C135.312 187.788 134.583 191.388 133.125 193.914C131.68 196.44 129.154 197.703 125.547 197.703C121.94 197.703 119.408 196.44 117.949 193.914C116.504 191.388 115.781 187.788 115.781 183.113C115.781 178.439 116.504 174.832 117.949 172.293C119.408 169.754 121.94 168.484 125.547 168.484Z" fill="white"/>
<path d="M162.303 0.670543C161.663 0.0439349 160.716 -0.165244 159.869 0.135509L62.5206 34.5564C59.1386 32.5055 54.8488 32.0254 50.9144 33.6409C44.3835 36.3238 41.2708 43.7754 43.9759 50.2523C50.3554 65.5242 59.5661 79.1946 71.3531 90.8833C83.14 102.572 96.9251 111.706 112.326 118.032C113.925 118.689 115.583 119 117.215 119C122.248 119 127.034 116.042 129.076 111.151C130.451 107.861 130.321 104.319 129.006 101.278L162.874 3.0768C163.165 2.23265 162.943 1.29738 162.303 0.670543ZM77.2605 34.2796L87.5777 30.632C88.789 31.9117 89.3794 33.6735 89.1429 35.4552C88.9343 37.024 88.1224 38.4188 86.8565 39.3822C85.5907 40.3456 84.0232 40.7618 82.44 40.5557C80.8582 40.3491 79.4519 39.5442 78.4804 38.2886C77.5854 37.1319 77.1595 35.7206 77.2605 34.2796ZM124.746 109.372C123.03 113.481 118.262 115.439 114.12 113.737C84.1101 101.41 60.7375 78.2324 48.3069 48.4731C47.4756 46.4829 47.4756 44.2909 48.3069 42.3005C49.1383 40.3102 50.7013 38.7602 52.7083 37.9358C54.7152 37.1114 56.9259 37.1114 58.9328 37.9358C60.9398 38.7602 62.5028 40.3102 63.3342 42.3005C68.6547 55.0388 76.3375 66.4409 86.1691 76.1905C96.0007 85.9401 107.499 93.5587 120.344 98.8351C124.487 100.537 126.462 105.264 124.746 109.372ZM145.568 38.8908C145.356 38.8857 145.144 38.8736 144.932 38.8462C143.35 38.6396 141.944 37.8345 140.973 36.5792C140.001 35.3239 139.581 33.7683 139.789 32.1997C140.219 28.9611 143.225 26.6736 146.492 27.0994C147.5 27.231 148.446 27.6186 149.253 28.2083L145.568 38.8908ZM150.811 23.6891C149.669 23.0725 148.414 22.6618 147.104 22.4907C141.274 21.7277 135.909 25.813 135.142 31.593C134.77 34.3928 135.52 37.1686 137.254 39.4091C138.923 41.5672 141.314 42.977 144.011 43.407L139.352 56.9151L133.995 52.8385C132.968 52.0575 131.497 52.249 130.709 53.2675C129.921 54.286 130.115 55.7449 131.142 56.5263L137.752 61.5563L125.636 96.688C124.62 95.8118 123.45 95.0787 122.139 94.5402C97.2998 84.3371 77.9545 65.1531 67.6661 40.5215C67.3085 39.6648 66.8641 38.8695 66.3515 38.1369L72.6278 35.9177C72.847 37.7929 73.5728 39.5816 74.7618 41.1181C76.4953 43.3587 79.0052 44.7955 81.8285 45.1639C82.3015 45.2257 82.773 45.2564 83.2422 45.2564C85.5738 45.2564 87.8294 44.501 89.7103 43.07C91.9699 41.3506 93.4186 38.862 93.7905 36.0618C94.124 33.5482 93.5325 31.0585 92.2043 28.996L121.339 18.6946L122.443 21.3382C122.817 22.2332 123.69 22.7736 124.609 22.7736C124.908 22.7736 125.212 22.7164 125.505 22.596C126.701 22.1049 127.269 20.745 126.774 19.5592L125.76 17.1316L156.866 6.13291L150.811 23.6891Z" fill="#FF9F0D"/>
</svg>
