<svg width="248" height="255" viewBox="0 0 248 255" fill="none" xmlns="http://www.w3.org/2000/svg">
<path d="M11.6836 231.727H15.7734L9.99609 242.508V249H6.38672V242.508L0.410156 231.727H4.66406L8.25 239.25L11.6836 231.727ZM21.293 238.641C20.5195 238.641 19.918 238.883 19.4883 239.367C19.0664 239.852 18.8008 240.508 18.6914 241.336H23.8828C23.8281 240.453 23.5586 239.785 23.0742 239.332C22.5977 238.871 22.0039 238.641 21.293 238.641ZM21.293 235.887C22.3555 235.887 23.3125 236.086 24.1641 236.484C25.0156 236.883 25.7188 237.512 26.2734 238.371C26.7734 239.129 27.0977 240.008 27.2461 241.008C27.332 241.594 27.3672 242.438 27.3516 243.539H18.6094C18.6562 244.82 19.0586 245.719 19.8164 246.234C20.2773 246.555 20.832 246.715 21.4805 246.715C22.168 246.715 22.7266 246.52 23.1562 246.129C23.3906 245.918 23.5977 245.625 23.7773 245.25H27.1875C27.1016 246.008 26.707 246.777 26.0039 247.559C24.9102 248.801 23.3789 249.422 21.4102 249.422C19.7852 249.422 18.3516 248.898 17.1094 247.852C15.8672 246.805 15.2461 245.102 15.2461 242.742C15.2461 240.531 15.8047 238.836 16.9219 237.656C18.0469 236.477 19.5039 235.887 21.293 235.887ZM36.6562 242.789C36.4453 242.922 36.2305 243.031 36.0117 243.117C35.8008 243.195 35.5078 243.27 35.1328 243.34L34.3828 243.48C33.6797 243.605 33.1758 243.758 32.8711 243.938C32.3555 244.242 32.0977 244.715 32.0977 245.355C32.0977 245.926 32.2539 246.34 32.5664 246.598C32.8867 246.848 33.2734 246.973 33.7266 246.973C34.4453 246.973 35.1055 246.762 35.707 246.34C36.3164 245.918 36.6328 245.148 36.6562 244.031V242.789ZM34.6289 241.23C35.2461 241.152 35.6875 241.055 35.9531 240.938C36.4297 240.734 36.668 240.418 36.668 239.988C36.668 239.465 36.4844 239.105 36.1172 238.91C35.7578 238.707 35.2266 238.605 34.5234 238.605C33.7344 238.605 33.1758 238.801 32.8477 239.191C32.6133 239.48 32.457 239.871 32.3789 240.363H29.1562C29.2266 239.246 29.5391 238.328 30.0938 237.609C30.9766 236.484 32.4922 235.922 34.6406 235.922C36.0391 235.922 37.2812 236.199 38.3672 236.754C39.4531 237.309 39.9961 238.355 39.9961 239.895V245.754C39.9961 246.16 40.0039 246.652 40.0195 247.23C40.043 247.668 40.1094 247.965 40.2188 248.121C40.3281 248.277 40.4922 248.406 40.7109 248.508V249H37.0781C36.9766 248.742 36.9062 248.5 36.8672 248.273C36.8281 248.047 36.7969 247.789 36.7734 247.5C36.3125 248 35.7812 248.426 35.1797 248.777C34.4609 249.191 33.6484 249.398 32.7422 249.398C31.5859 249.398 30.6289 249.07 29.8711 248.414C29.1211 247.75 28.7461 246.812 28.7461 245.602C28.7461 244.031 29.3516 242.895 30.5625 242.191C31.2266 241.809 32.2031 241.535 33.4922 241.371L34.6289 241.23ZM49.9102 235.922C49.9727 235.922 50.0234 235.926 50.0625 235.934C50.1094 235.934 50.207 235.938 50.3555 235.945V239.367C50.1445 239.344 49.957 239.328 49.793 239.32C49.6289 239.312 49.4961 239.309 49.3945 239.309C48.0508 239.309 47.1484 239.746 46.6875 240.621C46.4297 241.113 46.3008 241.871 46.3008 242.895V249H42.9375V236.227H46.125V238.453C46.6406 237.602 47.0898 237.02 47.4727 236.707C48.0977 236.184 48.9102 235.922 49.9102 235.922ZM54.9258 244.922C54.9961 245.516 55.1484 245.938 55.3828 246.188C55.7969 246.633 56.5625 246.855 57.6797 246.855C58.3359 246.855 58.8555 246.758 59.2383 246.562C59.6289 246.367 59.8242 246.074 59.8242 245.684C59.8242 245.309 59.668 245.023 59.3555 244.828C59.043 244.633 57.8828 244.297 55.875 243.82C54.4297 243.461 53.4102 243.012 52.8164 242.473C52.2227 241.941 51.9258 241.176 51.9258 240.176C51.9258 238.996 52.3867 237.984 53.3086 237.141C54.2383 236.289 55.543 235.863 57.2227 235.863C58.8164 235.863 60.1133 236.184 61.1133 236.824C62.1211 237.457 62.6992 238.555 62.8477 240.117H59.5078C59.4609 239.688 59.3398 239.348 59.1445 239.098C58.7773 238.645 58.1523 238.418 57.2695 238.418C56.543 238.418 56.0234 238.531 55.7109 238.758C55.4062 238.984 55.2539 239.25 55.2539 239.555C55.2539 239.938 55.418 240.215 55.7461 240.387C56.0742 240.566 57.2344 240.875 59.2266 241.312C60.5547 241.625 61.5508 242.098 62.2148 242.73C62.8711 243.371 63.1992 244.172 63.1992 245.133C63.1992 246.398 62.7266 247.434 61.7812 248.238C60.8438 249.035 59.3906 249.434 57.4219 249.434C55.4141 249.434 53.9297 249.012 52.9688 248.168C52.0156 247.316 51.5391 246.234 51.5391 244.922H54.9258ZM80.2734 246.422C81.7031 246.422 82.8359 245.895 83.6719 244.84C84.5156 243.785 84.9375 242.285 84.9375 240.34C84.9375 238.402 84.5156 236.906 83.6719 235.852C82.8359 234.789 81.7031 234.258 80.2734 234.258C78.8438 234.258 77.7031 234.785 76.8516 235.84C76 236.895 75.5742 238.395 75.5742 240.34C75.5742 242.285 76 243.785 76.8516 244.84C77.7031 245.895 78.8438 246.422 80.2734 246.422ZM88.5469 240.34C88.5469 243.441 87.6758 245.816 85.9336 247.465C84.6289 248.809 82.7422 249.48 80.2734 249.48C77.8047 249.48 75.918 248.809 74.6133 247.465C72.8633 245.816 71.9883 243.441 71.9883 240.34C71.9883 237.176 72.8633 234.801 74.6133 233.215C75.918 231.871 77.8047 231.199 80.2734 231.199C82.7422 231.199 84.6289 231.871 85.9336 233.215C87.6758 234.801 88.5469 237.176 88.5469 240.34ZM95.7539 231.551C95.9648 231.551 96.1562 231.559 96.3281 231.574C96.5 231.582 96.7344 231.598 97.0312 231.621V234.34C96.8438 234.316 96.5273 234.301 96.082 234.293C95.6445 234.277 95.3398 234.375 95.168 234.586C95.0039 234.789 94.9219 235.016 94.9219 235.266C94.9219 235.516 94.9219 235.875 94.9219 236.344H97.1133V238.699H94.9219V249H91.5938V238.699H89.7305V236.344H91.5586V235.523C91.5586 234.156 91.7891 233.215 92.25 232.699C92.7344 231.934 93.9023 231.551 95.7539 231.551ZM118.758 234.785H109.617V238.453H118.008V241.453H109.617V245.895H119.18V249H106.09V231.727H118.758V234.785ZM120.469 249L124.828 242.531L120.656 236.25H124.746L126.879 239.953L128.965 236.25H132.938L128.742 242.473L133.102 249H128.941L126.738 245.168L124.523 249H120.469ZM143.883 242.613C143.883 241.629 143.656 240.758 143.203 240C142.758 239.242 142.031 238.863 141.023 238.863C139.812 238.863 138.98 239.438 138.527 240.586C138.293 241.195 138.176 241.969 138.176 242.906C138.176 244.391 138.57 245.434 139.359 246.035C139.828 246.387 140.383 246.562 141.023 246.562C141.953 246.562 142.66 246.203 143.145 245.484C143.637 244.766 143.883 243.809 143.883 242.613ZM141.984 235.945C143.477 235.945 144.738 236.496 145.77 237.598C146.809 238.699 147.328 240.316 147.328 242.449C147.328 244.699 146.82 246.414 145.805 247.594C144.797 248.773 143.496 249.363 141.902 249.363C140.887 249.363 140.043 249.109 139.371 248.602C139.004 248.32 138.645 247.91 138.293 247.371V254.027H134.988V236.227H138.188V238.113C138.547 237.559 138.93 237.121 139.336 236.801C140.078 236.23 140.961 235.945 141.984 235.945ZM154.793 238.641C154.02 238.641 153.418 238.883 152.988 239.367C152.566 239.852 152.301 240.508 152.191 241.336H157.383C157.328 240.453 157.059 239.785 156.574 239.332C156.098 238.871 155.504 238.641 154.793 238.641ZM154.793 235.887C155.855 235.887 156.812 236.086 157.664 236.484C158.516 236.883 159.219 237.512 159.773 238.371C160.273 239.129 160.598 240.008 160.746 241.008C160.832 241.594 160.867 242.438 160.852 243.539H152.109C152.156 244.82 152.559 245.719 153.316 246.234C153.777 246.555 154.332 246.715 154.98 246.715C155.668 246.715 156.227 246.52 156.656 246.129C156.891 245.918 157.098 245.625 157.277 245.25H160.688C160.602 246.008 160.207 246.777 159.504 247.559C158.41 248.801 156.879 249.422 154.91 249.422C153.285 249.422 151.852 248.898 150.609 247.852C149.367 246.805 148.746 245.102 148.746 242.742C148.746 240.531 149.305 238.836 150.422 237.656C151.547 236.477 153.004 235.887 154.793 235.887ZM170.051 235.922C170.113 235.922 170.164 235.926 170.203 235.934C170.25 235.934 170.348 235.938 170.496 235.945V239.367C170.285 239.344 170.098 239.328 169.934 239.32C169.77 239.312 169.637 239.309 169.535 239.309C168.191 239.309 167.289 239.746 166.828 240.621C166.57 241.113 166.441 241.871 166.441 242.895V249H163.078V236.227H166.266V238.453C166.781 237.602 167.23 237.02 167.613 236.707C168.238 236.184 169.051 235.922 170.051 235.922ZM175.898 234.703H172.512V231.621H175.898V234.703ZM172.512 236.227H175.898V249H172.512V236.227ZM184.184 238.641C183.41 238.641 182.809 238.883 182.379 239.367C181.957 239.852 181.691 240.508 181.582 241.336H186.773C186.719 240.453 186.449 239.785 185.965 239.332C185.488 238.871 184.895 238.641 184.184 238.641ZM184.184 235.887C185.246 235.887 186.203 236.086 187.055 236.484C187.906 236.883 188.609 237.512 189.164 238.371C189.664 239.129 189.988 240.008 190.137 241.008C190.223 241.594 190.258 242.438 190.242 243.539H181.5C181.547 244.82 181.949 245.719 182.707 246.234C183.168 246.555 183.723 246.715 184.371 246.715C185.059 246.715 185.617 246.52 186.047 246.129C186.281 245.918 186.488 245.625 186.668 245.25H190.078C189.992 246.008 189.598 246.777 188.895 247.559C187.801 248.801 186.27 249.422 184.301 249.422C182.676 249.422 181.242 248.898 180 247.852C178.758 246.805 178.137 245.102 178.137 242.742C178.137 240.531 178.695 238.836 179.812 237.656C180.938 236.477 182.395 235.887 184.184 235.887ZM199.582 235.922C200.902 235.922 201.98 236.27 202.816 236.965C203.66 237.652 204.082 238.797 204.082 240.398V249H200.66V241.23C200.66 240.559 200.57 240.043 200.391 239.684C200.062 239.027 199.438 238.699 198.516 238.699C197.383 238.699 196.605 239.18 196.184 240.141C195.965 240.648 195.855 241.297 195.855 242.086V249H192.527V236.25H195.75V238.113C196.18 237.457 196.586 236.984 196.969 236.695C197.656 236.18 198.527 235.922 199.582 235.922ZM214.805 240.809C214.742 240.332 214.582 239.902 214.324 239.52C213.949 239.004 213.367 238.746 212.578 238.746C211.453 238.746 210.684 239.305 210.27 240.422C210.051 241.016 209.941 241.805 209.941 242.789C209.941 243.727 210.051 244.48 210.27 245.051C210.668 246.113 211.418 246.645 212.52 246.645C213.301 246.645 213.855 246.434 214.184 246.012C214.512 245.59 214.711 245.043 214.781 244.371H218.191C218.113 245.387 217.746 246.348 217.09 247.254C216.043 248.715 214.492 249.445 212.438 249.445C210.383 249.445 208.871 248.836 207.902 247.617C206.934 246.398 206.449 244.816 206.449 242.871C206.449 240.676 206.984 238.969 208.055 237.75C209.125 236.531 210.602 235.922 212.484 235.922C214.086 235.922 215.395 236.281 216.41 237C217.434 237.719 218.039 238.988 218.227 240.809H214.805ZM225.574 238.641C224.801 238.641 224.199 238.883 223.77 239.367C223.348 239.852 223.082 240.508 222.973 241.336H228.164C228.109 240.453 227.84 239.785 227.355 239.332C226.879 238.871 226.285 238.641 225.574 238.641ZM225.574 235.887C226.637 235.887 227.594 236.086 228.445 236.484C229.297 236.883 230 237.512 230.555 238.371C231.055 239.129 231.379 240.008 231.527 241.008C231.613 241.594 231.648 242.438 231.633 243.539H222.891C222.938 244.82 223.34 245.719 224.098 246.234C224.559 246.555 225.113 246.715 225.762 246.715C226.449 246.715 227.008 246.52 227.438 246.129C227.672 245.918 227.879 245.625 228.059 245.25H231.469C231.383 246.008 230.988 246.777 230.285 247.559C229.191 248.801 227.66 249.422 225.691 249.422C224.066 249.422 222.633 248.898 221.391 247.852C220.148 246.805 219.527 245.102 219.527 242.742C219.527 240.531 220.086 238.836 221.203 237.656C222.328 236.477 223.785 235.887 225.574 235.887ZM238.605 235.922C239.379 235.922 240.066 236.094 240.668 236.438C241.27 236.773 241.758 237.242 242.133 237.844V231.75H245.52V249H242.273V247.23C241.797 247.988 241.254 248.539 240.645 248.883C240.035 249.227 239.277 249.398 238.371 249.398C236.879 249.398 235.621 248.797 234.598 247.594C233.582 246.383 233.074 244.832 233.074 242.941C233.074 240.762 233.574 239.047 234.574 237.797C235.582 236.547 236.926 235.922 238.605 235.922ZM239.332 246.586C240.277 246.586 240.996 246.234 241.488 245.531C241.98 244.828 242.227 243.918 242.227 242.801C242.227 241.238 241.832 240.121 241.043 239.449C240.559 239.043 239.996 238.84 239.355 238.84C238.379 238.84 237.66 239.211 237.199 239.953C236.746 240.688 236.52 241.602 236.52 242.695C236.52 243.875 236.75 244.82 237.211 245.531C237.68 246.234 238.387 246.586 239.332 246.586Z" fill="white"/>
<path d="M96.5234 188.309C96.5234 189.441 96.7057 190.379 97.0703 191.121C97.7474 192.488 98.9779 193.172 100.762 193.172C101.855 193.172 102.806 192.801 103.613 192.059C104.434 191.303 104.844 190.223 104.844 188.816C104.844 186.954 104.089 185.711 102.578 185.086C101.719 184.734 100.365 184.559 98.5156 184.559V180.574C100.326 180.548 101.589 180.372 102.305 180.047C103.542 179.5 104.16 178.393 104.16 176.727C104.16 175.646 103.841 174.767 103.203 174.09C102.578 173.413 101.693 173.074 100.547 173.074C99.2318 173.074 98.2617 173.491 97.6367 174.324C97.0247 175.158 96.7318 176.271 96.7578 177.664H91.5625C91.6146 176.258 91.8555 174.923 92.2852 173.66C92.7409 172.553 93.457 171.531 94.4336 170.594C95.1628 169.93 96.0286 169.422 97.0312 169.07C98.0339 168.719 99.2643 168.543 100.723 168.543C103.431 168.543 105.612 169.246 107.266 170.652C108.932 172.046 109.766 173.921 109.766 176.277C109.766 177.944 109.271 179.35 108.281 180.496C107.656 181.212 107.005 181.701 106.328 181.961C106.836 181.961 107.565 182.397 108.516 183.27C109.935 184.585 110.645 186.382 110.645 188.66C110.645 191.056 109.811 193.165 108.145 194.988C106.491 196.798 104.036 197.703 100.781 197.703C96.7708 197.703 93.9844 196.395 92.4219 193.777C91.6016 192.384 91.1458 190.561 91.0547 188.309H96.5234ZM119.199 183.113C119.199 186.368 119.466 188.862 120 190.594C120.534 192.312 121.628 193.172 123.281 193.172C124.935 193.172 126.016 192.312 126.523 190.594C127.044 188.862 127.305 186.368 127.305 183.113C127.305 179.702 127.044 177.176 126.523 175.535C126.016 173.895 124.935 173.074 123.281 173.074C121.628 173.074 120.534 173.895 120 175.535C119.466 177.176 119.199 179.702 119.199 183.113ZM123.281 168.484C126.888 168.484 129.414 169.754 130.859 172.293C132.318 174.832 133.047 178.439 133.047 183.113C133.047 187.788 132.318 191.388 130.859 193.914C129.414 196.44 126.888 197.703 123.281 197.703C119.674 197.703 117.142 196.44 115.684 193.914C114.238 191.388 113.516 187.788 113.516 183.113C113.516 178.439 114.238 174.832 115.684 172.293C117.142 169.754 119.674 168.484 123.281 168.484ZM135.957 188.953V183.855H143.965V175.848H149.102V183.855H157.109V188.953H149.102V197H143.965V188.953H135.957Z" fill="white"/>
<path d="M153.201 47.5742L160.251 47.1287C160.263 47.1278 160.276 47.1269 160.289 47.126C165.313 46.7032 169.823 44.0783 172.663 39.9222L178.237 31.7671C183.088 24.6674 184.968 16.0923 183.528 7.62214C183.245 5.95861 182.392 4.42565 181.126 3.30719C179.86 2.18782 178.232 1.52679 176.542 1.44645C167.935 1.03559 159.626 3.92531 153.141 9.57967L145.69 16.0758C141.893 19.3855 139.82 24.1652 140.002 29.1914C140.003 29.2033 140.003 29.2161 140.004 29.2289L140.405 36.2619C140.562 39.0037 139.554 41.709 137.645 43.6793L79.4376 103.313C77.8793 104.933 77.0746 107.156 77.1725 109.573C77.2806 112.234 78.5046 114.847 80.4474 116.564C82.2025 118.115 84.6149 118.999 87.0264 118.999C87.2846 118.999 87.5428 118.989 87.8 118.968C90.2179 118.776 92.3356 117.713 93.7693 115.965L146.144 51.2008C147.881 49.0698 150.453 47.7477 153.201 47.5742ZM143.348 48.9438L90.9778 113.703C90.1777 114.678 88.9472 115.279 87.5135 115.393C85.8078 115.529 84.0592 114.963 82.8342 113.88C81.6092 112.796 80.8365 111.133 80.7678 109.428C80.7092 107.995 81.1588 106.705 82.0249 105.805L140.228 46.1764C142.837 43.4839 144.21 39.7962 143.998 36.0583L143.596 29.0435C143.46 25.1093 145.085 21.3686 148.057 18.7766L155.508 12.2804C161.291 7.23959 168.701 4.66577 176.371 5.02915C177.245 5.07115 178.085 5.41262 178.74 5.99148C179.394 6.56943 179.835 7.36193 179.981 8.22109C181.265 15.7727 179.589 23.4165 175.264 29.7456L169.691 37.9017C167.467 41.1557 163.937 43.2127 160.004 43.5496L152.973 43.9934C149.227 44.2308 145.72 46.0331 143.348 48.9438Z" fill="#FF9F0D"/>
<path d="M180.677 102.86L141.649 67.4097C140.915 66.7423 139.778 66.7952 139.108 67.5275C138.439 68.2597 138.492 69.3946 139.227 70.062L178.245 105.504C179.173 106.359 179.699 107.62 179.728 109.054C179.762 110.759 179.091 112.466 177.932 113.62C176.775 114.775 175.067 115.446 173.353 115.411C171.916 115.383 170.651 114.858 169.803 113.942L135.025 75.8652C134.356 75.132 133.218 75.08 132.484 75.7465C131.75 76.4139 131.696 77.5488 132.366 78.2811L167.151 116.367C168.68 118.016 170.857 118.951 173.282 118.998C173.346 118.999 173.408 119 173.471 119C176.078 119 178.684 117.945 180.476 116.158C182.312 114.326 183.377 111.645 183.324 108.983C183.276 106.565 182.34 104.393 180.677 102.86Z" fill="#FF9F0D"/>
<path d="M85.7052 47.2345C88.6825 49.9699 92.5506 51.5293 96.5972 51.6261C96.6101 51.627 96.6229 51.627 96.6348 51.627L103.699 51.649C106.453 51.6572 109.1 52.8231 110.957 54.8418L114.069 58.2483C114.424 58.6372 114.911 58.8344 115.399 58.8344C115.832 58.8344 116.266 58.6801 116.61 58.367C117.345 57.6995 117.398 56.5647 116.729 55.8324L113.612 52.4214C111.074 49.6622 107.465 48.0736 103.711 48.0608L96.6659 48.0389C93.5357 47.9594 90.5428 46.7643 88.2238 44.6707L67.7517 20.4008C67.543 20.1524 67.5585 19.7927 67.7883 19.5635C67.9458 19.4056 68.1307 19.3828 68.2269 19.3828C68.323 19.3828 68.5079 19.4056 68.6663 19.5635L87.301 38.1481C89.143 39.9851 92.1404 39.9851 93.9825 38.1472L96.1724 35.9641V35.9632L100.061 32.0856C100.061 32.0856 100.062 32.0856 100.062 32.0847L100.063 32.0838L102.252 29.9008C104.094 28.0638 104.094 25.0745 102.252 23.2375L83.6169 4.65389C83.3752 4.41286 83.3752 4.01934 83.6169 3.77831C83.8467 3.54914 84.2074 3.53362 84.4564 3.74179L108.793 24.1588C110.893 26.4706 112.092 29.4561 112.171 32.5768L112.192 39.6035C112.205 43.3468 113.799 46.946 116.569 49.4823L119.904 52.5108C120.639 53.1783 121.776 53.1253 122.445 52.3931C123.114 51.6599 123.061 50.5259 122.326 49.8585L118.997 46.8346C116.968 44.9775 115.8 42.337 115.79 39.5916L115.768 32.5467C115.768 32.5339 115.768 32.5211 115.767 32.5084C115.67 28.4728 114.107 24.6153 111.364 21.6461C111.313 21.5905 111.258 21.5375 111.199 21.4882L86.7718 0.996329C85.0836 -0.420681 82.6336 -0.31477 81.0735 1.24102C79.4283 2.88172 79.4283 5.55048 81.0735 7.19027L99.7082 25.7748C100.148 26.2131 100.148 26.9261 99.7082 27.3644L98.7899 28.2792L78.0212 7.56826C77.319 6.86706 76.18 6.86706 75.4778 7.56826C74.7756 8.26855 74.7756 9.40435 75.4778 10.1046L96.2466 30.8165L94.9008 32.1578L74.132 11.4468C73.4298 10.7465 72.2909 10.7465 71.5887 11.4468C70.8855 12.1471 70.8855 13.2829 71.5887 13.9832L92.3565 34.695L91.4391 35.6108C90.9997 36.0491 90.2847 36.0491 89.8452 35.6108L71.2096 17.0272C70.4131 16.2328 69.3539 15.7946 68.2269 15.7946C67.0998 15.7946 66.0406 16.2328 65.2441 17.0272C63.684 18.583 63.5787 21.0262 64.9987 22.7107L85.5477 47.0701C85.5963 47.1286 85.6494 47.1834 85.7052 47.2345Z" fill="#FF9F0D"/>
</svg>
