<svg width="162" height="255" viewBox="0 0 162 255" fill="none" xmlns="http://www.w3.org/2000/svg">
<path d="M5.13281 249H1.54688V231.727H5.13281V249ZM6.92578 238.723V236.344H8.70703V232.781H12.0117V236.344H14.0859V238.723H12.0117V245.473C12.0117 245.996 12.0781 246.324 12.2109 246.457C12.3438 246.582 12.75 246.645 13.4297 246.645C13.5312 246.645 13.6367 246.645 13.7461 246.645C13.8633 246.637 13.9766 246.629 14.0859 246.621V249.117L12.5039 249.176C10.9258 249.23 9.84766 248.957 9.26953 248.355C8.89453 247.973 8.70703 247.383 8.70703 246.586V238.723H6.92578ZM21.2695 238.641C20.4961 238.641 19.8945 238.883 19.4648 239.367C19.043 239.852 18.7773 240.508 18.668 241.336H23.8594C23.8047 240.453 23.5352 239.785 23.0508 239.332C22.5742 238.871 21.9805 238.641 21.2695 238.641ZM21.2695 235.887C22.332 235.887 23.2891 236.086 24.1406 236.484C24.9922 236.883 25.6953 237.512 26.25 238.371C26.75 239.129 27.0742 240.008 27.2227 241.008C27.3086 241.594 27.3438 242.438 27.3281 243.539H18.5859C18.6328 244.82 19.0352 245.719 19.793 246.234C20.2539 246.555 20.8086 246.715 21.457 246.715C22.1445 246.715 22.7031 246.52 23.1328 246.129C23.3672 245.918 23.5742 245.625 23.7539 245.25H27.1641C27.0781 246.008 26.6836 246.777 25.9805 247.559C24.8867 248.801 23.3555 249.422 21.3867 249.422C19.7617 249.422 18.3281 248.898 17.0859 247.852C15.8438 246.805 15.2227 245.102 15.2227 242.742C15.2227 240.531 15.7812 238.836 16.8984 237.656C18.0234 236.477 19.4805 235.887 21.2695 235.887ZM43.8633 235.945C44.4258 235.945 44.9805 236.055 45.5273 236.273C46.0742 236.492 46.5703 236.875 47.0156 237.422C47.375 237.867 47.6172 238.414 47.7422 239.062C47.8203 239.492 47.8594 240.121 47.8594 240.949L47.8359 249H44.4141V240.867C44.4141 240.383 44.3359 239.984 44.1797 239.672C43.8828 239.078 43.3359 238.781 42.5391 238.781C41.6172 238.781 40.9805 239.164 40.6289 239.93C40.4492 240.336 40.3594 240.824 40.3594 241.395V249H36.9961V241.395C36.9961 240.637 36.918 240.086 36.7617 239.742C36.4805 239.125 35.9297 238.816 35.1094 238.816C34.1562 238.816 33.5156 239.125 33.1875 239.742C33.0078 240.094 32.918 240.617 32.918 241.312V249H29.5312V236.25H32.7773V238.113C33.1914 237.449 33.582 236.977 33.9492 236.695C34.5977 236.195 35.4375 235.945 36.4688 235.945C37.4453 235.945 38.2344 236.16 38.8359 236.59C39.3203 236.988 39.6875 237.5 39.9375 238.125C40.375 237.375 40.918 236.824 41.5664 236.473C42.2539 236.121 43.0195 235.945 43.8633 235.945ZM53.543 244.922C53.6133 245.516 53.7656 245.938 54 246.188C54.4141 246.633 55.1797 246.855 56.2969 246.855C56.9531 246.855 57.4727 246.758 57.8555 246.562C58.2461 246.367 58.4414 246.074 58.4414 245.684C58.4414 245.309 58.2852 245.023 57.9727 244.828C57.6602 244.633 56.5 244.297 54.4922 243.82C53.0469 243.461 52.0273 243.012 51.4336 242.473C50.8398 241.941 50.543 241.176 50.543 240.176C50.543 238.996 51.0039 237.984 51.9258 237.141C52.8555 236.289 54.1602 235.863 55.8398 235.863C57.4336 235.863 58.7305 236.184 59.7305 236.824C60.7383 237.457 61.3164 238.555 61.4648 240.117H58.125C58.0781 239.688 57.957 239.348 57.7617 239.098C57.3945 238.645 56.7695 238.418 55.8867 238.418C55.1602 238.418 54.6406 238.531 54.3281 238.758C54.0234 238.984 53.8711 239.25 53.8711 239.555C53.8711 239.938 54.0352 240.215 54.3633 240.387C54.6914 240.566 55.8516 240.875 57.8438 241.312C59.1719 241.625 60.168 242.098 60.832 242.73C61.4883 243.371 61.8164 244.172 61.8164 245.133C61.8164 246.398 61.3438 247.434 60.3984 248.238C59.4609 249.035 58.0078 249.434 56.0391 249.434C54.0312 249.434 52.5469 249.012 51.5859 248.168C50.6328 247.316 50.1562 246.234 50.1562 244.922H53.543ZM78.8906 246.422C80.3203 246.422 81.4531 245.895 82.2891 244.84C83.1328 243.785 83.5547 242.285 83.5547 240.34C83.5547 238.402 83.1328 236.906 82.2891 235.852C81.4531 234.789 80.3203 234.258 78.8906 234.258C77.4609 234.258 76.3203 234.785 75.4688 235.84C74.6172 236.895 74.1914 238.395 74.1914 240.34C74.1914 242.285 74.6172 243.785 75.4688 244.84C76.3203 245.895 77.4609 246.422 78.8906 246.422ZM87.1641 240.34C87.1641 243.441 86.293 245.816 84.5508 247.465C83.2461 248.809 81.3594 249.48 78.8906 249.48C76.4219 249.48 74.5352 248.809 73.2305 247.465C71.4805 245.816 70.6055 243.441 70.6055 240.34C70.6055 237.176 71.4805 234.801 73.2305 233.215C74.5352 231.871 76.4219 231.199 78.8906 231.199C81.3594 231.199 83.2461 231.871 84.5508 233.215C86.293 234.801 87.1641 237.176 87.1641 240.34ZM94.3711 231.551C94.582 231.551 94.7734 231.559 94.9453 231.574C95.1172 231.582 95.3516 231.598 95.6484 231.621V234.34C95.4609 234.316 95.1445 234.301 94.6992 234.293C94.2617 234.277 93.957 234.375 93.7852 234.586C93.6211 234.789 93.5391 235.016 93.5391 235.266C93.5391 235.516 93.5391 235.875 93.5391 236.344H95.7305V238.699H93.5391V249H90.2109V238.699H88.3477V236.344H90.1758V235.523C90.1758 234.156 90.4062 233.215 90.8672 232.699C91.3516 231.934 92.5195 231.551 94.3711 231.551ZM104.602 231.75H116.848V234.785H108.188V238.758H115.77V241.758H108.188V249H104.602V231.75ZM124.734 246.645C125.711 246.645 126.461 246.297 126.984 245.602C127.508 244.906 127.77 243.918 127.77 242.637C127.77 241.355 127.508 240.371 126.984 239.684C126.461 238.988 125.711 238.641 124.734 238.641C123.758 238.641 123.004 238.988 122.473 239.684C121.949 240.371 121.688 241.355 121.688 242.637C121.688 243.918 121.949 244.906 122.473 245.602C123.004 246.297 123.758 246.645 124.734 246.645ZM131.273 242.637C131.273 244.512 130.734 246.117 129.656 247.453C128.578 248.781 126.941 249.445 124.746 249.445C122.551 249.445 120.914 248.781 119.836 247.453C118.758 246.117 118.219 244.512 118.219 242.637C118.219 240.793 118.758 239.195 119.836 237.844C120.914 236.492 122.551 235.816 124.746 235.816C126.941 235.816 128.578 236.492 129.656 237.844C130.734 239.195 131.273 240.793 131.273 242.637ZM139.406 246.645C140.383 246.645 141.133 246.297 141.656 245.602C142.18 244.906 142.441 243.918 142.441 242.637C142.441 241.355 142.18 240.371 141.656 239.684C141.133 238.988 140.383 238.641 139.406 238.641C138.43 238.641 137.676 238.988 137.145 239.684C136.621 240.371 136.359 241.355 136.359 242.637C136.359 243.918 136.621 244.906 137.145 245.602C137.676 246.297 138.43 246.645 139.406 246.645ZM145.945 242.637C145.945 244.512 145.406 246.117 144.328 247.453C143.25 248.781 141.613 249.445 139.418 249.445C137.223 249.445 135.586 248.781 134.508 247.453C133.43 246.117 132.891 244.512 132.891 242.637C132.891 240.793 133.43 239.195 134.508 237.844C135.586 236.492 137.223 235.816 139.418 235.816C141.613 235.816 143.25 236.492 144.328 237.844C145.406 239.195 145.945 240.793 145.945 242.637ZM153.059 235.922C153.832 235.922 154.52 236.094 155.121 236.438C155.723 236.773 156.211 237.242 156.586 237.844V231.75H159.973V249H156.727V247.23C156.25 247.988 155.707 248.539 155.098 248.883C154.488 249.227 153.73 249.398 152.824 249.398C151.332 249.398 150.074 248.797 149.051 247.594C148.035 246.383 147.527 244.832 147.527 242.941C147.527 240.762 148.027 239.047 149.027 237.797C150.035 236.547 151.379 235.922 153.059 235.922ZM153.785 246.586C154.73 246.586 155.449 246.234 155.941 245.531C156.434 244.828 156.68 243.918 156.68 242.801C156.68 241.238 156.285 240.121 155.496 239.449C155.012 239.043 154.449 238.84 153.809 238.84C152.832 238.84 152.113 239.211 151.652 239.953C151.199 240.688 150.973 241.602 150.973 242.695C150.973 243.875 151.203 244.82 151.664 245.531C152.133 246.234 152.84 246.586 153.785 246.586Z" fill="white"/>
<path d="M54.5234 188.309C54.5234 189.441 54.7057 190.379 55.0703 191.121C55.7474 192.488 56.9779 193.172 58.7617 193.172C59.8555 193.172 60.806 192.801 61.6133 192.059C62.4336 191.303 62.8438 190.223 62.8438 188.816C62.8438 186.954 62.0885 185.711 60.5781 185.086C59.7188 184.734 58.3646 184.559 56.5156 184.559V180.574C58.3255 180.548 59.5885 180.372 60.3047 180.047C61.5417 179.5 62.1602 178.393 62.1602 176.727C62.1602 175.646 61.8411 174.767 61.2031 174.09C60.5781 173.413 59.6927 173.074 58.5469 173.074C57.2318 173.074 56.2617 173.491 55.6367 174.324C55.0247 175.158 54.7318 176.271 54.7578 177.664H49.5625C49.6146 176.258 49.8555 174.923 50.2852 173.66C50.7409 172.553 51.457 171.531 52.4336 170.594C53.1628 169.93 54.0286 169.422 55.0312 169.07C56.0339 168.719 57.2643 168.543 58.7227 168.543C61.431 168.543 63.612 169.246 65.2656 170.652C66.9323 172.046 67.7656 173.921 67.7656 176.277C67.7656 177.944 67.2708 179.35 66.2812 180.496C65.6562 181.212 65.0052 181.701 64.3281 181.961C64.8359 181.961 65.5651 182.397 66.5156 183.27C67.9349 184.585 68.6445 186.382 68.6445 188.66C68.6445 191.056 67.8112 193.165 66.1445 194.988C64.4909 196.798 62.0365 197.703 58.7812 197.703C54.7708 197.703 51.9844 196.395 50.4219 193.777C49.6016 192.384 49.1458 190.561 49.0547 188.309H54.5234ZM71.5156 197C71.5677 194.969 72.0039 193.113 72.8242 191.434C73.6185 189.546 75.4935 187.547 78.4492 185.438C81.0143 183.602 82.6745 182.286 83.4297 181.492C84.5885 180.255 85.168 178.901 85.168 177.43C85.168 176.232 84.8359 175.236 84.1719 174.441C83.5078 173.647 82.5573 173.25 81.3203 173.25C79.6276 173.25 78.4753 173.882 77.8633 175.145C77.5117 175.874 77.3034 177.033 77.2383 178.621H71.8281C71.9193 176.212 72.3555 174.266 73.1367 172.781C74.6211 169.956 77.2578 168.543 81.0469 168.543C84.0417 168.543 86.4245 169.376 88.1953 171.043C89.9661 172.697 90.8516 174.891 90.8516 177.625C90.8516 179.721 90.2266 181.583 88.9766 183.211C88.1562 184.292 86.8086 185.496 84.9336 186.824L82.707 188.406C81.3138 189.396 80.3568 190.112 79.8359 190.555C79.3281 190.997 78.8984 191.512 78.5469 192.098H90.9102V197H71.5156ZM99.4648 183.113C99.4648 186.368 99.7318 188.862 100.266 190.594C100.799 192.312 101.893 193.172 103.547 193.172C105.201 193.172 106.281 192.312 106.789 190.594C107.31 188.862 107.57 186.368 107.57 183.113C107.57 179.702 107.31 177.176 106.789 175.535C106.281 173.895 105.201 173.074 103.547 173.074C101.893 173.074 100.799 173.895 100.266 175.535C99.7318 177.176 99.4648 179.702 99.4648 183.113ZM103.547 168.484C107.154 168.484 109.68 169.754 111.125 172.293C112.583 174.832 113.312 178.439 113.312 183.113C113.312 187.788 112.583 191.388 111.125 193.914C109.68 196.44 107.154 197.703 103.547 197.703C99.9401 197.703 97.4076 196.44 95.9492 193.914C94.5039 191.388 93.7812 187.788 93.7812 183.113C93.7812 178.439 94.5039 174.832 95.9492 172.293C97.4076 169.754 99.9401 168.484 103.547 168.484Z" fill="white"/>
<path d="M41.0015 65.4033C42.107 65.4033 43.0031 64.5153 43.0031 63.42C43.0031 62.3246 42.107 61.4366 41.0015 61.4366C39.8961 61.4366 39 62.3246 39 63.42C39 64.5153 39.8961 65.4033 41.0015 65.4033Z" fill="#FF9F0D"/>
<path d="M49.001 59.4573C50.1065 59.4573 51.0026 58.5693 51.0026 57.4739C51.0026 56.3786 50.1065 55.4906 49.001 55.4906C47.8956 55.4906 46.9995 56.3786 46.9995 57.4739C46.9995 58.5693 47.8956 59.4573 49.001 59.4573Z" fill="#FF9F0D"/>
<path d="M69.0015 57.4756C70.107 57.4756 71.0031 56.5876 71.0031 55.4922C71.0031 54.3969 70.107 53.5089 69.0015 53.5089C67.8961 53.5089 67 54.3969 67 55.4922C67 56.5876 67.8961 57.4756 69.0015 57.4756Z" fill="#FF9F0D"/>
<path d="M35.0025 75.312C36.1079 75.312 37.004 74.424 37.004 73.3287C37.004 72.2333 36.1079 71.3453 35.0025 71.3453C33.8971 71.3453 33.001 72.2333 33.001 73.3287C33.001 74.424 33.8971 75.312 35.0025 75.312Z" fill="#FF9F0D"/>
<path d="M45.0015 73.3303C46.107 73.3303 47.0031 72.4423 47.0031 71.347C47.0031 70.2516 46.107 69.3636 45.0015 69.3636C43.8961 69.3636 43 70.2516 43 71.347C43 72.4423 43.8961 73.3303 45.0015 73.3303Z" fill="#FF9F0D"/>
<path d="M53.0015 67.3847C54.107 67.3847 55.0031 66.4968 55.0031 65.4014C55.0031 64.3061 54.107 63.4181 53.0015 63.4181C51.8961 63.4181 51 64.3061 51 65.4014C51 66.4968 51.8961 67.3847 53.0015 67.3847Z" fill="#FF9F0D"/>
<path d="M135 21.8H107V13.8727C107 12.7782 107.895 11.8909 109 11.8909H125C128.314 11.8909 131 9.22902 131 5.94544C131 2.66186 128.314 0 125 0H107C100.375 0.00655461 95.0066 5.32645 95 11.8909V21.8H67C63.6863 21.8 61 24.4618 61 27.7454V29.7272C61.0085 32.2812 62.6659 34.543 65.114 35.3417L65.86 45.6947C64.912 45.6392 63.966 45.5817 63 45.5817C60.1032 45.5878 57.2131 45.8572 54.366 46.3863L49.514 40.1436C54.16 35.5855 54.418 30.2128 52.028 27.1409C49.638 24.0691 44.312 22.9514 38.698 26.2333L37.4 24.5547C36.9713 23.9734 36.2582 23.6682 35.5373 23.7575C34.8163 23.8467 34.2009 24.3164 33.9297 24.9843C33.6586 25.6522 33.7743 26.4134 34.232 26.9725L35.536 28.6531C30.874 33.2112 30.646 38.5958 33.022 41.6557C35.44 44.7652 40.786 45.8176 46.352 42.5634L50.1 47.3852C35.484 51.5272 25 62.4668 25 75.3089C24.9953 76.1812 25.046 77.053 25.152 77.919C25.3927 80.1505 26.881 82.0575 29 82.8497V87.1998C24.9765 87.1948 21.5779 90.1574 21.0699 94.1125C20.562 98.0675 23.1035 101.779 27 102.773V107.018C27.0008 109.99 28.1311 112.853 30.166 115.036H23C21.8954 115.036 21 115.924 21 117.018C21 118.113 21.8954 119 23 119H139C140.105 119 141 118.113 141 117.018C141 115.924 140.105 115.036 139 115.036H128.514C130.349 113.069 131.456 110.544 131.656 107.872L136.886 35.3377C139.333 34.54 140.99 32.2799 141 29.7272V27.7454C141 24.4618 138.314 21.8 135 21.8ZM36.184 39.2399C34.584 37.1749 36.052 33.9168 38 31.8319L39.108 33.2568C39.5367 33.8381 40.2498 34.1433 40.9707 34.054C41.6917 33.9648 42.3071 33.4951 42.5783 32.8272C42.8494 32.1592 42.7337 31.3981 42.276 30.839L41.168 29.4141C43.586 28.1398 47.216 27.4501 48.86 29.5647C50.848 32.1212 48.196 36.3247 45.574 38.3263C42.952 40.3279 38.174 41.7965 36.184 39.2399ZM99 11.8909C99 7.51278 102.582 3.96363 107 3.96363H125C126.105 3.96363 127 4.85092 127 5.94544C127 7.03997 126.105 7.92726 125 7.92726H109C105.686 7.92726 103 10.5891 103 13.8727V21.8H99V11.8909ZM132.136 45.5817H69.862L69.148 35.6726H132.852L132.136 45.5817ZM128.42 97.1089H104.716C104.896 96.4631 104.992 95.797 105 95.1271C105 90.749 101.418 87.1998 97 87.1998V82.8398C99.112 82.0569 100.599 80.1619 100.844 77.9408C100.952 77.0676 101.004 76.1886 101 75.3089C101 74.5598 100.926 73.8246 100.856 73.0893C104.801 72.1614 107.418 68.4522 106.944 64.4622C106.47 60.4722 103.054 57.4671 99 57.4726C97.4297 57.4814 95.8978 57.954 94.6 58.8301C91.0997 54.8452 86.7551 51.6749 81.876 49.5453H131.852L128.42 97.1089ZM97 91.1634C99.2091 91.1634 101 92.938 101 95.1271C101 97.3161 99.2091 99.0907 97 99.0907H59.828L67.828 91.1634H97ZM99 107.018V102.773C100.197 102.463 101.306 101.881 102.236 101.073H128.134L127.666 107.587C127.346 111.727 123.87 114.929 119.68 114.945H95.92C97.9017 112.772 98.9992 109.947 99 107.018ZM96.946 62.0308C97.5622 61.6487 98.2731 61.443 99 61.4362C100.976 61.4275 102.659 62.8571 102.952 64.7932C103.245 66.7294 102.059 68.5853 100.168 69.1514C99.467 66.6289 98.3804 64.2275 96.946 62.0308ZM52.716 50.7562L57.416 56.8027C58.0923 57.6631 59.3431 57.8203 60.2148 57.1545C61.0865 56.4887 61.2515 55.2501 60.584 54.383L57.142 49.9556C59.0833 49.6904 61.0403 49.5534 63 49.5453C81.748 49.5453 97 61.1033 97 75.3089C97.0024 76.0375 96.9597 76.7655 96.872 77.4889C96.7689 78.5054 95.903 79.2777 94.872 79.2726H31.12C30.0815 79.2707 29.215 78.486 29.12 77.4612C29.0358 76.7469 28.9957 76.0281 29 75.3089C29 63.8144 38.982 54.0678 52.716 50.7562ZM33 83.2362H93V87.1998H67C66.4696 87.1999 65.961 87.4088 65.586 87.7805L51.096 102.137L38.496 87.8677C38.1167 87.4433 37.5721 87.2002 37 87.1998H33V83.2362ZM25 95.1271C25 92.938 26.7909 91.1634 29 91.1634H36.092L43.092 99.0907H29C26.7909 99.0907 25 97.3161 25 95.1271ZM39 114.945C34.5817 114.945 31 111.396 31 107.018V103.054H46.6L48.096 104.749C48.8264 105.573 49.8679 106.061 50.974 106.098H51.104C52.1652 106.097 53.1828 105.68 53.934 104.937L55.828 103.054H95V107.018C95 111.396 91.4183 114.945 87 114.945H39ZM137 29.7272C137 30.8217 136.105 31.709 135 31.709H67C65.8954 31.709 65 30.8217 65 29.7272V27.7454C65 26.6509 65.8954 25.7636 67 25.7636H135C136.105 25.7636 137 26.6509 137 27.7454V29.7272Z" fill="#FF9F0D"/>
<path d="M119 53.5089C114.582 53.5089 111 57.0581 111 61.4362C111 65.8143 114.582 69.3634 119 69.3634C123.418 69.3634 127 65.8143 127 61.4362C127 57.0581 123.418 53.5089 119 53.5089ZM119 65.3998C116.791 65.3998 115 63.6252 115 61.4362C115 59.2471 116.791 57.4725 119 57.4725C121.209 57.4725 123 59.2471 123 61.4362C123 63.6252 121.209 65.3998 119 65.3998Z" fill="#FF9F0D"/>
<path d="M113 79.2725C109.686 79.2725 107 81.9343 107 85.2179C107 88.5015 109.686 91.1633 113 91.1633C116.314 91.1633 119 88.5015 119 85.2179C119 81.9343 116.314 79.2725 113 79.2725ZM113 87.1997C111.895 87.1997 111 86.3124 111 85.2179C111 84.1234 111.895 83.2361 113 83.2361C114.105 83.2361 115 84.1234 115 85.2179C115 86.3124 114.105 87.1997 113 87.1997Z" fill="#FF9F0D"/>
</svg>
