<svg width="40" height="22" viewBox="0 0 40 22" fill="none" xmlns="http://www.w3.org/2000/svg">
<path d="M3.91406 13.7852C3.91406 14.4648 4.02344 15.0273 4.24219 15.4727C4.64844 16.293 5.38672 16.7031 6.45703 16.7031C7.11328 16.7031 7.68359 16.4805 8.16797 16.0352C8.66016 15.582 8.90625 14.9336 8.90625 14.0898C8.90625 12.9727 8.45312 12.2266 7.54688 11.8516C7.03125 11.6406 6.21875 11.5352 5.10938 11.5352V9.14453C6.19531 9.12891 6.95312 9.02344 7.38281 8.82812C8.125 8.5 8.49609 7.83594 8.49609 6.83594C8.49609 6.1875 8.30469 5.66016 7.92188 5.25391C7.54688 4.84766 7.01562 4.64453 6.32812 4.64453C5.53906 4.64453 4.95703 4.89453 4.58203 5.39453C4.21484 5.89453 4.03906 6.5625 4.05469 7.39844H0.9375C0.96875 6.55469 1.11328 5.75391 1.37109 4.99609C1.64453 4.33203 2.07422 3.71875 2.66016 3.15625C3.09766 2.75781 3.61719 2.45312 4.21875 2.24219C4.82031 2.03125 5.55859 1.92578 6.43359 1.92578C8.05859 1.92578 9.36719 2.34766 10.3594 3.19141C11.3594 4.02734 11.8594 5.15234 11.8594 6.56641C11.8594 7.56641 11.5625 8.41016 10.9688 9.09766C10.5938 9.52734 10.2031 9.82031 9.79688 9.97656C10.1016 9.97656 10.5391 10.2383 11.1094 10.7617C11.9609 11.5508 12.3867 12.6289 12.3867 13.9961C12.3867 15.4336 11.8867 16.6992 10.8867 17.793C9.89453 18.8789 8.42188 19.4219 6.46875 19.4219C4.0625 19.4219 2.39062 18.6367 1.45312 17.0664C0.960938 16.2305 0.6875 15.1367 0.632812 13.7852H3.91406ZM17.3203 14.4531C17.4531 15.1797 17.707 15.7422 18.082 16.1406C18.457 16.5312 19.0039 16.7266 19.7227 16.7266C20.5508 16.7266 21.1797 16.4375 21.6094 15.8594C22.0469 15.2734 22.2656 14.5391 22.2656 13.6562C22.2656 12.7891 22.0625 12.0586 21.6562 11.4648C21.25 10.8633 20.6172 10.5625 19.7578 10.5625C19.3516 10.5625 19 10.6133 18.7031 10.7148C18.1797 10.9023 17.7852 11.25 17.5195 11.7578L14.5195 11.6172L15.7148 2.23047H25.0781V5.06641H18.1289L17.5195 8.78125C18.0352 8.44531 18.4375 8.22266 18.7266 8.11328C19.2109 7.93359 19.8008 7.84375 20.4961 7.84375C21.9023 7.84375 23.1289 8.31641 24.1758 9.26172C25.2227 10.207 25.7461 11.582 25.7461 13.3867C25.7461 14.957 25.2422 16.3594 24.2344 17.5938C23.2266 18.8281 21.7188 19.4453 19.7109 19.4453C18.0938 19.4453 16.7656 19.0117 15.7266 18.1445C14.6875 17.2773 14.1094 16.0469 13.9922 14.4531H17.3203ZM33.9375 16.8086C34.5547 16.7305 35.0039 16.5898 35.2852 16.3867C35.7773 16.0273 36.0234 15.4062 36.0234 14.5234C36.0234 13.8516 35.793 13.3203 35.332 12.9297C35.0586 12.7031 34.5938 12.4688 33.9375 12.2266V16.8086ZM32.8242 4.5625C32.1445 4.57812 31.6406 4.76172 31.3125 5.11328C30.9844 5.45703 30.8203 5.92969 30.8203 6.53125C30.8203 7.1875 31.0664 7.70703 31.5586 8.08984C31.832 8.30078 32.2539 8.49609 32.8242 8.67578V4.5625ZM33.9609 21.7773H32.8242V19.4453C31.2852 19.2734 30.1367 18.9375 29.3789 18.4375C28.043 17.5391 27.3867 16.0078 27.4102 13.8438H30.5742C30.6836 14.8281 30.8359 15.4883 31.0312 15.8242C31.3359 16.3477 31.9336 16.6875 32.8242 16.8438V11.8398L31.875 11.5586C30.3828 11.1211 29.3281 10.5117 28.7109 9.73047C28.1016 8.94922 27.7969 8.00781 27.7969 6.90625C27.7969 6.17969 27.9141 5.51953 28.1484 4.92578C28.3906 4.33203 28.7266 3.82031 29.1562 3.39062C29.7109 2.83594 30.3281 2.45312 31.0078 2.24219C31.4219 2.10938 32.0273 2.01172 32.8242 1.94922V0.390625H33.9375V1.97266C35.2109 2.07422 36.2109 2.38672 36.9375 2.91016C38.2578 3.74609 38.9414 5.10156 38.9883 6.97656H35.9062C35.8438 6.28125 35.7266 5.77344 35.5547 5.45312C35.2578 4.89844 34.7188 4.59375 33.9375 4.53906V9.00391C35.7969 9.64453 37.0469 10.2109 37.6875 10.7031C38.7422 11.5234 39.2695 12.6797 39.2695 14.1719C39.2695 16.1406 38.5469 17.5703 37.1016 18.4609C36.2188 19.0078 35.1719 19.3281 33.9609 19.4219V21.7773Z" fill="#FF9F0D"/>
</svg>
