<svg width="40" height="22" viewBox="0 0 40 22" fill="none" xmlns="http://www.w3.org/2000/svg">
<path d="M12.5508 15.3438H10.6289V19H7.35938V15.3438H0.632812V12.4258L6.87891 2.11328H10.6289V12.7305H12.5508V15.3438ZM7.35938 12.7305V5.39453L3.10547 12.7305H7.35938ZM17.2734 13.7852C17.2734 14.4648 17.3828 15.0273 17.6016 15.4727C18.0078 16.293 18.7461 16.7031 19.8164 16.7031C20.4727 16.7031 21.043 16.4805 21.5273 16.0352C22.0195 15.582 22.2656 14.9336 22.2656 14.0898C22.2656 12.9727 21.8125 12.2266 20.9062 11.8516C20.3906 11.6406 19.5781 11.5352 18.4688 11.5352V9.14453C19.5547 9.12891 20.3125 9.02344 20.7422 8.82812C21.4844 8.5 21.8555 7.83594 21.8555 6.83594C21.8555 6.1875 21.6641 5.66016 21.2812 5.25391C20.9062 4.84766 20.375 4.64453 19.6875 4.64453C18.8984 4.64453 18.3164 4.89453 17.9414 5.39453C17.5742 5.89453 17.3984 6.5625 17.4141 7.39844H14.2969C14.3281 6.55469 14.4727 5.75391 14.7305 4.99609C15.0039 4.33203 15.4336 3.71875 16.0195 3.15625C16.457 2.75781 16.9766 2.45312 17.5781 2.24219C18.1797 2.03125 18.918 1.92578 19.793 1.92578C21.418 1.92578 22.7266 2.34766 23.7188 3.19141C24.7188 4.02734 25.2188 5.15234 25.2188 6.56641C25.2188 7.56641 24.9219 8.41016 24.3281 9.09766C23.9531 9.52734 23.5625 9.82031 23.1562 9.97656C23.4609 9.97656 23.8984 10.2383 24.4688 10.7617C25.3203 11.5508 25.7461 12.6289 25.7461 13.9961C25.7461 15.4336 25.2461 16.6992 24.2461 17.793C23.2539 18.8789 21.7812 19.4219 19.8281 19.4219C17.4219 19.4219 15.75 18.6367 14.8125 17.0664C14.3203 16.2305 14.0469 15.1367 13.9922 13.7852H17.2734ZM33.9375 16.8086C34.5547 16.7305 35.0039 16.5898 35.2852 16.3867C35.7773 16.0273 36.0234 15.4062 36.0234 14.5234C36.0234 13.8516 35.793 13.3203 35.332 12.9297C35.0586 12.7031 34.5938 12.4688 33.9375 12.2266V16.8086ZM32.8242 4.5625C32.1445 4.57812 31.6406 4.76172 31.3125 5.11328C30.9844 5.45703 30.8203 5.92969 30.8203 6.53125C30.8203 7.1875 31.0664 7.70703 31.5586 8.08984C31.832 8.30078 32.2539 8.49609 32.8242 8.67578V4.5625ZM33.9609 21.7773H32.8242V19.4453C31.2852 19.2734 30.1367 18.9375 29.3789 18.4375C28.043 17.5391 27.3867 16.0078 27.4102 13.8438H30.5742C30.6836 14.8281 30.8359 15.4883 31.0312 15.8242C31.3359 16.3477 31.9336 16.6875 32.8242 16.8438V11.8398L31.875 11.5586C30.3828 11.1211 29.3281 10.5117 28.7109 9.73047C28.1016 8.94922 27.7969 8.00781 27.7969 6.90625C27.7969 6.17969 27.9141 5.51953 28.1484 4.92578C28.3906 4.33203 28.7266 3.82031 29.1562 3.39062C29.7109 2.83594 30.3281 2.45312 31.0078 2.24219C31.4219 2.10938 32.0273 2.01172 32.8242 1.94922V0.390625H33.9375V1.97266C35.2109 2.07422 36.2109 2.38672 36.9375 2.91016C38.2578 3.74609 38.9414 5.10156 38.9883 6.97656H35.9062C35.8438 6.28125 35.7266 5.77344 35.5547 5.45312C35.2578 4.89844 34.7188 4.59375 33.9375 4.53906V9.00391C35.7969 9.64453 37.0469 10.2109 37.6875 10.7031C38.7422 11.5234 39.2695 12.6797 39.2695 14.1719C39.2695 16.1406 38.5469 17.5703 37.1016 18.4609C36.2188 19.0078 35.1719 19.3281 33.9609 19.4219V21.7773Z" fill="#FF9F0D"/>
</svg>
