<svg width="43" height="42" viewBox="0 0 43 42" fill="none" xmlns="http://www.w3.org/2000/svg">
<path d="M40.2489 9.63225L37.0639 5.72911V2.66068C37.0617 1.19178 35.3028 0.00148001 33.1329 0H10.7754C8.60542 0.00148001 6.84706 1.19178 6.84487 2.66068V5.72911L3.65938 9.63225C1.87696 11.8201 0.940663 14.2776 0.938477 16.7762V38.9075C0.942303 40.6147 2.98598 41.9981 5.50847 42H38.4003C40.9223 41.9981 42.9665 40.6147 42.9703 38.9075V16.7762C42.9676 14.2776 42.0318 11.8201 40.2489 9.63225ZM26.3339 1.86518H33.1301C33.7789 1.86592 34.3048 2.22149 34.3053 2.66068V5.0372H26.3366L26.3339 1.86518ZM20.134 6.43507C20.2564 6.29373 20.3204 6.13278 20.3204 5.96887V1.86518H23.5742V5.71875L21.2048 8.48525H18.3888L20.134 6.43507ZM9.60021 2.66068C9.60076 2.22149 10.1266 1.86592 10.7754 1.86518H17.5716V5.03609H9.60021V2.66068ZM3.69381 38.9075V16.7762C3.696 14.5929 4.51424 12.4457 6.072 10.5339L9.03504 6.90238H16.5588L14.8053 8.95404C14.5594 9.24264 14.5588 9.59784 14.8048 9.88645C15.0508 10.175 15.505 10.3526 15.9969 10.353H22.005C22.4969 10.3526 22.9511 10.175 23.1971 9.88682L25.7523 6.90238H33.351L31.1231 9.63225C29.3407 11.8201 28.4044 14.2776 28.4022 16.7762V40.1367H5.50847C4.50604 40.1363 3.69381 39.5861 3.69381 38.9075ZM40.2144 38.9075C40.2133 39.5854 39.4017 40.1345 38.4003 40.1348H37.0639V27.3428C37.0639 26.8277 36.4468 26.4104 35.686 26.4104C34.9251 26.4104 34.3086 26.8277 34.3086 27.3428V40.1367H31.1575V16.7762C31.1597 14.5929 31.9779 12.4457 33.5352 10.5339L35.686 7.89843L37.8368 10.5339C39.3946 12.4457 40.2122 14.5929 40.2144 16.7762V38.9075Z" fill="#BC9A6C"/>
</svg>
