<svg width="100" height="98" viewBox="0 0 100 98" fill="none" xmlns="http://www.w3.org/2000/svg">
<rect width="100" height="98" fill="#BC9A6C"/>
<path d="M72.5625 40.3428H71.3144C71.0414 35.5519 69.1368 30.9946 65.912 27.4164C62.6873 23.8383 58.3334 21.4511 53.5625 20.6454V13.2617C53.5625 12.9494 53.4374 12.6499 53.2147 12.4291C52.992 12.2083 52.6899 12.0842 52.375 12.0842H47.625C47.3101 12.0842 47.008 12.2083 46.7853 12.4291C46.5626 12.6499 46.4375 12.9494 46.4375 13.2617V20.6454C41.6666 21.4511 37.3127 23.8383 34.088 27.4164C30.8632 30.9946 28.9586 35.5519 28.6856 40.3428H27.4375C27.1226 40.3428 26.8205 40.4669 26.5978 40.6877C26.3751 40.9085 26.25 41.208 26.25 41.5203V46.23C26.25 46.5423 26.3751 46.8418 26.5978 47.0626C26.8205 47.2834 27.1226 47.4075 27.4375 47.4075H28.7639L33.3845 84.0541C33.4204 84.3389 33.5599 84.6008 33.7768 84.7907C33.9937 84.9806 34.2731 85.0855 34.5625 85.0856H65.4375C65.7269 85.0855 66.0063 84.9806 66.2232 84.7907C66.4401 84.6008 66.5796 84.3389 66.6155 84.0541L71.2361 47.4075H72.5625C72.8774 47.4075 73.1795 47.2834 73.4022 47.0626C73.6249 46.8418 73.75 46.5423 73.75 46.23V41.5203C73.75 41.208 73.6249 40.9085 73.4022 40.6877C73.1795 40.4669 72.8774 40.3428 72.5625 40.3428ZM68.9394 40.3428H53.5625V27.8419C57.0504 28.7355 60.0684 30.9043 62.0104 33.9128L64.0125 32.6435C62.8337 30.8207 61.304 29.2461 59.5109 28.0101C57.7177 26.774 55.6964 25.9006 53.5625 25.4399V23.025C57.6981 23.8153 61.452 25.9447 64.235 29.079C67.0181 32.2133 68.6728 36.1752 68.9394 40.3428ZM51.1875 40.3428H48.8125V22.7412C49.2068 22.7165 49.5986 22.6812 50 22.6812C50.4014 22.6812 50.7932 22.7165 51.1875 22.7412V40.3428ZM48.8125 14.4391H51.1875V20.3864C50.7921 20.364 50.4014 20.3263 50 20.3263C49.5986 20.3263 49.2079 20.364 48.8125 20.3864V14.4391ZM46.4375 23.025V40.3428H31.0606C31.3272 36.1752 32.9819 32.2133 35.765 29.079C38.548 25.9447 42.3019 23.8153 46.4375 23.025ZM64.3889 82.7307H35.6111L31.1579 47.4075H46.4375V53.2947H48.8125V47.4075H51.1875V53.2947H53.5625V47.4075H68.8421L64.3889 82.7307ZM71.375 45.0526H28.625V42.6977H71.375V45.0526Z" fill="#F2F2F2"/>
<path d="M51.6043 57.424C51.0472 56.5551 50.2863 55.8328 49.3866 55.3188C48.4868 54.8048 47.475 54.5143 46.4375 54.4721C42.5081 54.4721 39.3125 58.6979 39.3125 63.8916C39.3125 69.0853 42.5081 73.3112 46.4375 73.3112C47.8359 73.2892 49.1804 72.7722 50.228 71.8535C50.9601 72.1104 51.7314 72.2399 52.508 72.2362C55.3132 72.1126 57.9598 70.9111 59.8871 68.8863C63.5909 65.2151 64.3438 59.9861 61.5663 57.2297C59.2103 54.8948 55.1063 55.0396 51.6043 57.424ZM41.6875 63.8916C41.6475 62.7722 41.8373 61.6564 42.2456 60.612C42.6539 59.5675 43.272 58.6163 44.0625 57.816V58.904C44.0651 60.8177 44.5142 62.7049 45.3747 64.418C46.0713 65.8039 46.435 67.3308 46.4375 68.8793V70.9563C43.863 70.9563 41.6875 67.7207 41.6875 63.8916ZM48.8125 69.9672V68.8793C48.8117 66.966 48.3647 65.0788 47.5063 63.3653C46.8076 61.9799 46.4418 60.4529 46.4375 58.904V56.827C49.012 56.827 51.1875 60.0626 51.1875 63.8916C51.2275 65.0111 51.0377 66.1269 50.6294 67.1713C50.2211 68.2157 49.603 69.167 48.8125 69.9672ZM58.208 67.2214C57.4397 68.0471 56.5086 68.7077 55.4723 69.1622C54.4361 69.6166 53.3168 69.8554 52.1838 69.8636L52.9711 69.083C54.3356 67.729 55.3641 66.0792 55.9755 64.2637C56.4704 62.7954 57.302 61.4609 58.4051 60.3652L59.8871 58.8958C61.7064 60.7008 60.9381 64.5133 58.208 67.2214ZM57.5038 57.9291L56.726 58.7003C55.3626 60.0551 54.3343 61.7046 53.7216 63.5196C53.6765 63.6538 53.6124 63.7833 53.5613 63.9164V63.8916C53.567 62.3976 53.2895 60.9157 52.7431 59.5233C54.1035 58.4752 55.7811 57.9134 57.5038 57.9291Z" fill="#F2F2F2"/>
<path d="M63.8688 38.2588L66.1796 37.7171C65.9725 36.8504 65.6945 36.0018 65.3484 35.1797L63.1562 36.0864C63.4527 36.7902 63.691 37.5167 63.8688 38.2588Z" fill="#F2F2F2"/>
</svg>
