<svg width="223" height="24" viewBox="0 0 223 24" fill="none" xmlns="http://www.w3.org/2000/svg">
<path d="M144 14.4721C146.761 14.4721 149 12.2378 149 9.48166C149 6.72551 146.761 4.49121 144 4.49121C141.239 4.49121 139 6.72551 139 9.48166C139 12.2378 141.239 14.4721 144 14.4721Z" stroke="#BC9A6C" stroke-width="1.5" stroke-miterlimit="10"/>
<path d="M136.421 18.8381C137.189 17.5106 138.294 16.4083 139.625 15.6419C140.955 14.8756 142.464 14.4722 144 14.4722C145.536 14.4722 147.045 14.8756 148.375 15.642C149.706 16.4084 150.811 17.5107 151.579 18.8382" stroke="#BC9A6C" stroke-width="1.5" stroke-linecap="round" stroke-linejoin="round"/>
<path d="M16.25 5.11523H3.75C3.40482 5.11523 3.125 5.39452 3.125 5.73904V18.2152C3.125 18.5597 3.40482 18.839 3.75 18.839H16.25C16.5952 18.839 16.875 18.5597 16.875 18.2152V5.73904C16.875 5.39452 16.5952 5.11523 16.25 5.11523Z" stroke="#BC9A6C" stroke-width="1.5" stroke-linecap="round" stroke-linejoin="round"/>
<path d="M13.75 3.86743V6.36266" stroke="#BC9A6C" stroke-width="1.5" stroke-linecap="round" stroke-linejoin="round"/>
<path d="M6.25 3.86743V6.36266" stroke="#BC9A6C" stroke-width="1.5" stroke-linecap="round" stroke-linejoin="round"/>
<path d="M3.125 8.85791H16.875" stroke="#BC9A6C" stroke-width="1.5" stroke-linecap="round" stroke-linejoin="round"/>
<path d="M7.1875 11.9768H9.375L8.125 13.5363C8.33053 13.5363 8.53289 13.5869 8.71416 13.6836C8.89543 13.7803 9.05002 13.9201 9.16423 14.0906C9.27845 14.2612 9.34876 14.4572 9.36895 14.6614C9.38915 14.8655 9.35859 15.0715 9.28 15.261C9.2014 15.4506 9.07719 15.6179 8.91836 15.748C8.75953 15.8782 8.57099 15.9673 8.36942 16.0075C8.16786 16.0476 7.9595 16.0375 7.76278 15.978C7.56607 15.9186 7.38708 15.8116 7.24166 15.6667" stroke="#BC9A6C" stroke-width="1.5" stroke-linecap="round" stroke-linejoin="round"/>
<path d="M11.25 12.9125L12.5 11.9768V16.0315" stroke="#BC9A6C" stroke-width="1.5" stroke-linecap="round" stroke-linejoin="round"/>
<path d="M29.5312 10.0781V9C30.5469 8.90104 31.2552 8.73698 31.6562 8.50781C32.0573 8.27344 32.3568 7.72396 32.5547 6.85938H33.6641V18H32.1641V10.0781H29.5312ZM41.2344 6.8125C42.6823 6.8125 43.7292 7.40885 44.375 8.60156C44.875 9.52344 45.125 10.7865 45.125 12.3906C45.125 13.9115 44.8984 15.1693 44.4453 16.1641C43.7891 17.5911 42.7161 18.3047 41.2266 18.3047C39.8828 18.3047 38.8828 17.7214 38.2266 16.5547C37.6797 15.5807 37.4062 14.2734 37.4062 12.6328C37.4062 11.362 37.5703 10.2708 37.8984 9.35938C38.513 7.66146 39.625 6.8125 41.2344 6.8125ZM41.2188 17.0234C41.9479 17.0234 42.5286 16.7005 42.9609 16.0547C43.3932 15.4089 43.6094 14.2057 43.6094 12.4453C43.6094 11.1745 43.4531 10.1302 43.1406 9.3125C42.8281 8.48958 42.2214 8.07812 41.3203 8.07812C40.4922 8.07812 39.8854 8.46875 39.5 9.25C39.1198 10.026 38.9297 11.1719 38.9297 12.6875C38.9297 13.8281 39.0521 14.7448 39.2969 15.4375C39.6719 16.4948 40.3125 17.0234 41.2188 17.0234ZM51.6328 6.52344H59.5938V7.92969H53.1875V11.4141H58.8203V12.7812H53.1875V18H51.6328V6.52344ZM64.5625 9.44531C65.1562 9.44531 65.7318 9.58594 66.2891 9.86719C66.8464 10.1432 67.2708 10.5026 67.5625 10.9453C67.8438 11.3672 68.0312 11.8594 68.125 12.4219C68.2083 12.8073 68.25 13.4219 68.25 14.2656H62.1172C62.1432 15.1146 62.3438 15.7969 62.7188 16.3125C63.0938 16.8229 63.6745 17.0781 64.4609 17.0781C65.1953 17.0781 65.7812 16.8359 66.2188 16.3516C66.4688 16.0703 66.6458 15.7448 66.75 15.375H68.1328C68.0964 15.6823 67.974 16.026 67.7656 16.4062C67.5625 16.7812 67.3333 17.0885 67.0781 17.3281C66.651 17.7448 66.1224 18.026 65.4922 18.1719C65.1536 18.2552 64.7708 18.2969 64.3438 18.2969C63.3021 18.2969 62.4193 17.9193 61.6953 17.1641C60.9714 16.4036 60.6094 15.3411 60.6094 13.9766C60.6094 12.6328 60.974 11.5417 61.7031 10.7031C62.4323 9.86458 63.3854 9.44531 64.5625 9.44531ZM66.8047 13.1484C66.7474 12.5391 66.6146 12.0521 66.4062 11.6875C66.0208 11.0104 65.3776 10.6719 64.4766 10.6719C63.8307 10.6719 63.2891 10.9062 62.8516 11.375C62.4141 11.8385 62.1823 12.4297 62.1562 13.1484H66.8047ZM69.875 6.48438H71.2422V10.6484C71.5495 10.2474 71.9167 9.94271 72.3438 9.73438C72.7708 9.52083 73.2344 9.41406 73.7344 9.41406C74.776 9.41406 75.6198 9.77344 76.2656 10.4922C76.9167 11.2057 77.2422 12.2604 77.2422 13.6562C77.2422 14.9792 76.9219 16.0781 76.2812 16.9531C75.6406 17.8281 74.7526 18.2656 73.6172 18.2656C72.9818 18.2656 72.4453 18.112 72.0078 17.8047C71.7474 17.6224 71.4688 17.3307 71.1719 16.9297V18H69.875V6.48438ZM73.5312 17.0234C74.2917 17.0234 74.8594 16.7214 75.2344 16.1172C75.6146 15.513 75.8047 14.7161 75.8047 13.7266C75.8047 12.8464 75.6146 12.1172 75.2344 11.5391C74.8594 10.9609 74.3047 10.6719 73.5703 10.6719C72.9297 10.6719 72.3672 10.9089 71.8828 11.3828C71.4036 11.8568 71.1641 12.638 71.1641 13.7266C71.1641 14.513 71.263 15.151 71.4609 15.6406C71.8307 16.5625 72.5208 17.0234 73.5312 17.0234ZM79.1875 19.6328C79.5469 19.5703 79.7995 19.3177 79.9453 18.875C80.0234 18.6406 80.0625 18.4141 80.0625 18.1953C80.0625 18.1589 80.0599 18.125 80.0547 18.0938C80.0547 18.0677 80.0495 18.0365 80.0391 18H79.1875V16.2969H80.8594V17.875C80.8594 18.4948 80.7344 19.0391 80.4844 19.5078C80.2344 19.9766 79.8021 20.2656 79.1875 20.375V19.6328ZM82.8125 18C82.8646 17.0365 83.0625 16.1979 83.4062 15.4844C83.7552 14.7708 84.4323 14.1224 85.4375 13.5391L86.9375 12.6719C87.6094 12.2812 88.0807 11.9479 88.3516 11.6719C88.7786 11.2396 88.9922 10.7448 88.9922 10.1875C88.9922 9.53646 88.7969 9.02083 88.4062 8.64062C88.0156 8.25521 87.4948 8.0625 86.8438 8.0625C85.8802 8.0625 85.2135 8.42708 84.8438 9.15625C84.6458 9.54688 84.5365 10.0885 84.5156 10.7812H83.0859C83.1016 9.80729 83.2812 9.01302 83.625 8.39844C84.2344 7.3151 85.3099 6.77344 86.8516 6.77344C88.1328 6.77344 89.0677 7.11979 89.6562 7.8125C90.25 8.50521 90.5469 9.27604 90.5469 10.125C90.5469 11.0208 90.2318 11.7865 89.6016 12.4219C89.237 12.7917 88.5833 13.2396 87.6406 13.7656L86.5703 14.3594C86.0599 14.6406 85.6589 14.9089 85.3672 15.1641C84.8464 15.6172 84.5182 16.1198 84.3828 16.6719H90.4922V18H82.8125ZM95.5469 6.8125C96.9948 6.8125 98.0417 7.40885 98.6875 8.60156C99.1875 9.52344 99.4375 10.7865 99.4375 12.3906C99.4375 13.9115 99.2109 15.1693 98.7578 16.1641C98.1016 17.5911 97.0286 18.3047 95.5391 18.3047C94.1953 18.3047 93.1953 17.7214 92.5391 16.5547C91.9922 15.5807 91.7188 14.2734 91.7188 12.6328C91.7188 11.362 91.8828 10.2708 92.2109 9.35938C92.8255 7.66146 93.9375 6.8125 95.5469 6.8125ZM95.5312 17.0234C96.2604 17.0234 96.8411 16.7005 97.2734 16.0547C97.7057 15.4089 97.9219 14.2057 97.9219 12.4453C97.9219 11.1745 97.7656 10.1302 97.4531 9.3125C97.1406 8.48958 96.5339 8.07812 95.6328 8.07812C94.8047 8.07812 94.1979 8.46875 93.8125 9.25C93.4323 10.026 93.2422 11.1719 93.2422 12.6875C93.2422 13.8281 93.3646 14.7448 93.6094 15.4375C93.9844 16.4948 94.625 17.0234 95.5312 17.0234ZM100.625 18C100.677 17.0365 100.875 16.1979 101.219 15.4844C101.568 14.7708 102.245 14.1224 103.25 13.5391L104.75 12.6719C105.422 12.2812 105.893 11.9479 106.164 11.6719C106.591 11.2396 106.805 10.7448 106.805 10.1875C106.805 9.53646 106.609 9.02083 106.219 8.64062C105.828 8.25521 105.307 8.0625 104.656 8.0625C103.693 8.0625 103.026 8.42708 102.656 9.15625C102.458 9.54688 102.349 10.0885 102.328 10.7812H100.898C100.914 9.80729 101.094 9.01302 101.438 8.39844C102.047 7.3151 103.122 6.77344 104.664 6.77344C105.945 6.77344 106.88 7.11979 107.469 7.8125C108.062 8.50521 108.359 9.27604 108.359 10.125C108.359 11.0208 108.044 11.7865 107.414 12.4219C107.049 12.7917 106.396 13.2396 105.453 13.7656L104.383 14.3594C103.872 14.6406 103.471 14.9089 103.18 15.1641C102.659 15.6172 102.331 16.1198 102.195 16.6719H108.305V18H100.625ZM109.531 18C109.583 17.0365 109.781 16.1979 110.125 15.4844C110.474 14.7708 111.151 14.1224 112.156 13.5391L113.656 12.6719C114.328 12.2812 114.799 11.9479 115.07 11.6719C115.497 11.2396 115.711 10.7448 115.711 10.1875C115.711 9.53646 115.516 9.02083 115.125 8.64062C114.734 8.25521 114.214 8.0625 113.562 8.0625C112.599 8.0625 111.932 8.42708 111.562 9.15625C111.365 9.54688 111.255 10.0885 111.234 10.7812H109.805C109.82 9.80729 110 9.01302 110.344 8.39844C110.953 7.3151 112.029 6.77344 113.57 6.77344C114.852 6.77344 115.786 7.11979 116.375 7.8125C116.969 8.50521 117.266 9.27604 117.266 10.125C117.266 11.0208 116.951 11.7865 116.32 12.4219C115.956 12.7917 115.302 13.2396 114.359 13.7656L113.289 14.3594C112.779 14.6406 112.378 14.9089 112.086 15.1641C111.565 15.6172 111.237 16.1198 111.102 16.6719H117.211V18H109.531Z" fill="#4F4F4F"/>
<path d="M167.531 11.375C168.188 11.375 168.698 11.2839 169.062 11.1016C169.635 10.8151 169.922 10.2995 169.922 9.55469C169.922 8.80469 169.617 8.29948 169.008 8.03906C168.664 7.89323 168.154 7.82031 167.477 7.82031H164.703V11.375H167.531ZM168.055 16.6719C169.008 16.6719 169.688 16.3958 170.094 15.8438C170.349 15.4948 170.477 15.0729 170.477 14.5781C170.477 13.7448 170.104 13.1771 169.359 12.875C168.964 12.7135 168.44 12.6328 167.789 12.6328H164.703V16.6719H168.055ZM163.18 6.52344H168.109C169.453 6.52344 170.409 6.92448 170.977 7.72656C171.31 8.20052 171.477 8.7474 171.477 9.36719C171.477 10.0911 171.271 10.6849 170.859 11.1484C170.646 11.3932 170.339 11.6172 169.938 11.8203C170.526 12.0443 170.966 12.2969 171.258 12.5781C171.773 13.0781 172.031 13.7682 172.031 14.6484C172.031 15.388 171.799 16.0573 171.336 16.6562C170.643 17.5521 169.542 18 168.031 18H163.18V6.52344ZM178.93 9.63281H180.484C180.286 10.1693 179.846 11.3932 179.164 13.3047C178.654 14.7422 178.227 15.9141 177.883 16.8203C177.07 18.9557 176.497 20.2578 176.164 20.7266C175.831 21.1953 175.258 21.4297 174.445 21.4297C174.247 21.4297 174.094 21.4219 173.984 21.4062C173.88 21.3906 173.75 21.362 173.594 21.3203V20.0391C173.839 20.1068 174.016 20.1484 174.125 20.1641C174.234 20.1797 174.331 20.1875 174.414 20.1875C174.674 20.1875 174.865 20.1432 174.984 20.0547C175.109 19.9714 175.214 19.8672 175.297 19.7422C175.323 19.7005 175.417 19.487 175.578 19.1016C175.74 18.7161 175.857 18.4297 175.93 18.2422L172.836 9.63281H174.43L176.672 16.4453L178.93 9.63281ZM191.359 13.2969L189.617 8.22656L187.766 13.2969H191.359ZM188.805 6.52344H190.562L194.727 18H193.023L191.859 14.5625H187.32L186.078 18H184.484L188.805 6.52344ZM196.234 7.29688H197.656V9.63281H198.992V10.7812H197.656V16.2422C197.656 16.5339 197.755 16.7292 197.953 16.8281C198.062 16.8854 198.245 16.9141 198.5 16.9141C198.568 16.9141 198.641 16.9141 198.719 16.9141C198.797 16.9089 198.888 16.901 198.992 16.8906V18C198.831 18.0469 198.661 18.0807 198.484 18.1016C198.312 18.1224 198.125 18.1328 197.922 18.1328C197.266 18.1328 196.82 17.9661 196.586 17.6328C196.352 17.2943 196.234 16.8568 196.234 16.3203V10.7812H195.102V9.63281H196.234V7.29688ZM201.484 15.7734C201.484 16.1797 201.633 16.5 201.93 16.7344C202.227 16.9688 202.578 17.0859 202.984 17.0859C203.479 17.0859 203.958 16.9714 204.422 16.7422C205.203 16.362 205.594 15.7396 205.594 14.875V13.7422C205.422 13.8516 205.201 13.9427 204.93 14.0156C204.659 14.0885 204.393 14.1406 204.133 14.1719L203.281 14.2812C202.771 14.349 202.388 14.4557 202.133 14.6016C201.701 14.8464 201.484 15.237 201.484 15.7734ZM204.891 12.9297C205.214 12.888 205.43 12.7526 205.539 12.5234C205.602 12.3984 205.633 12.2188 205.633 11.9844C205.633 11.5052 205.461 11.1589 205.117 10.9453C204.779 10.7266 204.292 10.6172 203.656 10.6172C202.922 10.6172 202.401 10.8151 202.094 11.2109C201.922 11.4297 201.81 11.7552 201.758 12.1875H200.445C200.471 11.1562 200.805 10.4401 201.445 10.0391C202.091 9.63281 202.839 9.42969 203.688 9.42969C204.672 9.42969 205.471 9.61719 206.086 9.99219C206.695 10.3672 207 10.9505 207 11.7422V16.5625C207 16.7083 207.029 16.8255 207.086 16.9141C207.148 17.0026 207.276 17.0469 207.469 17.0469C207.531 17.0469 207.602 17.0443 207.68 17.0391C207.758 17.0286 207.841 17.0156 207.93 17V18.0391C207.711 18.1016 207.544 18.1406 207.43 18.1562C207.315 18.1719 207.159 18.1797 206.961 18.1797C206.477 18.1797 206.125 18.0078 205.906 17.6641C205.792 17.4818 205.711 17.224 205.664 16.8906C205.378 17.2656 204.966 17.5911 204.43 17.8672C203.893 18.1432 203.302 18.2812 202.656 18.2812C201.88 18.2812 201.245 18.0469 200.75 17.5781C200.26 17.1042 200.016 16.513 200.016 15.8047C200.016 15.0286 200.258 14.4271 200.742 14C201.227 13.5729 201.862 13.3099 202.648 13.2109L204.891 12.9297ZM210.719 9.63281V15.1875C210.719 15.6146 210.786 15.9635 210.922 16.2344C211.172 16.7344 211.638 16.9844 212.32 16.9844C213.299 16.9844 213.966 16.5469 214.32 15.6719C214.513 15.2031 214.609 14.5599 214.609 13.7422V9.63281H216.016V18H214.688L214.703 16.7656C214.521 17.0833 214.294 17.3516 214.023 17.5703C213.487 18.0078 212.836 18.2266 212.07 18.2266C210.878 18.2266 210.065 17.8281 209.633 17.0312C209.398 16.6042 209.281 16.0339 209.281 15.3203V9.63281H210.719ZM218.258 9.63281H219.594V11.0781C219.703 10.7969 219.971 10.4557 220.398 10.0547C220.826 9.64844 221.318 9.44531 221.875 9.44531C221.901 9.44531 221.945 9.44792 222.008 9.45312C222.07 9.45833 222.177 9.46875 222.328 9.48438V10.9688C222.245 10.9531 222.167 10.9427 222.094 10.9375C222.026 10.9323 221.951 10.9297 221.867 10.9297C221.159 10.9297 220.615 11.1589 220.234 11.6172C219.854 12.0703 219.664 12.5938 219.664 13.1875V18H218.258V9.63281Z" fill="#4F4F4F"/>
</svg>
