<svg width="523" height="166" viewBox="0 0 523 166" fill="none" xmlns="http://www.w3.org/2000/svg">
<rect width="523" height="166" rx="6" fill="white"/>
<path d="M25.3711 30.0889H27.1201V41.4619H33.6592V43H25.3711V30.0889ZM38.915 41.9805C39.9639 41.9805 40.6816 41.585 41.0684 40.7939C41.4609 39.9971 41.6572 39.1123 41.6572 38.1396C41.6572 37.2607 41.5166 36.5459 41.2354 35.9951C40.79 35.1279 40.0225 34.6943 38.9326 34.6943C37.9658 34.6943 37.2627 35.0635 36.8232 35.8018C36.3838 36.54 36.1641 37.4307 36.1641 38.4736C36.1641 39.4756 36.3838 40.3105 36.8232 40.9785C37.2627 41.6465 37.96 41.9805 38.915 41.9805ZM38.9766 33.3145C40.1895 33.3145 41.2148 33.7188 42.0527 34.5273C42.8906 35.3359 43.3096 36.5254 43.3096 38.0957C43.3096 39.6133 42.9404 40.8672 42.2021 41.8574C41.4639 42.8477 40.3184 43.3428 38.7656 43.3428C37.4707 43.3428 36.4424 42.9062 35.6807 42.0332C34.9189 41.1543 34.5381 39.9766 34.5381 38.5C34.5381 36.918 34.9395 35.6582 35.7422 34.7207C36.5449 33.7832 37.623 33.3145 38.9766 33.3145ZM45.2432 33.5869H46.7461V35.2129C46.8691 34.8965 47.1709 34.5127 47.6514 34.0615C48.1318 33.6045 48.6855 33.376 49.3125 33.376C49.3418 33.376 49.3916 33.3789 49.4619 33.3848C49.5322 33.3906 49.6523 33.4023 49.8223 33.4199V35.0898C49.7285 35.0723 49.6406 35.0605 49.5586 35.0547C49.4824 35.0488 49.3975 35.0459 49.3037 35.0459C48.5068 35.0459 47.8945 35.3037 47.4668 35.8193C47.0391 36.3291 46.8252 36.918 46.8252 37.5859V43H45.2432V33.5869ZM55.1133 33.376C55.7812 33.376 56.4287 33.5342 57.0557 33.8506C57.6826 34.1611 58.1602 34.5654 58.4883 35.0635C58.8047 35.5381 59.0156 36.0918 59.1211 36.7246C59.2148 37.1582 59.2617 37.8496 59.2617 38.7988H52.3623C52.3916 39.7539 52.6172 40.5215 53.0391 41.1016C53.4609 41.6758 54.1143 41.9629 54.999 41.9629C55.8252 41.9629 56.4844 41.6904 56.9766 41.1455C57.2578 40.8291 57.457 40.4629 57.5742 40.0469H59.1299C59.0889 40.3926 58.9512 40.7793 58.7168 41.207C58.4883 41.6289 58.2305 41.9746 57.9434 42.2441C57.4629 42.7129 56.8682 43.0293 56.1592 43.1934C55.7783 43.2871 55.3477 43.334 54.8672 43.334C53.6953 43.334 52.7021 42.9092 51.8877 42.0596C51.0732 41.2041 50.666 40.0088 50.666 38.4736C50.666 36.9619 51.0762 35.7344 51.8965 34.791C52.7168 33.8477 53.7891 33.376 55.1133 33.376ZM57.6357 37.542C57.5713 36.8564 57.4219 36.3086 57.1875 35.8984C56.7539 35.1367 56.0303 34.7559 55.0166 34.7559C54.29 34.7559 53.6807 35.0195 53.1885 35.5469C52.6963 36.0684 52.4355 36.7334 52.4062 37.542H57.6357ZM61.2129 33.5869H62.7773V34.9229C63.1523 34.46 63.4922 34.123 63.7969 33.9121C64.3184 33.5547 64.9102 33.376 65.5723 33.376C66.3223 33.376 66.9258 33.5605 67.3828 33.9297C67.6406 34.1406 67.875 34.4512 68.0859 34.8613C68.4375 34.3574 68.8506 33.9854 69.3252 33.7451C69.7998 33.499 70.333 33.376 70.9248 33.376C72.1904 33.376 73.0518 33.833 73.5088 34.7471C73.7549 35.2393 73.8779 35.9014 73.8779 36.7334V43H72.2344V36.4609C72.2344 35.834 72.0762 35.4033 71.7598 35.1689C71.4492 34.9346 71.0684 34.8174 70.6172 34.8174C69.9961 34.8174 69.46 35.0254 69.0088 35.4414C68.5635 35.8574 68.3408 36.5518 68.3408 37.5244V43H66.7324V36.8564C66.7324 36.2178 66.6562 35.752 66.5039 35.459C66.2637 35.0195 65.8154 34.7998 65.1592 34.7998C64.5615 34.7998 64.0166 35.0312 63.5244 35.4941C63.0381 35.957 62.7949 36.7949 62.7949 38.0078V43H61.2129V33.5869ZM81.2168 33.6309H82.8252V43H81.2168V33.6309ZM81.2168 30.0889H82.8252V31.8818H81.2168V30.0889ZM89.1973 41.9365C89.9355 41.9365 90.5479 41.6289 91.0342 41.0137C91.5264 40.3926 91.7725 39.4668 91.7725 38.2363C91.7725 37.4863 91.6641 36.8418 91.4473 36.3027C91.0371 35.2656 90.2871 34.7471 89.1973 34.7471C88.1016 34.7471 87.3516 35.2949 86.9473 36.3906C86.7305 36.9766 86.6221 37.7207 86.6221 38.623C86.6221 39.3496 86.7305 39.9678 86.9473 40.4775C87.3574 41.4502 88.1074 41.9365 89.1973 41.9365ZM85.1016 33.6309H86.6396V34.8789C86.9561 34.4512 87.3018 34.1201 87.6768 33.8857C88.21 33.5342 88.8369 33.3584 89.5576 33.3584C90.624 33.3584 91.5293 33.7686 92.2734 34.5889C93.0176 35.4033 93.3896 36.5693 93.3896 38.0869C93.3896 40.1377 92.8535 41.6025 91.7812 42.4814C91.1016 43.0381 90.3105 43.3164 89.4082 43.3164C88.6992 43.3164 88.1045 43.1611 87.624 42.8506C87.3428 42.6748 87.0293 42.373 86.6836 41.9453V46.7529H85.1016V33.6309ZM96.1846 40.0469C96.2314 40.5742 96.3633 40.9785 96.5801 41.2598C96.9785 41.7695 97.6699 42.0244 98.6543 42.0244C99.2402 42.0244 99.7559 41.8984 100.201 41.6465C100.646 41.3887 100.869 40.9932 100.869 40.46C100.869 40.0557 100.69 39.748 100.333 39.5371C100.104 39.4082 99.6533 39.2588 98.9795 39.0889L97.7227 38.7725C96.9199 38.5732 96.3281 38.3506 95.9473 38.1045C95.2676 37.6768 94.9277 37.085 94.9277 36.3291C94.9277 35.4385 95.2471 34.7178 95.8857 34.167C96.5303 33.6162 97.3945 33.3408 98.4785 33.3408C99.8965 33.3408 100.919 33.7568 101.546 34.5889C101.938 35.1162 102.129 35.6846 102.117 36.2939H100.623C100.594 35.9365 100.468 35.6113 100.245 35.3184C99.8818 34.9023 99.252 34.6943 98.3555 34.6943C97.7578 34.6943 97.3037 34.8086 96.9932 35.0371C96.6885 35.2656 96.5361 35.5674 96.5361 35.9424C96.5361 36.3525 96.7383 36.6807 97.1426 36.9268C97.377 37.0732 97.7227 37.2021 98.1797 37.3135L99.2256 37.5684C100.362 37.8438 101.124 38.1104 101.511 38.3682C102.126 38.7725 102.434 39.4082 102.434 40.2754C102.434 41.1133 102.114 41.8369 101.476 42.4463C100.843 43.0557 99.876 43.3604 98.5752 43.3604C97.1748 43.3604 96.1816 43.0439 95.5957 42.4111C95.0156 41.7725 94.7051 40.9844 94.6641 40.0469H96.1846ZM105.826 33.5869V39.8359C105.826 40.3164 105.902 40.709 106.055 41.0137C106.336 41.5762 106.86 41.8574 107.628 41.8574C108.729 41.8574 109.479 41.3652 109.878 40.3809C110.095 39.8535 110.203 39.1299 110.203 38.21V33.5869H111.785V43H110.291L110.309 41.6113C110.104 41.9688 109.849 42.2705 109.544 42.5166C108.94 43.0088 108.208 43.2549 107.347 43.2549C106.005 43.2549 105.091 42.8066 104.604 41.9102C104.341 41.4297 104.209 40.7881 104.209 39.9854V33.5869H105.826ZM114.264 33.5869H115.828V34.9229C116.203 34.46 116.543 34.123 116.848 33.9121C117.369 33.5547 117.961 33.376 118.623 33.376C119.373 33.376 119.977 33.5605 120.434 33.9297C120.691 34.1406 120.926 34.4512 121.137 34.8613C121.488 34.3574 121.901 33.9854 122.376 33.7451C122.851 33.499 123.384 33.376 123.976 33.376C125.241 33.376 126.103 33.833 126.56 34.7471C126.806 35.2393 126.929 35.9014 126.929 36.7334V43H125.285V36.4609C125.285 35.834 125.127 35.4033 124.811 35.1689C124.5 34.9346 124.119 34.8174 123.668 34.8174C123.047 34.8174 122.511 35.0254 122.06 35.4414C121.614 35.8574 121.392 36.5518 121.392 37.5244V43H119.783V36.8564C119.783 36.2178 119.707 35.752 119.555 35.459C119.314 35.0195 118.866 34.7998 118.21 34.7998C117.612 34.7998 117.067 35.0312 116.575 35.4941C116.089 35.957 115.846 36.7949 115.846 38.0078V43H114.264V33.5869ZM135.27 38.4033C135.27 39.4111 135.483 40.2549 135.911 40.9346C136.339 41.6143 137.024 41.9541 137.968 41.9541C138.7 41.9541 139.301 41.6406 139.77 41.0137C140.244 40.3809 140.481 39.4756 140.481 38.2979C140.481 37.1084 140.238 36.2295 139.752 35.6611C139.266 35.0869 138.665 34.7998 137.95 34.7998C137.153 34.7998 136.506 35.1045 136.008 35.7139C135.516 36.3232 135.27 37.2197 135.27 38.4033ZM137.651 33.4199C138.372 33.4199 138.976 33.5723 139.462 33.877C139.743 34.0527 140.062 34.3604 140.42 34.7998V30.0449H141.94V43H140.517V41.6904C140.147 42.2705 139.711 42.6895 139.207 42.9473C138.703 43.2051 138.126 43.334 137.476 43.334C136.427 43.334 135.519 42.8945 134.751 42.0156C133.983 41.1309 133.6 39.9561 133.6 38.4912C133.6 37.1201 133.948 35.9336 134.646 34.9316C135.349 33.9238 136.351 33.4199 137.651 33.4199ZM148.022 41.9805C149.071 41.9805 149.789 41.585 150.176 40.7939C150.568 39.9971 150.765 39.1123 150.765 38.1396C150.765 37.2607 150.624 36.5459 150.343 35.9951C149.897 35.1279 149.13 34.6943 148.04 34.6943C147.073 34.6943 146.37 35.0635 145.931 35.8018C145.491 36.54 145.271 37.4307 145.271 38.4736C145.271 39.4756 145.491 40.3105 145.931 40.9785C146.37 41.6465 147.067 41.9805 148.022 41.9805ZM148.084 33.3145C149.297 33.3145 150.322 33.7188 151.16 34.5273C151.998 35.3359 152.417 36.5254 152.417 38.0957C152.417 39.6133 152.048 40.8672 151.31 41.8574C150.571 42.8477 149.426 43.3428 147.873 43.3428C146.578 43.3428 145.55 42.9062 144.788 42.0332C144.026 41.1543 143.646 39.9766 143.646 38.5C143.646 36.918 144.047 35.6582 144.85 34.7207C145.652 33.7832 146.73 33.3145 148.084 33.3145ZM154.351 30.0889H155.933V43H154.351V30.0889ZM162.05 41.9805C163.099 41.9805 163.816 41.585 164.203 40.7939C164.596 39.9971 164.792 39.1123 164.792 38.1396C164.792 37.2607 164.651 36.5459 164.37 35.9951C163.925 35.1279 163.157 34.6943 162.067 34.6943C161.101 34.6943 160.397 35.0635 159.958 35.8018C159.519 36.54 159.299 37.4307 159.299 38.4736C159.299 39.4756 159.519 40.3105 159.958 40.9785C160.397 41.6465 161.095 41.9805 162.05 41.9805ZM162.111 33.3145C163.324 33.3145 164.35 33.7188 165.188 34.5273C166.025 35.3359 166.444 36.5254 166.444 38.0957C166.444 39.6133 166.075 40.8672 165.337 41.8574C164.599 42.8477 163.453 43.3428 161.9 43.3428C160.605 43.3428 159.577 42.9062 158.815 42.0332C158.054 41.1543 157.673 39.9766 157.673 38.5C157.673 36.918 158.074 35.6582 158.877 34.7207C159.68 33.7832 160.758 33.3145 162.111 33.3145ZM168.378 33.5869H169.881V35.2129C170.004 34.8965 170.306 34.5127 170.786 34.0615C171.267 33.6045 171.82 33.376 172.447 33.376C172.477 33.376 172.526 33.3789 172.597 33.3848C172.667 33.3906 172.787 33.4023 172.957 33.4199V35.0898C172.863 35.0723 172.775 35.0605 172.693 35.0547C172.617 35.0488 172.532 35.0459 172.438 35.0459C171.642 35.0459 171.029 35.3037 170.602 35.8193C170.174 36.3291 169.96 36.918 169.96 37.5859V43H168.378V33.5869ZM180.278 40.0469C180.325 40.5742 180.457 40.9785 180.674 41.2598C181.072 41.7695 181.764 42.0244 182.748 42.0244C183.334 42.0244 183.85 41.8984 184.295 41.6465C184.74 41.3887 184.963 40.9932 184.963 40.46C184.963 40.0557 184.784 39.748 184.427 39.5371C184.198 39.4082 183.747 39.2588 183.073 39.0889L181.816 38.7725C181.014 38.5732 180.422 38.3506 180.041 38.1045C179.361 37.6768 179.021 37.085 179.021 36.3291C179.021 35.4385 179.341 34.7178 179.979 34.167C180.624 33.6162 181.488 33.3408 182.572 33.3408C183.99 33.3408 185.013 33.7568 185.64 34.5889C186.032 35.1162 186.223 35.6846 186.211 36.2939H184.717C184.688 35.9365 184.562 35.6113 184.339 35.3184C183.976 34.9023 183.346 34.6943 182.449 34.6943C181.852 34.6943 181.397 34.8086 181.087 35.0371C180.782 35.2656 180.63 35.5674 180.63 35.9424C180.63 36.3525 180.832 36.6807 181.236 36.9268C181.471 37.0732 181.816 37.2021 182.273 37.3135L183.319 37.5684C184.456 37.8438 185.218 38.1104 185.604 38.3682C186.22 38.7725 186.527 39.4082 186.527 40.2754C186.527 41.1133 186.208 41.8369 185.569 42.4463C184.937 43.0557 183.97 43.3604 182.669 43.3604C181.269 43.3604 180.275 43.0439 179.689 42.4111C179.109 41.7725 178.799 40.9844 178.758 40.0469H180.278ZM188.338 33.6309H189.946V43H188.338V33.6309ZM188.338 30.0889H189.946V31.8818H188.338V30.0889ZM192.662 30.959H194.262V33.5869H195.765V34.8789H194.262V41.0225C194.262 41.3506 194.373 41.5703 194.596 41.6816C194.719 41.7461 194.924 41.7783 195.211 41.7783C195.287 41.7783 195.369 41.7783 195.457 41.7783C195.545 41.7725 195.647 41.7637 195.765 41.752V43C195.583 43.0527 195.393 43.0908 195.193 43.1143C195 43.1377 194.789 43.1494 194.561 43.1494C193.822 43.1494 193.321 42.9619 193.058 42.5869C192.794 42.2061 192.662 41.7139 192.662 41.1104V34.8789H191.388V33.5869H192.662V30.959ZM203.578 40.4951C203.578 40.9521 203.745 41.3125 204.079 41.5762C204.413 41.8398 204.809 41.9717 205.266 41.9717C205.822 41.9717 206.361 41.8428 206.883 41.585C207.762 41.1572 208.201 40.457 208.201 39.4844V38.21C208.008 38.333 207.759 38.4355 207.454 38.5176C207.149 38.5996 206.851 38.6582 206.558 38.6934L205.6 38.8164C205.025 38.8926 204.595 39.0127 204.308 39.1768C203.821 39.4521 203.578 39.8916 203.578 40.4951ZM207.41 37.2959C207.773 37.249 208.017 37.0967 208.14 36.8389C208.21 36.6982 208.245 36.4961 208.245 36.2324C208.245 35.6934 208.052 35.3037 207.665 35.0635C207.284 34.8174 206.736 34.6943 206.021 34.6943C205.195 34.6943 204.609 34.917 204.264 35.3623C204.07 35.6084 203.944 35.9746 203.886 36.4609H202.409C202.438 35.3008 202.813 34.4951 203.534 34.0439C204.261 33.5869 205.102 33.3584 206.057 33.3584C207.164 33.3584 208.063 33.5693 208.755 33.9912C209.44 34.4131 209.783 35.0693 209.783 35.96V41.3828C209.783 41.5469 209.815 41.6787 209.88 41.7783C209.95 41.8779 210.094 41.9277 210.311 41.9277C210.381 41.9277 210.46 41.9248 210.548 41.9189C210.636 41.9072 210.729 41.8926 210.829 41.875V43.0439C210.583 43.1143 210.396 43.1582 210.267 43.1758C210.138 43.1934 209.962 43.2021 209.739 43.2021C209.194 43.2021 208.799 43.0088 208.553 42.6221C208.424 42.417 208.333 42.127 208.28 41.752C207.958 42.1738 207.495 42.54 206.892 42.8506C206.288 43.1611 205.623 43.3164 204.896 43.3164C204.023 43.3164 203.309 43.0527 202.752 42.5254C202.201 41.9922 201.926 41.3271 201.926 40.5303C201.926 39.6572 202.198 38.9805 202.743 38.5C203.288 38.0195 204.003 37.7236 204.888 37.6123L207.41 37.2959ZM212.385 33.5869H213.949V34.9229C214.324 34.46 214.664 34.123 214.969 33.9121C215.49 33.5547 216.082 33.376 216.744 33.376C217.494 33.376 218.098 33.5605 218.555 33.9297C218.812 34.1406 219.047 34.4512 219.258 34.8613C219.609 34.3574 220.022 33.9854 220.497 33.7451C220.972 33.499 221.505 33.376 222.097 33.376C223.362 33.376 224.224 33.833 224.681 34.7471C224.927 35.2393 225.05 35.9014 225.05 36.7334V43H223.406V36.4609C223.406 35.834 223.248 35.4033 222.932 35.1689C222.621 34.9346 222.24 34.8174 221.789 34.8174C221.168 34.8174 220.632 35.0254 220.181 35.4414C219.735 35.8574 219.513 36.5518 219.513 37.5244V43H217.904V36.8564C217.904 36.2178 217.828 35.752 217.676 35.459C217.436 35.0195 216.987 34.7998 216.331 34.7998C215.733 34.7998 215.188 35.0312 214.696 35.4941C214.21 35.957 213.967 36.7949 213.967 38.0078V43H212.385V33.5869ZM231.299 33.376C231.967 33.376 232.614 33.5342 233.241 33.8506C233.868 34.1611 234.346 34.5654 234.674 35.0635C234.99 35.5381 235.201 36.0918 235.307 36.7246C235.4 37.1582 235.447 37.8496 235.447 38.7988H228.548C228.577 39.7539 228.803 40.5215 229.225 41.1016C229.646 41.6758 230.3 41.9629 231.185 41.9629C232.011 41.9629 232.67 41.6904 233.162 41.1455C233.443 40.8291 233.643 40.4629 233.76 40.0469H235.315C235.274 40.3926 235.137 40.7793 234.902 41.207C234.674 41.6289 234.416 41.9746 234.129 42.2441C233.648 42.7129 233.054 43.0293 232.345 43.1934C231.964 43.2871 231.533 43.334 231.053 43.334C229.881 43.334 228.888 42.9092 228.073 42.0596C227.259 41.2041 226.852 40.0088 226.852 38.4736C226.852 36.9619 227.262 35.7344 228.082 34.791C228.902 33.8477 229.975 33.376 231.299 33.376ZM233.821 37.542C233.757 36.8564 233.607 36.3086 233.373 35.8984C232.939 35.1367 232.216 34.7559 231.202 34.7559C230.476 34.7559 229.866 35.0195 229.374 35.5469C228.882 36.0684 228.621 36.7334 228.592 37.542H233.821ZM237.715 30.959H239.314V33.5869H240.817V34.8789H239.314V41.0225C239.314 41.3506 239.426 41.5703 239.648 41.6816C239.771 41.7461 239.977 41.7783 240.264 41.7783C240.34 41.7783 240.422 41.7783 240.51 41.7783C240.598 41.7725 240.7 41.7637 240.817 41.752V43C240.636 43.0527 240.445 43.0908 240.246 43.1143C240.053 43.1377 239.842 43.1494 239.613 43.1494C238.875 43.1494 238.374 42.9619 238.11 42.5869C237.847 42.2061 237.715 41.7139 237.715 41.1104V34.8789H236.44V33.5869H237.715V30.959ZM242.742 44.8369C243.146 44.7666 243.431 44.4824 243.595 43.9844C243.683 43.7207 243.727 43.4658 243.727 43.2197C243.727 43.1787 243.724 43.1406 243.718 43.1055C243.718 43.0762 243.712 43.041 243.7 43H242.742V41.084H244.623V42.8594C244.623 43.5566 244.482 44.1689 244.201 44.6963C243.92 45.2236 243.434 45.5488 242.742 45.6719V44.8369ZM256.058 33.3145C257.118 33.3145 257.979 33.5723 258.642 34.0879C259.31 34.6035 259.711 35.4912 259.846 36.751H258.308C258.214 36.1709 258 35.6904 257.666 35.3096C257.332 34.9229 256.796 34.7295 256.058 34.7295C255.05 34.7295 254.329 35.2217 253.896 36.2061C253.614 36.8447 253.474 37.6328 253.474 38.5703C253.474 39.5137 253.673 40.3076 254.071 40.9521C254.47 41.5967 255.097 41.9189 255.952 41.9189C256.608 41.9189 257.127 41.7197 257.508 41.3213C257.895 40.917 258.161 40.3662 258.308 39.6689H259.846C259.67 40.917 259.23 41.8311 258.527 42.4111C257.824 42.9854 256.925 43.2725 255.829 43.2725C254.599 43.2725 253.617 42.8242 252.885 41.9277C252.152 41.0254 251.786 39.9004 251.786 38.5527C251.786 36.9004 252.188 35.6143 252.99 34.6943C253.793 33.7744 254.815 33.3145 256.058 33.3145ZM265.163 41.9805C266.212 41.9805 266.93 41.585 267.316 40.7939C267.709 39.9971 267.905 39.1123 267.905 38.1396C267.905 37.2607 267.765 36.5459 267.483 35.9951C267.038 35.1279 266.271 34.6943 265.181 34.6943C264.214 34.6943 263.511 35.0635 263.071 35.8018C262.632 36.54 262.412 37.4307 262.412 38.4736C262.412 39.4756 262.632 40.3105 263.071 40.9785C263.511 41.6465 264.208 41.9805 265.163 41.9805ZM265.225 33.3145C266.438 33.3145 267.463 33.7188 268.301 34.5273C269.139 35.3359 269.558 36.5254 269.558 38.0957C269.558 39.6133 269.188 40.8672 268.45 41.8574C267.712 42.8477 266.566 43.3428 265.014 43.3428C263.719 43.3428 262.69 42.9062 261.929 42.0332C261.167 41.1543 260.786 39.9766 260.786 38.5C260.786 36.918 261.188 35.6582 261.99 34.7207C262.793 33.7832 263.871 33.3145 265.225 33.3145ZM271.447 33.5869H272.95V34.9229C273.396 34.3721 273.867 33.9766 274.365 33.7363C274.863 33.4961 275.417 33.376 276.026 33.376C277.362 33.376 278.265 33.8418 278.733 34.7734C278.991 35.2832 279.12 36.0127 279.12 36.9619V43H277.512V37.0674C277.512 36.4932 277.427 36.0303 277.257 35.6787C276.976 35.0928 276.466 34.7998 275.728 34.7998C275.353 34.7998 275.045 34.8379 274.805 34.9141C274.371 35.043 273.99 35.3008 273.662 35.6875C273.398 35.998 273.226 36.3203 273.144 36.6543C273.067 36.9824 273.029 37.4541 273.029 38.0693V43H271.447V33.5869ZM282.407 40.0469C282.454 40.5742 282.586 40.9785 282.803 41.2598C283.201 41.7695 283.893 42.0244 284.877 42.0244C285.463 42.0244 285.979 41.8984 286.424 41.6465C286.869 41.3887 287.092 40.9932 287.092 40.46C287.092 40.0557 286.913 39.748 286.556 39.5371C286.327 39.4082 285.876 39.2588 285.202 39.0889L283.945 38.7725C283.143 38.5732 282.551 38.3506 282.17 38.1045C281.49 37.6768 281.15 37.085 281.15 36.3291C281.15 35.4385 281.47 34.7178 282.108 34.167C282.753 33.6162 283.617 33.3408 284.701 33.3408C286.119 33.3408 287.142 33.7568 287.769 34.5889C288.161 35.1162 288.352 35.6846 288.34 36.2939H286.846C286.816 35.9365 286.69 35.6113 286.468 35.3184C286.104 34.9023 285.475 34.6943 284.578 34.6943C283.98 34.6943 283.526 34.8086 283.216 35.0371C282.911 35.2656 282.759 35.5674 282.759 35.9424C282.759 36.3525 282.961 36.6807 283.365 36.9268C283.6 37.0732 283.945 37.2021 284.402 37.3135L285.448 37.5684C286.585 37.8438 287.347 38.1104 287.733 38.3682C288.349 38.7725 288.656 39.4082 288.656 40.2754C288.656 41.1133 288.337 41.8369 287.698 42.4463C287.065 43.0557 286.099 43.3604 284.798 43.3604C283.397 43.3604 282.404 43.0439 281.818 42.4111C281.238 41.7725 280.928 40.9844 280.887 40.0469H282.407ZM294.387 33.376C295.055 33.376 295.702 33.5342 296.329 33.8506C296.956 34.1611 297.434 34.5654 297.762 35.0635C298.078 35.5381 298.289 36.0918 298.395 36.7246C298.488 37.1582 298.535 37.8496 298.535 38.7988H291.636C291.665 39.7539 291.891 40.5215 292.312 41.1016C292.734 41.6758 293.388 41.9629 294.272 41.9629C295.099 41.9629 295.758 41.6904 296.25 41.1455C296.531 40.8291 296.73 40.4629 296.848 40.0469H298.403C298.362 40.3926 298.225 40.7793 297.99 41.207C297.762 41.6289 297.504 41.9746 297.217 42.2441C296.736 42.7129 296.142 43.0293 295.433 43.1934C295.052 43.2871 294.621 43.334 294.141 43.334C292.969 43.334 291.976 42.9092 291.161 42.0596C290.347 41.2041 289.939 40.0088 289.939 38.4736C289.939 36.9619 290.35 35.7344 291.17 34.791C291.99 33.8477 293.062 33.376 294.387 33.376ZM296.909 37.542C296.845 36.8564 296.695 36.3086 296.461 35.8984C296.027 35.1367 295.304 34.7559 294.29 34.7559C293.563 34.7559 292.954 35.0195 292.462 35.5469C291.97 36.0684 291.709 36.7334 291.68 37.542H296.909ZM304.116 33.3145C305.177 33.3145 306.038 33.5723 306.7 34.0879C307.368 34.6035 307.77 35.4912 307.904 36.751H306.366C306.272 36.1709 306.059 35.6904 305.725 35.3096C305.391 34.9229 304.854 34.7295 304.116 34.7295C303.108 34.7295 302.388 35.2217 301.954 36.2061C301.673 36.8447 301.532 37.6328 301.532 38.5703C301.532 39.5137 301.731 40.3076 302.13 40.9521C302.528 41.5967 303.155 41.9189 304.011 41.9189C304.667 41.9189 305.186 41.7197 305.566 41.3213C305.953 40.917 306.22 40.3662 306.366 39.6689H307.904C307.729 40.917 307.289 41.8311 306.586 42.4111C305.883 42.9854 304.983 43.2725 303.888 43.2725C302.657 43.2725 301.676 42.8242 300.943 41.9277C300.211 41.0254 299.845 39.9004 299.845 38.5527C299.845 36.9004 300.246 35.6143 301.049 34.6943C301.852 33.7744 302.874 33.3145 304.116 33.3145ZM309.803 30.959H311.402V33.5869H312.905V34.8789H311.402V41.0225C311.402 41.3506 311.514 41.5703 311.736 41.6816C311.859 41.7461 312.064 41.7783 312.352 41.7783C312.428 41.7783 312.51 41.7783 312.598 41.7783C312.686 41.7725 312.788 41.7637 312.905 41.752V43C312.724 43.0527 312.533 43.0908 312.334 43.1143C312.141 43.1377 311.93 43.1494 311.701 43.1494C310.963 43.1494 310.462 42.9619 310.198 42.5869C309.935 42.2061 309.803 41.7139 309.803 41.1104V34.8789H308.528V33.5869H309.803V30.959ZM318.416 33.376C319.084 33.376 319.731 33.5342 320.358 33.8506C320.985 34.1611 321.463 34.5654 321.791 35.0635C322.107 35.5381 322.318 36.0918 322.424 36.7246C322.518 37.1582 322.564 37.8496 322.564 38.7988H315.665C315.694 39.7539 315.92 40.5215 316.342 41.1016C316.764 41.6758 317.417 41.9629 318.302 41.9629C319.128 41.9629 319.787 41.6904 320.279 41.1455C320.561 40.8291 320.76 40.4629 320.877 40.0469H322.433C322.392 40.3926 322.254 40.7793 322.02 41.207C321.791 41.6289 321.533 41.9746 321.246 42.2441C320.766 42.7129 320.171 43.0293 319.462 43.1934C319.081 43.2871 318.65 43.334 318.17 43.334C316.998 43.334 316.005 42.9092 315.19 42.0596C314.376 41.2041 313.969 40.0088 313.969 38.4736C313.969 36.9619 314.379 35.7344 315.199 34.791C316.02 33.8477 317.092 33.376 318.416 33.376ZM320.938 37.542C320.874 36.8564 320.725 36.3086 320.49 35.8984C320.057 35.1367 319.333 34.7559 318.319 34.7559C317.593 34.7559 316.983 35.0195 316.491 35.5469C315.999 36.0684 315.738 36.7334 315.709 37.542H320.938ZM324.832 30.959H326.432V33.5869H327.935V34.8789H326.432V41.0225C326.432 41.3506 326.543 41.5703 326.766 41.6816C326.889 41.7461 327.094 41.7783 327.381 41.7783C327.457 41.7783 327.539 41.7783 327.627 41.7783C327.715 41.7725 327.817 41.7637 327.935 41.752V43C327.753 43.0527 327.562 43.0908 327.363 43.1143C327.17 43.1377 326.959 43.1494 326.73 43.1494C325.992 43.1494 325.491 42.9619 325.228 42.5869C324.964 42.2061 324.832 41.7139 324.832 41.1104V34.8789H323.558V33.5869H324.832V30.959ZM331.107 33.5869V39.8359C331.107 40.3164 331.184 40.709 331.336 41.0137C331.617 41.5762 332.142 41.8574 332.909 41.8574C334.011 41.8574 334.761 41.3652 335.159 40.3809C335.376 39.8535 335.484 39.1299 335.484 38.21V33.5869H337.066V43H335.572L335.59 41.6113C335.385 41.9688 335.13 42.2705 334.825 42.5166C334.222 43.0088 333.489 43.2549 332.628 43.2549C331.286 43.2549 330.372 42.8066 329.886 41.9102C329.622 41.4297 329.49 40.7881 329.49 39.9854V33.5869H331.107ZM339.589 33.5869H341.092V35.2129C341.215 34.8965 341.517 34.5127 341.997 34.0615C342.478 33.6045 343.031 33.376 343.658 33.376C343.688 33.376 343.737 33.3789 343.808 33.3848C343.878 33.3906 343.998 33.4023 344.168 33.4199V35.0898C344.074 35.0723 343.986 35.0605 343.904 35.0547C343.828 35.0488 343.743 35.0459 343.649 35.0459C342.853 35.0459 342.24 35.3037 341.812 35.8193C341.385 36.3291 341.171 36.918 341.171 37.5859V43H339.589V33.5869ZM351.762 40.4951C351.762 40.9521 351.929 41.3125 352.263 41.5762C352.597 41.8398 352.992 41.9717 353.449 41.9717C354.006 41.9717 354.545 41.8428 355.066 41.585C355.945 41.1572 356.385 40.457 356.385 39.4844V38.21C356.191 38.333 355.942 38.4355 355.638 38.5176C355.333 38.5996 355.034 38.6582 354.741 38.6934L353.783 38.8164C353.209 38.8926 352.778 39.0127 352.491 39.1768C352.005 39.4521 351.762 39.8916 351.762 40.4951ZM355.594 37.2959C355.957 37.249 356.2 37.0967 356.323 36.8389C356.394 36.6982 356.429 36.4961 356.429 36.2324C356.429 35.6934 356.235 35.3037 355.849 35.0635C355.468 34.8174 354.92 34.6943 354.205 34.6943C353.379 34.6943 352.793 34.917 352.447 35.3623C352.254 35.6084 352.128 35.9746 352.069 36.4609H350.593C350.622 35.3008 350.997 34.4951 351.718 34.0439C352.444 33.5869 353.285 33.3584 354.24 33.3584C355.348 33.3584 356.247 33.5693 356.938 33.9912C357.624 34.4131 357.967 35.0693 357.967 35.96V41.3828C357.967 41.5469 357.999 41.6787 358.063 41.7783C358.134 41.8779 358.277 41.9277 358.494 41.9277C358.564 41.9277 358.644 41.9248 358.731 41.9189C358.819 41.9072 358.913 41.8926 359.013 41.875V43.0439C358.767 43.1143 358.579 43.1582 358.45 43.1758C358.321 43.1934 358.146 43.2021 357.923 43.2021C357.378 43.2021 356.982 43.0088 356.736 42.6221C356.607 42.417 356.517 42.127 356.464 41.752C356.142 42.1738 355.679 42.54 355.075 42.8506C354.472 43.1611 353.807 43.3164 353.08 43.3164C352.207 43.3164 351.492 43.0527 350.936 42.5254C350.385 41.9922 350.109 41.3271 350.109 40.5303C350.109 39.6572 350.382 38.9805 350.927 38.5C351.472 38.0195 352.187 37.7236 353.071 37.6123L355.594 37.2959ZM361.57 38.4033C361.57 39.4111 361.784 40.2549 362.212 40.9346C362.64 41.6143 363.325 41.9541 364.269 41.9541C365.001 41.9541 365.602 41.6406 366.07 41.0137C366.545 40.3809 366.782 39.4756 366.782 38.2979C366.782 37.1084 366.539 36.2295 366.053 35.6611C365.566 35.0869 364.966 34.7998 364.251 34.7998C363.454 34.7998 362.807 35.1045 362.309 35.7139C361.816 36.3232 361.57 37.2197 361.57 38.4033ZM363.952 33.4199C364.673 33.4199 365.276 33.5723 365.763 33.877C366.044 34.0527 366.363 34.3604 366.721 34.7998V30.0449H368.241V43H366.817V41.6904C366.448 42.2705 366.012 42.6895 365.508 42.9473C365.004 43.2051 364.427 43.334 363.776 43.334C362.728 43.334 361.819 42.8945 361.052 42.0156C360.284 41.1309 359.9 39.9561 359.9 38.4912C359.9 37.1201 360.249 35.9336 360.946 34.9316C361.649 33.9238 362.651 33.4199 363.952 33.4199ZM370.588 33.6309H372.196V43H370.588V33.6309ZM370.588 30.0889H372.196V31.8818H370.588V30.0889ZM378.568 41.9365C379.307 41.9365 379.919 41.6289 380.405 41.0137C380.897 40.3926 381.144 39.4668 381.144 38.2363C381.144 37.4863 381.035 36.8418 380.818 36.3027C380.408 35.2656 379.658 34.7471 378.568 34.7471C377.473 34.7471 376.723 35.2949 376.318 36.3906C376.102 36.9766 375.993 37.7207 375.993 38.623C375.993 39.3496 376.102 39.9678 376.318 40.4775C376.729 41.4502 377.479 41.9365 378.568 41.9365ZM374.473 33.6309H376.011V34.8789C376.327 34.4512 376.673 34.1201 377.048 33.8857C377.581 33.5342 378.208 33.3584 378.929 33.3584C379.995 33.3584 380.9 33.7686 381.645 34.5889C382.389 35.4033 382.761 36.5693 382.761 38.0869C382.761 40.1377 382.225 41.6025 381.152 42.4814C380.473 43.0381 379.682 43.3164 378.779 43.3164C378.07 43.3164 377.476 43.1611 376.995 42.8506C376.714 42.6748 376.4 42.373 376.055 41.9453V46.7529H374.473V33.6309ZM384.615 33.6309H386.224V43H384.615V33.6309ZM384.615 30.0889H386.224V31.8818H384.615V30.0889ZM389.563 40.0469C389.61 40.5742 389.742 40.9785 389.959 41.2598C390.357 41.7695 391.049 42.0244 392.033 42.0244C392.619 42.0244 393.135 41.8984 393.58 41.6465C394.025 41.3887 394.248 40.9932 394.248 40.46C394.248 40.0557 394.069 39.748 393.712 39.5371C393.483 39.4082 393.032 39.2588 392.358 39.0889L391.102 38.7725C390.299 38.5732 389.707 38.3506 389.326 38.1045C388.646 37.6768 388.307 37.085 388.307 36.3291C388.307 35.4385 388.626 34.7178 389.265 34.167C389.909 33.6162 390.773 33.3408 391.857 33.3408C393.275 33.3408 394.298 33.7568 394.925 34.5889C395.317 35.1162 395.508 35.6846 395.496 36.2939H394.002C393.973 35.9365 393.847 35.6113 393.624 35.3184C393.261 34.9023 392.631 34.6943 391.734 34.6943C391.137 34.6943 390.683 34.8086 390.372 35.0371C390.067 35.2656 389.915 35.5674 389.915 35.9424C389.915 36.3525 390.117 36.6807 390.521 36.9268C390.756 37.0732 391.102 37.2021 391.559 37.3135L392.604 37.5684C393.741 37.8438 394.503 38.1104 394.89 38.3682C395.505 38.7725 395.812 39.4082 395.812 40.2754C395.812 41.1133 395.493 41.8369 394.854 42.4463C394.222 43.0557 393.255 43.3604 391.954 43.3604C390.554 43.3604 389.561 43.0439 388.975 42.4111C388.395 41.7725 388.084 40.9844 388.043 40.0469H389.563ZM401.253 33.3145C402.313 33.3145 403.175 33.5723 403.837 34.0879C404.505 34.6035 404.906 35.4912 405.041 36.751H403.503C403.409 36.1709 403.195 35.6904 402.861 35.3096C402.527 34.9229 401.991 34.7295 401.253 34.7295C400.245 34.7295 399.524 35.2217 399.091 36.2061C398.81 36.8447 398.669 37.6328 398.669 38.5703C398.669 39.5137 398.868 40.3076 399.267 40.9521C399.665 41.5967 400.292 41.9189 401.147 41.9189C401.804 41.9189 402.322 41.7197 402.703 41.3213C403.09 40.917 403.356 40.3662 403.503 39.6689H405.041C404.865 40.917 404.426 41.8311 403.723 42.4111C403.02 42.9854 402.12 43.2725 401.024 43.2725C399.794 43.2725 398.812 42.8242 398.08 41.9277C397.348 41.0254 396.981 39.9004 396.981 38.5527C396.981 36.9004 397.383 35.6143 398.186 34.6943C398.988 33.7744 400.011 33.3145 401.253 33.3145ZM406.623 33.6309H408.231V43H406.623V33.6309ZM406.623 30.0889H408.231V31.8818H406.623V30.0889ZM410.631 33.5869H412.134V34.9229C412.579 34.3721 413.051 33.9766 413.549 33.7363C414.047 33.4961 414.601 33.376 415.21 33.376C416.546 33.376 417.448 33.8418 417.917 34.7734C418.175 35.2832 418.304 36.0127 418.304 36.9619V43H416.695V37.0674C416.695 36.4932 416.61 36.0303 416.44 35.6787C416.159 35.0928 415.649 34.7998 414.911 34.7998C414.536 34.7998 414.229 34.8379 413.988 34.9141C413.555 35.043 413.174 35.3008 412.846 35.6875C412.582 35.998 412.409 36.3203 412.327 36.6543C412.251 36.9824 412.213 37.4541 412.213 38.0693V43H410.631V33.5869ZM423.973 33.4199C424.711 33.4199 425.355 33.6016 425.906 33.9648C426.205 34.1699 426.51 34.4688 426.82 34.8613V33.6748H428.279V42.2354C428.279 43.4307 428.104 44.374 427.752 45.0654C427.096 46.3428 425.856 46.9814 424.034 46.9814C423.021 46.9814 422.168 46.7529 421.477 46.2959C420.785 45.8447 420.398 45.1357 420.316 44.1689H421.925C422.001 44.5908 422.153 44.916 422.382 45.1445C422.739 45.4961 423.302 45.6719 424.069 45.6719C425.282 45.6719 426.076 45.2441 426.451 44.3887C426.674 43.8848 426.776 42.9854 426.759 41.6904C426.442 42.1709 426.062 42.5283 425.616 42.7627C425.171 42.9971 424.582 43.1143 423.85 43.1143C422.83 43.1143 421.937 42.7539 421.169 42.0332C420.407 41.3066 420.026 40.1084 420.026 38.4385C420.026 36.8623 420.41 35.6318 421.178 34.7471C421.951 33.8623 422.883 33.4199 423.973 33.4199ZM426.82 38.2539C426.82 37.0879 426.58 36.2236 426.1 35.6611C425.619 35.0986 425.007 34.8174 424.263 34.8174C423.149 34.8174 422.388 35.3389 421.978 36.3818C421.761 36.9385 421.652 37.668 421.652 38.5703C421.652 39.6309 421.866 40.4395 422.294 40.9961C422.728 41.5469 423.308 41.8223 424.034 41.8223C425.171 41.8223 425.971 41.3096 426.434 40.2842C426.691 39.7041 426.82 39.0273 426.82 38.2539ZM439.6 33.376C440.268 33.376 440.915 33.5342 441.542 33.8506C442.169 34.1611 442.646 34.5654 442.975 35.0635C443.291 35.5381 443.502 36.0918 443.607 36.7246C443.701 37.1582 443.748 37.8496 443.748 38.7988H436.849C436.878 39.7539 437.104 40.5215 437.525 41.1016C437.947 41.6758 438.601 41.9629 439.485 41.9629C440.312 41.9629 440.971 41.6904 441.463 41.1455C441.744 40.8291 441.943 40.4629 442.061 40.0469H443.616C443.575 40.3926 443.438 40.7793 443.203 41.207C442.975 41.6289 442.717 41.9746 442.43 42.2441C441.949 42.7129 441.354 43.0293 440.646 43.1934C440.265 43.2871 439.834 43.334 439.354 43.334C438.182 43.334 437.188 42.9092 436.374 42.0596C435.56 41.2041 435.152 40.0088 435.152 38.4736C435.152 36.9619 435.562 35.7344 436.383 34.791C437.203 33.8477 438.275 33.376 439.6 33.376ZM442.122 37.542C442.058 36.8564 441.908 36.3086 441.674 35.8984C441.24 35.1367 440.517 34.7559 439.503 34.7559C438.776 34.7559 438.167 35.0195 437.675 35.5469C437.183 36.0684 436.922 36.7334 436.893 37.542H442.122ZM445.743 30.0889H447.325V43H445.743V30.0889ZM449.707 33.6309H451.315V43H449.707V33.6309ZM449.707 30.0889H451.315V31.8818H449.707V30.0889ZM454.031 30.959H455.631V33.5869H457.134V34.8789H455.631V41.0225C455.631 41.3506 455.742 41.5703 455.965 41.6816C456.088 41.7461 456.293 41.7783 456.58 41.7783C456.656 41.7783 456.738 41.7783 456.826 41.7783C456.914 41.7725 457.017 41.7637 457.134 41.752V43C456.952 43.0527 456.762 43.0908 456.562 43.1143C456.369 43.1377 456.158 43.1494 455.93 43.1494C455.191 43.1494 454.69 42.9619 454.427 42.5869C454.163 42.2061 454.031 41.7139 454.031 41.1104V34.8789H452.757V33.5869H454.031V30.959ZM459.103 41.084H460.939V43H459.103V41.084ZM470.098 38.834C470.139 39.5664 470.312 40.1611 470.616 40.6182C471.196 41.4736 472.219 41.9014 473.684 41.9014C474.34 41.9014 474.938 41.8076 475.477 41.6201C476.52 41.2568 477.041 40.6064 477.041 39.6689C477.041 38.9658 476.821 38.4648 476.382 38.166C475.937 37.873 475.239 37.6182 474.29 37.4014L472.541 37.0059C471.398 36.748 470.59 36.4639 470.115 36.1533C469.295 35.6143 468.885 34.8086 468.885 33.7363C468.885 32.5762 469.286 31.624 470.089 30.8799C470.892 30.1357 472.028 29.7637 473.499 29.7637C474.853 29.7637 476.001 30.0918 476.944 30.748C477.894 31.3984 478.368 32.4414 478.368 33.877H476.725C476.637 33.1855 476.449 32.6553 476.162 32.2861C475.629 31.6123 474.724 31.2754 473.446 31.2754C472.415 31.2754 471.674 31.4922 471.223 31.9258C470.771 32.3594 470.546 32.8633 470.546 33.4375C470.546 34.0703 470.81 34.5332 471.337 34.8262C471.683 35.0137 472.465 35.248 473.684 35.5293L475.494 35.9424C476.367 36.1416 477.041 36.4141 477.516 36.7598C478.336 37.3633 478.746 38.2393 478.746 39.3877C478.746 40.8174 478.225 41.8398 477.182 42.4551C476.145 43.0703 474.938 43.3779 473.561 43.3779C471.955 43.3779 470.698 42.9678 469.79 42.1475C468.882 41.333 468.437 40.2285 468.454 38.834H470.098ZM484.67 33.376C485.338 33.376 485.985 33.5342 486.612 33.8506C487.239 34.1611 487.717 34.5654 488.045 35.0635C488.361 35.5381 488.572 36.0918 488.678 36.7246C488.771 37.1582 488.818 37.8496 488.818 38.7988H481.919C481.948 39.7539 482.174 40.5215 482.596 41.1016C483.018 41.6758 483.671 41.9629 484.556 41.9629C485.382 41.9629 486.041 41.6904 486.533 41.1455C486.814 40.8291 487.014 40.4629 487.131 40.0469H488.687C488.646 40.3926 488.508 40.7793 488.273 41.207C488.045 41.6289 487.787 41.9746 487.5 42.2441C487.02 42.7129 486.425 43.0293 485.716 43.1934C485.335 43.2871 484.904 43.334 484.424 43.334C483.252 43.334 482.259 42.9092 481.444 42.0596C480.63 41.2041 480.223 40.0088 480.223 38.4736C480.223 36.9619 480.633 35.7344 481.453 34.791C482.273 33.8477 483.346 33.376 484.67 33.376ZM487.192 37.542C487.128 36.8564 486.979 36.3086 486.744 35.8984C486.311 35.1367 485.587 34.7559 484.573 34.7559C483.847 34.7559 483.237 35.0195 482.745 35.5469C482.253 36.0684 481.992 36.7334 481.963 37.542H487.192ZM491.771 38.4033C491.771 39.4111 491.985 40.2549 492.413 40.9346C492.841 41.6143 493.526 41.9541 494.47 41.9541C495.202 41.9541 495.803 41.6406 496.271 41.0137C496.746 40.3809 496.983 39.4756 496.983 38.2979C496.983 37.1084 496.74 36.2295 496.254 35.6611C495.768 35.0869 495.167 34.7998 494.452 34.7998C493.655 34.7998 493.008 35.1045 492.51 35.7139C492.018 36.3232 491.771 37.2197 491.771 38.4033ZM494.153 33.4199C494.874 33.4199 495.478 33.5723 495.964 33.877C496.245 34.0527 496.564 34.3604 496.922 34.7998V30.0449H498.442V43H497.019V41.6904C496.649 42.2705 496.213 42.6895 495.709 42.9473C495.205 43.2051 494.628 43.334 493.978 43.334C492.929 43.334 492.021 42.8945 491.253 42.0156C490.485 41.1309 490.102 39.9561 490.102 38.4912C490.102 37.1201 490.45 35.9336 491.147 34.9316C491.851 33.9238 492.853 33.4199 494.153 33.4199ZM25.1602 59.5869H26.7246V60.9229C27.0996 60.46 27.4395 60.123 27.7441 59.9121C28.2656 59.5547 28.8574 59.376 29.5195 59.376C30.2695 59.376 30.873 59.5605 31.3301 59.9297C31.5879 60.1406 31.8223 60.4512 32.0332 60.8613C32.3848 60.3574 32.7979 59.9854 33.2725 59.7451C33.7471 59.499 34.2803 59.376 34.8721 59.376C36.1377 59.376 36.999 59.833 37.4561 60.7471C37.7021 61.2393 37.8252 61.9014 37.8252 62.7334V69H36.1816V62.4609C36.1816 61.834 36.0234 61.4033 35.707 61.1689C35.3965 60.9346 35.0156 60.8174 34.5645 60.8174C33.9434 60.8174 33.4072 61.0254 32.9561 61.4414C32.5107 61.8574 32.2881 62.5518 32.2881 63.5244V69H30.6797V62.8564C30.6797 62.2178 30.6035 61.752 30.4512 61.459C30.2109 61.0195 29.7627 60.7998 29.1064 60.7998C28.5088 60.7998 27.9639 61.0312 27.4717 61.4941C26.9854 61.957 26.7422 62.7949 26.7422 64.0078V69H25.1602V59.5869ZM41.3672 66.4951C41.3672 66.9521 41.5342 67.3125 41.8682 67.5762C42.2021 67.8398 42.5977 67.9717 43.0547 67.9717C43.6113 67.9717 44.1504 67.8428 44.6719 67.585C45.5508 67.1572 45.9902 66.457 45.9902 65.4844V64.21C45.7969 64.333 45.5479 64.4355 45.2432 64.5176C44.9385 64.5996 44.6396 64.6582 44.3467 64.6934L43.3887 64.8164C42.8145 64.8926 42.3838 65.0127 42.0967 65.1768C41.6104 65.4521 41.3672 65.8916 41.3672 66.4951ZM45.1992 63.2959C45.5625 63.249 45.8057 63.0967 45.9287 62.8389C45.999 62.6982 46.0342 62.4961 46.0342 62.2324C46.0342 61.6934 45.8408 61.3037 45.4541 61.0635C45.0732 60.8174 44.5254 60.6943 43.8105 60.6943C42.9844 60.6943 42.3984 60.917 42.0527 61.3623C41.8594 61.6084 41.7334 61.9746 41.6748 62.4609H40.1982C40.2275 61.3008 40.6025 60.4951 41.3232 60.0439C42.0498 59.5869 42.8906 59.3584 43.8457 59.3584C44.9531 59.3584 45.8525 59.5693 46.5439 59.9912C47.2295 60.4131 47.5723 61.0693 47.5723 61.96V67.3828C47.5723 67.5469 47.6045 67.6787 47.6689 67.7783C47.7393 67.8779 47.8828 67.9277 48.0996 67.9277C48.1699 67.9277 48.249 67.9248 48.3369 67.9189C48.4248 67.9072 48.5186 67.8926 48.6182 67.875V69.0439C48.3721 69.1143 48.1846 69.1582 48.0557 69.1758C47.9268 69.1934 47.751 69.2021 47.5283 69.2021C46.9834 69.2021 46.5879 69.0088 46.3418 68.6221C46.2129 68.417 46.1221 68.127 46.0693 67.752C45.7471 68.1738 45.2842 68.54 44.6807 68.8506C44.0771 69.1611 43.4121 69.3164 42.6855 69.3164C41.8125 69.3164 41.0977 69.0527 40.541 68.5254C39.9902 67.9922 39.7148 67.3271 39.7148 66.5303C39.7148 65.6572 39.9873 64.9805 40.5322 64.5C41.0771 64.0195 41.792 63.7236 42.6768 63.6123L45.1992 63.2959ZM51.1143 66.0469C51.1611 66.5742 51.293 66.9785 51.5098 67.2598C51.9082 67.7695 52.5996 68.0244 53.584 68.0244C54.1699 68.0244 54.6855 67.8984 55.1309 67.6465C55.5762 67.3887 55.7988 66.9932 55.7988 66.46C55.7988 66.0557 55.6201 65.748 55.2627 65.5371C55.0342 65.4082 54.583 65.2588 53.9092 65.0889L52.6523 64.7725C51.8496 64.5732 51.2578 64.3506 50.877 64.1045C50.1973 63.6768 49.8574 63.085 49.8574 62.3291C49.8574 61.4385 50.1768 60.7178 50.8154 60.167C51.46 59.6162 52.3242 59.3408 53.4082 59.3408C54.8262 59.3408 55.8486 59.7568 56.4756 60.5889C56.8682 61.1162 57.0586 61.6846 57.0469 62.2939H55.5527C55.5234 61.9365 55.3975 61.6113 55.1748 61.3184C54.8115 60.9023 54.1816 60.6943 53.2852 60.6943C52.6875 60.6943 52.2334 60.8086 51.9229 61.0371C51.6182 61.2656 51.4658 61.5674 51.4658 61.9424C51.4658 62.3525 51.668 62.6807 52.0723 62.9268C52.3066 63.0732 52.6523 63.2021 53.1094 63.3135L54.1553 63.5684C55.292 63.8438 56.0537 64.1104 56.4404 64.3682C57.0557 64.7725 57.3633 65.4082 57.3633 66.2754C57.3633 67.1133 57.0439 67.8369 56.4053 68.4463C55.7725 69.0557 54.8057 69.3604 53.5049 69.3604C52.1045 69.3604 51.1113 69.0439 50.5254 68.4111C49.9453 67.7725 49.6348 66.9844 49.5938 66.0469H51.1143ZM60.1143 66.0469C60.1611 66.5742 60.293 66.9785 60.5098 67.2598C60.9082 67.7695 61.5996 68.0244 62.584 68.0244C63.1699 68.0244 63.6855 67.8984 64.1309 67.6465C64.5762 67.3887 64.7988 66.9932 64.7988 66.46C64.7988 66.0557 64.6201 65.748 64.2627 65.5371C64.0342 65.4082 63.583 65.2588 62.9092 65.0889L61.6523 64.7725C60.8496 64.5732 60.2578 64.3506 59.877 64.1045C59.1973 63.6768 58.8574 63.085 58.8574 62.3291C58.8574 61.4385 59.1768 60.7178 59.8154 60.167C60.46 59.6162 61.3242 59.3408 62.4082 59.3408C63.8262 59.3408 64.8486 59.7568 65.4756 60.5889C65.8682 61.1162 66.0586 61.6846 66.0469 62.2939H64.5527C64.5234 61.9365 64.3975 61.6113 64.1748 61.3184C63.8115 60.9023 63.1816 60.6943 62.2852 60.6943C61.6875 60.6943 61.2334 60.8086 60.9229 61.0371C60.6182 61.2656 60.4658 61.5674 60.4658 61.9424C60.4658 62.3525 60.668 62.6807 61.0723 62.9268C61.3066 63.0732 61.6523 63.2021 62.1094 63.3135L63.1553 63.5684C64.292 63.8438 65.0537 64.1104 65.4404 64.3682C66.0557 64.7725 66.3633 65.4082 66.3633 66.2754C66.3633 67.1133 66.0439 67.8369 65.4053 68.4463C64.7725 69.0557 63.8057 69.3604 62.5049 69.3604C61.1045 69.3604 60.1113 69.0439 59.5254 68.4111C58.9453 67.7725 58.6348 66.9844 58.5938 66.0469H60.1143ZM69.3867 66.4951C69.3867 66.9521 69.5537 67.3125 69.8877 67.5762C70.2217 67.8398 70.6172 67.9717 71.0742 67.9717C71.6309 67.9717 72.1699 67.8428 72.6914 67.585C73.5703 67.1572 74.0098 66.457 74.0098 65.4844V64.21C73.8164 64.333 73.5674 64.4355 73.2627 64.5176C72.958 64.5996 72.6592 64.6582 72.3662 64.6934L71.4082 64.8164C70.834 64.8926 70.4033 65.0127 70.1162 65.1768C69.6299 65.4521 69.3867 65.8916 69.3867 66.4951ZM73.2188 63.2959C73.582 63.249 73.8252 63.0967 73.9482 62.8389C74.0186 62.6982 74.0537 62.4961 74.0537 62.2324C74.0537 61.6934 73.8604 61.3037 73.4736 61.0635C73.0928 60.8174 72.5449 60.6943 71.8301 60.6943C71.0039 60.6943 70.418 60.917 70.0723 61.3623C69.8789 61.6084 69.7529 61.9746 69.6943 62.4609H68.2178C68.2471 61.3008 68.6221 60.4951 69.3428 60.0439C70.0693 59.5869 70.9102 59.3584 71.8652 59.3584C72.9727 59.3584 73.8721 59.5693 74.5635 59.9912C75.249 60.4131 75.5918 61.0693 75.5918 61.96V67.3828C75.5918 67.5469 75.624 67.6787 75.6885 67.7783C75.7588 67.8779 75.9023 67.9277 76.1191 67.9277C76.1895 67.9277 76.2686 67.9248 76.3564 67.9189C76.4443 67.9072 76.5381 67.8926 76.6377 67.875V69.0439C76.3916 69.1143 76.2041 69.1582 76.0752 69.1758C75.9463 69.1934 75.7705 69.2021 75.5479 69.2021C75.0029 69.2021 74.6074 69.0088 74.3613 68.6221C74.2324 68.417 74.1416 68.127 74.0889 67.752C73.7666 68.1738 73.3037 68.54 72.7002 68.8506C72.0967 69.1611 71.4316 69.3164 70.7051 69.3164C69.832 69.3164 69.1172 69.0527 68.5605 68.5254C68.0098 67.9922 67.7344 67.3271 67.7344 66.5303C67.7344 65.6572 68.0068 64.9805 68.5518 64.5C69.0967 64.0195 69.8115 63.7236 70.6963 63.6123L73.2188 63.2959ZM83.5195 56.959H85.1191V59.5869H86.6221V60.8789H85.1191V67.0225C85.1191 67.3506 85.2305 67.5703 85.4531 67.6816C85.5762 67.7461 85.7812 67.7783 86.0684 67.7783C86.1445 67.7783 86.2266 67.7783 86.3145 67.7783C86.4023 67.7725 86.5049 67.7637 86.6221 67.752V69C86.4404 69.0527 86.25 69.0908 86.0508 69.1143C85.8574 69.1377 85.6465 69.1494 85.418 69.1494C84.6797 69.1494 84.1787 68.9619 83.915 68.5869C83.6514 68.2061 83.5195 67.7139 83.5195 67.1104V60.8789H82.2451V59.5869H83.5195V56.959ZM89.7949 59.5869V65.8359C89.7949 66.3164 89.8711 66.709 90.0234 67.0137C90.3047 67.5762 90.8291 67.8574 91.5967 67.8574C92.6982 67.8574 93.4482 67.3652 93.8467 66.3809C94.0635 65.8535 94.1719 65.1299 94.1719 64.21V59.5869H95.7539V69H94.2598L94.2773 67.6113C94.0723 67.9688 93.8174 68.2705 93.5127 68.5166C92.9092 69.0088 92.1768 69.2549 91.3154 69.2549C89.9736 69.2549 89.0596 68.8066 88.5732 67.9102C88.3096 67.4297 88.1777 66.7881 88.1777 65.9854V59.5869H89.7949ZM98.2764 59.5869H99.7793V61.2129C99.9023 60.8965 100.204 60.5127 100.685 60.0615C101.165 59.6045 101.719 59.376 102.346 59.376C102.375 59.376 102.425 59.3789 102.495 59.3848C102.565 59.3906 102.686 59.4023 102.855 59.4199V61.0898C102.762 61.0723 102.674 61.0605 102.592 61.0547C102.516 61.0488 102.431 61.0459 102.337 61.0459C101.54 61.0459 100.928 61.3037 100.5 61.8193C100.072 62.3291 99.8584 62.918 99.8584 63.5859V69H98.2764V59.5869ZM108.199 67.9365C108.938 67.9365 109.55 67.6289 110.036 67.0137C110.528 66.3926 110.774 65.4668 110.774 64.2363C110.774 63.4863 110.666 62.8418 110.449 62.3027C110.039 61.2656 109.289 60.7471 108.199 60.7471C107.104 60.7471 106.354 61.2949 105.949 62.3906C105.732 62.9766 105.624 63.7207 105.624 64.623C105.624 65.3496 105.732 65.9678 105.949 66.4775C106.359 67.4502 107.109 67.9365 108.199 67.9365ZM104.104 59.6309H105.642V60.8789C105.958 60.4512 106.304 60.1201 106.679 59.8857C107.212 59.5342 107.839 59.3584 108.56 59.3584C109.626 59.3584 110.531 59.7686 111.275 60.5889C112.02 61.4033 112.392 62.5693 112.392 64.0869C112.392 66.1377 111.855 67.6025 110.783 68.4814C110.104 69.0381 109.312 69.3164 108.41 69.3164C107.701 69.3164 107.106 69.1611 106.626 68.8506C106.345 68.6748 106.031 68.373 105.686 67.9453V72.7529H104.104V59.6309ZM114.246 59.6309H115.854V69H114.246V59.6309ZM114.246 56.0889H115.854V57.8818H114.246V56.0889ZM119.194 66.0469C119.241 66.5742 119.373 66.9785 119.59 67.2598C119.988 67.7695 120.68 68.0244 121.664 68.0244C122.25 68.0244 122.766 67.8984 123.211 67.6465C123.656 67.3887 123.879 66.9932 123.879 66.46C123.879 66.0557 123.7 65.748 123.343 65.5371C123.114 65.4082 122.663 65.2588 121.989 65.0889L120.732 64.7725C119.93 64.5732 119.338 64.3506 118.957 64.1045C118.277 63.6768 117.938 63.085 117.938 62.3291C117.938 61.4385 118.257 60.7178 118.896 60.167C119.54 59.6162 120.404 59.3408 121.488 59.3408C122.906 59.3408 123.929 59.7568 124.556 60.5889C124.948 61.1162 125.139 61.6846 125.127 62.2939H123.633C123.604 61.9365 123.478 61.6113 123.255 61.3184C122.892 60.9023 122.262 60.6943 121.365 60.6943C120.768 60.6943 120.313 60.8086 120.003 61.0371C119.698 61.2656 119.546 61.5674 119.546 61.9424C119.546 62.3525 119.748 62.6807 120.152 62.9268C120.387 63.0732 120.732 63.2021 121.189 63.3135L122.235 63.5684C123.372 63.8438 124.134 64.1104 124.521 64.3682C125.136 64.7725 125.443 65.4082 125.443 66.2754C125.443 67.1133 125.124 67.8369 124.485 68.4463C123.853 69.0557 122.886 69.3604 121.585 69.3604C120.185 69.3604 119.191 69.0439 118.605 68.4111C118.025 67.7725 117.715 66.9844 117.674 66.0469H119.194ZM136.236 67.9365C136.975 67.9365 137.587 67.6289 138.073 67.0137C138.565 66.3926 138.812 65.4668 138.812 64.2363C138.812 63.4863 138.703 62.8418 138.486 62.3027C138.076 61.2656 137.326 60.7471 136.236 60.7471C135.141 60.7471 134.391 61.2949 133.986 62.3906C133.77 62.9766 133.661 63.7207 133.661 64.623C133.661 65.3496 133.77 65.9678 133.986 66.4775C134.396 67.4502 135.146 67.9365 136.236 67.9365ZM132.141 59.6309H133.679V60.8789C133.995 60.4512 134.341 60.1201 134.716 59.8857C135.249 59.5342 135.876 59.3584 136.597 59.3584C137.663 59.3584 138.568 59.7686 139.312 60.5889C140.057 61.4033 140.429 62.5693 140.429 64.0869C140.429 66.1377 139.893 67.6025 138.82 68.4814C138.141 69.0381 137.35 69.3164 136.447 69.3164C135.738 69.3164 135.144 69.1611 134.663 68.8506C134.382 68.6748 134.068 68.373 133.723 67.9453V72.7529H132.141V59.6309ZM143.865 59.5869V65.8359C143.865 66.3164 143.941 66.709 144.094 67.0137C144.375 67.5762 144.899 67.8574 145.667 67.8574C146.769 67.8574 147.519 67.3652 147.917 66.3809C148.134 65.8535 148.242 65.1299 148.242 64.21V59.5869H149.824V69H148.33L148.348 67.6113C148.143 67.9688 147.888 68.2705 147.583 68.5166C146.979 69.0088 146.247 69.2549 145.386 69.2549C144.044 69.2549 143.13 68.8066 142.644 67.9102C142.38 67.4297 142.248 66.7881 142.248 65.9854V59.5869H143.865ZM152.347 56.0889H153.929V69H152.347V56.0889ZM157.084 59.5869L159.598 67.251L162.226 59.5869H163.957L160.406 69H158.719L155.247 59.5869H157.084ZM165.311 59.6309H166.919V69H165.311V59.6309ZM165.311 56.0889H166.919V57.8818H165.311V56.0889ZM169.318 59.5869H170.821V60.9229C171.267 60.3721 171.738 59.9766 172.236 59.7363C172.734 59.4961 173.288 59.376 173.897 59.376C175.233 59.376 176.136 59.8418 176.604 60.7734C176.862 61.2832 176.991 62.0127 176.991 62.9619V69H175.383V63.0674C175.383 62.4932 175.298 62.0303 175.128 61.6787C174.847 61.0928 174.337 60.7998 173.599 60.7998C173.224 60.7998 172.916 60.8379 172.676 60.9141C172.242 61.043 171.861 61.3008 171.533 61.6875C171.27 61.998 171.097 62.3203 171.015 62.6543C170.938 62.9824 170.9 63.4541 170.9 64.0693V69H169.318V59.5869ZM180.551 66.4951C180.551 66.9521 180.718 67.3125 181.052 67.5762C181.386 67.8398 181.781 67.9717 182.238 67.9717C182.795 67.9717 183.334 67.8428 183.855 67.585C184.734 67.1572 185.174 66.457 185.174 65.4844V64.21C184.98 64.333 184.731 64.4355 184.427 64.5176C184.122 64.5996 183.823 64.6582 183.53 64.6934L182.572 64.8164C181.998 64.8926 181.567 65.0127 181.28 65.1768C180.794 65.4521 180.551 65.8916 180.551 66.4951ZM184.383 63.2959C184.746 63.249 184.989 63.0967 185.112 62.8389C185.183 62.6982 185.218 62.4961 185.218 62.2324C185.218 61.6934 185.024 61.3037 184.638 61.0635C184.257 60.8174 183.709 60.6943 182.994 60.6943C182.168 60.6943 181.582 60.917 181.236 61.3623C181.043 61.6084 180.917 61.9746 180.858 62.4609H179.382C179.411 61.3008 179.786 60.4951 180.507 60.0439C181.233 59.5869 182.074 59.3584 183.029 59.3584C184.137 59.3584 185.036 59.5693 185.728 59.9912C186.413 60.4131 186.756 61.0693 186.756 61.96V67.3828C186.756 67.5469 186.788 67.6787 186.853 67.7783C186.923 67.8779 187.066 67.9277 187.283 67.9277C187.354 67.9277 187.433 67.9248 187.521 67.9189C187.608 67.9072 187.702 67.8926 187.802 67.875V69.0439C187.556 69.1143 187.368 69.1582 187.239 69.1758C187.11 69.1934 186.935 69.2021 186.712 69.2021C186.167 69.2021 185.771 69.0088 185.525 68.6221C185.396 68.417 185.306 68.127 185.253 67.752C184.931 68.1738 184.468 68.54 183.864 68.8506C183.261 69.1611 182.596 69.3164 181.869 69.3164C180.996 69.3164 180.281 69.0527 179.725 68.5254C179.174 67.9922 178.898 67.3271 178.898 66.5303C178.898 65.6572 179.171 64.9805 179.716 64.5C180.261 64.0195 180.976 63.7236 181.86 63.6123L184.383 63.2959ZM189.401 59.5869H190.904V61.2129C191.027 60.8965 191.329 60.5127 191.81 60.0615C192.29 59.6045 192.844 59.376 193.471 59.376C193.5 59.376 193.55 59.3789 193.62 59.3848C193.69 59.3906 193.811 59.4023 193.98 59.4199V61.0898C193.887 61.0723 193.799 61.0605 193.717 61.0547C193.641 61.0488 193.556 61.0459 193.462 61.0459C192.665 61.0459 192.053 61.3037 191.625 61.8193C191.197 62.3291 190.983 62.918 190.983 63.5859V69H189.401V59.5869ZM200.361 59.6309H201.97V69H200.361V59.6309ZM200.361 56.0889H201.97V57.8818H200.361V56.0889ZM204.369 59.5869H205.872V60.9229C206.317 60.3721 206.789 59.9766 207.287 59.7363C207.785 59.4961 208.339 59.376 208.948 59.376C210.284 59.376 211.187 59.8418 211.655 60.7734C211.913 61.2832 212.042 62.0127 212.042 62.9619V69H210.434V63.0674C210.434 62.4932 210.349 62.0303 210.179 61.6787C209.897 61.0928 209.388 60.7998 208.649 60.7998C208.274 60.7998 207.967 60.8379 207.727 60.9141C207.293 61.043 206.912 61.3008 206.584 61.6875C206.32 61.998 206.147 62.3203 206.065 62.6543C205.989 62.9824 205.951 63.4541 205.951 64.0693V69H204.369V59.5869ZM214.705 56.959H216.305V59.5869H217.808V60.8789H216.305V67.0225C216.305 67.3506 216.416 67.5703 216.639 67.6816C216.762 67.7461 216.967 67.7783 217.254 67.7783C217.33 67.7783 217.412 67.7783 217.5 67.7783C217.588 67.7725 217.69 67.7637 217.808 67.752V69C217.626 69.0527 217.436 69.0908 217.236 69.1143C217.043 69.1377 216.832 69.1494 216.604 69.1494C215.865 69.1494 215.364 68.9619 215.101 68.5869C214.837 68.2061 214.705 67.7139 214.705 67.1104V60.8789H213.431V59.5869H214.705V56.959ZM223.318 59.376C223.986 59.376 224.634 59.5342 225.261 59.8506C225.888 60.1611 226.365 60.5654 226.693 61.0635C227.01 61.5381 227.221 62.0918 227.326 62.7246C227.42 63.1582 227.467 63.8496 227.467 64.7988H220.567C220.597 65.7539 220.822 66.5215 221.244 67.1016C221.666 67.6758 222.319 67.9629 223.204 67.9629C224.03 67.9629 224.689 67.6904 225.182 67.1455C225.463 66.8291 225.662 66.4629 225.779 66.0469H227.335C227.294 66.3926 227.156 66.7793 226.922 67.207C226.693 67.6289 226.436 67.9746 226.148 68.2441C225.668 68.7129 225.073 69.0293 224.364 69.1934C223.983 69.2871 223.553 69.334 223.072 69.334C221.9 69.334 220.907 68.9092 220.093 68.0596C219.278 67.2041 218.871 66.0088 218.871 64.4736C218.871 62.9619 219.281 61.7344 220.102 60.791C220.922 59.8477 221.994 59.376 223.318 59.376ZM225.841 63.542C225.776 62.8564 225.627 62.3086 225.393 61.8984C224.959 61.1367 224.235 60.7559 223.222 60.7559C222.495 60.7559 221.886 61.0195 221.394 61.5469C220.901 62.0684 220.641 62.7334 220.611 63.542H225.841ZM229.462 59.5869H230.965V61.2129C231.088 60.8965 231.39 60.5127 231.87 60.0615C232.351 59.6045 232.904 59.376 233.531 59.376C233.561 59.376 233.61 59.3789 233.681 59.3848C233.751 59.3906 233.871 59.4023 234.041 59.4199V61.0898C233.947 61.0723 233.859 61.0605 233.777 61.0547C233.701 61.0488 233.616 61.0459 233.522 61.0459C232.726 61.0459 232.113 61.3037 231.686 61.8193C231.258 62.3291 231.044 62.918 231.044 63.5859V69H229.462V59.5869ZM236.414 64.4033C236.414 65.4111 236.628 66.2549 237.056 66.9346C237.483 67.6143 238.169 67.9541 239.112 67.9541C239.845 67.9541 240.445 67.6406 240.914 67.0137C241.389 66.3809 241.626 65.4756 241.626 64.2979C241.626 63.1084 241.383 62.2295 240.896 61.6611C240.41 61.0869 239.81 60.7998 239.095 60.7998C238.298 60.7998 237.65 61.1045 237.152 61.7139C236.66 62.3232 236.414 63.2197 236.414 64.4033ZM238.796 59.4199C239.517 59.4199 240.12 59.5723 240.606 59.877C240.888 60.0527 241.207 60.3604 241.564 60.7998V56.0449H243.085V69H241.661V67.6904C241.292 68.2705 240.855 68.6895 240.352 68.9473C239.848 69.2051 239.271 69.334 238.62 69.334C237.571 69.334 236.663 68.8945 235.896 68.0156C235.128 67.1309 234.744 65.9561 234.744 64.4912C234.744 63.1201 235.093 61.9336 235.79 60.9316C236.493 59.9238 237.495 59.4199 238.796 59.4199ZM247.014 59.5869V65.8359C247.014 66.3164 247.09 66.709 247.242 67.0137C247.523 67.5762 248.048 67.8574 248.815 67.8574C249.917 67.8574 250.667 67.3652 251.065 66.3809C251.282 65.8535 251.391 65.1299 251.391 64.21V59.5869H252.973V69H251.479L251.496 67.6113C251.291 67.9688 251.036 68.2705 250.731 68.5166C250.128 69.0088 249.396 69.2549 248.534 69.2549C247.192 69.2549 246.278 68.8066 245.792 67.9102C245.528 67.4297 245.396 66.7881 245.396 65.9854V59.5869H247.014ZM255.451 59.5869H257.016V60.9229C257.391 60.46 257.73 60.123 258.035 59.9121C258.557 59.5547 259.148 59.376 259.811 59.376C260.561 59.376 261.164 59.5605 261.621 59.9297C261.879 60.1406 262.113 60.4512 262.324 60.8613C262.676 60.3574 263.089 59.9854 263.563 59.7451C264.038 59.499 264.571 59.376 265.163 59.376C266.429 59.376 267.29 59.833 267.747 60.7471C267.993 61.2393 268.116 61.9014 268.116 62.7334V69H266.473V62.4609C266.473 61.834 266.314 61.4033 265.998 61.1689C265.688 60.9346 265.307 60.8174 264.855 60.8174C264.234 60.8174 263.698 61.0254 263.247 61.4414C262.802 61.8574 262.579 62.5518 262.579 63.5244V69H260.971V62.8564C260.971 62.2178 260.895 61.752 260.742 61.459C260.502 61.0195 260.054 60.7998 259.397 60.7998C258.8 60.7998 258.255 61.0312 257.763 61.4941C257.276 61.957 257.033 62.7949 257.033 64.0078V69H255.451V59.5869ZM275.455 59.6309H277.063V69H275.455V59.6309ZM275.455 56.0889H277.063V57.8818H275.455V56.0889ZM279.463 59.5869H280.966V60.9229C281.411 60.3721 281.883 59.9766 282.381 59.7363C282.879 59.4961 283.433 59.376 284.042 59.376C285.378 59.376 286.28 59.8418 286.749 60.7734C287.007 61.2832 287.136 62.0127 287.136 62.9619V69H285.527V63.0674C285.527 62.4932 285.442 62.0303 285.272 61.6787C284.991 61.0928 284.481 60.7998 283.743 60.7998C283.368 60.7998 283.061 60.8379 282.82 60.9141C282.387 61.043 282.006 61.3008 281.678 61.6875C281.414 61.998 281.241 62.3203 281.159 62.6543C281.083 62.9824 281.045 63.4541 281.045 64.0693V69H279.463V59.5869ZM294.492 59.6309H296.101V69H294.492V59.6309ZM294.492 56.0889H296.101V57.8818H294.492V56.0889ZM298.5 59.5869H300.064V60.9229C300.439 60.46 300.779 60.123 301.084 59.9121C301.605 59.5547 302.197 59.376 302.859 59.376C303.609 59.376 304.213 59.5605 304.67 59.9297C304.928 60.1406 305.162 60.4512 305.373 60.8613C305.725 60.3574 306.138 59.9854 306.612 59.7451C307.087 59.499 307.62 59.376 308.212 59.376C309.478 59.376 310.339 59.833 310.796 60.7471C311.042 61.2393 311.165 61.9014 311.165 62.7334V69H309.521V62.4609C309.521 61.834 309.363 61.4033 309.047 61.1689C308.736 60.9346 308.355 60.8174 307.904 60.8174C307.283 60.8174 306.747 61.0254 306.296 61.4414C305.851 61.8574 305.628 62.5518 305.628 63.5244V69H304.02V62.8564C304.02 62.2178 303.943 61.752 303.791 61.459C303.551 61.0195 303.103 60.7998 302.446 60.7998C301.849 60.7998 301.304 61.0312 300.812 61.4941C300.325 61.957 300.082 62.7949 300.082 64.0078V69H298.5V59.5869ZM317.467 67.9365C318.205 67.9365 318.817 67.6289 319.304 67.0137C319.796 66.3926 320.042 65.4668 320.042 64.2363C320.042 63.4863 319.934 62.8418 319.717 62.3027C319.307 61.2656 318.557 60.7471 317.467 60.7471C316.371 60.7471 315.621 61.2949 315.217 62.3906C315 62.9766 314.892 63.7207 314.892 64.623C314.892 65.3496 315 65.9678 315.217 66.4775C315.627 67.4502 316.377 67.9365 317.467 67.9365ZM313.371 59.6309H314.909V60.8789C315.226 60.4512 315.571 60.1201 315.946 59.8857C316.479 59.5342 317.106 59.3584 317.827 59.3584C318.894 59.3584 319.799 59.7686 320.543 60.5889C321.287 61.4033 321.659 62.5693 321.659 64.0869C321.659 66.1377 321.123 67.6025 320.051 68.4814C319.371 69.0381 318.58 69.3164 317.678 69.3164C316.969 69.3164 316.374 69.1611 315.894 68.8506C315.612 68.6748 315.299 68.373 314.953 67.9453V72.7529H313.371V59.6309ZM327.434 59.376C328.102 59.376 328.749 59.5342 329.376 59.8506C330.003 60.1611 330.48 60.5654 330.809 61.0635C331.125 61.5381 331.336 62.0918 331.441 62.7246C331.535 63.1582 331.582 63.8496 331.582 64.7988H324.683C324.712 65.7539 324.938 66.5215 325.359 67.1016C325.781 67.6758 326.435 67.9629 327.319 67.9629C328.146 67.9629 328.805 67.6904 329.297 67.1455C329.578 66.8291 329.777 66.4629 329.895 66.0469H331.45C331.409 66.3926 331.271 66.7793 331.037 67.207C330.809 67.6289 330.551 67.9746 330.264 68.2441C329.783 68.7129 329.188 69.0293 328.479 69.1934C328.099 69.2871 327.668 69.334 327.188 69.334C326.016 69.334 325.022 68.9092 324.208 68.0596C323.394 67.2041 322.986 66.0088 322.986 64.4736C322.986 62.9619 323.396 61.7344 324.217 60.791C325.037 59.8477 326.109 59.376 327.434 59.376ZM329.956 63.542C329.892 62.8564 329.742 62.3086 329.508 61.8984C329.074 61.1367 328.351 60.7559 327.337 60.7559C326.61 60.7559 326.001 61.0195 325.509 61.5469C325.017 62.0684 324.756 62.7334 324.727 63.542H329.956ZM333.577 59.5869H335.08V61.2129C335.203 60.8965 335.505 60.5127 335.985 60.0615C336.466 59.6045 337.02 59.376 337.646 59.376C337.676 59.376 337.726 59.3789 337.796 59.3848C337.866 59.3906 337.986 59.4023 338.156 59.4199V61.0898C338.062 61.0723 337.975 61.0605 337.893 61.0547C337.816 61.0488 337.731 61.0459 337.638 61.0459C336.841 61.0459 336.229 61.3037 335.801 61.8193C335.373 62.3291 335.159 62.918 335.159 63.5859V69H333.577V59.5869ZM340.529 64.4033C340.529 65.4111 340.743 66.2549 341.171 66.9346C341.599 67.6143 342.284 67.9541 343.228 67.9541C343.96 67.9541 344.561 67.6406 345.029 67.0137C345.504 66.3809 345.741 65.4756 345.741 64.2979C345.741 63.1084 345.498 62.2295 345.012 61.6611C344.525 61.0869 343.925 60.7998 343.21 60.7998C342.413 60.7998 341.766 61.1045 341.268 61.7139C340.775 62.3232 340.529 63.2197 340.529 64.4033ZM342.911 59.4199C343.632 59.4199 344.235 59.5723 344.722 59.877C345.003 60.0527 345.322 60.3604 345.68 60.7998V56.0449H347.2V69H345.776V67.6904C345.407 68.2705 344.971 68.6895 344.467 68.9473C343.963 69.2051 343.386 69.334 342.735 69.334C341.687 69.334 340.778 68.8945 340.011 68.0156C339.243 67.1309 338.859 65.9561 338.859 64.4912C338.859 63.1201 339.208 61.9336 339.905 60.9316C340.608 59.9238 341.61 59.4199 342.911 59.4199ZM349.547 59.6309H351.155V69H349.547V59.6309ZM349.547 56.0889H351.155V57.8818H349.547V56.0889ZM357.475 59.376C358.143 59.376 358.79 59.5342 359.417 59.8506C360.044 60.1611 360.521 60.5654 360.85 61.0635C361.166 61.5381 361.377 62.0918 361.482 62.7246C361.576 63.1582 361.623 63.8496 361.623 64.7988H354.724C354.753 65.7539 354.979 66.5215 355.4 67.1016C355.822 67.6758 356.476 67.9629 357.36 67.9629C358.187 67.9629 358.846 67.6904 359.338 67.1455C359.619 66.8291 359.818 66.4629 359.936 66.0469H361.491C361.45 66.3926 361.312 66.7793 361.078 67.207C360.85 67.6289 360.592 67.9746 360.305 68.2441C359.824 68.7129 359.229 69.0293 358.521 69.1934C358.14 69.2871 357.709 69.334 357.229 69.334C356.057 69.334 355.063 68.9092 354.249 68.0596C353.435 67.2041 353.027 66.0088 353.027 64.4736C353.027 62.9619 353.438 61.7344 354.258 60.791C355.078 59.8477 356.15 59.376 357.475 59.376ZM359.997 63.542C359.933 62.8564 359.783 62.3086 359.549 61.8984C359.115 61.1367 358.392 60.7559 357.378 60.7559C356.651 60.7559 356.042 61.0195 355.55 61.5469C355.058 62.0684 354.797 62.7334 354.768 63.542H359.997ZM363.891 56.959H365.49V59.5869H366.993V60.8789H365.49V67.0225C365.49 67.3506 365.602 67.5703 365.824 67.6816C365.947 67.7461 366.152 67.7783 366.439 67.7783C366.516 67.7783 366.598 67.7783 366.686 67.7783C366.773 67.7725 366.876 67.7637 366.993 67.752V69C366.812 69.0527 366.621 69.0908 366.422 69.1143C366.229 69.1377 366.018 69.1494 365.789 69.1494C365.051 69.1494 364.55 68.9619 364.286 68.5869C364.022 68.2061 363.891 67.7139 363.891 67.1104V60.8789H362.616V59.5869H363.891V56.959ZM377.566 67.9365C378.305 67.9365 378.917 67.6289 379.403 67.0137C379.896 66.3926 380.142 65.4668 380.142 64.2363C380.142 63.4863 380.033 62.8418 379.816 62.3027C379.406 61.2656 378.656 60.7471 377.566 60.7471C376.471 60.7471 375.721 61.2949 375.316 62.3906C375.1 62.9766 374.991 63.7207 374.991 64.623C374.991 65.3496 375.1 65.9678 375.316 66.4775C375.727 67.4502 376.477 67.9365 377.566 67.9365ZM373.471 59.6309H375.009V60.8789C375.325 60.4512 375.671 60.1201 376.046 59.8857C376.579 59.5342 377.206 59.3584 377.927 59.3584C378.993 59.3584 379.898 59.7686 380.643 60.5889C381.387 61.4033 381.759 62.5693 381.759 64.0869C381.759 66.1377 381.223 67.6025 380.15 68.4814C379.471 69.0381 378.68 69.3164 377.777 69.3164C377.068 69.3164 376.474 69.1611 375.993 68.8506C375.712 68.6748 375.398 68.373 375.053 67.9453V72.7529H373.471V59.6309ZM387.533 59.376C388.201 59.376 388.849 59.5342 389.476 59.8506C390.103 60.1611 390.58 60.5654 390.908 61.0635C391.225 61.5381 391.436 62.0918 391.541 62.7246C391.635 63.1582 391.682 63.8496 391.682 64.7988H384.782C384.812 65.7539 385.037 66.5215 385.459 67.1016C385.881 67.6758 386.534 67.9629 387.419 67.9629C388.245 67.9629 388.904 67.6904 389.396 67.1455C389.678 66.8291 389.877 66.4629 389.994 66.0469H391.55C391.509 66.3926 391.371 66.7793 391.137 67.207C390.908 67.6289 390.65 67.9746 390.363 68.2441C389.883 68.7129 389.288 69.0293 388.579 69.1934C388.198 69.2871 387.768 69.334 387.287 69.334C386.115 69.334 385.122 68.9092 384.308 68.0596C383.493 67.2041 383.086 66.0088 383.086 64.4736C383.086 62.9619 383.496 61.7344 384.316 60.791C385.137 59.8477 386.209 59.376 387.533 59.376ZM390.056 63.542C389.991 62.8564 389.842 62.3086 389.607 61.8984C389.174 61.1367 388.45 60.7559 387.437 60.7559C386.71 60.7559 386.101 61.0195 385.608 61.5469C385.116 62.0684 384.855 62.7334 384.826 63.542H390.056ZM393.677 56.0889H395.259V69H393.677V56.0889ZM397.685 56.0889H399.267V69H397.685V56.0889ZM405.568 59.376C406.236 59.376 406.884 59.5342 407.511 59.8506C408.138 60.1611 408.615 60.5654 408.943 61.0635C409.26 61.5381 409.471 62.0918 409.576 62.7246C409.67 63.1582 409.717 63.8496 409.717 64.7988H402.817C402.847 65.7539 403.072 66.5215 403.494 67.1016C403.916 67.6758 404.569 67.9629 405.454 67.9629C406.28 67.9629 406.939 67.6904 407.432 67.1455C407.713 66.8291 407.912 66.4629 408.029 66.0469H409.585C409.544 66.3926 409.406 66.7793 409.172 67.207C408.943 67.6289 408.686 67.9746 408.398 68.2441C407.918 68.7129 407.323 69.0293 406.614 69.1934C406.233 69.2871 405.803 69.334 405.322 69.334C404.15 69.334 403.157 68.9092 402.343 68.0596C401.528 67.2041 401.121 66.0088 401.121 64.4736C401.121 62.9619 401.531 61.7344 402.352 60.791C403.172 59.8477 404.244 59.376 405.568 59.376ZM408.091 63.542C408.026 62.8564 407.877 62.3086 407.643 61.8984C407.209 61.1367 406.485 60.7559 405.472 60.7559C404.745 60.7559 404.136 61.0195 403.644 61.5469C403.151 62.0684 402.891 62.7334 402.861 63.542H408.091ZM411.668 59.5869H413.171V60.9229C413.616 60.3721 414.088 59.9766 414.586 59.7363C415.084 59.4961 415.638 59.376 416.247 59.376C417.583 59.376 418.485 59.8418 418.954 60.7734C419.212 61.2832 419.341 62.0127 419.341 62.9619V69H417.732V63.0674C417.732 62.4932 417.647 62.0303 417.478 61.6787C417.196 61.0928 416.687 60.7998 415.948 60.7998C415.573 60.7998 415.266 60.8379 415.025 60.9141C414.592 61.043 414.211 61.3008 413.883 61.6875C413.619 61.998 413.446 62.3203 413.364 62.6543C413.288 62.9824 413.25 63.4541 413.25 64.0693V69H411.668V59.5869ZM422.004 56.959H423.604V59.5869H425.106V60.8789H423.604V67.0225C423.604 67.3506 423.715 67.5703 423.938 67.6816C424.061 67.7461 424.266 67.7783 424.553 67.7783C424.629 67.7783 424.711 67.7783 424.799 67.7783C424.887 67.7725 424.989 67.7637 425.106 67.752V69C424.925 69.0527 424.734 69.0908 424.535 69.1143C424.342 69.1377 424.131 69.1494 423.902 69.1494C423.164 69.1494 422.663 68.9619 422.399 68.5869C422.136 68.2061 422.004 67.7139 422.004 67.1104V60.8789H420.729V59.5869H422.004V56.959ZM430.617 59.376C431.285 59.376 431.933 59.5342 432.56 59.8506C433.187 60.1611 433.664 60.5654 433.992 61.0635C434.309 61.5381 434.52 62.0918 434.625 62.7246C434.719 63.1582 434.766 63.8496 434.766 64.7988H427.866C427.896 65.7539 428.121 66.5215 428.543 67.1016C428.965 67.6758 429.618 67.9629 430.503 67.9629C431.329 67.9629 431.988 67.6904 432.48 67.1455C432.762 66.8291 432.961 66.4629 433.078 66.0469H434.634C434.593 66.3926 434.455 66.7793 434.221 67.207C433.992 67.6289 433.734 67.9746 433.447 68.2441C432.967 68.7129 432.372 69.0293 431.663 69.1934C431.282 69.2871 430.852 69.334 430.371 69.334C429.199 69.334 428.206 68.9092 427.392 68.0596C426.577 67.2041 426.17 66.0088 426.17 64.4736C426.17 62.9619 426.58 61.7344 427.4 60.791C428.221 59.8477 429.293 59.376 430.617 59.376ZM433.14 63.542C433.075 62.8564 432.926 62.3086 432.691 61.8984C432.258 61.1367 431.534 60.7559 430.521 60.7559C429.794 60.7559 429.185 61.0195 428.692 61.5469C428.2 62.0684 427.939 62.7334 427.91 63.542H433.14ZM437.657 66.0469C437.704 66.5742 437.836 66.9785 438.053 67.2598C438.451 67.7695 439.143 68.0244 440.127 68.0244C440.713 68.0244 441.229 67.8984 441.674 67.6465C442.119 67.3887 442.342 66.9932 442.342 66.46C442.342 66.0557 442.163 65.748 441.806 65.5371C441.577 65.4082 441.126 65.2588 440.452 65.0889L439.195 64.7725C438.393 64.5732 437.801 64.3506 437.42 64.1045C436.74 63.6768 436.4 63.085 436.4 62.3291C436.4 61.4385 436.72 60.7178 437.358 60.167C438.003 59.6162 438.867 59.3408 439.951 59.3408C441.369 59.3408 442.392 59.7568 443.019 60.5889C443.411 61.1162 443.602 61.6846 443.59 62.2939H442.096C442.066 61.9365 441.94 61.6113 441.718 61.3184C441.354 60.9023 440.725 60.6943 439.828 60.6943C439.23 60.6943 438.776 60.8086 438.466 61.0371C438.161 61.2656 438.009 61.5674 438.009 61.9424C438.009 62.3525 438.211 62.6807 438.615 62.9268C438.85 63.0732 439.195 63.2021 439.652 63.3135L440.698 63.5684C441.835 63.8438 442.597 64.1104 442.983 64.3682C443.599 64.7725 443.906 65.4082 443.906 66.2754C443.906 67.1133 443.587 67.8369 442.948 68.4463C442.315 69.0557 441.349 69.3604 440.048 69.3604C438.647 69.3604 437.654 69.0439 437.068 68.4111C436.488 67.7725 436.178 66.9844 436.137 66.0469H437.657ZM446.736 64.4209C446.736 65.2354 446.851 65.918 447.079 66.4688C447.483 67.4473 448.207 67.9365 449.25 67.9365C450.352 67.9365 451.11 67.4209 451.526 66.3896C451.755 65.8213 451.869 65.0947 451.869 64.21C451.869 63.3955 451.743 62.7158 451.491 62.1709C451.063 61.2393 450.311 60.7734 449.232 60.7734C448.547 60.7734 447.958 61.0723 447.466 61.6699C446.979 62.2617 446.736 63.1787 446.736 64.4209ZM449.074 59.376C449.854 59.376 450.51 59.5723 451.043 59.9648C451.336 60.1758 451.617 60.4863 451.887 60.8965V59.5869H453.39V72.7529H451.799V67.9189C451.535 68.3408 451.169 68.6777 450.7 68.9297C450.237 69.1758 449.657 69.2988 448.96 69.2988C447.958 69.2988 447.062 68.9062 446.271 68.1211C445.479 67.3359 445.084 66.1406 445.084 64.5352C445.084 63.0293 445.453 61.793 446.191 60.8262C446.936 59.8594 447.896 59.376 449.074 59.376ZM457.318 59.5869V65.8359C457.318 66.3164 457.395 66.709 457.547 67.0137C457.828 67.5762 458.353 67.8574 459.12 67.8574C460.222 67.8574 460.972 67.3652 461.37 66.3809C461.587 65.8535 461.695 65.1299 461.695 64.21V59.5869H463.277V69H461.783L461.801 67.6113C461.596 67.9688 461.341 68.2705 461.036 68.5166C460.433 69.0088 459.7 69.2549 458.839 69.2549C457.497 69.2549 456.583 68.8066 456.097 67.9102C455.833 67.4297 455.701 66.7881 455.701 65.9854V59.5869H457.318ZM469.676 59.376C470.344 59.376 470.991 59.5342 471.618 59.8506C472.245 60.1611 472.723 60.5654 473.051 61.0635C473.367 61.5381 473.578 62.0918 473.684 62.7246C473.777 63.1582 473.824 63.8496 473.824 64.7988H466.925C466.954 65.7539 467.18 66.5215 467.602 67.1016C468.023 67.6758 468.677 67.9629 469.562 67.9629C470.388 67.9629 471.047 67.6904 471.539 67.1455C471.82 66.8291 472.02 66.4629 472.137 66.0469H473.692C473.651 66.3926 473.514 66.7793 473.279 67.207C473.051 67.6289 472.793 67.9746 472.506 68.2441C472.025 68.7129 471.431 69.0293 470.722 69.1934C470.341 69.2871 469.91 69.334 469.43 69.334C468.258 69.334 467.265 68.9092 466.45 68.0596C465.636 67.2041 465.229 66.0088 465.229 64.4736C465.229 62.9619 465.639 61.7344 466.459 60.791C467.279 59.8477 468.352 59.376 469.676 59.376ZM472.198 63.542C472.134 62.8564 471.984 62.3086 471.75 61.8984C471.316 61.1367 470.593 60.7559 469.579 60.7559C468.853 60.7559 468.243 61.0195 467.751 61.5469C467.259 62.0684 466.998 62.7334 466.969 63.542H472.198ZM476.153 67.084H477.99V69H476.153V67.084ZM491.648 63.709L489.688 58.0049L487.605 63.709H491.648ZM488.774 56.0889H490.752L495.437 69H493.521L492.211 65.1328H487.104L485.707 69H483.914L488.774 56.0889ZM497.133 56.959H498.732V59.5869H500.235V60.8789H498.732V67.0225C498.732 67.3506 498.844 67.5703 499.066 67.6816C499.189 67.7461 499.395 67.7783 499.682 67.7783C499.758 67.7783 499.84 67.7783 499.928 67.7783C500.016 67.7725 500.118 67.7637 500.235 67.752V69C500.054 69.0527 499.863 69.0908 499.664 69.1143C499.471 69.1377 499.26 69.1494 499.031 69.1494C498.293 69.1494 497.792 68.9619 497.528 68.5869C497.265 68.2061 497.133 67.7139 497.133 67.1104V60.8789H495.858V59.5869H497.133V56.959ZM26.1621 90.4033C26.1621 91.4111 26.376 92.2549 26.8037 92.9346C27.2314 93.6143 27.917 93.9541 28.8604 93.9541C29.5928 93.9541 30.1934 93.6406 30.6621 93.0137C31.1367 92.3809 31.374 91.4756 31.374 90.2979C31.374 89.1084 31.1309 88.2295 30.6445 87.6611C30.1582 87.0869 29.5576 86.7998 28.8428 86.7998C28.0459 86.7998 27.3984 87.1045 26.9004 87.7139C26.4082 88.3232 26.1621 89.2197 26.1621 90.4033ZM28.5439 85.4199C29.2646 85.4199 29.8682 85.5723 30.3545 85.877C30.6357 86.0527 30.9551 86.3604 31.3125 86.7998V82.0449H32.833V95H31.4092V93.6904C31.04 94.2705 30.6035 94.6895 30.0996 94.9473C29.5957 95.2051 29.0186 95.334 28.3682 95.334C27.3193 95.334 26.4111 94.8945 25.6436 94.0156C24.876 93.1309 24.4922 91.9561 24.4922 90.4912C24.4922 89.1201 24.8408 87.9336 25.5381 86.9316C26.2412 85.9238 27.2432 85.4199 28.5439 85.4199ZM36.7617 85.5869V91.8359C36.7617 92.3164 36.8379 92.709 36.9902 93.0137C37.2715 93.5762 37.7959 93.8574 38.5635 93.8574C39.665 93.8574 40.415 93.3652 40.8135 92.3809C41.0303 91.8535 41.1387 91.1299 41.1387 90.21V85.5869H42.7207V95H41.2266L41.2441 93.6113C41.0391 93.9688 40.7842 94.2705 40.4795 94.5166C39.876 95.0088 39.1436 95.2549 38.2822 95.2549C36.9404 95.2549 36.0264 94.8066 35.54 93.9102C35.2764 93.4297 35.1445 92.7881 35.1445 91.9854V85.5869H36.7617ZM45.1992 85.6309H46.8076V95H45.1992V85.6309ZM45.1992 82.0889H46.8076V83.8818H45.1992V82.0889ZM50.1475 92.0469C50.1943 92.5742 50.3262 92.9785 50.543 93.2598C50.9414 93.7695 51.6328 94.0244 52.6172 94.0244C53.2031 94.0244 53.7188 93.8984 54.1641 93.6465C54.6094 93.3887 54.832 92.9932 54.832 92.46C54.832 92.0557 54.6533 91.748 54.2959 91.5371C54.0674 91.4082 53.6162 91.2588 52.9424 91.0889L51.6855 90.7725C50.8828 90.5732 50.291 90.3506 49.9102 90.1045C49.2305 89.6768 48.8906 89.085 48.8906 88.3291C48.8906 87.4385 49.21 86.7178 49.8486 86.167C50.4932 85.6162 51.3574 85.3408 52.4414 85.3408C53.8594 85.3408 54.8818 85.7568 55.5088 86.5889C55.9014 87.1162 56.0918 87.6846 56.0801 88.2939H54.5859C54.5566 87.9365 54.4307 87.6113 54.208 87.3184C53.8447 86.9023 53.2148 86.6943 52.3184 86.6943C51.7207 86.6943 51.2666 86.8086 50.9561 87.0371C50.6514 87.2656 50.499 87.5674 50.499 87.9424C50.499 88.3525 50.7012 88.6807 51.1055 88.9268C51.3398 89.0732 51.6855 89.2021 52.1426 89.3135L53.1885 89.5684C54.3252 89.8438 55.0869 90.1104 55.4736 90.3682C56.0889 90.7725 56.3965 91.4082 56.3965 92.2754C56.3965 93.1133 56.0771 93.8369 55.4385 94.4463C54.8057 95.0557 53.8389 95.3604 52.5381 95.3604C51.1377 95.3604 50.1445 95.0439 49.5586 94.4111C48.9785 93.7725 48.668 92.9844 48.627 92.0469H50.1475ZM64.2188 90.4033C64.2188 91.4111 64.4326 92.2549 64.8604 92.9346C65.2881 93.6143 65.9736 93.9541 66.917 93.9541C67.6494 93.9541 68.25 93.6406 68.7188 93.0137C69.1934 92.3809 69.4307 91.4756 69.4307 90.2979C69.4307 89.1084 69.1875 88.2295 68.7012 87.6611C68.2148 87.0869 67.6143 86.7998 66.8994 86.7998C66.1025 86.7998 65.4551 87.1045 64.957 87.7139C64.4648 88.3232 64.2188 89.2197 64.2188 90.4033ZM66.6006 85.4199C67.3213 85.4199 67.9248 85.5723 68.4111 85.877C68.6924 86.0527 69.0117 86.3604 69.3691 86.7998V82.0449H70.8896V95H69.4658V93.6904C69.0967 94.2705 68.6602 94.6895 68.1562 94.9473C67.6523 95.2051 67.0752 95.334 66.4248 95.334C65.376 95.334 64.4678 94.8945 63.7002 94.0156C62.9326 93.1309 62.5488 91.9561 62.5488 90.4912C62.5488 89.1201 62.8975 87.9336 63.5947 86.9316C64.2979 85.9238 65.2998 85.4199 66.6006 85.4199ZM76.9717 93.9805C78.0205 93.9805 78.7383 93.585 79.125 92.7939C79.5176 91.9971 79.7139 91.1123 79.7139 90.1396C79.7139 89.2607 79.5732 88.5459 79.292 87.9951C78.8467 87.1279 78.0791 86.6943 76.9893 86.6943C76.0225 86.6943 75.3193 87.0635 74.8799 87.8018C74.4404 88.54 74.2207 89.4307 74.2207 90.4736C74.2207 91.4756 74.4404 92.3105 74.8799 92.9785C75.3193 93.6465 76.0166 93.9805 76.9717 93.9805ZM77.0332 85.3145C78.2461 85.3145 79.2715 85.7188 80.1094 86.5273C80.9473 87.3359 81.3662 88.5254 81.3662 90.0957C81.3662 91.6133 80.9971 92.8672 80.2588 93.8574C79.5205 94.8477 78.375 95.3428 76.8223 95.3428C75.5273 95.3428 74.499 94.9062 73.7373 94.0332C72.9756 93.1543 72.5947 91.9766 72.5947 90.5C72.5947 88.918 72.9961 87.6582 73.7988 86.7207C74.6016 85.7832 75.6797 85.3145 77.0332 85.3145ZM83.2998 82.0889H84.8818V95H83.2998V82.0889ZM90.999 93.9805C92.0479 93.9805 92.7656 93.585 93.1523 92.7939C93.5449 91.9971 93.7412 91.1123 93.7412 90.1396C93.7412 89.2607 93.6006 88.5459 93.3193 87.9951C92.874 87.1279 92.1064 86.6943 91.0166 86.6943C90.0498 86.6943 89.3467 87.0635 88.9072 87.8018C88.4678 88.54 88.248 89.4307 88.248 90.4736C88.248 91.4756 88.4678 92.3105 88.9072 92.9785C89.3467 93.6465 90.0439 93.9805 90.999 93.9805ZM91.0605 85.3145C92.2734 85.3145 93.2988 85.7188 94.1367 86.5273C94.9746 87.3359 95.3936 88.5254 95.3936 90.0957C95.3936 91.6133 95.0244 92.8672 94.2861 93.8574C93.5479 94.8477 92.4023 95.3428 90.8496 95.3428C89.5547 95.3428 88.5264 94.9062 87.7646 94.0332C87.0029 93.1543 86.6221 91.9766 86.6221 90.5C86.6221 88.918 87.0234 87.6582 87.8262 86.7207C88.6289 85.7832 89.707 85.3145 91.0605 85.3145ZM97.3271 85.5869H98.8301V87.2129C98.9531 86.8965 99.2549 86.5127 99.7354 86.0615C100.216 85.6045 100.77 85.376 101.396 85.376C101.426 85.376 101.476 85.3789 101.546 85.3848C101.616 85.3906 101.736 85.4023 101.906 85.4199V87.0898C101.812 87.0723 101.725 87.0605 101.643 87.0547C101.566 87.0488 101.481 87.0459 101.388 87.0459C100.591 87.0459 99.9785 87.3037 99.5508 87.8193C99.123 88.3291 98.9092 88.918 98.9092 89.5859V95H97.3271V85.5869ZM108.287 85.5869H109.852V86.9229C110.227 86.46 110.566 86.123 110.871 85.9121C111.393 85.5547 111.984 85.376 112.646 85.376C113.396 85.376 114 85.5605 114.457 85.9297C114.715 86.1406 114.949 86.4512 115.16 86.8613C115.512 86.3574 115.925 85.9854 116.399 85.7451C116.874 85.499 117.407 85.376 117.999 85.376C119.265 85.376 120.126 85.833 120.583 86.7471C120.829 87.2393 120.952 87.9014 120.952 88.7334V95H119.309V88.4609C119.309 87.834 119.15 87.4033 118.834 87.1689C118.523 86.9346 118.143 86.8174 117.691 86.8174C117.07 86.8174 116.534 87.0254 116.083 87.4414C115.638 87.8574 115.415 88.5518 115.415 89.5244V95H113.807V88.8564C113.807 88.2178 113.73 87.752 113.578 87.459C113.338 87.0195 112.89 86.7998 112.233 86.7998C111.636 86.7998 111.091 87.0312 110.599 87.4941C110.112 87.957 109.869 88.7949 109.869 90.0078V95H108.287V85.5869ZM124.494 92.4951C124.494 92.9521 124.661 93.3125 124.995 93.5762C125.329 93.8398 125.725 93.9717 126.182 93.9717C126.738 93.9717 127.277 93.8428 127.799 93.585C128.678 93.1572 129.117 92.457 129.117 91.4844V90.21C128.924 90.333 128.675 90.4355 128.37 90.5176C128.065 90.5996 127.767 90.6582 127.474 90.6934L126.516 90.8164C125.941 90.8926 125.511 91.0127 125.224 91.1768C124.737 91.4521 124.494 91.8916 124.494 92.4951ZM128.326 89.2959C128.689 89.249 128.933 89.0967 129.056 88.8389C129.126 88.6982 129.161 88.4961 129.161 88.2324C129.161 87.6934 128.968 87.3037 128.581 87.0635C128.2 86.8174 127.652 86.6943 126.938 86.6943C126.111 86.6943 125.525 86.917 125.18 87.3623C124.986 87.6084 124.86 87.9746 124.802 88.4609H123.325C123.354 87.3008 123.729 86.4951 124.45 86.0439C125.177 85.5869 126.018 85.3584 126.973 85.3584C128.08 85.3584 128.979 85.5693 129.671 85.9912C130.356 86.4131 130.699 87.0693 130.699 87.96V93.3828C130.699 93.5469 130.731 93.6787 130.796 93.7783C130.866 93.8779 131.01 93.9277 131.227 93.9277C131.297 93.9277 131.376 93.9248 131.464 93.9189C131.552 93.9072 131.646 93.8926 131.745 93.875V95.0439C131.499 95.1143 131.312 95.1582 131.183 95.1758C131.054 95.1934 130.878 95.2021 130.655 95.2021C130.11 95.2021 129.715 95.0088 129.469 94.6221C129.34 94.417 129.249 94.127 129.196 93.752C128.874 94.1738 128.411 94.54 127.808 94.8506C127.204 95.1611 126.539 95.3164 125.812 95.3164C124.939 95.3164 124.225 95.0527 123.668 94.5254C123.117 93.9922 122.842 93.3271 122.842 92.5303C122.842 91.6572 123.114 90.9805 123.659 90.5C124.204 90.0195 124.919 89.7236 125.804 89.6123L128.326 89.2959ZM134.241 92.0469C134.288 92.5742 134.42 92.9785 134.637 93.2598C135.035 93.7695 135.727 94.0244 136.711 94.0244C137.297 94.0244 137.812 93.8984 138.258 93.6465C138.703 93.3887 138.926 92.9932 138.926 92.46C138.926 92.0557 138.747 91.748 138.39 91.5371C138.161 91.4082 137.71 91.2588 137.036 91.0889L135.779 90.7725C134.977 90.5732 134.385 90.3506 134.004 90.1045C133.324 89.6768 132.984 89.085 132.984 88.3291C132.984 87.4385 133.304 86.7178 133.942 86.167C134.587 85.6162 135.451 85.3408 136.535 85.3408C137.953 85.3408 138.976 85.7568 139.603 86.5889C139.995 87.1162 140.186 87.6846 140.174 88.2939H138.68C138.65 87.9365 138.524 87.6113 138.302 87.3184C137.938 86.9023 137.309 86.6943 136.412 86.6943C135.814 86.6943 135.36 86.8086 135.05 87.0371C134.745 87.2656 134.593 87.5674 134.593 87.9424C134.593 88.3525 134.795 88.6807 135.199 88.9268C135.434 89.0732 135.779 89.2021 136.236 89.3135L137.282 89.5684C138.419 89.8438 139.181 90.1104 139.567 90.3682C140.183 90.7725 140.49 91.4082 140.49 92.2754C140.49 93.1133 140.171 93.8369 139.532 94.4463C138.899 95.0557 137.933 95.3604 136.632 95.3604C135.231 95.3604 134.238 95.0439 133.652 94.4111C133.072 93.7725 132.762 92.9844 132.721 92.0469H134.241ZM143.241 92.0469C143.288 92.5742 143.42 92.9785 143.637 93.2598C144.035 93.7695 144.727 94.0244 145.711 94.0244C146.297 94.0244 146.812 93.8984 147.258 93.6465C147.703 93.3887 147.926 92.9932 147.926 92.46C147.926 92.0557 147.747 91.748 147.39 91.5371C147.161 91.4082 146.71 91.2588 146.036 91.0889L144.779 90.7725C143.977 90.5732 143.385 90.3506 143.004 90.1045C142.324 89.6768 141.984 89.085 141.984 88.3291C141.984 87.4385 142.304 86.7178 142.942 86.167C143.587 85.6162 144.451 85.3408 145.535 85.3408C146.953 85.3408 147.976 85.7568 148.603 86.5889C148.995 87.1162 149.186 87.6846 149.174 88.2939H147.68C147.65 87.9365 147.524 87.6113 147.302 87.3184C146.938 86.9023 146.309 86.6943 145.412 86.6943C144.814 86.6943 144.36 86.8086 144.05 87.0371C143.745 87.2656 143.593 87.5674 143.593 87.9424C143.593 88.3525 143.795 88.6807 144.199 88.9268C144.434 89.0732 144.779 89.2021 145.236 89.3135L146.282 89.5684C147.419 89.8438 148.181 90.1104 148.567 90.3682C149.183 90.7725 149.49 91.4082 149.49 92.2754C149.49 93.1133 149.171 93.8369 148.532 94.4463C147.899 95.0557 146.933 95.3604 145.632 95.3604C144.231 95.3604 143.238 95.0439 142.652 94.4111C142.072 93.7725 141.762 92.9844 141.721 92.0469H143.241ZM152.514 92.4951C152.514 92.9521 152.681 93.3125 153.015 93.5762C153.349 93.8398 153.744 93.9717 154.201 93.9717C154.758 93.9717 155.297 93.8428 155.818 93.585C156.697 93.1572 157.137 92.457 157.137 91.4844V90.21C156.943 90.333 156.694 90.4355 156.39 90.5176C156.085 90.5996 155.786 90.6582 155.493 90.6934L154.535 90.8164C153.961 90.8926 153.53 91.0127 153.243 91.1768C152.757 91.4521 152.514 91.8916 152.514 92.4951ZM156.346 89.2959C156.709 89.249 156.952 89.0967 157.075 88.8389C157.146 88.6982 157.181 88.4961 157.181 88.2324C157.181 87.6934 156.987 87.3037 156.601 87.0635C156.22 86.8174 155.672 86.6943 154.957 86.6943C154.131 86.6943 153.545 86.917 153.199 87.3623C153.006 87.6084 152.88 87.9746 152.821 88.4609H151.345C151.374 87.3008 151.749 86.4951 152.47 86.0439C153.196 85.5869 154.037 85.3584 154.992 85.3584C156.1 85.3584 156.999 85.5693 157.69 85.9912C158.376 86.4131 158.719 87.0693 158.719 87.96V93.3828C158.719 93.5469 158.751 93.6787 158.815 93.7783C158.886 93.8779 159.029 93.9277 159.246 93.9277C159.316 93.9277 159.396 93.9248 159.483 93.9189C159.571 93.9072 159.665 93.8926 159.765 93.875V95.0439C159.519 95.1143 159.331 95.1582 159.202 95.1758C159.073 95.1934 158.897 95.2021 158.675 95.2021C158.13 95.2021 157.734 95.0088 157.488 94.6221C157.359 94.417 157.269 94.127 157.216 93.752C156.894 94.1738 156.431 94.54 155.827 94.8506C155.224 95.1611 154.559 95.3164 153.832 95.3164C152.959 95.3164 152.244 95.0527 151.688 94.5254C151.137 93.9922 150.861 93.3271 150.861 92.5303C150.861 91.6572 151.134 90.9805 151.679 90.5C152.224 90.0195 152.938 89.7236 153.823 89.6123L156.346 89.2959ZM170.25 85.376C170.918 85.376 171.565 85.5342 172.192 85.8506C172.819 86.1611 173.297 86.5654 173.625 87.0635C173.941 87.5381 174.152 88.0918 174.258 88.7246C174.352 89.1582 174.398 89.8496 174.398 90.7988H167.499C167.528 91.7539 167.754 92.5215 168.176 93.1016C168.598 93.6758 169.251 93.9629 170.136 93.9629C170.962 93.9629 171.621 93.6904 172.113 93.1455C172.395 92.8291 172.594 92.4629 172.711 92.0469H174.267C174.226 92.3926 174.088 92.7793 173.854 93.207C173.625 93.6289 173.367 93.9746 173.08 94.2441C172.6 94.7129 172.005 95.0293 171.296 95.1934C170.915 95.2871 170.484 95.334 170.004 95.334C168.832 95.334 167.839 94.9092 167.024 94.0596C166.21 93.2041 165.803 92.0088 165.803 90.4736C165.803 88.9619 166.213 87.7344 167.033 86.791C167.854 85.8477 168.926 85.376 170.25 85.376ZM172.772 89.542C172.708 88.8564 172.559 88.3086 172.324 87.8984C171.891 87.1367 171.167 86.7559 170.153 86.7559C169.427 86.7559 168.817 87.0195 168.325 87.5469C167.833 88.0684 167.572 88.7334 167.543 89.542H172.772ZM176.394 82.0889H177.976V95H176.394V82.0889ZM180.357 85.6309H181.966V95H180.357V85.6309ZM180.357 82.0889H181.966V83.8818H180.357V82.0889ZM184.682 82.959H186.281V85.5869H187.784V86.8789H186.281V93.0225C186.281 93.3506 186.393 93.5703 186.615 93.6816C186.738 93.7461 186.943 93.7783 187.23 93.7783C187.307 93.7783 187.389 93.7783 187.477 93.7783C187.564 93.7725 187.667 93.7637 187.784 93.752V95C187.603 95.0527 187.412 95.0908 187.213 95.1143C187.02 95.1377 186.809 95.1494 186.58 95.1494C185.842 95.1494 185.341 94.9619 185.077 94.5869C184.813 94.2061 184.682 93.7139 184.682 93.1104V86.8789H183.407V85.5869H184.682V82.959ZM198.015 85.3145C199.075 85.3145 199.937 85.5723 200.599 86.0879C201.267 86.6035 201.668 87.4912 201.803 88.751H200.265C200.171 88.1709 199.957 87.6904 199.623 87.3096C199.289 86.9229 198.753 86.7295 198.015 86.7295C197.007 86.7295 196.286 87.2217 195.853 88.2061C195.571 88.8447 195.431 89.6328 195.431 90.5703C195.431 91.5137 195.63 92.3076 196.028 92.9521C196.427 93.5967 197.054 93.9189 197.909 93.9189C198.565 93.9189 199.084 93.7197 199.465 93.3213C199.852 92.917 200.118 92.3662 200.265 91.6689H201.803C201.627 92.917 201.188 93.8311 200.484 94.4111C199.781 94.9854 198.882 95.2725 197.786 95.2725C196.556 95.2725 195.574 94.8242 194.842 93.9277C194.109 93.0254 193.743 91.9004 193.743 90.5527C193.743 88.9004 194.145 87.6143 194.947 86.6943C195.75 85.7744 196.772 85.3145 198.015 85.3145ZM207.12 93.9805C208.169 93.9805 208.887 93.585 209.273 92.7939C209.666 91.9971 209.862 91.1123 209.862 90.1396C209.862 89.2607 209.722 88.5459 209.44 87.9951C208.995 87.1279 208.228 86.6943 207.138 86.6943C206.171 86.6943 205.468 87.0635 205.028 87.8018C204.589 88.54 204.369 89.4307 204.369 90.4736C204.369 91.4756 204.589 92.3105 205.028 92.9785C205.468 93.6465 206.165 93.9805 207.12 93.9805ZM207.182 85.3145C208.395 85.3145 209.42 85.7188 210.258 86.5273C211.096 87.3359 211.515 88.5254 211.515 90.0957C211.515 91.6133 211.146 92.8672 210.407 93.8574C209.669 94.8477 208.523 95.3428 206.971 95.3428C205.676 95.3428 204.647 94.9062 203.886 94.0332C203.124 93.1543 202.743 91.9766 202.743 90.5C202.743 88.918 203.145 87.6582 203.947 86.7207C204.75 85.7832 205.828 85.3145 207.182 85.3145ZM213.404 85.5869H214.907V86.9229C215.353 86.3721 215.824 85.9766 216.322 85.7363C216.82 85.4961 217.374 85.376 217.983 85.376C219.319 85.376 220.222 85.8418 220.69 86.7734C220.948 87.2832 221.077 88.0127 221.077 88.9619V95H219.469V89.0674C219.469 88.4932 219.384 88.0303 219.214 87.6787C218.933 87.0928 218.423 86.7998 217.685 86.7998C217.31 86.7998 217.002 86.8379 216.762 86.9141C216.328 87.043 215.947 87.3008 215.619 87.6875C215.355 87.998 215.183 88.3203 215.101 88.6543C215.024 88.9824 214.986 89.4541 214.986 90.0693V95H213.404V85.5869ZM224.364 92.0469C224.411 92.5742 224.543 92.9785 224.76 93.2598C225.158 93.7695 225.85 94.0244 226.834 94.0244C227.42 94.0244 227.936 93.8984 228.381 93.6465C228.826 93.3887 229.049 92.9932 229.049 92.46C229.049 92.0557 228.87 91.748 228.513 91.5371C228.284 91.4082 227.833 91.2588 227.159 91.0889L225.902 90.7725C225.1 90.5732 224.508 90.3506 224.127 90.1045C223.447 89.6768 223.107 89.085 223.107 88.3291C223.107 87.4385 223.427 86.7178 224.065 86.167C224.71 85.6162 225.574 85.3408 226.658 85.3408C228.076 85.3408 229.099 85.7568 229.726 86.5889C230.118 87.1162 230.309 87.6846 230.297 88.2939H228.803C228.773 87.9365 228.647 87.6113 228.425 87.3184C228.062 86.9023 227.432 86.6943 226.535 86.6943C225.938 86.6943 225.483 86.8086 225.173 87.0371C224.868 87.2656 224.716 87.5674 224.716 87.9424C224.716 88.3525 224.918 88.6807 225.322 88.9268C225.557 89.0732 225.902 89.2021 226.359 89.3135L227.405 89.5684C228.542 89.8438 229.304 90.1104 229.69 90.3682C230.306 90.7725 230.613 91.4082 230.613 92.2754C230.613 93.1133 230.294 93.8369 229.655 94.4463C229.022 95.0557 228.056 95.3604 226.755 95.3604C225.354 95.3604 224.361 95.0439 223.775 94.4111C223.195 93.7725 222.885 92.9844 222.844 92.0469H224.364ZM236.344 85.376C237.012 85.376 237.659 85.5342 238.286 85.8506C238.913 86.1611 239.391 86.5654 239.719 87.0635C240.035 87.5381 240.246 88.0918 240.352 88.7246C240.445 89.1582 240.492 89.8496 240.492 90.7988H233.593C233.622 91.7539 233.848 92.5215 234.27 93.1016C234.691 93.6758 235.345 93.9629 236.229 93.9629C237.056 93.9629 237.715 93.6904 238.207 93.1455C238.488 92.8291 238.688 92.4629 238.805 92.0469H240.36C240.319 92.3926 240.182 92.7793 239.947 93.207C239.719 93.6289 239.461 93.9746 239.174 94.2441C238.693 94.7129 238.099 95.0293 237.39 95.1934C237.009 95.2871 236.578 95.334 236.098 95.334C234.926 95.334 233.933 94.9092 233.118 94.0596C232.304 93.2041 231.896 92.0088 231.896 90.4736C231.896 88.9619 232.307 87.7344 233.127 86.791C233.947 85.8477 235.02 85.376 236.344 85.376ZM238.866 89.542C238.802 88.8564 238.652 88.3086 238.418 87.8984C237.984 87.1367 237.261 86.7559 236.247 86.7559C235.521 86.7559 234.911 87.0195 234.419 87.5469C233.927 88.0684 233.666 88.7334 233.637 89.542H238.866ZM243.463 90.4209C243.463 91.2354 243.577 91.918 243.806 92.4688C244.21 93.4473 244.934 93.9365 245.977 93.9365C247.078 93.9365 247.837 93.4209 248.253 92.3896C248.481 91.8213 248.596 91.0947 248.596 90.21C248.596 89.3955 248.47 88.7158 248.218 88.1709C247.79 87.2393 247.037 86.7734 245.959 86.7734C245.273 86.7734 244.685 87.0723 244.192 87.6699C243.706 88.2617 243.463 89.1787 243.463 90.4209ZM245.801 85.376C246.58 85.376 247.236 85.5723 247.77 85.9648C248.062 86.1758 248.344 86.4863 248.613 86.8965V85.5869H250.116V98.7529H248.525V93.9189C248.262 94.3408 247.896 94.6777 247.427 94.9297C246.964 95.1758 246.384 95.2988 245.687 95.2988C244.685 95.2988 243.788 94.9062 242.997 94.1211C242.206 93.3359 241.811 92.1406 241.811 90.5352C241.811 89.0293 242.18 87.793 242.918 86.8262C243.662 85.8594 244.623 85.376 245.801 85.376ZM254.045 85.5869V91.8359C254.045 92.3164 254.121 92.709 254.273 93.0137C254.555 93.5762 255.079 93.8574 255.847 93.8574C256.948 93.8574 257.698 93.3652 258.097 92.3809C258.313 91.8535 258.422 91.1299 258.422 90.21V85.5869H260.004V95H258.51L258.527 93.6113C258.322 93.9688 258.067 94.2705 257.763 94.5166C257.159 95.0088 256.427 95.2549 255.565 95.2549C254.224 95.2549 253.31 94.8066 252.823 93.9102C252.56 93.4297 252.428 92.7881 252.428 91.9854V85.5869H254.045ZM263.695 92.4951C263.695 92.9521 263.862 93.3125 264.196 93.5762C264.53 93.8398 264.926 93.9717 265.383 93.9717C265.939 93.9717 266.479 93.8428 267 93.585C267.879 93.1572 268.318 92.457 268.318 91.4844V90.21C268.125 90.333 267.876 90.4355 267.571 90.5176C267.267 90.5996 266.968 90.6582 266.675 90.6934L265.717 90.8164C265.143 90.8926 264.712 91.0127 264.425 91.1768C263.938 91.4521 263.695 91.8916 263.695 92.4951ZM267.527 89.2959C267.891 89.249 268.134 89.0967 268.257 88.8389C268.327 88.6982 268.362 88.4961 268.362 88.2324C268.362 87.6934 268.169 87.3037 267.782 87.0635C267.401 86.8174 266.854 86.6943 266.139 86.6943C265.312 86.6943 264.727 86.917 264.381 87.3623C264.188 87.6084 264.062 87.9746 264.003 88.4609H262.526C262.556 87.3008 262.931 86.4951 263.651 86.0439C264.378 85.5869 265.219 85.3584 266.174 85.3584C267.281 85.3584 268.181 85.5693 268.872 85.9912C269.558 86.4131 269.9 87.0693 269.9 87.96V93.3828C269.9 93.5469 269.933 93.6787 269.997 93.7783C270.067 93.8779 270.211 93.9277 270.428 93.9277C270.498 93.9277 270.577 93.9248 270.665 93.9189C270.753 93.9072 270.847 93.8926 270.946 93.875V95.0439C270.7 95.1143 270.513 95.1582 270.384 95.1758C270.255 95.1934 270.079 95.2021 269.856 95.2021C269.312 95.2021 268.916 95.0088 268.67 94.6221C268.541 94.417 268.45 94.127 268.397 93.752C268.075 94.1738 267.612 94.54 267.009 94.8506C266.405 95.1611 265.74 95.3164 265.014 95.3164C264.141 95.3164 263.426 95.0527 262.869 94.5254C262.318 93.9922 262.043 93.3271 262.043 92.5303C262.043 91.6572 262.315 90.9805 262.86 90.5C263.405 90.0195 264.12 89.7236 265.005 89.6123L267.527 89.2959ZM272.818 82.959H274.418V85.5869H275.921V86.8789H274.418V93.0225C274.418 93.3506 274.529 93.5703 274.752 93.6816C274.875 93.7461 275.08 93.7783 275.367 93.7783C275.443 93.7783 275.525 93.7783 275.613 93.7783C275.701 93.7725 275.804 93.7637 275.921 93.752V95C275.739 95.0527 275.549 95.0908 275.35 95.1143C275.156 95.1377 274.945 95.1494 274.717 95.1494C273.979 95.1494 273.478 94.9619 273.214 94.5869C272.95 94.2061 272.818 93.7139 272.818 93.1104V86.8789H271.544V85.5869H272.818V82.959Z" fill="#4F4F4F"/>
<path d="M27.017 136H24.3807L28.3977 124.364H31.5682L35.5795 136H32.9432L30.0284 127.023H29.9375L27.017 136ZM26.8523 131.426H33.0795V133.347H26.8523V131.426ZM39.3551 124.364V136H36.9347V124.364H39.3551ZM45.2713 136.17C44.3736 136.17 43.6009 135.989 42.9531 135.625C42.3092 135.258 41.813 134.739 41.4645 134.068C41.116 133.394 40.9418 132.597 40.9418 131.676C40.9418 130.778 41.116 129.991 41.4645 129.312C41.813 128.634 42.3035 128.106 42.9361 127.727C43.5724 127.348 44.3187 127.159 45.1747 127.159C45.7505 127.159 46.2865 127.252 46.7827 127.438C47.2827 127.619 47.7183 127.894 48.0895 128.261C48.4645 128.629 48.7562 129.091 48.9645 129.648C49.1728 130.201 49.277 130.848 49.277 131.591V132.256H41.9077V130.756H46.9986C46.9986 130.407 46.9228 130.098 46.7713 129.83C46.6198 129.561 46.4096 129.35 46.1406 129.199C45.8755 129.044 45.5668 128.966 45.2145 128.966C44.8471 128.966 44.5213 129.051 44.2372 129.222C43.9569 129.388 43.7372 129.614 43.5781 129.898C43.419 130.178 43.3376 130.491 43.3338 130.835V132.261C43.3338 132.693 43.4134 133.066 43.5724 133.381C43.7353 133.695 43.9645 133.938 44.2599 134.108C44.5554 134.278 44.9058 134.364 45.3111 134.364C45.58 134.364 45.8262 134.326 46.0497 134.25C46.2732 134.174 46.4645 134.061 46.6236 133.909C46.7827 133.758 46.9039 133.572 46.9872 133.352L49.2259 133.5C49.1122 134.038 48.8793 134.508 48.527 134.909C48.1785 135.307 47.7277 135.617 47.1747 135.841C46.6255 136.061 45.991 136.17 45.2713 136.17ZM53.277 130.955V136H50.8565V127.273H53.1634V128.812H53.2656C53.4588 128.305 53.7827 127.903 54.2372 127.608C54.6918 127.309 55.2429 127.159 55.8906 127.159C56.4967 127.159 57.0251 127.292 57.4759 127.557C57.9266 127.822 58.277 128.201 58.527 128.693C58.777 129.182 58.902 129.765 58.902 130.443V136H56.4815V130.875C56.4853 130.341 56.349 129.924 56.0724 129.625C55.7959 129.322 55.4152 129.17 54.9304 129.17C54.6046 129.17 54.3168 129.241 54.0668 129.381C53.8205 129.521 53.6274 129.725 53.4872 129.994C53.3509 130.259 53.2808 130.58 53.277 130.955ZM64.5582 136V124.364H69.2173C70.0734 124.364 70.7874 124.491 71.3594 124.744C71.9313 124.998 72.3613 125.35 72.6491 125.801C72.937 126.248 73.081 126.763 73.081 127.347C73.081 127.801 72.9901 128.201 72.8082 128.545C72.6264 128.886 72.3764 129.167 72.0582 129.386C71.7438 129.602 71.384 129.756 70.9787 129.847V129.96C71.4219 129.979 71.8366 130.104 72.223 130.335C72.6132 130.566 72.9295 130.89 73.1719 131.307C73.4143 131.72 73.5355 132.212 73.5355 132.784C73.5355 133.402 73.3821 133.953 73.0753 134.438C72.7723 134.919 72.3234 135.299 71.7287 135.58C71.134 135.86 70.401 136 69.5298 136H64.5582ZM67.0185 133.989H69.0241C69.7098 133.989 70.2098 133.858 70.5241 133.597C70.8385 133.331 70.9957 132.979 70.9957 132.54C70.9957 132.218 70.9181 131.934 70.7628 131.688C70.6075 131.441 70.3859 131.248 70.098 131.108C69.8139 130.968 69.4749 130.898 69.081 130.898H67.0185V133.989ZM67.0185 129.233H68.8423C69.1795 129.233 69.4787 129.174 69.7401 129.057C70.0052 128.936 70.2135 128.765 70.3651 128.545C70.5204 128.326 70.598 128.062 70.598 127.756C70.598 127.335 70.4484 126.996 70.1491 126.739C69.8537 126.481 69.4332 126.352 68.8878 126.352H67.0185V129.233ZM77.5795 136.165C77.0227 136.165 76.5265 136.068 76.0909 135.875C75.6553 135.678 75.3106 135.388 75.0568 135.006C74.8068 134.619 74.6818 134.138 74.6818 133.562C74.6818 133.078 74.7708 132.67 74.9489 132.341C75.1269 132.011 75.3693 131.746 75.6761 131.545C75.983 131.345 76.3314 131.193 76.7216 131.091C77.1155 130.989 77.5284 130.917 77.9602 130.875C78.4678 130.822 78.8769 130.773 79.1875 130.727C79.4981 130.678 79.7235 130.606 79.8636 130.511C80.0038 130.417 80.0739 130.277 80.0739 130.091V130.057C80.0739 129.697 79.9602 129.419 79.733 129.222C79.5095 129.025 79.1913 128.926 78.7784 128.926C78.3428 128.926 77.9962 129.023 77.7386 129.216C77.4811 129.405 77.3106 129.644 77.2273 129.932L74.9886 129.75C75.1023 129.22 75.3258 128.761 75.6591 128.375C75.9924 127.985 76.4223 127.686 76.9489 127.477C77.4792 127.265 78.0928 127.159 78.7898 127.159C79.2746 127.159 79.7386 127.216 80.1818 127.33C80.6288 127.443 81.0246 127.619 81.3693 127.858C81.7178 128.097 81.9924 128.403 82.1932 128.778C82.3939 129.15 82.4943 129.595 82.4943 130.114V136H80.1989V134.79H80.1307C79.9905 135.062 79.803 135.303 79.5682 135.511C79.3333 135.716 79.0511 135.877 78.7216 135.994C78.392 136.108 78.0114 136.165 77.5795 136.165ZM78.2727 134.494C78.6288 134.494 78.9432 134.424 79.2159 134.284C79.4886 134.14 79.7027 133.947 79.858 133.705C80.0133 133.462 80.0909 133.187 80.0909 132.881V131.955C80.0152 132.004 79.911 132.049 79.7784 132.091C79.6496 132.129 79.5038 132.165 79.3409 132.199C79.178 132.229 79.0152 132.258 78.8523 132.284C78.6894 132.307 78.5417 132.328 78.4091 132.347C78.125 132.388 77.8769 132.455 77.6648 132.545C77.4527 132.636 77.2879 132.759 77.1705 132.915C77.053 133.066 76.9943 133.256 76.9943 133.483C76.9943 133.812 77.1136 134.064 77.3523 134.239C77.5947 134.409 77.9015 134.494 78.2727 134.494ZM84.3722 136V127.273H86.7188V128.795H86.8097C86.9688 128.254 87.2358 127.845 87.6108 127.568C87.9858 127.288 88.4176 127.148 88.9062 127.148C89.0275 127.148 89.1581 127.155 89.2983 127.17C89.4384 127.186 89.5616 127.206 89.6676 127.233V129.381C89.554 129.347 89.3968 129.316 89.196 129.29C88.9953 129.263 88.8116 129.25 88.6449 129.25C88.2888 129.25 87.9706 129.328 87.6903 129.483C87.4138 129.634 87.1941 129.847 87.0312 130.119C86.8722 130.392 86.7926 130.706 86.7926 131.062V136H84.3722ZM94.4446 139.455C93.6605 139.455 92.9882 139.347 92.4276 139.131C91.8707 138.919 91.4276 138.629 91.098 138.261C90.7685 137.894 90.5545 137.481 90.456 137.023L92.6946 136.722C92.7628 136.896 92.8707 137.059 93.0185 137.21C93.1662 137.362 93.3613 137.483 93.6037 137.574C93.8499 137.669 94.1491 137.716 94.5014 137.716C95.0279 137.716 95.4616 137.587 95.8026 137.33C96.1473 137.076 96.3196 136.65 96.3196 136.051V134.455H96.2173C96.1113 134.697 95.9522 134.926 95.7401 135.142C95.5279 135.358 95.2552 135.534 94.9219 135.67C94.5885 135.807 94.1908 135.875 93.7287 135.875C93.0734 135.875 92.4768 135.723 91.9389 135.42C91.4048 135.114 90.9787 134.646 90.6605 134.017C90.3461 133.384 90.1889 132.585 90.1889 131.619C90.1889 130.631 90.3499 129.805 90.6719 129.142C90.9938 128.479 91.4219 127.983 91.956 127.653C92.4938 127.324 93.0829 127.159 93.723 127.159C94.2116 127.159 94.6207 127.242 94.9503 127.409C95.2798 127.572 95.545 127.777 95.7457 128.023C95.9503 128.265 96.1075 128.504 96.2173 128.739H96.3082V127.273H98.7116V136.085C98.7116 136.828 98.5298 137.449 98.1662 137.949C97.8026 138.449 97.2988 138.824 96.6548 139.074C96.0147 139.328 95.2779 139.455 94.4446 139.455ZM94.4957 134.057C94.8859 134.057 95.2154 133.96 95.4844 133.767C95.7571 133.57 95.9654 133.29 96.1094 132.926C96.2571 132.559 96.331 132.119 96.331 131.608C96.331 131.097 96.259 130.653 96.1151 130.278C95.9711 129.9 95.7628 129.606 95.4901 129.398C95.2173 129.189 94.8859 129.085 94.4957 129.085C94.098 129.085 93.7628 129.193 93.4901 129.409C93.2173 129.621 93.0109 129.917 92.8707 130.295C92.7306 130.674 92.6605 131.112 92.6605 131.608C92.6605 132.112 92.7306 132.547 92.8707 132.915C93.0147 133.278 93.2211 133.561 93.4901 133.761C93.7628 133.958 94.098 134.057 94.4957 134.057Z" fill="#4F4F4F"/>
</svg>
