<svg width="376" height="104" viewBox="0 0 376 104" fill="none" xmlns="http://www.w3.org/2000/svg">
<g clip-path="url(#clip0_443_13767)">
<rect width="82.72" height="88" fill="#C4C4C4"/>
<rect width="82.72" height="88"/>
<rect width="82.72" height="88"/>
<rect width="82.72" height="88"/>
<path d="M98.4785 12.3359C98.4785 10.3255 99.0176 8.77604 100.096 7.6875C101.033 6.73958 102.226 6.26562 103.674 6.26562C105.611 6.26562 107.028 6.90104 107.924 8.17188C108.419 8.88542 108.684 9.60156 108.721 10.3203H106.314C106.158 9.76823 105.958 9.35156 105.713 9.07031C105.275 8.57031 104.627 8.32031 103.768 8.32031C102.893 8.32031 102.202 8.67448 101.697 9.38281C101.192 10.0859 100.939 11.0833 100.939 12.375C100.939 13.6667 101.205 14.6354 101.736 15.2812C102.273 15.9219 102.952 16.2422 103.775 16.2422C104.619 16.2422 105.262 15.9661 105.705 15.4141C105.95 15.1172 106.153 14.6719 106.314 14.0781H108.697C108.489 15.3333 107.955 16.3542 107.096 17.1406C106.242 17.9271 105.145 18.3203 103.807 18.3203C102.15 18.3203 100.848 17.7891 99.9004 16.7266C98.9525 15.6589 98.4785 14.1953 98.4785 12.3359ZM115.057 9.26562C115.583 9.26562 116.059 9.35677 116.486 9.53906C116.919 9.72135 117.273 10 117.549 10.375C117.783 10.6927 117.926 11.0208 117.979 11.3594C118.031 11.6927 118.057 12.2396 118.057 13V18H115.783V12.8203C115.783 12.362 115.705 11.9922 115.549 11.7109C115.346 11.3151 114.96 11.1172 114.393 11.1172C113.804 11.1172 113.356 11.3151 113.049 11.7109C112.747 12.1016 112.596 12.6615 112.596 13.3906V18H110.377V6.52344H112.596V10.5938C112.919 10.099 113.291 9.75521 113.713 9.5625C114.14 9.36458 114.588 9.26562 115.057 9.26562ZM122.432 8.46875H120.174V6.41406H122.432V8.46875ZM120.174 9.48438H122.432V18H120.174V9.48438ZM129.682 12.5391C129.64 12.2214 129.533 11.9349 129.361 11.6797C129.111 11.3359 128.723 11.1641 128.197 11.1641C127.447 11.1641 126.934 11.5365 126.658 12.2812C126.512 12.6771 126.439 13.2031 126.439 13.8594C126.439 14.4844 126.512 14.987 126.658 15.3672C126.924 16.0755 127.424 16.4297 128.158 16.4297C128.679 16.4297 129.049 16.2891 129.268 16.0078C129.486 15.7266 129.619 15.362 129.666 14.9141H131.939C131.887 15.5911 131.643 16.2318 131.205 16.8359C130.507 17.8099 129.473 18.2969 128.104 18.2969C126.734 18.2969 125.726 17.8906 125.08 17.0781C124.434 16.2656 124.111 15.2109 124.111 13.9141C124.111 12.4505 124.468 11.3125 125.182 10.5C125.895 9.6875 126.88 9.28125 128.135 9.28125C129.202 9.28125 130.075 9.52083 130.752 10C131.434 10.4792 131.838 11.3255 131.963 12.5391H129.682ZM133.479 6.52344H135.666V12.7266L138.439 9.52344H141.197L138.221 12.7812L141.314 18H138.627L136.588 14.3594L135.666 15.3203V18H133.479V6.52344ZM145.768 11.0938C145.252 11.0938 144.851 11.2552 144.564 11.5781C144.283 11.901 144.106 12.3385 144.033 12.8906H147.494C147.458 12.3021 147.278 11.8568 146.955 11.5547C146.637 11.2474 146.242 11.0938 145.768 11.0938ZM145.768 9.25781C146.476 9.25781 147.114 9.39062 147.682 9.65625C148.249 9.92188 148.718 10.3411 149.088 10.9141C149.421 11.4193 149.637 12.0052 149.736 12.6719C149.794 13.0625 149.817 13.625 149.807 14.3594H143.979C144.01 15.2135 144.278 15.8125 144.783 16.1562C145.09 16.3698 145.46 16.4766 145.893 16.4766C146.351 16.4766 146.723 16.3464 147.01 16.0859C147.166 15.9453 147.304 15.75 147.424 15.5H149.697C149.64 16.0052 149.377 16.5182 148.908 17.0391C148.179 17.8672 147.158 18.2812 145.846 18.2812C144.762 18.2812 143.807 17.9323 142.979 17.2344C142.15 16.5365 141.736 15.401 141.736 13.8281C141.736 12.3542 142.109 11.224 142.854 10.4375C143.604 9.65104 144.575 9.25781 145.768 9.25781ZM156.033 9.28125C156.913 9.28125 157.632 9.51302 158.189 9.97656C158.752 10.4349 159.033 11.1979 159.033 12.2656V18H156.752V12.8203C156.752 12.3724 156.692 12.0286 156.572 11.7891C156.354 11.3516 155.937 11.1328 155.322 11.1328C154.567 11.1328 154.049 11.4531 153.768 12.0938C153.622 12.4323 153.549 12.8646 153.549 13.3906V18H151.33V9.5H153.479V10.7422C153.765 10.3047 154.036 9.98958 154.291 9.79688C154.749 9.45312 155.33 9.28125 156.033 9.28125ZM174.096 6.48438V8.52344H170.65V18H168.229V8.52344H164.768V6.48438H174.096ZM177.338 8.46875H175.08V6.41406H177.338V8.46875ZM175.08 9.48438H177.338V18H175.08V9.48438ZM179.479 6.52344H181.666V12.7266L184.439 9.52344H187.197L184.221 12.7812L187.314 18H184.627L182.588 14.3594L181.666 15.3203V18H179.479V6.52344ZM188.385 6.52344H190.572V12.7266L193.346 9.52344H196.104L193.127 12.7812L196.221 18H193.533L191.494 14.3594L190.572 15.3203V18H188.385V6.52344ZM202.01 13.8594C201.869 13.9479 201.726 14.0208 201.58 14.0781C201.439 14.1302 201.244 14.1797 200.994 14.2266L200.494 14.3203C200.025 14.4036 199.689 14.5052 199.486 14.625C199.143 14.8281 198.971 15.1432 198.971 15.5703C198.971 15.9505 199.075 16.2266 199.283 16.3984C199.497 16.5651 199.755 16.6484 200.057 16.6484C200.536 16.6484 200.976 16.5078 201.377 16.2266C201.783 15.9453 201.994 15.4323 202.01 14.6875V13.8594ZM200.658 12.8203C201.07 12.7682 201.364 12.7031 201.541 12.625C201.859 12.4896 202.018 12.2786 202.018 11.9922C202.018 11.6432 201.895 11.4036 201.65 11.2734C201.411 11.138 201.057 11.0703 200.588 11.0703C200.062 11.0703 199.689 11.2005 199.471 11.4609C199.314 11.6536 199.21 11.9141 199.158 12.2422H197.01C197.057 11.4974 197.265 10.8854 197.635 10.4062C198.223 9.65625 199.234 9.28125 200.666 9.28125C201.598 9.28125 202.426 9.46615 203.15 9.83594C203.874 10.2057 204.236 10.9036 204.236 11.9297V15.8359C204.236 16.1068 204.242 16.4349 204.252 16.8203C204.268 17.112 204.312 17.3099 204.385 17.4141C204.458 17.5182 204.567 17.6042 204.713 17.6719V18H202.291C202.223 17.8281 202.176 17.6667 202.15 17.5156C202.124 17.3646 202.104 17.1927 202.088 17C201.781 17.3333 201.426 17.6172 201.025 17.8516C200.546 18.1276 200.005 18.2656 199.4 18.2656C198.63 18.2656 197.992 18.0469 197.486 17.6094C196.986 17.1667 196.736 16.5417 196.736 15.7344C196.736 14.6875 197.14 13.9297 197.947 13.4609C198.39 13.2057 199.041 13.0234 199.9 12.9141L200.658 12.8203ZM210.893 6.48438H213.26V11.2266L217.705 6.48438H220.814L216.096 11.2266L221.057 18H217.963L214.408 12.9688L213.26 14.1484V18H210.893V6.48438ZM226.932 13.8594C226.791 13.9479 226.648 14.0208 226.502 14.0781C226.361 14.1302 226.166 14.1797 225.916 14.2266L225.416 14.3203C224.947 14.4036 224.611 14.5052 224.408 14.625C224.064 14.8281 223.893 15.1432 223.893 15.5703C223.893 15.9505 223.997 16.2266 224.205 16.3984C224.419 16.5651 224.676 16.6484 224.979 16.6484C225.458 16.6484 225.898 16.5078 226.299 16.2266C226.705 15.9453 226.916 15.4323 226.932 14.6875V13.8594ZM225.58 12.8203C225.992 12.7682 226.286 12.7031 226.463 12.625C226.781 12.4896 226.939 12.2786 226.939 11.9922C226.939 11.6432 226.817 11.4036 226.572 11.2734C226.333 11.138 225.979 11.0703 225.51 11.0703C224.984 11.0703 224.611 11.2005 224.393 11.4609C224.236 11.6536 224.132 11.9141 224.08 12.2422H221.932C221.979 11.4974 222.187 10.8854 222.557 10.4062C223.145 9.65625 224.156 9.28125 225.588 9.28125C226.52 9.28125 227.348 9.46615 228.072 9.83594C228.796 10.2057 229.158 10.9036 229.158 11.9297V15.8359C229.158 16.1068 229.163 16.4349 229.174 16.8203C229.189 17.112 229.234 17.3099 229.307 17.4141C229.38 17.5182 229.489 17.6042 229.635 17.6719V18H227.213C227.145 17.8281 227.098 17.6667 227.072 17.5156C227.046 17.3646 227.025 17.1927 227.01 17C226.702 17.3333 226.348 17.6172 225.947 17.8516C225.468 18.1276 224.926 18.2656 224.322 18.2656C223.551 18.2656 222.913 18.0469 222.408 17.6094C221.908 17.1667 221.658 16.5417 221.658 15.7344C221.658 14.6875 222.062 13.9297 222.869 13.4609C223.312 13.2057 223.963 13.0234 224.822 12.9141L225.58 12.8203ZM235.744 9.29688C236.864 9.29688 237.739 9.70052 238.369 10.5078C239.005 11.3151 239.322 12.3568 239.322 13.6328C239.322 14.9557 239.01 16.0521 238.385 16.9219C237.76 17.7917 236.887 18.2266 235.768 18.2266C235.064 18.2266 234.499 18.0859 234.072 17.8047C233.817 17.638 233.541 17.3464 233.244 16.9297V18H231.064V6.5H233.283V10.5938C233.564 10.1979 233.874 9.89583 234.213 9.6875C234.614 9.42708 235.124 9.29688 235.744 9.29688ZM235.174 16.3906C235.747 16.3906 236.192 16.1589 236.51 15.6953C236.827 15.2318 236.986 14.6224 236.986 13.8672C236.986 13.263 236.908 12.763 236.752 12.3672C236.455 11.6172 235.908 11.2422 235.111 11.2422C234.304 11.2422 233.749 11.6094 233.447 12.3438C233.291 12.7344 233.213 13.2396 233.213 13.8594C233.213 14.5885 233.374 15.1927 233.697 15.6719C234.02 16.151 234.512 16.3906 235.174 16.3906ZM245.619 13.8594C245.479 13.9479 245.335 14.0208 245.189 14.0781C245.049 14.1302 244.854 14.1797 244.604 14.2266L244.104 14.3203C243.635 14.4036 243.299 14.5052 243.096 14.625C242.752 14.8281 242.58 15.1432 242.58 15.5703C242.58 15.9505 242.684 16.2266 242.893 16.3984C243.106 16.5651 243.364 16.6484 243.666 16.6484C244.145 16.6484 244.585 16.5078 244.986 16.2266C245.393 15.9453 245.604 15.4323 245.619 14.6875V13.8594ZM244.268 12.8203C244.679 12.7682 244.973 12.7031 245.15 12.625C245.468 12.4896 245.627 12.2786 245.627 11.9922C245.627 11.6432 245.505 11.4036 245.26 11.2734C245.02 11.138 244.666 11.0703 244.197 11.0703C243.671 11.0703 243.299 11.2005 243.08 11.4609C242.924 11.6536 242.82 11.9141 242.768 12.2422H240.619C240.666 11.4974 240.874 10.8854 241.244 10.4062C241.833 9.65625 242.843 9.28125 244.275 9.28125C245.208 9.28125 246.036 9.46615 246.76 9.83594C247.484 10.2057 247.846 10.9036 247.846 11.9297V15.8359C247.846 16.1068 247.851 16.4349 247.861 16.8203C247.877 17.112 247.921 17.3099 247.994 17.4141C248.067 17.5182 248.176 17.6042 248.322 17.6719V18H245.9C245.833 17.8281 245.786 17.6667 245.76 17.5156C245.734 17.3646 245.713 17.1927 245.697 17C245.39 17.3333 245.036 17.6172 244.635 17.8516C244.156 18.1276 243.614 18.2656 243.01 18.2656C242.239 18.2656 241.601 18.0469 241.096 17.6094C240.596 17.1667 240.346 16.5417 240.346 15.7344C240.346 14.6875 240.749 13.9297 241.557 13.4609C241.999 13.2057 242.65 13.0234 243.51 12.9141L244.268 12.8203ZM254.432 9.29688C255.551 9.29688 256.426 9.70052 257.057 10.5078C257.692 11.3151 258.01 12.3568 258.01 13.6328C258.01 14.9557 257.697 16.0521 257.072 16.9219C256.447 17.7917 255.575 18.2266 254.455 18.2266C253.752 18.2266 253.187 18.0859 252.76 17.8047C252.505 17.638 252.229 17.3464 251.932 16.9297V18H249.752V6.5H251.971V10.5938C252.252 10.1979 252.562 9.89583 252.9 9.6875C253.301 9.42708 253.812 9.29688 254.432 9.29688ZM253.861 16.3906C254.434 16.3906 254.88 16.1589 255.197 15.6953C255.515 15.2318 255.674 14.6224 255.674 13.8672C255.674 13.263 255.596 12.763 255.439 12.3672C255.143 11.6172 254.596 11.2422 253.799 11.2422C252.992 11.2422 252.437 11.6094 252.135 12.3438C251.979 12.7344 251.9 13.2396 251.9 13.8594C251.9 14.5885 252.062 15.1927 252.385 15.6719C252.708 16.151 253.2 16.3906 253.861 16.3906Z" fill="#333333"/>
<path d="M99.0996 40.9153V39.9719C99.9883 39.8853 100.608 39.7418 100.959 39.5413C101.31 39.3362 101.572 38.8554 101.745 38.0989H102.716V47.8469H101.403V40.9153H99.0996ZM107.282 45.3518C107.364 46.0536 107.69 46.539 108.26 46.8079C108.551 46.9446 108.889 47.0129 109.271 47.0129C110.001 47.0129 110.541 46.7805 110.892 46.3157C111.243 45.8508 111.418 45.3359 111.418 44.7708C111.418 44.0872 111.208 43.5585 110.789 43.1848C110.374 42.8111 109.875 42.6243 109.292 42.6243C108.868 42.6243 108.504 42.7063 108.198 42.8704C107.897 43.0344 107.64 43.2623 107.426 43.554L106.359 43.4924L107.104 38.2219H112.19V39.4114H108.027L107.61 42.1321C107.838 41.9589 108.055 41.829 108.26 41.7424C108.624 41.592 109.046 41.5168 109.524 41.5168C110.422 41.5168 111.183 41.8062 111.808 42.385C112.432 42.9638 112.744 43.6975 112.744 44.5862C112.744 45.5113 112.457 46.3271 111.883 47.0334C111.313 47.7398 110.402 48.093 109.148 48.093C108.351 48.093 107.645 47.8697 107.029 47.4231C106.419 46.9719 106.077 46.2815 106.004 45.3518H107.282ZM117.133 38.0579C118.4 38.0579 119.316 38.5797 119.881 39.6233C120.318 40.4299 120.537 41.5351 120.537 42.9387C120.537 44.2694 120.339 45.37 119.942 46.2405C119.368 47.4892 118.429 48.1135 117.126 48.1135C115.95 48.1135 115.075 47.6031 114.501 46.5823C114.022 45.7301 113.783 44.5862 113.783 43.1506C113.783 42.0387 113.927 41.0839 114.214 40.2864C114.752 38.8007 115.725 38.0579 117.133 38.0579ZM117.119 46.9924C117.757 46.9924 118.265 46.7099 118.644 46.1448C119.022 45.5797 119.211 44.5269 119.211 42.9866C119.211 41.8746 119.074 40.9609 118.801 40.2454C118.527 39.5253 117.996 39.1653 117.208 39.1653C116.483 39.1653 115.952 39.5071 115.615 40.1907C115.283 40.8697 115.116 41.8723 115.116 43.1985C115.116 44.1965 115.223 44.9986 115.438 45.6047C115.766 46.5299 116.326 46.9924 117.119 46.9924ZM128.521 40.3958C129.096 40.3958 129.597 40.537 130.025 40.8196C130.258 40.9791 130.495 41.2115 130.736 41.5168V40.594H131.871V47.2522C131.871 48.1819 131.734 48.9156 131.461 49.4534C130.951 50.4469 129.987 50.9436 128.569 50.9436C127.781 50.9436 127.118 50.7659 126.58 50.4104C126.042 50.0595 125.742 49.5081 125.678 48.7561H126.929C126.988 49.0842 127.106 49.3372 127.284 49.5149C127.562 49.7883 128 49.925 128.597 49.925C129.54 49.925 130.158 49.5924 130.449 48.927C130.622 48.5351 130.702 47.8355 130.688 46.8284C130.442 47.2021 130.146 47.4801 129.8 47.6624C129.453 47.8446 128.995 47.9358 128.426 47.9358C127.633 47.9358 126.938 47.6555 126.341 47.095C125.748 46.5299 125.452 45.5979 125.452 44.2991C125.452 43.0732 125.751 42.1161 126.348 41.428C126.949 40.7398 127.674 40.3958 128.521 40.3958ZM130.736 44.1555C130.736 43.2486 130.549 42.5764 130.176 42.1389C129.802 41.7014 129.326 41.4827 128.747 41.4827C127.881 41.4827 127.289 41.8883 126.97 42.6995C126.801 43.1324 126.717 43.6998 126.717 44.4016C126.717 45.2265 126.883 45.8554 127.216 46.2883C127.553 46.7167 128.004 46.9309 128.569 46.9309C129.453 46.9309 130.076 46.5321 130.436 45.7346C130.636 45.2834 130.736 44.7571 130.736 44.1555ZM133.73 40.5256H134.947V41.5647C135.239 41.2047 135.503 40.9426 135.74 40.7786C136.146 40.5006 136.606 40.3616 137.121 40.3616C137.704 40.3616 138.174 40.5051 138.529 40.7922C138.73 40.9563 138.912 41.1978 139.076 41.5168C139.35 41.1249 139.671 40.8355 140.04 40.6487C140.409 40.4573 140.824 40.3616 141.284 40.3616C142.269 40.3616 142.938 40.717 143.294 41.428C143.485 41.8108 143.581 42.3258 143.581 42.9729V47.8469H142.303V42.761C142.303 42.2734 142.18 41.9384 141.934 41.7561C141.692 41.5738 141.396 41.4827 141.045 41.4827C140.562 41.4827 140.145 41.6444 139.794 41.968C139.448 42.2916 139.274 42.8316 139.274 43.5881V47.8469H138.023V43.0686C138.023 42.5719 137.964 42.2096 137.846 41.9817C137.659 41.6399 137.31 41.469 136.8 41.469C136.335 41.469 135.911 41.649 135.528 42.009C135.15 42.3691 134.961 43.0208 134.961 43.9641V47.8469H133.73V40.5256ZM149.289 40.5256H150.458V41.5647C150.804 41.1363 151.171 40.8287 151.559 40.6418C151.946 40.455 152.377 40.3616 152.851 40.3616C153.89 40.3616 154.591 40.7239 154.956 41.4485C155.157 41.845 155.257 42.4124 155.257 43.1506V47.8469H154.006V43.2327C154.006 42.7861 153.94 42.426 153.808 42.1526C153.589 41.6969 153.192 41.469 152.618 41.469C152.326 41.469 152.087 41.4986 151.9 41.5579C151.563 41.6581 151.267 41.8586 151.012 42.1594C150.807 42.401 150.672 42.6516 150.608 42.9114C150.549 43.1666 150.52 43.5334 150.52 44.012V47.8469H149.289V40.5256ZM160.131 40.3616C160.65 40.3616 161.154 40.4846 161.642 40.7307C162.129 40.9722 162.501 41.2867 162.756 41.6741C163.002 42.0432 163.166 42.4739 163.248 42.9661C163.321 43.3033 163.357 43.8411 163.357 44.5793H157.991C158.014 45.3222 158.189 45.9192 158.518 46.3704C158.846 46.817 159.354 47.0403 160.042 47.0403C160.685 47.0403 161.197 46.8284 161.58 46.4045C161.799 46.1584 161.954 45.8736 162.045 45.55H163.255C163.223 45.8189 163.116 46.1197 162.934 46.4524C162.756 46.7805 162.555 47.0494 162.332 47.259C161.958 47.6236 161.496 47.8697 160.944 47.9973C160.648 48.0702 160.313 48.1067 159.939 48.1067C159.028 48.1067 158.256 47.7763 157.622 47.1155C156.989 46.4501 156.672 45.5204 156.672 44.3264C156.672 43.1506 156.991 42.1959 157.629 41.4622C158.267 40.7284 159.101 40.3616 160.131 40.3616ZM162.093 43.6018C162.043 43.0686 161.926 42.6425 161.744 42.3235C161.407 41.731 160.844 41.4348 160.056 41.4348C159.491 41.4348 159.017 41.6399 158.634 42.05C158.251 42.4556 158.048 42.9729 158.025 43.6018H162.093ZM165.121 38.4817H166.365V40.5256H167.534V41.5305H166.365V46.3088C166.365 46.564 166.452 46.7349 166.625 46.8215C166.721 46.8717 166.88 46.8967 167.104 46.8967C167.163 46.8967 167.227 46.8967 167.295 46.8967C167.363 46.8922 167.443 46.8853 167.534 46.8762V47.8469C167.393 47.8879 167.245 47.9176 167.09 47.9358C166.939 47.954 166.775 47.9631 166.598 47.9631C166.023 47.9631 165.634 47.8173 165.429 47.5256C165.224 47.2294 165.121 46.8466 165.121 46.3772V41.5305H164.13V40.5256H165.121V38.4817Z" fill="#4F4F4F"/>
<path d="M99.4893 71.2273C99.5713 71.9291 99.8971 72.4145 100.467 72.6833C100.758 72.8201 101.096 72.8884 101.479 72.8884C102.208 72.8884 102.748 72.656 103.099 72.1912C103.45 71.7263 103.625 71.2113 103.625 70.6462C103.625 69.9626 103.415 69.434 102.996 69.0603C102.581 68.6866 102.082 68.4998 101.499 68.4998C101.075 68.4998 100.711 68.5818 100.405 68.7458C100.104 68.9099 99.847 69.1378 99.6328 69.4294L98.5664 69.3679L99.3115 64.0974H104.397V65.2869H100.234L99.8174 68.0076C100.045 67.8344 100.262 67.7045 100.467 67.6179C100.831 67.4675 101.253 67.3923 101.731 67.3923C102.629 67.3923 103.39 67.6817 104.015 68.2605C104.639 68.8393 104.951 69.573 104.951 70.4617C104.951 71.3868 104.664 72.2026 104.09 72.9089C103.52 73.6153 102.609 73.9685 101.355 73.9685C100.558 73.9685 99.8516 73.7452 99.2363 73.2986C98.6257 72.8474 98.2839 72.157 98.2109 71.2273H99.4893ZM109.34 63.9333C110.607 63.9333 111.523 64.4552 112.088 65.4988C112.525 66.3054 112.744 67.4106 112.744 68.8142C112.744 70.1449 112.546 71.2455 112.149 72.116C111.575 73.3647 110.636 73.989 109.333 73.989C108.157 73.989 107.282 73.4786 106.708 72.4578C106.229 71.6056 105.99 70.4617 105.99 69.0261C105.99 67.9141 106.134 66.9594 106.421 66.1619C106.959 64.6762 107.932 63.9333 109.34 63.9333ZM109.326 72.8679C109.964 72.8679 110.472 72.5854 110.851 72.0203C111.229 71.4552 111.418 70.4024 111.418 68.8621C111.418 67.7501 111.281 66.8363 111.008 66.1208C110.734 65.4008 110.203 65.0408 109.415 65.0408C108.69 65.0408 108.16 65.3826 107.822 66.0662C107.49 66.7452 107.323 67.7478 107.323 69.074C107.323 70.072 107.43 70.8741 107.645 71.4802C107.973 72.4054 108.533 72.8679 109.326 72.8679ZM117.522 73.0115C118.302 72.975 118.84 72.6902 119.136 72.157C119.291 71.8835 119.368 71.5668 119.368 71.2068C119.368 70.6371 119.159 70.2042 118.739 69.908C118.498 69.7348 118.092 69.5707 117.522 69.4158V73.0115ZM115.205 66.4148C115.205 66.866 115.353 67.2192 115.649 67.4744C115.95 67.7296 116.354 67.9073 116.859 68.0076V64.7947C116.262 64.8175 115.836 64.9998 115.581 65.3416C115.33 65.6833 115.205 66.0411 115.205 66.4148ZM113.975 66.4968C113.975 65.8041 114.228 65.1798 114.733 64.6238C115.244 64.0678 115.957 63.7852 116.873 63.7761V62.8669H117.522V63.7625C118.429 63.8263 119.124 64.0951 119.607 64.5691C120.095 65.0385 120.35 65.6606 120.373 66.4353H119.177C119.145 66.0889 119.051 65.7904 118.896 65.5398C118.609 65.0795 118.151 64.838 117.522 64.8152V68.1375C118.58 68.4337 119.298 68.7117 119.676 68.9714C120.291 69.3998 120.599 70.0333 120.599 70.8718C120.599 72.0841 120.204 72.9454 119.416 73.4558C118.979 73.7384 118.347 73.9252 117.522 74.0164V75.3425H116.873V74.0164C115.547 73.9298 114.647 73.4604 114.173 72.6082C113.913 72.1479 113.783 71.5258 113.783 70.7419H114.993C115.03 71.3663 115.128 71.822 115.287 72.1091C115.57 72.6241 116.094 72.9135 116.859 72.9773V69.2517C115.875 69.0649 115.148 68.7527 114.679 68.3152C114.209 67.8777 113.975 67.2716 113.975 66.4968Z" fill="#4F4F4F"/>
<path d="M0 104L353.44 104" stroke="#E0E0E0"/>
</g>
<defs>
<clipPath id="clip0_443_13767">
<rect width="376" height="104" fill="white"/>
</clipPath>
</defs>
</svg>
