<svg width="1314" height="255" viewBox="0 0 1314 255" fill="none" xmlns="http://www.w3.org/2000/svg">
<path d="M383.133 249H379.547V231.727H383.133V249ZM384.926 238.723V236.344H386.707V232.781H390.012V236.344H392.086V238.723H390.012V245.473C390.012 245.996 390.078 246.324 390.211 246.457C390.344 246.582 390.75 246.645 391.43 246.645C391.531 246.645 391.637 246.645 391.746 246.645C391.863 246.637 391.977 246.629 392.086 246.621V249.117L390.504 249.176C388.926 249.23 387.848 248.957 387.27 248.355C386.895 247.973 386.707 247.383 386.707 246.586V238.723H384.926ZM399.27 238.641C398.496 238.641 397.895 238.883 397.465 239.367C397.043 239.852 396.777 240.508 396.668 241.336H401.859C401.805 240.453 401.535 239.785 401.051 239.332C400.574 238.871 399.98 238.641 399.27 238.641ZM399.27 235.887C400.332 235.887 401.289 236.086 402.141 236.484C402.992 236.883 403.695 237.512 404.25 238.371C404.75 239.129 405.074 240.008 405.223 241.008C405.309 241.594 405.344 242.438 405.328 243.539H396.586C396.633 244.82 397.035 245.719 397.793 246.234C398.254 246.555 398.809 246.715 399.457 246.715C400.145 246.715 400.703 246.52 401.133 246.129C401.367 245.918 401.574 245.625 401.754 245.25H405.164C405.078 246.008 404.684 246.777 403.98 247.559C402.887 248.801 401.355 249.422 399.387 249.422C397.762 249.422 396.328 248.898 395.086 247.852C393.844 246.805 393.223 245.102 393.223 242.742C393.223 240.531 393.781 238.836 394.898 237.656C396.023 236.477 397.48 235.887 399.27 235.887ZM421.863 235.945C422.426 235.945 422.98 236.055 423.527 236.273C424.074 236.492 424.57 236.875 425.016 237.422C425.375 237.867 425.617 238.414 425.742 239.062C425.82 239.492 425.859 240.121 425.859 240.949L425.836 249H422.414V240.867C422.414 240.383 422.336 239.984 422.18 239.672C421.883 239.078 421.336 238.781 420.539 238.781C419.617 238.781 418.98 239.164 418.629 239.93C418.449 240.336 418.359 240.824 418.359 241.395V249H414.996V241.395C414.996 240.637 414.918 240.086 414.762 239.742C414.48 239.125 413.93 238.816 413.109 238.816C412.156 238.816 411.516 239.125 411.188 239.742C411.008 240.094 410.918 240.617 410.918 241.312V249H407.531V236.25H410.777V238.113C411.191 237.449 411.582 236.977 411.949 236.695C412.598 236.195 413.438 235.945 414.469 235.945C415.445 235.945 416.234 236.16 416.836 236.59C417.32 236.988 417.688 237.5 417.938 238.125C418.375 237.375 418.918 236.824 419.566 236.473C420.254 236.121 421.02 235.945 421.863 235.945ZM431.543 244.922C431.613 245.516 431.766 245.938 432 246.188C432.414 246.633 433.18 246.855 434.297 246.855C434.953 246.855 435.473 246.758 435.855 246.562C436.246 246.367 436.441 246.074 436.441 245.684C436.441 245.309 436.285 245.023 435.973 244.828C435.66 244.633 434.5 244.297 432.492 243.82C431.047 243.461 430.027 243.012 429.434 242.473C428.84 241.941 428.543 241.176 428.543 240.176C428.543 238.996 429.004 237.984 429.926 237.141C430.855 236.289 432.16 235.863 433.84 235.863C435.434 235.863 436.73 236.184 437.73 236.824C438.738 237.457 439.316 238.555 439.465 240.117H436.125C436.078 239.688 435.957 239.348 435.762 239.098C435.395 238.645 434.77 238.418 433.887 238.418C433.16 238.418 432.641 238.531 432.328 238.758C432.023 238.984 431.871 239.25 431.871 239.555C431.871 239.938 432.035 240.215 432.363 240.387C432.691 240.566 433.852 240.875 435.844 241.312C437.172 241.625 438.168 242.098 438.832 242.73C439.488 243.371 439.816 244.172 439.816 245.133C439.816 246.398 439.344 247.434 438.398 248.238C437.461 249.035 436.008 249.434 434.039 249.434C432.031 249.434 430.547 249.012 429.586 248.168C428.633 247.316 428.156 246.234 428.156 244.922H431.543ZM456.891 246.422C458.32 246.422 459.453 245.895 460.289 244.84C461.133 243.785 461.555 242.285 461.555 240.34C461.555 238.402 461.133 236.906 460.289 235.852C459.453 234.789 458.32 234.258 456.891 234.258C455.461 234.258 454.32 234.785 453.469 235.84C452.617 236.895 452.191 238.395 452.191 240.34C452.191 242.285 452.617 243.785 453.469 244.84C454.32 245.895 455.461 246.422 456.891 246.422ZM465.164 240.34C465.164 243.441 464.293 245.816 462.551 247.465C461.246 248.809 459.359 249.48 456.891 249.48C454.422 249.48 452.535 248.809 451.23 247.465C449.48 245.816 448.605 243.441 448.605 240.34C448.605 237.176 449.48 234.801 451.23 233.215C452.535 231.871 454.422 231.199 456.891 231.199C459.359 231.199 461.246 231.871 462.551 233.215C464.293 234.801 465.164 237.176 465.164 240.34ZM472.371 231.551C472.582 231.551 472.773 231.559 472.945 231.574C473.117 231.582 473.352 231.598 473.648 231.621V234.34C473.461 234.316 473.145 234.301 472.699 234.293C472.262 234.277 471.957 234.375 471.785 234.586C471.621 234.789 471.539 235.016 471.539 235.266C471.539 235.516 471.539 235.875 471.539 236.344H473.73V238.699H471.539V249H468.211V238.699H466.348V236.344H468.176V235.523C468.176 234.156 468.406 233.215 468.867 232.699C469.352 231.934 470.52 231.551 472.371 231.551ZM482.602 231.75H494.848V234.785H486.188V238.758H493.77V241.758H486.188V249H482.602V231.75ZM502.734 246.645C503.711 246.645 504.461 246.297 504.984 245.602C505.508 244.906 505.77 243.918 505.77 242.637C505.77 241.355 505.508 240.371 504.984 239.684C504.461 238.988 503.711 238.641 502.734 238.641C501.758 238.641 501.004 238.988 500.473 239.684C499.949 240.371 499.688 241.355 499.688 242.637C499.688 243.918 499.949 244.906 500.473 245.602C501.004 246.297 501.758 246.645 502.734 246.645ZM509.273 242.637C509.273 244.512 508.734 246.117 507.656 247.453C506.578 248.781 504.941 249.445 502.746 249.445C500.551 249.445 498.914 248.781 497.836 247.453C496.758 246.117 496.219 244.512 496.219 242.637C496.219 240.793 496.758 239.195 497.836 237.844C498.914 236.492 500.551 235.816 502.746 235.816C504.941 235.816 506.578 236.492 507.656 237.844C508.734 239.195 509.273 240.793 509.273 242.637ZM517.406 246.645C518.383 246.645 519.133 246.297 519.656 245.602C520.18 244.906 520.441 243.918 520.441 242.637C520.441 241.355 520.18 240.371 519.656 239.684C519.133 238.988 518.383 238.641 517.406 238.641C516.43 238.641 515.676 238.988 515.145 239.684C514.621 240.371 514.359 241.355 514.359 242.637C514.359 243.918 514.621 244.906 515.145 245.602C515.676 246.297 516.43 246.645 517.406 246.645ZM523.945 242.637C523.945 244.512 523.406 246.117 522.328 247.453C521.25 248.781 519.613 249.445 517.418 249.445C515.223 249.445 513.586 248.781 512.508 247.453C511.43 246.117 510.891 244.512 510.891 242.637C510.891 240.793 511.43 239.195 512.508 237.844C513.586 236.492 515.223 235.816 517.418 235.816C519.613 235.816 521.25 236.492 522.328 237.844C523.406 239.195 523.945 240.793 523.945 242.637ZM531.059 235.922C531.832 235.922 532.52 236.094 533.121 236.438C533.723 236.773 534.211 237.242 534.586 237.844V231.75H537.973V249H534.727V247.23C534.25 247.988 533.707 248.539 533.098 248.883C532.488 249.227 531.73 249.398 530.824 249.398C529.332 249.398 528.074 248.797 527.051 247.594C526.035 246.383 525.527 244.832 525.527 242.941C525.527 240.762 526.027 239.047 527.027 237.797C528.035 236.547 529.379 235.922 531.059 235.922ZM531.785 246.586C532.73 246.586 533.449 246.234 533.941 245.531C534.434 244.828 534.68 243.918 534.68 242.801C534.68 241.238 534.285 240.121 533.496 239.449C533.012 239.043 532.449 238.84 531.809 238.84C530.832 238.84 530.113 239.211 529.652 239.953C529.199 240.688 528.973 241.602 528.973 242.695C528.973 243.875 529.203 244.82 529.664 245.531C530.133 246.234 530.84 246.586 531.785 246.586Z" fill="white"/>
<path d="M432.523 188.309C432.523 189.441 432.706 190.379 433.07 191.121C433.747 192.488 434.978 193.172 436.762 193.172C437.855 193.172 438.806 192.801 439.613 192.059C440.434 191.303 440.844 190.223 440.844 188.816C440.844 186.954 440.089 185.711 438.578 185.086C437.719 184.734 436.365 184.559 434.516 184.559V180.574C436.326 180.548 437.589 180.372 438.305 180.047C439.542 179.5 440.16 178.393 440.16 176.727C440.16 175.646 439.841 174.767 439.203 174.09C438.578 173.413 437.693 173.074 436.547 173.074C435.232 173.074 434.262 173.491 433.637 174.324C433.025 175.158 432.732 176.271 432.758 177.664H427.562C427.615 176.258 427.855 174.923 428.285 173.66C428.741 172.553 429.457 171.531 430.434 170.594C431.163 169.93 432.029 169.422 433.031 169.07C434.034 168.719 435.264 168.543 436.723 168.543C439.431 168.543 441.612 169.246 443.266 170.652C444.932 172.046 445.766 173.921 445.766 176.277C445.766 177.944 445.271 179.35 444.281 180.496C443.656 181.212 443.005 181.701 442.328 181.961C442.836 181.961 443.565 182.397 444.516 183.27C445.935 184.585 446.645 186.382 446.645 188.66C446.645 191.056 445.811 193.165 444.145 194.988C442.491 196.798 440.036 197.703 436.781 197.703C432.771 197.703 429.984 196.395 428.422 193.777C427.602 192.384 427.146 190.561 427.055 188.309H432.523ZM449.516 197C449.568 194.969 450.004 193.113 450.824 191.434C451.618 189.546 453.493 187.547 456.449 185.438C459.014 183.602 460.674 182.286 461.43 181.492C462.589 180.255 463.168 178.901 463.168 177.43C463.168 176.232 462.836 175.236 462.172 174.441C461.508 173.647 460.557 173.25 459.32 173.25C457.628 173.25 456.475 173.882 455.863 175.145C455.512 175.874 455.303 177.033 455.238 178.621H449.828C449.919 176.212 450.355 174.266 451.137 172.781C452.621 169.956 455.258 168.543 459.047 168.543C462.042 168.543 464.424 169.376 466.195 171.043C467.966 172.697 468.852 174.891 468.852 177.625C468.852 179.721 468.227 181.583 466.977 183.211C466.156 184.292 464.809 185.496 462.934 186.824L460.707 188.406C459.314 189.396 458.357 190.112 457.836 190.555C457.328 190.997 456.898 191.512 456.547 192.098H468.91V197H449.516ZM477.465 183.113C477.465 186.368 477.732 188.862 478.266 190.594C478.799 192.312 479.893 193.172 481.547 193.172C483.201 193.172 484.281 192.312 484.789 190.594C485.31 188.862 485.57 186.368 485.57 183.113C485.57 179.702 485.31 177.176 484.789 175.535C484.281 173.895 483.201 173.074 481.547 173.074C479.893 173.074 478.799 173.895 478.266 175.535C477.732 177.176 477.465 179.702 477.465 183.113ZM481.547 168.484C485.154 168.484 487.68 169.754 489.125 172.293C490.583 174.832 491.312 178.439 491.312 183.113C491.312 187.788 490.583 191.388 489.125 193.914C487.68 196.44 485.154 197.703 481.547 197.703C477.94 197.703 475.408 196.44 473.949 193.914C472.504 191.388 471.781 187.788 471.781 183.113C471.781 178.439 472.504 174.832 473.949 172.293C475.408 169.754 477.94 168.484 481.547 168.484Z" fill="white"/>
<path d="M419.002 65.4033C420.107 65.4033 421.003 64.5153 421.003 63.42C421.003 62.3246 420.107 61.4366 419.002 61.4366C417.896 61.4366 417 62.3246 417 63.42C417 64.5153 417.896 65.4033 419.002 65.4033Z" fill="#FF9F0D"/>
<path d="M427.001 59.4573C428.106 59.4573 429.003 58.5693 429.003 57.4739C429.003 56.3786 428.106 55.4906 427.001 55.4906C425.896 55.4906 425 56.3786 425 57.4739C425 58.5693 425.896 59.4573 427.001 59.4573Z" fill="#FF9F0D"/>
<path d="M447.002 57.4756C448.107 57.4756 449.003 56.5876 449.003 55.4922C449.003 54.3969 448.107 53.5089 447.002 53.5089C445.896 53.5089 445 54.3969 445 55.4922C445 56.5876 445.896 57.4756 447.002 57.4756Z" fill="#FF9F0D"/>
<path d="M413.003 75.312C414.108 75.312 415.004 74.424 415.004 73.3287C415.004 72.2333 414.108 71.3453 413.003 71.3453C411.897 71.3453 411.001 72.2333 411.001 73.3287C411.001 74.424 411.897 75.312 413.003 75.312Z" fill="#FF9F0D"/>
<path d="M423.002 73.3303C424.107 73.3303 425.003 72.4423 425.003 71.347C425.003 70.2516 424.107 69.3636 423.002 69.3636C421.896 69.3636 421 70.2516 421 71.347C421 72.4423 421.896 73.3303 423.002 73.3303Z" fill="#FF9F0D"/>
<path d="M431.002 67.3847C432.107 67.3847 433.003 66.4968 433.003 65.4014C433.003 64.3061 432.107 63.4181 431.002 63.4181C429.896 63.4181 429 64.3061 429 65.4014C429 66.4968 429.896 67.3847 431.002 67.3847Z" fill="#FF9F0D"/>
<path d="M513 21.8H485V13.8727C485 12.7782 485.895 11.8909 487 11.8909H503C506.314 11.8909 509 9.22902 509 5.94544C509 2.66186 506.314 0 503 0H485C478.375 0.00655461 473.007 5.32645 473 11.8909V21.8H445C441.686 21.8 439 24.4618 439 27.7454V29.7272C439.009 32.2812 440.666 34.543 443.114 35.3417L443.86 45.6947C442.912 45.6392 441.966 45.5817 441 45.5817C438.103 45.5878 435.213 45.8572 432.366 46.3863L427.514 40.1436C432.16 35.5855 432.418 30.2128 430.028 27.1409C427.638 24.0691 422.312 22.9514 416.698 26.2333L415.4 24.5547C414.971 23.9734 414.258 23.6682 413.537 23.7575C412.816 23.8467 412.201 24.3164 411.93 24.9843C411.659 25.6522 411.774 26.4134 412.232 26.9725L413.536 28.6531C408.874 33.2112 408.646 38.5958 411.022 41.6557C413.44 44.7652 418.786 45.8176 424.352 42.5634L428.1 47.3852C413.484 51.5272 403 62.4668 403 75.3089C402.995 76.1812 403.046 77.053 403.152 77.919C403.393 80.1505 404.881 82.0575 407 82.8497V87.1998C402.976 87.1948 399.578 90.1574 399.07 94.1125C398.562 98.0675 401.103 101.779 405 102.773V107.018C405.001 109.99 406.131 112.853 408.166 115.036H401C399.895 115.036 399 115.924 399 117.018C399 118.113 399.895 119 401 119H517C518.105 119 519 118.113 519 117.018C519 115.924 518.105 115.036 517 115.036H506.514C508.349 113.069 509.456 110.544 509.656 107.872L514.886 35.3377C517.333 34.54 518.99 32.2799 519 29.7272V27.7454C519 24.4618 516.314 21.8 513 21.8ZM414.184 39.2399C412.584 37.1749 414.052 33.9168 416 31.8319L417.108 33.2568C417.537 33.8381 418.25 34.1433 418.971 34.054C419.692 33.9648 420.307 33.4951 420.578 32.8272C420.849 32.1592 420.734 31.3981 420.276 30.839L419.168 29.4141C421.586 28.1398 425.216 27.4501 426.86 29.5647C428.848 32.1212 426.196 36.3247 423.574 38.3263C420.952 40.3279 416.174 41.7965 414.184 39.2399ZM477 11.8909C477 7.51278 480.582 3.96363 485 3.96363H503C504.105 3.96363 505 4.85092 505 5.94544C505 7.03997 504.105 7.92726 503 7.92726H487C483.686 7.92726 481 10.5891 481 13.8727V21.8H477V11.8909ZM510.136 45.5817H447.862L447.148 35.6726H510.852L510.136 45.5817ZM506.42 97.1089H482.716C482.896 96.4631 482.992 95.797 483 95.1271C483 90.749 479.418 87.1998 475 87.1998V82.8398C477.112 82.0569 478.599 80.1619 478.844 77.9408C478.952 77.0676 479.004 76.1886 479 75.3089C479 74.5598 478.926 73.8246 478.856 73.0893C482.801 72.1614 485.418 68.4522 484.944 64.4622C484.47 60.4722 481.054 57.4671 477 57.4726C475.43 57.4814 473.898 57.954 472.6 58.8301C469.1 54.8452 464.755 51.6749 459.876 49.5453H509.852L506.42 97.1089ZM475 91.1634C477.209 91.1634 479 92.938 479 95.1271C479 97.3161 477.209 99.0907 475 99.0907H437.828L445.828 91.1634H475ZM477 107.018V102.773C478.197 102.463 479.306 101.881 480.236 101.073H506.134L505.666 107.587C505.346 111.727 501.87 114.929 497.68 114.945H473.92C475.902 112.772 476.999 109.947 477 107.018ZM474.946 62.0308C475.562 61.6487 476.273 61.443 477 61.4362C478.976 61.4275 480.659 62.8571 480.952 64.7932C481.245 66.7294 480.059 68.5853 478.168 69.1514C477.467 66.6289 476.38 64.2275 474.946 62.0308ZM430.716 50.7562L435.416 56.8027C436.092 57.6631 437.343 57.8203 438.215 57.1545C439.087 56.4887 439.251 55.2501 438.584 54.383L435.142 49.9556C437.083 49.6904 439.04 49.5534 441 49.5453C459.748 49.5453 475 61.1033 475 75.3089C475.002 76.0375 474.96 76.7655 474.872 77.4889C474.769 78.5054 473.903 79.2777 472.872 79.2726H409.12C408.081 79.2707 407.215 78.486 407.12 77.4612C407.036 76.7469 406.996 76.0281 407 75.3089C407 63.8144 416.982 54.0678 430.716 50.7562ZM411 83.2362H471V87.1998H445C444.47 87.1999 443.961 87.4088 443.586 87.7805L429.096 102.137L416.496 87.8677C416.117 87.4433 415.572 87.2002 415 87.1998H411V83.2362ZM403 95.1271C403 92.938 404.791 91.1634 407 91.1634H414.092L421.092 99.0907H407C404.791 99.0907 403 97.3161 403 95.1271ZM417 114.945C412.582 114.945 409 111.396 409 107.018V103.054H424.6L426.096 104.749C426.826 105.573 427.868 106.061 428.974 106.098H429.104C430.165 106.097 431.183 105.68 431.934 104.937L433.828 103.054H473V107.018C473 111.396 469.418 114.945 465 114.945H417ZM515 29.7272C515 30.8217 514.105 31.709 513 31.709H445C443.895 31.709 443 30.8217 443 29.7272V27.7454C443 26.6509 443.895 25.7636 445 25.7636H513C514.105 25.7636 515 26.6509 515 27.7454V29.7272Z" fill="#FF9F0D"/>
<path d="M497 53.5089C492.582 53.5089 489 57.0581 489 61.4362C489 65.8143 492.582 69.3634 497 69.3634C501.418 69.3634 505 65.8143 505 61.4362C505 57.0581 501.418 53.5089 497 53.5089ZM497 65.3998C494.791 65.3998 493 63.6252 493 61.4362C493 59.2471 494.791 57.4725 497 57.4725C499.209 57.4725 501 59.2471 501 61.4362C501 63.6252 499.209 65.3998 497 65.3998Z" fill="#FF9F0D"/>
<path d="M491 79.2725C487.686 79.2725 485 81.9343 485 85.2179C485 88.5015 487.686 91.1633 491 91.1633C494.314 91.1633 497 88.5015 497 85.2179C497 81.9343 494.314 79.2725 491 79.2725ZM491 87.1997C489.895 87.1997 489 86.3124 489 85.2179C489 84.1234 489.895 83.2361 491 83.2361C492.105 83.2361 493 84.1234 493 85.2179C493 86.3124 492.105 87.1997 491 87.1997Z" fill="#FF9F0D"/>
<path d="M11.5547 237.223C11.5547 236.324 11.3164 235.684 10.8398 235.301C10.3711 234.918 9.71094 234.727 8.85938 234.727H5.49609V239.812H8.85938C9.71094 239.812 10.3711 239.605 10.8398 239.191C11.3164 238.777 11.5547 238.121 11.5547 237.223ZM15.1289 237.199C15.1289 239.238 14.6133 240.68 13.582 241.523C12.5508 242.367 11.0781 242.789 9.16406 242.789H5.49609V249H1.91016V231.727H9.43359C11.168 231.727 12.5508 232.172 13.582 233.062C14.6133 233.953 15.1289 235.332 15.1289 237.199ZM24.5039 235.922C24.5664 235.922 24.6172 235.926 24.6562 235.934C24.7031 235.934 24.8008 235.938 24.9492 235.945V239.367C24.7383 239.344 24.5508 239.328 24.3867 239.32C24.2227 239.312 24.0898 239.309 23.9883 239.309C22.6445 239.309 21.7422 239.746 21.2812 240.621C21.0234 241.113 20.8945 241.871 20.8945 242.895V249H17.5312V236.227H20.7188V238.453C21.2344 237.602 21.6836 237.02 22.0664 236.707C22.6914 236.184 23.5039 235.922 24.5039 235.922ZM32.6484 246.645C33.625 246.645 34.375 246.297 34.8984 245.602C35.4219 244.906 35.6836 243.918 35.6836 242.637C35.6836 241.355 35.4219 240.371 34.8984 239.684C34.375 238.988 33.625 238.641 32.6484 238.641C31.6719 238.641 30.918 238.988 30.3867 239.684C29.8633 240.371 29.6016 241.355 29.6016 242.637C29.6016 243.918 29.8633 244.906 30.3867 245.602C30.918 246.297 31.6719 246.645 32.6484 246.645ZM39.1875 242.637C39.1875 244.512 38.6484 246.117 37.5703 247.453C36.4922 248.781 34.8555 249.445 32.6602 249.445C30.4648 249.445 28.8281 248.781 27.75 247.453C26.6719 246.117 26.1328 244.512 26.1328 242.637C26.1328 240.793 26.6719 239.195 27.75 237.844C28.8281 236.492 30.4648 235.816 32.6602 235.816C34.8555 235.816 36.4922 236.492 37.5703 237.844C38.6484 239.195 39.1875 240.793 39.1875 242.637ZM46.3008 231.551C46.5117 231.551 46.7031 231.559 46.875 231.574C47.0469 231.582 47.2812 231.598 47.5781 231.621V234.34C47.3906 234.316 47.0742 234.301 46.6289 234.293C46.1914 234.277 45.8867 234.375 45.7148 234.586C45.5508 234.789 45.4688 235.016 45.4688 235.266C45.4688 235.516 45.4688 235.875 45.4688 236.344H47.6602V238.699H45.4688V249H42.1406V238.699H40.2773V236.344H42.1055V235.523C42.1055 234.156 42.3359 233.215 42.7969 232.699C43.2812 231.934 44.4492 231.551 46.3008 231.551ZM54.6211 238.641C53.8477 238.641 53.2461 238.883 52.8164 239.367C52.3945 239.852 52.1289 240.508 52.0195 241.336H57.2109C57.1562 240.453 56.8867 239.785 56.4023 239.332C55.9258 238.871 55.332 238.641 54.6211 238.641ZM54.6211 235.887C55.6836 235.887 56.6406 236.086 57.4922 236.484C58.3438 236.883 59.0469 237.512 59.6016 238.371C60.1016 239.129 60.4258 240.008 60.5742 241.008C60.6602 241.594 60.6953 242.438 60.6797 243.539H51.9375C51.9844 244.82 52.3867 245.719 53.1445 246.234C53.6055 246.555 54.1602 246.715 54.8086 246.715C55.4961 246.715 56.0547 246.52 56.4844 246.129C56.7188 245.918 56.9258 245.625 57.1055 245.25H60.5156C60.4297 246.008 60.0352 246.777 59.332 247.559C58.2383 248.801 56.707 249.422 54.7383 249.422C53.1133 249.422 51.6797 248.898 50.4375 247.852C49.1953 246.805 48.5742 245.102 48.5742 242.742C48.5742 240.531 49.1328 238.836 50.25 237.656C51.375 236.477 52.832 235.887 54.6211 235.887ZM65.543 244.922C65.6133 245.516 65.7656 245.938 66 246.188C66.4141 246.633 67.1797 246.855 68.2969 246.855C68.9531 246.855 69.4727 246.758 69.8555 246.562C70.2461 246.367 70.4414 246.074 70.4414 245.684C70.4414 245.309 70.2852 245.023 69.9727 244.828C69.6602 244.633 68.5 244.297 66.4922 243.82C65.0469 243.461 64.0273 243.012 63.4336 242.473C62.8398 241.941 62.543 241.176 62.543 240.176C62.543 238.996 63.0039 237.984 63.9258 237.141C64.8555 236.289 66.1602 235.863 67.8398 235.863C69.4336 235.863 70.7305 236.184 71.7305 236.824C72.7383 237.457 73.3164 238.555 73.4648 240.117H70.125C70.0781 239.688 69.957 239.348 69.7617 239.098C69.3945 238.645 68.7695 238.418 67.8867 238.418C67.1602 238.418 66.6406 238.531 66.3281 238.758C66.0234 238.984 65.8711 239.25 65.8711 239.555C65.8711 239.938 66.0352 240.215 66.3633 240.387C66.6914 240.566 67.8516 240.875 69.8438 241.312C71.1719 241.625 72.168 242.098 72.832 242.73C73.4883 243.371 73.8164 244.172 73.8164 245.133C73.8164 246.398 73.3438 247.434 72.3984 248.238C71.4609 249.035 70.0078 249.434 68.0391 249.434C66.0312 249.434 64.5469 249.012 63.5859 248.168C62.6328 247.316 62.1562 246.234 62.1562 244.922H65.543ZM78.9023 244.922C78.9727 245.516 79.125 245.938 79.3594 246.188C79.7734 246.633 80.5391 246.855 81.6562 246.855C82.3125 246.855 82.832 246.758 83.2148 246.562C83.6055 246.367 83.8008 246.074 83.8008 245.684C83.8008 245.309 83.6445 245.023 83.332 244.828C83.0195 244.633 81.8594 244.297 79.8516 243.82C78.4062 243.461 77.3867 243.012 76.793 242.473C76.1992 241.941 75.9023 241.176 75.9023 240.176C75.9023 238.996 76.3633 237.984 77.2852 237.141C78.2148 236.289 79.5195 235.863 81.1992 235.863C82.793 235.863 84.0898 236.184 85.0898 236.824C86.0977 237.457 86.6758 238.555 86.8242 240.117H83.4844C83.4375 239.688 83.3164 239.348 83.1211 239.098C82.7539 238.645 82.1289 238.418 81.2461 238.418C80.5195 238.418 80 238.531 79.6875 238.758C79.3828 238.984 79.2305 239.25 79.2305 239.555C79.2305 239.938 79.3945 240.215 79.7227 240.387C80.0508 240.566 81.2109 240.875 83.2031 241.312C84.5312 241.625 85.5273 242.098 86.1914 242.73C86.8477 243.371 87.1758 244.172 87.1758 245.133C87.1758 246.398 86.7031 247.434 85.7578 248.238C84.8203 249.035 83.3672 249.434 81.3984 249.434C79.3906 249.434 77.9062 249.012 76.9453 248.168C75.9922 247.316 75.5156 246.234 75.5156 244.922H78.9023ZM93.0938 234.703H89.707V231.621H93.0938V234.703ZM89.707 236.227H93.0938V249H89.707V236.227ZM102.07 246.645C103.047 246.645 103.797 246.297 104.32 245.602C104.844 244.906 105.105 243.918 105.105 242.637C105.105 241.355 104.844 240.371 104.32 239.684C103.797 238.988 103.047 238.641 102.07 238.641C101.094 238.641 100.34 238.988 99.8086 239.684C99.2852 240.371 99.0234 241.355 99.0234 242.637C99.0234 243.918 99.2852 244.906 99.8086 245.602C100.34 246.297 101.094 246.645 102.07 246.645ZM108.609 242.637C108.609 244.512 108.07 246.117 106.992 247.453C105.914 248.781 104.277 249.445 102.082 249.445C99.8867 249.445 98.25 248.781 97.1719 247.453C96.0938 246.117 95.5547 244.512 95.5547 242.637C95.5547 240.793 96.0938 239.195 97.1719 237.844C98.25 236.492 99.8867 235.816 102.082 235.816C104.277 235.816 105.914 236.492 106.992 237.844C108.07 239.195 108.609 240.793 108.609 242.637ZM118.09 235.922C119.41 235.922 120.488 236.27 121.324 236.965C122.168 237.652 122.59 238.797 122.59 240.398V249H119.168V241.23C119.168 240.559 119.078 240.043 118.898 239.684C118.57 239.027 117.945 238.699 117.023 238.699C115.891 238.699 115.113 239.18 114.691 240.141C114.473 240.648 114.363 241.297 114.363 242.086V249H111.035V236.25H114.258V238.113C114.688 237.457 115.094 236.984 115.477 236.695C116.164 236.18 117.035 235.922 118.09 235.922ZM132.727 242.789C132.516 242.922 132.301 243.031 132.082 243.117C131.871 243.195 131.578 243.27 131.203 243.34L130.453 243.48C129.75 243.605 129.246 243.758 128.941 243.938C128.426 244.242 128.168 244.715 128.168 245.355C128.168 245.926 128.324 246.34 128.637 246.598C128.957 246.848 129.344 246.973 129.797 246.973C130.516 246.973 131.176 246.762 131.777 246.34C132.387 245.918 132.703 245.148 132.727 244.031V242.789ZM130.699 241.23C131.316 241.152 131.758 241.055 132.023 240.938C132.5 240.734 132.738 240.418 132.738 239.988C132.738 239.465 132.555 239.105 132.188 238.91C131.828 238.707 131.297 238.605 130.594 238.605C129.805 238.605 129.246 238.801 128.918 239.191C128.684 239.48 128.527 239.871 128.449 240.363H125.227C125.297 239.246 125.609 238.328 126.164 237.609C127.047 236.484 128.562 235.922 130.711 235.922C132.109 235.922 133.352 236.199 134.438 236.754C135.523 237.309 136.066 238.355 136.066 239.895V245.754C136.066 246.16 136.074 246.652 136.09 247.23C136.113 247.668 136.18 247.965 136.289 248.121C136.398 248.277 136.562 248.406 136.781 248.508V249H133.148C133.047 248.742 132.977 248.5 132.938 248.273C132.898 248.047 132.867 247.789 132.844 247.5C132.383 248 131.852 248.426 131.25 248.777C130.531 249.191 129.719 249.398 128.812 249.398C127.656 249.398 126.699 249.07 125.941 248.414C125.191 247.75 124.816 246.812 124.816 245.602C124.816 244.031 125.422 242.895 126.633 242.191C127.297 241.809 128.273 241.535 129.562 241.371L130.699 241.23ZM142.453 249H139.113V231.727H142.453V249ZM151.922 240.504C151.922 237.488 152.73 235.164 154.348 233.531C155.754 232.109 157.543 231.398 159.715 231.398C162.621 231.398 164.746 232.352 166.09 234.258C166.832 235.328 167.23 236.402 167.285 237.48H163.676C163.441 236.652 163.141 236.027 162.773 235.605C162.117 234.855 161.145 234.48 159.855 234.48C158.543 234.48 157.508 235.012 156.75 236.074C155.992 237.129 155.613 238.625 155.613 240.562C155.613 242.5 156.012 243.953 156.809 244.922C157.613 245.883 158.633 246.363 159.867 246.363C161.133 246.363 162.098 245.949 162.762 245.121C163.129 244.676 163.434 244.008 163.676 243.117H167.25C166.938 245 166.137 246.531 164.848 247.711C163.566 248.891 161.922 249.48 159.914 249.48C157.43 249.48 155.477 248.684 154.055 247.09C152.633 245.488 151.922 243.293 151.922 240.504ZM176.789 235.898C177.578 235.898 178.293 236.035 178.934 236.309C179.582 236.582 180.113 237 180.527 237.562C180.879 238.039 181.094 238.531 181.172 239.039C181.25 239.539 181.289 240.359 181.289 241.5V249H177.879V241.23C177.879 240.543 177.762 239.988 177.527 239.566C177.223 238.973 176.645 238.676 175.793 238.676C174.91 238.676 174.238 238.973 173.777 239.566C173.324 240.152 173.098 240.992 173.098 242.086V249H169.77V231.785H173.098V237.891C173.582 237.148 174.141 236.633 174.773 236.344C175.414 236.047 176.086 235.898 176.789 235.898ZM189.457 238.641C188.684 238.641 188.082 238.883 187.652 239.367C187.23 239.852 186.965 240.508 186.855 241.336H192.047C191.992 240.453 191.723 239.785 191.238 239.332C190.762 238.871 190.168 238.641 189.457 238.641ZM189.457 235.887C190.52 235.887 191.477 236.086 192.328 236.484C193.18 236.883 193.883 237.512 194.438 238.371C194.938 239.129 195.262 240.008 195.41 241.008C195.496 241.594 195.531 242.438 195.516 243.539H186.773C186.82 244.82 187.223 245.719 187.98 246.234C188.441 246.555 188.996 246.715 189.645 246.715C190.332 246.715 190.891 246.52 191.32 246.129C191.555 245.918 191.762 245.625 191.941 245.25H195.352C195.266 246.008 194.871 246.777 194.168 247.559C193.074 248.801 191.543 249.422 189.574 249.422C187.949 249.422 186.516 248.898 185.273 247.852C184.031 246.805 183.41 245.102 183.41 242.742C183.41 240.531 183.969 238.836 185.086 237.656C186.211 236.477 187.668 235.887 189.457 235.887ZM202.488 231.551C202.699 231.551 202.891 231.559 203.062 231.574C203.234 231.582 203.469 231.598 203.766 231.621V234.34C203.578 234.316 203.262 234.301 202.816 234.293C202.379 234.277 202.074 234.375 201.902 234.586C201.738 234.789 201.656 235.016 201.656 235.266C201.656 235.516 201.656 235.875 201.656 236.344H203.848V238.699H201.656V249H198.328V238.699H196.465V236.344H198.293V235.523C198.293 234.156 198.523 233.215 198.984 232.699C199.469 231.934 200.637 231.551 202.488 231.551ZM208.371 244.922C208.441 245.516 208.594 245.938 208.828 246.188C209.242 246.633 210.008 246.855 211.125 246.855C211.781 246.855 212.301 246.758 212.684 246.562C213.074 246.367 213.27 246.074 213.27 245.684C213.27 245.309 213.113 245.023 212.801 244.828C212.488 244.633 211.328 244.297 209.32 243.82C207.875 243.461 206.855 243.012 206.262 242.473C205.668 241.941 205.371 241.176 205.371 240.176C205.371 238.996 205.832 237.984 206.754 237.141C207.684 236.289 208.988 235.863 210.668 235.863C212.262 235.863 213.559 236.184 214.559 236.824C215.566 237.457 216.145 238.555 216.293 240.117H212.953C212.906 239.688 212.785 239.348 212.59 239.098C212.223 238.645 211.598 238.418 210.715 238.418C209.988 238.418 209.469 238.531 209.156 238.758C208.852 238.984 208.699 239.25 208.699 239.555C208.699 239.938 208.863 240.215 209.191 240.387C209.52 240.566 210.68 240.875 212.672 241.312C214 241.625 214.996 242.098 215.66 242.73C216.316 243.371 216.645 244.172 216.645 245.133C216.645 246.398 216.172 247.434 215.227 248.238C214.289 249.035 212.836 249.434 210.867 249.434C208.859 249.434 207.375 249.012 206.414 248.168C205.461 247.316 204.984 246.234 204.984 244.922H208.371Z" fill="white"/>
<path d="M96.918 190.906H93.7148V197H88.2656V190.906H77.0547V186.043L87.4648 168.855H93.7148V186.551H96.918V190.906ZM88.2656 186.551V174.324L81.1758 186.551H88.2656ZM99.5156 197C99.5677 194.969 100.004 193.113 100.824 191.434C101.618 189.546 103.493 187.547 106.449 185.438C109.014 183.602 110.674 182.286 111.43 181.492C112.589 180.255 113.168 178.901 113.168 177.43C113.168 176.232 112.836 175.236 112.172 174.441C111.508 173.647 110.557 173.25 109.32 173.25C107.628 173.25 106.475 173.882 105.863 175.145C105.512 175.874 105.303 177.033 105.238 178.621H99.8281C99.9193 176.212 100.355 174.266 101.137 172.781C102.621 169.956 105.258 168.543 109.047 168.543C112.042 168.543 114.424 169.376 116.195 171.043C117.966 172.697 118.852 174.891 118.852 177.625C118.852 179.721 118.227 181.583 116.977 183.211C116.156 184.292 114.809 185.496 112.934 186.824L110.707 188.406C109.314 189.396 108.357 190.112 107.836 190.555C107.328 190.997 106.898 191.512 106.547 192.098H118.91V197H99.5156ZM127.465 183.113C127.465 186.368 127.732 188.862 128.266 190.594C128.799 192.312 129.893 193.172 131.547 193.172C133.201 193.172 134.281 192.312 134.789 190.594C135.31 188.862 135.57 186.368 135.57 183.113C135.57 179.702 135.31 177.176 134.789 175.535C134.281 173.895 133.201 173.074 131.547 173.074C129.893 173.074 128.799 173.895 128.266 175.535C127.732 177.176 127.465 179.702 127.465 183.113ZM131.547 168.484C135.154 168.484 137.68 169.754 139.125 172.293C140.583 174.832 141.312 178.439 141.312 183.113C141.312 187.788 140.583 191.388 139.125 193.914C137.68 196.44 135.154 197.703 131.547 197.703C127.94 197.703 125.408 196.44 123.949 193.914C122.504 191.388 121.781 187.788 121.781 183.113C121.781 178.439 122.504 174.832 123.949 172.293C125.408 169.754 127.94 168.484 131.547 168.484Z" fill="white"/>
<path d="M162.789 80.8047C159.896 82.8103 156.57 84.1139 153.079 84.6114C149.588 85.1089 146.028 84.7863 142.685 83.6695C142.382 83.5621 142.058 83.529 141.739 83.573C141.421 83.617 141.118 83.7367 140.856 83.9221L131.858 90.2704L134.174 93.5152L142.337 87.7458C146.153 88.8548 150.169 89.1029 154.093 88.472C158.017 87.8412 161.75 86.3473 165.021 84.0992C166.199 83.307 167.316 82.4279 168.362 81.4691L165.651 78.5447C164.756 79.369 163.799 80.1245 162.789 80.8047Z" fill="#FF9F0D"/>
<path d="M142.655 51.1142C139.793 52.9336 137.501 55.514 136.037 58.5632C134.574 61.6124 133.998 65.0085 134.375 68.3666L109.029 84.5328L83.678 68.3766C84.0632 65.0173 83.4901 61.6181 82.0245 58.5677C80.5589 55.5174 78.2598 52.9392 75.3904 51.1282C71.5815 48.516 66.9498 47.3667 62.3542 47.8934C60.1864 48.1045 58.0923 48.7893 56.2212 49.8988C54.3502 51.0083 52.7484 52.5151 51.5302 54.3117C50.3121 56.1084 49.5076 58.1504 49.1743 60.2921C48.841 62.4339 48.987 64.6224 49.6019 66.7015C50.8338 71.1363 53.6406 74.976 57.5016 77.5081C60.2661 79.4799 63.5333 80.6365 66.9283 80.8452C70.3232 81.0538 73.7086 80.3061 76.696 78.6878L96.3723 92.588L77.6477 104.535C76.7627 105.094 75.9995 105.825 75.4034 106.683C74.8073 107.542 74.3904 108.51 74.1775 109.532C73.9646 110.554 73.9599 111.607 74.1638 112.631C74.3677 113.654 74.7759 114.627 75.3644 115.49C75.9506 116.352 76.7039 117.089 77.5802 117.657C78.4565 118.225 79.438 118.613 80.467 118.798C81.4961 118.983 82.5521 118.962 83.5728 118.736C84.5936 118.509 85.5586 118.082 86.4112 117.48L109.029 101.521L131.646 117.492C132.5 118.113 133.47 118.556 134.5 118.795C135.53 119.035 136.598 119.064 137.64 118.883C138.681 118.702 139.675 118.313 140.563 117.74C141.45 117.167 142.212 116.422 142.802 115.55C143.393 114.677 143.801 113.694 144.001 112.661C144.201 111.628 144.19 110.565 143.967 109.536C143.745 108.508 143.316 107.534 142.706 106.675C142.097 105.815 141.319 105.086 140.419 104.533L121.673 92.5959L141.363 78.6898C144.35 80.3087 147.735 81.0571 151.13 80.8491C154.525 80.6411 157.793 79.4853 160.558 77.514C168.775 71.9953 171.458 61.5826 166.534 54.3013C161.609 47.02 150.89 45.5956 142.655 51.1142ZM84.0959 114.243C83.2416 114.815 82.1963 115.032 81.1833 114.848C80.1702 114.664 79.2695 114.094 78.6734 113.258C78.3849 112.835 78.1848 112.358 78.0849 111.856C77.9851 111.354 77.9875 110.837 78.0921 110.336C78.1967 109.835 78.4014 109.36 78.6939 108.94C78.9864 108.519 79.3609 108.161 79.7951 107.887L99.8872 95.0668L105.564 99.0735L84.0959 114.243ZM139.96 110.338C140.116 111.093 140.041 111.877 139.743 112.588C139.446 113.3 138.94 113.906 138.292 114.328C137.643 114.75 136.883 114.968 136.108 114.953C135.334 114.939 134.581 114.693 133.949 114.247L77.8877 74.6572C77.5458 74.416 77.1365 74.2878 76.7174 74.2906C76.2984 74.2935 75.8908 74.4273 75.5523 74.6731C73.1837 76.2112 70.3988 76.9912 67.5716 76.9084C64.7444 76.8255 62.0105 75.8837 59.737 74.2096C56.678 72.2131 54.4503 69.1809 53.4668 65.6749C52.9961 64.1434 52.8756 62.5266 53.114 60.9427C53.3523 59.3589 53.9436 57.8481 54.8444 56.5209C55.7452 55.1937 56.9329 54.0838 58.3205 53.2722C59.7081 52.4607 61.2605 51.9681 62.864 51.8304C66.4991 51.4245 70.1588 52.3433 73.165 54.4167C75.575 55.8885 77.4746 58.0586 78.609 60.6358C79.7435 63.213 80.0583 66.0738 79.5112 68.8341C79.4084 69.2388 79.4361 69.6653 79.5904 70.0534C79.7447 70.4415 80.0178 70.7715 80.3709 70.9966L138.262 107.885C138.696 108.159 139.07 108.518 139.362 108.939C139.654 109.361 139.857 109.836 139.96 110.338ZM158.314 74.2056C156.04 75.8793 153.305 76.8205 150.478 76.9026C147.65 76.9848 144.865 76.204 142.497 74.6652C142.158 74.4193 141.751 74.2855 141.332 74.2827C140.913 74.2798 140.503 74.4081 140.162 74.6492L118.042 90.2743L112.739 86.8922L137.68 70.9767C138.033 70.7518 138.305 70.4225 138.459 70.0352C138.614 69.648 138.642 69.2223 138.54 68.8182C138.004 66.0574 138.324 63.1996 139.459 60.6244C140.594 58.0493 142.49 55.8786 144.894 54.4008C151.292 50.1096 159.518 51.0566 163.215 56.5056C166.912 61.9547 164.71 69.9144 158.314 74.2056Z" fill="#FF9F0D"/>
<path d="M70.8936 3.64643L68.6802 0.332031C63.8504 3.51634 60.2283 8.21499 58.3892 13.6818C56.5501 19.1486 56.5993 25.07 58.5292 30.5058L62.2981 29.1768C60.6662 24.5766 60.6259 19.5658 62.1836 14.9403C63.7413 10.3147 66.8076 6.33962 70.8956 3.64643H70.8936Z" fill="#FF9F0D"/>
<path d="M66.541 36.3428C65.5782 35.2561 64.7251 34.078 63.9937 32.8254L60.5327 34.8149C61.3962 36.2957 62.4041 37.6884 63.5418 38.9728L66.541 36.3428Z" fill="#FF9F0D"/>
<path d="M130.982 68.0384L136.675 39.7208C141.303 39.3202 145.596 37.1542 148.655 33.6761C151.715 30.198 153.304 25.6774 153.091 21.06C152.877 16.4427 150.877 12.0864 147.509 8.90271C144.141 5.71903 139.667 3.95462 135.021 3.97868C130.978 3.96443 127.051 5.32233 123.889 7.82823C122.241 5.41646 120.026 3.44228 117.436 2.07781C114.846 0.713334 111.96 0 109.029 0C106.098 0 103.212 0.713334 100.622 2.07781C98.0319 3.44228 95.8166 5.41646 94.1692 7.82823C91.0065 5.32233 87.0794 3.96443 83.0365 3.97868C78.407 3.97825 73.9554 5.75318 70.6073 8.93445C67.2591 12.1157 65.272 16.4586 65.0591 21.0601C64.8462 25.6616 66.4238 30.1677 69.464 33.6417C72.5042 37.1156 76.773 39.29 81.383 39.7129L87.0753 68.0384L90.9942 67.2586L89.8745 61.6722H128.183L127.064 67.2427L130.982 68.0384ZM121.331 57.6934L123.005 46.0393L119.046 45.4743L117.292 57.6934H111.028V35.8096H107.029V57.6934H100.765L99.0118 45.4743L95.053 46.0393L96.7265 57.6934H89.0747L84.9959 37.4012C84.9037 36.9518 84.6583 36.5479 84.3013 36.2579C83.9442 35.9679 83.4974 35.8095 83.0365 35.8096C79.3245 35.8096 75.7646 34.3424 73.1399 31.7308C70.5151 29.1191 69.0406 25.577 69.0406 21.8836C69.0406 18.1902 70.5151 14.648 73.1399 12.0364C75.7646 9.42475 79.3245 7.95754 83.0365 7.95754C84.9419 7.95268 86.8278 8.33885 88.5765 9.09191C90.3251 9.84498 91.8989 10.9488 93.1995 12.3343C93.4217 12.5681 93.6977 12.7448 94.0036 12.8492C94.3096 12.9536 94.6364 12.9826 94.9561 12.9337C95.2758 12.8848 95.5788 12.7595 95.8391 12.5684C96.0994 12.3774 96.3092 12.1264 96.4506 11.8369C97.5928 9.48329 99.3788 7.49782 101.604 6.10842C103.829 4.71902 106.402 3.98202 109.029 3.98202C111.656 3.98202 114.229 4.71902 116.454 6.10842C118.679 7.49782 120.465 9.48329 121.607 11.8369C121.749 12.1264 121.958 12.3774 122.219 12.5684C122.479 12.7595 122.782 12.8848 123.102 12.9337C123.421 12.9826 123.748 12.9536 124.054 12.8492C124.36 12.7448 124.636 12.5681 124.858 12.3343C126.159 10.9488 127.733 9.84498 129.481 9.09191C131.23 8.33885 133.116 7.95268 135.021 7.95754C138.733 7.95754 142.293 9.42475 144.918 12.0364C147.543 14.648 149.017 18.1902 149.017 21.8836C149.017 25.577 147.543 29.1191 144.918 31.7308C142.293 34.3424 138.733 35.8096 135.021 35.8096C134.56 35.8095 134.114 35.9679 133.757 36.2579C133.399 36.5479 133.154 36.9518 133.062 37.4012L128.983 57.6934H121.331Z" fill="#FF9F0D"/>
<path d="M1109.8 249V231.727H1113.38V238.312H1120.13V231.727H1123.71V249H1120.13V241.289H1113.38V249H1109.8ZM1133.95 242.789C1133.73 242.922 1133.52 243.031 1133.3 243.117C1133.09 243.195 1132.8 243.27 1132.42 243.34L1131.67 243.48C1130.97 243.605 1130.46 243.758 1130.16 243.938C1129.64 244.242 1129.39 244.715 1129.39 245.355C1129.39 245.926 1129.54 246.34 1129.86 246.598C1130.18 246.848 1130.56 246.973 1131.02 246.973C1131.73 246.973 1132.39 246.762 1133 246.34C1133.61 245.918 1133.92 245.148 1133.95 244.031V242.789ZM1131.92 241.23C1132.54 241.152 1132.98 241.055 1133.24 240.938C1133.72 240.734 1133.96 240.418 1133.96 239.988C1133.96 239.465 1133.77 239.105 1133.41 238.91C1133.05 238.707 1132.52 238.605 1131.81 238.605C1131.02 238.605 1130.46 238.801 1130.14 239.191C1129.9 239.48 1129.75 239.871 1129.67 240.363H1126.45C1126.52 239.246 1126.83 238.328 1127.38 237.609C1128.27 236.484 1129.78 235.922 1131.93 235.922C1133.33 235.922 1134.57 236.199 1135.66 236.754C1136.74 237.309 1137.29 238.355 1137.29 239.895V245.754C1137.29 246.16 1137.29 246.652 1137.31 247.23C1137.33 247.668 1137.4 247.965 1137.51 248.121C1137.62 248.277 1137.78 248.406 1138 248.508V249H1134.37C1134.27 248.742 1134.2 248.5 1134.16 248.273C1134.12 248.047 1134.09 247.789 1134.06 247.5C1133.6 248 1133.07 248.426 1132.47 248.777C1131.75 249.191 1130.94 249.398 1130.03 249.398C1128.88 249.398 1127.92 249.07 1127.16 248.414C1126.41 247.75 1126.04 246.812 1126.04 245.602C1126.04 244.031 1126.64 242.895 1127.85 242.191C1128.52 241.809 1129.49 241.535 1130.78 241.371L1131.92 241.23ZM1149.06 242.613C1149.06 241.629 1148.84 240.758 1148.38 240C1147.94 239.242 1147.21 238.863 1146.2 238.863C1144.99 238.863 1144.16 239.438 1143.71 240.586C1143.47 241.195 1143.36 241.969 1143.36 242.906C1143.36 244.391 1143.75 245.434 1144.54 246.035C1145.01 246.387 1145.56 246.562 1146.2 246.562C1147.13 246.562 1147.84 246.203 1148.32 245.484C1148.82 244.766 1149.06 243.809 1149.06 242.613ZM1147.16 235.945C1148.66 235.945 1149.92 236.496 1150.95 237.598C1151.99 238.699 1152.51 240.316 1152.51 242.449C1152.51 244.699 1152 246.414 1150.98 247.594C1149.98 248.773 1148.68 249.363 1147.08 249.363C1146.07 249.363 1145.22 249.109 1144.55 248.602C1144.18 248.32 1143.82 247.91 1143.47 247.371V254.027H1140.17V236.227H1143.37V238.113C1143.73 237.559 1144.11 237.121 1144.52 236.801C1145.26 236.23 1146.14 235.945 1147.16 235.945ZM1163.73 242.613C1163.73 241.629 1163.51 240.758 1163.05 240C1162.61 239.242 1161.88 238.863 1160.88 238.863C1159.66 238.863 1158.83 239.438 1158.38 240.586C1158.14 241.195 1158.03 241.969 1158.03 242.906C1158.03 244.391 1158.42 245.434 1159.21 246.035C1159.68 246.387 1160.23 246.562 1160.88 246.562C1161.8 246.562 1162.51 246.203 1163 245.484C1163.49 244.766 1163.73 243.809 1163.73 242.613ZM1161.84 235.945C1163.33 235.945 1164.59 236.496 1165.62 237.598C1166.66 238.699 1167.18 240.316 1167.18 242.449C1167.18 244.699 1166.67 246.414 1165.66 247.594C1164.65 248.773 1163.35 249.363 1161.75 249.363C1160.74 249.363 1159.89 249.109 1159.22 248.602C1158.86 248.32 1158.5 247.91 1158.14 247.371V254.027H1154.84V236.227H1158.04V238.113C1158.4 237.559 1158.78 237.121 1159.19 236.801C1159.93 236.23 1160.81 235.945 1161.84 235.945ZM1170.12 251.449L1170.54 251.473C1170.87 251.488 1171.18 251.477 1171.48 251.438C1171.78 251.398 1172.03 251.309 1172.23 251.168C1172.43 251.035 1172.61 250.758 1172.77 250.336C1172.94 249.914 1173.01 249.656 1172.98 249.562L1168.29 236.227H1172.01L1174.8 245.648L1177.43 236.227H1180.98L1176.6 248.789C1175.76 251.211 1175.09 252.711 1174.6 253.289C1174.11 253.875 1173.12 254.168 1171.64 254.168C1171.35 254.168 1171.11 254.164 1170.93 254.156C1170.75 254.156 1170.48 254.145 1170.12 254.121V251.449ZM1189.16 240.504C1189.16 237.488 1189.97 235.164 1191.59 233.531C1193 232.109 1194.79 231.398 1196.96 231.398C1199.86 231.398 1201.99 232.352 1203.33 234.258C1204.07 235.328 1204.47 236.402 1204.53 237.48H1200.92C1200.68 236.652 1200.38 236.027 1200.02 235.605C1199.36 234.855 1198.39 234.48 1197.1 234.48C1195.79 234.48 1194.75 235.012 1193.99 236.074C1193.23 237.129 1192.86 238.625 1192.86 240.562C1192.86 242.5 1193.25 243.953 1194.05 244.922C1194.86 245.883 1195.88 246.363 1197.11 246.363C1198.38 246.363 1199.34 245.949 1200 245.121C1200.37 244.676 1200.68 244.008 1200.92 243.117H1204.49C1204.18 245 1203.38 246.531 1202.09 247.711C1200.81 248.891 1199.16 249.48 1197.16 249.48C1194.67 249.48 1192.72 248.684 1191.3 247.09C1189.88 245.488 1189.16 243.293 1189.16 240.504ZM1210.32 236.227V243.926C1210.32 244.652 1210.4 245.199 1210.57 245.566C1210.88 246.215 1211.48 246.539 1212.37 246.539C1213.51 246.539 1214.29 246.078 1214.71 245.156C1214.93 244.656 1215.04 243.996 1215.04 243.176V236.227H1218.43V249H1215.18V247.195C1215.15 247.234 1215.07 247.352 1214.95 247.547C1214.82 247.742 1214.67 247.914 1214.5 248.062C1213.98 248.531 1213.47 248.852 1212.98 249.023C1212.49 249.195 1211.92 249.281 1211.27 249.281C1209.38 249.281 1208.1 248.602 1207.45 247.242C1207.08 246.492 1206.89 245.387 1206.89 243.926V236.227H1210.32ZM1224.26 244.922C1224.33 245.516 1224.48 245.938 1224.72 246.188C1225.13 246.633 1225.9 246.855 1227.02 246.855C1227.67 246.855 1228.19 246.758 1228.57 246.562C1228.96 246.367 1229.16 246.074 1229.16 245.684C1229.16 245.309 1229 245.023 1228.69 244.828C1228.38 244.633 1227.22 244.297 1225.21 243.82C1223.77 243.461 1222.75 243.012 1222.15 242.473C1221.56 241.941 1221.26 241.176 1221.26 240.176C1221.26 238.996 1221.72 237.984 1222.64 237.141C1223.57 236.289 1224.88 235.863 1226.56 235.863C1228.15 235.863 1229.45 236.184 1230.45 236.824C1231.46 237.457 1232.04 238.555 1232.18 240.117H1228.84C1228.8 239.688 1228.68 239.348 1228.48 239.098C1228.11 238.645 1227.49 238.418 1226.61 238.418C1225.88 238.418 1225.36 238.531 1225.05 238.758C1224.74 238.984 1224.59 239.25 1224.59 239.555C1224.59 239.938 1224.75 240.215 1225.08 240.387C1225.41 240.566 1226.57 240.875 1228.56 241.312C1229.89 241.625 1230.89 242.098 1231.55 242.73C1232.21 243.371 1232.54 244.172 1232.54 245.133C1232.54 246.398 1232.06 247.434 1231.12 248.238C1230.18 249.035 1228.73 249.434 1226.76 249.434C1224.75 249.434 1223.27 249.012 1222.3 248.168C1221.35 247.316 1220.88 246.234 1220.88 244.922H1224.26ZM1233.71 238.723V236.344H1235.49V232.781H1238.79V236.344H1240.87V238.723H1238.79V245.473C1238.79 245.996 1238.86 246.324 1238.99 246.457C1239.12 246.582 1239.53 246.645 1240.21 246.645C1240.31 246.645 1240.42 246.645 1240.53 246.645C1240.64 246.637 1240.76 246.629 1240.87 246.621V249.117L1239.29 249.176C1237.71 249.23 1236.63 248.957 1236.05 248.355C1235.68 247.973 1235.49 247.383 1235.49 246.586V238.723H1233.71ZM1248.74 246.645C1249.72 246.645 1250.47 246.297 1250.99 245.602C1251.52 244.906 1251.78 243.918 1251.78 242.637C1251.78 241.355 1251.52 240.371 1250.99 239.684C1250.47 238.988 1249.72 238.641 1248.74 238.641C1247.77 238.641 1247.01 238.988 1246.48 239.684C1245.96 240.371 1245.7 241.355 1245.7 242.637C1245.7 243.918 1245.96 244.906 1246.48 245.602C1247.01 246.297 1247.77 246.645 1248.74 246.645ZM1255.28 242.637C1255.28 244.512 1254.74 246.117 1253.66 247.453C1252.59 248.781 1250.95 249.445 1248.75 249.445C1246.56 249.445 1244.92 248.781 1243.84 247.453C1242.77 246.117 1242.23 244.512 1242.23 242.637C1242.23 240.793 1242.77 239.195 1243.84 237.844C1244.92 236.492 1246.56 235.816 1248.75 235.816C1250.95 235.816 1252.59 236.492 1253.66 237.844C1254.74 239.195 1255.28 240.793 1255.28 242.637ZM1271.96 235.945C1272.52 235.945 1273.07 236.055 1273.62 236.273C1274.17 236.492 1274.66 236.875 1275.11 237.422C1275.47 237.867 1275.71 238.414 1275.84 239.062C1275.91 239.492 1275.95 240.121 1275.95 240.949L1275.93 249H1272.51V240.867C1272.51 240.383 1272.43 239.984 1272.27 239.672C1271.98 239.078 1271.43 238.781 1270.63 238.781C1269.71 238.781 1269.07 239.164 1268.72 239.93C1268.54 240.336 1268.45 240.824 1268.45 241.395V249H1265.09V241.395C1265.09 240.637 1265.01 240.086 1264.86 239.742C1264.57 239.125 1264.02 238.816 1263.2 238.816C1262.25 238.816 1261.61 239.125 1261.28 239.742C1261.1 240.094 1261.01 240.617 1261.01 241.312V249H1257.62V236.25H1260.87V238.113C1261.29 237.449 1261.68 236.977 1262.04 236.695C1262.69 236.195 1263.53 235.945 1264.56 235.945C1265.54 235.945 1266.33 236.16 1266.93 236.59C1267.41 236.988 1267.78 237.5 1268.03 238.125C1268.47 237.375 1269.01 236.824 1269.66 236.473C1270.35 236.121 1271.11 235.945 1271.96 235.945ZM1284.07 238.641C1283.3 238.641 1282.7 238.883 1282.27 239.367C1281.85 239.852 1281.58 240.508 1281.47 241.336H1286.66C1286.61 240.453 1286.34 239.785 1285.86 239.332C1285.38 238.871 1284.79 238.641 1284.07 238.641ZM1284.07 235.887C1285.14 235.887 1286.09 236.086 1286.95 236.484C1287.8 236.883 1288.5 237.512 1289.05 238.371C1289.55 239.129 1289.88 240.008 1290.03 241.008C1290.11 241.594 1290.15 242.438 1290.13 243.539H1281.39C1281.44 244.82 1281.84 245.719 1282.6 246.234C1283.06 246.555 1283.61 246.715 1284.26 246.715C1284.95 246.715 1285.51 246.52 1285.94 246.129C1286.17 245.918 1286.38 245.625 1286.56 245.25H1289.97C1289.88 246.008 1289.49 246.777 1288.79 247.559C1287.69 248.801 1286.16 249.422 1284.19 249.422C1282.57 249.422 1281.13 248.898 1279.89 247.852C1278.65 246.805 1278.03 245.102 1278.03 242.742C1278.03 240.531 1278.59 238.836 1279.7 237.656C1280.83 236.477 1282.29 235.887 1284.07 235.887ZM1299.33 235.922C1299.39 235.922 1299.45 235.926 1299.48 235.934C1299.53 235.934 1299.63 235.938 1299.78 235.945V239.367C1299.57 239.344 1299.38 239.328 1299.21 239.32C1299.05 239.312 1298.92 239.309 1298.82 239.309C1297.47 239.309 1296.57 239.746 1296.11 240.621C1295.85 241.113 1295.72 241.871 1295.72 242.895V249H1292.36V236.227H1295.55V238.453C1296.06 237.602 1296.51 237.02 1296.89 236.707C1297.52 236.184 1298.33 235.922 1299.33 235.922ZM1304.35 244.922C1304.42 245.516 1304.57 245.938 1304.8 246.188C1305.22 246.633 1305.98 246.855 1307.1 246.855C1307.76 246.855 1308.28 246.758 1308.66 246.562C1309.05 246.367 1309.25 246.074 1309.25 245.684C1309.25 245.309 1309.09 245.023 1308.78 244.828C1308.46 244.633 1307.3 244.297 1305.3 243.82C1303.85 243.461 1302.83 243.012 1302.24 242.473C1301.64 241.941 1301.35 241.176 1301.35 240.176C1301.35 238.996 1301.81 237.984 1302.73 237.141C1303.66 236.289 1304.96 235.863 1306.64 235.863C1308.24 235.863 1309.54 236.184 1310.54 236.824C1311.54 237.457 1312.12 238.555 1312.27 240.117H1308.93C1308.88 239.688 1308.76 239.348 1308.57 239.098C1308.2 238.645 1307.57 238.418 1306.69 238.418C1305.96 238.418 1305.45 238.531 1305.13 238.758C1304.83 238.984 1304.68 239.25 1304.68 239.555C1304.68 239.938 1304.84 240.215 1305.17 240.387C1305.5 240.566 1306.66 240.875 1308.65 241.312C1309.98 241.625 1310.97 242.098 1311.64 242.73C1312.29 243.371 1312.62 244.172 1312.62 245.133C1312.62 246.398 1312.15 247.434 1311.2 248.238C1310.27 249.035 1308.81 249.434 1306.84 249.434C1304.84 249.434 1303.35 249.012 1302.39 248.168C1301.44 247.316 1300.96 246.234 1300.96 244.922H1304.35Z" fill="white"/>
<path d="M1179.25 197C1179.3 194.969 1179.74 193.113 1180.56 191.434C1181.35 189.546 1183.23 187.547 1186.18 185.438C1188.75 183.602 1190.41 182.286 1191.16 181.492C1192.32 180.255 1192.9 178.901 1192.9 177.43C1192.9 176.232 1192.57 175.236 1191.91 174.441C1191.24 173.647 1190.29 173.25 1189.05 173.25C1187.36 173.25 1186.21 173.882 1185.6 175.145C1185.25 175.874 1185.04 177.033 1184.97 178.621H1179.56C1179.65 176.212 1180.09 174.266 1180.87 172.781C1182.36 169.956 1184.99 168.543 1188.78 168.543C1191.78 168.543 1194.16 169.376 1195.93 171.043C1197.7 172.697 1198.59 174.891 1198.59 177.625C1198.59 179.721 1197.96 181.583 1196.71 183.211C1195.89 184.292 1194.54 185.496 1192.67 186.824L1190.44 188.406C1189.05 189.396 1188.09 190.112 1187.57 190.555C1187.06 190.997 1186.63 191.512 1186.28 192.098H1198.64V197H1179.25ZM1201.52 197C1201.57 194.969 1202 193.113 1202.82 191.434C1203.62 189.546 1205.49 187.547 1208.45 185.438C1211.01 183.602 1212.67 182.286 1213.43 181.492C1214.59 180.255 1215.17 178.901 1215.17 177.43C1215.17 176.232 1214.84 175.236 1214.17 174.441C1213.51 173.647 1212.56 173.25 1211.32 173.25C1209.63 173.25 1208.48 173.882 1207.86 175.145C1207.51 175.874 1207.3 177.033 1207.24 178.621H1201.83C1201.92 176.212 1202.36 174.266 1203.14 172.781C1204.62 169.956 1207.26 168.543 1211.05 168.543C1214.04 168.543 1216.42 169.376 1218.2 171.043C1219.97 172.697 1220.85 174.891 1220.85 177.625C1220.85 179.721 1220.23 181.583 1218.98 183.211C1218.16 184.292 1216.81 185.496 1214.93 186.824L1212.71 188.406C1211.31 189.396 1210.36 190.112 1209.84 190.555C1209.33 190.997 1208.9 191.512 1208.55 192.098H1220.91V197H1201.52ZM1229.46 183.113C1229.46 186.368 1229.73 188.862 1230.27 190.594C1230.8 192.312 1231.89 193.172 1233.55 193.172C1235.2 193.172 1236.28 192.312 1236.79 190.594C1237.31 188.862 1237.57 186.368 1237.57 183.113C1237.57 179.702 1237.31 177.176 1236.79 175.535C1236.28 173.895 1235.2 173.074 1233.55 173.074C1231.89 173.074 1230.8 173.895 1230.27 175.535C1229.73 177.176 1229.46 179.702 1229.46 183.113ZM1233.55 168.484C1237.15 168.484 1239.68 169.754 1241.12 172.293C1242.58 174.832 1243.31 178.439 1243.31 183.113C1243.31 187.788 1242.58 191.388 1241.12 193.914C1239.68 196.44 1237.15 197.703 1233.55 197.703C1229.94 197.703 1227.41 196.44 1225.95 193.914C1224.5 191.388 1223.78 187.788 1223.78 183.113C1223.78 178.439 1224.5 174.832 1225.95 172.293C1227.41 169.754 1229.94 168.484 1233.55 168.484Z" fill="white"/>
<path d="M1270.3 0.670543C1269.66 0.0439349 1268.72 -0.165244 1267.87 0.135509L1170.52 34.5564C1167.14 32.5055 1162.85 32.0254 1158.91 33.6409C1152.38 36.3238 1149.27 43.7754 1151.98 50.2523C1158.36 65.5242 1167.57 79.1946 1179.35 90.8833C1191.14 102.572 1204.93 111.706 1220.33 118.032C1221.93 118.689 1223.58 119 1225.21 119C1230.25 119 1235.03 116.042 1237.08 111.151C1238.45 107.861 1238.32 104.319 1237.01 101.278L1270.87 3.0768C1271.16 2.23265 1270.94 1.29738 1270.3 0.670543ZM1185.26 34.2796L1195.58 30.632C1196.79 31.9117 1197.38 33.6735 1197.14 35.4552C1196.93 37.024 1196.12 38.4188 1194.86 39.3822C1193.59 40.3456 1192.02 40.7618 1190.44 40.5557C1188.86 40.3491 1187.45 39.5442 1186.48 38.2886C1185.59 37.1319 1185.16 35.7206 1185.26 34.2796ZM1232.75 109.372C1231.03 113.481 1226.26 115.439 1222.12 113.737C1192.11 101.41 1168.74 78.2324 1156.31 48.4731C1155.48 46.4829 1155.48 44.2909 1156.31 42.3005C1157.14 40.3102 1158.7 38.7602 1160.71 37.9358C1162.72 37.1114 1164.93 37.1114 1166.93 37.9358C1168.94 38.7602 1170.5 40.3102 1171.33 42.3005C1176.65 55.0388 1184.34 66.4409 1194.17 76.1905C1204 85.9401 1215.5 93.5587 1228.34 98.8351C1232.49 100.537 1234.46 105.264 1232.75 109.372ZM1253.57 38.8908C1253.36 38.8857 1253.14 38.8736 1252.93 38.8462C1251.35 38.6396 1249.94 37.8345 1248.97 36.5792C1248 35.3239 1247.58 33.7683 1247.79 32.1997C1248.22 28.9611 1251.22 26.6736 1254.49 27.0994C1255.5 27.231 1256.45 27.6186 1257.25 28.2083L1253.57 38.8908ZM1258.81 23.6891C1257.67 23.0725 1256.41 22.6618 1255.1 22.4907C1249.27 21.7277 1243.91 25.813 1243.14 31.593C1242.77 34.3928 1243.52 37.1686 1245.25 39.4091C1246.92 41.5672 1249.31 42.977 1252.01 43.407L1247.35 56.9151L1242 52.8385C1240.97 52.0575 1239.5 52.249 1238.71 53.2675C1237.92 54.286 1238.11 55.7449 1239.14 56.5263L1245.75 61.5563L1233.64 96.688C1232.62 95.8118 1231.45 95.0787 1230.14 94.5402C1205.3 84.3371 1185.95 65.1531 1175.67 40.5215C1175.31 39.6648 1174.86 38.8695 1174.35 38.1369L1180.63 35.9177C1180.85 37.7929 1181.57 39.5816 1182.76 41.1181C1184.5 43.3587 1187.01 44.7955 1189.83 45.1639C1190.3 45.2257 1190.77 45.2564 1191.24 45.2564C1193.57 45.2564 1195.83 44.501 1197.71 43.07C1199.97 41.3506 1201.42 38.862 1201.79 36.0618C1202.12 33.5482 1201.53 31.0585 1200.2 28.996L1229.34 18.6946L1230.44 21.3382C1230.82 22.2332 1231.69 22.7736 1232.61 22.7736C1232.91 22.7736 1233.21 22.7164 1233.51 22.596C1234.7 22.1049 1235.27 20.745 1234.77 19.5592L1233.76 17.1316L1264.87 6.13291L1258.81 23.6891Z" fill="#FF9F0D"/>
<path d="M711.684 231.727H715.773L709.996 242.508V249H706.387V242.508L700.41 231.727H704.664L708.25 239.25L711.684 231.727ZM721.293 238.641C720.52 238.641 719.918 238.883 719.488 239.367C719.066 239.852 718.801 240.508 718.691 241.336H723.883C723.828 240.453 723.559 239.785 723.074 239.332C722.598 238.871 722.004 238.641 721.293 238.641ZM721.293 235.887C722.355 235.887 723.312 236.086 724.164 236.484C725.016 236.883 725.719 237.512 726.273 238.371C726.773 239.129 727.098 240.008 727.246 241.008C727.332 241.594 727.367 242.438 727.352 243.539H718.609C718.656 244.82 719.059 245.719 719.816 246.234C720.277 246.555 720.832 246.715 721.48 246.715C722.168 246.715 722.727 246.52 723.156 246.129C723.391 245.918 723.598 245.625 723.777 245.25H727.188C727.102 246.008 726.707 246.777 726.004 247.559C724.91 248.801 723.379 249.422 721.41 249.422C719.785 249.422 718.352 248.898 717.109 247.852C715.867 246.805 715.246 245.102 715.246 242.742C715.246 240.531 715.805 238.836 716.922 237.656C718.047 236.477 719.504 235.887 721.293 235.887ZM736.656 242.789C736.445 242.922 736.23 243.031 736.012 243.117C735.801 243.195 735.508 243.27 735.133 243.34L734.383 243.48C733.68 243.605 733.176 243.758 732.871 243.938C732.355 244.242 732.098 244.715 732.098 245.355C732.098 245.926 732.254 246.34 732.566 246.598C732.887 246.848 733.273 246.973 733.727 246.973C734.445 246.973 735.105 246.762 735.707 246.34C736.316 245.918 736.633 245.148 736.656 244.031V242.789ZM734.629 241.23C735.246 241.152 735.688 241.055 735.953 240.938C736.43 240.734 736.668 240.418 736.668 239.988C736.668 239.465 736.484 239.105 736.117 238.91C735.758 238.707 735.227 238.605 734.523 238.605C733.734 238.605 733.176 238.801 732.848 239.191C732.613 239.48 732.457 239.871 732.379 240.363H729.156C729.227 239.246 729.539 238.328 730.094 237.609C730.977 236.484 732.492 235.922 734.641 235.922C736.039 235.922 737.281 236.199 738.367 236.754C739.453 237.309 739.996 238.355 739.996 239.895V245.754C739.996 246.16 740.004 246.652 740.02 247.23C740.043 247.668 740.109 247.965 740.219 248.121C740.328 248.277 740.492 248.406 740.711 248.508V249H737.078C736.977 248.742 736.906 248.5 736.867 248.273C736.828 248.047 736.797 247.789 736.773 247.5C736.312 248 735.781 248.426 735.18 248.777C734.461 249.191 733.648 249.398 732.742 249.398C731.586 249.398 730.629 249.07 729.871 248.414C729.121 247.75 728.746 246.812 728.746 245.602C728.746 244.031 729.352 242.895 730.562 242.191C731.227 241.809 732.203 241.535 733.492 241.371L734.629 241.23ZM749.91 235.922C749.973 235.922 750.023 235.926 750.062 235.934C750.109 235.934 750.207 235.938 750.355 235.945V239.367C750.145 239.344 749.957 239.328 749.793 239.32C749.629 239.312 749.496 239.309 749.395 239.309C748.051 239.309 747.148 239.746 746.688 240.621C746.43 241.113 746.301 241.871 746.301 242.895V249H742.938V236.227H746.125V238.453C746.641 237.602 747.09 237.02 747.473 236.707C748.098 236.184 748.91 235.922 749.91 235.922ZM754.926 244.922C754.996 245.516 755.148 245.938 755.383 246.188C755.797 246.633 756.562 246.855 757.68 246.855C758.336 246.855 758.855 246.758 759.238 246.562C759.629 246.367 759.824 246.074 759.824 245.684C759.824 245.309 759.668 245.023 759.355 244.828C759.043 244.633 757.883 244.297 755.875 243.82C754.43 243.461 753.41 243.012 752.816 242.473C752.223 241.941 751.926 241.176 751.926 240.176C751.926 238.996 752.387 237.984 753.309 237.141C754.238 236.289 755.543 235.863 757.223 235.863C758.816 235.863 760.113 236.184 761.113 236.824C762.121 237.457 762.699 238.555 762.848 240.117H759.508C759.461 239.688 759.34 239.348 759.145 239.098C758.777 238.645 758.152 238.418 757.27 238.418C756.543 238.418 756.023 238.531 755.711 238.758C755.406 238.984 755.254 239.25 755.254 239.555C755.254 239.938 755.418 240.215 755.746 240.387C756.074 240.566 757.234 240.875 759.227 241.312C760.555 241.625 761.551 242.098 762.215 242.73C762.871 243.371 763.199 244.172 763.199 245.133C763.199 246.398 762.727 247.434 761.781 248.238C760.844 249.035 759.391 249.434 757.422 249.434C755.414 249.434 753.93 249.012 752.969 248.168C752.016 247.316 751.539 246.234 751.539 244.922H754.926ZM780.273 246.422C781.703 246.422 782.836 245.895 783.672 244.84C784.516 243.785 784.938 242.285 784.938 240.34C784.938 238.402 784.516 236.906 783.672 235.852C782.836 234.789 781.703 234.258 780.273 234.258C778.844 234.258 777.703 234.785 776.852 235.84C776 236.895 775.574 238.395 775.574 240.34C775.574 242.285 776 243.785 776.852 244.84C777.703 245.895 778.844 246.422 780.273 246.422ZM788.547 240.34C788.547 243.441 787.676 245.816 785.934 247.465C784.629 248.809 782.742 249.48 780.273 249.48C777.805 249.48 775.918 248.809 774.613 247.465C772.863 245.816 771.988 243.441 771.988 240.34C771.988 237.176 772.863 234.801 774.613 233.215C775.918 231.871 777.805 231.199 780.273 231.199C782.742 231.199 784.629 231.871 785.934 233.215C787.676 234.801 788.547 237.176 788.547 240.34ZM795.754 231.551C795.965 231.551 796.156 231.559 796.328 231.574C796.5 231.582 796.734 231.598 797.031 231.621V234.34C796.844 234.316 796.527 234.301 796.082 234.293C795.645 234.277 795.34 234.375 795.168 234.586C795.004 234.789 794.922 235.016 794.922 235.266C794.922 235.516 794.922 235.875 794.922 236.344H797.113V238.699H794.922V249H791.594V238.699H789.73V236.344H791.559V235.523C791.559 234.156 791.789 233.215 792.25 232.699C792.734 231.934 793.902 231.551 795.754 231.551ZM818.758 234.785H809.617V238.453H818.008V241.453H809.617V245.895H819.18V249H806.09V231.727H818.758V234.785ZM820.469 249L824.828 242.531L820.656 236.25H824.746L826.879 239.953L828.965 236.25H832.938L828.742 242.473L833.102 249H828.941L826.738 245.168L824.523 249H820.469ZM843.883 242.613C843.883 241.629 843.656 240.758 843.203 240C842.758 239.242 842.031 238.863 841.023 238.863C839.812 238.863 838.98 239.438 838.527 240.586C838.293 241.195 838.176 241.969 838.176 242.906C838.176 244.391 838.57 245.434 839.359 246.035C839.828 246.387 840.383 246.562 841.023 246.562C841.953 246.562 842.66 246.203 843.145 245.484C843.637 244.766 843.883 243.809 843.883 242.613ZM841.984 235.945C843.477 235.945 844.738 236.496 845.77 237.598C846.809 238.699 847.328 240.316 847.328 242.449C847.328 244.699 846.82 246.414 845.805 247.594C844.797 248.773 843.496 249.363 841.902 249.363C840.887 249.363 840.043 249.109 839.371 248.602C839.004 248.32 838.645 247.91 838.293 247.371V254.027H834.988V236.227H838.188V238.113C838.547 237.559 838.93 237.121 839.336 236.801C840.078 236.23 840.961 235.945 841.984 235.945ZM854.793 238.641C854.02 238.641 853.418 238.883 852.988 239.367C852.566 239.852 852.301 240.508 852.191 241.336H857.383C857.328 240.453 857.059 239.785 856.574 239.332C856.098 238.871 855.504 238.641 854.793 238.641ZM854.793 235.887C855.855 235.887 856.812 236.086 857.664 236.484C858.516 236.883 859.219 237.512 859.773 238.371C860.273 239.129 860.598 240.008 860.746 241.008C860.832 241.594 860.867 242.438 860.852 243.539H852.109C852.156 244.82 852.559 245.719 853.316 246.234C853.777 246.555 854.332 246.715 854.98 246.715C855.668 246.715 856.227 246.52 856.656 246.129C856.891 245.918 857.098 245.625 857.277 245.25H860.688C860.602 246.008 860.207 246.777 859.504 247.559C858.41 248.801 856.879 249.422 854.91 249.422C853.285 249.422 851.852 248.898 850.609 247.852C849.367 246.805 848.746 245.102 848.746 242.742C848.746 240.531 849.305 238.836 850.422 237.656C851.547 236.477 853.004 235.887 854.793 235.887ZM870.051 235.922C870.113 235.922 870.164 235.926 870.203 235.934C870.25 235.934 870.348 235.938 870.496 235.945V239.367C870.285 239.344 870.098 239.328 869.934 239.32C869.77 239.312 869.637 239.309 869.535 239.309C868.191 239.309 867.289 239.746 866.828 240.621C866.57 241.113 866.441 241.871 866.441 242.895V249H863.078V236.227H866.266V238.453C866.781 237.602 867.23 237.02 867.613 236.707C868.238 236.184 869.051 235.922 870.051 235.922ZM875.898 234.703H872.512V231.621H875.898V234.703ZM872.512 236.227H875.898V249H872.512V236.227ZM884.184 238.641C883.41 238.641 882.809 238.883 882.379 239.367C881.957 239.852 881.691 240.508 881.582 241.336H886.773C886.719 240.453 886.449 239.785 885.965 239.332C885.488 238.871 884.895 238.641 884.184 238.641ZM884.184 235.887C885.246 235.887 886.203 236.086 887.055 236.484C887.906 236.883 888.609 237.512 889.164 238.371C889.664 239.129 889.988 240.008 890.137 241.008C890.223 241.594 890.258 242.438 890.242 243.539H881.5C881.547 244.82 881.949 245.719 882.707 246.234C883.168 246.555 883.723 246.715 884.371 246.715C885.059 246.715 885.617 246.52 886.047 246.129C886.281 245.918 886.488 245.625 886.668 245.25H890.078C889.992 246.008 889.598 246.777 888.895 247.559C887.801 248.801 886.27 249.422 884.301 249.422C882.676 249.422 881.242 248.898 880 247.852C878.758 246.805 878.137 245.102 878.137 242.742C878.137 240.531 878.695 238.836 879.812 237.656C880.938 236.477 882.395 235.887 884.184 235.887ZM899.582 235.922C900.902 235.922 901.98 236.27 902.816 236.965C903.66 237.652 904.082 238.797 904.082 240.398V249H900.66V241.23C900.66 240.559 900.57 240.043 900.391 239.684C900.062 239.027 899.438 238.699 898.516 238.699C897.383 238.699 896.605 239.18 896.184 240.141C895.965 240.648 895.855 241.297 895.855 242.086V249H892.527V236.25H895.75V238.113C896.18 237.457 896.586 236.984 896.969 236.695C897.656 236.18 898.527 235.922 899.582 235.922ZM914.805 240.809C914.742 240.332 914.582 239.902 914.324 239.52C913.949 239.004 913.367 238.746 912.578 238.746C911.453 238.746 910.684 239.305 910.27 240.422C910.051 241.016 909.941 241.805 909.941 242.789C909.941 243.727 910.051 244.48 910.27 245.051C910.668 246.113 911.418 246.645 912.52 246.645C913.301 246.645 913.855 246.434 914.184 246.012C914.512 245.59 914.711 245.043 914.781 244.371H918.191C918.113 245.387 917.746 246.348 917.09 247.254C916.043 248.715 914.492 249.445 912.438 249.445C910.383 249.445 908.871 248.836 907.902 247.617C906.934 246.398 906.449 244.816 906.449 242.871C906.449 240.676 906.984 238.969 908.055 237.75C909.125 236.531 910.602 235.922 912.484 235.922C914.086 235.922 915.395 236.281 916.41 237C917.434 237.719 918.039 238.988 918.227 240.809H914.805ZM925.574 238.641C924.801 238.641 924.199 238.883 923.77 239.367C923.348 239.852 923.082 240.508 922.973 241.336H928.164C928.109 240.453 927.84 239.785 927.355 239.332C926.879 238.871 926.285 238.641 925.574 238.641ZM925.574 235.887C926.637 235.887 927.594 236.086 928.445 236.484C929.297 236.883 930 237.512 930.555 238.371C931.055 239.129 931.379 240.008 931.527 241.008C931.613 241.594 931.648 242.438 931.633 243.539H922.891C922.938 244.82 923.34 245.719 924.098 246.234C924.559 246.555 925.113 246.715 925.762 246.715C926.449 246.715 927.008 246.52 927.438 246.129C927.672 245.918 927.879 245.625 928.059 245.25H931.469C931.383 246.008 930.988 246.777 930.285 247.559C929.191 248.801 927.66 249.422 925.691 249.422C924.066 249.422 922.633 248.898 921.391 247.852C920.148 246.805 919.527 245.102 919.527 242.742C919.527 240.531 920.086 238.836 921.203 237.656C922.328 236.477 923.785 235.887 925.574 235.887ZM938.605 235.922C939.379 235.922 940.066 236.094 940.668 236.438C941.27 236.773 941.758 237.242 942.133 237.844V231.75H945.52V249H942.273V247.23C941.797 247.988 941.254 248.539 940.645 248.883C940.035 249.227 939.277 249.398 938.371 249.398C936.879 249.398 935.621 248.797 934.598 247.594C933.582 246.383 933.074 244.832 933.074 242.941C933.074 240.762 933.574 239.047 934.574 237.797C935.582 236.547 936.926 235.922 938.605 235.922ZM939.332 246.586C940.277 246.586 940.996 246.234 941.488 245.531C941.98 244.828 942.227 243.918 942.227 242.801C942.227 241.238 941.832 240.121 941.043 239.449C940.559 239.043 939.996 238.84 939.355 238.84C938.379 238.84 937.66 239.211 937.199 239.953C936.746 240.688 936.52 241.602 936.52 242.695C936.52 243.875 936.75 244.82 937.211 245.531C937.68 246.234 938.387 246.586 939.332 246.586Z" fill="white"/>
<path d="M796.523 188.309C796.523 189.441 796.706 190.379 797.07 191.121C797.747 192.488 798.978 193.172 800.762 193.172C801.855 193.172 802.806 192.801 803.613 192.059C804.434 191.303 804.844 190.223 804.844 188.816C804.844 186.954 804.089 185.711 802.578 185.086C801.719 184.734 800.365 184.559 798.516 184.559V180.574C800.326 180.548 801.589 180.372 802.305 180.047C803.542 179.5 804.16 178.393 804.16 176.727C804.16 175.646 803.841 174.767 803.203 174.09C802.578 173.413 801.693 173.074 800.547 173.074C799.232 173.074 798.262 173.491 797.637 174.324C797.025 175.158 796.732 176.271 796.758 177.664H791.562C791.615 176.258 791.855 174.923 792.285 173.66C792.741 172.553 793.457 171.531 794.434 170.594C795.163 169.93 796.029 169.422 797.031 169.07C798.034 168.719 799.264 168.543 800.723 168.543C803.431 168.543 805.612 169.246 807.266 170.652C808.932 172.046 809.766 173.921 809.766 176.277C809.766 177.944 809.271 179.35 808.281 180.496C807.656 181.212 807.005 181.701 806.328 181.961C806.836 181.961 807.565 182.397 808.516 183.27C809.935 184.585 810.645 186.382 810.645 188.66C810.645 191.056 809.811 193.165 808.145 194.988C806.491 196.798 804.036 197.703 800.781 197.703C796.771 197.703 793.984 196.395 792.422 193.777C791.602 192.384 791.146 190.561 791.055 188.309H796.523ZM819.199 183.113C819.199 186.368 819.466 188.862 820 190.594C820.534 192.312 821.628 193.172 823.281 193.172C824.935 193.172 826.016 192.312 826.523 190.594C827.044 188.862 827.305 186.368 827.305 183.113C827.305 179.702 827.044 177.176 826.523 175.535C826.016 173.895 824.935 173.074 823.281 173.074C821.628 173.074 820.534 173.895 820 175.535C819.466 177.176 819.199 179.702 819.199 183.113ZM823.281 168.484C826.888 168.484 829.414 169.754 830.859 172.293C832.318 174.832 833.047 178.439 833.047 183.113C833.047 187.788 832.318 191.388 830.859 193.914C829.414 196.44 826.888 197.703 823.281 197.703C819.674 197.703 817.142 196.44 815.684 193.914C814.238 191.388 813.516 187.788 813.516 183.113C813.516 178.439 814.238 174.832 815.684 172.293C817.142 169.754 819.674 168.484 823.281 168.484ZM835.957 188.953V183.855H843.965V175.848H849.102V183.855H857.109V188.953H849.102V197H843.965V188.953H835.957Z" fill="white"/>
<path d="M853.201 47.5742L860.251 47.1287C860.263 47.1278 860.276 47.1269 860.289 47.126C865.313 46.7032 869.823 44.0783 872.663 39.9222L878.237 31.7671C883.088 24.6674 884.968 16.0923 883.528 7.62214C883.245 5.95861 882.392 4.42565 881.126 3.30719C879.86 2.18782 878.232 1.52679 876.542 1.44645C867.935 1.03559 859.626 3.92531 853.141 9.57967L845.69 16.0758C841.893 19.3855 839.82 24.1652 840.002 29.1914C840.003 29.2033 840.003 29.2161 840.004 29.2289L840.405 36.2619C840.562 39.0037 839.554 41.709 837.645 43.6793L779.438 103.313C777.879 104.933 777.075 107.156 777.173 109.573C777.281 112.234 778.505 114.847 780.447 116.564C782.202 118.115 784.615 118.999 787.026 118.999C787.285 118.999 787.543 118.989 787.8 118.968C790.218 118.776 792.336 117.713 793.769 115.965L846.144 51.2008C847.881 49.0698 850.453 47.7477 853.201 47.5742ZM843.348 48.9438L790.978 113.703C790.178 114.678 788.947 115.279 787.513 115.393C785.808 115.529 784.059 114.963 782.834 113.88C781.609 112.796 780.836 111.133 780.768 109.428C780.709 107.995 781.159 106.705 782.025 105.805L840.228 46.1764C842.837 43.4839 844.21 39.7962 843.998 36.0583L843.596 29.0435C843.46 25.1093 845.085 21.3686 848.057 18.7766L855.508 12.2804C861.291 7.23959 868.701 4.66577 876.371 5.02915C877.245 5.07115 878.085 5.41262 878.74 5.99148C879.394 6.56943 879.835 7.36193 879.981 8.22109C881.265 15.7727 879.589 23.4165 875.264 29.7456L869.691 37.9017C867.467 41.1557 863.937 43.2127 860.004 43.5496L852.973 43.9934C849.227 44.2308 845.72 46.0331 843.348 48.9438Z" fill="#FF9F0D"/>
<path d="M880.677 102.86L841.649 67.4097C840.915 66.7423 839.778 66.7952 839.108 67.5275C838.439 68.2597 838.492 69.3946 839.227 70.062L878.245 105.504C879.173 106.359 879.699 107.62 879.728 109.054C879.762 110.759 879.091 112.466 877.932 113.62C876.775 114.775 875.067 115.446 873.353 115.411C871.916 115.383 870.651 114.858 869.803 113.942L835.025 75.8652C834.356 75.132 833.218 75.08 832.484 75.7465C831.75 76.4139 831.696 77.5488 832.366 78.2811L867.151 116.367C868.68 118.016 870.857 118.951 873.282 118.998C873.346 118.999 873.408 119 873.471 119C876.078 119 878.684 117.945 880.476 116.158C882.312 114.326 883.377 111.645 883.324 108.983C883.276 106.565 882.34 104.393 880.677 102.86Z" fill="#FF9F0D"/>
<path d="M785.705 47.2345C788.682 49.9699 792.551 51.5293 796.597 51.6261C796.61 51.627 796.623 51.627 796.635 51.627L803.699 51.649C806.453 51.6572 809.1 52.8231 810.957 54.8418L814.069 58.2483C814.424 58.6372 814.911 58.8344 815.399 58.8344C815.832 58.8344 816.266 58.6801 816.61 58.367C817.345 57.6995 817.398 56.5647 816.729 55.8324L813.612 52.4214C811.074 49.6622 807.465 48.0736 803.711 48.0608L796.666 48.0389C793.536 47.9594 790.543 46.7643 788.224 44.6707L767.752 20.4008C767.543 20.1524 767.559 19.7927 767.788 19.5635C767.946 19.4056 768.131 19.3828 768.227 19.3828C768.323 19.3828 768.508 19.4056 768.666 19.5635L787.301 38.1481C789.143 39.9851 792.14 39.9851 793.982 38.1472L796.172 35.9641V35.9632L800.061 32.0856C800.061 32.0856 800.062 32.0856 800.062 32.0847L800.063 32.0838L802.252 29.9008C804.094 28.0638 804.094 25.0745 802.252 23.2375L783.617 4.65389C783.375 4.41286 783.375 4.01934 783.617 3.77831C783.847 3.54914 784.207 3.53362 784.456 3.74179L808.793 24.1588C810.893 26.4706 812.092 29.4561 812.171 32.5768L812.192 39.6035C812.205 43.3468 813.799 46.946 816.569 49.4823L819.904 52.5108C820.639 53.1783 821.776 53.1253 822.445 52.3931C823.114 51.6599 823.061 50.5259 822.326 49.8585L818.997 46.8346C816.968 44.9775 815.8 42.337 815.79 39.5916L815.768 32.5467C815.768 32.5339 815.768 32.5211 815.767 32.5084C815.67 28.4728 814.107 24.6153 811.364 21.6461C811.313 21.5905 811.258 21.5375 811.199 21.4882L786.772 0.996329C785.084 -0.420681 782.634 -0.31477 781.074 1.24102C779.428 2.88172 779.428 5.55048 781.074 7.19027L799.708 25.7748C800.148 26.2131 800.148 26.9261 799.708 27.3644L798.79 28.2792L778.021 7.56826C777.319 6.86706 776.18 6.86706 775.478 7.56826C774.776 8.26855 774.776 9.40435 775.478 10.1046L796.247 30.8165L794.901 32.1578L774.132 11.4468C773.43 10.7465 772.291 10.7465 771.589 11.4468C770.886 12.1471 770.886 13.2829 771.589 13.9832L792.357 34.695L791.439 35.6108C791 36.0491 790.285 36.0491 789.845 35.6108L771.21 17.0272C770.413 16.2328 769.354 15.7946 768.227 15.7946C767.1 15.7946 766.041 16.2328 765.244 17.0272C763.684 18.583 763.579 21.0262 764.999 22.7107L785.548 47.0701C785.596 47.1286 785.649 47.1834 785.705 47.2345Z" fill="#FF9F0D"/>
</svg>
