    <svg width="376" height="284" viewBox="0 0 376 284" fill="none" xmlns="http://www.w3.org/2000/svg">
    <path d="M10.7666 182.089V183.627H6.41602V195H4.64062V183.627H0.290039V182.089H10.7666ZM13.8955 193.98C14.9443 193.98 15.6621 193.585 16.0488 192.794C16.4414 191.997 16.6377 191.112 16.6377 190.14C16.6377 189.261 16.4971 188.546 16.2158 187.995C15.7705 187.128 15.0029 186.694 13.9131 186.694C12.9463 186.694 12.2432 187.063 11.8037 187.802C11.3643 188.54 11.1445 189.431 11.1445 190.474C11.1445 191.476 11.3643 192.311 11.8037 192.979C12.2432 193.646 12.9404 193.98 13.8955 193.98ZM13.957 185.314C15.1699 185.314 16.1953 185.719 17.0332 186.527C17.8711 187.336 18.29 188.525 18.29 190.096C18.29 191.613 17.9209 192.867 17.1826 193.857C16.4443 194.848 15.2988 195.343 13.7461 195.343C12.4512 195.343 11.4229 194.906 10.6611 194.033C9.89941 193.154 9.51855 191.977 9.51855 190.5C9.51855 188.918 9.91992 187.658 10.7227 186.721C11.5254 185.783 12.6035 185.314 13.957 185.314ZM20.4961 182.959H22.0957V185.587H23.5986V186.879H22.0957V193.022C22.0957 193.351 22.207 193.57 22.4297 193.682C22.5527 193.746 22.7578 193.778 23.0449 193.778C23.1211 193.778 23.2031 193.778 23.291 193.778C23.3789 193.772 23.4814 193.764 23.5986 193.752V195C23.417 195.053 23.2266 195.091 23.0273 195.114C22.834 195.138 22.623 195.149 22.3945 195.149C21.6562 195.149 21.1553 194.962 20.8916 194.587C20.6279 194.206 20.4961 193.714 20.4961 193.11V186.879H19.2217V185.587H20.4961V182.959ZM26.4023 192.495C26.4023 192.952 26.5693 193.312 26.9033 193.576C27.2373 193.84 27.6328 193.972 28.0898 193.972C28.6465 193.972 29.1855 193.843 29.707 193.585C30.5859 193.157 31.0254 192.457 31.0254 191.484V190.21C30.832 190.333 30.583 190.436 30.2783 190.518C29.9736 190.6 29.6748 190.658 29.3818 190.693L28.4238 190.816C27.8496 190.893 27.4189 191.013 27.1318 191.177C26.6455 191.452 26.4023 191.892 26.4023 192.495ZM30.2344 189.296C30.5977 189.249 30.8408 189.097 30.9639 188.839C31.0342 188.698 31.0693 188.496 31.0693 188.232C31.0693 187.693 30.876 187.304 30.4893 187.063C30.1084 186.817 29.5605 186.694 28.8457 186.694C28.0195 186.694 27.4336 186.917 27.0879 187.362C26.8945 187.608 26.7686 187.975 26.71 188.461H25.2334C25.2627 187.301 25.6377 186.495 26.3584 186.044C27.085 185.587 27.9258 185.358 28.8809 185.358C29.9883 185.358 30.8877 185.569 31.5791 185.991C32.2646 186.413 32.6074 187.069 32.6074 187.96V193.383C32.6074 193.547 32.6396 193.679 32.7041 193.778C32.7744 193.878 32.918 193.928 33.1348 193.928C33.2051 193.928 33.2842 193.925 33.3721 193.919C33.46 193.907 33.5537 193.893 33.6533 193.875V195.044C33.4072 195.114 33.2197 195.158 33.0908 195.176C32.9619 195.193 32.7861 195.202 32.5635 195.202C32.0186 195.202 31.623 195.009 31.377 194.622C31.248 194.417 31.1572 194.127 31.1045 193.752C30.7822 194.174 30.3193 194.54 29.7158 194.851C29.1123 195.161 28.4473 195.316 27.7207 195.316C26.8477 195.316 26.1328 195.053 25.5762 194.525C25.0254 193.992 24.75 193.327 24.75 192.53C24.75 191.657 25.0225 190.98 25.5674 190.5C26.1123 190.02 26.8271 189.724 27.7119 189.612L30.2344 189.296ZM35.2529 182.089H36.835V195H35.2529V182.089Z" fill="#333333"/>
    <path d="M319.413 192.258H317.972V195H315.52V192.258H310.475V190.069L315.159 182.335H317.972V190.298H319.413V192.258ZM315.52 190.298V184.796L312.329 190.298H315.52ZM322.955 191.089C322.955 191.599 323.037 192.021 323.201 192.354C323.506 192.97 324.06 193.277 324.862 193.277C325.354 193.277 325.782 193.11 326.146 192.776C326.515 192.437 326.699 191.95 326.699 191.317C326.699 190.479 326.359 189.92 325.68 189.639C325.293 189.48 324.684 189.401 323.852 189.401V187.608C324.666 187.597 325.234 187.518 325.557 187.371C326.113 187.125 326.392 186.627 326.392 185.877C326.392 185.391 326.248 184.995 325.961 184.69C325.68 184.386 325.281 184.233 324.766 184.233C324.174 184.233 323.737 184.421 323.456 184.796C323.181 185.171 323.049 185.672 323.061 186.299H320.723C320.746 185.666 320.854 185.065 321.048 184.497C321.253 183.999 321.575 183.539 322.015 183.117C322.343 182.818 322.732 182.59 323.184 182.432C323.635 182.273 324.188 182.194 324.845 182.194C326.063 182.194 327.045 182.511 327.789 183.144C328.539 183.771 328.914 184.614 328.914 185.675C328.914 186.425 328.691 187.058 328.246 187.573C327.965 187.896 327.672 188.115 327.367 188.232C327.596 188.232 327.924 188.429 328.352 188.821C328.99 189.413 329.31 190.222 329.31 191.247C329.31 192.325 328.935 193.274 328.185 194.095C327.44 194.909 326.336 195.316 324.871 195.316C323.066 195.316 321.812 194.728 321.109 193.55C320.74 192.923 320.535 192.103 320.494 191.089H322.955ZM330.602 195C330.625 194.086 330.821 193.251 331.19 192.495C331.548 191.646 332.392 190.746 333.722 189.797C334.876 188.971 335.623 188.379 335.963 188.021C336.484 187.465 336.745 186.855 336.745 186.193C336.745 185.654 336.596 185.206 336.297 184.849C335.998 184.491 335.57 184.312 335.014 184.312C334.252 184.312 333.733 184.597 333.458 185.165C333.3 185.493 333.206 186.015 333.177 186.729H330.742C330.783 185.646 330.979 184.77 331.331 184.102C331.999 182.83 333.186 182.194 334.891 182.194C336.238 182.194 337.311 182.569 338.107 183.319C338.904 184.063 339.303 185.051 339.303 186.281C339.303 187.225 339.021 188.062 338.459 188.795C338.09 189.281 337.483 189.823 336.64 190.421L335.638 191.133C335.011 191.578 334.58 191.9 334.346 192.1C334.117 192.299 333.924 192.53 333.766 192.794H339.329V195H330.602ZM341.184 192.381H343.847V195H341.184V192.381ZM348.145 190.966C348.145 191.651 348.329 192.211 348.698 192.645C349.067 193.078 349.536 193.295 350.104 193.295C350.661 193.295 351.098 193.087 351.414 192.671C351.736 192.249 351.897 191.704 351.897 191.036C351.897 190.292 351.716 189.724 351.353 189.331C350.989 188.933 350.544 188.733 350.017 188.733C349.589 188.733 349.211 188.862 348.883 189.12C348.391 189.501 348.145 190.116 348.145 190.966ZM351.669 185.464C351.669 185.259 351.59 185.033 351.432 184.787C351.162 184.389 350.755 184.189 350.21 184.189C349.396 184.189 348.815 184.646 348.47 185.561C348.282 186.064 348.153 186.809 348.083 187.793C348.394 187.424 348.754 187.154 349.164 186.984C349.574 186.814 350.043 186.729 350.57 186.729C351.701 186.729 352.627 187.113 353.348 187.881C354.074 188.648 354.438 189.63 354.438 190.825C354.438 192.015 354.083 193.063 353.374 193.972C352.665 194.88 351.563 195.334 350.069 195.334C348.464 195.334 347.28 194.663 346.519 193.321C345.927 192.272 345.631 190.919 345.631 189.261C345.631 188.288 345.672 187.497 345.754 186.888C345.9 185.804 346.185 184.901 346.606 184.181C346.97 183.565 347.444 183.07 348.03 182.695C348.622 182.32 349.328 182.133 350.148 182.133C351.332 182.133 352.275 182.438 352.979 183.047C353.682 183.65 354.077 184.456 354.165 185.464H351.669ZM358.059 191.59C358.158 192.135 358.349 192.557 358.63 192.855C358.911 193.148 359.321 193.295 359.86 193.295C360.481 193.295 360.953 193.078 361.275 192.645C361.604 192.205 361.768 191.654 361.768 190.992C361.768 190.342 361.615 189.794 361.311 189.349C361.006 188.897 360.531 188.672 359.887 188.672C359.582 188.672 359.318 188.71 359.096 188.786C358.703 188.927 358.407 189.188 358.208 189.568L355.958 189.463L356.854 182.423H363.877V184.55H358.665L358.208 187.336C358.595 187.084 358.896 186.917 359.113 186.835C359.477 186.7 359.919 186.633 360.44 186.633C361.495 186.633 362.415 186.987 363.2 187.696C363.985 188.405 364.378 189.437 364.378 190.79C364.378 191.968 364 193.02 363.244 193.945C362.488 194.871 361.357 195.334 359.852 195.334C358.639 195.334 357.643 195.009 356.863 194.358C356.084 193.708 355.65 192.785 355.562 191.59H358.059ZM370.521 193.356C370.984 193.298 371.321 193.192 371.532 193.04C371.901 192.771 372.086 192.305 372.086 191.643C372.086 191.139 371.913 190.74 371.567 190.447C371.362 190.277 371.014 190.102 370.521 189.92V193.356ZM369.687 184.172C369.177 184.184 368.799 184.321 368.553 184.585C368.307 184.843 368.184 185.197 368.184 185.648C368.184 186.141 368.368 186.53 368.737 186.817C368.942 186.976 369.259 187.122 369.687 187.257V184.172ZM370.539 197.083H369.687V195.334C368.532 195.205 367.671 194.953 367.103 194.578C366.101 193.904 365.608 192.756 365.626 191.133H367.999C368.081 191.871 368.195 192.366 368.342 192.618C368.57 193.011 369.019 193.266 369.687 193.383V189.63L368.975 189.419C367.855 189.091 367.064 188.634 366.602 188.048C366.145 187.462 365.916 186.756 365.916 185.93C365.916 185.385 366.004 184.89 366.18 184.444C366.361 183.999 366.613 183.615 366.936 183.293C367.352 182.877 367.814 182.59 368.324 182.432C368.635 182.332 369.089 182.259 369.687 182.212V181.043H370.521V182.229C371.477 182.306 372.227 182.54 372.771 182.933C373.762 183.56 374.274 184.576 374.31 185.982H371.998C371.951 185.461 371.863 185.08 371.734 184.84C371.512 184.424 371.107 184.195 370.521 184.154V187.503C371.916 187.983 372.854 188.408 373.334 188.777C374.125 189.393 374.521 190.26 374.521 191.379C374.521 192.855 373.979 193.928 372.895 194.596C372.232 195.006 371.447 195.246 370.539 195.316V197.083Z" fill="#333333"/>
    <path d="M2.23438 14.2969C2.27083 14.9479 2.42448 15.4766 2.69531 15.8828C3.21094 16.6432 4.11979 17.0234 5.42188 17.0234C6.00521 17.0234 6.53646 16.9401 7.01562 16.7734C7.94271 16.4505 8.40625 15.8724 8.40625 15.0391C8.40625 14.4141 8.21094 13.9688 7.82031 13.7031C7.42448 13.4427 6.80469 13.2161 5.96094 13.0234L4.40625 12.6719C3.39062 12.4427 2.67188 12.1901 2.25 11.9141C1.52083 11.4349 1.15625 10.7188 1.15625 9.76562C1.15625 8.73438 1.51302 7.88802 2.22656 7.22656C2.9401 6.5651 3.95052 6.23438 5.25781 6.23438C6.46094 6.23438 7.48177 6.52604 8.32031 7.10938C9.16406 7.6875 9.58594 8.61458 9.58594 9.89062H8.125C8.04688 9.27604 7.88021 8.80469 7.625 8.47656C7.15104 7.8776 6.34635 7.57812 5.21094 7.57812C4.29427 7.57812 3.63542 7.77083 3.23438 8.15625C2.83333 8.54167 2.63281 8.98958 2.63281 9.5C2.63281 10.0625 2.86719 10.474 3.33594 10.7344C3.64323 10.901 4.33854 11.1094 5.42188 11.3594L7.03125 11.7266C7.80729 11.9036 8.40625 12.1458 8.82812 12.4531C9.55729 12.9896 9.92188 13.7682 9.92188 14.7891C9.92188 16.0599 9.45833 16.9688 8.53125 17.5156C7.60938 18.0625 6.53646 18.3359 5.3125 18.3359C3.88542 18.3359 2.76823 17.9714 1.96094 17.2422C1.15365 16.5182 0.757812 15.5365 0.773438 14.2969H2.23438ZM13.1094 9.63281V15.1875C13.1094 15.6146 13.1771 15.9635 13.3125 16.2344C13.5625 16.7344 14.0286 16.9844 14.7109 16.9844C15.6901 16.9844 16.3568 16.5469 16.7109 15.6719C16.9036 15.2031 17 14.5599 17 13.7422V9.63281H18.4062V18H17.0781L17.0938 16.7656C16.9115 17.0833 16.6849 17.3516 16.4141 17.5703C15.8776 18.0078 15.2266 18.2266 14.4609 18.2266C13.2682 18.2266 12.4557 17.8281 12.0234 17.0312C11.7891 16.6042 11.6719 16.0339 11.6719 15.3203V9.63281H13.1094ZM20.5 6.48438H21.8672V10.6484C22.1745 10.2474 22.5417 9.94271 22.9688 9.73438C23.3958 9.52083 23.8594 9.41406 24.3594 9.41406C25.401 9.41406 26.2448 9.77344 26.8906 10.4922C27.5417 11.2057 27.8672 12.2604 27.8672 13.6562C27.8672 14.9792 27.5469 16.0781 26.9062 16.9531C26.2656 17.8281 25.3776 18.2656 24.2422 18.2656C23.6068 18.2656 23.0703 18.112 22.6328 17.8047C22.3724 17.6224 22.0938 17.3307 21.7969 16.9297V18H20.5V6.48438ZM24.1562 17.0234C24.9167 17.0234 25.4844 16.7214 25.8594 16.1172C26.2396 15.513 26.4297 14.7161 26.4297 13.7266C26.4297 12.8464 26.2396 12.1172 25.8594 11.5391C25.4844 10.9609 24.9297 10.6719 24.1953 10.6719C23.5547 10.6719 22.9922 10.9089 22.5078 11.3828C22.0286 11.8568 21.7891 12.638 21.7891 13.7266C21.7891 14.513 21.888 15.151 22.0859 15.6406C22.4557 16.5625 23.1458 17.0234 24.1562 17.0234ZM29.1484 12.8203H33.0703V14.2656H29.1484V12.8203ZM35.125 7.29688H36.5469V9.63281H37.8828V10.7812H36.5469V16.2422C36.5469 16.5339 36.6458 16.7292 36.8438 16.8281C36.9531 16.8854 37.1354 16.9141 37.3906 16.9141C37.4583 16.9141 37.5312 16.9141 37.6094 16.9141C37.6875 16.9089 37.7786 16.901 37.8828 16.8906V18C37.7214 18.0469 37.5521 18.0807 37.375 18.1016C37.2031 18.1224 37.0156 18.1328 36.8125 18.1328C36.1562 18.1328 35.7109 17.9661 35.4766 17.6328C35.2422 17.2943 35.125 16.8568 35.125 16.3203V10.7812H33.9922V9.63281H35.125V7.29688ZM42.6172 17.0938C43.5495 17.0938 44.1875 16.7422 44.5312 16.0391C44.8802 15.3307 45.0547 14.5443 45.0547 13.6797C45.0547 12.8984 44.9297 12.263 44.6797 11.7734C44.2839 11.0026 43.6016 10.6172 42.6328 10.6172C41.7734 10.6172 41.1484 10.9453 40.7578 11.6016C40.3672 12.2578 40.1719 13.0495 40.1719 13.9766C40.1719 14.8672 40.3672 15.6094 40.7578 16.2031C41.1484 16.7969 41.7682 17.0938 42.6172 17.0938ZM42.6719 9.39062C43.75 9.39062 44.6615 9.75 45.4062 10.4688C46.151 11.1875 46.5234 12.2448 46.5234 13.6406C46.5234 14.9896 46.1953 16.1042 45.5391 16.9844C44.8828 17.8646 43.8646 18.3047 42.4844 18.3047C41.3333 18.3047 40.4193 17.9167 39.7422 17.1406C39.0651 16.3594 38.7266 15.3125 38.7266 14C38.7266 12.5938 39.0833 11.474 39.7969 10.6406C40.5104 9.80729 41.4688 9.39062 42.6719 9.39062ZM48.4844 7.29688H49.9062V9.63281H51.2422V10.7812H49.9062V16.2422C49.9062 16.5339 50.0052 16.7292 50.2031 16.8281C50.3125 16.8854 50.4948 16.9141 50.75 16.9141C50.8177 16.9141 50.8906 16.9141 50.9688 16.9141C51.0469 16.9089 51.138 16.901 51.2422 16.8906V18C51.0807 18.0469 50.9115 18.0807 50.7344 18.1016C50.5625 18.1224 50.375 18.1328 50.1719 18.1328C49.5156 18.1328 49.0703 17.9661 48.8359 17.6328C48.6016 17.2943 48.4844 16.8568 48.4844 16.3203V10.7812H47.3516V9.63281H48.4844V7.29688ZM53.7344 15.7734C53.7344 16.1797 53.8828 16.5 54.1797 16.7344C54.4766 16.9688 54.8281 17.0859 55.2344 17.0859C55.7292 17.0859 56.2083 16.9714 56.6719 16.7422C57.4531 16.362 57.8438 15.7396 57.8438 14.875V13.7422C57.6719 13.8516 57.4505 13.9427 57.1797 14.0156C56.9089 14.0885 56.6432 14.1406 56.3828 14.1719L55.5312 14.2812C55.0208 14.349 54.638 14.4557 54.3828 14.6016C53.9505 14.8464 53.7344 15.237 53.7344 15.7734ZM57.1406 12.9297C57.4635 12.888 57.6797 12.7526 57.7891 12.5234C57.8516 12.3984 57.8828 12.2188 57.8828 11.9844C57.8828 11.5052 57.7109 11.1589 57.3672 10.9453C57.0286 10.7266 56.5417 10.6172 55.9062 10.6172C55.1719 10.6172 54.651 10.8151 54.3438 11.2109C54.1719 11.4297 54.0599 11.7552 54.0078 12.1875H52.6953C52.7214 11.1562 53.0547 10.4401 53.6953 10.0391C54.3411 9.63281 55.0885 9.42969 55.9375 9.42969C56.9219 9.42969 57.7214 9.61719 58.3359 9.99219C58.9453 10.3672 59.25 10.9505 59.25 11.7422V16.5625C59.25 16.7083 59.2786 16.8255 59.3359 16.9141C59.3984 17.0026 59.526 17.0469 59.7188 17.0469C59.7812 17.0469 59.8516 17.0443 59.9297 17.0391C60.0078 17.0286 60.0911 17.0156 60.1797 17V18.0391C59.9609 18.1016 59.7943 18.1406 59.6797 18.1562C59.5651 18.1719 59.4089 18.1797 59.2109 18.1797C58.7266 18.1797 58.375 18.0078 58.1562 17.6641C58.0417 17.4818 57.9609 17.224 57.9141 16.8906C57.6276 17.2656 57.2161 17.5911 56.6797 17.8672C56.1432 18.1432 55.5521 18.2812 54.9062 18.2812C54.1302 18.2812 53.4948 18.0469 53 17.5781C52.5104 17.1042 52.2656 16.513 52.2656 15.8047C52.2656 15.0286 52.5078 14.4271 52.9922 14C53.4766 13.5729 54.112 13.3099 54.8984 13.2109L57.1406 12.9297ZM61.6016 6.52344H63.0078V18H61.6016V6.52344Z" fill="#4F4F4F"/>
    <path d="M341.531 10.0781V9C342.547 8.90104 343.255 8.73698 343.656 8.50781C344.057 8.27344 344.357 7.72396 344.555 6.85938H345.664V18H344.164V10.0781H341.531ZM353.062 18.3047C351.74 18.3047 350.779 17.9427 350.18 17.2188C349.586 16.4896 349.289 15.6042 349.289 14.5625H350.758C350.82 15.2865 350.956 15.8125 351.164 16.1406C351.529 16.7292 352.188 17.0234 353.141 17.0234C353.88 17.0234 354.474 16.8255 354.922 16.4297C355.37 16.0339 355.594 15.5234 355.594 14.8984C355.594 14.1276 355.357 13.5885 354.883 13.2812C354.414 12.974 353.76 12.8203 352.922 12.8203C352.828 12.8203 352.732 12.8229 352.633 12.8281C352.539 12.8281 352.443 12.8307 352.344 12.8359V11.5938C352.49 11.6094 352.612 11.6198 352.711 11.625C352.81 11.6302 352.917 11.6328 353.031 11.6328C353.557 11.6328 353.99 11.5495 354.328 11.3828C354.922 11.0911 355.219 10.5703 355.219 9.82031C355.219 9.26302 355.021 8.83333 354.625 8.53125C354.229 8.22917 353.768 8.07812 353.242 8.07812C352.305 8.07812 351.656 8.39062 351.297 9.01562C351.099 9.35938 350.987 9.84896 350.961 10.4844H349.57C349.57 9.65104 349.737 8.94271 350.07 8.35938C350.643 7.31771 351.651 6.79688 353.094 6.79688C354.234 6.79688 355.117 7.05208 355.742 7.5625C356.367 8.06771 356.68 8.80208 356.68 9.76562C356.68 10.4531 356.495 11.0104 356.125 11.4375C355.896 11.7031 355.599 11.9115 355.234 12.0625C355.823 12.224 356.281 12.5365 356.609 13C356.943 13.4583 357.109 14.0208 357.109 14.6875C357.109 15.7552 356.758 16.625 356.055 17.2969C355.352 17.9688 354.354 18.3047 353.062 18.3047ZM362.141 6.8125C363.589 6.8125 364.635 7.40885 365.281 8.60156C365.781 9.52344 366.031 10.7865 366.031 12.3906C366.031 13.9115 365.805 15.1693 365.352 16.1641C364.695 17.5911 363.622 18.3047 362.133 18.3047C360.789 18.3047 359.789 17.7214 359.133 16.5547C358.586 15.5807 358.312 14.2734 358.312 12.6328C358.312 11.362 358.477 10.2708 358.805 9.35938C359.419 7.66146 360.531 6.8125 362.141 6.8125ZM362.125 17.0234C362.854 17.0234 363.435 16.7005 363.867 16.0547C364.299 15.4089 364.516 14.2057 364.516 12.4453C364.516 11.1745 364.359 10.1302 364.047 9.3125C363.734 8.48958 363.128 8.07812 362.227 8.07812C361.398 8.07812 360.792 8.46875 360.406 9.25C360.026 10.026 359.836 11.1719 359.836 12.6875C359.836 13.8281 359.958 14.7448 360.203 15.4375C360.578 16.4948 361.219 17.0234 362.125 17.0234ZM371.492 17.1875C372.383 17.1458 372.997 16.8203 373.336 16.2109C373.513 15.8984 373.602 15.5365 373.602 15.125C373.602 14.474 373.362 13.9792 372.883 13.6406C372.607 13.4427 372.143 13.2552 371.492 13.0781V17.1875ZM368.844 9.64844C368.844 10.1641 369.013 10.5677 369.352 10.8594C369.695 11.151 370.156 11.3542 370.734 11.4688V7.79688C370.052 7.82292 369.565 8.03125 369.273 8.42188C368.987 8.8125 368.844 9.22135 368.844 9.64844ZM367.438 9.74219C367.438 8.95052 367.727 8.23698 368.305 7.60156C368.888 6.96615 369.703 6.64323 370.75 6.63281V5.59375H371.492V6.61719C372.529 6.6901 373.323 6.9974 373.875 7.53906C374.432 8.07552 374.724 8.78646 374.75 9.67188H373.383C373.346 9.27604 373.24 8.9349 373.062 8.64844C372.734 8.1224 372.211 7.84635 371.492 7.82031V11.6172C372.701 11.9557 373.521 12.2734 373.953 12.5703C374.656 13.0599 375.008 13.7839 375.008 14.7422C375.008 16.1276 374.557 17.112 373.656 17.6953C373.156 18.0182 372.435 18.2318 371.492 18.3359V19.8516H370.75V18.3359C369.234 18.237 368.206 17.7005 367.664 16.7266C367.367 16.2005 367.219 15.4896 367.219 14.5938H368.602C368.643 15.3073 368.755 15.8281 368.938 16.1562C369.26 16.7448 369.859 17.0755 370.734 17.1484V12.8906C369.609 12.6771 368.779 12.3203 368.242 11.8203C367.706 11.3203 367.438 10.6276 367.438 9.74219Z" fill="#333333"/>
    <path d="M344.367 46.5234H352.328V47.9297H345.922V51.4141H351.555V52.7812H345.922V58H344.367V46.5234ZM353.852 49.6328H355.188V51.0781C355.297 50.7969 355.565 50.4557 355.992 50.0547C356.419 49.6484 356.911 49.4453 357.469 49.4453C357.495 49.4453 357.539 49.4479 357.602 49.4531C357.664 49.4583 357.771 49.4688 357.922 49.4844V50.9688C357.839 50.9531 357.76 50.9427 357.688 50.9375C357.62 50.9323 357.544 50.9297 357.461 50.9297C356.753 50.9297 356.208 51.1589 355.828 51.6172C355.448 52.0703 355.258 52.5938 355.258 53.1875V58H353.852V49.6328ZM362.625 49.4453C363.219 49.4453 363.794 49.5859 364.352 49.8672C364.909 50.1432 365.333 50.5026 365.625 50.9453C365.906 51.3672 366.094 51.8594 366.188 52.4219C366.271 52.8073 366.312 53.4219 366.312 54.2656H360.18C360.206 55.1146 360.406 55.7969 360.781 56.3125C361.156 56.8229 361.737 57.0781 362.523 57.0781C363.258 57.0781 363.844 56.8359 364.281 56.3516C364.531 56.0703 364.708 55.7448 364.812 55.375H366.195C366.159 55.6823 366.036 56.026 365.828 56.4062C365.625 56.7812 365.396 57.0885 365.141 57.3281C364.714 57.7448 364.185 58.026 363.555 58.1719C363.216 58.2552 362.833 58.2969 362.406 58.2969C361.365 58.2969 360.482 57.9193 359.758 57.1641C359.034 56.4036 358.672 55.3411 358.672 53.9766C358.672 52.6328 359.036 51.5417 359.766 50.7031C360.495 49.8646 361.448 49.4453 362.625 49.4453ZM364.867 53.1484C364.81 52.5391 364.677 52.0521 364.469 51.6875C364.083 51.0104 363.44 50.6719 362.539 50.6719C361.893 50.6719 361.352 50.9062 360.914 51.375C360.477 51.8385 360.245 52.4297 360.219 53.1484H364.867ZM371.531 49.4453C372.125 49.4453 372.701 49.5859 373.258 49.8672C373.815 50.1432 374.24 50.5026 374.531 50.9453C374.812 51.3672 375 51.8594 375.094 52.4219C375.177 52.8073 375.219 53.4219 375.219 54.2656H369.086C369.112 55.1146 369.312 55.7969 369.688 56.3125C370.062 56.8229 370.643 57.0781 371.43 57.0781C372.164 57.0781 372.75 56.8359 373.188 56.3516C373.438 56.0703 373.615 55.7448 373.719 55.375H375.102C375.065 55.6823 374.943 56.026 374.734 56.4062C374.531 56.7812 374.302 57.0885 374.047 57.3281C373.62 57.7448 373.091 58.026 372.461 58.1719C372.122 58.2552 371.74 58.2969 371.312 58.2969C370.271 58.2969 369.388 57.9193 368.664 57.1641C367.94 56.4036 367.578 55.3411 367.578 53.9766C367.578 52.6328 367.943 51.5417 368.672 50.7031C369.401 49.8646 370.354 49.4453 371.531 49.4453ZM373.773 53.1484C373.716 52.5391 373.583 52.0521 373.375 51.6875C372.99 51.0104 372.346 50.6719 371.445 50.6719C370.799 50.6719 370.258 50.9062 369.82 51.375C369.383 51.8385 369.151 52.4297 369.125 53.1484H373.773Z" fill="#333333"/>
    <path d="M2.23438 54.2969C2.27083 54.9479 2.42448 55.4766 2.69531 55.8828C3.21094 56.6432 4.11979 57.0234 5.42188 57.0234C6.00521 57.0234 6.53646 56.9401 7.01562 56.7734C7.94271 56.4505 8.40625 55.8724 8.40625 55.0391C8.40625 54.4141 8.21094 53.9688 7.82031 53.7031C7.42448 53.4427 6.80469 53.2161 5.96094 53.0234L4.40625 52.6719C3.39062 52.4427 2.67188 52.1901 2.25 51.9141C1.52083 51.4349 1.15625 50.7188 1.15625 49.7656C1.15625 48.7344 1.51302 47.888 2.22656 47.2266C2.9401 46.5651 3.95052 46.2344 5.25781 46.2344C6.46094 46.2344 7.48177 46.526 8.32031 47.1094C9.16406 47.6875 9.58594 48.6146 9.58594 49.8906H8.125C8.04688 49.276 7.88021 48.8047 7.625 48.4766C7.15104 47.8776 6.34635 47.5781 5.21094 47.5781C4.29427 47.5781 3.63542 47.7708 3.23438 48.1562C2.83333 48.5417 2.63281 48.9896 2.63281 49.5C2.63281 50.0625 2.86719 50.474 3.33594 50.7344C3.64323 50.901 4.33854 51.1094 5.42188 51.3594L7.03125 51.7266C7.80729 51.9036 8.40625 52.1458 8.82812 52.4531C9.55729 52.9896 9.92188 53.7682 9.92188 54.7891C9.92188 56.0599 9.45833 56.9688 8.53125 57.5156C7.60938 58.0625 6.53646 58.3359 5.3125 58.3359C3.88542 58.3359 2.76823 57.9714 1.96094 57.2422C1.15365 56.5182 0.757812 55.5365 0.773438 54.2969H2.23438ZM11.7031 46.4844H13.1094V50.7656C13.4427 50.3438 13.7422 50.0469 14.0078 49.875C14.4609 49.5781 15.026 49.4297 15.7031 49.4297C16.9167 49.4297 17.7396 49.8542 18.1719 50.7031C18.4062 51.1667 18.5234 51.8099 18.5234 52.6328V58H17.0781V52.7266C17.0781 52.112 17 51.6615 16.8438 51.375C16.5885 50.9167 16.1094 50.6875 15.4062 50.6875C14.8229 50.6875 14.2943 50.888 13.8203 51.2891C13.3464 51.6901 13.1094 52.4479 13.1094 53.5625V58H11.7031V46.4844ZM20.6094 49.6719H22.0391V58H20.6094V49.6719ZM20.6094 46.5234H22.0391V48.1172H20.6094V46.5234ZM27.7031 57.0547C28.3594 57.0547 28.9036 56.7812 29.3359 56.2344C29.7734 55.6823 29.9922 54.8594 29.9922 53.7656C29.9922 53.099 29.8958 52.526 29.7031 52.0469C29.3385 51.125 28.6719 50.6641 27.7031 50.6641C26.7292 50.6641 26.0625 51.151 25.7031 52.125C25.5104 52.6458 25.4141 53.3073 25.4141 54.1094C25.4141 54.7552 25.5104 55.3047 25.7031 55.7578C26.0677 56.6224 26.7344 57.0547 27.7031 57.0547ZM24.0625 49.6719H25.4297V50.7812C25.7109 50.401 26.0182 50.1068 26.3516 49.8984C26.8255 49.5859 27.3828 49.4297 28.0234 49.4297C28.9714 49.4297 29.776 49.7943 30.4375 50.5234C31.099 51.2474 31.4297 52.2839 31.4297 53.6328C31.4297 55.4557 30.9531 56.7578 30 57.5391C29.3958 58.0339 28.6927 58.2812 27.8906 58.2812C27.2604 58.2812 26.7318 58.1432 26.3047 57.8672C26.0547 57.7109 25.776 57.4427 25.4688 57.0625V61.3359H24.0625V49.6719ZM36.6094 57.0547C37.2656 57.0547 37.8099 56.7812 38.2422 56.2344C38.6797 55.6823 38.8984 54.8594 38.8984 53.7656C38.8984 53.099 38.8021 52.526 38.6094 52.0469C38.2448 51.125 37.5781 50.6641 36.6094 50.6641C35.6354 50.6641 34.9688 51.151 34.6094 52.125C34.4167 52.6458 34.3203 53.3073 34.3203 54.1094C34.3203 54.7552 34.4167 55.3047 34.6094 55.7578C34.974 56.6224 35.6406 57.0547 36.6094 57.0547ZM32.9688 49.6719H34.3359V50.7812C34.6172 50.401 34.9245 50.1068 35.2578 49.8984C35.7318 49.5859 36.2891 49.4297 36.9297 49.4297C37.8776 49.4297 38.6823 49.7943 39.3438 50.5234C40.0052 51.2474 40.3359 52.2839 40.3359 53.6328C40.3359 55.4557 39.8594 56.7578 38.9062 57.5391C38.3021 58.0339 37.599 58.2812 36.7969 58.2812C36.1667 58.2812 35.638 58.1432 35.2109 57.8672C34.9609 57.7109 34.6823 57.4427 34.375 57.0625V61.3359H32.9688V49.6719ZM41.9844 49.6719H43.4141V58H41.9844V49.6719ZM41.9844 46.5234H43.4141V48.1172H41.9844V46.5234ZM45.5469 49.6328H46.8828V50.8203C47.2786 50.3307 47.6979 49.9792 48.1406 49.7656C48.5833 49.5521 49.0755 49.4453 49.6172 49.4453C50.8047 49.4453 51.6068 49.8594 52.0234 50.6875C52.2526 51.1406 52.3672 51.7891 52.3672 52.6328V58H50.9375V52.7266C50.9375 52.2161 50.862 51.8047 50.7109 51.4922C50.4609 50.9714 50.0078 50.7109 49.3516 50.7109C49.0182 50.7109 48.7448 50.7448 48.5312 50.8125C48.1458 50.9271 47.8073 51.1562 47.5156 51.5C47.2812 51.776 47.1276 52.0625 47.0547 52.3594C46.987 52.651 46.9531 53.0703 46.9531 53.6172V58H45.5469V49.6328ZM57.4062 49.4844C58.0625 49.4844 58.6354 49.6458 59.125 49.9688C59.3906 50.151 59.6615 50.4167 59.9375 50.7656V49.7109H61.2344V57.3203C61.2344 58.3828 61.0781 59.2214 60.7656 59.8359C60.1823 60.9714 59.0807 61.5391 57.4609 61.5391C56.5599 61.5391 55.8021 61.3359 55.1875 60.9297C54.5729 60.5286 54.2292 59.8984 54.1562 59.0391H55.5859C55.6536 59.4141 55.7891 59.7031 55.9922 59.9062C56.3099 60.2188 56.8099 60.375 57.4922 60.375C58.5703 60.375 59.276 59.9948 59.6094 59.2344C59.8073 58.7865 59.8984 57.987 59.8828 56.8359C59.6016 57.263 59.263 57.5807 58.8672 57.7891C58.4714 57.9974 57.9479 58.1016 57.2969 58.1016C56.3906 58.1016 55.5964 57.7812 54.9141 57.1406C54.237 56.4948 53.8984 55.4297 53.8984 53.9453C53.8984 52.5443 54.2396 51.4505 54.9219 50.6641C55.6094 49.8776 56.4375 49.4844 57.4062 49.4844ZM59.9375 53.7812C59.9375 52.7448 59.724 51.9766 59.2969 51.4766C58.8698 50.9766 58.3255 50.7266 57.6641 50.7266C56.6745 50.7266 55.9974 51.1901 55.6328 52.1172C55.4401 52.612 55.3438 53.2604 55.3438 54.0625C55.3438 55.0052 55.5339 55.724 55.9141 56.2188C56.2995 56.7083 56.8151 56.9531 57.4609 56.9531C58.4714 56.9531 59.1823 56.4974 59.5938 55.5859C59.8229 55.0703 59.9375 54.4688 59.9375 53.7812Z" fill="#4F4F4F"/>
    <path d="M343.5 98C343.552 97.0365 343.75 96.1979 344.094 95.4844C344.443 94.7708 345.12 94.1224 346.125 93.5391L347.625 92.6719C348.297 92.2812 348.768 91.9479 349.039 91.6719C349.466 91.2396 349.68 90.7448 349.68 90.1875C349.68 89.5365 349.484 89.0208 349.094 88.6406C348.703 88.2552 348.182 88.0625 347.531 88.0625C346.568 88.0625 345.901 88.4271 345.531 89.1562C345.333 89.5469 345.224 90.0885 345.203 90.7812H343.773C343.789 89.8073 343.969 89.013 344.312 88.3984C344.922 87.3151 345.997 86.7734 347.539 86.7734C348.82 86.7734 349.755 87.1198 350.344 87.8125C350.938 88.5052 351.234 89.276 351.234 90.125C351.234 91.0208 350.919 91.7865 350.289 92.4219C349.924 92.7917 349.271 93.2396 348.328 93.7656L347.258 94.3594C346.747 94.6406 346.346 94.9089 346.055 95.1641C345.534 95.6172 345.206 96.1198 345.07 96.6719H351.18V98H343.5ZM353.883 95.1484C353.977 95.9505 354.349 96.5052 355 96.8125C355.333 96.9688 355.719 97.0469 356.156 97.0469C356.99 97.0469 357.607 96.7812 358.008 96.25C358.409 95.7188 358.609 95.1302 358.609 94.4844C358.609 93.7031 358.37 93.099 357.891 92.6719C357.417 92.2448 356.846 92.0312 356.18 92.0312C355.695 92.0312 355.279 92.125 354.93 92.3125C354.586 92.5 354.292 92.7604 354.047 93.0938L352.828 93.0234L353.68 87H359.492V88.3594H354.734L354.258 91.4688C354.518 91.2708 354.766 91.1224 355 91.0234C355.417 90.8516 355.898 90.7656 356.445 90.7656C357.471 90.7656 358.341 91.0964 359.055 91.7578C359.768 92.4193 360.125 93.2578 360.125 94.2734C360.125 95.3307 359.797 96.263 359.141 97.0703C358.49 97.8776 357.448 98.2812 356.016 98.2812C355.104 98.2812 354.297 98.026 353.594 97.5156C352.896 97 352.505 96.2109 352.422 95.1484H353.883ZM371.719 92.5625C372.469 92.5625 373.109 92.8281 373.641 93.3594C374.172 93.8906 374.438 94.5312 374.438 95.2812C374.438 96.0312 374.172 96.6719 373.641 97.2031C373.109 97.7344 372.469 98 371.719 98C370.964 98 370.32 97.7344 369.789 97.2031C369.258 96.6719 368.992 96.0312 368.992 95.2812C368.992 94.5312 369.258 93.8906 369.789 93.3594C370.32 92.8281 370.964 92.5625 371.719 92.5625ZM370.586 86.8594H371.453L365.195 98.2969H364.328L370.586 86.8594ZM364.047 91.4844C364.495 91.4844 364.875 91.3281 365.188 91.0156C365.505 90.6979 365.664 90.3177 365.664 89.875C365.664 89.4323 365.505 89.0547 365.188 88.7422C364.875 88.4245 364.495 88.2656 364.047 88.2656C363.604 88.2656 363.224 88.4219 362.906 88.7344C362.594 89.0469 362.438 89.4271 362.438 89.875C362.438 90.3177 362.594 90.6979 362.906 91.0156C363.224 91.3281 363.604 91.4844 364.047 91.4844ZM364.047 87.1484C364.802 87.1484 365.445 87.4167 365.977 87.9531C366.508 88.4844 366.773 89.125 366.773 89.875C366.773 90.625 366.508 91.2656 365.977 91.7969C365.445 92.3281 364.802 92.5938 364.047 92.5938C363.297 92.5938 362.656 92.3281 362.125 91.7969C361.594 91.2656 361.328 90.625 361.328 89.875C361.328 89.125 361.594 88.4844 362.125 87.9531C362.656 87.4167 363.297 87.1484 364.047 87.1484ZM371.719 96.8906C372.161 96.8906 372.539 96.7344 372.852 96.4219C373.169 96.1042 373.328 95.724 373.328 95.2812C373.328 94.8385 373.169 94.4609 372.852 94.1484C372.539 93.8307 372.161 93.6719 371.719 93.6719C371.271 93.6719 370.888 93.8307 370.57 94.1484C370.258 94.4609 370.102 94.8385 370.102 95.2812C370.102 95.724 370.258 96.1042 370.57 96.4219C370.888 96.7344 371.271 96.8906 371.719 96.8906Z" fill="#333333"/>
    <path d="M5.625 96.6719C6.15104 96.6719 6.58333 96.6172 6.92188 96.5078C7.52604 96.3047 8.02083 95.9141 8.40625 95.3359C8.71354 94.8724 8.9349 94.2786 9.07031 93.5547C9.14844 93.1224 9.1875 92.7214 9.1875 92.3516C9.1875 90.9297 8.90365 89.8255 8.33594 89.0391C7.77344 88.2526 6.86458 87.8594 5.60938 87.8594H2.85156V96.6719H5.625ZM1.28906 86.5234H5.9375C7.51562 86.5234 8.73958 87.0833 9.60938 88.2031C10.3854 89.2135 10.7734 90.5078 10.7734 92.0859C10.7734 93.3047 10.5443 94.4062 10.0859 95.3906C9.27865 97.1302 7.89062 98 5.92188 98H1.28906V86.5234ZM12.5938 89.6719H14.0234V98H12.5938V89.6719ZM12.5938 86.5234H14.0234V88.1172H12.5938V86.5234ZM16.9922 95.375C17.0339 95.8438 17.151 96.2031 17.3438 96.4531C17.6979 96.9062 18.3125 97.1328 19.1875 97.1328C19.7083 97.1328 20.1667 97.0208 20.5625 96.7969C20.9583 96.5677 21.1562 96.2161 21.1562 95.7422C21.1562 95.3828 20.9974 95.1094 20.6797 94.9219C20.4766 94.8073 20.0755 94.6745 19.4766 94.5234L18.3594 94.2422C17.6458 94.0651 17.1198 93.8672 16.7812 93.6484C16.1771 93.2682 15.875 92.7422 15.875 92.0703C15.875 91.2786 16.1589 90.638 16.7266 90.1484C17.2995 89.6589 18.0677 89.4141 19.0312 89.4141C20.2917 89.4141 21.2005 89.7839 21.7578 90.5234C22.1068 90.9922 22.276 91.4974 22.2656 92.0391H20.9375C20.9115 91.7214 20.7995 91.4323 20.6016 91.1719C20.2786 90.8021 19.7188 90.6172 18.9219 90.6172C18.3906 90.6172 17.987 90.7188 17.7109 90.9219C17.4401 91.125 17.3047 91.3932 17.3047 91.7266C17.3047 92.0911 17.4844 92.3828 17.8438 92.6016C18.0521 92.7318 18.3594 92.8464 18.7656 92.9453L19.6953 93.1719C20.7057 93.4167 21.3828 93.6536 21.7266 93.8828C22.2734 94.2422 22.5469 94.8073 22.5469 95.5781C22.5469 96.3229 22.263 96.9661 21.6953 97.5078C21.1328 98.0495 20.2734 98.3203 19.1172 98.3203C17.8724 98.3203 16.9896 98.0391 16.4688 97.4766C15.9531 96.9089 15.6771 96.2083 15.6406 95.375H16.9922ZM27.3828 89.3906C28.3255 89.3906 29.0911 89.6198 29.6797 90.0781C30.2734 90.5365 30.6302 91.3255 30.75 92.4453H29.3828C29.2995 91.9297 29.1094 91.5026 28.8125 91.1641C28.5156 90.8203 28.0391 90.6484 27.3828 90.6484C26.487 90.6484 25.8464 91.0859 25.4609 91.9609C25.2109 92.5286 25.0859 93.2292 25.0859 94.0625C25.0859 94.901 25.263 95.6068 25.6172 96.1797C25.9714 96.7526 26.5286 97.0391 27.2891 97.0391C27.8724 97.0391 28.3333 96.862 28.6719 96.5078C29.0156 96.1484 29.2526 95.6589 29.3828 95.0391H30.75C30.5938 96.1484 30.2031 96.9609 29.5781 97.4766C28.9531 97.987 28.1536 98.2422 27.1797 98.2422C26.0859 98.2422 25.2135 97.8438 24.5625 97.0469C23.9115 96.2448 23.5859 95.2448 23.5859 94.0469C23.5859 92.5781 23.9427 91.4349 24.6562 90.6172C25.3698 89.7995 26.2786 89.3906 27.3828 89.3906ZM35.4766 97.0938C36.4089 97.0938 37.0469 96.7422 37.3906 96.0391C37.7396 95.3307 37.9141 94.5443 37.9141 93.6797C37.9141 92.8984 37.7891 92.263 37.5391 91.7734C37.1432 91.0026 36.4609 90.6172 35.4922 90.6172C34.6328 90.6172 34.0078 90.9453 33.6172 91.6016C33.2266 92.2578 33.0312 93.0495 33.0312 93.9766C33.0312 94.8672 33.2266 95.6094 33.6172 96.2031C34.0078 96.7969 34.6276 97.0938 35.4766 97.0938ZM35.5312 89.3906C36.6094 89.3906 37.5208 89.75 38.2656 90.4688C39.0104 91.1875 39.3828 92.2448 39.3828 93.6406C39.3828 94.9896 39.0547 96.1042 38.3984 96.9844C37.7422 97.8646 36.724 98.3047 35.3438 98.3047C34.1927 98.3047 33.2786 97.9167 32.6016 97.1406C31.9245 96.3594 31.5859 95.3125 31.5859 94C31.5859 92.5938 31.9427 91.474 32.6562 90.6406C33.3698 89.8073 34.3281 89.3906 35.5312 89.3906ZM42.4688 89.6328V95.1875C42.4688 95.6146 42.5365 95.9635 42.6719 96.2344C42.9219 96.7344 43.388 96.9844 44.0703 96.9844C45.0495 96.9844 45.7161 96.5469 46.0703 95.6719C46.263 95.2031 46.3594 94.5599 46.3594 93.7422V89.6328H47.7656V98H46.4375L46.4531 96.7656C46.2708 97.0833 46.0443 97.3516 45.7734 97.5703C45.237 98.0078 44.5859 98.2266 43.8203 98.2266C42.6276 98.2266 41.8151 97.8281 41.3828 97.0312C41.1484 96.6042 41.0312 96.0339 41.0312 95.3203V89.6328H42.4688ZM49.9688 89.6328H51.3047V90.8203C51.7005 90.3307 52.1198 89.9792 52.5625 89.7656C53.0052 89.5521 53.4974 89.4453 54.0391 89.4453C55.2266 89.4453 56.0286 89.8594 56.4453 90.6875C56.6745 91.1406 56.7891 91.7891 56.7891 92.6328V98H55.3594V92.7266C55.3594 92.2161 55.2839 91.8047 55.1328 91.4922C54.8828 90.9714 54.4297 90.7109 53.7734 90.7109C53.4401 90.7109 53.1667 90.7448 52.9531 90.8125C52.5677 90.9271 52.2292 91.1562 51.9375 91.5C51.7031 91.776 51.5495 92.0625 51.4766 92.3594C51.4089 92.651 51.375 93.0703 51.375 93.6172V98H49.9688V89.6328ZM59.1562 87.2969H60.5781V89.6328H61.9141V90.7812H60.5781V96.2422C60.5781 96.5339 60.6771 96.7292 60.875 96.8281C60.9844 96.8854 61.1667 96.9141 61.4219 96.9141C61.4896 96.9141 61.5625 96.9141 61.6406 96.9141C61.7188 96.9089 61.8099 96.901 61.9141 96.8906V98C61.7526 98.0469 61.5833 98.0807 61.4062 98.1016C61.2344 98.1224 61.0469 98.1328 60.8438 98.1328C60.1875 98.1328 59.7422 97.9661 59.5078 97.6328C59.2734 97.2943 59.1562 96.8568 59.1562 96.3203V90.7812H58.0234V89.6328H59.1562V87.2969Z" fill="#4F4F4F"/>
    <path d="M328.977 135.148C329.07 135.951 329.443 136.505 330.094 136.812C330.427 136.969 330.812 137.047 331.25 137.047C332.083 137.047 332.701 136.781 333.102 136.25C333.503 135.719 333.703 135.13 333.703 134.484C333.703 133.703 333.464 133.099 332.984 132.672C332.51 132.245 331.94 132.031 331.273 132.031C330.789 132.031 330.372 132.125 330.023 132.312C329.68 132.5 329.385 132.76 329.141 133.094L327.922 133.023L328.773 127H334.586V128.359H329.828L329.352 131.469C329.612 131.271 329.859 131.122 330.094 131.023C330.51 130.852 330.992 130.766 331.539 130.766C332.565 130.766 333.435 131.096 334.148 131.758C334.862 132.419 335.219 133.258 335.219 134.273C335.219 135.331 334.891 136.263 334.234 137.07C333.583 137.878 332.542 138.281 331.109 138.281C330.198 138.281 329.391 138.026 328.688 137.516C327.99 137 327.599 136.211 327.516 135.148H328.977ZM341.195 134.039V128.969L337.609 134.039H341.195ZM341.219 138V135.266H336.312V133.891L341.438 126.781H342.625V134.039H344.273V135.266H342.625V138H341.219ZM346.18 136.297H347.812V138H346.18V136.297ZM357.633 127V128.227C357.273 128.576 356.794 129.182 356.195 130.047C355.602 130.911 355.076 131.844 354.617 132.844C354.164 133.818 353.82 134.706 353.586 135.508C353.435 136.023 353.24 136.854 353 138H351.445C351.799 135.865 352.581 133.74 353.789 131.625C354.503 130.385 355.253 129.315 356.039 128.414H349.852V127H357.633ZM362.852 126.766C364.102 126.766 364.971 127.091 365.461 127.742C365.956 128.388 366.203 129.055 366.203 129.742H364.812C364.729 129.299 364.596 128.953 364.414 128.703C364.076 128.234 363.562 128 362.875 128C362.089 128 361.464 128.365 361 129.094C360.536 129.818 360.279 130.857 360.227 132.211C360.549 131.737 360.956 131.383 361.445 131.148C361.893 130.94 362.393 130.836 362.945 130.836C363.883 130.836 364.701 131.135 365.398 131.734C366.096 132.333 366.445 133.227 366.445 134.414C366.445 135.43 366.115 136.331 365.453 137.117C364.792 137.898 363.849 138.289 362.625 138.289C361.578 138.289 360.674 137.893 359.914 137.102C359.154 136.305 358.773 134.966 358.773 133.086C358.773 131.695 358.943 130.516 359.281 129.547C359.932 127.693 361.122 126.766 362.852 126.766ZM362.75 137.039C363.49 137.039 364.042 136.792 364.406 136.297C364.776 135.797 364.961 135.208 364.961 134.531C364.961 133.958 364.797 133.414 364.469 132.898C364.141 132.378 363.544 132.117 362.68 132.117C362.076 132.117 361.544 132.318 361.086 132.719C360.633 133.12 360.406 133.724 360.406 134.531C360.406 135.24 360.612 135.836 361.023 136.32C361.44 136.799 362.016 137.039 362.75 137.039ZM371.852 137.188C372.742 137.146 373.357 136.82 373.695 136.211C373.872 135.898 373.961 135.536 373.961 135.125C373.961 134.474 373.721 133.979 373.242 133.641C372.966 133.443 372.503 133.255 371.852 133.078V137.188ZM369.203 129.648C369.203 130.164 369.372 130.568 369.711 130.859C370.055 131.151 370.516 131.354 371.094 131.469V127.797C370.411 127.823 369.924 128.031 369.633 128.422C369.346 128.812 369.203 129.221 369.203 129.648ZM367.797 129.742C367.797 128.951 368.086 128.237 368.664 127.602C369.247 126.966 370.062 126.643 371.109 126.633V125.594H371.852V126.617C372.888 126.69 373.682 126.997 374.234 127.539C374.792 128.076 375.083 128.786 375.109 129.672H373.742C373.706 129.276 373.599 128.935 373.422 128.648C373.094 128.122 372.57 127.846 371.852 127.82V131.617C373.06 131.956 373.88 132.273 374.312 132.57C375.016 133.06 375.367 133.784 375.367 134.742C375.367 136.128 374.917 137.112 374.016 137.695C373.516 138.018 372.794 138.232 371.852 138.336V139.852H371.109V138.336C369.594 138.237 368.565 137.701 368.023 136.727C367.727 136.201 367.578 135.49 367.578 134.594H368.961C369.003 135.307 369.115 135.828 369.297 136.156C369.62 136.745 370.219 137.076 371.094 137.148V132.891C369.969 132.677 369.138 132.32 368.602 131.82C368.065 131.32 367.797 130.628 367.797 129.742Z" fill="#333333"/>
    <path d="M9.57031 126.523V127.891H5.70312V138H4.125V127.891H0.257812V126.523H9.57031ZM10.1094 135.773C10.1094 136.18 10.2578 136.5 10.5547 136.734C10.8516 136.969 11.2031 137.086 11.6094 137.086C12.1042 137.086 12.5833 136.971 13.0469 136.742C13.8281 136.362 14.2188 135.74 14.2188 134.875V133.742C14.0469 133.852 13.8255 133.943 13.5547 134.016C13.2839 134.089 13.0182 134.141 12.7578 134.172L11.9062 134.281C11.3958 134.349 11.013 134.456 10.7578 134.602C10.3255 134.846 10.1094 135.237 10.1094 135.773ZM13.5156 132.93C13.8385 132.888 14.0547 132.753 14.1641 132.523C14.2266 132.398 14.2578 132.219 14.2578 131.984C14.2578 131.505 14.0859 131.159 13.7422 130.945C13.4036 130.727 12.9167 130.617 12.2812 130.617C11.5469 130.617 11.026 130.815 10.7188 131.211C10.5469 131.43 10.4349 131.755 10.3828 132.188H9.07031C9.09635 131.156 9.42969 130.44 10.0703 130.039C10.7161 129.633 11.4635 129.43 12.3125 129.43C13.2969 129.43 14.0964 129.617 14.7109 129.992C15.3203 130.367 15.625 130.951 15.625 131.742V136.562C15.625 136.708 15.6536 136.826 15.7109 136.914C15.7734 137.003 15.901 137.047 16.0938 137.047C16.1562 137.047 16.2266 137.044 16.3047 137.039C16.3828 137.029 16.4661 137.016 16.5547 137V138.039C16.3359 138.102 16.1693 138.141 16.0547 138.156C15.9401 138.172 15.7839 138.18 15.5859 138.18C15.1016 138.18 14.75 138.008 14.5312 137.664C14.4167 137.482 14.3359 137.224 14.2891 136.891C14.0026 137.266 13.5911 137.591 13.0547 137.867C12.5182 138.143 11.9271 138.281 11.2812 138.281C10.5052 138.281 9.86979 138.047 9.375 137.578C8.88542 137.104 8.64062 136.513 8.64062 135.805C8.64062 135.029 8.88281 134.427 9.36719 134C9.85156 133.573 10.487 133.31 11.2734 133.211L13.5156 132.93ZM17.1406 129.633H18.9609L20.8828 132.578L22.8281 129.633L24.5391 129.672L21.7188 133.711L24.6641 138H22.8672L20.7891 134.859L18.7734 138H16.9922L19.9375 133.711L17.1406 129.633Z" fill="#4F4F4F"/>
    <line x1="-4.42927e-08" y1="159.5" x2="376" y2="159.5" stroke="#E0E0E0"/>
    <rect y="226" width="376" height="58" rx="6" fill="#FF9F0D"/>
    <path d="M115.538 248.089H121.348C122.496 248.089 123.422 248.414 124.125 249.064C124.828 249.709 125.18 250.617 125.18 251.789C125.18 252.797 124.866 253.676 124.239 254.426C123.612 255.17 122.648 255.542 121.348 255.542H117.287V261H115.538V248.089ZM123.413 251.798C123.413 250.849 123.062 250.204 122.358 249.864C121.972 249.683 121.441 249.592 120.768 249.592H117.287V254.065H120.768C121.553 254.065 122.188 253.898 122.675 253.564C123.167 253.23 123.413 252.642 123.413 251.798ZM127.21 248.089H128.792V261H127.21V248.089ZM132.387 258.495C132.387 258.952 132.554 259.312 132.888 259.576C133.222 259.84 133.617 259.972 134.074 259.972C134.631 259.972 135.17 259.843 135.691 259.585C136.57 259.157 137.01 258.457 137.01 257.484V256.21C136.816 256.333 136.567 256.436 136.263 256.518C135.958 256.6 135.659 256.658 135.366 256.693L134.408 256.816C133.834 256.893 133.403 257.013 133.116 257.177C132.63 257.452 132.387 257.892 132.387 258.495ZM136.219 255.296C136.582 255.249 136.825 255.097 136.948 254.839C137.019 254.698 137.054 254.496 137.054 254.232C137.054 253.693 136.86 253.304 136.474 253.063C136.093 252.817 135.545 252.694 134.83 252.694C134.004 252.694 133.418 252.917 133.072 253.362C132.879 253.608 132.753 253.975 132.694 254.461H131.218C131.247 253.301 131.622 252.495 132.343 252.044C133.069 251.587 133.91 251.358 134.865 251.358C135.973 251.358 136.872 251.569 137.563 251.991C138.249 252.413 138.592 253.069 138.592 253.96V259.383C138.592 259.547 138.624 259.679 138.688 259.778C138.759 259.878 138.902 259.928 139.119 259.928C139.189 259.928 139.269 259.925 139.356 259.919C139.444 259.907 139.538 259.893 139.638 259.875V261.044C139.392 261.114 139.204 261.158 139.075 261.176C138.946 261.193 138.771 261.202 138.548 261.202C138.003 261.202 137.607 261.009 137.361 260.622C137.232 260.417 137.142 260.127 137.089 259.752C136.767 260.174 136.304 260.54 135.7 260.851C135.097 261.161 134.432 261.316 133.705 261.316C132.832 261.316 132.117 261.053 131.561 260.525C131.01 259.992 130.734 259.327 130.734 258.53C130.734 257.657 131.007 256.98 131.552 256.5C132.097 256.02 132.812 255.724 133.696 255.612L136.219 255.296ZM144.823 251.314C145.884 251.314 146.745 251.572 147.407 252.088C148.075 252.604 148.477 253.491 148.611 254.751H147.073C146.979 254.171 146.766 253.69 146.432 253.31C146.098 252.923 145.562 252.729 144.823 252.729C143.815 252.729 143.095 253.222 142.661 254.206C142.38 254.845 142.239 255.633 142.239 256.57C142.239 257.514 142.438 258.308 142.837 258.952C143.235 259.597 143.862 259.919 144.718 259.919C145.374 259.919 145.893 259.72 146.273 259.321C146.66 258.917 146.927 258.366 147.073 257.669H148.611C148.436 258.917 147.996 259.831 147.293 260.411C146.59 260.985 145.69 261.272 144.595 261.272C143.364 261.272 142.383 260.824 141.65 259.928C140.918 259.025 140.552 257.9 140.552 256.553C140.552 254.9 140.953 253.614 141.756 252.694C142.559 251.774 143.581 251.314 144.823 251.314ZM154.113 251.376C154.781 251.376 155.429 251.534 156.056 251.851C156.683 252.161 157.16 252.565 157.488 253.063C157.805 253.538 158.016 254.092 158.121 254.725C158.215 255.158 158.262 255.85 158.262 256.799H151.362C151.392 257.754 151.617 258.521 152.039 259.102C152.461 259.676 153.114 259.963 153.999 259.963C154.825 259.963 155.484 259.69 155.977 259.146C156.258 258.829 156.457 258.463 156.574 258.047H158.13C158.089 258.393 157.951 258.779 157.717 259.207C157.488 259.629 157.23 259.975 156.943 260.244C156.463 260.713 155.868 261.029 155.159 261.193C154.778 261.287 154.348 261.334 153.867 261.334C152.695 261.334 151.702 260.909 150.888 260.06C150.073 259.204 149.666 258.009 149.666 256.474C149.666 254.962 150.076 253.734 150.896 252.791C151.717 251.848 152.789 251.376 154.113 251.376ZM156.636 255.542C156.571 254.856 156.422 254.309 156.188 253.898C155.754 253.137 155.03 252.756 154.017 252.756C153.29 252.756 152.681 253.02 152.188 253.547C151.696 254.068 151.436 254.733 151.406 255.542H156.636ZM166.436 258.495C166.436 258.952 166.603 259.312 166.937 259.576C167.271 259.84 167.666 259.972 168.123 259.972C168.68 259.972 169.219 259.843 169.74 259.585C170.619 259.157 171.059 258.457 171.059 257.484V256.21C170.865 256.333 170.616 256.436 170.312 256.518C170.007 256.6 169.708 256.658 169.415 256.693L168.457 256.816C167.883 256.893 167.452 257.013 167.165 257.177C166.679 257.452 166.436 257.892 166.436 258.495ZM170.268 255.296C170.631 255.249 170.874 255.097 170.997 254.839C171.067 254.698 171.103 254.496 171.103 254.232C171.103 253.693 170.909 253.304 170.522 253.063C170.142 252.817 169.594 252.694 168.879 252.694C168.053 252.694 167.467 252.917 167.121 253.362C166.928 253.608 166.802 253.975 166.743 254.461H165.267C165.296 253.301 165.671 252.495 166.392 252.044C167.118 251.587 167.959 251.358 168.914 251.358C170.021 251.358 170.921 251.569 171.612 251.991C172.298 252.413 172.641 253.069 172.641 253.96V259.383C172.641 259.547 172.673 259.679 172.737 259.778C172.808 259.878 172.951 259.928 173.168 259.928C173.238 259.928 173.317 259.925 173.405 259.919C173.493 259.907 173.587 259.893 173.687 259.875V261.044C173.44 261.114 173.253 261.158 173.124 261.176C172.995 261.193 172.819 261.202 172.597 261.202C172.052 261.202 171.656 261.009 171.41 260.622C171.281 260.417 171.19 260.127 171.138 259.752C170.815 260.174 170.353 260.54 169.749 260.851C169.146 261.161 168.48 261.316 167.754 261.316C166.881 261.316 166.166 261.053 165.609 260.525C165.059 259.992 164.783 259.327 164.783 258.53C164.783 257.657 165.056 256.98 165.601 256.5C166.146 256.02 166.86 255.724 167.745 255.612L170.268 255.296ZM175.242 251.587H176.745V252.923C177.19 252.372 177.662 251.977 178.16 251.736C178.658 251.496 179.212 251.376 179.821 251.376C181.157 251.376 182.06 251.842 182.528 252.773C182.786 253.283 182.915 254.013 182.915 254.962V261H181.307V255.067C181.307 254.493 181.222 254.03 181.052 253.679C180.771 253.093 180.261 252.8 179.522 252.8C179.147 252.8 178.84 252.838 178.6 252.914C178.166 253.043 177.785 253.301 177.457 253.688C177.193 253.998 177.021 254.32 176.938 254.654C176.862 254.982 176.824 255.454 176.824 256.069V261H175.242V251.587ZM194.007 259.98C195.056 259.98 195.773 259.585 196.16 258.794C196.553 257.997 196.749 257.112 196.749 256.14C196.749 255.261 196.608 254.546 196.327 253.995C195.882 253.128 195.114 252.694 194.024 252.694C193.058 252.694 192.354 253.063 191.915 253.802C191.476 254.54 191.256 255.431 191.256 256.474C191.256 257.476 191.476 258.311 191.915 258.979C192.354 259.646 193.052 259.98 194.007 259.98ZM194.068 251.314C195.281 251.314 196.307 251.719 197.145 252.527C197.982 253.336 198.401 254.525 198.401 256.096C198.401 257.613 198.032 258.867 197.294 259.857C196.556 260.848 195.41 261.343 193.857 261.343C192.562 261.343 191.534 260.906 190.772 260.033C190.011 259.154 189.63 257.977 189.63 256.5C189.63 254.918 190.031 253.658 190.834 252.721C191.637 251.783 192.715 251.314 194.068 251.314ZM200.335 251.587H201.838V253.213C201.961 252.896 202.263 252.513 202.743 252.062C203.224 251.604 203.777 251.376 204.404 251.376C204.434 251.376 204.483 251.379 204.554 251.385C204.624 251.391 204.744 251.402 204.914 251.42V253.09C204.82 253.072 204.732 253.061 204.65 253.055C204.574 253.049 204.489 253.046 204.396 253.046C203.599 253.046 202.986 253.304 202.559 253.819C202.131 254.329 201.917 254.918 201.917 255.586V261H200.335V251.587ZM207.287 256.403C207.287 257.411 207.501 258.255 207.929 258.935C208.356 259.614 209.042 259.954 209.985 259.954C210.718 259.954 211.318 259.641 211.787 259.014C212.262 258.381 212.499 257.476 212.499 256.298C212.499 255.108 212.256 254.229 211.77 253.661C211.283 253.087 210.683 252.8 209.968 252.8C209.171 252.8 208.523 253.104 208.025 253.714C207.533 254.323 207.287 255.22 207.287 256.403ZM209.669 251.42C210.39 251.42 210.993 251.572 211.479 251.877C211.761 252.053 212.08 252.36 212.438 252.8V248.045H213.958V261H212.534V259.69C212.165 260.271 211.729 260.689 211.225 260.947C210.721 261.205 210.144 261.334 209.493 261.334C208.444 261.334 207.536 260.895 206.769 260.016C206.001 259.131 205.617 257.956 205.617 256.491C205.617 255.12 205.966 253.934 206.663 252.932C207.366 251.924 208.368 251.42 209.669 251.42ZM220.225 251.376C220.893 251.376 221.54 251.534 222.167 251.851C222.794 252.161 223.271 252.565 223.6 253.063C223.916 253.538 224.127 254.092 224.232 254.725C224.326 255.158 224.373 255.85 224.373 256.799H217.474C217.503 257.754 217.729 258.521 218.15 259.102C218.572 259.676 219.226 259.963 220.11 259.963C220.937 259.963 221.596 259.69 222.088 259.146C222.369 258.829 222.568 258.463 222.686 258.047H224.241C224.2 258.393 224.062 258.779 223.828 259.207C223.6 259.629 223.342 259.975 223.055 260.244C222.574 260.713 221.979 261.029 221.271 261.193C220.89 261.287 220.459 261.334 219.979 261.334C218.807 261.334 217.813 260.909 216.999 260.06C216.185 259.204 215.777 258.009 215.777 256.474C215.777 254.962 216.188 253.734 217.008 252.791C217.828 251.848 218.9 251.376 220.225 251.376ZM222.747 255.542C222.683 254.856 222.533 254.309 222.299 253.898C221.865 253.137 221.142 252.756 220.128 252.756C219.401 252.756 218.792 253.02 218.3 253.547C217.808 254.068 217.547 254.733 217.518 255.542H222.747ZM226.368 251.587H227.871V253.213C227.994 252.896 228.296 252.513 228.776 252.062C229.257 251.604 229.811 251.376 230.438 251.376C230.467 251.376 230.517 251.379 230.587 251.385C230.657 251.391 230.777 251.402 230.947 251.42V253.09C230.854 253.072 230.766 253.061 230.684 253.055C230.607 253.049 230.522 253.046 230.429 253.046C229.632 253.046 229.02 253.304 228.592 253.819C228.164 254.329 227.95 254.918 227.95 255.586V261H226.368V251.587Z" fill="white"/>
    <path d="M245.125 255H258.875" stroke="white" stroke-width="1.5" stroke-linecap="round" stroke-linejoin="round"/>
    <path d="M253.25 249.375L258.875 255L253.25 260.625" stroke="white" stroke-width="1.5" stroke-linecap="round" stroke-linejoin="round"/>
    </svg>
