<svg width="43" height="42" viewBox="0 0 43 42" fill="none" xmlns="http://www.w3.org/2000/svg">
<path d="M37.8343 29.6956C40.2237 26.1435 41.256 21.7488 40.7203 17.4092L39.9885 11.4624C39.5312 7.77832 32.8223 6.49405 26.0525 6.81943C26.5574 4.99686 26.8929 2.81818 25.9468 1.39521C25.2167 0.419231 24.0775 -0.0989924 22.9145 0.0157275C21.7506 -0.098728 20.6107 0.420026 19.8801 1.39671C18.7911 3.0356 19.3864 5.62738 19.9823 7.51967C11.9919 8.95463 6.01627 12.1132 5.34608 15.2853C5.25319 15.6345 5.22933 16.0007 5.27605 16.3604V16.3723L5.45673 17.8433C3.73057 18.0576 2.1759 19.0623 1.19471 20.5978C0.215731 22.2487 -0.165595 24.2259 0.122554 26.1569C0.420463 28.2444 1.57701 30.0788 3.2739 31.1553C3.86209 31.5556 4.49377 31.8773 5.1549 32.1135C4.59126 32.7657 4.26779 33.6146 4.24451 34.5028C4.24451 39.376 13.9864 42 23.1526 42C32.3188 42 42.0606 39.376 42.0606 34.5028C42.0606 32.6577 40.6012 31.0076 37.8343 29.6956ZM26.6716 35.2683L23.8949 35.6604C15.8467 36.7801 8.46875 30.7193 7.39586 22.107L7.00299 18.9139C9.1277 20.3796 12.9555 21.0453 17.1895 21.0453C19.2852 21.0403 21.3783 20.89 23.4558 20.5955C29.4013 19.7603 34.6851 17.907 37.613 15.6301C37.6356 15.6164 37.6574 15.6011 37.6782 15.5844C38.1354 15.2343 38.5578 14.8349 38.9387 14.3923L39.3337 17.6011C40.3852 26.2205 34.7205 34.1243 26.6716 35.2683ZM6.00506 22.3034C6.25428 24.3184 6.83593 26.27 7.7229 28.0672C6.99228 28.061 6.27592 27.8501 5.64511 27.4554C4.95151 27.0748 4.45319 26.3821 4.28653 25.5669C4.17005 24.8266 4.25439 24.066 4.52953 23.3755C4.80553 22.7601 5.36893 22.3507 6.00506 22.3034ZM38.6005 11.6574C38.6929 12.4071 38.1411 13.3022 37.0521 14.2064C35.1375 13.9847 33.2053 14.0043 31.295 14.2649C28.9406 14.576 27.145 14.2199 26.1008 13.2325C25.394 12.5328 25.0014 11.5422 25.0224 10.5118C25.1262 9.76886 25.3144 9.04226 25.5826 8.34811C33.419 7.87054 38.3491 9.62863 38.6005 11.6604V11.6574ZM21.0216 2.26488C21.4981 1.69701 22.2053 1.41663 22.9124 1.51517C23.6196 1.41557 24.3272 1.69612 24.8032 2.26488C25.6526 3.54316 24.717 6.43257 24.4096 7.38172L24.4026 7.40496L24.2675 7.8233C23.9301 8.68067 23.7125 9.58655 23.6218 10.5118C23.5986 11.973 24.164 13.3743 25.1736 14.3579C26.5469 15.6564 28.6646 16.1287 31.4672 15.7538C32.6421 15.5996 33.826 15.5377 35.0093 15.5687C31.3016 17.4223 27.3371 18.6185 23.2709 19.1103C13.8673 20.4351 6.97568 18.6245 6.66475 16.1797V16.1639C6.66475 16.1407 6.66475 16.1204 6.66475 16.098C9.19349 15.498 11.8014 15.3815 14.368 15.7538C17.1692 16.1287 19.2834 15.6571 20.656 14.3601C21.668 13.378 22.2315 11.9737 22.2002 10.5118C22.1128 9.59447 21.9004 8.69579 21.5699 7.8443C21.5041 7.65986 21.4446 7.47543 21.3822 7.27451C20.5811 4.79744 20.4585 3.11207 21.0216 2.26488ZM20.4452 8.95613C20.6253 9.45624 20.7444 9.9791 20.7996 10.5118C20.8206 11.5433 20.428 12.535 19.7211 13.2363C18.6784 14.2229 16.8849 14.5775 14.5326 14.2664C12.1617 13.9347 9.75792 13.9822 7.40006 14.4073C9.1326 12.3861 13.8505 10.1077 20.4452 8.95613ZM1.51335 25.9613C1.26983 24.3946 1.56863 22.7866 2.35371 21.439C3.10638 20.2537 4.30765 19.4825 5.63881 19.33L5.82159 20.8167C4.72005 20.9287 3.75345 21.6493 3.2732 22.7165C2.87589 23.6728 2.746 24.7319 2.89924 25.7656C3.10511 27.0471 3.85914 28.1517 4.93711 28.751C5.95182 29.3946 7.13321 29.6712 8.30625 29.5397C8.37628 29.5299 8.4337 29.5037 8.50093 29.4909C8.78105 29.946 9.07587 30.3906 9.39241 30.8112C9.09753 30.9112 8.795 30.9832 8.48832 31.0264C6.92221 31.2033 5.34656 30.8029 4.02182 29.8913C2.67911 29.0484 1.75893 27.6067 1.51335 25.9613ZM23.1526 40.5006C12.8358 40.5006 5.64511 37.3397 5.64511 34.5028C5.73818 33.6969 6.14746 32.9717 6.77049 32.5086C7.08935 32.5529 7.41046 32.5762 7.732 32.5783C8.64253 32.5851 9.54484 32.3935 10.384 32.0152C13.9262 35.9604 19.0106 37.8656 24.0777 37.1463L26.8551 36.752C30.7716 36.2026 34.3609 34.1251 36.9352 30.9177C39.3015 31.9778 40.66 33.268 40.66 34.5028C40.66 37.3397 33.4694 40.5006 23.1526 40.5006Z" fill="#BC9A6C"/>
</svg>
