<svg width="265" height="30" viewBox="0 0 265 30" fill="none" xmlns="http://www.w3.org/2000/svg">
<path d="M53.999 10.2949V18.75H56.4951C57.7725 18.75 58.6631 18.1201 59.167 16.8604C59.4424 16.1689 59.5801 15.3457 59.5801 14.3906C59.5801 13.0723 59.3721 12.0615 58.9561 11.3584C58.5459 10.6494 57.7256 10.2949 56.4951 10.2949H53.999ZM56.9521 8.04492C57.7549 8.05664 58.4229 8.15039 58.9561 8.32617C59.8643 8.625 60.5996 9.17285 61.1621 9.96973C61.6133 10.6143 61.9209 11.3115 62.085 12.0615C62.249 12.8115 62.3311 13.5264 62.3311 14.2061C62.3311 15.9287 61.9854 17.3877 61.2939 18.583C60.3564 20.1943 58.9092 21 56.9521 21H51.3711V8.04492H56.9521ZM66.752 10.2773H64.2119V7.96582H66.752V10.2773ZM64.2119 11.4199H66.752V21H64.2119V11.4199ZM72.7197 7.91309C72.8779 7.91309 73.0215 7.91895 73.1504 7.93066C73.2793 7.93652 73.4551 7.94824 73.6777 7.96582V10.0049C73.5371 9.9873 73.2998 9.97559 72.9658 9.96973C72.6377 9.95801 72.4092 10.0312 72.2803 10.1895C72.1572 10.3418 72.0957 10.5117 72.0957 10.6992C72.0957 10.8867 72.0957 11.1562 72.0957 11.5078H73.7393V13.2744H72.0957V21H69.5996V13.2744H68.2021V11.5078H69.5732V10.8926C69.5732 9.86719 69.7461 9.16113 70.0918 8.77441C70.4551 8.2002 71.3311 7.91309 72.7197 7.91309ZM78.7139 7.91309C78.8721 7.91309 79.0156 7.91895 79.1445 7.93066C79.2734 7.93652 79.4492 7.94824 79.6719 7.96582V10.0049C79.5312 9.9873 79.2939 9.97559 78.96 9.96973C78.6318 9.95801 78.4033 10.0312 78.2744 10.1895C78.1514 10.3418 78.0898 10.5117 78.0898 10.6992C78.0898 10.8867 78.0898 11.1562 78.0898 11.5078H79.7334V13.2744H78.0898V21H75.5938V13.2744H74.1963V11.5078H75.5674V10.8926C75.5674 9.86719 75.7402 9.16113 76.0859 8.77441C76.4492 8.2002 77.3252 7.91309 78.7139 7.91309ZM84.9541 13.2305C84.374 13.2305 83.9229 13.4121 83.6006 13.7754C83.2842 14.1387 83.085 14.6309 83.0029 15.252H86.8965C86.8555 14.5898 86.6533 14.0889 86.29 13.749C85.9326 13.4033 85.4873 13.2305 84.9541 13.2305ZM84.9541 11.165C85.751 11.165 86.4688 11.3145 87.1074 11.6133C87.7461 11.9121 88.2734 12.3838 88.6895 13.0283C89.0645 13.5967 89.3076 14.2559 89.4189 15.0059C89.4834 15.4453 89.5098 16.0781 89.498 16.9043H82.9414C82.9766 17.8652 83.2783 18.5391 83.8467 18.9258C84.1924 19.166 84.6084 19.2861 85.0947 19.2861C85.6104 19.2861 86.0293 19.1396 86.3516 18.8467C86.5273 18.6885 86.6826 18.4688 86.8174 18.1875H89.375C89.3105 18.7559 89.0146 19.333 88.4873 19.9189C87.667 20.8506 86.5186 21.3164 85.042 21.3164C83.8232 21.3164 82.748 20.9238 81.8164 20.1387C80.8848 19.3535 80.4189 18.0762 80.4189 16.3066C80.4189 14.6484 80.8379 13.377 81.6758 12.4922C82.5195 11.6074 83.6123 11.165 84.9541 11.165ZM96.3975 11.1914C96.4443 11.1914 96.4824 11.1943 96.5117 11.2002C96.5469 11.2002 96.6201 11.2031 96.7314 11.209V13.7754C96.5732 13.7578 96.4326 13.7461 96.3096 13.7402C96.1865 13.7344 96.0869 13.7314 96.0107 13.7314C95.0029 13.7314 94.3262 14.0596 93.9805 14.7158C93.7871 15.085 93.6904 15.6533 93.6904 16.4209V21H91.168V11.4199H93.5586V13.0898C93.9453 12.4512 94.2822 12.0146 94.5693 11.7803C95.0381 11.3877 95.6475 11.1914 96.3975 11.1914ZM101.987 13.2305C101.407 13.2305 100.956 13.4121 100.634 13.7754C100.317 14.1387 100.118 14.6309 100.036 15.252H103.93C103.889 14.5898 103.687 14.0889 103.323 13.749C102.966 13.4033 102.521 13.2305 101.987 13.2305ZM101.987 11.165C102.784 11.165 103.502 11.3145 104.141 11.6133C104.779 11.9121 105.307 12.3838 105.723 13.0283C106.098 13.5967 106.341 14.2559 106.452 15.0059C106.517 15.4453 106.543 16.0781 106.531 16.9043H99.9746C100.01 17.8652 100.312 18.5391 100.88 18.9258C101.226 19.166 101.642 19.2861 102.128 19.2861C102.644 19.2861 103.062 19.1396 103.385 18.8467C103.561 18.6885 103.716 18.4688 103.851 18.1875H106.408C106.344 18.7559 106.048 19.333 105.521 19.9189C104.7 20.8506 103.552 21.3164 102.075 21.3164C100.856 21.3164 99.7812 20.9238 98.8496 20.1387C97.918 19.3535 97.4521 18.0762 97.4521 16.3066C97.4521 14.6484 97.8711 13.377 98.709 12.4922C99.5527 11.6074 100.646 11.165 101.987 11.165ZM113.536 11.1914C114.526 11.1914 115.335 11.4521 115.962 11.9736C116.595 12.4893 116.911 13.3477 116.911 14.5488V21H114.345V15.1729C114.345 14.6689 114.277 14.2822 114.143 14.0127C113.896 13.5205 113.428 13.2744 112.736 13.2744C111.887 13.2744 111.304 13.6348 110.987 14.3555C110.823 14.7363 110.741 15.2227 110.741 15.8145V21H108.245V11.4375H110.662V12.835C110.984 12.3428 111.289 11.9883 111.576 11.7715C112.092 11.3848 112.745 11.1914 113.536 11.1914ZM118.247 13.292V11.5078H119.583V8.83594H122.062V11.5078H123.617V13.292H122.062V18.3545C122.062 18.7471 122.111 18.9932 122.211 19.0928C122.311 19.1865 122.615 19.2334 123.125 19.2334C123.201 19.2334 123.28 19.2334 123.362 19.2334C123.45 19.2275 123.535 19.2217 123.617 19.2158V21.0879L122.431 21.1318C121.247 21.1729 120.438 20.9678 120.005 20.5166C119.724 20.2295 119.583 19.7871 119.583 19.1895V13.292H118.247ZM129.875 14.6279C129.875 12.3662 130.481 10.623 131.694 9.39844C132.749 8.33203 134.091 7.79883 135.72 7.79883C137.899 7.79883 139.493 8.51367 140.501 9.94336C141.058 10.7461 141.356 11.5518 141.397 12.3604H138.69C138.515 11.7393 138.289 11.2705 138.014 10.9541C137.521 10.3916 136.792 10.1104 135.825 10.1104C134.841 10.1104 134.064 10.5088 133.496 11.3057C132.928 12.0967 132.644 13.2188 132.644 14.6719C132.644 16.125 132.942 17.2148 133.54 17.9414C134.144 18.6621 134.908 19.0225 135.834 19.0225C136.783 19.0225 137.507 18.7119 138.005 18.0908C138.28 17.7568 138.509 17.2559 138.69 16.5879H141.371C141.137 18 140.536 19.1484 139.569 20.0332C138.608 20.918 137.375 21.3604 135.869 21.3604C134.006 21.3604 132.541 20.7627 131.475 19.5674C130.408 18.3662 129.875 16.7197 129.875 14.6279ZM147.541 19.2334C148.273 19.2334 148.836 18.9727 149.229 18.4512C149.621 17.9297 149.817 17.1885 149.817 16.2275C149.817 15.2666 149.621 14.5283 149.229 14.0127C148.836 13.4912 148.273 13.2305 147.541 13.2305C146.809 13.2305 146.243 13.4912 145.845 14.0127C145.452 14.5283 145.256 15.2666 145.256 16.2275C145.256 17.1885 145.452 17.9297 145.845 18.4512C146.243 18.9727 146.809 19.2334 147.541 19.2334ZM152.445 16.2275C152.445 17.6338 152.041 18.8379 151.232 19.8398C150.424 20.8359 149.196 21.334 147.55 21.334C145.903 21.334 144.676 20.8359 143.867 19.8398C143.059 18.8379 142.654 17.6338 142.654 16.2275C142.654 14.8447 143.059 13.6465 143.867 12.6328C144.676 11.6191 145.903 11.1123 147.55 11.1123C149.196 11.1123 150.424 11.6191 151.232 12.6328C152.041 13.6465 152.445 14.8447 152.445 16.2275ZM157.78 7.91309C157.938 7.91309 158.082 7.91895 158.211 7.93066C158.34 7.93652 158.516 7.94824 158.738 7.96582V10.0049C158.598 9.9873 158.36 9.97559 158.026 9.96973C157.698 9.95801 157.47 10.0312 157.341 10.1895C157.218 10.3418 157.156 10.5117 157.156 10.6992C157.156 10.8867 157.156 11.1562 157.156 11.5078H158.8V13.2744H157.156V21H154.66V13.2744H153.263V11.5078H154.634V10.8926C154.634 9.86719 154.807 9.16113 155.152 8.77441C155.516 8.2002 156.392 7.91309 157.78 7.91309ZM163.774 7.91309C163.933 7.91309 164.076 7.91895 164.205 7.93066C164.334 7.93652 164.51 7.94824 164.732 7.96582V10.0049C164.592 9.9873 164.354 9.97559 164.021 9.96973C163.692 9.95801 163.464 10.0312 163.335 10.1895C163.212 10.3418 163.15 10.5117 163.15 10.6992C163.15 10.8867 163.15 11.1562 163.15 11.5078H164.794V13.2744H163.15V21H160.654V13.2744H159.257V11.5078H160.628V10.8926C160.628 9.86719 160.801 9.16113 161.146 8.77441C161.51 8.2002 162.386 7.91309 163.774 7.91309ZM170.015 13.2305C169.435 13.2305 168.983 13.4121 168.661 13.7754C168.345 14.1387 168.146 14.6309 168.063 15.252H171.957C171.916 14.5898 171.714 14.0889 171.351 13.749C170.993 13.4033 170.548 13.2305 170.015 13.2305ZM170.015 11.165C170.812 11.165 171.529 11.3145 172.168 11.6133C172.807 11.9121 173.334 12.3838 173.75 13.0283C174.125 13.5967 174.368 14.2559 174.479 15.0059C174.544 15.4453 174.57 16.0781 174.559 16.9043H168.002C168.037 17.8652 168.339 18.5391 168.907 18.9258C169.253 19.166 169.669 19.2861 170.155 19.2861C170.671 19.2861 171.09 19.1396 171.412 18.8467C171.588 18.6885 171.743 18.4688 171.878 18.1875H174.436C174.371 18.7559 174.075 19.333 173.548 19.9189C172.728 20.8506 171.579 21.3164 170.103 21.3164C168.884 21.3164 167.809 20.9238 166.877 20.1387C165.945 19.3535 165.479 18.0762 165.479 16.3066C165.479 14.6484 165.898 13.377 166.736 12.4922C167.58 11.6074 168.673 11.165 170.015 11.165ZM180.034 13.2305C179.454 13.2305 179.003 13.4121 178.681 13.7754C178.364 14.1387 178.165 14.6309 178.083 15.252H181.977C181.936 14.5898 181.733 14.0889 181.37 13.749C181.013 13.4033 180.567 13.2305 180.034 13.2305ZM180.034 11.165C180.831 11.165 181.549 11.3145 182.188 11.6133C182.826 11.9121 183.354 12.3838 183.77 13.0283C184.145 13.5967 184.388 14.2559 184.499 15.0059C184.563 15.4453 184.59 16.0781 184.578 16.9043H178.021C178.057 17.8652 178.358 18.5391 178.927 18.9258C179.272 19.166 179.688 19.2861 180.175 19.2861C180.69 19.2861 181.109 19.1396 181.432 18.8467C181.607 18.6885 181.763 18.4688 181.897 18.1875H184.455C184.391 18.7559 184.095 19.333 183.567 19.9189C182.747 20.8506 181.599 21.3164 180.122 21.3164C178.903 21.3164 177.828 20.9238 176.896 20.1387C175.965 19.3535 175.499 18.0762 175.499 16.3066C175.499 14.6484 175.918 13.377 176.756 12.4922C177.6 11.6074 178.692 11.165 180.034 11.165ZM191.091 17.5811C191.091 16.8018 191.284 16.1338 191.671 15.5771C192.058 15.0205 192.69 14.4697 193.569 13.9248L193.842 13.7578C193.467 13.3359 193.177 12.9053 192.972 12.4658C192.767 12.0264 192.664 11.5693 192.664 11.0947C192.664 10.1514 192.98 9.41602 193.613 8.88867C194.246 8.35547 195.066 8.08887 196.074 8.08887C196.994 8.08887 197.753 8.36133 198.351 8.90625C198.954 9.44531 199.256 10.1367 199.256 10.9805C199.256 11.7422 199.074 12.3604 198.711 12.835C198.354 13.3096 197.826 13.749 197.129 14.1533L198.966 16.4209C199.177 16.1162 199.338 15.7852 199.449 15.4277C199.566 15.0703 199.628 14.6924 199.634 14.2939H201.857C201.822 15.0791 201.635 15.873 201.295 16.6758C201.107 17.127 200.803 17.625 200.381 18.1699L202.736 21H199.695L198.799 19.9014C198.365 20.3057 197.961 20.6045 197.586 20.7979C196.918 21.1436 196.147 21.3164 195.274 21.3164C193.962 21.3164 192.937 20.9297 192.198 20.1562C191.46 19.3828 191.091 18.5244 191.091 17.5811ZM194.967 11.0068C194.967 11.2412 195.049 11.4873 195.213 11.7451C195.318 11.915 195.547 12.2168 195.898 12.6504C196.25 12.4043 196.502 12.1963 196.654 12.0264C196.947 11.71 197.094 11.3672 197.094 10.998C197.094 10.7285 197.006 10.4883 196.83 10.2773C196.654 10.0664 196.388 9.96094 196.03 9.96094C195.808 9.96094 195.6 10.0225 195.406 10.1455C195.113 10.3271 194.967 10.6143 194.967 11.0068ZM193.587 17.502C193.587 17.9297 193.76 18.3223 194.105 18.6797C194.457 19.0371 194.905 19.2158 195.45 19.2158C195.86 19.2158 196.247 19.1221 196.61 18.9346C196.979 18.7412 197.278 18.5273 197.507 18.293L195.134 15.3574C194.507 15.7734 194.091 16.1396 193.886 16.4561C193.687 16.7725 193.587 17.1211 193.587 17.502ZM212.132 10.2949V18.75H214.628C215.905 18.75 216.796 18.1201 217.3 16.8604C217.575 16.1689 217.713 15.3457 217.713 14.3906C217.713 13.0723 217.505 12.0615 217.089 11.3584C216.679 10.6494 215.858 10.2949 214.628 10.2949H212.132ZM215.085 8.04492C215.888 8.05664 216.556 8.15039 217.089 8.32617C217.997 8.625 218.732 9.17285 219.295 9.96973C219.746 10.6143 220.054 11.3115 220.218 12.0615C220.382 12.8115 220.464 13.5264 220.464 14.2061C220.464 15.9287 220.118 17.3877 219.427 18.583C218.489 20.1943 217.042 21 215.085 21H209.504V8.04492H215.085ZM227.513 11.1914C227.56 11.1914 227.598 11.1943 227.627 11.2002C227.662 11.2002 227.735 11.2031 227.847 11.209V13.7754C227.688 13.7578 227.548 13.7461 227.425 13.7402C227.302 13.7344 227.202 13.7314 227.126 13.7314C226.118 13.7314 225.441 14.0596 225.096 14.7158C224.902 15.085 224.806 15.6533 224.806 16.4209V21H222.283V11.4199H224.674V13.0898C225.061 12.4512 225.397 12.0146 225.685 11.7803C226.153 11.3877 226.763 11.1914 227.513 11.1914ZM231.898 10.2773H229.358V7.96582H231.898V10.2773ZM229.358 11.4199H231.898V21H229.358V11.4199ZM239.642 11.1914C240.632 11.1914 241.44 11.4521 242.067 11.9736C242.7 12.4893 243.017 13.3477 243.017 14.5488V21H240.45V15.1729C240.45 14.6689 240.383 14.2822 240.248 14.0127C240.002 13.5205 239.533 13.2744 238.842 13.2744C237.992 13.2744 237.409 13.6348 237.093 14.3555C236.929 14.7363 236.847 15.2227 236.847 15.8145V21H234.351V11.4375H236.768V12.835C237.09 12.3428 237.395 11.9883 237.682 11.7715C238.197 11.3848 238.851 11.1914 239.642 11.1914ZM245.311 8.08887H247.771V15.0674L250.892 11.4639H253.994L250.646 15.1289L254.126 21H251.103L248.809 16.9043L247.771 17.9854V21H245.311V8.08887ZM257.308 17.9414C257.36 18.3867 257.475 18.7031 257.65 18.8906C257.961 19.2246 258.535 19.3916 259.373 19.3916C259.865 19.3916 260.255 19.3184 260.542 19.1719C260.835 19.0254 260.981 18.8057 260.981 18.5127C260.981 18.2314 260.864 18.0176 260.63 17.8711C260.396 17.7246 259.525 17.4727 258.02 17.1152C256.936 16.8457 256.171 16.5088 255.726 16.1045C255.28 15.7061 255.058 15.1318 255.058 14.3818C255.058 13.4971 255.403 12.7383 256.095 12.1055C256.792 11.4668 257.771 11.1475 259.03 11.1475C260.226 11.1475 261.198 11.3877 261.948 11.8682C262.704 12.3428 263.138 13.166 263.249 14.3379H260.744C260.709 14.0156 260.618 13.7607 260.472 13.5732C260.196 13.2334 259.728 13.0635 259.065 13.0635C258.521 13.0635 258.131 13.1484 257.896 13.3184C257.668 13.4883 257.554 13.6875 257.554 13.916C257.554 14.2031 257.677 14.4111 257.923 14.54C258.169 14.6748 259.039 14.9062 260.533 15.2344C261.529 15.4688 262.276 15.8232 262.774 16.2979C263.267 16.7783 263.513 17.3789 263.513 18.0996C263.513 19.0488 263.158 19.8252 262.449 20.4287C261.746 21.0264 260.656 21.3252 259.18 21.3252C257.674 21.3252 256.561 21.0088 255.84 20.376C255.125 19.7373 254.768 18.9258 254.768 17.9414H257.308Z" fill="#4F4F4F"/>
<path d="M29.75 0H0V28.6632H29.75V0Z" fill="white"/>
<path d="M32.9032 0.342529H1.09677C0.491042 0.342529 0 0.744898 0 1.24124V29.1014C0 29.5978 0.491042 30.0001 1.09677 30.0001H32.9032C33.509 30.0001 34 29.5978 34 29.1014V1.24124C34 0.744898 33.509 0.342529 32.9032 0.342529Z" fill="#EDEAE3"/>
<path d="M25.25 9.75049L14.75 20.25L9.5 15.0005" stroke="#1F242E" stroke-width="1.5" stroke-linecap="round" stroke-linejoin="round"/>
</svg>
