<svg width="213" height="30" viewBox="0 0 213 30" fill="none" xmlns="http://www.w3.org/2000/svg">
<path d="M60.9512 10.3389H54.0957V13.0898H60.3887V15.3398H54.0957V18.6709H61.2676V21H51.4502V8.04492H60.9512V10.3389ZM62.2344 21L65.5039 16.1484L62.375 11.4375H65.4424L67.042 14.2148L68.6064 11.4375H71.5859L68.4395 16.1045L71.709 21H68.5889L66.9365 18.126L65.2754 21H62.2344ZM79.7949 16.21C79.7949 15.4717 79.625 14.8184 79.2852 14.25C78.9512 13.6816 78.4062 13.3975 77.6504 13.3975C76.7422 13.3975 76.1182 13.8281 75.7783 14.6895C75.6025 15.1465 75.5146 15.7266 75.5146 16.4297C75.5146 17.543 75.8105 18.3252 76.4023 18.7764C76.7539 19.04 77.1699 19.1719 77.6504 19.1719C78.3477 19.1719 78.8779 18.9023 79.2412 18.3633C79.6104 17.8242 79.7949 17.1064 79.7949 16.21ZM78.3711 11.209C79.4902 11.209 80.4365 11.6221 81.21 12.4482C81.9893 13.2744 82.3789 14.4873 82.3789 16.0869C82.3789 17.7744 81.998 19.0605 81.2363 19.9453C80.4805 20.8301 79.5049 21.2725 78.3096 21.2725C77.5479 21.2725 76.915 21.082 76.4111 20.7012C76.1357 20.4902 75.8662 20.1826 75.6025 19.7783V24.7705H73.124V11.4199H75.5234V12.835C75.793 12.4189 76.0801 12.0908 76.3848 11.8506C76.9414 11.4229 77.6035 11.209 78.3711 11.209ZM87.9775 13.2305C87.3975 13.2305 86.9463 13.4121 86.624 13.7754C86.3076 14.1387 86.1084 14.6309 86.0264 15.252H89.9199C89.8789 14.5898 89.6768 14.0889 89.3135 13.749C88.9561 13.4033 88.5107 13.2305 87.9775 13.2305ZM87.9775 11.165C88.7744 11.165 89.4922 11.3145 90.1309 11.6133C90.7695 11.9121 91.2969 12.3838 91.7129 13.0283C92.0879 13.5967 92.3311 14.2559 92.4424 15.0059C92.5068 15.4453 92.5332 16.0781 92.5215 16.9043H85.9648C86 17.8652 86.3018 18.5391 86.8701 18.9258C87.2158 19.166 87.6318 19.2861 88.1182 19.2861C88.6338 19.2861 89.0527 19.1396 89.375 18.8467C89.5508 18.6885 89.7061 18.4688 89.8408 18.1875H92.3984C92.334 18.7559 92.0381 19.333 91.5107 19.9189C90.6904 20.8506 89.542 21.3164 88.0654 21.3164C86.8467 21.3164 85.7715 20.9238 84.8398 20.1387C83.9082 19.3535 83.4424 18.0762 83.4424 16.3066C83.4424 14.6484 83.8613 13.377 84.6992 12.4922C85.543 11.6074 86.6357 11.165 87.9775 11.165ZM99.4209 11.1914C99.4678 11.1914 99.5059 11.1943 99.5352 11.2002C99.5703 11.2002 99.6436 11.2031 99.7549 11.209V13.7754C99.5967 13.7578 99.4561 13.7461 99.333 13.7402C99.21 13.7344 99.1104 13.7314 99.0342 13.7314C98.0264 13.7314 97.3496 14.0596 97.0039 14.7158C96.8105 15.085 96.7139 15.6533 96.7139 16.4209V21H94.1914V11.4199H96.582V13.0898C96.9688 12.4512 97.3057 12.0146 97.5928 11.7803C98.0615 11.3877 98.6709 11.1914 99.4209 11.1914ZM103.807 10.2773H101.267V7.96582H103.807V10.2773ZM101.267 11.4199H103.807V21H101.267V11.4199ZM110.021 13.2305C109.44 13.2305 108.989 13.4121 108.667 13.7754C108.351 14.1387 108.151 14.6309 108.069 15.252H111.963C111.922 14.5898 111.72 14.0889 111.356 13.749C110.999 13.4033 110.554 13.2305 110.021 13.2305ZM110.021 11.165C110.817 11.165 111.535 11.3145 112.174 11.6133C112.812 11.9121 113.34 12.3838 113.756 13.0283C114.131 13.5967 114.374 14.2559 114.485 15.0059C114.55 15.4453 114.576 16.0781 114.564 16.9043H108.008C108.043 17.8652 108.345 18.5391 108.913 18.9258C109.259 19.166 109.675 19.2861 110.161 19.2861C110.677 19.2861 111.096 19.1396 111.418 18.8467C111.594 18.6885 111.749 18.4688 111.884 18.1875H114.441C114.377 18.7559 114.081 19.333 113.554 19.9189C112.733 20.8506 111.585 21.3164 110.108 21.3164C108.89 21.3164 107.814 20.9238 106.883 20.1387C105.951 19.3535 105.485 18.0762 105.485 16.3066C105.485 14.6484 105.904 13.377 106.742 12.4922C107.586 11.6074 108.679 11.165 110.021 11.165ZM121.569 11.1914C122.56 11.1914 123.368 11.4521 123.995 11.9736C124.628 12.4893 124.944 13.3477 124.944 14.5488V21H122.378V15.1729C122.378 14.6689 122.311 14.2822 122.176 14.0127C121.93 13.5205 121.461 13.2744 120.77 13.2744C119.92 13.2744 119.337 13.6348 119.021 14.3555C118.856 14.7363 118.774 15.2227 118.774 15.8145V21H116.278V11.4375H118.695V12.835C119.018 12.3428 119.322 11.9883 119.609 11.7715C120.125 11.3848 120.778 11.1914 121.569 11.1914ZM132.986 14.8564C132.939 14.499 132.819 14.1768 132.626 13.8896C132.345 13.5029 131.908 13.3096 131.316 13.3096C130.473 13.3096 129.896 13.7285 129.585 14.5664C129.421 15.0117 129.339 15.6035 129.339 16.3418C129.339 17.0449 129.421 17.6104 129.585 18.0381C129.884 18.835 130.446 19.2334 131.272 19.2334C131.858 19.2334 132.274 19.0752 132.521 18.7588C132.767 18.4424 132.916 18.0322 132.969 17.5283H135.526C135.468 18.29 135.192 19.0107 134.7 19.6904C133.915 20.7861 132.752 21.334 131.211 21.334C129.67 21.334 128.536 20.877 127.81 19.9629C127.083 19.0488 126.72 17.8623 126.72 16.4033C126.72 14.7568 127.121 13.4766 127.924 12.5625C128.727 11.6484 129.834 11.1914 131.246 11.1914C132.447 11.1914 133.429 11.4609 134.19 12C134.958 12.5391 135.412 13.4912 135.553 14.8564H132.986ZM141.063 13.2305C140.483 13.2305 140.032 13.4121 139.71 13.7754C139.394 14.1387 139.194 14.6309 139.112 15.252H143.006C142.965 14.5898 142.763 14.0889 142.399 13.749C142.042 13.4033 141.597 13.2305 141.063 13.2305ZM141.063 11.165C141.86 11.165 142.578 11.3145 143.217 11.6133C143.855 11.9121 144.383 12.3838 144.799 13.0283C145.174 13.5967 145.417 14.2559 145.528 15.0059C145.593 15.4453 145.619 16.0781 145.607 16.9043H139.051C139.086 17.8652 139.388 18.5391 139.956 18.9258C140.302 19.166 140.718 19.2861 141.204 19.2861C141.72 19.2861 142.139 19.1396 142.461 18.8467C142.637 18.6885 142.792 18.4688 142.927 18.1875H145.484C145.42 18.7559 145.124 19.333 144.597 19.9189C143.776 20.8506 142.628 21.3164 141.151 21.3164C139.933 21.3164 138.857 20.9238 137.926 20.1387C136.994 19.3535 136.528 18.0762 136.528 16.3066C136.528 14.6484 136.947 13.377 137.785 12.4922C138.629 11.6074 139.722 11.165 141.063 11.165ZM150.837 11.1914C151.417 11.1914 151.933 11.3203 152.384 11.5781C152.835 11.8301 153.201 12.1816 153.482 12.6328V8.0625H156.022V21H153.588V19.6729C153.23 20.2412 152.823 20.6543 152.366 20.9121C151.909 21.1699 151.341 21.2988 150.661 21.2988C149.542 21.2988 148.599 20.8477 147.831 19.9453C147.069 19.0371 146.688 17.874 146.688 16.4561C146.688 14.8213 147.063 13.5352 147.813 12.5977C148.569 11.6602 149.577 11.1914 150.837 11.1914ZM151.382 19.1895C152.091 19.1895 152.63 18.9258 152.999 18.3984C153.368 17.8711 153.553 17.1885 153.553 16.3506C153.553 15.1787 153.257 14.3408 152.665 13.8369C152.302 13.5322 151.88 13.3799 151.399 13.3799C150.667 13.3799 150.128 13.6582 149.782 14.2148C149.442 14.7656 149.272 15.4512 149.272 16.2715C149.272 17.1562 149.445 17.8652 149.791 18.3984C150.143 18.9258 150.673 19.1895 151.382 19.1895ZM162.957 14.6279C162.957 12.3662 163.563 10.623 164.776 9.39844C165.831 8.33203 167.173 7.79883 168.802 7.79883C170.981 7.79883 172.575 8.51367 173.583 9.94336C174.14 10.7461 174.438 11.5518 174.479 12.3604H171.772C171.597 11.7393 171.371 11.2705 171.096 10.9541C170.604 10.3916 169.874 10.1104 168.907 10.1104C167.923 10.1104 167.146 10.5088 166.578 11.3057C166.01 12.0967 165.726 13.2188 165.726 14.6719C165.726 16.125 166.024 17.2148 166.622 17.9414C167.226 18.6621 167.99 19.0225 168.916 19.0225C169.865 19.0225 170.589 18.7119 171.087 18.0908C171.362 17.7568 171.591 17.2559 171.772 16.5879H174.453C174.219 18 173.618 19.1484 172.651 20.0332C171.69 20.918 170.457 21.3604 168.951 21.3604C167.088 21.3604 165.623 20.7627 164.557 19.5674C163.49 18.3662 162.957 16.7197 162.957 14.6279ZM181.607 11.1738C182.199 11.1738 182.735 11.2764 183.216 11.4814C183.702 11.6865 184.101 12 184.411 12.4219C184.675 12.7793 184.836 13.1484 184.895 13.5293C184.953 13.9043 184.982 14.5195 184.982 15.375V21H182.425V15.1729C182.425 14.6572 182.337 14.2412 182.161 13.9248C181.933 13.4795 181.499 13.2568 180.86 13.2568C180.198 13.2568 179.694 13.4795 179.349 13.9248C179.009 14.3643 178.839 14.9941 178.839 15.8145V21H176.343V8.08887H178.839V12.668C179.202 12.1113 179.621 11.7246 180.096 11.5078C180.576 11.2852 181.08 11.1738 181.607 11.1738ZM191.108 13.2305C190.528 13.2305 190.077 13.4121 189.755 13.7754C189.438 14.1387 189.239 14.6309 189.157 15.252H193.051C193.01 14.5898 192.808 14.0889 192.444 13.749C192.087 13.4033 191.642 13.2305 191.108 13.2305ZM191.108 11.165C191.905 11.165 192.623 11.3145 193.262 11.6133C193.9 11.9121 194.428 12.3838 194.844 13.0283C195.219 13.5967 195.462 14.2559 195.573 15.0059C195.638 15.4453 195.664 16.0781 195.652 16.9043H189.096C189.131 17.8652 189.433 18.5391 190.001 18.9258C190.347 19.166 190.763 19.2861 191.249 19.2861C191.765 19.2861 192.184 19.1396 192.506 18.8467C192.682 18.6885 192.837 18.4688 192.972 18.1875H195.529C195.465 18.7559 195.169 19.333 194.642 19.9189C193.821 20.8506 192.673 21.3164 191.196 21.3164C189.978 21.3164 188.902 20.9238 187.971 20.1387C187.039 19.3535 186.573 18.0762 186.573 16.3066C186.573 14.6484 186.992 13.377 187.83 12.4922C188.674 11.6074 189.767 11.165 191.108 11.165ZM200.882 7.91309C201.04 7.91309 201.184 7.91895 201.312 7.93066C201.441 7.93652 201.617 7.94824 201.84 7.96582V10.0049C201.699 9.9873 201.462 9.97559 201.128 9.96973C200.8 9.95801 200.571 10.0312 200.442 10.1895C200.319 10.3418 200.258 10.5117 200.258 10.6992C200.258 10.8867 200.258 11.1562 200.258 11.5078H201.901V13.2744H200.258V21H197.762V13.2744H196.364V11.5078H197.735V10.8926C197.735 9.86719 197.908 9.16113 198.254 8.77441C198.617 8.2002 199.493 7.91309 200.882 7.91309ZM205.294 17.9414C205.347 18.3867 205.461 18.7031 205.637 18.8906C205.947 19.2246 206.521 19.3916 207.359 19.3916C207.852 19.3916 208.241 19.3184 208.528 19.1719C208.821 19.0254 208.968 18.8057 208.968 18.5127C208.968 18.2314 208.851 18.0176 208.616 17.8711C208.382 17.7246 207.512 17.4727 206.006 17.1152C204.922 16.8457 204.157 16.5088 203.712 16.1045C203.267 15.7061 203.044 15.1318 203.044 14.3818C203.044 13.4971 203.39 12.7383 204.081 12.1055C204.778 11.4668 205.757 11.1475 207.017 11.1475C208.212 11.1475 209.185 11.3877 209.935 11.8682C210.69 12.3428 211.124 13.166 211.235 14.3379H208.73C208.695 14.0156 208.604 13.7607 208.458 13.5732C208.183 13.2334 207.714 13.0635 207.052 13.0635C206.507 13.0635 206.117 13.1484 205.883 13.3184C205.654 13.4883 205.54 13.6875 205.54 13.916C205.54 14.2031 205.663 14.4111 205.909 14.54C206.155 14.6748 207.025 14.9062 208.52 15.2344C209.516 15.4688 210.263 15.8232 210.761 16.2979C211.253 16.7783 211.499 17.3789 211.499 18.0996C211.499 19.0488 211.145 19.8252 210.436 20.4287C209.732 21.0264 208.643 21.3252 207.166 21.3252C205.66 21.3252 204.547 21.0088 203.826 20.376C203.111 19.7373 202.754 18.9258 202.754 17.9414H205.294Z" fill="#4F4F4F"/>
<path d="M29.75 0H0V28.6632H29.75V0Z" fill="white"/>
<path d="M32.9032 0.342529H1.09677C0.491043 0.342529 0 0.744898 0 1.24124V29.1014C0 29.5978 0.491043 30.0001 1.09677 30.0001H32.9032C33.509 30.0001 34 29.5978 34 29.1014V1.24124C34 0.744898 33.509 0.342529 32.9032 0.342529Z" fill="#EDEAE3"/>
<path d="M25.25 9.75049L14.75 20.25L9.5 15.0005" stroke="#1F242E" stroke-width="1.5" stroke-linecap="round" stroke-linejoin="round"/>
</svg>
