<svg width="250" height="30" viewBox="0 0 250 30" fill="none" xmlns="http://www.w3.org/2000/svg">
<path d="M29.75 0H0V28.6632H29.75V0Z" fill="white"/>
<path d="M32.9032 0.342529H1.09677C0.491043 0.342529 0 0.744898 0 1.24124V29.1014C0 29.5978 0.491043 30.0001 1.09677 30.0001H32.9032C33.509 30.0001 34 29.5978 34 29.1014V1.24124C34 0.744898 33.509 0.342529 32.9032 0.342529Z" fill="#333333"/>
<path d="M25.25 9.75049L14.75 20.25L9.5 15.0005" stroke="white" stroke-width="1.5" stroke-linecap="round" stroke-linejoin="round"/>
<path d="M51.3711 8.0625H60.5557V10.3389H54.0605V13.3184H59.7471V15.5684H54.0605V21H51.3711V8.0625ZM67.376 11.1914C67.4229 11.1914 67.4609 11.1943 67.4902 11.2002C67.5254 11.2002 67.5986 11.2031 67.71 11.209V13.7754C67.5518 13.7578 67.4111 13.7461 67.2881 13.7402C67.165 13.7344 67.0654 13.7314 66.9893 13.7314C65.9814 13.7314 65.3047 14.0596 64.959 14.7158C64.7656 15.085 64.6689 15.6533 64.6689 16.4209V21H62.1465V11.4199H64.5371V13.0898C64.9238 12.4512 65.2607 12.0146 65.5479 11.7803C66.0166 11.3877 66.626 11.1914 67.376 11.1914ZM72.9658 13.2305C72.3857 13.2305 71.9346 13.4121 71.6123 13.7754C71.2959 14.1387 71.0967 14.6309 71.0146 15.252H74.9082C74.8672 14.5898 74.665 14.0889 74.3018 13.749C73.9443 13.4033 73.499 13.2305 72.9658 13.2305ZM72.9658 11.165C73.7627 11.165 74.4805 11.3145 75.1191 11.6133C75.7578 11.9121 76.2852 12.3838 76.7012 13.0283C77.0762 13.5967 77.3193 14.2559 77.4307 15.0059C77.4951 15.4453 77.5215 16.0781 77.5098 16.9043H70.9531C70.9883 17.8652 71.29 18.5391 71.8584 18.9258C72.2041 19.166 72.6201 19.2861 73.1064 19.2861C73.6221 19.2861 74.041 19.1396 74.3633 18.8467C74.5391 18.6885 74.6943 18.4688 74.8291 18.1875H77.3867C77.3223 18.7559 77.0264 19.333 76.499 19.9189C75.6787 20.8506 74.5303 21.3164 73.0537 21.3164C71.835 21.3164 70.7598 20.9238 69.8281 20.1387C68.8965 19.3535 68.4307 18.0762 68.4307 16.3066C68.4307 14.6484 68.8496 13.377 69.6875 12.4922C70.5312 11.6074 71.624 11.165 72.9658 11.165ZM81.1572 17.9414C81.21 18.3867 81.3242 18.7031 81.5 18.8906C81.8105 19.2246 82.3848 19.3916 83.2227 19.3916C83.7148 19.3916 84.1045 19.3184 84.3916 19.1719C84.6846 19.0254 84.8311 18.8057 84.8311 18.5127C84.8311 18.2314 84.7139 18.0176 84.4795 17.8711C84.2451 17.7246 83.375 17.4727 81.8691 17.1152C80.7852 16.8457 80.0205 16.5088 79.5752 16.1045C79.1299 15.7061 78.9072 15.1318 78.9072 14.3818C78.9072 13.4971 79.2529 12.7383 79.9443 12.1055C80.6416 11.4668 81.6201 11.1475 82.8799 11.1475C84.0752 11.1475 85.0479 11.3877 85.7979 11.8682C86.5537 12.3428 86.9873 13.166 87.0986 14.3379H84.5938C84.5586 14.0156 84.4678 13.7607 84.3213 13.5732C84.0459 13.2334 83.5771 13.0635 82.915 13.0635C82.3701 13.0635 81.9805 13.1484 81.7461 13.3184C81.5176 13.4883 81.4033 13.6875 81.4033 13.916C81.4033 14.2031 81.5264 14.4111 81.7725 14.54C82.0186 14.6748 82.8887 14.9062 84.3828 15.2344C85.3789 15.4688 86.126 15.8232 86.624 16.2979C87.1162 16.7783 87.3623 17.3789 87.3623 18.0996C87.3623 19.0488 87.0078 19.8252 86.2988 20.4287C85.5957 21.0264 84.5059 21.3252 83.0293 21.3252C81.5234 21.3252 80.4102 21.0088 79.6895 20.376C78.9746 19.7373 78.6172 18.9258 78.6172 17.9414H81.1572ZM94.5078 11.1738C95.0996 11.1738 95.6357 11.2764 96.1162 11.4814C96.6025 11.6865 97.001 12 97.3115 12.4219C97.5752 12.7793 97.7363 13.1484 97.7949 13.5293C97.8535 13.9043 97.8828 14.5195 97.8828 15.375V21H95.3252V15.1729C95.3252 14.6572 95.2373 14.2412 95.0615 13.9248C94.833 13.4795 94.3994 13.2568 93.7607 13.2568C93.0986 13.2568 92.5947 13.4795 92.249 13.9248C91.9092 14.3643 91.7393 14.9941 91.7393 15.8145V21H89.2432V8.08887H91.7393V12.668C92.1025 12.1113 92.5215 11.7246 92.9961 11.5078C93.4766 11.2852 93.9805 11.1738 94.5078 11.1738ZM105.046 17.5811C105.046 16.8018 105.239 16.1338 105.626 15.5771C106.013 15.0205 106.646 14.4697 107.524 13.9248L107.797 13.7578C107.422 13.3359 107.132 12.9053 106.927 12.4658C106.722 12.0264 106.619 11.5693 106.619 11.0947C106.619 10.1514 106.936 9.41602 107.568 8.88867C108.201 8.35547 109.021 8.08887 110.029 8.08887C110.949 8.08887 111.708 8.36133 112.306 8.90625C112.909 9.44531 113.211 10.1367 113.211 10.9805C113.211 11.7422 113.029 12.3604 112.666 12.835C112.309 13.3096 111.781 13.749 111.084 14.1533L112.921 16.4209C113.132 16.1162 113.293 15.7852 113.404 15.4277C113.521 15.0703 113.583 14.6924 113.589 14.2939H115.812C115.777 15.0791 115.59 15.873 115.25 16.6758C115.062 17.127 114.758 17.625 114.336 18.1699L116.691 21H113.65L112.754 19.9014C112.32 20.3057 111.916 20.6045 111.541 20.7979C110.873 21.1436 110.103 21.3164 109.229 21.3164C107.917 21.3164 106.892 20.9297 106.153 20.1562C105.415 19.3828 105.046 18.5244 105.046 17.5811ZM108.922 11.0068C108.922 11.2412 109.004 11.4873 109.168 11.7451C109.273 11.915 109.502 12.2168 109.854 12.6504C110.205 12.4043 110.457 12.1963 110.609 12.0264C110.902 11.71 111.049 11.3672 111.049 10.998C111.049 10.7285 110.961 10.4883 110.785 10.2773C110.609 10.0664 110.343 9.96094 109.985 9.96094C109.763 9.96094 109.555 10.0225 109.361 10.1455C109.068 10.3271 108.922 10.6143 108.922 11.0068ZM107.542 17.502C107.542 17.9297 107.715 18.3223 108.061 18.6797C108.412 19.0371 108.86 19.2158 109.405 19.2158C109.815 19.2158 110.202 19.1221 110.565 18.9346C110.935 18.7412 111.233 18.5273 111.462 18.293L109.089 15.3574C108.462 15.7734 108.046 16.1396 107.841 16.4561C107.642 16.7725 107.542 17.1211 107.542 17.502ZM129.189 19.0664C130.262 19.0664 131.111 18.6709 131.738 17.8799C132.371 17.0889 132.688 15.9639 132.688 14.5049C132.688 13.0518 132.371 11.9297 131.738 11.1387C131.111 10.3418 130.262 9.94336 129.189 9.94336C128.117 9.94336 127.262 10.3389 126.623 11.1299C125.984 11.9209 125.665 13.0459 125.665 14.5049C125.665 15.9639 125.984 17.0889 126.623 17.8799C127.262 18.6709 128.117 19.0664 129.189 19.0664ZM135.395 14.5049C135.395 16.8311 134.741 18.6123 133.435 19.8486C132.456 20.8564 131.041 21.3604 129.189 21.3604C127.338 21.3604 125.923 20.8564 124.944 19.8486C123.632 18.6123 122.976 16.8311 122.976 14.5049C122.976 12.1318 123.632 10.3506 124.944 9.16113C125.923 8.15332 127.338 7.64941 129.189 7.64941C131.041 7.64941 132.456 8.15332 133.435 9.16113C134.741 10.3506 135.395 12.1318 135.395 14.5049ZM142.47 11.1914C142.517 11.1914 142.555 11.1943 142.584 11.2002C142.619 11.2002 142.692 11.2031 142.804 11.209V13.7754C142.646 13.7578 142.505 13.7461 142.382 13.7402C142.259 13.7344 142.159 13.7314 142.083 13.7314C141.075 13.7314 140.398 14.0596 140.053 14.7158C139.859 15.085 139.763 15.6533 139.763 16.4209V21H137.24V11.4199H139.631V13.0898C140.018 12.4512 140.354 12.0146 140.642 11.7803C141.11 11.3877 141.72 11.1914 142.47 11.1914ZM148.394 18.9434C148.979 18.9434 149.475 18.7236 149.879 18.2842C150.283 17.8389 150.485 17.1328 150.485 16.166C150.485 15.2578 150.292 14.5664 149.905 14.0918C149.524 13.6172 149.012 13.3799 148.367 13.3799C147.488 13.3799 146.882 13.793 146.548 14.6191C146.372 15.0586 146.284 15.6006 146.284 16.2451C146.284 16.8018 146.378 17.2969 146.565 17.7305C146.905 18.5391 147.515 18.9434 148.394 18.9434ZM147.77 11.1914C148.25 11.1914 148.669 11.2646 149.026 11.4111C149.636 11.6631 150.128 12.126 150.503 12.7998V11.4199H152.938V20.5078C152.938 21.7441 152.729 22.6758 152.313 23.3027C151.599 24.3809 150.228 24.9199 148.2 24.9199C146.976 24.9199 145.977 24.6797 145.203 24.1992C144.43 23.7188 144.002 23.001 143.92 22.0459H146.645C146.715 22.3389 146.829 22.5498 146.987 22.6787C147.257 22.9072 147.711 23.0215 148.35 23.0215C149.252 23.0215 149.855 22.7197 150.16 22.1162C150.359 21.7295 150.459 21.0791 150.459 20.165V19.5498C150.219 19.96 149.961 20.2676 149.686 20.4727C149.188 20.8535 148.54 21.0439 147.743 21.0439C146.513 21.0439 145.528 20.6133 144.79 19.752C144.058 18.8848 143.691 17.7129 143.691 16.2363C143.691 14.8125 144.046 13.6172 144.755 12.6504C145.464 11.6777 146.469 11.1914 147.77 11.1914ZM160.566 16.3418C160.408 16.4414 160.247 16.5234 160.083 16.5879C159.925 16.6465 159.705 16.7021 159.424 16.7549L158.861 16.8604C158.334 16.9541 157.956 17.0684 157.728 17.2031C157.341 17.4316 157.147 17.7861 157.147 18.2666C157.147 18.6943 157.265 19.0049 157.499 19.1982C157.739 19.3857 158.029 19.4795 158.369 19.4795C158.908 19.4795 159.403 19.3213 159.854 19.0049C160.312 18.6885 160.549 18.1113 160.566 17.2734V16.3418ZM159.046 15.1729C159.509 15.1143 159.84 15.041 160.039 14.9531C160.396 14.8008 160.575 14.5635 160.575 14.2412C160.575 13.8486 160.438 13.5791 160.162 13.4326C159.893 13.2803 159.494 13.2041 158.967 13.2041C158.375 13.2041 157.956 13.3506 157.71 13.6436C157.534 13.8604 157.417 14.1533 157.358 14.5225H154.941C154.994 13.6846 155.229 12.9961 155.645 12.457C156.307 11.6133 157.443 11.1914 159.055 11.1914C160.104 11.1914 161.035 11.3994 161.85 11.8154C162.664 12.2314 163.071 13.0166 163.071 14.1709V18.5654C163.071 18.8701 163.077 19.2393 163.089 19.6729C163.106 20.001 163.156 20.2236 163.238 20.3408C163.32 20.458 163.443 20.5547 163.607 20.6309V21H160.883C160.807 20.8066 160.754 20.625 160.725 20.4551C160.695 20.2852 160.672 20.0918 160.654 19.875C160.309 20.25 159.91 20.5693 159.459 20.833C158.92 21.1436 158.311 21.2988 157.631 21.2988C156.764 21.2988 156.046 21.0527 155.478 20.5605C154.915 20.0625 154.634 19.3594 154.634 18.4512C154.634 17.2734 155.088 16.4209 155.996 15.8936C156.494 15.6064 157.227 15.4014 158.193 15.2783L159.046 15.1729ZM170.612 11.1914C171.603 11.1914 172.411 11.4521 173.038 11.9736C173.671 12.4893 173.987 13.3477 173.987 14.5488V21H171.421V15.1729C171.421 14.6689 171.354 14.2822 171.219 14.0127C170.973 13.5205 170.504 13.2744 169.812 13.2744C168.963 13.2744 168.38 13.6348 168.063 14.3555C167.899 14.7363 167.817 15.2227 167.817 15.8145V21H165.321V11.4375H167.738V12.835C168.061 12.3428 168.365 11.9883 168.652 11.7715C169.168 11.3848 169.821 11.1914 170.612 11.1914ZM178.883 10.2773H176.343V7.96582H178.883V10.2773ZM176.343 11.4199H178.883V21H176.343V11.4199ZM187.039 14.8564C186.992 14.499 186.872 14.1768 186.679 13.8896C186.397 13.5029 185.961 13.3096 185.369 13.3096C184.525 13.3096 183.948 13.7285 183.638 14.5664C183.474 15.0117 183.392 15.6035 183.392 16.3418C183.392 17.0449 183.474 17.6104 183.638 18.0381C183.937 18.835 184.499 19.2334 185.325 19.2334C185.911 19.2334 186.327 19.0752 186.573 18.7588C186.819 18.4424 186.969 18.0322 187.021 17.5283H189.579C189.521 18.29 189.245 19.0107 188.753 19.6904C187.968 20.7861 186.805 21.334 185.264 21.334C183.723 21.334 182.589 20.877 181.862 19.9629C181.136 19.0488 180.772 17.8623 180.772 16.4033C180.772 14.7568 181.174 13.4766 181.977 12.5625C182.779 11.6484 183.887 11.1914 185.299 11.1914C186.5 11.1914 187.481 11.4609 188.243 12C189.011 12.5391 189.465 13.4912 189.605 14.8564H187.039ZM196.549 8.0625H205.733V10.3389H199.238V13.3184H204.925V15.5684H199.238V21H196.549V8.0625ZM211.648 19.2334C212.381 19.2334 212.943 18.9727 213.336 18.4512C213.729 17.9297 213.925 17.1885 213.925 16.2275C213.925 15.2666 213.729 14.5283 213.336 14.0127C212.943 13.4912 212.381 13.2305 211.648 13.2305C210.916 13.2305 210.351 13.4912 209.952 14.0127C209.56 14.5283 209.363 15.2666 209.363 16.2275C209.363 17.1885 209.56 17.9297 209.952 18.4512C210.351 18.9727 210.916 19.2334 211.648 19.2334ZM216.553 16.2275C216.553 17.6338 216.148 18.8379 215.34 19.8398C214.531 20.8359 213.304 21.334 211.657 21.334C210.011 21.334 208.783 20.8359 207.975 19.8398C207.166 18.8379 206.762 17.6338 206.762 16.2275C206.762 14.8447 207.166 13.6465 207.975 12.6328C208.783 11.6191 210.011 11.1123 211.657 11.1123C213.304 11.1123 214.531 11.6191 215.34 12.6328C216.148 13.6465 216.553 14.8447 216.553 16.2275ZM222.652 19.2334C223.385 19.2334 223.947 18.9727 224.34 18.4512C224.732 17.9297 224.929 17.1885 224.929 16.2275C224.929 15.2666 224.732 14.5283 224.34 14.0127C223.947 13.4912 223.385 13.2305 222.652 13.2305C221.92 13.2305 221.354 13.4912 220.956 14.0127C220.563 14.5283 220.367 15.2666 220.367 16.2275C220.367 17.1885 220.563 17.9297 220.956 18.4512C221.354 18.9727 221.92 19.2334 222.652 19.2334ZM227.557 16.2275C227.557 17.6338 227.152 18.8379 226.344 19.8398C225.535 20.8359 224.308 21.334 222.661 21.334C221.015 21.334 219.787 20.8359 218.979 19.8398C218.17 18.8379 217.766 17.6338 217.766 16.2275C217.766 14.8447 218.17 13.6465 218.979 12.6328C219.787 11.6191 221.015 11.1123 222.661 11.1123C224.308 11.1123 225.535 11.6191 226.344 12.6328C227.152 13.6465 227.557 14.8447 227.557 16.2275ZM232.892 11.1914C233.472 11.1914 233.987 11.3203 234.438 11.5781C234.89 11.8301 235.256 12.1816 235.537 12.6328V8.0625H238.077V21H235.643V19.6729C235.285 20.2412 234.878 20.6543 234.421 20.9121C233.964 21.1699 233.396 21.2988 232.716 21.2988C231.597 21.2988 230.653 20.8477 229.886 19.9453C229.124 19.0371 228.743 17.874 228.743 16.4561C228.743 14.8213 229.118 13.5352 229.868 12.5977C230.624 11.6602 231.632 11.1914 232.892 11.1914ZM233.437 19.1895C234.146 19.1895 234.685 18.9258 235.054 18.3984C235.423 17.8711 235.607 17.1885 235.607 16.3506C235.607 15.1787 235.312 14.3408 234.72 13.8369C234.356 13.5322 233.935 13.3799 233.454 13.3799C232.722 13.3799 232.183 13.6582 231.837 14.2148C231.497 14.7656 231.327 15.4512 231.327 16.2715C231.327 17.1562 231.5 17.8652 231.846 18.3984C232.197 18.9258 232.728 19.1895 233.437 19.1895ZM242.313 17.9414C242.366 18.3867 242.48 18.7031 242.656 18.8906C242.967 19.2246 243.541 19.3916 244.379 19.3916C244.871 19.3916 245.261 19.3184 245.548 19.1719C245.841 19.0254 245.987 18.8057 245.987 18.5127C245.987 18.2314 245.87 18.0176 245.636 17.8711C245.401 17.7246 244.531 17.4727 243.025 17.1152C241.941 16.8457 241.177 16.5088 240.731 16.1045C240.286 15.7061 240.063 15.1318 240.063 14.3818C240.063 13.4971 240.409 12.7383 241.101 12.1055C241.798 11.4668 242.776 11.1475 244.036 11.1475C245.231 11.1475 246.204 11.3877 246.954 11.8682C247.71 12.3428 248.144 13.166 248.255 14.3379H245.75C245.715 14.0156 245.624 13.7607 245.478 13.5732C245.202 13.2334 244.733 13.0635 244.071 13.0635C243.526 13.0635 243.137 13.1484 242.902 13.3184C242.674 13.4883 242.56 13.6875 242.56 13.916C242.56 14.2031 242.683 14.4111 242.929 14.54C243.175 14.6748 244.045 14.9062 245.539 15.2344C246.535 15.4688 247.282 15.8232 247.78 16.2979C248.272 16.7783 248.519 17.3789 248.519 18.0996C248.519 19.0488 248.164 19.8252 247.455 20.4287C246.752 21.0264 245.662 21.3252 244.186 21.3252C242.68 21.3252 241.566 21.0088 240.846 20.376C240.131 19.7373 239.773 18.9258 239.773 17.9414H242.313Z" fill="#4F4F4F"/>
</svg>
