<svg width="126" height="28" viewBox="0 0 126 28" fill="none" xmlns="http://www.w3.org/2000/svg">
<path d="M1.76136 21V6.45455H3.52273V12.9318H11.2784V6.45455H13.0398V21H11.2784V14.4943H3.52273V21H1.76136ZM20.7706 21.2273C19.7857 21.2273 18.9216 20.9929 18.1783 20.5241C17.4396 20.0554 16.862 19.3996 16.4453 18.5568C16.0334 17.714 15.8274 16.7292 15.8274 15.6023C15.8274 14.4659 16.0334 13.474 16.4453 12.6264C16.862 11.7789 17.4396 11.1207 18.1783 10.652C18.9216 10.1832 19.7857 9.94886 20.7706 9.94886C21.7554 9.94886 22.6172 10.1832 23.3558 10.652C24.0992 11.1207 24.6768 11.7789 25.0888 12.6264C25.5054 13.474 25.7138 14.4659 25.7138 15.6023C25.7138 16.7292 25.5054 17.714 25.0888 18.5568C24.6768 19.3996 24.0992 20.0554 23.3558 20.5241C22.6172 20.9929 21.7554 21.2273 20.7706 21.2273ZM20.7706 19.7216C21.5187 19.7216 22.1342 19.5298 22.6172 19.1463C23.1001 18.7628 23.4576 18.2585 23.6896 17.6335C23.9216 17.0085 24.0376 16.3314 24.0376 15.6023C24.0376 14.8731 23.9216 14.1937 23.6896 13.5639C23.4576 12.9342 23.1001 12.4252 22.6172 12.0369C22.1342 11.6487 21.5187 11.4545 20.7706 11.4545C20.0225 11.4545 19.407 11.6487 18.924 12.0369C18.4411 12.4252 18.0836 12.9342 17.8516 13.5639C17.6196 14.1937 17.5036 14.8731 17.5036 15.6023C17.5036 16.3314 17.6196 17.0085 17.8516 17.6335C18.0836 18.2585 18.4411 18.7628 18.924 19.1463C19.407 19.5298 20.0225 19.7216 20.7706 19.7216ZM28.2724 21V10.0909H29.8917V11.7955H30.0337C30.261 11.2131 30.628 10.7609 31.1346 10.4389C31.6412 10.1122 32.2496 9.94886 32.9599 9.94886C33.6796 9.94886 34.2785 10.1122 34.7567 10.4389C35.2397 10.7609 35.6161 11.2131 35.886 11.7955H35.9996C36.279 11.232 36.698 10.7846 37.2567 10.4531C37.8155 10.117 38.4854 9.94886 39.2667 9.94886C40.2421 9.94886 41.0399 10.2543 41.6602 10.8651C42.2804 11.4711 42.5906 12.4157 42.5906 13.6989V21H40.9144V13.6989C40.9144 12.8939 40.6942 12.3187 40.2539 11.973C39.8136 11.6274 39.2951 11.4545 38.6985 11.4545C37.9315 11.4545 37.3372 11.6866 36.9158 12.1506C36.4944 12.6098 36.2837 13.1922 36.2837 13.8977V21H34.5792V13.5284C34.5792 12.9081 34.378 12.4086 33.9755 12.0298C33.573 11.6463 33.0546 11.4545 32.4201 11.4545C31.9845 11.4545 31.5773 11.5705 31.1985 11.8026C30.8245 12.0346 30.5214 12.3565 30.2894 12.7685C30.0621 13.1757 29.9485 13.6468 29.9485 14.1818V21H28.2724ZM50.229 21.2273C49.1779 21.2273 48.2712 20.9953 47.5089 20.5312C46.7513 20.0625 46.1665 19.4091 45.7546 18.571C45.3474 17.7282 45.1438 16.7481 45.1438 15.6307C45.1438 14.5133 45.3474 13.5284 45.7546 12.6761C46.1665 11.8191 46.7395 11.1515 47.4734 10.6733C48.212 10.1903 49.0737 9.94886 50.0586 9.94886C50.6268 9.94886 51.1879 10.0436 51.7418 10.233C52.2958 10.4223 52.8001 10.7301 53.2546 11.1562C53.7092 11.5777 54.0714 12.1364 54.3413 12.8324C54.6112 13.5284 54.7461 14.3854 54.7461 15.4034V16.1136H46.337V14.6648H53.0415C53.0415 14.0492 52.9184 13.5 52.6722 13.017C52.4308 12.5341 52.0851 12.1529 51.6353 11.8736C51.1902 11.5942 50.6647 11.4545 50.0586 11.4545C49.391 11.4545 48.8133 11.6203 48.3256 11.9517C47.8427 12.2784 47.471 12.7045 47.2106 13.2301C46.9502 13.7557 46.82 14.3191 46.82 14.9205V15.8864C46.82 16.7102 46.962 17.4086 47.2461 17.9815C47.5349 18.5497 47.935 18.983 48.4464 19.2812C48.9577 19.5748 49.552 19.7216 50.229 19.7216C50.6694 19.7216 51.0671 19.66 51.4222 19.5369C51.7821 19.4091 52.0922 19.2197 52.3526 18.9688C52.613 18.7131 52.8143 18.3958 52.9563 18.017L54.5756 18.4716C54.4052 19.0208 54.1187 19.5038 53.7163 19.9205C53.3138 20.3324 52.8166 20.6544 52.2248 20.8864C51.6329 21.1136 50.9677 21.2273 50.229 21.2273Z" fill="white"/>
<path d="M93.4659 11H91.7045C91.6004 10.4934 91.4181 10.0483 91.1577 9.66477C90.902 9.28125 90.5895 8.95928 90.2202 8.69886C89.8556 8.43371 89.4508 8.23485 89.0057 8.10227C88.5606 7.9697 88.0966 7.90341 87.6136 7.90341C86.733 7.90341 85.9351 8.12595 85.2202 8.57102C84.5099 9.0161 83.9441 9.67188 83.5227 10.5384C83.1061 11.4048 82.8977 12.4678 82.8977 13.7273C82.8977 14.9867 83.1061 16.0497 83.5227 16.9162C83.9441 17.7827 84.5099 18.4384 85.2202 18.8835C85.9351 19.3286 86.733 19.5511 87.6136 19.5511C88.0966 19.5511 88.5606 19.4848 89.0057 19.3523C89.4508 19.2197 89.8556 19.0232 90.2202 18.7628C90.5895 18.4976 90.902 18.1733 91.1577 17.7898C91.4181 17.4015 91.6004 16.9564 91.7045 16.4545H93.4659C93.3333 17.1979 93.0919 17.8632 92.7415 18.4503C92.3911 19.0374 91.9555 19.5369 91.4347 19.9489C90.9138 20.3561 90.3291 20.6662 89.6804 20.8793C89.0365 21.0923 88.3475 21.1989 87.6136 21.1989C86.3731 21.1989 85.2699 20.8958 84.304 20.2898C83.3381 19.6837 82.5781 18.822 82.0241 17.7045C81.4702 16.5871 81.1932 15.2614 81.1932 13.7273C81.1932 12.1932 81.4702 10.8674 82.0241 9.75C82.5781 8.63258 83.3381 7.77083 84.304 7.16477C85.2699 6.55871 86.3731 6.25568 87.6136 6.25568C88.3475 6.25568 89.0365 6.36222 89.6804 6.57528C90.3291 6.78835 90.9138 7.10085 91.4347 7.51278C91.9555 7.91998 92.3911 8.41714 92.7415 9.00426C93.0919 9.58665 93.3333 10.2519 93.4659 11ZM97.761 14.4375V21H96.0849V6.45455H97.761V11.7955H97.9031C98.1587 11.232 98.5423 10.7846 99.0536 10.4531C99.5697 10.117 100.256 9.94886 101.113 9.94886C101.857 9.94886 102.508 10.098 103.066 10.3963C103.625 10.6899 104.058 11.142 104.366 11.7528C104.679 12.3589 104.835 13.1307 104.835 14.0682V21H103.159V14.1818C103.159 13.3153 102.934 12.6454 102.484 12.1719C102.039 11.6937 101.421 11.4545 100.63 11.4545C100.081 11.4545 99.5887 11.5705 99.1531 11.8026C98.7222 12.0346 98.3813 12.3731 98.1303 12.8182C97.8841 13.2633 97.761 13.803 97.761 14.4375ZM112.475 21.2273C111.424 21.2273 110.517 20.9953 109.755 20.5312C108.997 20.0625 108.413 19.4091 108.001 18.571C107.594 17.7282 107.39 16.7481 107.39 15.6307C107.39 14.5133 107.594 13.5284 108.001 12.6761C108.413 11.8191 108.986 11.1515 109.719 10.6733C110.458 10.1903 111.32 9.94886 112.305 9.94886C112.873 9.94886 113.434 10.0436 113.988 10.233C114.542 10.4223 115.046 10.7301 115.501 11.1562C115.955 11.5777 116.317 12.1364 116.587 12.8324C116.857 13.5284 116.992 14.3854 116.992 15.4034V16.1136H108.583V14.6648H115.288C115.288 14.0492 115.165 13.5 114.918 13.017C114.677 12.5341 114.331 12.1529 113.881 11.8736C113.436 11.5942 112.911 11.4545 112.305 11.4545C111.637 11.4545 111.059 11.6203 110.572 11.9517C110.089 12.2784 109.717 12.7045 109.457 13.2301C109.196 13.7557 109.066 14.3191 109.066 14.9205V15.8864C109.066 16.7102 109.208 17.4086 109.492 17.9815C109.781 18.5497 110.181 18.983 110.692 19.2812C111.204 19.5748 111.798 19.7216 112.475 19.7216C112.915 19.7216 113.313 19.66 113.668 19.5369C114.028 19.4091 114.338 19.2197 114.599 18.9688C114.859 18.7131 115.06 18.3958 115.202 18.017L116.822 18.4716C116.651 19.0208 116.365 19.5038 115.962 19.9205C115.56 20.3324 115.063 20.6544 114.471 20.8864C113.879 21.1136 113.214 21.2273 112.475 21.2273ZM124.4 10.0909V11.5114H118.519V10.0909H124.4ZM120.281 21V8.58523C120.281 7.96023 120.427 7.43939 120.721 7.02273C121.014 6.60606 121.396 6.29356 121.864 6.08523C122.333 5.87689 122.828 5.77273 123.349 5.77273C123.761 5.77273 124.097 5.80587 124.357 5.87216C124.618 5.93845 124.812 6 124.94 6.05682L124.457 7.50568C124.371 7.47727 124.253 7.44176 124.102 7.39915C123.955 7.35653 123.761 7.33523 123.519 7.33523C122.965 7.33523 122.565 7.4749 122.319 7.75426C122.077 8.03362 121.957 8.44318 121.957 8.98295V21H120.281Z" fill="#FF9F0D"/>
</svg>
