<svg width="304" height="232" viewBox="0 0 304 232" fill="none" xmlns="http://www.w3.org/2000/svg">
<path d="M0.898438 13.9199C0.898438 11.4069 1.57227 9.47005 2.91992 8.10938C4.0918 6.92448 5.58268 6.33203 7.39258 6.33203C9.81445 6.33203 11.5853 7.1263 12.7051 8.71484C13.3236 9.60677 13.6556 10.502 13.7012 11.4004H10.6934C10.498 10.7103 10.2474 10.1895 9.94141 9.83789C9.39453 9.21289 8.58398 8.90039 7.50977 8.90039C6.41602 8.90039 5.55339 9.3431 4.92188 10.2285C4.29036 11.1074 3.97461 12.3542 3.97461 13.9688C3.97461 15.5833 4.30664 16.7943 4.9707 17.6016C5.64128 18.4023 6.49089 18.8027 7.51953 18.8027C8.57422 18.8027 9.37826 18.4577 9.93164 17.7676C10.2376 17.3965 10.4915 16.8398 10.6934 16.0977H13.6719C13.4115 17.6667 12.7441 18.9427 11.6699 19.9258C10.6022 20.9089 9.23177 21.4004 7.55859 21.4004C5.48828 21.4004 3.86068 20.7363 2.67578 19.4082C1.49089 18.0736 0.898438 16.2441 0.898438 13.9199ZM20.5273 19.0371C21.3411 19.0371 21.9661 18.7474 22.4023 18.168C22.8385 17.5885 23.0566 16.765 23.0566 15.6973C23.0566 14.6296 22.8385 13.8092 22.4023 13.2363C21.9661 12.6569 21.3411 12.3672 20.5273 12.3672C19.7135 12.3672 19.0853 12.6569 18.6426 13.2363C18.2064 13.8092 17.9883 14.6296 17.9883 15.6973C17.9883 16.765 18.2064 17.5885 18.6426 18.168C19.0853 18.7474 19.7135 19.0371 20.5273 19.0371ZM25.9766 15.6973C25.9766 17.2598 25.5273 18.5977 24.6289 19.7109C23.7305 20.8177 22.3665 21.3711 20.5371 21.3711C18.7077 21.3711 17.3438 20.8177 16.4453 19.7109C15.5469 18.5977 15.0977 17.2598 15.0977 15.6973C15.0977 14.1608 15.5469 12.8294 16.4453 11.7031C17.3438 10.5768 18.7077 10.0137 20.5371 10.0137C22.3665 10.0137 23.7305 10.5768 24.6289 11.7031C25.5273 12.8294 25.9766 14.1608 25.9766 15.6973ZM33.877 10.1016C34.9772 10.1016 35.8757 10.3913 36.5723 10.9707C37.2754 11.5436 37.627 12.4974 37.627 13.832V21H34.7754V14.5254C34.7754 13.9655 34.7005 13.5358 34.5508 13.2363C34.2773 12.6895 33.7565 12.416 32.9883 12.416C32.0443 12.416 31.3965 12.8164 31.0449 13.6172C30.8626 14.0404 30.7715 14.5807 30.7715 15.2383V21H27.998V10.375H30.6836V11.9277C31.0417 11.3809 31.3802 10.987 31.6992 10.7461C32.2721 10.3164 32.998 10.1016 33.877 10.1016ZM39.1113 12.4355V10.4531H40.5957V7.48438H43.3496V10.4531H45.0781V12.4355H43.3496V18.0605C43.3496 18.4967 43.4049 18.7702 43.5156 18.8809C43.6263 18.985 43.9648 19.0371 44.5312 19.0371C44.6159 19.0371 44.7038 19.0371 44.7949 19.0371C44.8926 19.0306 44.987 19.0241 45.0781 19.0176V21.0977L43.7598 21.1465C42.4447 21.1921 41.5462 20.9642 41.0645 20.4629C40.752 20.1439 40.5957 19.6523 40.5957 18.9883V12.4355H39.1113ZM52.7344 15.8242C52.5586 15.9349 52.3796 16.026 52.1973 16.0977C52.0215 16.1628 51.7773 16.2246 51.4648 16.2832L50.8398 16.4004C50.2539 16.5046 49.834 16.6315 49.5801 16.7812C49.1504 17.0352 48.9355 17.429 48.9355 17.9629C48.9355 18.4382 49.0658 18.7832 49.3262 18.998C49.5931 19.2064 49.9154 19.3105 50.293 19.3105C50.8919 19.3105 51.4421 19.1348 51.9434 18.7832C52.4512 18.4316 52.7148 17.7904 52.7344 16.8594V15.8242ZM51.0449 14.5254C51.5592 14.4603 51.9271 14.3789 52.1484 14.2812C52.5456 14.112 52.7441 13.8483 52.7441 13.4902C52.7441 13.054 52.5911 12.7546 52.2852 12.5918C51.9857 12.4225 51.543 12.3379 50.957 12.3379C50.2995 12.3379 49.834 12.5007 49.5605 12.8262C49.3652 13.0671 49.235 13.3926 49.1699 13.8027H46.4844C46.543 12.8717 46.8034 12.1068 47.2656 11.5078C48.0013 10.5703 49.2643 10.1016 51.0547 10.1016C52.2201 10.1016 53.2552 10.3327 54.1602 10.7949C55.0651 11.2572 55.5176 12.1296 55.5176 13.4121V18.2949C55.5176 18.6335 55.5241 19.0436 55.5371 19.5254C55.5566 19.89 55.612 20.1374 55.7031 20.2676C55.7943 20.3978 55.931 20.5052 56.1133 20.5898V21H53.0859C53.0013 20.7852 52.9427 20.5833 52.9102 20.3945C52.8776 20.2057 52.8516 19.9909 52.832 19.75C52.4479 20.1667 52.0052 20.5215 51.5039 20.8145C50.9049 21.1595 50.2279 21.332 49.4727 21.332C48.5091 21.332 47.7116 21.0586 47.0801 20.5117C46.4551 19.9583 46.1426 19.1771 46.1426 18.168C46.1426 16.8594 46.6471 15.9121 47.6562 15.3262C48.2096 15.0072 49.0234 14.7793 50.0977 14.6426L51.0449 14.5254ZM64.3555 14.1738C64.3034 13.7767 64.1699 13.4186 63.9551 13.0996C63.6426 12.6699 63.1576 12.4551 62.5 12.4551C61.5625 12.4551 60.9212 12.9206 60.5762 13.8516C60.3939 14.3464 60.3027 15.0039 60.3027 15.8242C60.3027 16.6055 60.3939 17.2337 60.5762 17.709C60.9082 18.5944 61.5332 19.0371 62.4512 19.0371C63.1022 19.0371 63.5645 18.8613 63.8379 18.5098C64.1113 18.1582 64.2773 17.7025 64.3359 17.1426H67.1777C67.1126 17.9889 66.8066 18.7897 66.2598 19.5449C65.3874 20.7624 64.0951 21.3711 62.3828 21.3711C60.6706 21.3711 59.4108 20.8633 58.6035 19.8477C57.7962 18.832 57.3926 17.5137 57.3926 15.8926C57.3926 14.0632 57.8385 12.6406 58.7305 11.625C59.6224 10.6094 60.8529 10.1016 62.4219 10.1016C63.7565 10.1016 64.847 10.401 65.6934 11C66.5462 11.599 67.0508 12.6569 67.207 14.1738H64.3555ZM68.0371 12.4355V10.4531H69.5215V7.48438H72.2754V10.4531H74.0039V12.4355H72.2754V18.0605C72.2754 18.4967 72.3307 18.7702 72.4414 18.8809C72.5521 18.985 72.8906 19.0371 73.457 19.0371C73.5417 19.0371 73.6296 19.0371 73.7207 19.0371C73.8184 19.0306 73.9128 19.0241 74.0039 19.0176V21.0977L72.6855 21.1465C71.3704 21.1921 70.472 20.9642 69.9902 20.4629C69.6777 20.1439 69.5215 19.6523 69.5215 18.9883V12.4355H68.0371ZM84.1309 10.3555V16.7715C84.1309 17.377 84.2025 17.8327 84.3457 18.1387C84.5996 18.679 85.0977 18.9492 85.8398 18.9492C86.7904 18.9492 87.4414 18.5651 87.793 17.7969C87.9753 17.3802 88.0664 16.8301 88.0664 16.1465V10.3555H90.8887V21H88.1836V19.4961C88.1576 19.5286 88.0924 19.6263 87.9883 19.7891C87.8841 19.9518 87.7604 20.0951 87.6172 20.2188C87.181 20.6094 86.7578 20.8763 86.3477 21.0195C85.944 21.1628 85.4688 21.2344 84.9219 21.2344C83.3464 21.2344 82.2852 20.668 81.7383 19.5352C81.4323 18.9102 81.2793 17.9889 81.2793 16.7715V10.3555H84.1309ZM95.752 17.6016C95.8105 18.0964 95.9375 18.4479 96.1328 18.6562C96.4779 19.0273 97.1159 19.2129 98.0469 19.2129C98.5938 19.2129 99.0267 19.1315 99.3457 18.9688C99.6712 18.806 99.834 18.5618 99.834 18.2363C99.834 17.9238 99.7038 17.6862 99.4434 17.5234C99.1829 17.3607 98.2161 17.0807 96.543 16.6836C95.3385 16.3841 94.4889 16.0098 93.9941 15.5605C93.4993 15.1178 93.252 14.4798 93.252 13.6465C93.252 12.6634 93.6361 11.8203 94.4043 11.1172C95.179 10.4076 96.2663 10.0527 97.666 10.0527C98.9941 10.0527 100.075 10.3197 100.908 10.8535C101.748 11.3809 102.23 12.2956 102.354 13.5977H99.5703C99.5312 13.2396 99.4303 12.9564 99.2676 12.748C98.9616 12.3704 98.4408 12.1816 97.7051 12.1816C97.0996 12.1816 96.6667 12.276 96.4062 12.4648C96.1523 12.6536 96.0254 12.875 96.0254 13.1289C96.0254 13.4479 96.1621 13.679 96.4355 13.8223C96.709 13.972 97.6758 14.2292 99.3359 14.5938C100.443 14.8542 101.273 15.248 101.826 15.7754C102.373 16.3092 102.646 16.9766 102.646 17.7773C102.646 18.832 102.253 19.6947 101.465 20.3652C100.684 21.0293 99.4727 21.3613 97.832 21.3613C96.1589 21.3613 94.9219 21.0098 94.1211 20.3066C93.3268 19.597 92.9297 18.6953 92.9297 17.6016H95.752Z" fill="white"/>
<path d="M32.3711 66.0889H34.0762V72.3818L40.3691 66.0889H42.7861L37.416 71.292L42.9355 79H40.6592L36.1416 72.5225L34.0762 74.5V79H32.3711V66.0889ZM47.9014 77.9805C48.9502 77.9805 49.668 77.585 50.0547 76.7939C50.4473 75.9971 50.6436 75.1123 50.6436 74.1396C50.6436 73.2607 50.5029 72.5459 50.2217 71.9951C49.7764 71.1279 49.0088 70.6943 47.9189 70.6943C46.9521 70.6943 46.249 71.0635 45.8096 71.8018C45.3701 72.54 45.1504 73.4307 45.1504 74.4736C45.1504 75.4756 45.3701 76.3105 45.8096 76.9785C46.249 77.6465 46.9463 77.9805 47.9014 77.9805ZM47.9629 69.3145C49.1758 69.3145 50.2012 69.7188 51.0391 70.5273C51.877 71.3359 52.2959 72.5254 52.2959 74.0957C52.2959 75.6133 51.9268 76.8672 51.1885 77.8574C50.4502 78.8477 49.3047 79.3428 47.752 79.3428C46.457 79.3428 45.4287 78.9062 44.667 78.0332C43.9053 77.1543 43.5244 75.9766 43.5244 74.5C43.5244 72.918 43.9258 71.6582 44.7285 70.7207C45.5312 69.7832 46.6094 69.3145 47.9629 69.3145ZM54.2295 66.0889H55.8115V79H54.2295V66.0889ZM58.1582 66.0889H59.6787V73.5859L63.7393 69.5869H65.7607L62.1572 73.1113L65.9629 79H63.9414L61.0059 74.2539L59.6787 75.4668V79H58.1582V66.0889ZM68.4062 76.4951C68.4062 76.9521 68.5732 77.3125 68.9072 77.5762C69.2412 77.8398 69.6367 77.9717 70.0938 77.9717C70.6504 77.9717 71.1895 77.8428 71.7109 77.585C72.5898 77.1572 73.0293 76.457 73.0293 75.4844V74.21C72.8359 74.333 72.5869 74.4355 72.2822 74.5176C71.9775 74.5996 71.6787 74.6582 71.3857 74.6934L70.4277 74.8164C69.8535 74.8926 69.4229 75.0127 69.1357 75.1768C68.6494 75.4521 68.4062 75.8916 68.4062 76.4951ZM72.2383 73.2959C72.6016 73.249 72.8447 73.0967 72.9678 72.8389C73.0381 72.6982 73.0732 72.4961 73.0732 72.2324C73.0732 71.6934 72.8799 71.3037 72.4932 71.0635C72.1123 70.8174 71.5645 70.6943 70.8496 70.6943C70.0234 70.6943 69.4375 70.917 69.0918 71.3623C68.8984 71.6084 68.7725 71.9746 68.7139 72.4609H67.2373C67.2666 71.3008 67.6416 70.4951 68.3623 70.0439C69.0889 69.5869 69.9297 69.3584 70.8848 69.3584C71.9922 69.3584 72.8916 69.5693 73.583 69.9912C74.2686 70.4131 74.6113 71.0693 74.6113 71.96V77.3828C74.6113 77.5469 74.6436 77.6787 74.708 77.7783C74.7783 77.8779 74.9219 77.9277 75.1387 77.9277C75.209 77.9277 75.2881 77.9248 75.376 77.9189C75.4639 77.9072 75.5576 77.8926 75.6572 77.875V79.0439C75.4111 79.1143 75.2236 79.1582 75.0947 79.1758C74.9658 79.1934 74.79 79.2021 74.5674 79.2021C74.0225 79.2021 73.627 79.0088 73.3809 78.6221C73.252 78.417 73.1611 78.127 73.1084 77.752C72.7861 78.1738 72.3232 78.54 71.7197 78.8506C71.1162 79.1611 70.4512 79.3164 69.7246 79.3164C68.8516 79.3164 68.1367 79.0527 67.5801 78.5254C67.0293 77.9922 66.7539 77.3271 66.7539 76.5303C66.7539 75.6572 67.0264 74.9805 67.5713 74.5C68.1162 74.0195 68.8311 73.7236 69.7158 73.6123L72.2383 73.2959ZM77.5293 66.959H79.1289V69.5869H80.6318V70.8789H79.1289V77.0225C79.1289 77.3506 79.2402 77.5703 79.4629 77.6816C79.5859 77.7461 79.791 77.7783 80.0781 77.7783C80.1543 77.7783 80.2363 77.7783 80.3242 77.7783C80.4121 77.7725 80.5146 77.7637 80.6318 77.752V79C80.4502 79.0527 80.2598 79.0908 80.0605 79.1143C79.8672 79.1377 79.6562 79.1494 79.4277 79.1494C78.6895 79.1494 78.1885 78.9619 77.9248 78.5869C77.6611 78.2061 77.5293 77.7139 77.5293 77.1104V70.8789H76.2549V69.5869H77.5293V66.959ZM83.4355 76.4951C83.4355 76.9521 83.6025 77.3125 83.9365 77.5762C84.2705 77.8398 84.666 77.9717 85.123 77.9717C85.6797 77.9717 86.2188 77.8428 86.7402 77.585C87.6191 77.1572 88.0586 76.457 88.0586 75.4844V74.21C87.8652 74.333 87.6162 74.4355 87.3115 74.5176C87.0068 74.5996 86.708 74.6582 86.415 74.6934L85.457 74.8164C84.8828 74.8926 84.4521 75.0127 84.165 75.1768C83.6787 75.4521 83.4355 75.8916 83.4355 76.4951ZM87.2676 73.2959C87.6309 73.249 87.874 73.0967 87.9971 72.8389C88.0674 72.6982 88.1025 72.4961 88.1025 72.2324C88.1025 71.6934 87.9092 71.3037 87.5225 71.0635C87.1416 70.8174 86.5938 70.6943 85.8789 70.6943C85.0527 70.6943 84.4668 70.917 84.1211 71.3623C83.9277 71.6084 83.8018 71.9746 83.7432 72.4609H82.2666C82.2959 71.3008 82.6709 70.4951 83.3916 70.0439C84.1182 69.5869 84.959 69.3584 85.9141 69.3584C87.0215 69.3584 87.9209 69.5693 88.6123 69.9912C89.2979 70.4131 89.6406 71.0693 89.6406 71.96V77.3828C89.6406 77.5469 89.6729 77.6787 89.7373 77.7783C89.8076 77.8779 89.9512 77.9277 90.168 77.9277C90.2383 77.9277 90.3174 77.9248 90.4053 77.9189C90.4932 77.9072 90.5869 77.8926 90.6865 77.875V79.0439C90.4404 79.1143 90.2529 79.1582 90.124 79.1758C89.9951 79.1934 89.8193 79.2021 89.5967 79.2021C89.0518 79.2021 88.6562 79.0088 88.4102 78.6221C88.2812 78.417 88.1904 78.127 88.1377 77.752C87.8154 78.1738 87.3525 78.54 86.749 78.8506C86.1455 79.1611 85.4805 79.3164 84.7539 79.3164C83.8809 79.3164 83.166 79.0527 82.6094 78.5254C82.0586 77.9922 81.7832 77.3271 81.7832 76.5303C81.7832 75.6572 82.0557 74.9805 82.6006 74.5C83.1455 74.0195 83.8604 73.7236 84.7451 73.6123L87.2676 73.2959ZM97.8584 66.0889H99.625V79H97.8584V66.0889ZM102.262 69.5869H103.765V70.9229C104.21 70.3721 104.682 69.9766 105.18 69.7363C105.678 69.4961 106.231 69.376 106.841 69.376C108.177 69.376 109.079 69.8418 109.548 70.7734C109.806 71.2832 109.935 72.0127 109.935 72.9619V79H108.326V73.0674C108.326 72.4932 108.241 72.0303 108.071 71.6787C107.79 71.0928 107.28 70.7998 106.542 70.7998C106.167 70.7998 105.859 70.8379 105.619 70.9141C105.186 71.043 104.805 71.3008 104.477 71.6875C104.213 71.998 104.04 72.3203 103.958 72.6543C103.882 72.9824 103.844 73.4541 103.844 74.0693V79H102.262V69.5869ZM113.283 74.4033C113.283 75.4111 113.497 76.2549 113.925 76.9346C114.353 77.6143 115.038 77.9541 115.981 77.9541C116.714 77.9541 117.314 77.6406 117.783 77.0137C118.258 76.3809 118.495 75.4756 118.495 74.2979C118.495 73.1084 118.252 72.2295 117.766 71.6611C117.279 71.0869 116.679 70.7998 115.964 70.7998C115.167 70.7998 114.52 71.1045 114.021 71.7139C113.529 72.3232 113.283 73.2197 113.283 74.4033ZM115.665 69.4199C116.386 69.4199 116.989 69.5723 117.476 69.877C117.757 70.0527 118.076 70.3604 118.434 70.7998V66.0449H119.954V79H118.53V77.6904C118.161 78.2705 117.725 78.6895 117.221 78.9473C116.717 79.2051 116.14 79.334 115.489 79.334C114.44 79.334 113.532 78.8945 112.765 78.0156C111.997 77.1309 111.613 75.9561 111.613 74.4912C111.613 73.1201 111.962 71.9336 112.659 70.9316C113.362 69.9238 114.364 69.4199 115.665 69.4199ZM122.301 69.6309H123.909V79H122.301V69.6309ZM122.301 66.0889H123.909V67.8818H122.301V66.0889ZM127.521 76.4951C127.521 76.9521 127.688 77.3125 128.022 77.5762C128.356 77.8398 128.752 77.9717 129.209 77.9717C129.766 77.9717 130.305 77.8428 130.826 77.585C131.705 77.1572 132.145 76.457 132.145 75.4844V74.21C131.951 74.333 131.702 74.4355 131.397 74.5176C131.093 74.5996 130.794 74.6582 130.501 74.6934L129.543 74.8164C128.969 74.8926 128.538 75.0127 128.251 75.1768C127.765 75.4521 127.521 75.8916 127.521 76.4951ZM131.354 73.2959C131.717 73.249 131.96 73.0967 132.083 72.8389C132.153 72.6982 132.188 72.4961 132.188 72.2324C132.188 71.6934 131.995 71.3037 131.608 71.0635C131.228 70.8174 130.68 70.6943 129.965 70.6943C129.139 70.6943 128.553 70.917 128.207 71.3623C128.014 71.6084 127.888 71.9746 127.829 72.4609H126.353C126.382 71.3008 126.757 70.4951 127.478 70.0439C128.204 69.5869 129.045 69.3584 130 69.3584C131.107 69.3584 132.007 69.5693 132.698 69.9912C133.384 70.4131 133.727 71.0693 133.727 71.96V77.3828C133.727 77.5469 133.759 77.6787 133.823 77.7783C133.894 77.8779 134.037 77.9277 134.254 77.9277C134.324 77.9277 134.403 77.9248 134.491 77.9189C134.579 77.9072 134.673 77.8926 134.772 77.875V79.0439C134.526 79.1143 134.339 79.1582 134.21 79.1758C134.081 79.1934 133.905 79.2021 133.683 79.2021C133.138 79.2021 132.742 79.0088 132.496 78.6221C132.367 78.417 132.276 78.127 132.224 77.752C131.901 78.1738 131.438 78.54 130.835 78.8506C130.231 79.1611 129.566 79.3164 128.84 79.3164C127.967 79.3164 127.252 79.0527 126.695 78.5254C126.145 77.9922 125.869 77.3271 125.869 76.5303C125.869 75.6572 126.142 74.9805 126.687 74.5C127.231 74.0195 127.946 73.7236 128.831 73.6123L131.354 73.2959ZM141.672 80.8369C142.076 80.7666 142.36 80.4824 142.524 79.9844C142.612 79.7207 142.656 79.4658 142.656 79.2197C142.656 79.1787 142.653 79.1406 142.647 79.1055C142.647 79.0762 142.642 79.041 142.63 79H141.672V77.084H143.553V78.8594C143.553 79.5566 143.412 80.1689 143.131 80.6963C142.85 81.2236 142.363 81.5488 141.672 81.6719V80.8369ZM154.873 79.3428C153.385 79.3428 152.304 78.9355 151.63 78.1211C150.962 77.3008 150.628 76.3047 150.628 75.1328H152.28C152.351 75.9473 152.503 76.5391 152.737 76.9082C153.147 77.5703 153.889 77.9014 154.961 77.9014C155.793 77.9014 156.461 77.6787 156.965 77.2334C157.469 76.7881 157.721 76.2139 157.721 75.5107C157.721 74.6436 157.454 74.0371 156.921 73.6914C156.394 73.3457 155.658 73.1729 154.715 73.1729C154.609 73.1729 154.501 73.1758 154.39 73.1816C154.284 73.1816 154.176 73.1846 154.064 73.1904V71.793C154.229 71.8105 154.366 71.8223 154.478 71.8281C154.589 71.834 154.709 71.8369 154.838 71.8369C155.43 71.8369 155.916 71.7432 156.297 71.5557C156.965 71.2275 157.299 70.6416 157.299 69.7979C157.299 69.1709 157.076 68.6875 156.631 68.3477C156.186 68.0078 155.667 67.8379 155.075 67.8379C154.021 67.8379 153.291 68.1895 152.887 68.8926C152.664 69.2793 152.538 69.8301 152.509 70.5449H150.944C150.944 69.6074 151.132 68.8105 151.507 68.1543C152.151 66.9824 153.285 66.3965 154.908 66.3965C156.191 66.3965 157.185 66.6836 157.888 67.2578C158.591 67.8262 158.942 68.6523 158.942 69.7363C158.942 70.5098 158.734 71.1367 158.318 71.6172C158.061 71.916 157.727 72.1504 157.316 72.3203C157.979 72.502 158.494 72.8535 158.863 73.375C159.238 73.8906 159.426 74.5234 159.426 75.2734C159.426 76.4746 159.03 77.4531 158.239 78.209C157.448 78.9648 156.326 79.3428 154.873 79.3428ZM161.421 69.5869H162.924V71.2129C163.047 70.8965 163.349 70.5127 163.829 70.0615C164.31 69.6045 164.863 69.376 165.49 69.376C165.52 69.376 165.569 69.3789 165.64 69.3848C165.71 69.3906 165.83 69.4023 166 69.4199V71.0898C165.906 71.0723 165.818 71.0605 165.736 71.0547C165.66 71.0488 165.575 71.0459 165.481 71.0459C164.685 71.0459 164.072 71.3037 163.645 71.8193C163.217 72.3291 163.003 72.918 163.003 73.5859V79H161.421V69.5869ZM168.373 74.4033C168.373 75.4111 168.587 76.2549 169.015 76.9346C169.442 77.6143 170.128 77.9541 171.071 77.9541C171.804 77.9541 172.404 77.6406 172.873 77.0137C173.348 76.3809 173.585 75.4756 173.585 74.2979C173.585 73.1084 173.342 72.2295 172.855 71.6611C172.369 71.0869 171.769 70.7998 171.054 70.7998C170.257 70.7998 169.609 71.1045 169.111 71.7139C168.619 72.3232 168.373 73.2197 168.373 74.4033ZM170.755 69.4199C171.476 69.4199 172.079 69.5723 172.565 69.877C172.847 70.0527 173.166 70.3604 173.523 70.7998V66.0449H175.044V79H173.62V77.6904C173.251 78.2705 172.814 78.6895 172.311 78.9473C171.807 79.2051 171.229 79.334 170.579 79.334C169.53 79.334 168.622 78.8945 167.854 78.0156C167.087 77.1309 166.703 75.9561 166.703 74.4912C166.703 73.1201 167.052 71.9336 167.749 70.9316C168.452 69.9238 169.454 69.4199 170.755 69.4199ZM182.778 66.0889H191.734V67.6709H184.527V71.5908H190.864V73.1289H184.527V79H182.778V66.0889ZM193.448 66.0889H195.03V79H193.448V66.0889ZM201.147 77.9805C202.196 77.9805 202.914 77.585 203.301 76.7939C203.693 75.9971 203.89 75.1123 203.89 74.1396C203.89 73.2607 203.749 72.5459 203.468 71.9951C203.022 71.1279 202.255 70.6943 201.165 70.6943C200.198 70.6943 199.495 71.0635 199.056 71.8018C198.616 72.54 198.396 73.4307 198.396 74.4736C198.396 75.4756 198.616 76.3105 199.056 76.9785C199.495 77.6465 200.192 77.9805 201.147 77.9805ZM201.209 69.3145C202.422 69.3145 203.447 69.7188 204.285 70.5273C205.123 71.3359 205.542 72.5254 205.542 74.0957C205.542 75.6133 205.173 76.8672 204.435 77.8574C203.696 78.8477 202.551 79.3428 200.998 79.3428C199.703 79.3428 198.675 78.9062 197.913 78.0332C197.151 77.1543 196.771 75.9766 196.771 74.5C196.771 72.918 197.172 71.6582 197.975 70.7207C198.777 69.7832 199.855 69.3145 201.209 69.3145ZM211.167 77.9805C212.216 77.9805 212.934 77.585 213.32 76.7939C213.713 75.9971 213.909 75.1123 213.909 74.1396C213.909 73.2607 213.769 72.5459 213.487 71.9951C213.042 71.1279 212.274 70.6943 211.185 70.6943C210.218 70.6943 209.515 71.0635 209.075 71.8018C208.636 72.54 208.416 73.4307 208.416 74.4736C208.416 75.4756 208.636 76.3105 209.075 76.9785C209.515 77.6465 210.212 77.9805 211.167 77.9805ZM211.229 69.3145C212.441 69.3145 213.467 69.7188 214.305 70.5273C215.143 71.3359 215.562 72.5254 215.562 74.0957C215.562 75.6133 215.192 76.8672 214.454 77.8574C213.716 78.8477 212.57 79.3428 211.018 79.3428C209.723 79.3428 208.694 78.9062 207.933 78.0332C207.171 77.1543 206.79 75.9766 206.79 74.5C206.79 72.918 207.191 71.6582 207.994 70.7207C208.797 69.7832 209.875 69.3145 211.229 69.3145ZM217.495 69.5869H218.998V71.2129C219.121 70.8965 219.423 70.5127 219.903 70.0615C220.384 69.6045 220.938 69.376 221.564 69.376C221.594 69.376 221.644 69.3789 221.714 69.3848C221.784 69.3906 221.904 69.4023 222.074 69.4199V71.0898C221.98 71.0723 221.893 71.0605 221.811 71.0547C221.734 71.0488 221.649 71.0459 221.556 71.0459C220.759 71.0459 220.146 71.3037 219.719 71.8193C219.291 72.3291 219.077 72.918 219.077 73.5859V79H217.495V69.5869ZM222.795 80.8369C223.199 80.7666 223.483 80.4824 223.647 79.9844C223.735 79.7207 223.779 79.4658 223.779 79.2197C223.779 79.1787 223.776 79.1406 223.771 79.1055C223.771 79.0762 223.765 79.041 223.753 79H222.795V77.084H224.676V78.8594C224.676 79.5566 224.535 80.1689 224.254 80.6963C223.973 81.2236 223.486 81.5488 222.795 81.6719V80.8369ZM238.264 65.7373C240.543 65.7373 242.23 66.4697 243.326 67.9346C244.182 69.0771 244.609 70.5391 244.609 72.3203C244.609 74.248 244.12 75.8506 243.142 77.1279C241.993 78.6279 240.355 79.3779 238.229 79.3779C236.242 79.3779 234.681 78.7217 233.544 77.4092C232.53 76.1436 232.023 74.5439 232.023 72.6104C232.023 70.8643 232.457 69.3701 233.324 68.1279C234.438 66.5342 236.084 65.7373 238.264 65.7373ZM238.439 77.8135C239.98 77.8135 241.094 77.2627 241.779 76.1611C242.471 75.0537 242.816 73.7822 242.816 72.3467C242.816 70.8291 242.418 69.6074 241.621 68.6816C240.83 67.7559 239.746 67.293 238.369 67.293C237.033 67.293 235.943 67.7529 235.1 68.6729C234.256 69.5869 233.834 70.9375 233.834 72.7246C233.834 74.1543 234.194 75.3613 234.915 76.3457C235.642 77.3242 236.816 77.8135 238.439 77.8135ZM246.886 68.1543C246.909 67.498 247.023 67.0176 247.229 66.7129C247.598 66.1738 248.31 65.9043 249.364 65.9043C249.464 65.9043 249.566 65.9072 249.672 65.9131C249.777 65.9189 249.897 65.9277 250.032 65.9395V67.3809C249.868 67.3691 249.748 67.3633 249.672 67.3633C249.602 67.3574 249.534 67.3545 249.47 67.3545C248.989 67.3545 248.702 67.4805 248.608 67.7324C248.515 67.9785 248.468 68.6113 248.468 69.6309H250.032V70.8789H248.45V79H246.886V70.8789H245.576V69.6309H246.886V68.1543ZM251.896 68.1543C251.919 67.498 252.033 67.0176 252.238 66.7129C252.607 66.1738 253.319 65.9043 254.374 65.9043C254.474 65.9043 254.576 65.9072 254.682 65.9131C254.787 65.9189 254.907 65.9277 255.042 65.9395V67.3809C254.878 67.3691 254.758 67.3633 254.682 67.3633C254.611 67.3574 254.544 67.3545 254.479 67.3545C253.999 67.3545 253.712 67.4805 253.618 67.7324C253.524 67.9785 253.478 68.6113 253.478 69.6309H255.042V70.8789H253.46V79H251.896V70.8789H250.586V69.6309H251.896V68.1543ZM256.562 67.8818V66.0889H258.145V67.8818H256.562ZM256.562 69.6309H258.145V79H256.562V69.6309ZM264.13 69.3145C265.19 69.3145 266.052 69.5723 266.714 70.0879C267.382 70.6035 267.783 71.4912 267.918 72.751H266.38C266.286 72.1709 266.072 71.6904 265.738 71.3096C265.404 70.9229 264.868 70.7295 264.13 70.7295C263.122 70.7295 262.401 71.2217 261.968 72.2061C261.687 72.8447 261.546 73.6328 261.546 74.5703C261.546 75.5137 261.745 76.3076 262.144 76.9521C262.542 77.5967 263.169 77.9189 264.024 77.9189C264.681 77.9189 265.199 77.7197 265.58 77.3213C265.967 76.917 266.233 76.3662 266.38 75.6689H267.918C267.742 76.917 267.303 77.8311 266.6 78.4111C265.896 78.9854 264.997 79.2725 263.901 79.2725C262.671 79.2725 261.689 78.8242 260.957 77.9277C260.225 77.0254 259.858 75.9004 259.858 74.5527C259.858 72.9004 260.26 71.6143 261.062 70.6943C261.865 69.7744 262.888 69.3145 264.13 69.3145ZM273.42 69.376C274.088 69.376 274.735 69.5342 275.362 69.8506C275.989 70.1611 276.467 70.5654 276.795 71.0635C277.111 71.5381 277.322 72.0918 277.428 72.7246C277.521 73.1582 277.568 73.8496 277.568 74.7988H270.669C270.698 75.7539 270.924 76.5215 271.346 77.1016C271.768 77.6758 272.421 77.9629 273.306 77.9629C274.132 77.9629 274.791 77.6904 275.283 77.1455C275.564 76.8291 275.764 76.4629 275.881 76.0469H277.437C277.396 76.3926 277.258 76.7793 277.023 77.207C276.795 77.6289 276.537 77.9746 276.25 78.2441C275.77 78.7129 275.175 79.0293 274.466 79.1934C274.085 79.2871 273.654 79.334 273.174 79.334C272.002 79.334 271.009 78.9092 270.194 78.0596C269.38 77.2041 268.973 76.0088 268.973 74.4736C268.973 72.9619 269.383 71.7344 270.203 70.791C271.023 69.8477 272.096 69.376 273.42 69.376ZM275.942 73.542C275.878 72.8564 275.729 72.3086 275.494 71.8984C275.061 71.1367 274.337 70.7559 273.323 70.7559C272.597 70.7559 271.987 71.0195 271.495 71.5469C271.003 72.0684 270.742 72.7334 270.713 73.542H275.942ZM289.319 74.5439V68.8398L285.285 74.5439H289.319ZM289.346 79V75.9238H283.826V74.377L289.592 66.3789H290.928V74.5439H292.782V75.9238H290.928V79H289.346ZM295.612 75.792C295.718 76.6943 296.137 77.3184 296.869 77.6641C297.244 77.8398 297.678 77.9277 298.17 77.9277C299.107 77.9277 299.802 77.6289 300.253 77.0312C300.704 76.4336 300.93 75.7715 300.93 75.0449C300.93 74.166 300.66 73.4863 300.121 73.0059C299.588 72.5254 298.946 72.2852 298.196 72.2852C297.651 72.2852 297.183 72.3906 296.79 72.6016C296.403 72.8125 296.072 73.1055 295.797 73.4805L294.426 73.4014L295.384 66.625H301.923V68.1543H296.57L296.034 71.6523C296.327 71.4297 296.605 71.2627 296.869 71.1514C297.338 70.958 297.88 70.8613 298.495 70.8613C299.649 70.8613 300.628 71.2334 301.431 71.9775C302.233 72.7217 302.635 73.665 302.635 74.8076C302.635 75.9971 302.266 77.0459 301.527 77.9541C300.795 78.8623 299.623 79.3164 298.012 79.3164C296.986 79.3164 296.078 79.0293 295.287 78.4551C294.502 77.875 294.062 76.9873 293.969 75.792H295.612Z" fill="white"/>
<path d="M11.5 74.2188C13.0878 74.2188 14.375 72.9316 14.375 71.3438C14.375 69.7559 13.0878 68.4688 11.5 68.4688C9.91218 68.4688 8.625 69.7559 8.625 71.3438C8.625 72.9316 9.91218 74.2188 11.5 74.2188Z" stroke="white" stroke-width="1.5" stroke-linecap="round" stroke-linejoin="round"/>
<path d="M18.6875 71.3438C18.6875 77.8125 11.5 82.8438 11.5 82.8438C11.5 82.8438 4.3125 77.8125 4.3125 71.3438C4.3125 69.4375 5.06975 67.6093 6.41767 66.2614C7.76559 64.9135 9.59376 64.1562 11.5 64.1562C13.4062 64.1562 15.2344 64.9135 16.5823 66.2614C17.9302 67.6093 18.6875 69.4375 18.6875 71.3438V71.3438Z" stroke="white" stroke-width="1.5" stroke-linecap="round" stroke-linejoin="round"/>
<path d="M32.3271 162.089H34.832L38.541 173.005L42.2236 162.089H44.7021V175H43.041V167.38C43.041 167.116 43.0469 166.68 43.0586 166.07C43.0703 165.461 43.0762 164.808 43.0762 164.11L39.3936 175H37.6621L33.9531 164.11V164.506C33.9531 164.822 33.959 165.306 33.9707 165.956C33.9883 166.601 33.9971 167.075 33.9971 167.38V175H32.3271V162.089ZM47.5322 173.084H49.3691V175H47.5322V173.084ZM59.002 169.709L57.042 164.005L54.959 169.709H59.002ZM56.1279 162.089H58.1055L62.79 175H60.874L59.5645 171.133H54.458L53.0605 175H51.2676L56.1279 162.089ZM64.2139 162.089H65.7959V175H64.2139V162.089ZM74.0576 165.587H75.8066C75.584 166.19 75.0889 167.567 74.3213 169.718C73.7471 171.335 73.2666 172.653 72.8799 173.673C71.9658 176.075 71.3213 177.54 70.9463 178.067C70.5713 178.595 69.9268 178.858 69.0127 178.858C68.79 178.858 68.6172 178.85 68.4941 178.832C68.377 178.814 68.2305 178.782 68.0547 178.735V177.294C68.3301 177.37 68.5293 177.417 68.6523 177.435C68.7754 177.452 68.8838 177.461 68.9775 177.461C69.2705 177.461 69.4844 177.411 69.6191 177.312C69.7598 177.218 69.877 177.101 69.9707 176.96C70 176.913 70.1055 176.673 70.2871 176.239C70.4688 175.806 70.6006 175.483 70.6826 175.272L67.2021 165.587H68.9951L71.5176 173.251L74.0576 165.587ZM78.3906 172.495C78.3906 172.952 78.5576 173.312 78.8916 173.576C79.2256 173.84 79.6211 173.972 80.0781 173.972C80.6348 173.972 81.1738 173.843 81.6953 173.585C82.5742 173.157 83.0137 172.457 83.0137 171.484V170.21C82.8203 170.333 82.5713 170.436 82.2666 170.518C81.9619 170.6 81.6631 170.658 81.3701 170.693L80.4121 170.816C79.8379 170.893 79.4072 171.013 79.1201 171.177C78.6338 171.452 78.3906 171.892 78.3906 172.495ZM82.2227 169.296C82.5859 169.249 82.8291 169.097 82.9521 168.839C83.0225 168.698 83.0576 168.496 83.0576 168.232C83.0576 167.693 82.8643 167.304 82.4775 167.063C82.0967 166.817 81.5488 166.694 80.834 166.694C80.0078 166.694 79.4219 166.917 79.0762 167.362C78.8828 167.608 78.7568 167.975 78.6982 168.461H77.2217C77.251 167.301 77.626 166.495 78.3467 166.044C79.0732 165.587 79.9141 165.358 80.8691 165.358C81.9766 165.358 82.876 165.569 83.5674 165.991C84.2529 166.413 84.5957 167.069 84.5957 167.96V173.383C84.5957 173.547 84.6279 173.679 84.6924 173.778C84.7627 173.878 84.9062 173.928 85.123 173.928C85.1934 173.928 85.2725 173.925 85.3604 173.919C85.4482 173.907 85.542 173.893 85.6416 173.875V175.044C85.3955 175.114 85.208 175.158 85.0791 175.176C84.9502 175.193 84.7744 175.202 84.5518 175.202C84.0068 175.202 83.6113 175.009 83.3652 174.622C83.2363 174.417 83.1455 174.127 83.0928 173.752C82.7705 174.174 82.3076 174.54 81.7041 174.851C81.1006 175.161 80.4355 175.316 79.709 175.316C78.8359 175.316 78.1211 175.053 77.5645 174.525C77.0137 173.992 76.7383 173.327 76.7383 172.53C76.7383 171.657 77.0107 170.98 77.5557 170.5C78.1006 170.02 78.8154 169.724 79.7002 169.612L82.2227 169.296ZM88.2168 170.421C88.2168 171.235 88.3311 171.918 88.5596 172.469C88.9639 173.447 89.6875 173.937 90.7305 173.937C91.832 173.937 92.5908 173.421 93.0068 172.39C93.2354 171.821 93.3496 171.095 93.3496 170.21C93.3496 169.396 93.2236 168.716 92.9717 168.171C92.5439 167.239 91.791 166.773 90.7129 166.773C90.0273 166.773 89.4385 167.072 88.9463 167.67C88.46 168.262 88.2168 169.179 88.2168 170.421ZM90.5547 165.376C91.334 165.376 91.9902 165.572 92.5234 165.965C92.8164 166.176 93.0977 166.486 93.3672 166.896V165.587H94.8701V178.753H93.2793V173.919C93.0156 174.341 92.6494 174.678 92.1807 174.93C91.7178 175.176 91.1377 175.299 90.4404 175.299C89.4385 175.299 88.542 174.906 87.751 174.121C86.96 173.336 86.5645 172.141 86.5645 170.535C86.5645 169.029 86.9336 167.793 87.6719 166.826C88.416 165.859 89.377 165.376 90.5547 165.376ZM100.952 173.98C102.001 173.98 102.719 173.585 103.105 172.794C103.498 171.997 103.694 171.112 103.694 170.14C103.694 169.261 103.554 168.546 103.272 167.995C102.827 167.128 102.06 166.694 100.97 166.694C100.003 166.694 99.2998 167.063 98.8604 167.802C98.4209 168.54 98.2012 169.431 98.2012 170.474C98.2012 171.476 98.4209 172.311 98.8604 172.979C99.2998 173.646 99.9971 173.98 100.952 173.98ZM101.014 165.314C102.227 165.314 103.252 165.719 104.09 166.527C104.928 167.336 105.347 168.525 105.347 170.096C105.347 171.613 104.978 172.867 104.239 173.857C103.501 174.848 102.355 175.343 100.803 175.343C99.5078 175.343 98.4795 174.906 97.7178 174.033C96.9561 173.154 96.5752 171.977 96.5752 170.5C96.5752 168.918 96.9766 167.658 97.7793 166.721C98.582 165.783 99.6602 165.314 101.014 165.314ZM108.818 165.587V171.836C108.818 172.316 108.895 172.709 109.047 173.014C109.328 173.576 109.853 173.857 110.62 173.857C111.722 173.857 112.472 173.365 112.87 172.381C113.087 171.854 113.195 171.13 113.195 170.21V165.587H114.777V175H113.283L113.301 173.611C113.096 173.969 112.841 174.271 112.536 174.517C111.933 175.009 111.2 175.255 110.339 175.255C108.997 175.255 108.083 174.807 107.597 173.91C107.333 173.43 107.201 172.788 107.201 171.985V165.587H108.818ZM117.572 162.959H119.172V165.587H120.675V166.879H119.172V173.022C119.172 173.351 119.283 173.57 119.506 173.682C119.629 173.746 119.834 173.778 120.121 173.778C120.197 173.778 120.279 173.778 120.367 173.778C120.455 173.772 120.558 173.764 120.675 173.752V175C120.493 175.053 120.303 175.091 120.104 175.114C119.91 175.138 119.699 175.149 119.471 175.149C118.732 175.149 118.231 174.962 117.968 174.587C117.704 174.206 117.572 173.714 117.572 173.11V166.879H116.298V165.587H117.572V162.959ZM132.083 167.151C132.083 166.788 131.96 166.463 131.714 166.176C131.474 165.883 131.14 165.736 130.712 165.736C130.044 165.736 129.464 166.132 128.972 166.923C128.485 167.708 128.242 168.49 128.242 169.27C128.242 169.844 128.368 170.283 128.62 170.588C128.872 170.887 129.188 171.036 129.569 171.036C130.36 171.036 130.976 170.576 131.415 169.656C131.86 168.73 132.083 167.896 132.083 167.151ZM130.334 175.378C127.885 175.378 125.998 174.613 124.674 173.084C123.613 171.859 123.083 170.444 123.083 168.839C123.083 166.929 123.728 165.306 125.017 163.97C126.446 162.481 128.365 161.737 130.773 161.737C132.859 161.737 134.5 162.265 135.695 163.319C136.814 164.315 137.374 165.607 137.374 167.195C137.374 168.531 136.973 169.674 136.17 170.623C135.373 171.566 134.479 172.038 133.489 172.038C132.909 172.038 132.481 171.9 132.206 171.625C131.931 171.344 131.793 171.007 131.793 170.614C131.793 170.55 131.799 170.482 131.811 170.412C131.822 170.342 131.837 170.269 131.854 170.192C131.544 170.866 131.151 171.344 130.677 171.625C130.202 171.9 129.713 172.038 129.209 172.038C128.488 172.038 127.902 171.777 127.451 171.256C127.006 170.734 126.783 170.063 126.783 169.243C126.783 168.077 127.164 167.049 127.926 166.158C128.693 165.268 129.517 164.822 130.396 164.822C130.993 164.822 131.485 164.995 131.872 165.341C132.265 165.687 132.473 166.103 132.496 166.589L132.936 165.112H134.228L133.059 168.962C132.971 169.261 132.906 169.501 132.865 169.683C132.824 169.864 132.804 170.025 132.804 170.166C132.804 170.43 132.883 170.623 133.041 170.746C133.205 170.863 133.39 170.922 133.595 170.922C134.263 170.922 134.86 170.573 135.388 169.876C135.921 169.179 136.188 168.268 136.188 167.143C136.188 165.783 135.713 164.717 134.764 163.943C133.814 163.164 132.537 162.774 130.932 162.774C128.705 162.774 127.003 163.425 125.825 164.726C124.817 165.833 124.313 167.225 124.313 168.9C124.313 170.365 124.794 171.596 125.755 172.592C126.88 173.77 128.482 174.358 130.562 174.358C131.535 174.358 132.44 174.206 133.278 173.901C134.116 173.591 134.884 173.175 135.581 172.653L136.161 173.444C135.634 173.913 134.846 174.353 133.797 174.763C132.748 175.173 131.594 175.378 130.334 175.378ZM145.337 170.544V164.84L141.303 170.544H145.337ZM145.363 175V171.924H139.844V170.377L145.609 162.379H146.945V170.544H148.8V171.924H146.945V175H145.363ZM150.566 162.045H152.148V166.861C152.523 166.387 152.86 166.053 153.159 165.859C153.669 165.525 154.305 165.358 155.066 165.358C156.432 165.358 157.357 165.836 157.844 166.791C158.107 167.312 158.239 168.036 158.239 168.962V175H156.613V169.067C156.613 168.376 156.525 167.869 156.35 167.547C156.062 167.031 155.523 166.773 154.732 166.773C154.076 166.773 153.481 166.999 152.948 167.45C152.415 167.901 152.148 168.754 152.148 170.008V175H150.566V162.045ZM164.321 173.98C165.37 173.98 166.088 173.585 166.475 172.794C166.867 171.997 167.063 171.112 167.063 170.14C167.063 169.261 166.923 168.546 166.642 167.995C166.196 167.128 165.429 166.694 164.339 166.694C163.372 166.694 162.669 167.063 162.229 167.802C161.79 168.54 161.57 169.431 161.57 170.474C161.57 171.476 161.79 172.311 162.229 172.979C162.669 173.646 163.366 173.98 164.321 173.98ZM164.383 165.314C165.596 165.314 166.621 165.719 167.459 166.527C168.297 167.336 168.716 168.525 168.716 170.096C168.716 171.613 168.347 172.867 167.608 173.857C166.87 174.848 165.725 175.343 164.172 175.343C162.877 175.343 161.849 174.906 161.087 174.033C160.325 173.154 159.944 171.977 159.944 170.5C159.944 168.918 160.346 167.658 161.148 166.721C161.951 165.783 163.029 165.314 164.383 165.314ZM172.188 165.587V171.836C172.188 172.316 172.264 172.709 172.416 173.014C172.697 173.576 173.222 173.857 173.989 173.857C175.091 173.857 175.841 173.365 176.239 172.381C176.456 171.854 176.564 171.13 176.564 170.21V165.587H178.146V175H176.652L176.67 173.611C176.465 173.969 176.21 174.271 175.905 174.517C175.302 175.009 174.569 175.255 173.708 175.255C172.366 175.255 171.452 174.807 170.966 173.91C170.702 173.43 170.57 172.788 170.57 171.985V165.587H172.188ZM181.565 172.047C181.612 172.574 181.744 172.979 181.961 173.26C182.359 173.77 183.051 174.024 184.035 174.024C184.621 174.024 185.137 173.898 185.582 173.646C186.027 173.389 186.25 172.993 186.25 172.46C186.25 172.056 186.071 171.748 185.714 171.537C185.485 171.408 185.034 171.259 184.36 171.089L183.104 170.772C182.301 170.573 181.709 170.351 181.328 170.104C180.648 169.677 180.309 169.085 180.309 168.329C180.309 167.438 180.628 166.718 181.267 166.167C181.911 165.616 182.775 165.341 183.859 165.341C185.277 165.341 186.3 165.757 186.927 166.589C187.319 167.116 187.51 167.685 187.498 168.294H186.004C185.975 167.937 185.849 167.611 185.626 167.318C185.263 166.902 184.633 166.694 183.736 166.694C183.139 166.694 182.685 166.809 182.374 167.037C182.069 167.266 181.917 167.567 181.917 167.942C181.917 168.353 182.119 168.681 182.523 168.927C182.758 169.073 183.104 169.202 183.561 169.313L184.606 169.568C185.743 169.844 186.505 170.11 186.892 170.368C187.507 170.772 187.814 171.408 187.814 172.275C187.814 173.113 187.495 173.837 186.856 174.446C186.224 175.056 185.257 175.36 183.956 175.36C182.556 175.36 181.562 175.044 180.977 174.411C180.396 173.772 180.086 172.984 180.045 172.047H181.565ZM193.545 165.376C194.213 165.376 194.86 165.534 195.487 165.851C196.114 166.161 196.592 166.565 196.92 167.063C197.236 167.538 197.447 168.092 197.553 168.725C197.646 169.158 197.693 169.85 197.693 170.799H190.794C190.823 171.754 191.049 172.521 191.471 173.102C191.893 173.676 192.546 173.963 193.431 173.963C194.257 173.963 194.916 173.69 195.408 173.146C195.689 172.829 195.889 172.463 196.006 172.047H197.562C197.521 172.393 197.383 172.779 197.148 173.207C196.92 173.629 196.662 173.975 196.375 174.244C195.895 174.713 195.3 175.029 194.591 175.193C194.21 175.287 193.779 175.334 193.299 175.334C192.127 175.334 191.134 174.909 190.319 174.06C189.505 173.204 189.098 172.009 189.098 170.474C189.098 168.962 189.508 167.734 190.328 166.791C191.148 165.848 192.221 165.376 193.545 165.376ZM196.067 169.542C196.003 168.856 195.854 168.309 195.619 167.898C195.186 167.137 194.462 166.756 193.448 166.756C192.722 166.756 192.112 167.02 191.62 167.547C191.128 168.068 190.867 168.733 190.838 169.542H196.067ZM200.022 173.084H201.859V175H200.022V173.084ZM210.306 161.737C211.94 161.737 213.209 162.168 214.111 163.029C215.014 163.891 215.515 164.869 215.614 165.965H213.909C213.716 165.133 213.329 164.474 212.749 163.987C212.175 163.501 211.366 163.258 210.323 163.258C209.052 163.258 208.023 163.706 207.238 164.603C206.459 165.493 206.069 166.861 206.069 168.707C206.069 170.219 206.421 171.446 207.124 172.39C207.833 173.327 208.888 173.796 210.288 173.796C211.577 173.796 212.559 173.301 213.232 172.311C213.59 171.789 213.856 171.104 214.032 170.254H215.737C215.585 171.613 215.081 172.753 214.226 173.673C213.2 174.78 211.817 175.334 210.077 175.334C208.577 175.334 207.317 174.88 206.298 173.972C204.956 172.771 204.285 170.916 204.285 168.408C204.285 166.504 204.789 164.942 205.797 163.724C206.887 162.399 208.39 161.737 210.306 161.737ZM221.397 173.98C222.446 173.98 223.164 173.585 223.551 172.794C223.943 171.997 224.14 171.112 224.14 170.14C224.14 169.261 223.999 168.546 223.718 167.995C223.272 167.128 222.505 166.694 221.415 166.694C220.448 166.694 219.745 167.063 219.306 167.802C218.866 168.54 218.646 169.431 218.646 170.474C218.646 171.476 218.866 172.311 219.306 172.979C219.745 173.646 220.442 173.98 221.397 173.98ZM221.459 165.314C222.672 165.314 223.697 165.719 224.535 166.527C225.373 167.336 225.792 168.525 225.792 170.096C225.792 171.613 225.423 172.867 224.685 173.857C223.946 174.848 222.801 175.343 221.248 175.343C219.953 175.343 218.925 174.906 218.163 174.033C217.401 173.154 217.021 171.977 217.021 170.5C217.021 168.918 217.422 167.658 218.225 166.721C219.027 165.783 220.105 165.314 221.459 165.314Z" fill="white"/>
<path d="M2.875 166.625V175.969C2.875 176.159 2.95073 176.342 3.08552 176.477C3.22031 176.612 3.40313 176.688 3.59375 176.688H19.4062C19.5969 176.688 19.7797 176.612 19.9145 176.477C20.0493 176.342 20.125 176.159 20.125 175.969V166.625L11.5 160.875L2.875 166.625Z" stroke="white" stroke-width="1.5" stroke-linecap="round" stroke-linejoin="round"/>
<path d="M20.125 166.625L13.0682 171.656H9.93178L2.875 166.625" stroke="white" stroke-width="1.5" stroke-linecap="round" stroke-linejoin="round"/>
<path d="M35.8691 115.414C37.498 115.414 38.6758 116.085 39.4023 117.427C39.9648 118.464 40.2461 119.885 40.2461 121.689C40.2461 123.4 39.9912 124.815 39.4814 125.935C38.7432 127.54 37.5361 128.343 35.8604 128.343C34.3486 128.343 33.2236 127.687 32.4854 126.374C31.8701 125.278 31.5625 123.808 31.5625 121.962C31.5625 120.532 31.7471 119.305 32.1162 118.279C32.8076 116.369 34.0586 115.414 35.8691 115.414ZM35.8516 126.901C36.6719 126.901 37.3252 126.538 37.8115 125.812C38.2979 125.085 38.541 123.731 38.541 121.751C38.541 120.321 38.3652 119.146 38.0137 118.227C37.6621 117.301 36.9795 116.838 35.9658 116.838C35.0342 116.838 34.3516 117.277 33.918 118.156C33.4902 119.029 33.2764 120.318 33.2764 122.023C33.2764 123.307 33.4141 124.338 33.6895 125.117C34.1113 126.307 34.832 126.901 35.8516 126.901ZM45.8887 115.414C47.5176 115.414 48.6953 116.085 49.4219 117.427C49.9844 118.464 50.2656 119.885 50.2656 121.689C50.2656 123.4 50.0107 124.815 49.501 125.935C48.7627 127.54 47.5557 128.343 45.8799 128.343C44.3682 128.343 43.2432 127.687 42.5049 126.374C41.8896 125.278 41.582 123.808 41.582 121.962C41.582 120.532 41.7666 119.305 42.1357 118.279C42.8271 116.369 44.0781 115.414 45.8887 115.414ZM45.8711 126.901C46.6914 126.901 47.3447 126.538 47.8311 125.812C48.3174 125.085 48.5605 123.731 48.5605 121.751C48.5605 120.321 48.3848 119.146 48.0332 118.227C47.6816 117.301 46.999 116.838 45.9854 116.838C45.0537 116.838 44.3711 117.277 43.9375 118.156C43.5098 119.029 43.2959 120.318 43.2959 122.023C43.2959 123.307 43.4336 124.338 43.709 125.117C44.1309 126.307 44.8516 126.901 45.8711 126.901ZM53.4297 124.959C53.4766 125.832 53.8135 126.436 54.4404 126.77C54.7627 126.945 55.126 127.033 55.5303 127.033C56.2861 127.033 56.9307 126.72 57.4639 126.093C57.9971 125.46 58.375 124.18 58.5977 122.252C58.2461 122.809 57.8096 123.201 57.2881 123.43C56.7725 123.652 56.2158 123.764 55.6182 123.764C54.4053 123.764 53.4443 123.386 52.7354 122.63C52.0322 121.874 51.6807 120.901 51.6807 119.712C51.6807 118.569 52.0293 117.564 52.7266 116.697C53.4238 115.83 54.4521 115.396 55.8115 115.396C57.6455 115.396 58.9111 116.223 59.6084 117.875C59.9951 118.783 60.1885 119.92 60.1885 121.285C60.1885 122.826 59.957 124.191 59.4941 125.381C58.7266 127.361 57.4258 128.352 55.5918 128.352C54.3613 128.352 53.4268 128.029 52.7881 127.385C52.1494 126.74 51.8301 125.932 51.8301 124.959H53.4297ZM55.8291 122.375C56.4561 122.375 57.0273 122.17 57.543 121.76C58.0645 121.344 58.3252 120.62 58.3252 119.589C58.3252 118.663 58.0908 117.975 57.6221 117.523C57.1592 117.066 56.5674 116.838 55.8467 116.838C55.0732 116.838 54.458 117.099 54.001 117.62C53.5498 118.136 53.3242 118.827 53.3242 119.694C53.3242 120.515 53.5234 121.168 53.9219 121.654C54.3203 122.135 54.9561 122.375 55.8291 122.375ZM66.3232 115.361C67.7295 115.361 68.708 115.728 69.2588 116.46C69.8154 117.187 70.0938 117.937 70.0938 118.71H68.5293C68.4355 118.212 68.2861 117.822 68.0811 117.541C67.7002 117.014 67.123 116.75 66.3496 116.75C65.4648 116.75 64.7617 117.16 64.2402 117.98C63.7188 118.795 63.4287 119.964 63.3701 121.487C63.7334 120.954 64.1904 120.556 64.7412 120.292C65.2451 120.058 65.8076 119.94 66.4287 119.94C67.4834 119.94 68.4033 120.277 69.1885 120.951C69.9736 121.625 70.3662 122.63 70.3662 123.966C70.3662 125.108 69.9941 126.122 69.25 127.007C68.5059 127.886 67.4453 128.325 66.0684 128.325C64.8906 128.325 63.874 127.88 63.0186 126.989C62.1631 126.093 61.7354 124.587 61.7354 122.472C61.7354 120.907 61.9258 119.58 62.3066 118.49C63.0391 116.404 64.3779 115.361 66.3232 115.361ZM66.209 126.919C67.041 126.919 67.6621 126.641 68.0723 126.084C68.4883 125.521 68.6963 124.859 68.6963 124.098C68.6963 123.453 68.5117 122.841 68.1426 122.261C67.7734 121.675 67.1025 121.382 66.1299 121.382C65.4502 121.382 64.8525 121.607 64.3369 122.059C63.8271 122.51 63.5723 123.189 63.5723 124.098C63.5723 124.895 63.8037 125.565 64.2666 126.11C64.7354 126.649 65.3828 126.919 66.209 126.919ZM73.3018 124.792C73.4072 125.694 73.8262 126.318 74.5586 126.664C74.9336 126.84 75.3672 126.928 75.8594 126.928C76.7969 126.928 77.4912 126.629 77.9424 126.031C78.3936 125.434 78.6191 124.771 78.6191 124.045C78.6191 123.166 78.3496 122.486 77.8105 122.006C77.2773 121.525 76.6357 121.285 75.8857 121.285C75.3408 121.285 74.8721 121.391 74.4795 121.602C74.0928 121.812 73.7617 122.105 73.4863 122.48L72.1152 122.401L73.0732 115.625H79.6123V117.154H74.2598L73.7236 120.652C74.0166 120.43 74.2949 120.263 74.5586 120.151C75.0273 119.958 75.5693 119.861 76.1846 119.861C77.3389 119.861 78.3174 120.233 79.1201 120.978C79.9229 121.722 80.3242 122.665 80.3242 123.808C80.3242 124.997 79.9551 126.046 79.2168 126.954C78.4844 127.862 77.3125 128.316 75.7012 128.316C74.6758 128.316 73.7676 128.029 72.9766 127.455C72.1914 126.875 71.752 125.987 71.6582 124.792H73.3018ZM86.8545 122.173H91.2666V123.799H86.8545V122.173ZM99.502 124.959C99.5488 125.832 99.8857 126.436 100.513 126.77C100.835 126.945 101.198 127.033 101.603 127.033C102.358 127.033 103.003 126.72 103.536 126.093C104.069 125.46 104.447 124.18 104.67 122.252C104.318 122.809 103.882 123.201 103.36 123.43C102.845 123.652 102.288 123.764 101.69 123.764C100.478 123.764 99.5166 123.386 98.8076 122.63C98.1045 121.874 97.7529 120.901 97.7529 119.712C97.7529 118.569 98.1016 117.564 98.7988 116.697C99.4961 115.83 100.524 115.396 101.884 115.396C103.718 115.396 104.983 116.223 105.681 117.875C106.067 118.783 106.261 119.92 106.261 121.285C106.261 122.826 106.029 124.191 105.566 125.381C104.799 127.361 103.498 128.352 101.664 128.352C100.434 128.352 99.499 128.029 98.8604 127.385C98.2217 126.74 97.9023 125.932 97.9023 124.959H99.502ZM101.901 122.375C102.528 122.375 103.1 122.17 103.615 121.76C104.137 121.344 104.397 120.62 104.397 119.589C104.397 118.663 104.163 117.975 103.694 117.523C103.231 117.066 102.64 116.838 101.919 116.838C101.146 116.838 100.53 117.099 100.073 117.62C99.6221 118.136 99.3965 118.827 99.3965 119.694C99.3965 120.515 99.5957 121.168 99.9941 121.654C100.393 122.135 101.028 122.375 101.901 122.375ZM112.396 115.361C113.802 115.361 114.78 115.728 115.331 116.46C115.888 117.187 116.166 117.937 116.166 118.71H114.602C114.508 118.212 114.358 117.822 114.153 117.541C113.772 117.014 113.195 116.75 112.422 116.75C111.537 116.75 110.834 117.16 110.312 117.98C109.791 118.795 109.501 119.964 109.442 121.487C109.806 120.954 110.263 120.556 110.813 120.292C111.317 120.058 111.88 119.94 112.501 119.94C113.556 119.94 114.476 120.277 115.261 120.951C116.046 121.625 116.438 122.63 116.438 123.966C116.438 125.108 116.066 126.122 115.322 127.007C114.578 127.886 113.518 128.325 112.141 128.325C110.963 128.325 109.946 127.88 109.091 126.989C108.235 126.093 107.808 124.587 107.808 122.472C107.808 120.907 107.998 119.58 108.379 118.49C109.111 116.404 110.45 115.361 112.396 115.361ZM112.281 126.919C113.113 126.919 113.734 126.641 114.145 126.084C114.561 125.521 114.769 124.859 114.769 124.098C114.769 123.453 114.584 122.841 114.215 122.261C113.846 121.675 113.175 121.382 112.202 121.382C111.522 121.382 110.925 121.607 110.409 122.059C109.899 122.51 109.645 123.189 109.645 124.098C109.645 124.895 109.876 125.565 110.339 126.11C110.808 126.649 111.455 126.919 112.281 126.919ZM122.415 115.361C123.821 115.361 124.8 115.728 125.351 116.46C125.907 117.187 126.186 117.937 126.186 118.71H124.621C124.527 118.212 124.378 117.822 124.173 117.541C123.792 117.014 123.215 116.75 122.441 116.75C121.557 116.75 120.854 117.16 120.332 117.98C119.811 118.795 119.521 119.964 119.462 121.487C119.825 120.954 120.282 120.556 120.833 120.292C121.337 120.058 121.899 119.94 122.521 119.94C123.575 119.94 124.495 120.277 125.28 120.951C126.065 121.625 126.458 122.63 126.458 123.966C126.458 125.108 126.086 126.122 125.342 127.007C124.598 127.886 123.537 128.325 122.16 128.325C120.982 128.325 119.966 127.88 119.11 126.989C118.255 126.093 117.827 124.587 117.827 122.472C117.827 120.907 118.018 119.58 118.398 118.49C119.131 116.404 120.47 115.361 122.415 115.361ZM122.301 126.919C123.133 126.919 123.754 126.641 124.164 126.084C124.58 125.521 124.788 124.859 124.788 124.098C124.788 123.453 124.604 122.841 124.234 122.261C123.865 121.675 123.194 121.382 122.222 121.382C121.542 121.382 120.944 121.607 120.429 122.059C119.919 122.51 119.664 123.189 119.664 124.098C119.664 124.895 119.896 125.565 120.358 126.11C120.827 126.649 121.475 126.919 122.301 126.919ZM129.394 124.792C129.499 125.694 129.918 126.318 130.65 126.664C131.025 126.84 131.459 126.928 131.951 126.928C132.889 126.928 133.583 126.629 134.034 126.031C134.485 125.434 134.711 124.771 134.711 124.045C134.711 123.166 134.441 122.486 133.902 122.006C133.369 121.525 132.728 121.285 131.978 121.285C131.433 121.285 130.964 121.391 130.571 121.602C130.185 121.812 129.854 122.105 129.578 122.48L128.207 122.401L129.165 115.625H135.704V117.154H130.352L129.815 120.652C130.108 120.43 130.387 120.263 130.65 120.151C131.119 119.958 131.661 119.861 132.276 119.861C133.431 119.861 134.409 120.233 135.212 120.978C136.015 121.722 136.416 122.665 136.416 123.808C136.416 124.997 136.047 126.046 135.309 126.954C134.576 127.862 133.404 128.316 131.793 128.316C130.768 128.316 129.859 128.029 129.068 127.455C128.283 126.875 127.844 125.987 127.75 124.792H129.394ZM139.58 124.959C139.627 125.832 139.964 126.436 140.591 126.77C140.913 126.945 141.276 127.033 141.681 127.033C142.437 127.033 143.081 126.72 143.614 126.093C144.147 125.46 144.525 124.18 144.748 122.252C144.396 122.809 143.96 123.201 143.438 123.43C142.923 123.652 142.366 123.764 141.769 123.764C140.556 123.764 139.595 123.386 138.886 122.63C138.183 121.874 137.831 120.901 137.831 119.712C137.831 118.569 138.18 117.564 138.877 116.697C139.574 115.83 140.603 115.396 141.962 115.396C143.796 115.396 145.062 116.223 145.759 117.875C146.146 118.783 146.339 119.92 146.339 121.285C146.339 122.826 146.107 124.191 145.645 125.381C144.877 127.361 143.576 128.352 141.742 128.352C140.512 128.352 139.577 128.029 138.938 127.385C138.3 126.74 137.98 125.932 137.98 124.959H139.58ZM141.979 122.375C142.606 122.375 143.178 122.17 143.693 121.76C144.215 121.344 144.476 120.62 144.476 119.589C144.476 118.663 144.241 117.975 143.772 117.523C143.31 117.066 142.718 116.838 141.997 116.838C141.224 116.838 140.608 117.099 140.151 117.62C139.7 118.136 139.475 118.827 139.475 119.694C139.475 120.515 139.674 121.168 140.072 121.654C140.471 122.135 141.106 122.375 141.979 122.375ZM149.6 124.959C149.646 125.832 149.983 126.436 150.61 126.77C150.933 126.945 151.296 127.033 151.7 127.033C152.456 127.033 153.101 126.72 153.634 126.093C154.167 125.46 154.545 124.18 154.768 122.252C154.416 122.809 153.979 123.201 153.458 123.43C152.942 123.652 152.386 123.764 151.788 123.764C150.575 123.764 149.614 123.386 148.905 122.63C148.202 121.874 147.851 120.901 147.851 119.712C147.851 118.569 148.199 117.564 148.896 116.697C149.594 115.83 150.622 115.396 151.981 115.396C153.815 115.396 155.081 116.223 155.778 117.875C156.165 118.783 156.358 119.92 156.358 121.285C156.358 122.826 156.127 124.191 155.664 125.381C154.896 127.361 153.596 128.352 151.762 128.352C150.531 128.352 149.597 128.029 148.958 127.385C148.319 126.74 148 125.932 148 124.959H149.6ZM151.999 122.375C152.626 122.375 153.197 122.17 153.713 121.76C154.234 121.344 154.495 120.62 154.495 119.589C154.495 118.663 154.261 117.975 153.792 117.523C153.329 117.066 152.737 116.838 152.017 116.838C151.243 116.838 150.628 117.099 150.171 117.62C149.72 118.136 149.494 118.827 149.494 119.694C149.494 120.515 149.693 121.168 150.092 121.654C150.49 122.135 151.126 122.375 151.999 122.375ZM162.124 120.688C162.821 120.688 163.366 120.494 163.759 120.107C164.151 119.715 164.348 119.249 164.348 118.71C164.348 118.241 164.16 117.811 163.785 117.418C163.41 117.025 162.839 116.829 162.071 116.829C161.31 116.829 160.759 117.025 160.419 117.418C160.079 117.811 159.909 118.271 159.909 118.798C159.909 119.39 160.129 119.853 160.568 120.187C161.008 120.521 161.526 120.688 162.124 120.688ZM162.221 126.919C162.953 126.919 163.56 126.723 164.04 126.33C164.526 125.932 164.77 125.34 164.77 124.555C164.77 123.74 164.521 123.122 164.022 122.7C163.524 122.278 162.886 122.067 162.106 122.067C161.351 122.067 160.732 122.284 160.252 122.718C159.777 123.146 159.54 123.74 159.54 124.502C159.54 125.158 159.757 125.727 160.19 126.207C160.63 126.682 161.307 126.919 162.221 126.919ZM159.971 121.294C159.531 121.106 159.188 120.887 158.942 120.635C158.479 120.166 158.248 119.557 158.248 118.807C158.248 117.869 158.588 117.063 159.268 116.39C159.947 115.716 160.911 115.379 162.159 115.379C163.366 115.379 164.312 115.698 164.998 116.337C165.684 116.97 166.026 117.711 166.026 118.561C166.026 119.346 165.827 119.981 165.429 120.468C165.206 120.743 164.86 121.013 164.392 121.276C164.913 121.517 165.323 121.792 165.622 122.103C166.179 122.688 166.457 123.45 166.457 124.388C166.457 125.495 166.085 126.436 165.341 127.209C164.597 127.977 163.545 128.36 162.186 128.36C160.961 128.36 159.924 128.029 159.074 127.367C158.23 126.699 157.809 125.732 157.809 124.467C157.809 123.723 157.99 123.081 158.354 122.542C158.717 121.997 159.256 121.581 159.971 121.294ZM172.513 115.361C173.919 115.361 174.897 115.728 175.448 116.46C176.005 117.187 176.283 117.937 176.283 118.71H174.719C174.625 118.212 174.476 117.822 174.271 117.541C173.89 117.014 173.312 116.75 172.539 116.75C171.654 116.75 170.951 117.16 170.43 117.98C169.908 118.795 169.618 119.964 169.56 121.487C169.923 120.954 170.38 120.556 170.931 120.292C171.435 120.058 171.997 119.94 172.618 119.94C173.673 119.94 174.593 120.277 175.378 120.951C176.163 121.625 176.556 122.63 176.556 123.966C176.556 125.108 176.184 126.122 175.439 127.007C174.695 127.886 173.635 128.325 172.258 128.325C171.08 128.325 170.063 127.88 169.208 126.989C168.353 126.093 167.925 124.587 167.925 122.472C167.925 120.907 168.115 119.58 168.496 118.49C169.229 116.404 170.567 115.361 172.513 115.361ZM172.398 126.919C173.23 126.919 173.852 126.641 174.262 126.084C174.678 125.521 174.886 124.859 174.886 124.098C174.886 123.453 174.701 122.841 174.332 122.261C173.963 121.675 173.292 121.382 172.319 121.382C171.64 121.382 171.042 121.607 170.526 122.059C170.017 122.51 169.762 123.189 169.762 124.098C169.762 124.895 169.993 125.565 170.456 126.11C170.925 126.649 171.572 126.919 172.398 126.919Z" fill="white"/>
<path d="M8.30842 122.214C9.05397 123.738 10.2895 124.968 11.8171 125.707C11.9289 125.76 12.0525 125.783 12.1758 125.773C12.2992 125.764 12.4179 125.723 12.5205 125.653L14.7698 124.154C14.8693 124.087 14.9837 124.047 15.1028 124.036C15.2218 124.025 15.3418 124.044 15.4517 124.091L19.6597 125.894C19.8026 125.955 19.922 126.061 19.9997 126.195C20.0775 126.329 20.1094 126.486 20.0908 126.64C19.9578 127.68 19.45 128.637 18.6625 129.33C17.8749 130.024 16.8617 130.406 15.8125 130.406C12.5719 130.406 9.464 129.119 7.17254 126.827C4.88108 124.536 3.59375 121.428 3.59375 118.188C3.59381 117.138 3.9763 116.125 4.66961 115.338C5.36293 114.55 6.31951 114.042 7.36027 113.909C7.51445 113.891 7.67053 113.923 7.80497 114C7.93942 114.078 8.04495 114.197 8.10567 114.34L9.91068 118.552C9.95737 118.661 9.97639 118.78 9.96606 118.898C9.95572 119.016 9.91635 119.13 9.85145 119.229L8.35677 121.513C8.28874 121.615 8.24853 121.734 8.24005 121.857C8.23158 121.98 8.25513 122.103 8.30842 122.214V122.214Z" stroke="white" stroke-width="1.5" stroke-linecap="round" stroke-linejoin="round"/>
<path d="M33.5137 220.834C33.5547 221.566 33.7275 222.161 34.0322 222.618C34.6123 223.474 35.6348 223.901 37.0996 223.901C37.7559 223.901 38.3535 223.808 38.8926 223.62C39.9355 223.257 40.457 222.606 40.457 221.669C40.457 220.966 40.2373 220.465 39.7979 220.166C39.3525 219.873 38.6553 219.618 37.7061 219.401L35.957 219.006C34.8145 218.748 34.0059 218.464 33.5312 218.153C32.7109 217.614 32.3008 216.809 32.3008 215.736C32.3008 214.576 32.7021 213.624 33.5049 212.88C34.3076 212.136 35.4443 211.764 36.915 211.764C38.2686 211.764 39.417 212.092 40.3604 212.748C41.3096 213.398 41.7842 214.441 41.7842 215.877H40.1406C40.0527 215.186 39.8652 214.655 39.5781 214.286C39.0449 213.612 38.1396 213.275 36.8623 213.275C35.8311 213.275 35.0898 213.492 34.6387 213.926C34.1875 214.359 33.9619 214.863 33.9619 215.438C33.9619 216.07 34.2256 216.533 34.7529 216.826C35.0986 217.014 35.8809 217.248 37.0996 217.529L38.9102 217.942C39.7832 218.142 40.457 218.414 40.9316 218.76C41.752 219.363 42.1621 220.239 42.1621 221.388C42.1621 222.817 41.6406 223.84 40.5977 224.455C39.5605 225.07 38.3535 225.378 36.9766 225.378C35.3711 225.378 34.1143 224.968 33.2061 224.147C32.2979 223.333 31.8525 222.229 31.8701 220.834H33.5137ZM45.748 215.587V221.836C45.748 222.316 45.8242 222.709 45.9766 223.014C46.2578 223.576 46.7822 223.857 47.5498 223.857C48.6514 223.857 49.4014 223.365 49.7998 222.381C50.0166 221.854 50.125 221.13 50.125 220.21V215.587H51.707V225H50.2129L50.2305 223.611C50.0254 223.969 49.7705 224.271 49.4658 224.517C48.8623 225.009 48.1299 225.255 47.2686 225.255C45.9268 225.255 45.0127 224.807 44.5264 223.91C44.2627 223.43 44.1309 222.788 44.1309 221.985V215.587H45.748ZM54.1855 215.587H55.6885V216.923C56.1338 216.372 56.6055 215.977 57.1035 215.736C57.6016 215.496 58.1553 215.376 58.7646 215.376C60.1006 215.376 61.0029 215.842 61.4717 216.773C61.7295 217.283 61.8584 218.013 61.8584 218.962V225H60.25V219.067C60.25 218.493 60.165 218.03 59.9951 217.679C59.7139 217.093 59.2041 216.8 58.4658 216.8C58.0908 216.8 57.7832 216.838 57.543 216.914C57.1094 217.043 56.7285 217.301 56.4004 217.688C56.1367 217.998 55.9639 218.32 55.8818 218.654C55.8057 218.982 55.7676 219.454 55.7676 220.069V225H54.1855V215.587ZM68.8018 219.173H73.2139V220.799H68.8018V219.173ZM81.5723 220.834C81.6133 221.566 81.7861 222.161 82.0908 222.618C82.6709 223.474 83.6934 223.901 85.1582 223.901C85.8145 223.901 86.4121 223.808 86.9512 223.62C87.9941 223.257 88.5156 222.606 88.5156 221.669C88.5156 220.966 88.2959 220.465 87.8564 220.166C87.4111 219.873 86.7139 219.618 85.7646 219.401L84.0156 219.006C82.873 218.748 82.0645 218.464 81.5898 218.153C80.7695 217.614 80.3594 216.809 80.3594 215.736C80.3594 214.576 80.7607 213.624 81.5635 212.88C82.3662 212.136 83.5029 211.764 84.9736 211.764C86.3271 211.764 87.4756 212.092 88.4189 212.748C89.3682 213.398 89.8428 214.441 89.8428 215.877H88.1992C88.1113 215.186 87.9238 214.655 87.6367 214.286C87.1035 213.612 86.1982 213.275 84.9209 213.275C83.8896 213.275 83.1484 213.492 82.6973 213.926C82.2461 214.359 82.0205 214.863 82.0205 215.438C82.0205 216.07 82.2842 216.533 82.8115 216.826C83.1572 217.014 83.9395 217.248 85.1582 217.529L86.9688 217.942C87.8418 218.142 88.5156 218.414 88.9902 218.76C89.8105 219.363 90.2207 220.239 90.2207 221.388C90.2207 222.817 89.6992 223.84 88.6562 224.455C87.6191 225.07 86.4121 225.378 85.0352 225.378C83.4297 225.378 82.1729 224.968 81.2646 224.147C80.3564 223.333 79.9111 222.229 79.9287 220.834H81.5723ZM93.4375 222.495C93.4375 222.952 93.6045 223.312 93.9385 223.576C94.2725 223.84 94.668 223.972 95.125 223.972C95.6816 223.972 96.2207 223.843 96.7422 223.585C97.6211 223.157 98.0605 222.457 98.0605 221.484V220.21C97.8672 220.333 97.6182 220.436 97.3135 220.518C97.0088 220.6 96.71 220.658 96.417 220.693L95.459 220.816C94.8848 220.893 94.4541 221.013 94.167 221.177C93.6807 221.452 93.4375 221.892 93.4375 222.495ZM97.2695 219.296C97.6328 219.249 97.876 219.097 97.999 218.839C98.0693 218.698 98.1045 218.496 98.1045 218.232C98.1045 217.693 97.9111 217.304 97.5244 217.063C97.1436 216.817 96.5957 216.694 95.8809 216.694C95.0547 216.694 94.4688 216.917 94.123 217.362C93.9297 217.608 93.8037 217.975 93.7451 218.461H92.2686C92.2979 217.301 92.6729 216.495 93.3936 216.044C94.1201 215.587 94.9609 215.358 95.916 215.358C97.0234 215.358 97.9229 215.569 98.6143 215.991C99.2998 216.413 99.6426 217.069 99.6426 217.96V223.383C99.6426 223.547 99.6748 223.679 99.7393 223.778C99.8096 223.878 99.9531 223.928 100.17 223.928C100.24 223.928 100.319 223.925 100.407 223.919C100.495 223.907 100.589 223.893 100.688 223.875V225.044C100.442 225.114 100.255 225.158 100.126 225.176C99.9971 225.193 99.8213 225.202 99.5986 225.202C99.0537 225.202 98.6582 225.009 98.4121 224.622C98.2832 224.417 98.1924 224.127 98.1396 223.752C97.8174 224.174 97.3545 224.54 96.751 224.851C96.1475 225.161 95.4824 225.316 94.7559 225.316C93.8828 225.316 93.168 225.053 92.6113 224.525C92.0605 223.992 91.7852 223.327 91.7852 222.53C91.7852 221.657 92.0576 220.98 92.6025 220.5C93.1475 220.02 93.8623 219.724 94.7471 219.612L97.2695 219.296ZM102.561 212.959H104.16V215.587H105.663V216.879H104.16V223.022C104.16 223.351 104.271 223.57 104.494 223.682C104.617 223.746 104.822 223.778 105.109 223.778C105.186 223.778 105.268 223.778 105.355 223.778C105.443 223.772 105.546 223.764 105.663 223.752V225C105.481 225.053 105.291 225.091 105.092 225.114C104.898 225.138 104.688 225.149 104.459 225.149C103.721 225.149 103.22 224.962 102.956 224.587C102.692 224.206 102.561 223.714 102.561 223.11V216.879H101.286V215.587H102.561V212.959ZM115.199 212.089H116.535L112.439 225H111.104L115.199 212.089ZM122.846 216.088V214.875C123.988 214.764 124.785 214.579 125.236 214.321C125.688 214.058 126.024 213.439 126.247 212.467H127.495V225H125.808V216.088H122.846ZM136.012 212.414C137.641 212.414 138.818 213.085 139.545 214.427C140.107 215.464 140.389 216.885 140.389 218.689C140.389 220.4 140.134 221.815 139.624 222.935C138.886 224.54 137.679 225.343 136.003 225.343C134.491 225.343 133.366 224.687 132.628 223.374C132.013 222.278 131.705 220.808 131.705 218.962C131.705 217.532 131.89 216.305 132.259 215.279C132.95 213.369 134.201 212.414 136.012 212.414ZM135.994 223.901C136.814 223.901 137.468 223.538 137.954 222.812C138.44 222.085 138.684 220.731 138.684 218.751C138.684 217.321 138.508 216.146 138.156 215.227C137.805 214.301 137.122 213.838 136.108 213.838C135.177 213.838 134.494 214.277 134.061 215.156C133.633 216.029 133.419 217.318 133.419 219.023C133.419 220.307 133.557 221.338 133.832 222.117C134.254 223.307 134.975 223.901 135.994 223.901ZM143.157 215.71H144.994V217.626H143.157V215.71ZM143.157 223.084H144.994V225H143.157V223.084ZM151.041 212.414C152.67 212.414 153.848 213.085 154.574 214.427C155.137 215.464 155.418 216.885 155.418 218.689C155.418 220.4 155.163 221.815 154.653 222.935C153.915 224.54 152.708 225.343 151.032 225.343C149.521 225.343 148.396 224.687 147.657 223.374C147.042 222.278 146.734 220.808 146.734 218.962C146.734 217.532 146.919 216.305 147.288 215.279C147.979 213.369 149.23 212.414 151.041 212.414ZM151.023 223.901C151.844 223.901 152.497 223.538 152.983 222.812C153.47 222.085 153.713 220.731 153.713 218.751C153.713 217.321 153.537 216.146 153.186 215.227C152.834 214.301 152.151 213.838 151.138 213.838C150.206 213.838 149.523 214.277 149.09 215.156C148.662 216.029 148.448 217.318 148.448 219.023C148.448 220.307 148.586 221.338 148.861 222.117C149.283 223.307 150.004 223.901 151.023 223.901ZM161.061 212.414C162.689 212.414 163.867 213.085 164.594 214.427C165.156 215.464 165.438 216.885 165.438 218.689C165.438 220.4 165.183 221.815 164.673 222.935C163.935 224.54 162.728 225.343 161.052 225.343C159.54 225.343 158.415 224.687 157.677 223.374C157.062 222.278 156.754 220.808 156.754 218.962C156.754 217.532 156.938 216.305 157.308 215.279C157.999 213.369 159.25 212.414 161.061 212.414ZM161.043 223.901C161.863 223.901 162.517 223.538 163.003 222.812C163.489 222.085 163.732 220.731 163.732 218.751C163.732 217.321 163.557 216.146 163.205 215.227C162.854 214.301 162.171 213.838 161.157 213.838C160.226 213.838 159.543 214.277 159.109 215.156C158.682 216.029 158.468 217.318 158.468 219.023C158.468 220.307 158.605 221.338 158.881 222.117C159.303 223.307 160.023 223.901 161.043 223.901ZM178.234 219.709L176.274 214.005L174.191 219.709H178.234ZM175.36 212.089H177.338L182.022 225H180.106L178.797 221.133H173.69L172.293 225H170.5L175.36 212.089ZM183.569 212.089H186.074L189.783 223.005L193.466 212.089H195.944V225H194.283V217.38C194.283 217.116 194.289 216.68 194.301 216.07C194.312 215.461 194.318 214.808 194.318 214.11L190.636 225H188.904L185.195 214.11V214.506C185.195 214.822 185.201 215.306 185.213 215.956C185.23 216.601 185.239 217.075 185.239 217.38V225H183.569V212.089ZM202.993 219.173H207.405V220.799H202.993V219.173ZM218.146 217.688C218.843 217.688 219.388 217.494 219.78 217.107C220.173 216.715 220.369 216.249 220.369 215.71C220.369 215.241 220.182 214.811 219.807 214.418C219.432 214.025 218.86 213.829 218.093 213.829C217.331 213.829 216.78 214.025 216.44 214.418C216.101 214.811 215.931 215.271 215.931 215.798C215.931 216.39 216.15 216.853 216.59 217.187C217.029 217.521 217.548 217.688 218.146 217.688ZM218.242 223.919C218.975 223.919 219.581 223.723 220.062 223.33C220.548 222.932 220.791 222.34 220.791 221.555C220.791 220.74 220.542 220.122 220.044 219.7C219.546 219.278 218.907 219.067 218.128 219.067C217.372 219.067 216.754 219.284 216.273 219.718C215.799 220.146 215.562 220.74 215.562 221.502C215.562 222.158 215.778 222.727 216.212 223.207C216.651 223.682 217.328 223.919 218.242 223.919ZM215.992 218.294C215.553 218.106 215.21 217.887 214.964 217.635C214.501 217.166 214.27 216.557 214.27 215.807C214.27 214.869 214.609 214.063 215.289 213.39C215.969 212.716 216.933 212.379 218.181 212.379C219.388 212.379 220.334 212.698 221.02 213.337C221.705 213.97 222.048 214.711 222.048 215.561C222.048 216.346 221.849 216.981 221.45 217.468C221.228 217.743 220.882 218.013 220.413 218.276C220.935 218.517 221.345 218.792 221.644 219.103C222.2 219.688 222.479 220.45 222.479 221.388C222.479 222.495 222.106 223.436 221.362 224.209C220.618 224.977 219.566 225.36 218.207 225.36C216.982 225.36 215.945 225.029 215.096 224.367C214.252 223.699 213.83 222.732 213.83 221.467C213.83 220.723 214.012 220.081 214.375 219.542C214.738 218.997 215.277 218.581 215.992 218.294ZM225.265 215.71H227.102V217.626H225.265V215.71ZM225.265 223.084H227.102V225H225.265V223.084ZM233.148 212.414C234.777 212.414 235.955 213.085 236.682 214.427C237.244 215.464 237.525 216.885 237.525 218.689C237.525 220.4 237.271 221.815 236.761 222.935C236.022 224.54 234.815 225.343 233.14 225.343C231.628 225.343 230.503 224.687 229.765 223.374C229.149 222.278 228.842 220.808 228.842 218.962C228.842 217.532 229.026 216.305 229.396 215.279C230.087 213.369 231.338 212.414 233.148 212.414ZM233.131 223.901C233.951 223.901 234.604 223.538 235.091 222.812C235.577 222.085 235.82 220.731 235.82 218.751C235.82 217.321 235.645 216.146 235.293 215.227C234.941 214.301 234.259 213.838 233.245 213.838C232.313 213.838 231.631 214.277 231.197 215.156C230.77 216.029 230.556 217.318 230.556 219.023C230.556 220.307 230.693 221.338 230.969 222.117C231.391 223.307 232.111 223.901 233.131 223.901ZM243.168 212.414C244.797 212.414 245.975 213.085 246.701 214.427C247.264 215.464 247.545 216.885 247.545 218.689C247.545 220.4 247.29 221.815 246.78 222.935C246.042 224.54 244.835 225.343 243.159 225.343C241.647 225.343 240.522 224.687 239.784 223.374C239.169 222.278 238.861 220.808 238.861 218.962C238.861 217.532 239.046 216.305 239.415 215.279C240.106 213.369 241.357 212.414 243.168 212.414ZM243.15 223.901C243.971 223.901 244.624 223.538 245.11 222.812C245.597 222.085 245.84 220.731 245.84 218.751C245.84 217.321 245.664 216.146 245.312 215.227C244.961 214.301 244.278 213.838 243.265 213.838C242.333 213.838 241.65 214.277 241.217 215.156C240.789 216.029 240.575 217.318 240.575 219.023C240.575 220.307 240.713 221.338 240.988 222.117C241.41 223.307 242.131 223.901 243.15 223.901ZM254.866 212.089H260.676C261.824 212.089 262.75 212.414 263.453 213.064C264.156 213.709 264.508 214.617 264.508 215.789C264.508 216.797 264.194 217.676 263.567 218.426C262.94 219.17 261.977 219.542 260.676 219.542H256.615V225H254.866V212.089ZM262.741 215.798C262.741 214.849 262.39 214.204 261.687 213.864C261.3 213.683 260.77 213.592 260.096 213.592H256.615V218.065H260.096C260.881 218.065 261.517 217.898 262.003 217.564C262.495 217.23 262.741 216.642 262.741 215.798ZM266.661 212.089H269.166L272.875 223.005L276.558 212.089H279.036V225H277.375V217.38C277.375 217.116 277.381 216.68 277.393 216.07C277.404 215.461 277.41 214.808 277.41 214.11L273.728 225H271.996L268.287 214.11V214.506C268.287 214.822 268.293 215.306 268.305 215.956C268.322 216.601 268.331 217.075 268.331 217.38V225H266.661V212.089Z" fill="white"/>
<path d="M11.5 227.125C16.2635 227.125 20.125 223.263 20.125 218.5C20.125 213.737 16.2635 209.875 11.5 209.875C6.73654 209.875 2.875 213.737 2.875 218.5C2.875 223.263 6.73654 227.125 11.5 227.125Z" stroke="white" stroke-width="1.5" stroke-miterlimit="10"/>
<path d="M11.5 213.469V218.5H16.5312" stroke="white" stroke-width="1.5" stroke-linecap="round" stroke-linejoin="round"/>
</svg>
