<svg width="43" height="42" viewBox="0 0 43 42" fill="none" xmlns="http://www.w3.org/2000/svg">
<path d="M42.1308 13.2921C34.6539 11.7279 30.7089 13.4479 28.726 15.1278L28.6557 13.7214C28.6254 13.62 28.6432 13.4431 28.4177 13.2194C25.646 10.4954 24.0564 8.83374 23.6522 8.54909V5.78448C23.6522 5.04802 23.1957 4.39812 22.4979 3.97056V2.39899C22.4979 1.07623 21.0939 0 19.3682 0C17.6426 0 16.2386 1.07623 16.2386 2.39899V3.97056C15.5408 4.39812 15.0843 5.04802 15.0843 5.78448V8.54909C14.7281 8.79988 13.6518 9.94375 10.3187 13.2194C10.1208 13.4157 10.1123 13.6178 10.0813 13.721L10.0419 14.5071C7.17718 14.625 4.7246 15.4152 3.05952 16.8262C1.13491 18.466 0.475541 20.7167 1.26478 23.0508C1.31068 23.2037 1.24284 23.0379 5.95674 31.2882C4.85614 32.6613 4.59822 34.3613 5.34754 35.9271L7.06146 39.5079C7.77489 40.9985 9.64544 42 11.7172 42H27.0193C29.0911 42 30.9616 40.9985 31.675 39.5079L33.389 35.9271C34.3616 33.8947 33.6526 31.6299 31.5819 30.1576C30.4544 29.3557 29.7155 28.3206 29.4258 27.1851C31.0972 17.6826 41.7022 15.0807 42.1603 14.9737C42.6469 14.86 42.9774 14.5135 42.9702 14.1239C42.9629 13.7343 42.6213 13.395 42.1308 13.2921ZM27.084 27.3203H27.0808C27.0713 27.1106 26.9767 25.3057 27.084 27.3203ZM18.5216 2.39899C18.5216 2.04095 18.9012 1.75 19.3682 1.75C19.8353 1.75 20.2149 2.04095 20.2149 2.39899V3.453H18.5216V2.39899ZM17.3673 5.78448C17.3673 5.46405 17.7078 5.203 18.1259 5.203H20.6106C21.0287 5.203 21.3692 5.46405 21.3692 5.78448V8.30139H17.3673V5.78448ZM16.4002 10.0514H22.3363L25.1894 12.8798H13.547L16.4002 10.0514ZM11.7295 26.3974C11.9021 22.9583 12.1485 18.0505 12.3203 14.6298H26.4162C26.468 15.6212 26.8426 23.3436 27.0803 27.3203H11.5978C11.6635 27.0167 11.7138 26.7099 11.7295 26.3974V26.3974ZM3.46585 22.5791C3.46306 22.5701 3.46083 22.5629 3.46027 22.5607C2.88172 20.8552 3.35381 19.1915 4.75449 17.9986C5.96726 16.9709 7.79768 16.3659 9.95401 16.2582L9.44868 26.3299C9.38284 27.634 8.731 28.8502 7.60239 29.8066L3.46585 22.5791ZM31.2453 35.3247L29.5314 38.9055C29.1468 39.7095 28.1374 40.25 27.0193 40.25H11.7172C10.5991 40.25 9.5897 39.7095 9.20511 38.9055L7.49119 35.3247C7.33123 34.9908 7.24107 34.6474 7.21292 34.3049H31.5236C31.4954 34.6474 31.4053 34.9908 31.2453 35.3247V35.3247ZM30.0291 31.4402C30.4819 31.7622 30.8269 32.144 31.0789 32.5549H7.65778C7.90985 32.144 8.255 31.7622 8.70794 31.4402C9.66216 30.7616 10.4051 29.9556 10.9187 29.0703H27.8179C28.3316 29.9556 29.0746 30.7616 30.0291 31.4402ZM29.1953 21.6656C29.1469 17.6395 29.1577 18.3836 29.1518 17.8315C29.4996 17.0706 31.3501 13.9611 38.1417 14.4807C35.3988 15.6782 31.5976 17.902 29.1953 21.6656Z" fill="#BC9A6C"/>
</svg>
