<svg width="218" height="255" viewBox="0 0 218 255" fill="none" xmlns="http://www.w3.org/2000/svg">
<path d="M11.5547 237.223C11.5547 236.324 11.3164 235.684 10.8398 235.301C10.3711 234.918 9.71094 234.727 8.85938 234.727H5.49609V239.812H8.85938C9.71094 239.812 10.3711 239.605 10.8398 239.191C11.3164 238.777 11.5547 238.121 11.5547 237.223ZM15.1289 237.199C15.1289 239.238 14.6133 240.68 13.582 241.523C12.5508 242.367 11.0781 242.789 9.16406 242.789H5.49609V249H1.91016V231.727H9.43359C11.168 231.727 12.5508 232.172 13.582 233.062C14.6133 233.953 15.1289 235.332 15.1289 237.199ZM24.5039 235.922C24.5664 235.922 24.6172 235.926 24.6562 235.934C24.7031 235.934 24.8008 235.938 24.9492 235.945V239.367C24.7383 239.344 24.5508 239.328 24.3867 239.32C24.2227 239.312 24.0898 239.309 23.9883 239.309C22.6445 239.309 21.7422 239.746 21.2812 240.621C21.0234 241.113 20.8945 241.871 20.8945 242.895V249H17.5312V236.227H20.7188V238.453C21.2344 237.602 21.6836 237.02 22.0664 236.707C22.6914 236.184 23.5039 235.922 24.5039 235.922ZM32.6484 246.645C33.625 246.645 34.375 246.297 34.8984 245.602C35.4219 244.906 35.6836 243.918 35.6836 242.637C35.6836 241.355 35.4219 240.371 34.8984 239.684C34.375 238.988 33.625 238.641 32.6484 238.641C31.6719 238.641 30.918 238.988 30.3867 239.684C29.8633 240.371 29.6016 241.355 29.6016 242.637C29.6016 243.918 29.8633 244.906 30.3867 245.602C30.918 246.297 31.6719 246.645 32.6484 246.645ZM39.1875 242.637C39.1875 244.512 38.6484 246.117 37.5703 247.453C36.4922 248.781 34.8555 249.445 32.6602 249.445C30.4648 249.445 28.8281 248.781 27.75 247.453C26.6719 246.117 26.1328 244.512 26.1328 242.637C26.1328 240.793 26.6719 239.195 27.75 237.844C28.8281 236.492 30.4648 235.816 32.6602 235.816C34.8555 235.816 36.4922 236.492 37.5703 237.844C38.6484 239.195 39.1875 240.793 39.1875 242.637ZM46.3008 231.551C46.5117 231.551 46.7031 231.559 46.875 231.574C47.0469 231.582 47.2812 231.598 47.5781 231.621V234.34C47.3906 234.316 47.0742 234.301 46.6289 234.293C46.1914 234.277 45.8867 234.375 45.7148 234.586C45.5508 234.789 45.4688 235.016 45.4688 235.266C45.4688 235.516 45.4688 235.875 45.4688 236.344H47.6602V238.699H45.4688V249H42.1406V238.699H40.2773V236.344H42.1055V235.523C42.1055 234.156 42.3359 233.215 42.7969 232.699C43.2812 231.934 44.4492 231.551 46.3008 231.551ZM54.6211 238.641C53.8477 238.641 53.2461 238.883 52.8164 239.367C52.3945 239.852 52.1289 240.508 52.0195 241.336H57.2109C57.1562 240.453 56.8867 239.785 56.4023 239.332C55.9258 238.871 55.332 238.641 54.6211 238.641ZM54.6211 235.887C55.6836 235.887 56.6406 236.086 57.4922 236.484C58.3438 236.883 59.0469 237.512 59.6016 238.371C60.1016 239.129 60.4258 240.008 60.5742 241.008C60.6602 241.594 60.6953 242.438 60.6797 243.539H51.9375C51.9844 244.82 52.3867 245.719 53.1445 246.234C53.6055 246.555 54.1602 246.715 54.8086 246.715C55.4961 246.715 56.0547 246.52 56.4844 246.129C56.7188 245.918 56.9258 245.625 57.1055 245.25H60.5156C60.4297 246.008 60.0352 246.777 59.332 247.559C58.2383 248.801 56.707 249.422 54.7383 249.422C53.1133 249.422 51.6797 248.898 50.4375 247.852C49.1953 246.805 48.5742 245.102 48.5742 242.742C48.5742 240.531 49.1328 238.836 50.25 237.656C51.375 236.477 52.832 235.887 54.6211 235.887ZM65.543 244.922C65.6133 245.516 65.7656 245.938 66 246.188C66.4141 246.633 67.1797 246.855 68.2969 246.855C68.9531 246.855 69.4727 246.758 69.8555 246.562C70.2461 246.367 70.4414 246.074 70.4414 245.684C70.4414 245.309 70.2852 245.023 69.9727 244.828C69.6602 244.633 68.5 244.297 66.4922 243.82C65.0469 243.461 64.0273 243.012 63.4336 242.473C62.8398 241.941 62.543 241.176 62.543 240.176C62.543 238.996 63.0039 237.984 63.9258 237.141C64.8555 236.289 66.1602 235.863 67.8398 235.863C69.4336 235.863 70.7305 236.184 71.7305 236.824C72.7383 237.457 73.3164 238.555 73.4648 240.117H70.125C70.0781 239.688 69.957 239.348 69.7617 239.098C69.3945 238.645 68.7695 238.418 67.8867 238.418C67.1602 238.418 66.6406 238.531 66.3281 238.758C66.0234 238.984 65.8711 239.25 65.8711 239.555C65.8711 239.938 66.0352 240.215 66.3633 240.387C66.6914 240.566 67.8516 240.875 69.8438 241.312C71.1719 241.625 72.168 242.098 72.832 242.73C73.4883 243.371 73.8164 244.172 73.8164 245.133C73.8164 246.398 73.3438 247.434 72.3984 248.238C71.4609 249.035 70.0078 249.434 68.0391 249.434C66.0312 249.434 64.5469 249.012 63.5859 248.168C62.6328 247.316 62.1562 246.234 62.1562 244.922H65.543ZM78.9023 244.922C78.9727 245.516 79.125 245.938 79.3594 246.188C79.7734 246.633 80.5391 246.855 81.6562 246.855C82.3125 246.855 82.832 246.758 83.2148 246.562C83.6055 246.367 83.8008 246.074 83.8008 245.684C83.8008 245.309 83.6445 245.023 83.332 244.828C83.0195 244.633 81.8594 244.297 79.8516 243.82C78.4062 243.461 77.3867 243.012 76.793 242.473C76.1992 241.941 75.9023 241.176 75.9023 240.176C75.9023 238.996 76.3633 237.984 77.2852 237.141C78.2148 236.289 79.5195 235.863 81.1992 235.863C82.793 235.863 84.0898 236.184 85.0898 236.824C86.0977 237.457 86.6758 238.555 86.8242 240.117H83.4844C83.4375 239.688 83.3164 239.348 83.1211 239.098C82.7539 238.645 82.1289 238.418 81.2461 238.418C80.5195 238.418 80 238.531 79.6875 238.758C79.3828 238.984 79.2305 239.25 79.2305 239.555C79.2305 239.938 79.3945 240.215 79.7227 240.387C80.0508 240.566 81.2109 240.875 83.2031 241.312C84.5312 241.625 85.5273 242.098 86.1914 242.73C86.8477 243.371 87.1758 244.172 87.1758 245.133C87.1758 246.398 86.7031 247.434 85.7578 248.238C84.8203 249.035 83.3672 249.434 81.3984 249.434C79.3906 249.434 77.9062 249.012 76.9453 248.168C75.9922 247.316 75.5156 246.234 75.5156 244.922H78.9023ZM93.0938 234.703H89.707V231.621H93.0938V234.703ZM89.707 236.227H93.0938V249H89.707V236.227ZM102.07 246.645C103.047 246.645 103.797 246.297 104.32 245.602C104.844 244.906 105.105 243.918 105.105 242.637C105.105 241.355 104.844 240.371 104.32 239.684C103.797 238.988 103.047 238.641 102.07 238.641C101.094 238.641 100.34 238.988 99.8086 239.684C99.2852 240.371 99.0234 241.355 99.0234 242.637C99.0234 243.918 99.2852 244.906 99.8086 245.602C100.34 246.297 101.094 246.645 102.07 246.645ZM108.609 242.637C108.609 244.512 108.07 246.117 106.992 247.453C105.914 248.781 104.277 249.445 102.082 249.445C99.8867 249.445 98.25 248.781 97.1719 247.453C96.0938 246.117 95.5547 244.512 95.5547 242.637C95.5547 240.793 96.0938 239.195 97.1719 237.844C98.25 236.492 99.8867 235.816 102.082 235.816C104.277 235.816 105.914 236.492 106.992 237.844C108.07 239.195 108.609 240.793 108.609 242.637ZM118.09 235.922C119.41 235.922 120.488 236.27 121.324 236.965C122.168 237.652 122.59 238.797 122.59 240.398V249H119.168V241.23C119.168 240.559 119.078 240.043 118.898 239.684C118.57 239.027 117.945 238.699 117.023 238.699C115.891 238.699 115.113 239.18 114.691 240.141C114.473 240.648 114.363 241.297 114.363 242.086V249H111.035V236.25H114.258V238.113C114.688 237.457 115.094 236.984 115.477 236.695C116.164 236.18 117.035 235.922 118.09 235.922ZM132.727 242.789C132.516 242.922 132.301 243.031 132.082 243.117C131.871 243.195 131.578 243.27 131.203 243.34L130.453 243.48C129.75 243.605 129.246 243.758 128.941 243.938C128.426 244.242 128.168 244.715 128.168 245.355C128.168 245.926 128.324 246.34 128.637 246.598C128.957 246.848 129.344 246.973 129.797 246.973C130.516 246.973 131.176 246.762 131.777 246.34C132.387 245.918 132.703 245.148 132.727 244.031V242.789ZM130.699 241.23C131.316 241.152 131.758 241.055 132.023 240.938C132.5 240.734 132.738 240.418 132.738 239.988C132.738 239.465 132.555 239.105 132.188 238.91C131.828 238.707 131.297 238.605 130.594 238.605C129.805 238.605 129.246 238.801 128.918 239.191C128.684 239.48 128.527 239.871 128.449 240.363H125.227C125.297 239.246 125.609 238.328 126.164 237.609C127.047 236.484 128.562 235.922 130.711 235.922C132.109 235.922 133.352 236.199 134.438 236.754C135.523 237.309 136.066 238.355 136.066 239.895V245.754C136.066 246.16 136.074 246.652 136.09 247.23C136.113 247.668 136.18 247.965 136.289 248.121C136.398 248.277 136.562 248.406 136.781 248.508V249H133.148C133.047 248.742 132.977 248.5 132.938 248.273C132.898 248.047 132.867 247.789 132.844 247.5C132.383 248 131.852 248.426 131.25 248.777C130.531 249.191 129.719 249.398 128.812 249.398C127.656 249.398 126.699 249.07 125.941 248.414C125.191 247.75 124.816 246.812 124.816 245.602C124.816 244.031 125.422 242.895 126.633 242.191C127.297 241.809 128.273 241.535 129.562 241.371L130.699 241.23ZM142.453 249H139.113V231.727H142.453V249ZM151.922 240.504C151.922 237.488 152.73 235.164 154.348 233.531C155.754 232.109 157.543 231.398 159.715 231.398C162.621 231.398 164.746 232.352 166.09 234.258C166.832 235.328 167.23 236.402 167.285 237.48H163.676C163.441 236.652 163.141 236.027 162.773 235.605C162.117 234.855 161.145 234.48 159.855 234.48C158.543 234.48 157.508 235.012 156.75 236.074C155.992 237.129 155.613 238.625 155.613 240.562C155.613 242.5 156.012 243.953 156.809 244.922C157.613 245.883 158.633 246.363 159.867 246.363C161.133 246.363 162.098 245.949 162.762 245.121C163.129 244.676 163.434 244.008 163.676 243.117H167.25C166.938 245 166.137 246.531 164.848 247.711C163.566 248.891 161.922 249.48 159.914 249.48C157.43 249.48 155.477 248.684 154.055 247.09C152.633 245.488 151.922 243.293 151.922 240.504ZM176.789 235.898C177.578 235.898 178.293 236.035 178.934 236.309C179.582 236.582 180.113 237 180.527 237.562C180.879 238.039 181.094 238.531 181.172 239.039C181.25 239.539 181.289 240.359 181.289 241.5V249H177.879V241.23C177.879 240.543 177.762 239.988 177.527 239.566C177.223 238.973 176.645 238.676 175.793 238.676C174.91 238.676 174.238 238.973 173.777 239.566C173.324 240.152 173.098 240.992 173.098 242.086V249H169.77V231.785H173.098V237.891C173.582 237.148 174.141 236.633 174.773 236.344C175.414 236.047 176.086 235.898 176.789 235.898ZM189.457 238.641C188.684 238.641 188.082 238.883 187.652 239.367C187.23 239.852 186.965 240.508 186.855 241.336H192.047C191.992 240.453 191.723 239.785 191.238 239.332C190.762 238.871 190.168 238.641 189.457 238.641ZM189.457 235.887C190.52 235.887 191.477 236.086 192.328 236.484C193.18 236.883 193.883 237.512 194.438 238.371C194.938 239.129 195.262 240.008 195.41 241.008C195.496 241.594 195.531 242.438 195.516 243.539H186.773C186.82 244.82 187.223 245.719 187.98 246.234C188.441 246.555 188.996 246.715 189.645 246.715C190.332 246.715 190.891 246.52 191.32 246.129C191.555 245.918 191.762 245.625 191.941 245.25H195.352C195.266 246.008 194.871 246.777 194.168 247.559C193.074 248.801 191.543 249.422 189.574 249.422C187.949 249.422 186.516 248.898 185.273 247.852C184.031 246.805 183.41 245.102 183.41 242.742C183.41 240.531 183.969 238.836 185.086 237.656C186.211 236.477 187.668 235.887 189.457 235.887ZM202.488 231.551C202.699 231.551 202.891 231.559 203.062 231.574C203.234 231.582 203.469 231.598 203.766 231.621V234.34C203.578 234.316 203.262 234.301 202.816 234.293C202.379 234.277 202.074 234.375 201.902 234.586C201.738 234.789 201.656 235.016 201.656 235.266C201.656 235.516 201.656 235.875 201.656 236.344H203.848V238.699H201.656V249H198.328V238.699H196.465V236.344H198.293V235.523C198.293 234.156 198.523 233.215 198.984 232.699C199.469 231.934 200.637 231.551 202.488 231.551ZM208.371 244.922C208.441 245.516 208.594 245.938 208.828 246.188C209.242 246.633 210.008 246.855 211.125 246.855C211.781 246.855 212.301 246.758 212.684 246.562C213.074 246.367 213.27 246.074 213.27 245.684C213.27 245.309 213.113 245.023 212.801 244.828C212.488 244.633 211.328 244.297 209.32 243.82C207.875 243.461 206.855 243.012 206.262 242.473C205.668 241.941 205.371 241.176 205.371 240.176C205.371 238.996 205.832 237.984 206.754 237.141C207.684 236.289 208.988 235.863 210.668 235.863C212.262 235.863 213.559 236.184 214.559 236.824C215.566 237.457 216.145 238.555 216.293 240.117H212.953C212.906 239.688 212.785 239.348 212.59 239.098C212.223 238.645 211.598 238.418 210.715 238.418C209.988 238.418 209.469 238.531 209.156 238.758C208.852 238.984 208.699 239.25 208.699 239.555C208.699 239.938 208.863 240.215 209.191 240.387C209.52 240.566 210.68 240.875 212.672 241.312C214 241.625 214.996 242.098 215.66 242.73C216.316 243.371 216.645 244.172 216.645 245.133C216.645 246.398 216.172 247.434 215.227 248.238C214.289 249.035 212.836 249.434 210.867 249.434C208.859 249.434 207.375 249.012 206.414 248.168C205.461 247.316 204.984 246.234 204.984 244.922H208.371Z" fill="white"/>
<path d="M96.918 190.906H93.7148V197H88.2656V190.906H77.0547V186.043L87.4648 168.855H93.7148V186.551H96.918V190.906ZM88.2656 186.551V174.324L81.1758 186.551H88.2656ZM99.5156 197C99.5677 194.969 100.004 193.113 100.824 191.434C101.618 189.546 103.493 187.547 106.449 185.438C109.014 183.602 110.674 182.286 111.43 181.492C112.589 180.255 113.168 178.901 113.168 177.43C113.168 176.232 112.836 175.236 112.172 174.441C111.508 173.647 110.557 173.25 109.32 173.25C107.628 173.25 106.475 173.882 105.863 175.145C105.512 175.874 105.303 177.033 105.238 178.621H99.8281C99.9193 176.212 100.355 174.266 101.137 172.781C102.621 169.956 105.258 168.543 109.047 168.543C112.042 168.543 114.424 169.376 116.195 171.043C117.966 172.697 118.852 174.891 118.852 177.625C118.852 179.721 118.227 181.583 116.977 183.211C116.156 184.292 114.809 185.496 112.934 186.824L110.707 188.406C109.314 189.396 108.357 190.112 107.836 190.555C107.328 190.997 106.898 191.512 106.547 192.098H118.91V197H99.5156ZM127.465 183.113C127.465 186.368 127.732 188.862 128.266 190.594C128.799 192.312 129.893 193.172 131.547 193.172C133.201 193.172 134.281 192.312 134.789 190.594C135.31 188.862 135.57 186.368 135.57 183.113C135.57 179.702 135.31 177.176 134.789 175.535C134.281 173.895 133.201 173.074 131.547 173.074C129.893 173.074 128.799 173.895 128.266 175.535C127.732 177.176 127.465 179.702 127.465 183.113ZM131.547 168.484C135.154 168.484 137.68 169.754 139.125 172.293C140.583 174.832 141.312 178.439 141.312 183.113C141.312 187.788 140.583 191.388 139.125 193.914C137.68 196.44 135.154 197.703 131.547 197.703C127.94 197.703 125.408 196.44 123.949 193.914C122.504 191.388 121.781 187.788 121.781 183.113C121.781 178.439 122.504 174.832 123.949 172.293C125.408 169.754 127.94 168.484 131.547 168.484Z" fill="white"/>
<path d="M162.789 80.8047C159.896 82.8103 156.57 84.1139 153.079 84.6114C149.588 85.1089 146.028 84.7863 142.685 83.6695C142.382 83.5621 142.058 83.529 141.739 83.573C141.421 83.617 141.118 83.7367 140.856 83.9221L131.858 90.2704L134.174 93.5152L142.337 87.7458C146.153 88.8548 150.169 89.1029 154.093 88.472C158.017 87.8412 161.75 86.3473 165.021 84.0992C166.199 83.307 167.316 82.4279 168.362 81.4691L165.651 78.5447C164.756 79.369 163.799 80.1245 162.789 80.8047Z" fill="#FF9F0D"/>
<path d="M142.655 51.1142C139.793 52.9336 137.501 55.514 136.037 58.5632C134.574 61.6124 133.998 65.0085 134.375 68.3666L109.029 84.5328L83.678 68.3766C84.0632 65.0173 83.4901 61.6181 82.0245 58.5677C80.5589 55.5174 78.2598 52.9392 75.3904 51.1282C71.5815 48.516 66.9498 47.3667 62.3542 47.8934C60.1864 48.1045 58.0923 48.7893 56.2212 49.8988C54.3502 51.0083 52.7484 52.5151 51.5302 54.3117C50.3121 56.1084 49.5076 58.1504 49.1743 60.2921C48.841 62.4339 48.987 64.6224 49.6019 66.7015C50.8338 71.1363 53.6406 74.976 57.5016 77.5081C60.2661 79.4799 63.5333 80.6365 66.9283 80.8452C70.3232 81.0538 73.7086 80.3061 76.696 78.6878L96.3723 92.588L77.6477 104.535C76.7627 105.094 75.9995 105.825 75.4034 106.683C74.8073 107.542 74.3904 108.51 74.1775 109.532C73.9646 110.554 73.9599 111.607 74.1638 112.631C74.3677 113.654 74.7759 114.627 75.3644 115.49C75.9506 116.352 76.7039 117.089 77.5802 117.657C78.4565 118.225 79.438 118.613 80.467 118.798C81.4961 118.983 82.5521 118.962 83.5728 118.736C84.5936 118.509 85.5586 118.082 86.4112 117.48L109.029 101.521L131.646 117.492C132.5 118.113 133.47 118.556 134.5 118.795C135.53 119.035 136.598 119.064 137.64 118.883C138.681 118.702 139.675 118.313 140.563 117.74C141.45 117.167 142.212 116.422 142.802 115.55C143.393 114.677 143.801 113.694 144.001 112.661C144.201 111.628 144.19 110.565 143.967 109.536C143.745 108.508 143.316 107.534 142.706 106.675C142.097 105.815 141.319 105.086 140.419 104.533L121.673 92.5959L141.363 78.6898C144.35 80.3087 147.735 81.0571 151.13 80.8491C154.525 80.6411 157.793 79.4853 160.558 77.514C168.775 71.9953 171.458 61.5826 166.534 54.3013C161.609 47.02 150.89 45.5956 142.655 51.1142ZM84.0959 114.243C83.2416 114.815 82.1963 115.032 81.1833 114.848C80.1702 114.664 79.2695 114.094 78.6734 113.258C78.3849 112.835 78.1848 112.358 78.0849 111.856C77.9851 111.354 77.9875 110.837 78.0921 110.336C78.1967 109.835 78.4014 109.36 78.6939 108.94C78.9864 108.519 79.3609 108.161 79.7951 107.887L99.8872 95.0668L105.564 99.0735L84.0959 114.243ZM139.96 110.338C140.116 111.093 140.041 111.877 139.743 112.588C139.446 113.3 138.94 113.906 138.292 114.328C137.643 114.75 136.883 114.968 136.108 114.953C135.334 114.939 134.581 114.693 133.949 114.247L77.8877 74.6572C77.5458 74.416 77.1365 74.2878 76.7174 74.2906C76.2984 74.2935 75.8908 74.4273 75.5523 74.6731C73.1837 76.2112 70.3988 76.9912 67.5716 76.9084C64.7444 76.8255 62.0105 75.8837 59.737 74.2096C56.678 72.2131 54.4503 69.1809 53.4668 65.6749C52.9961 64.1434 52.8756 62.5266 53.114 60.9427C53.3523 59.3589 53.9436 57.8481 54.8444 56.5209C55.7452 55.1937 56.9329 54.0838 58.3205 53.2722C59.7081 52.4607 61.2605 51.9681 62.864 51.8304C66.4991 51.4245 70.1588 52.3433 73.165 54.4167C75.575 55.8885 77.4746 58.0586 78.609 60.6358C79.7435 63.213 80.0583 66.0738 79.5112 68.8341C79.4084 69.2388 79.4361 69.6653 79.5904 70.0534C79.7447 70.4415 80.0178 70.7715 80.3709 70.9966L138.262 107.885C138.696 108.159 139.07 108.518 139.362 108.939C139.654 109.361 139.857 109.836 139.96 110.338ZM158.314 74.2056C156.04 75.8793 153.305 76.8205 150.478 76.9026C147.65 76.9848 144.865 76.204 142.497 74.6652C142.158 74.4193 141.751 74.2855 141.332 74.2827C140.913 74.2798 140.503 74.4081 140.162 74.6492L118.042 90.2743L112.739 86.8922L137.68 70.9767C138.033 70.7518 138.305 70.4225 138.459 70.0352C138.614 69.648 138.642 69.2223 138.54 68.8182C138.004 66.0574 138.324 63.1996 139.459 60.6244C140.594 58.0493 142.49 55.8786 144.894 54.4008C151.292 50.1096 159.518 51.0566 163.215 56.5056C166.912 61.9547 164.71 69.9144 158.314 74.2056Z" fill="#FF9F0D"/>
<path d="M70.8936 3.64643L68.6802 0.332031C63.8504 3.51634 60.2283 8.21499 58.3892 13.6818C56.5501 19.1486 56.5993 25.07 58.5292 30.5058L62.2981 29.1768C60.6662 24.5766 60.6259 19.5658 62.1836 14.9403C63.7413 10.3147 66.8076 6.33962 70.8956 3.64643H70.8936Z" fill="#FF9F0D"/>
<path d="M66.541 36.3428C65.5782 35.2561 64.7251 34.078 63.9937 32.8254L60.5327 34.8149C61.3962 36.2957 62.4041 37.6884 63.5418 38.9728L66.541 36.3428Z" fill="#FF9F0D"/>
<path d="M130.982 68.0384L136.675 39.7208C141.303 39.3202 145.596 37.1542 148.655 33.6761C151.715 30.198 153.304 25.6774 153.091 21.06C152.877 16.4427 150.877 12.0864 147.509 8.90271C144.141 5.71903 139.667 3.95462 135.021 3.97868C130.978 3.96443 127.051 5.32233 123.889 7.82823C122.241 5.41646 120.026 3.44228 117.436 2.07781C114.846 0.713334 111.96 0 109.029 0C106.098 0 103.212 0.713334 100.622 2.07781C98.0319 3.44228 95.8166 5.41646 94.1692 7.82823C91.0065 5.32233 87.0794 3.96443 83.0365 3.97868C78.407 3.97825 73.9554 5.75318 70.6073 8.93445C67.2591 12.1157 65.272 16.4586 65.0591 21.0601C64.8462 25.6616 66.4238 30.1677 69.464 33.6417C72.5042 37.1156 76.773 39.29 81.383 39.7129L87.0753 68.0384L90.9942 67.2586L89.8745 61.6722H128.183L127.064 67.2427L130.982 68.0384ZM121.331 57.6934L123.005 46.0393L119.046 45.4743L117.292 57.6934H111.028V35.8096H107.029V57.6934H100.765L99.0118 45.4743L95.053 46.0393L96.7265 57.6934H89.0747L84.9959 37.4012C84.9037 36.9518 84.6583 36.5479 84.3013 36.2579C83.9442 35.9679 83.4974 35.8095 83.0365 35.8096C79.3245 35.8096 75.7646 34.3424 73.1399 31.7308C70.5151 29.1191 69.0406 25.577 69.0406 21.8836C69.0406 18.1902 70.5151 14.648 73.1399 12.0364C75.7646 9.42475 79.3245 7.95754 83.0365 7.95754C84.9419 7.95268 86.8278 8.33885 88.5765 9.09191C90.3251 9.84498 91.8989 10.9488 93.1995 12.3343C93.4217 12.5681 93.6977 12.7448 94.0036 12.8492C94.3096 12.9536 94.6364 12.9826 94.9561 12.9337C95.2758 12.8848 95.5788 12.7595 95.8391 12.5684C96.0994 12.3774 96.3092 12.1264 96.4506 11.8369C97.5928 9.48329 99.3788 7.49782 101.604 6.10842C103.829 4.71902 106.402 3.98202 109.029 3.98202C111.656 3.98202 114.229 4.71902 116.454 6.10842C118.679 7.49782 120.465 9.48329 121.607 11.8369C121.749 12.1264 121.958 12.3774 122.219 12.5684C122.479 12.7595 122.782 12.8848 123.102 12.9337C123.421 12.9826 123.748 12.9536 124.054 12.8492C124.36 12.7448 124.636 12.5681 124.858 12.3343C126.159 10.9488 127.733 9.84498 129.481 9.09191C131.23 8.33885 133.116 7.95268 135.021 7.95754C138.733 7.95754 142.293 9.42475 144.918 12.0364C147.543 14.648 149.017 18.1902 149.017 21.8836C149.017 25.577 147.543 29.1191 144.918 31.7308C142.293 34.3424 138.733 35.8096 135.021 35.8096C134.56 35.8095 134.114 35.9679 133.757 36.2579C133.399 36.5479 133.154 36.9518 133.062 37.4012L128.983 57.6934H121.331Z" fill="#FF9F0D"/>
</svg>
