<svg width="133" height="28" viewBox="0 0 133 28" fill="none" xmlns="http://www.w3.org/2000/svg">
<path d="M1.76136 21V6.45455H3.52273V12.9318H11.2784V6.45455H13.0398V21H11.2784V14.4943H3.52273V21H1.76136ZM20.7706 21.2273C19.7857 21.2273 18.9216 20.9929 18.1783 20.5241C17.4396 20.0554 16.862 19.3996 16.4453 18.5568C16.0334 17.714 15.8274 16.7292 15.8274 15.6023C15.8274 14.4659 16.0334 13.474 16.4453 12.6264C16.862 11.7789 17.4396 11.1207 18.1783 10.652C18.9216 10.1832 19.7857 9.94886 20.7706 9.94886C21.7554 9.94886 22.6172 10.1832 23.3558 10.652C24.0992 11.1207 24.6768 11.7789 25.0888 12.6264C25.5054 13.474 25.7138 14.4659 25.7138 15.6023C25.7138 16.7292 25.5054 17.714 25.0888 18.5568C24.6768 19.3996 24.0992 20.0554 23.3558 20.5241C22.6172 20.9929 21.7554 21.2273 20.7706 21.2273ZM20.7706 19.7216C21.5187 19.7216 22.1342 19.5298 22.6172 19.1463C23.1001 18.7628 23.4576 18.2585 23.6896 17.6335C23.9216 17.0085 24.0376 16.3314 24.0376 15.6023C24.0376 14.8731 23.9216 14.1937 23.6896 13.5639C23.4576 12.9342 23.1001 12.4252 22.6172 12.0369C22.1342 11.6487 21.5187 11.4545 20.7706 11.4545C20.0225 11.4545 19.407 11.6487 18.924 12.0369C18.4411 12.4252 18.0836 12.9342 17.8516 13.5639C17.6196 14.1937 17.5036 14.8731 17.5036 15.6023C17.5036 16.3314 17.6196 17.0085 17.8516 17.6335C18.0836 18.2585 18.4411 18.7628 18.924 19.1463C19.407 19.5298 20.0225 19.7216 20.7706 19.7216ZM28.2724 21V10.0909H29.8917V11.7955H30.0337C30.261 11.2131 30.628 10.7609 31.1346 10.4389C31.6412 10.1122 32.2496 9.94886 32.9599 9.94886C33.6796 9.94886 34.2785 10.1122 34.7567 10.4389C35.2397 10.7609 35.6161 11.2131 35.886 11.7955H35.9996C36.279 11.232 36.698 10.7846 37.2567 10.4531C37.8155 10.117 38.4854 9.94886 39.2667 9.94886C40.2421 9.94886 41.0399 10.2543 41.6602 10.8651C42.2804 11.4711 42.5906 12.4157 42.5906 13.6989V21H40.9144V13.6989C40.9144 12.8939 40.6942 12.3187 40.2539 11.973C39.8136 11.6274 39.2951 11.4545 38.6985 11.4545C37.9315 11.4545 37.3372 11.6866 36.9158 12.1506C36.4944 12.6098 36.2837 13.1922 36.2837 13.8977V21H34.5792V13.5284C34.5792 12.9081 34.378 12.4086 33.9755 12.0298C33.573 11.6463 33.0546 11.4545 32.4201 11.4545C31.9845 11.4545 31.5773 11.5705 31.1985 11.8026C30.8245 12.0346 30.5214 12.3565 30.2894 12.7685C30.0621 13.1757 29.9485 13.6468 29.9485 14.1818V21H28.2724ZM50.229 21.2273C49.1779 21.2273 48.2712 20.9953 47.5089 20.5312C46.7513 20.0625 46.1665 19.4091 45.7546 18.571C45.3474 17.7282 45.1438 16.7481 45.1438 15.6307C45.1438 14.5133 45.3474 13.5284 45.7546 12.6761C46.1665 11.8191 46.7395 11.1515 47.4734 10.6733C48.212 10.1903 49.0737 9.94886 50.0586 9.94886C50.6268 9.94886 51.1879 10.0436 51.7418 10.233C52.2958 10.4223 52.8001 10.7301 53.2546 11.1562C53.7092 11.5777 54.0714 12.1364 54.3413 12.8324C54.6112 13.5284 54.7461 14.3854 54.7461 15.4034V16.1136H46.337V14.6648H53.0415C53.0415 14.0492 52.9184 13.5 52.6722 13.017C52.4308 12.5341 52.0851 12.1529 51.6353 11.8736C51.1902 11.5942 50.6647 11.4545 50.0586 11.4545C49.391 11.4545 48.8133 11.6203 48.3256 11.9517C47.8427 12.2784 47.471 12.7045 47.2106 13.2301C46.9502 13.7557 46.82 14.3191 46.82 14.9205V15.8864C46.82 16.7102 46.962 17.4086 47.2461 17.9815C47.5349 18.5497 47.935 18.983 48.4464 19.2812C48.9577 19.5748 49.552 19.7216 50.229 19.7216C50.6694 19.7216 51.0671 19.66 51.4222 19.5369C51.7821 19.4091 52.0922 19.2197 52.3526 18.9688C52.613 18.7131 52.8143 18.3958 52.9563 18.017L54.5756 18.4716C54.4052 19.0208 54.1187 19.5038 53.7163 19.9205C53.3138 20.3324 52.8166 20.6544 52.2248 20.8864C51.6329 21.1136 50.9677 21.2273 50.229 21.2273Z" fill="white"/>
<path d="M81.7614 6.45455H83.8636L88.8068 18.5284H88.9773L93.9205 6.45455H96.0227V21H94.375V9.94886H94.233L89.6875 21H88.0966L83.5511 9.94886H83.4091V21H81.7614V6.45455ZM103.901 21.2273C102.85 21.2273 101.943 20.9953 101.181 20.5312C100.423 20.0625 99.8384 19.4091 99.4265 18.571C99.0193 17.7282 98.8157 16.7481 98.8157 15.6307C98.8157 14.5133 99.0193 13.5284 99.4265 12.6761C99.8384 11.8191 100.411 11.1515 101.145 10.6733C101.884 10.1903 102.746 9.94886 103.73 9.94886C104.299 9.94886 104.86 10.0436 105.414 10.233C105.968 10.4223 106.472 10.7301 106.926 11.1562C107.381 11.5777 107.743 12.1364 108.013 12.8324C108.283 13.5284 108.418 14.3854 108.418 15.4034V16.1136H100.009V14.6648H106.713C106.713 14.0492 106.59 13.5 106.344 13.017C106.103 12.5341 105.757 12.1529 105.307 11.8736C104.862 11.5942 104.337 11.4545 103.73 11.4545C103.063 11.4545 102.485 11.6203 101.998 11.9517C101.515 12.2784 101.143 12.7045 100.882 13.2301C100.622 13.7557 100.492 14.3191 100.492 14.9205V15.8864C100.492 16.7102 100.634 17.4086 100.918 17.9815C101.207 18.5497 101.607 18.983 102.118 19.2812C102.63 19.5748 103.224 19.7216 103.901 19.7216C104.341 19.7216 104.739 19.66 105.094 19.5369C105.454 19.4091 105.764 19.2197 106.025 18.9688C106.285 18.7131 106.486 18.3958 106.628 18.017L108.248 18.4716C108.077 19.0208 107.791 19.5038 107.388 19.9205C106.986 20.3324 106.489 20.6544 105.897 20.8864C105.305 21.1136 104.64 21.2273 103.901 21.2273ZM112.644 14.4375V21H110.968V10.0909H112.587V11.7955H112.729C112.985 11.2415 113.373 10.7964 113.894 10.4602C114.415 10.1193 115.087 9.94886 115.911 9.94886C116.65 9.94886 117.296 10.1004 117.85 10.4034C118.404 10.7017 118.835 11.1562 119.142 11.767C119.45 12.3731 119.604 13.1402 119.604 14.0682V21H117.928V14.1818C117.928 13.3248 117.705 12.6572 117.26 12.179C116.815 11.696 116.204 11.4545 115.428 11.4545C114.893 11.4545 114.415 11.5705 113.993 11.8026C113.577 12.0346 113.248 12.3731 113.006 12.8182C112.765 13.2633 112.644 13.803 112.644 14.4375ZM129.542 16.5398V10.0909H131.218V21H129.542V19.1534H129.428C129.173 19.7074 128.775 20.1785 128.235 20.5668C127.695 20.9503 127.013 21.142 126.19 21.142C125.508 21.142 124.902 20.9929 124.371 20.6946C123.841 20.3916 123.424 19.937 123.121 19.331C122.818 18.7202 122.667 17.9508 122.667 17.0227V10.0909H124.343V16.9091C124.343 17.7045 124.566 18.339 125.011 18.8125C125.46 19.286 126.033 19.5227 126.729 19.5227C127.146 19.5227 127.57 19.4162 128.001 19.2031C128.436 18.9901 128.801 18.6634 129.094 18.223C129.393 17.7827 129.542 17.2216 129.542 16.5398Z" fill="#FF9F0D"/>
</svg>
