<svg width="136" height="29" viewBox="0 0 136 29" fill="none" xmlns="http://www.w3.org/2000/svg">
<path d="M29.5 9.28C29.5 13.3219 27.798 18.1512 25.0262 21.9694C22.2495 25.7946 18.4808 28.5 14.4 28.5C10.2017 28.5 6.7329 27.1394 4.31665 24.8037C1.90187 22.4694 0.5 19.1245 0.5 15.08C0.5 7.04353 7.24439 0.5 15.6 0.5C19.922 0.5 23.4035 0.745589 25.8048 1.9628C26.9863 2.56172 27.8982 3.39316 28.5211 4.553C29.1478 5.71994 29.5 7.2532 29.5 9.28Z" stroke="#BC9A6C"/>
<path d="M10.2236 9.08887L12.6582 19.5918L15.5762 9.08887H17.4746L20.3926 19.5918L22.8271 9.08887H24.7432L21.3506 22H19.5137L16.5342 11.2949L13.5371 22H11.7002L8.3252 9.08887H10.2236ZM26.1582 9.04492H27.7402V13.8613C28.1152 13.3867 28.4521 13.0527 28.751 12.8594C29.2607 12.5254 29.8965 12.3584 30.6582 12.3584C32.0234 12.3584 32.9492 12.8359 33.4355 13.791C33.6992 14.3125 33.8311 15.0361 33.8311 15.9619V22H32.2051V16.0674C32.2051 15.376 32.1172 14.8691 31.9414 14.5469C31.6543 14.0312 31.1152 13.7734 30.3242 13.7734C29.668 13.7734 29.0732 13.999 28.54 14.4502C28.0068 14.9014 27.7402 15.7539 27.7402 17.0078V22H26.1582V9.04492ZM42.0576 12.5869H43.8066C43.584 13.1904 43.0889 14.5674 42.3213 16.7178C41.7471 18.335 41.2666 19.6533 40.8799 20.6729C39.9658 23.0752 39.3213 24.54 38.9463 25.0674C38.5713 25.5947 37.9268 25.8584 37.0127 25.8584C36.79 25.8584 36.6172 25.8496 36.4941 25.832C36.377 25.8145 36.2305 25.7822 36.0547 25.7354V24.2939C36.3301 24.3701 36.5293 24.417 36.6523 24.4346C36.7754 24.4521 36.8838 24.4609 36.9775 24.4609C37.2705 24.4609 37.4844 24.4111 37.6191 24.3115C37.7598 24.2178 37.877 24.1006 37.9707 23.96C38 23.9131 38.1055 23.6729 38.2871 23.2393C38.4688 22.8057 38.6006 22.4834 38.6826 22.2725L35.2021 12.5869H36.9951L39.5176 20.251L42.0576 12.5869ZM55.8389 8.7373C57.4736 8.7373 58.7422 9.16797 59.6445 10.0293C60.5469 10.8906 61.0479 11.8691 61.1475 12.9648H59.4424C59.249 12.1328 58.8623 11.4736 58.2822 10.9873C57.708 10.501 56.8994 10.2578 55.8564 10.2578C54.585 10.2578 53.5566 10.7061 52.7715 11.6025C51.9922 12.4932 51.6025 13.8613 51.6025 15.707C51.6025 17.2188 51.9541 18.4463 52.6572 19.3896C53.3662 20.3271 54.4209 20.7959 55.8213 20.7959C57.1104 20.7959 58.0918 20.3008 58.7656 19.3105C59.123 18.7891 59.3896 18.1035 59.5654 17.2539H61.2705C61.1182 18.6133 60.6143 19.7529 59.7588 20.6729C58.7334 21.7803 57.3506 22.334 55.6104 22.334C54.1104 22.334 52.8506 21.8799 51.8311 20.9717C50.4893 19.7705 49.8184 17.916 49.8184 15.4082C49.8184 13.5039 50.3223 11.9424 51.3301 10.7236C52.4199 9.39941 53.9229 8.7373 55.8389 8.7373ZM63.1953 9.04492H64.7773V13.8613C65.1523 13.3867 65.4893 13.0527 65.7881 12.8594C66.2979 12.5254 66.9336 12.3584 67.6953 12.3584C69.0605 12.3584 69.9863 12.8359 70.4727 13.791C70.7363 14.3125 70.8682 15.0361 70.8682 15.9619V22H69.2422V16.0674C69.2422 15.376 69.1543 14.8691 68.9785 14.5469C68.6914 14.0312 68.1523 13.7734 67.3613 13.7734C66.7051 13.7734 66.1104 13.999 65.5771 14.4502C65.0439 14.9014 64.7773 15.7539 64.7773 17.0078V22H63.1953V9.04492ZM76.9502 20.9805C77.999 20.9805 78.7168 20.585 79.1035 19.7939C79.4961 18.9971 79.6924 18.1123 79.6924 17.1396C79.6924 16.2607 79.5518 15.5459 79.2705 14.9951C78.8252 14.1279 78.0576 13.6943 76.9678 13.6943C76.001 13.6943 75.2979 14.0635 74.8584 14.8018C74.4189 15.54 74.1992 16.4307 74.1992 17.4736C74.1992 18.4756 74.4189 19.3105 74.8584 19.9785C75.2979 20.6465 75.9951 20.9805 76.9502 20.9805ZM77.0117 12.3145C78.2246 12.3145 79.25 12.7188 80.0879 13.5273C80.9258 14.3359 81.3447 15.5254 81.3447 17.0957C81.3447 18.6133 80.9756 19.8672 80.2373 20.8574C79.499 21.8477 78.3535 22.3428 76.8008 22.3428C75.5059 22.3428 74.4775 21.9062 73.7158 21.0332C72.9541 20.1543 72.5732 18.9766 72.5732 17.5C72.5732 15.918 72.9746 14.6582 73.7773 13.7207C74.5801 12.7832 75.6582 12.3145 77.0117 12.3145ZM86.9697 20.9805C88.0186 20.9805 88.7363 20.585 89.123 19.7939C89.5156 18.9971 89.7119 18.1123 89.7119 17.1396C89.7119 16.2607 89.5713 15.5459 89.29 14.9951C88.8447 14.1279 88.0771 13.6943 86.9873 13.6943C86.0205 13.6943 85.3174 14.0635 84.8779 14.8018C84.4385 15.54 84.2188 16.4307 84.2188 17.4736C84.2188 18.4756 84.4385 19.3105 84.8779 19.9785C85.3174 20.6465 86.0146 20.9805 86.9697 20.9805ZM87.0312 12.3145C88.2441 12.3145 89.2695 12.7188 90.1074 13.5273C90.9453 14.3359 91.3643 15.5254 91.3643 17.0957C91.3643 18.6133 90.9951 19.8672 90.2568 20.8574C89.5186 21.8477 88.373 22.3428 86.8203 22.3428C85.5254 22.3428 84.4971 21.9062 83.7354 21.0332C82.9736 20.1543 82.5928 18.9766 82.5928 17.5C82.5928 15.918 82.9941 14.6582 83.7969 13.7207C84.5996 12.7832 85.6777 12.3145 87.0312 12.3145ZM94.1943 19.0469C94.2412 19.5742 94.373 19.9785 94.5898 20.2598C94.9883 20.7695 95.6797 21.0244 96.6641 21.0244C97.25 21.0244 97.7656 20.8984 98.2109 20.6465C98.6562 20.3887 98.8789 19.9932 98.8789 19.46C98.8789 19.0557 98.7002 18.748 98.3428 18.5371C98.1143 18.4082 97.6631 18.2588 96.9893 18.0889L95.7324 17.7725C94.9297 17.5732 94.3379 17.3506 93.957 17.1045C93.2773 16.6768 92.9375 16.085 92.9375 15.3291C92.9375 14.4385 93.2568 13.7178 93.8955 13.167C94.54 12.6162 95.4043 12.3408 96.4883 12.3408C97.9062 12.3408 98.9287 12.7568 99.5557 13.5889C99.9482 14.1162 100.139 14.6846 100.127 15.2939H98.6328C98.6035 14.9365 98.4775 14.6113 98.2549 14.3184C97.8916 13.9023 97.2617 13.6943 96.3652 13.6943C95.7676 13.6943 95.3135 13.8086 95.0029 14.0371C94.6982 14.2656 94.5459 14.5674 94.5459 14.9424C94.5459 15.3525 94.748 15.6807 95.1523 15.9268C95.3867 16.0732 95.7324 16.2021 96.1895 16.3135L97.2354 16.5684C98.3721 16.8438 99.1338 17.1104 99.5205 17.3682C100.136 17.7725 100.443 18.4082 100.443 19.2754C100.443 20.1133 100.124 20.8369 99.4854 21.4463C98.8525 22.0557 97.8857 22.3604 96.585 22.3604C95.1846 22.3604 94.1914 22.0439 93.6055 21.4111C93.0254 20.7725 92.7148 19.9844 92.6738 19.0469H94.1943ZM106.174 12.376C106.842 12.376 107.489 12.5342 108.116 12.8506C108.743 13.1611 109.221 13.5654 109.549 14.0635C109.865 14.5381 110.076 15.0918 110.182 15.7246C110.275 16.1582 110.322 16.8496 110.322 17.7988H103.423C103.452 18.7539 103.678 19.5215 104.1 20.1016C104.521 20.6758 105.175 20.9629 106.06 20.9629C106.886 20.9629 107.545 20.6904 108.037 20.1455C108.318 19.8291 108.518 19.4629 108.635 19.0469H110.19C110.149 19.3926 110.012 19.7793 109.777 20.207C109.549 20.6289 109.291 20.9746 109.004 21.2441C108.523 21.7129 107.929 22.0293 107.22 22.1934C106.839 22.2871 106.408 22.334 105.928 22.334C104.756 22.334 103.763 21.9092 102.948 21.0596C102.134 20.2041 101.727 19.0088 101.727 17.4736C101.727 15.9619 102.137 14.7344 102.957 13.791C103.777 12.8477 104.85 12.376 106.174 12.376ZM108.696 16.542C108.632 15.8564 108.482 15.3086 108.248 14.8984C107.814 14.1367 107.091 13.7559 106.077 13.7559C105.351 13.7559 104.741 14.0195 104.249 14.5469C103.757 15.0684 103.496 15.7334 103.467 16.542H108.696ZM118.865 12.5869V18.8359C118.865 19.3164 118.941 19.709 119.094 20.0137C119.375 20.5762 119.899 20.8574 120.667 20.8574C121.769 20.8574 122.519 20.3652 122.917 19.3809C123.134 18.8535 123.242 18.1299 123.242 17.21V12.5869H124.824V22H123.33L123.348 20.6113C123.143 20.9688 122.888 21.2705 122.583 21.5166C121.979 22.0088 121.247 22.2549 120.386 22.2549C119.044 22.2549 118.13 21.8066 117.644 20.9102C117.38 20.4297 117.248 19.7881 117.248 18.9854V12.5869H118.865ZM128.243 19.0469C128.29 19.5742 128.422 19.9785 128.639 20.2598C129.037 20.7695 129.729 21.0244 130.713 21.0244C131.299 21.0244 131.814 20.8984 132.26 20.6465C132.705 20.3887 132.928 19.9932 132.928 19.46C132.928 19.0557 132.749 18.748 132.392 18.5371C132.163 18.4082 131.712 18.2588 131.038 18.0889L129.781 17.7725C128.979 17.5732 128.387 17.3506 128.006 17.1045C127.326 16.6768 126.986 16.085 126.986 15.3291C126.986 14.4385 127.306 13.7178 127.944 13.167C128.589 12.6162 129.453 12.3408 130.537 12.3408C131.955 12.3408 132.978 12.7568 133.604 13.5889C133.997 14.1162 134.188 14.6846 134.176 15.2939H132.682C132.652 14.9365 132.526 14.6113 132.304 14.3184C131.94 13.9023 131.311 13.6943 130.414 13.6943C129.816 13.6943 129.362 13.8086 129.052 14.0371C128.747 14.2656 128.595 14.5674 128.595 14.9424C128.595 15.3525 128.797 15.6807 129.201 15.9268C129.436 16.0732 129.781 16.2021 130.238 16.3135L131.284 16.5684C132.421 16.8438 133.183 17.1104 133.569 17.3682C134.185 17.7725 134.492 18.4082 134.492 19.2754C134.492 20.1133 134.173 20.8369 133.534 21.4463C132.901 22.0557 131.935 22.3604 130.634 22.3604C129.233 22.3604 128.24 22.0439 127.654 21.4111C127.074 20.7725 126.764 19.9844 126.723 19.0469H128.243Z" fill="#333333"/>
</svg>
