<svg width="30" height="32" viewBox="0 0 30 32" fill="none" xmlns="http://www.w3.org/2000/svg">
<rect width="30" height="32" rx="4" fill="#BC9A6C"/>
<path d="M21.3438 12.1501C21.3438 12.3064 21.3438 12.4314 21.3438 12.5876C21.3438 16.9314 18.0625 21.9001 12.0312 21.9001C10.1562 21.9001 8.4375 21.3689 7 20.4314C7.25 20.4626 7.5 20.4939 7.78125 20.4939C9.3125 20.4939 10.7188 19.9626 11.8438 19.0876C10.4062 19.0564 9.1875 18.1189 8.78125 16.8064C9 16.8376 9.1875 16.8689 9.40625 16.8689C9.6875 16.8689 10 16.8064 10.25 16.7439C8.75 16.4314 7.625 15.1189 7.625 13.5251V13.4939C8.0625 13.7439 8.59375 13.8689 9.125 13.9001C8.21875 13.3064 7.65625 12.3064 7.65625 11.1814C7.65625 10.5564 7.8125 9.9939 8.09375 9.52515C9.71875 11.4939 12.1562 12.8064 14.875 12.9626C14.8125 12.7126 14.7812 12.4626 14.7812 12.2126C14.7812 10.4001 16.25 8.9314 18.0625 8.9314C19 8.9314 19.8438 9.3064 20.4688 9.96265C21.1875 9.8064 21.9062 9.52515 22.5312 9.15015C22.2812 9.9314 21.7812 10.5564 21.0938 10.9626C21.75 10.9001 22.4062 10.7126 22.9688 10.4626C22.5312 11.1189 21.9688 11.6814 21.3438 12.1501Z" fill="white"/>
</svg>
