<svg width="119" height="119" viewBox="0 0 119 119" fill="none" xmlns="http://www.w3.org/2000/svg">
<g clip-path="url(#clip0_2003_4632)">
<mask id="path-1-inside-1_2003_4632" fill="white">
<path d="M75.4298 46.3239L74.1164 42.3864C74.027 42.118 73.7762 41.9375 73.4931 41.9375H72.6531L71.4894 38.4489C71.4 38.1805 71.1492 38 70.8661 38H47.2232C46.9401 38 46.6893 38.1805 46.5999 38.4489L45.4362 41.9375H44.5962C44.3131 41.9375 44.0629 42.118 43.9729 42.3864L42.6595 46.3239C42.5925 46.524 42.6266 46.7439 42.7501 46.9152C42.8736 47.0864 43.0719 47.1875 43.2827 47.1875H45.3035L47.8819 79.3963C47.9095 79.7375 48.1945 80 48.5367 80H69.5526C69.8948 80 70.1798 79.7375 70.2074 79.3963L72.7858 47.1875H74.8066C75.0174 47.1875 75.2157 47.0864 75.3392 46.9145C75.4627 46.7439 75.4962 46.524 75.4298 46.3239V46.3239ZM69.6052 70.4594H48.4841L47.2074 54.5145H70.8812L69.6052 70.4594ZM49.1429 78.6875L48.5892 71.7719H69.5001L68.9464 78.6875H49.1429ZM70.9869 53.2027H47.1023L46.621 47.1875H71.4683L70.9869 53.2027ZM44.1936 45.875L45.0691 43.25H45.9097C46.1928 43.25 46.4436 43.0695 46.5329 42.8011L47.6967 39.3125H70.3932L71.557 42.8011C71.6463 43.0695 71.8965 43.25 72.1796 43.25H73.0196L73.895 45.875H44.1936Z"/>
</mask>
<path d="M75.4298 46.3239L74.1164 42.3864C74.027 42.118 73.7762 41.9375 73.4931 41.9375H72.6531L71.4894 38.4489C71.4 38.1805 71.1492 38 70.8661 38H47.2232C46.9401 38 46.6893 38.1805 46.5999 38.4489L45.4362 41.9375H44.5962C44.3131 41.9375 44.0629 42.118 43.9729 42.3864L42.6595 46.3239C42.5925 46.524 42.6266 46.7439 42.7501 46.9152C42.8736 47.0864 43.0719 47.1875 43.2827 47.1875H45.3035L47.8819 79.3963C47.9095 79.7375 48.1945 80 48.5367 80H69.5526C69.8948 80 70.1798 79.7375 70.2074 79.3963L72.7858 47.1875H74.8066C75.0174 47.1875 75.2157 47.0864 75.3392 46.9145C75.4627 46.7439 75.4962 46.524 75.4298 46.3239V46.3239ZM69.6052 70.4594H48.4841L47.2074 54.5145H70.8812L69.6052 70.4594ZM49.1429 78.6875L48.5892 71.7719H69.5001L68.9464 78.6875H49.1429ZM70.9869 53.2027H47.1023L46.621 47.1875H71.4683L70.9869 53.2027ZM44.1936 45.875L45.0691 43.25H45.9097C46.1928 43.25 46.4436 43.0695 46.5329 42.8011L47.6967 39.3125H70.3932L71.557 42.8011C71.6463 43.0695 71.8965 43.25 72.1796 43.25H73.0196L73.895 45.875H44.1936Z" fill="#BC9A6C"/>
<path d="M74.1164 42.3864L66.5256 44.9124L66.5275 44.9179L74.1164 42.3864ZM72.6531 41.9375L65.0642 44.469L66.8884 49.9375H72.6531V41.9375ZM71.4894 38.4489L63.8986 40.9749L63.9005 40.9804L71.4894 38.4489ZM46.5999 38.4489L54.1888 40.9804L54.1907 40.9749L46.5999 38.4489ZM45.4362 41.9375V49.9375H51.2009L53.0251 44.469L45.4362 41.9375ZM43.9729 42.3864L36.3878 39.8437L36.3841 39.8548L43.9729 42.3864ZM42.6595 46.3239L50.2459 48.8629L50.2483 48.8554L42.6595 46.3239ZM45.3035 47.1875L53.278 46.5491L52.6887 39.1875H45.3035V47.1875ZM47.8819 79.3963L39.9074 80.0346L39.9079 80.0408L47.8819 79.3963ZM70.2074 79.3963L78.1814 80.0408L78.1819 80.0346L70.2074 79.3963ZM72.7858 47.1875V39.1875H65.4006L64.8113 46.5491L72.7858 47.1875ZM75.3392 46.9145L68.8581 42.2246L68.8496 42.2364L68.8411 42.2482L75.3392 46.9145ZM69.6052 70.4594V78.4594H76.9905L77.5797 71.0976L69.6052 70.4594ZM48.4841 70.4594L40.5097 71.098L41.0991 78.4594H48.4841V70.4594ZM47.2074 54.5145V46.5145H38.5413L39.233 55.1531L47.2074 54.5145ZM70.8812 54.5145L78.8557 55.1527L79.547 46.5145H70.8812V54.5145ZM49.1429 78.6875L41.1684 79.3259L41.7577 86.6875H49.1429V78.6875ZM48.5892 71.7719V63.7719H39.9232L40.6147 72.4104L48.5892 71.7719ZM69.5001 71.7719L77.4746 72.4104L78.1661 63.7719H69.5001V71.7719ZM68.9464 78.6875V86.6875H76.3316L76.9209 79.3259L68.9464 78.6875ZM70.9869 53.2027V61.2027H78.3723L78.9614 53.8409L70.9869 53.2027ZM47.1023 53.2027L39.1278 53.8409L39.717 61.2027H47.1023V53.2027ZM46.621 47.1875V39.1875H37.9551L38.6465 47.8257L46.621 47.1875ZM71.4683 47.1875L79.4428 47.8257L80.1342 39.1875H71.4683V47.1875ZM44.1936 45.875L36.6045 43.344L33.0924 53.875H44.1936V45.875ZM45.0691 43.25V35.25H39.3039L37.48 40.719L45.0691 43.25ZM46.5329 42.8011L38.9441 40.2696L38.9422 40.2751L46.5329 42.8011ZM47.6967 39.3125V31.3125H41.932L40.1078 36.781L47.6967 39.3125ZM70.3932 39.3125L77.9821 36.781L76.1579 31.3125H70.3932V39.3125ZM71.557 42.8011L79.1478 40.2751L79.1459 40.2696L71.557 42.8011ZM73.0196 43.25L80.6087 40.719L78.7847 35.25H73.0196V43.25ZM73.895 45.875V53.875H84.9962L81.4841 43.344L73.895 45.875ZM83.0187 43.7923L81.7052 39.8548L66.5275 44.9179L67.841 48.8554L83.0187 43.7923ZM81.7071 39.8604C80.5268 36.3136 77.2109 33.9375 73.4931 33.9375V49.9375C70.3414 49.9375 67.5272 47.9223 66.5256 44.9124L81.7071 39.8604ZM73.4931 33.9375H72.6531V49.9375H73.4931V33.9375ZM80.242 39.406L79.0783 35.9173L63.9005 40.9804L65.0642 44.469L80.242 39.406ZM79.0801 35.9229C77.8998 32.3761 74.5839 30 70.8661 30V46C67.7145 46 64.9002 43.9848 63.8986 40.9749L79.0801 35.9229ZM70.8661 30H47.2232V46H70.8661V30ZM47.2232 30C43.5054 30 40.1895 32.3761 39.0092 35.9229L54.1907 40.9749C53.1891 43.9848 50.3749 46 47.2232 46V30ZM39.011 35.9173L37.8473 39.406L53.0251 44.469L54.1888 40.9804L39.011 35.9173ZM45.4362 33.9375H44.5962V49.9375H45.4362V33.9375ZM44.5962 33.9375C40.8657 33.9375 37.5678 36.3236 36.3878 39.8437L51.5581 44.9291C50.5581 47.9123 47.7605 49.9375 44.5962 49.9375V33.9375ZM36.3841 39.8548L35.0706 43.7923L50.2483 48.8554L51.5618 44.9179L36.3841 39.8548ZM35.0731 43.7849C34.1818 46.4478 34.644 49.3508 36.2604 51.5932L49.2397 42.2371C50.6092 44.1369 51.0031 46.6003 50.2458 48.8629L35.0731 43.7849ZM36.2604 51.5932C37.8933 53.8584 40.5104 55.1875 43.2827 55.1875V39.1875C45.6334 39.1875 47.8538 40.3145 49.2397 42.2371L36.2604 51.5932ZM43.2827 55.1875H45.3035V39.1875H43.2827V55.1875ZM37.329 47.8259L39.9074 80.0346L55.8564 78.7579L53.278 46.5491L37.329 47.8259ZM39.9079 80.0408C40.2718 84.5423 44.0317 88 48.5367 88V72C52.3574 72 55.5472 74.9327 55.8559 78.7517L39.9079 80.0408ZM48.5367 88H69.5526V72H48.5367V88ZM69.5526 88C74.0576 88 77.8175 84.5423 78.1814 80.0408L62.2334 78.7517C62.5421 74.9327 65.7319 72 69.5526 72V88ZM78.1819 80.0346L80.7603 47.8259L64.8113 46.5491L62.2329 78.7579L78.1819 80.0346ZM72.7858 55.1875H74.8066V39.1875H72.7858V55.1875ZM74.8066 55.1875C77.5817 55.1875 80.2039 53.8554 81.8373 51.5808L68.8411 42.2482C70.2276 40.3175 72.4531 39.1875 74.8066 39.1875V55.1875ZM81.8203 51.6044C83.4602 49.3382 83.8945 46.4348 83.0237 43.8073L67.836 48.8405C67.0979 46.6132 67.4652 44.1495 68.8581 42.2246L81.8203 51.6044ZM69.6052 62.4594H48.4841V78.4594H69.6052V62.4594ZM56.4586 69.8209L55.1819 53.876L39.233 55.1531L40.5097 71.098L56.4586 69.8209ZM47.2074 62.5145H70.8812V46.5145H47.2074V62.5145ZM62.9067 53.8763L61.6306 69.8212L77.5797 71.0976L78.8557 55.1527L62.9067 53.8763ZM57.1174 78.0491L56.5637 71.1335L40.6147 72.4104L41.1684 79.3259L57.1174 78.0491ZM48.5892 79.7719H69.5001V63.7719H48.5892V79.7719ZM61.5256 71.1335L60.9719 78.0491L76.9209 79.3259L77.4746 72.4104L61.5256 71.1335ZM68.9464 70.6875H49.1429V86.6875H68.9464V70.6875ZM70.9869 45.2027H47.1023V61.2027H70.9869V45.2027ZM55.0769 52.5645L54.5955 46.5493L38.6465 47.8257L39.1278 53.8409L55.0769 52.5645ZM46.621 55.1875H71.4683V39.1875H46.621V55.1875ZM63.4938 46.5493L63.0124 52.5645L78.9614 53.8409L79.4428 47.8257L63.4938 46.5493ZM51.7827 48.406L52.6581 45.781L37.48 40.719L36.6045 43.344L51.7827 48.406ZM45.0691 51.25H45.9097V35.25H45.0691V51.25ZM45.9097 51.25C49.6275 51.25 52.9434 48.8739 54.1237 45.3271L38.9422 40.2751C39.9438 37.2652 42.758 35.25 45.9097 35.25V51.25ZM54.1218 45.3327L55.2856 41.844L40.1078 36.781L38.9441 40.2696L54.1218 45.3327ZM47.6967 47.3125H70.3932V31.3125H47.6967V47.3125ZM62.8044 41.844L63.9681 45.3327L79.1459 40.2696L77.9821 36.781L62.8044 41.844ZM63.9663 45.3271C65.1436 48.865 68.4525 51.25 72.1796 51.25V35.25C75.3406 35.25 78.1491 37.274 79.1478 40.2751L63.9663 45.3271ZM72.1796 51.25H73.0196V35.25H72.1796V51.25ZM65.4305 45.781L66.3059 48.406L81.4841 43.344L80.6087 40.719L65.4305 45.781ZM73.895 37.875H44.1936V53.875H73.895V37.875Z" fill="#BC9A6C" mask="url(#path-1-inside-1_2003_4632)"/>
<mask id="path-3-inside-2_2003_4632" fill="white">
<path d="M59.0446 56.375C56.4439 56.375 54.3279 59.1719 54.3279 62.6094C54.3279 66.0468 56.4439 68.8438 59.0446 68.8438C61.6454 68.8438 63.7614 66.0468 63.7614 62.6094C63.7614 59.1719 61.6454 56.375 59.0446 56.375ZM55.6414 62.6094C55.6414 61.4012 55.9448 60.2954 56.4459 59.4384C56.436 59.5657 56.4177 59.6891 56.4177 59.8203C56.4177 61.7523 57.5716 63.2656 59.0446 63.2656C59.7441 63.2656 60.3581 64.2625 60.3581 65.3984C60.3581 66.5344 59.7441 67.5312 59.0446 67.5312C57.1683 67.5312 55.6414 65.3236 55.6414 62.6094ZM61.6434 65.7804C61.6532 65.6531 61.6716 65.5297 61.6716 65.3984C61.6716 63.4664 60.5177 61.9531 59.0446 61.9531C58.3452 61.9531 57.7311 60.9563 57.7311 59.8203C57.7311 58.6843 58.3452 57.6875 59.0446 57.6875C60.921 57.6875 62.4479 59.8951 62.4479 62.6094C62.4479 63.8175 62.1438 64.9233 61.6434 65.7804Z"/>
</mask>
<path d="M59.0446 56.375C56.4439 56.375 54.3279 59.1719 54.3279 62.6094C54.3279 66.0468 56.4439 68.8438 59.0446 68.8438C61.6454 68.8438 63.7614 66.0468 63.7614 62.6094C63.7614 59.1719 61.6454 56.375 59.0446 56.375ZM55.6414 62.6094C55.6414 61.4012 55.9448 60.2954 56.4459 59.4384C56.436 59.5657 56.4177 59.6891 56.4177 59.8203C56.4177 61.7523 57.5716 63.2656 59.0446 63.2656C59.7441 63.2656 60.3581 64.2625 60.3581 65.3984C60.3581 66.5344 59.7441 67.5312 59.0446 67.5312C57.1683 67.5312 55.6414 65.3236 55.6414 62.6094ZM61.6434 65.7804C61.6532 65.6531 61.6716 65.5297 61.6716 65.3984C61.6716 63.4664 60.5177 61.9531 59.0446 61.9531C58.3452 61.9531 57.7311 60.9563 57.7311 59.8203C57.7311 58.6843 58.3452 57.6875 59.0446 57.6875C60.921 57.6875 62.4479 59.8951 62.4479 62.6094C62.4479 63.8175 62.1438 64.9233 61.6434 65.7804Z" fill="#BC9A6C"/>
<path d="M56.4459 59.4384L64.422 60.0556L49.5397 55.4005L56.4459 59.4384ZM61.6434 65.7804L53.6672 65.1632L68.5519 69.8143L61.6434 65.7804ZM59.0446 48.375C54.6836 48.375 51.3283 50.7367 49.3312 53.3764C47.3351 56.0146 46.3279 59.3047 46.3279 62.6094H62.3279C62.3279 62.4766 62.3787 62.6495 62.0908 63.0299C61.8019 63.4118 60.805 64.375 59.0446 64.375V48.375ZM46.3279 62.6094C46.3279 65.9141 47.3351 69.2041 49.3312 71.8424C51.3283 74.482 54.6836 76.8438 59.0446 76.8438V60.8438C60.805 60.8438 61.8019 61.807 62.0908 62.1888C62.3787 62.5693 62.3279 62.7421 62.3279 62.6094H46.3279ZM59.0446 76.8438C63.4057 76.8438 66.761 74.482 68.7581 71.8424C70.7542 69.2041 71.7614 65.9141 71.7614 62.6094H55.7614C55.7614 62.7421 55.7106 62.5693 55.9985 62.1888C56.2874 61.807 57.2843 60.8438 59.0446 60.8438V76.8438ZM71.7614 62.6094C71.7614 59.3047 70.7542 56.0146 68.7581 53.3764C66.761 50.7367 63.4057 48.375 59.0446 48.375V64.375C57.2843 64.375 56.2874 63.4118 55.9985 63.0299C55.7106 62.6495 55.7614 62.4766 55.7614 62.6094H71.7614ZM63.6414 62.6094C63.6414 62.6714 63.634 62.7675 63.6001 62.8984C63.5672 63.0254 63.4988 63.2254 63.3521 63.4762L49.5397 55.4005C48.2619 57.586 47.6414 60.1067 47.6414 62.6094H63.6414ZM48.4697 58.8212C48.474 58.7667 48.4777 58.7308 48.476 58.748C48.4727 58.7811 48.4766 58.7415 48.4715 58.7929C48.4692 58.8159 48.4657 58.8515 48.4619 58.8928C48.4476 59.0482 48.4177 59.3933 48.4177 59.8203H64.4177C64.4177 59.9737 64.4123 60.1007 64.407 60.1916C64.4017 60.2804 64.3959 60.3444 64.3942 60.3629C64.3933 60.3726 64.3929 60.3767 64.3938 60.3682C64.3942 60.3638 64.3947 60.3592 64.3955 60.3503C64.3963 60.3425 64.3975 60.331 64.3987 60.3186C64.4032 60.2728 64.4129 60.1737 64.422 60.0556L48.4697 58.8212ZM48.4177 59.8203C48.4177 64.0208 51.2738 71.2656 59.0446 71.2656V55.2656C61.2586 55.2656 62.7986 56.444 63.5404 57.4168C64.2536 58.3521 64.4177 59.2479 64.4177 59.8203H48.4177ZM59.0446 71.2656C55.407 71.2656 53.5936 68.8184 53.152 68.1014C52.5488 67.122 52.3581 66.1782 52.3581 65.3984H68.3581C68.3581 63.4827 67.8605 61.4725 66.7754 59.7107C65.8518 58.2112 63.3817 55.2656 59.0446 55.2656V71.2656ZM52.3581 65.3984C52.3581 64.6186 52.5488 63.6749 53.152 62.6955C53.5936 61.9784 55.407 59.5312 59.0446 59.5312V75.5312C63.3817 75.5312 65.8518 72.5857 66.7754 71.0862C67.8605 69.3243 68.3581 67.3142 68.3581 65.3984H52.3581ZM59.0446 59.5312C61.486 59.5312 62.8282 60.9723 63.2193 61.538C63.6358 62.1403 63.6414 62.5417 63.6414 62.6094H47.6414C47.6414 65.3913 48.4104 68.2537 50.0594 70.6383C51.6832 72.9864 54.727 75.5312 59.0446 75.5312V59.5312ZM69.6196 66.3976C69.6153 66.4521 69.6116 66.488 69.6133 66.4708C69.6166 66.4376 69.6127 66.4772 69.6178 66.4258C69.6201 66.4028 69.6236 66.3672 69.6274 66.326C69.6417 66.1705 69.6716 65.8255 69.6716 65.3984H53.6716C53.6716 65.2451 53.677 65.1181 53.6823 65.0271C53.6875 64.9384 53.6933 64.8743 53.6951 64.8558C53.6959 64.8461 53.6964 64.842 53.6955 64.8506C53.6951 64.8549 53.6946 64.8595 53.6937 64.8685C53.693 64.8762 53.6918 64.8878 53.6906 64.9001C53.6861 64.9459 53.6764 65.045 53.6672 65.1632L69.6196 66.3976ZM69.6716 65.3984C69.6716 61.1979 66.8155 53.9531 59.0446 53.9531V69.9531C56.8307 69.9531 55.2906 68.7748 54.5489 67.802C53.8357 66.8667 53.6716 65.9708 53.6716 65.3984H69.6716ZM59.0446 53.9531C62.6823 53.9531 64.4957 56.4003 64.9373 57.1174C65.5405 58.0968 65.7311 59.0405 65.7311 59.8203H49.7311C49.7311 61.7361 50.2288 63.7462 51.3139 65.508C52.2374 67.0075 54.7076 69.9531 59.0446 69.9531V53.9531ZM65.7311 59.8203C65.7311 60.6001 65.5405 61.5438 64.9373 62.5232C64.4957 63.2403 62.6823 65.6875 59.0446 65.6875V49.6875C54.7076 49.6875 52.2374 52.6331 51.3139 54.1326C50.2288 55.8944 49.7311 57.9045 49.7311 59.8203H65.7311ZM59.0446 65.6875C56.6033 65.6875 55.2611 64.2465 54.8699 63.6808C54.4534 63.0785 54.4479 62.6771 54.4479 62.6094H70.4479C70.4479 59.8274 69.6789 56.9651 68.0299 54.5804C66.4061 52.2323 63.3623 49.6875 59.0446 49.6875V65.6875ZM54.4479 62.6094C54.4479 62.5458 54.4555 62.4494 54.4893 62.3192C54.522 62.193 54.5898 61.9949 54.7349 61.7465L68.5519 69.8143C69.8252 67.6337 70.4479 65.1155 70.4479 62.6094H54.4479Z" fill="#BC9A6C" mask="url(#path-3-inside-2_2003_4632)"/>
<path d="M52.5367 42.5938C52.5367 42.8184 52.5146 43.0379 52.4724 43.25H49.855C49.8128 43.0379 49.7907 42.8184 49.7907 42.5938C49.7907 42.3691 49.8128 42.1496 49.855 41.9375H52.4724C52.5146 42.1496 52.5367 42.3691 52.5367 42.5938Z" fill="#BC9A6C" stroke="#BC9A6C" stroke-width="8"/>
<mask id="path-6-inside-3_2003_4632" fill="white">
<path d="M68.2392 41.9375H58.3879C58.0254 41.9375 57.7312 42.2315 57.7312 42.5938C57.7312 42.956 58.0254 43.25 58.3879 43.25H68.2392C68.6017 43.25 68.8959 42.956 68.8959 42.5938C68.8959 42.2315 68.6017 41.9375 68.2392 41.9375Z"/>
</mask>
<path d="M68.2392 41.9375H58.3879C58.0254 41.9375 57.7312 42.2315 57.7312 42.5938C57.7312 42.956 58.0254 43.25 58.3879 43.25H68.2392C68.6017 43.25 68.8959 42.956 68.8959 42.5938C68.8959 42.2315 68.6017 41.9375 68.2392 41.9375Z" fill="#BC9A6C"/>
<path d="M68.2392 33.9375H58.3879V49.9375H68.2392V33.9375ZM58.3879 33.9375C53.6129 33.9375 49.7312 37.8075 49.7312 42.5938H65.7312C65.7312 46.6555 62.438 49.9375 58.3879 49.9375V33.9375ZM49.7312 42.5938C49.7312 47.38 53.6129 51.25 58.3879 51.25V35.25C62.438 35.25 65.7312 38.532 65.7312 42.5938H49.7312ZM58.3879 51.25H68.2392V35.25H58.3879V51.25ZM68.2392 51.25C73.0142 51.25 76.8959 47.38 76.8959 42.5938H60.8959C60.8959 38.532 64.1891 35.25 68.2392 35.25V51.25ZM76.8959 42.5938C76.8959 37.8075 73.0142 33.9375 68.2392 33.9375V49.9375C64.1891 49.9375 60.8959 46.6555 60.8959 42.5938H76.8959Z" fill="#BC9A6C" mask="url(#path-6-inside-3_2003_4632)"/>
</g>
<path fill-rule="evenodd" clip-rule="evenodd" d="M89.3203 26.7832C96.4738 34.3492 94.4152 45.9913 94.2598 56.3831C94.1 67.0667 95.333 78.5105 88.4251 86.6444C80.908 95.4958 69.1496 99.6224 57.5155 99.6492C45.4266 99.6769 33.1432 95.7886 25.0479 86.7899C17.0756 77.9279 14.2397 65.3567 16.0981 53.6095C17.7683 43.0522 25.7288 35.1492 34.2388 28.694C41.7418 23.0026 50.6618 20.568 60.0886 20.241C70.4546 19.8814 82.1845 19.2359 89.3203 26.7832Z" stroke="#BC9A6C"/>
<defs>
<clipPath id="clip0_2003_4632">
<rect width="42.0318" height="42" fill="white" transform="translate(38.0287 38)"/>
</clipPath>
</defs>
</svg>
