<svg width="34" height="42" viewBox="0 0 34 42" fill="none" xmlns="http://www.w3.org/2000/svg">
<mask id="path-1-inside-1_2003_4634" fill="white">
<path d="M33.4298 8.32388L32.1164 4.38638C32.027 4.11797 31.7762 3.9375 31.4931 3.9375H30.6531L29.4894 0.448875C29.4 0.180469 29.1492 0 28.8661 0H5.22319C4.94013 0 4.68925 0.180469 4.59994 0.448875L3.43618 3.9375H2.5962C2.31314 3.9375 2.06292 4.11797 1.97295 4.38638L0.659451 8.32388C0.592463 8.52403 0.626614 8.74388 0.750083 8.91516C0.873551 9.08644 1.07189 9.1875 1.2827 9.1875H3.30352L5.88191 41.3963C5.90949 41.7375 6.19452 42 6.53669 42H27.5526C27.8948 42 28.1798 41.7375 28.2074 41.3963L30.7858 9.1875H32.8066C33.0174 9.1875 33.2157 9.08644 33.3392 8.9145C33.4627 8.74387 33.4962 8.52403 33.4298 8.32388V8.32388ZM27.6052 32.4594H6.48415L5.20743 16.5145H28.8812L27.6052 32.4594ZM7.14286 40.6875L6.58923 33.7719H27.5001L26.9464 40.6875H7.14286ZM28.9869 15.2027H5.10235L4.62095 9.1875H29.4683L28.9869 15.2027ZM2.19361 7.875L3.06906 5.25H3.9097C4.19275 5.25 4.44363 5.06953 4.53295 4.80112L5.69671 1.3125H28.3932L29.557 4.80112C29.6463 5.06953 29.8965 5.25 30.1796 5.25H31.0196L31.895 7.875H2.19361Z"/>
</mask>
<path d="M33.4298 8.32388L32.1164 4.38638C32.027 4.11797 31.7762 3.9375 31.4931 3.9375H30.6531L29.4894 0.448875C29.4 0.180469 29.1492 0 28.8661 0H5.22319C4.94013 0 4.68925 0.180469 4.59994 0.448875L3.43618 3.9375H2.5962C2.31314 3.9375 2.06292 4.11797 1.97295 4.38638L0.659451 8.32388C0.592463 8.52403 0.626614 8.74388 0.750083 8.91516C0.873551 9.08644 1.07189 9.1875 1.2827 9.1875H3.30352L5.88191 41.3963C5.90949 41.7375 6.19452 42 6.53669 42H27.5526C27.8948 42 28.1798 41.7375 28.2074 41.3963L30.7858 9.1875H32.8066C33.0174 9.1875 33.2157 9.08644 33.3392 8.9145C33.4627 8.74387 33.4962 8.52403 33.4298 8.32388V8.32388ZM27.6052 32.4594H6.48415L5.20743 16.5145H28.8812L27.6052 32.4594ZM7.14286 40.6875L6.58923 33.7719H27.5001L26.9464 40.6875H7.14286ZM28.9869 15.2027H5.10235L4.62095 9.1875H29.4683L28.9869 15.2027ZM2.19361 7.875L3.06906 5.25H3.9097C4.19275 5.25 4.44363 5.06953 4.53295 4.80112L5.69671 1.3125H28.3932L29.557 4.80112C29.6463 5.06953 29.8965 5.25 30.1796 5.25H31.0196L31.895 7.875H2.19361Z" fill="#BC9A6C"/>
<path d="M32.1164 4.38638L24.5256 6.91235L24.5275 6.91792L32.1164 4.38638ZM30.6531 3.9375L23.0642 6.46905L24.8884 11.9375H30.6531V3.9375ZM29.4894 0.448875L21.8986 2.97485L21.9005 2.98042L29.4894 0.448875ZM4.59994 0.448875L12.1888 2.98042L12.1907 2.97485L4.59994 0.448875ZM3.43618 3.9375V11.9375H9.20087L11.0251 6.46905L3.43618 3.9375ZM1.97295 4.38638L-5.61223 1.84369L-5.61594 1.85483L1.97295 4.38638ZM0.659451 8.32388L8.24585 10.8629L8.24834 10.8554L0.659451 8.32388ZM3.30352 9.1875L11.278 8.54912L10.6887 1.1875H3.30352V9.1875ZM5.88191 41.3963L-2.09258 42.0346L-2.09208 42.0408L5.88191 41.3963ZM28.2074 41.3963L36.1814 42.0408L36.1819 42.0346L28.2074 41.3963ZM30.7858 9.1875V1.1875H23.4006L22.8113 8.54912L30.7858 9.1875ZM33.3392 8.9145L26.8581 4.2246L26.8496 4.23638L26.8411 4.24819L33.3392 8.9145ZM27.6052 32.4594V40.4594H34.9905L35.5797 33.0976L27.6052 32.4594ZM6.48415 32.4594L-1.49033 33.098L-0.900893 40.4594H6.48415V32.4594ZM5.20743 16.5145V8.51453H-3.45874L-2.76705 17.1531L5.20743 16.5145ZM28.8812 16.5145L36.8557 17.1527L37.547 8.51453H28.8812V16.5145ZM7.14286 40.6875L-0.831622 41.3259L-0.242276 48.6875H7.14286V40.6875ZM6.58923 33.7719V25.7719H-2.07683L-1.38526 34.4104L6.58923 33.7719ZM27.5001 33.7719L35.4746 34.4104L36.1661 25.7719H27.5001V33.7719ZM26.9464 40.6875V48.6875H34.3316L34.9209 41.3259L26.9464 40.6875ZM28.9869 15.2027V23.2027H36.3723L36.9614 15.8409L28.9869 15.2027ZM5.10235 15.2027L-2.87215 15.8409L-2.28299 23.2027H5.10235V15.2027ZM4.62095 9.1875V1.1875H-4.04487L-3.35355 9.8257L4.62095 9.1875ZM29.4683 9.1875L37.4428 9.8257L38.1342 1.1875L29.4683 1.1875V9.1875ZM2.19361 7.875L-5.39547 5.34402L-8.90758 15.875H2.19361V7.875ZM3.06906 5.25V-2.75H-2.69609L-4.52002 2.71902L3.06906 5.25ZM4.53295 4.80112L-3.05594 2.26958L-3.0578 2.27515L4.53295 4.80112ZM5.69671 1.3125V-6.6875H-0.0679863L-1.89219 -1.21905L5.69671 1.3125ZM28.3932 1.3125L35.9821 -1.21905L34.1579 -6.6875H28.3932V1.3125ZM29.557 4.80112L37.1478 2.27515L37.1459 2.26958L29.557 4.80112ZM31.0196 5.25L38.6087 2.71902L36.7847 -2.75H31.0196V5.25ZM31.895 7.875V15.875H42.9962L39.4841 5.34402L31.895 7.875ZM41.0187 5.79233L39.7052 1.85483L24.5275 6.91792L25.841 10.8554L41.0187 5.79233ZM39.7071 1.8604C38.5268 -1.6864 35.2109 -4.0625 31.4931 -4.0625V11.9375C28.3414 11.9375 25.5272 9.92234 24.5256 6.91235L39.7071 1.8604ZM31.4931 -4.0625H30.6531V11.9375H31.4931V-4.0625ZM38.242 1.40595L37.0783 -2.08267L21.9005 2.98042L23.0642 6.46905L38.242 1.40595ZM37.0801 -2.0771C35.8998 -5.6239 32.5839 -8 28.8661 -8V8C25.7145 8 22.9002 5.98484 21.8986 2.97485L37.0801 -2.0771ZM28.8661 -8H5.22319V8H28.8661V-8ZM5.22319 -8C1.50541 -8 -1.81054 -5.6239 -2.99081 -2.0771L12.1907 2.97485C11.1891 5.98483 8.37485 8 5.22319 8V-8ZM-2.98895 -2.08267L-4.15271 1.40595L11.0251 6.46905L12.1888 2.98042L-2.98895 -2.08267ZM3.43618 -4.0625H2.5962V11.9375H3.43618V-4.0625ZM2.5962 -4.0625C-1.13425 -4.0625 -4.43223 -1.67638 -5.61222 1.8437L9.55811 6.92905C8.55807 9.91232 5.76053 11.9375 2.5962 11.9375V-4.0625ZM-5.61594 1.85483L-6.92944 5.79233L8.24834 10.8554L9.56184 6.91792L-5.61594 1.85483ZM-6.92694 5.78486C-7.81817 8.44779 -7.35602 11.3508 -5.73957 13.5932L7.23973 4.23707C8.60925 6.13693 9.0031 8.60027 8.24585 10.8629L-6.92694 5.78486ZM-5.73957 13.5932C-4.10671 15.8584 -1.48964 17.1875 1.2827 17.1875V1.1875C3.63341 1.1875 5.85381 2.31447 7.23973 4.23707L-5.73957 13.5932ZM1.2827 17.1875H3.30352V1.1875H1.2827V17.1875ZM-4.67097 9.82588L-2.09258 42.0346L13.8564 40.7579L11.278 8.54912L-4.67097 9.82588ZM-2.09208 42.0408C-1.72822 46.5423 2.03166 50 6.53669 50V34C10.3574 34 13.5472 36.9327 13.8559 40.7517L-2.09208 42.0408ZM6.53669 50H27.5526V34H6.53669V50ZM27.5526 50C32.0576 50 35.8175 46.5423 36.1814 42.0408L20.2334 40.7517C20.5421 36.9327 23.7319 34 27.5526 34V50ZM36.1819 42.0346L38.7603 9.82588L22.8113 8.54912L20.2329 40.7579L36.1819 42.0346ZM30.7858 17.1875H32.8066V1.1875H30.7858V17.1875ZM32.8066 17.1875C35.5817 17.1875 38.2039 15.8554 39.8373 13.5808L26.8411 4.24819C28.2276 2.31745 30.4531 1.1875 32.8066 1.1875V17.1875ZM39.8203 13.6044C41.4602 11.3382 41.8945 8.43484 41.0237 5.80728L25.836 10.8405C25.0979 8.61322 25.4652 6.14951 26.8581 4.2246L39.8203 13.6044ZM27.6052 24.4594H6.48415V40.4594H27.6052V24.4594ZM14.4586 31.8209L13.1819 15.876L-2.76705 17.1531L-1.49033 33.098L14.4586 31.8209ZM5.20743 24.5145H28.8812V8.51453H5.20743V24.5145ZM20.9067 15.8763L19.6306 31.8212L35.5797 33.0976L36.8557 17.1527L20.9067 15.8763ZM15.1174 40.0491L14.5637 33.1335L-1.38526 34.4104L-0.831622 41.3259L15.1174 40.0491ZM6.58923 41.7719H27.5001V25.7719H6.58923V41.7719ZM19.5256 33.1335L18.9719 40.0491L34.9209 41.3259L35.4746 34.4104L19.5256 33.1335ZM26.9464 32.6875H7.14286V48.6875H26.9464V32.6875ZM28.9869 7.20269H5.10235V23.2027H28.9869V7.20269ZM13.0769 14.5645L12.5955 8.5493L-3.35355 9.8257L-2.87215 15.8409L13.0769 14.5645ZM4.62095 17.1875H29.4683V1.1875H4.62095V17.1875ZM21.4938 8.5493L21.0124 14.5645L36.9614 15.8409L37.4428 9.8257L21.4938 8.5493ZM9.78269 10.406L10.6581 7.78098L-4.52002 2.71902L-5.39547 5.34402L9.78269 10.406ZM3.06906 13.25H3.9097V-2.75H3.06906V13.25ZM3.9097 13.25C7.62747 13.25 10.9434 10.8739 12.1237 7.3271L-3.0578 2.27515C-2.05616 -0.734833 0.758036 -2.75 3.9097 -2.75V13.25ZM12.1218 7.33267L13.2856 3.84405L-1.89219 -1.21905L-3.05594 2.26958L12.1218 7.33267ZM5.69671 9.3125H28.3932V-6.6875H5.69671V9.3125ZM20.8044 3.84405L21.9681 7.33267L37.1459 2.26958L35.9821 -1.21905L20.8044 3.84405ZM21.9663 7.3271C23.1436 10.865 26.4525 13.25 30.1796 13.25V-2.75C33.3406 -2.75 36.1491 -0.725952 37.1478 2.27515L21.9663 7.3271ZM30.1796 13.25H31.0196V-2.75H30.1796V13.25ZM23.4305 7.78098L24.3059 10.406L39.4841 5.34402L38.6087 2.71902L23.4305 7.78098ZM31.895 -0.125H2.19361V15.875H31.895V-0.125Z" fill="#BC9A6C" mask="url(#path-1-inside-1_2003_4634)"/>
<mask id="path-3-inside-2_2003_4634" fill="white">
<path d="M17.0446 18.375C14.4439 18.375 12.3279 21.1719 12.3279 24.6094C12.3279 28.0468 14.4439 30.8438 17.0446 30.8438C19.6454 30.8438 21.7614 28.0468 21.7614 24.6094C21.7614 21.1719 19.6454 18.375 17.0446 18.375ZM13.6414 24.6094C13.6414 23.4012 13.9448 22.2954 14.4459 21.4384C14.436 21.5657 14.4177 21.6891 14.4177 21.8203C14.4177 23.7523 15.5716 25.2656 17.0446 25.2656C17.7441 25.2656 18.3581 26.2625 18.3581 27.3984C18.3581 28.5344 17.7441 29.5312 17.0446 29.5312C15.1683 29.5312 13.6414 27.3236 13.6414 24.6094ZM19.6434 27.7804C19.6532 27.6531 19.6716 27.5297 19.6716 27.3984C19.6716 25.4664 18.5177 23.9531 17.0446 23.9531C16.3452 23.9531 15.7311 22.9563 15.7311 21.8203C15.7311 20.6843 16.3452 19.6875 17.0446 19.6875C18.921 19.6875 20.4479 21.8951 20.4479 24.6094C20.4479 25.8175 20.1438 26.9233 19.6434 27.7804Z"/>
</mask>
<path d="M17.0446 18.375C14.4439 18.375 12.3279 21.1719 12.3279 24.6094C12.3279 28.0468 14.4439 30.8438 17.0446 30.8438C19.6454 30.8438 21.7614 28.0468 21.7614 24.6094C21.7614 21.1719 19.6454 18.375 17.0446 18.375ZM13.6414 24.6094C13.6414 23.4012 13.9448 22.2954 14.4459 21.4384C14.436 21.5657 14.4177 21.6891 14.4177 21.8203C14.4177 23.7523 15.5716 25.2656 17.0446 25.2656C17.7441 25.2656 18.3581 26.2625 18.3581 27.3984C18.3581 28.5344 17.7441 29.5312 17.0446 29.5312C15.1683 29.5312 13.6414 27.3236 13.6414 24.6094ZM19.6434 27.7804C19.6532 27.6531 19.6716 27.5297 19.6716 27.3984C19.6716 25.4664 18.5177 23.9531 17.0446 23.9531C16.3452 23.9531 15.7311 22.9563 15.7311 21.8203C15.7311 20.6843 16.3452 19.6875 17.0446 19.6875C18.921 19.6875 20.4479 21.8951 20.4479 24.6094C20.4479 25.8175 20.1438 26.9233 19.6434 27.7804Z" fill="#BC9A6C"/>
<path d="M14.4459 21.4384L22.422 22.0556L7.53968 17.4005L14.4459 21.4384ZM19.6434 27.7804L11.6672 27.1632L26.5519 31.8143L19.6434 27.7804ZM17.0446 10.375C12.6836 10.375 9.32825 12.7367 7.33116 15.3764C5.33513 18.0146 4.32788 21.3047 4.32788 24.6094H20.3279C20.3279 24.4766 20.3787 24.6495 20.0908 25.0299C19.8019 25.4118 18.805 26.375 17.0446 26.375V10.375ZM4.32788 24.6094C4.32788 27.9141 5.33513 31.2041 7.33116 33.8424C9.32825 36.482 12.6836 38.8438 17.0446 38.8438V22.8438C18.805 22.8438 19.8019 23.807 20.0908 24.1888C20.3787 24.5693 20.3279 24.7421 20.3279 24.6094H4.32788ZM17.0446 38.8438C21.4057 38.8438 24.761 36.482 26.7581 33.8424C28.7542 31.2041 29.7614 27.9141 29.7614 24.6094H13.7614C13.7614 24.7421 13.7106 24.5693 13.9985 24.1888C14.2874 23.807 15.2843 22.8438 17.0446 22.8438V38.8438ZM29.7614 24.6094C29.7614 21.3047 28.7542 18.0146 26.7581 15.3764C24.761 12.7367 21.4057 10.375 17.0446 10.375V26.375C15.2843 26.375 14.2874 25.4118 13.9985 25.0299C13.7106 24.6495 13.7614 24.4766 13.7614 24.6094H29.7614ZM21.6414 24.6094C21.6414 24.6714 21.634 24.7675 21.6001 24.8984C21.5672 25.0254 21.4988 25.2254 21.3521 25.4762L7.53968 17.4005C6.26192 19.586 5.64138 22.1067 5.64138 24.6094H21.6414ZM6.46973 20.8212C6.47395 20.7667 6.47766 20.7308 6.47596 20.748C6.47269 20.7811 6.47658 20.7415 6.47149 20.7929C6.46922 20.8159 6.46573 20.8515 6.46192 20.8928C6.44758 21.0482 6.41765 21.3933 6.41765 21.8203H22.4177C22.4177 21.9737 22.4123 22.1007 22.407 22.1916C22.4017 22.2804 22.3959 22.3444 22.3942 22.3629C22.3933 22.3726 22.3929 22.3767 22.3938 22.3682C22.3942 22.3638 22.3947 22.3592 22.3955 22.3503C22.3963 22.3425 22.3975 22.331 22.3987 22.3186C22.4032 22.2728 22.4129 22.1737 22.422 22.0556L6.46973 20.8212ZM6.41765 21.8203C6.41765 26.0208 9.27379 33.2656 17.0446 33.2656V17.2656C19.2586 17.2656 20.7986 18.444 21.5404 19.4168C22.2536 20.3521 22.4177 21.2479 22.4177 21.8203H6.41765ZM17.0446 33.2656C13.407 33.2656 11.5936 30.8184 11.152 30.1014C10.5488 29.122 10.3581 28.1782 10.3581 27.3984H26.3581C26.3581 25.4827 25.8605 23.4725 24.7754 21.7107C23.8518 20.2112 21.3817 17.2656 17.0446 17.2656V33.2656ZM10.3581 27.3984C10.3581 26.6186 10.5488 25.6749 11.152 24.6955C11.5936 23.9784 13.407 21.5312 17.0446 21.5312V37.5312C21.3817 37.5312 23.8518 34.5857 24.7754 33.0862C25.8605 31.3243 26.3581 29.3142 26.3581 27.3984H10.3581ZM17.0446 21.5312C19.486 21.5312 20.8282 22.9723 21.2193 23.538C21.6358 24.1403 21.6414 24.5417 21.6414 24.6094H5.64138C5.64138 27.3913 6.41037 30.2537 8.05943 32.6383C9.68317 34.9864 12.727 37.5312 17.0446 37.5312V21.5312ZM27.6196 28.3976C27.6153 28.4521 27.6116 28.488 27.6133 28.4708C27.6166 28.4376 27.6127 28.4772 27.6178 28.4258C27.6201 28.4028 27.6236 28.3672 27.6274 28.326C27.6417 28.1705 27.6716 27.8255 27.6716 27.3984H11.6716C11.6716 27.2451 11.677 27.1181 11.6823 27.0271C11.6875 26.9384 11.6933 26.8743 11.6951 26.8558C11.6959 26.8461 11.6964 26.842 11.6955 26.8506C11.6951 26.8549 11.6946 26.8595 11.6937 26.8685C11.693 26.8762 11.6918 26.8878 11.6906 26.9001C11.6861 26.9459 11.6764 27.045 11.6672 27.1632L27.6196 28.3976ZM27.6716 27.3984C27.6716 23.1979 24.8155 15.9531 17.0446 15.9531V31.9531C14.8307 31.9531 13.2906 30.7748 12.5489 29.802C11.8357 28.8667 11.6716 27.9708 11.6716 27.3984H27.6716ZM17.0446 15.9531C20.6823 15.9531 22.4957 18.4003 22.9373 19.1174C23.5405 20.0968 23.7311 21.0405 23.7311 21.8203H7.73115C7.73115 23.7361 8.2288 25.7462 9.31391 27.508C10.2374 29.0075 12.7076 31.9531 17.0446 31.9531V15.9531ZM23.7311 21.8203C23.7311 22.6001 23.5405 23.5438 22.9373 24.5232C22.4957 25.2403 20.6823 27.6875 17.0446 27.6875V11.6875C12.7076 11.6875 10.2374 14.6331 9.31391 16.1326C8.2288 17.8944 7.73115 19.9045 7.73115 21.8203H23.7311ZM17.0446 27.6875C14.6033 27.6875 13.2611 26.2465 12.8699 25.6808C12.4534 25.0785 12.4479 24.6771 12.4479 24.6094H28.4479C28.4479 21.8274 27.6789 18.9651 26.0299 16.5804C24.4061 14.2323 21.3623 11.6875 17.0446 11.6875V27.6875ZM12.4479 24.6094C12.4479 24.5458 12.4555 24.4494 12.4893 24.3192C12.522 24.193 12.5898 23.9949 12.7349 23.7465L26.5519 31.8143C27.8252 29.6337 28.4479 27.1155 28.4479 24.6094H12.4479Z" fill="#BC9A6C" mask="url(#path-3-inside-2_2003_4634)"/>
<path d="M10.5367 4.59375C10.5367 4.81843 10.5146 5.03786 10.4724 5.25H7.85502C7.81285 5.03786 7.79072 4.81843 7.79072 4.59375C7.79072 4.36907 7.81285 4.14964 7.85502 3.9375L10.4724 3.9375C10.5146 4.14964 10.5367 4.36907 10.5367 4.59375Z" fill="#BC9A6C" stroke="#BC9A6C" stroke-width="8"/>
<mask id="path-6-inside-3_2003_4634" fill="white">
<path d="M26.2392 3.9375H16.3879C16.0254 3.9375 15.7312 4.2315 15.7312 4.59375C15.7312 4.956 16.0254 5.25 16.3879 5.25H26.2392C26.6017 5.25 26.8959 4.956 26.8959 4.59375C26.8959 4.2315 26.6017 3.9375 26.2392 3.9375Z"/>
</mask>
<path d="M26.2392 3.9375H16.3879C16.0254 3.9375 15.7312 4.2315 15.7312 4.59375C15.7312 4.956 16.0254 5.25 16.3879 5.25H26.2392C26.6017 5.25 26.8959 4.956 26.8959 4.59375C26.8959 4.2315 26.6017 3.9375 26.2392 3.9375Z" fill="#BC9A6C"/>
<path d="M26.2392 -4.0625H16.3879V11.9375H26.2392V-4.0625ZM16.3879 -4.0625C11.6129 -4.0625 7.7312 -0.192492 7.7312 4.59375H23.7312C23.7312 8.65549 20.438 11.9375 16.3879 11.9375V-4.0625ZM7.7312 4.59375C7.7312 9.37999 11.6129 13.25 16.3879 13.25V-2.75C20.438 -2.75 23.7312 0.532008 23.7312 4.59375H7.7312ZM16.3879 13.25H26.2392V-2.75H16.3879V13.25ZM26.2392 13.25C31.0142 13.25 34.8959 9.37999 34.8959 4.59375H18.8959C18.8959 0.532008 22.1891 -2.75 26.2392 -2.75V13.25ZM34.8959 4.59375C34.8959 -0.192492 31.0142 -4.0625 26.2392 -4.0625V11.9375C22.1891 11.9375 18.8959 8.65549 18.8959 4.59375H34.8959Z" fill="#BC9A6C" mask="url(#path-6-inside-3_2003_4634)"/>
</svg>
