<svg width="1169" height="113" viewBox="0 0 1169 113" fill="none" xmlns="http://www.w3.org/2000/svg">
<path d="M1165 0H714C711.791 0 710 1.79086 710 4V51.8642C710 54.0734 711.791 55.8642 714 55.8642H1165C1167.21 55.8642 1169 54.0734 1169 51.8642V4C1169 1.79086 1167.21 0 1165 0Z" fill="#FF9F0D"/>
<path d="M1165 0H1010C1007.79 0 1006 1.79086 1006 4V51.8642C1006 54.0734 1007.79 55.8642 1010 55.8642H1165C1167.21 55.8642 1169 54.0734 1169 51.8642V4C1169 1.79086 1167.21 0 1165 0Z" fill="white"/>
<path d="M1037.77 25.2339C1037.7 24.6582 1037.43 24.2112 1036.94 23.893C1036.46 23.5748 1035.86 23.4157 1035.16 23.4157C1034.64 23.4157 1034.19 23.4991 1033.81 23.6657C1033.42 23.8324 1033.13 24.0616 1032.91 24.3532C1032.7 24.6449 1032.59 24.9763 1032.59 25.3475C1032.59 25.6582 1032.66 25.9252 1032.81 26.1487C1032.96 26.3684 1033.16 26.5521 1033.39 26.6998C1033.63 26.8438 1033.87 26.9631 1034.13 27.0578C1034.39 27.1487 1034.62 27.2225 1034.84 27.2794L1036.02 27.5975C1036.33 27.6771 1036.66 27.7869 1037.03 27.9271C1037.41 28.0672 1037.77 28.2585 1038.11 28.501C1038.45 28.7396 1038.74 29.0464 1038.96 29.4214C1039.18 29.7964 1039.3 30.2566 1039.3 30.8021C1039.3 31.4309 1039.13 31.9991 1038.8 32.5066C1038.48 33.0142 1038 33.4176 1037.37 33.7169C1036.74 34.0161 1035.98 34.1657 1035.09 34.1657C1034.26 34.1657 1033.54 34.0313 1032.93 33.7623C1032.32 33.4934 1031.84 33.1184 1031.49 32.6373C1031.15 32.1563 1030.95 31.5975 1030.91 30.9612H1032.36C1032.4 31.4006 1032.55 31.7642 1032.81 32.0521C1033.07 32.3362 1033.4 32.5483 1033.8 32.6885C1034.2 32.8248 1034.63 32.893 1035.09 32.893C1035.63 32.893 1036.11 32.8059 1036.54 32.6316C1036.97 32.4536 1037.31 32.2074 1037.56 31.893C1037.81 31.5748 1037.93 31.2036 1037.93 30.7794C1037.93 30.393 1037.82 30.0786 1037.61 29.8362C1037.39 29.5938 1037.11 29.3968 1036.76 29.2453C1036.4 29.0938 1036.02 28.9612 1035.61 28.8475L1034.18 28.4385C1033.27 28.1771 1032.55 27.804 1032.02 27.3191C1031.49 26.8343 1031.23 26.1998 1031.23 25.4157C1031.23 24.7642 1031.4 24.196 1031.76 23.7112C1032.11 23.2225 1032.59 22.8438 1033.19 22.5748C1033.79 22.3021 1034.46 22.1657 1035.2 22.1657C1035.95 22.1657 1036.62 22.3002 1037.2 22.5691C1037.79 22.8343 1038.25 23.1979 1038.59 23.66C1038.94 24.1222 1039.12 24.6468 1039.14 25.2339H1037.77ZM1046.93 30.393V25.2339H1048.27V33.9612H1046.93V32.4839H1046.84C1046.63 32.9271 1046.32 33.304 1045.88 33.6146C1045.45 33.9214 1044.91 34.0748 1044.25 34.0748C1043.7 34.0748 1043.22 33.9555 1042.79 33.7169C1042.37 33.4744 1042.04 33.1108 1041.79 32.626C1041.55 32.1373 1041.43 31.5218 1041.43 30.7794V25.2339H1042.77V30.6885C1042.77 31.3248 1042.95 31.8324 1043.31 32.2112C1043.67 32.59 1044.12 32.7794 1044.68 32.7794C1045.01 32.7794 1045.35 32.6941 1045.7 32.5237C1046.05 32.3532 1046.34 32.0919 1046.57 31.7396C1046.81 31.3873 1046.93 30.9385 1046.93 30.393ZM1050.91 33.9612V22.3248H1052.25V26.6203H1052.36C1052.46 26.4688 1052.6 26.2756 1052.77 26.0407C1052.95 25.8021 1053.2 25.59 1053.53 25.4044C1053.87 25.215 1054.32 25.1203 1054.89 25.1203C1055.62 25.1203 1056.27 25.304 1056.83 25.6714C1057.39 26.0388 1057.83 26.5597 1058.14 27.2339C1058.46 27.9082 1058.61 28.7036 1058.61 29.6203C1058.61 30.5445 1058.46 31.3457 1058.14 32.0237C1057.83 32.6979 1057.39 33.2207 1056.84 33.5919C1056.28 33.9593 1055.64 34.143 1054.91 34.143C1054.35 34.143 1053.9 34.0502 1053.56 33.8646C1053.23 33.6752 1052.97 33.4612 1052.78 33.2225C1052.6 32.9801 1052.46 32.7794 1052.36 32.6203H1052.2V33.9612H1050.91ZM1052.23 29.5975C1052.23 30.2566 1052.32 30.8381 1052.52 31.3419C1052.71 31.8419 1052.99 32.2339 1053.36 32.518C1053.73 32.7983 1054.19 32.9385 1054.73 32.9385C1055.29 32.9385 1055.76 32.7907 1056.13 32.4953C1056.51 32.196 1056.79 31.7945 1056.98 31.2907C1057.18 30.7832 1057.27 30.2188 1057.27 29.5975C1057.27 28.9839 1057.18 28.4309 1056.99 27.9385C1056.8 27.4422 1056.52 27.0502 1056.14 26.7623C1055.77 26.4707 1055.3 26.3248 1054.73 26.3248C1054.18 26.3248 1053.72 26.4631 1053.35 26.7396C1052.98 27.0123 1052.7 27.3949 1052.51 27.8873C1052.32 28.376 1052.23 28.946 1052.23 29.5975ZM1066.85 27.1885L1065.64 27.5294C1065.57 27.3286 1065.45 27.1335 1065.31 26.9441C1065.16 26.751 1064.97 26.5919 1064.72 26.4669C1064.47 26.3419 1064.15 26.2794 1063.76 26.2794C1063.22 26.2794 1062.78 26.4025 1062.42 26.6487C1062.07 26.8911 1061.89 27.1998 1061.89 27.5748C1061.89 27.9082 1062.01 28.1714 1062.26 28.3646C1062.5 28.5578 1062.88 28.7188 1063.39 28.8475L1064.69 29.1657C1065.47 29.3551 1066.05 29.6449 1066.43 30.035C1066.81 30.4214 1067.01 30.9195 1067.01 31.5294C1067.01 32.0294 1066.86 32.4763 1066.57 32.8703C1066.29 33.2642 1065.89 33.5748 1065.38 33.8021C1064.87 34.0294 1064.27 34.143 1063.6 34.143C1062.71 34.143 1061.97 33.9498 1061.39 33.5635C1060.8 33.1771 1060.43 32.6127 1060.28 31.8703L1061.55 31.5521C1061.67 32.0218 1061.9 32.3741 1062.24 32.6089C1062.58 32.8438 1063.02 32.9612 1063.57 32.9612C1064.2 32.9612 1064.7 32.8286 1065.06 32.5635C1065.43 32.2945 1065.62 31.9725 1065.62 31.5975C1065.62 31.2945 1065.51 31.0407 1065.3 30.8362C1065.09 30.6278 1064.76 30.4725 1064.32 30.3703L1062.87 30.0294C1062.07 29.84 1061.48 29.5464 1061.11 29.1487C1060.74 28.7472 1060.55 28.2453 1060.55 27.643C1060.55 27.1506 1060.69 26.715 1060.97 26.3362C1061.25 25.9574 1061.63 25.66 1062.11 25.4441C1062.59 25.2282 1063.14 25.1203 1063.76 25.1203C1064.62 25.1203 1065.3 25.3097 1065.79 25.6885C1066.29 26.0672 1066.64 26.5672 1066.85 27.1885ZM1072.57 34.143C1071.75 34.143 1071.05 33.9498 1070.46 33.5635C1069.87 33.1771 1069.41 32.6449 1069.09 31.9669C1068.77 31.2888 1068.62 30.5142 1068.62 29.643C1068.62 28.7566 1068.78 27.9744 1069.1 27.2964C1069.43 26.6146 1069.89 26.0824 1070.48 25.6998C1071.07 25.3135 1071.76 25.1203 1072.55 25.1203C1073.16 25.1203 1073.71 25.2339 1074.21 25.4612C1074.7 25.6885 1075.1 26.0066 1075.42 26.4157C1075.73 26.8248 1075.93 27.3021 1076 27.8475H1074.66C1074.56 27.4498 1074.33 27.0975 1073.98 26.7907C1073.63 26.4801 1073.16 26.3248 1072.57 26.3248C1072.05 26.3248 1071.59 26.4612 1071.19 26.7339C1070.8 27.0028 1070.5 27.3835 1070.28 27.876C1070.06 28.3646 1069.96 28.9385 1069.96 29.5975C1069.96 30.2718 1070.06 30.8589 1070.27 31.3589C1070.49 31.8589 1070.79 32.2472 1071.18 32.5237C1071.58 32.8002 1072.04 32.9385 1072.57 32.9385C1072.92 32.9385 1073.23 32.8778 1073.52 32.7566C1073.8 32.6354 1074.04 32.4612 1074.24 32.2339C1074.44 32.0066 1074.58 31.7339 1074.66 31.4157H1076C1075.93 31.9309 1075.74 32.3949 1075.44 32.8078C1075.14 33.2169 1074.75 33.5426 1074.26 33.785C1073.78 34.0237 1073.21 34.143 1072.57 34.143ZM1077.96 33.9612V25.2339H1079.26V26.5521H1079.35C1079.51 26.1203 1079.79 25.7699 1080.21 25.501C1080.63 25.232 1081.1 25.0975 1081.62 25.0975C1081.72 25.0975 1081.84 25.0994 1081.99 25.1032C1082.14 25.107 1082.25 25.1127 1082.33 25.1203V26.4839C1082.28 26.4725 1082.18 26.4555 1082.01 26.4328C1081.85 26.4063 1081.69 26.393 1081.51 26.393C1081.08 26.393 1080.7 26.482 1080.37 26.66C1080.04 26.8343 1079.78 27.0767 1079.59 27.3873C1079.4 27.6941 1079.3 28.0445 1079.3 28.4385V33.9612H1077.96ZM1083.91 33.9612V25.2339H1085.26V33.9612H1083.91ZM1084.6 23.7794C1084.34 23.7794 1084.11 23.6903 1083.92 23.5123C1083.73 23.3343 1083.64 23.1203 1083.64 22.8703C1083.64 22.6203 1083.73 22.4063 1083.92 22.2282C1084.11 22.0502 1084.34 21.9612 1084.6 21.9612C1084.86 21.9612 1085.08 22.0502 1085.27 22.2282C1085.46 22.4063 1085.55 22.6203 1085.55 22.8703C1085.55 23.1203 1085.46 23.3343 1085.27 23.5123C1085.08 23.6903 1084.86 23.7794 1084.6 23.7794ZM1087.89 33.9612V22.3248H1089.23V26.6203H1089.35C1089.45 26.4688 1089.58 26.2756 1089.76 26.0407C1089.94 25.8021 1090.19 25.59 1090.52 25.4044C1090.85 25.215 1091.3 25.1203 1091.87 25.1203C1092.61 25.1203 1093.25 25.304 1093.81 25.6714C1094.37 26.0388 1094.81 26.5597 1095.13 27.2339C1095.44 27.9082 1095.6 28.7036 1095.6 29.6203C1095.6 30.5445 1095.44 31.3457 1095.13 32.0237C1094.81 32.6979 1094.38 33.2207 1093.82 33.5919C1093.26 33.9593 1092.62 34.143 1091.89 34.143C1091.33 34.143 1090.88 34.0502 1090.55 33.8646C1090.21 33.6752 1089.95 33.4612 1089.77 33.2225C1089.59 32.9801 1089.45 32.7794 1089.35 32.6203H1089.19V33.9612H1087.89ZM1089.21 29.5975C1089.21 30.2566 1089.31 30.8381 1089.5 31.3419C1089.69 31.8419 1089.98 32.2339 1090.35 32.518C1090.72 32.7983 1091.17 32.9385 1091.71 32.9385C1092.27 32.9385 1092.74 32.7907 1093.12 32.4953C1093.49 32.196 1093.78 31.7945 1093.97 31.2907C1094.16 30.7832 1094.26 30.2188 1094.26 29.5975C1094.26 28.9839 1094.16 28.4309 1093.97 27.9385C1093.79 27.4422 1093.51 27.0502 1093.13 26.7623C1092.75 26.4707 1092.28 26.3248 1091.71 26.3248C1091.17 26.3248 1090.71 26.4631 1090.34 26.7396C1089.97 27.0123 1089.69 27.3949 1089.5 27.8873C1089.31 28.376 1089.21 28.946 1089.21 29.5975ZM1101.31 34.143C1100.47 34.143 1099.74 33.9574 1099.13 33.5862C1098.53 33.2112 1098.06 32.6885 1097.73 32.018C1097.4 31.3438 1097.24 30.5597 1097.24 29.6657C1097.24 28.7718 1097.4 27.9839 1097.73 27.3021C1098.06 26.6165 1098.52 26.0824 1099.1 25.6998C1099.69 25.3135 1100.38 25.1203 1101.17 25.1203C1101.63 25.1203 1102.08 25.196 1102.52 25.3475C1102.96 25.4991 1103.37 25.7453 1103.73 26.0862C1104.09 26.4233 1104.38 26.8703 1104.6 27.4271C1104.81 27.9839 1104.92 28.6695 1104.92 29.4839V30.0521H1098.19V28.893H1103.56C1103.56 28.4006 1103.46 27.9612 1103.26 27.5748C1103.07 27.1885 1102.79 26.8835 1102.43 26.66C1102.08 26.4366 1101.66 26.3248 1101.17 26.3248C1100.64 26.3248 1100.18 26.4574 1099.79 26.7225C1099.4 26.9839 1099.1 27.3248 1098.89 27.7453C1098.69 28.1657 1098.58 28.6165 1098.58 29.0975V29.8703C1098.58 30.5294 1098.69 31.0881 1098.92 31.5464C1099.15 32.001 1099.47 32.3475 1099.88 32.5862C1100.29 32.821 1100.77 32.9385 1101.31 32.9385C1101.66 32.9385 1101.98 32.8892 1102.26 32.7907C1102.55 32.6885 1102.8 32.5369 1103.01 32.3362C1103.22 32.1316 1103.38 31.8778 1103.49 31.5748L1104.79 31.9385C1104.65 32.3778 1104.42 32.7642 1104.1 33.0975C1103.78 33.4271 1103.38 33.6847 1102.9 33.8703C1102.43 34.0521 1101.9 34.143 1101.31 34.143ZM1120.87 22.3248V33.9612H1119.51L1113.17 24.8248H1113.05V33.9612H1111.64V22.3248H1113.01L1119.37 31.4839H1119.48V22.3248H1120.87ZM1127.05 34.143C1126.27 34.143 1125.57 33.9555 1124.98 33.5805C1124.39 33.2055 1123.93 32.6809 1123.59 32.0066C1123.26 31.3324 1123.1 30.5445 1123.1 29.643C1123.1 28.7339 1123.26 27.9403 1123.59 27.2623C1123.93 26.5843 1124.39 26.0578 1124.98 25.6828C1125.57 25.3078 1126.27 25.1203 1127.05 25.1203C1127.84 25.1203 1128.53 25.3078 1129.12 25.6828C1129.72 26.0578 1130.18 26.5843 1130.51 27.2623C1130.84 27.9403 1131.01 28.7339 1131.01 29.643C1131.01 30.5445 1130.84 31.3324 1130.51 32.0066C1130.18 32.6809 1129.72 33.2055 1129.12 33.5805C1128.53 33.9555 1127.84 34.143 1127.05 34.143ZM1127.05 32.9385C1127.65 32.9385 1128.14 32.785 1128.53 32.4782C1128.92 32.1714 1129.2 31.768 1129.39 31.268C1129.57 30.768 1129.67 30.2263 1129.67 29.643C1129.67 29.0597 1129.57 28.5161 1129.39 28.0123C1129.2 27.5085 1128.92 27.1013 1128.53 26.7907C1128.14 26.4801 1127.65 26.3248 1127.05 26.3248C1126.46 26.3248 1125.96 26.4801 1125.58 26.7907C1125.19 27.1013 1124.9 27.5085 1124.72 28.0123C1124.53 28.5161 1124.44 29.0597 1124.44 29.643C1124.44 30.2263 1124.53 30.768 1124.72 31.268C1124.9 31.768 1125.19 32.1714 1125.58 32.4782C1125.96 32.785 1126.46 32.9385 1127.05 32.9385ZM1134.74 33.9612L1132.08 25.2339H1133.49L1135.37 31.9157H1135.46L1137.33 25.2339H1138.76L1140.6 31.893H1140.69L1142.58 25.2339H1143.99L1141.33 33.9612H1140.01L1138.1 27.2566H1137.96L1136.05 33.9612H1134.74Z" fill="#FF9F0D"/>
<path opacity="0.59" d="M735.909 33.9612V22.3248H742.932V23.5748H737.318V27.5066H742.568V28.7566H737.318V32.7112H743.023V33.9612H735.909ZM746.631 28.7112V33.9612H745.29V25.2339H746.585V26.5975H746.699C746.903 26.1544 747.214 25.7983 747.631 25.5294C748.047 25.2566 748.585 25.1203 749.244 25.1203C749.835 25.1203 750.352 25.2415 750.795 25.4839C751.239 25.7225 751.583 26.0862 751.83 26.5748C752.076 27.0597 752.199 27.6733 752.199 28.4157V33.9612H750.858V28.5066C750.858 27.821 750.68 27.2869 750.324 26.9044C749.968 26.518 749.479 26.3248 748.858 26.3248C748.43 26.3248 748.047 26.4176 747.71 26.6032C747.377 26.7888 747.114 27.0597 746.92 27.4157C746.727 27.7718 746.631 28.2036 746.631 28.7112ZM758.445 25.2339V26.3703H753.922V25.2339H758.445ZM755.24 23.143H756.581V31.4612C756.581 31.84 756.636 32.1241 756.746 32.3135C756.859 32.4991 757.003 32.6241 757.178 32.6885C757.356 32.7491 757.543 32.7794 757.74 32.7794C757.888 32.7794 758.009 32.7718 758.104 32.7566C758.198 32.7377 758.274 32.7225 758.331 32.7112L758.604 33.9157C758.513 33.9498 758.386 33.9839 758.223 34.018C758.06 34.0559 757.854 34.0748 757.604 34.0748C757.225 34.0748 756.854 33.9934 756.49 33.8305C756.13 33.6676 755.831 33.4195 755.592 33.0862C755.357 32.7528 755.24 32.3324 755.24 31.8248V23.143ZM764.027 34.143C763.186 34.143 762.461 33.9574 761.851 33.5862C761.245 33.2112 760.777 32.6885 760.447 32.018C760.122 31.3438 759.959 30.5597 759.959 29.6657C759.959 28.7718 760.122 27.9839 760.447 27.3021C760.777 26.6165 761.235 26.0824 761.822 25.6998C762.413 25.3135 763.103 25.1203 763.891 25.1203C764.345 25.1203 764.794 25.196 765.237 25.3475C765.68 25.4991 766.084 25.7453 766.447 26.0862C766.811 26.4233 767.101 26.8703 767.317 27.4271C767.533 27.9839 767.641 28.6695 767.641 29.4839V30.0521H760.913V28.893H766.277C766.277 28.4006 766.179 27.9612 765.982 27.5748C765.788 27.1885 765.512 26.8835 765.152 26.66C764.796 26.4366 764.375 26.3248 763.891 26.3248C763.357 26.3248 762.894 26.4574 762.504 26.7225C762.118 26.9839 761.821 27.3248 761.612 27.7453C761.404 28.1657 761.3 28.6165 761.3 29.0975V29.8703C761.3 30.5294 761.413 31.0881 761.641 31.5464C761.872 32.001 762.192 32.3475 762.601 32.5862C763.01 32.821 763.485 32.9385 764.027 32.9385C764.379 32.9385 764.697 32.8892 764.982 32.7907C765.269 32.6885 765.518 32.5369 765.726 32.3362C765.934 32.1316 766.095 31.8778 766.209 31.5748L767.504 31.9385C767.368 32.3778 767.139 32.7642 766.817 33.0975C766.495 33.4271 766.097 33.6847 765.624 33.8703C765.15 34.0521 764.618 34.143 764.027 34.143ZM769.68 33.9612V25.2339H770.976V26.5521H771.067C771.226 26.1203 771.514 25.7699 771.93 25.501C772.347 25.232 772.817 25.0975 773.339 25.0975C773.438 25.0975 773.561 25.0994 773.709 25.1032C773.857 25.107 773.968 25.1127 774.044 25.1203V26.4839C773.999 26.4725 773.894 26.4555 773.732 26.4328C773.572 26.4063 773.404 26.393 773.226 26.393C772.802 26.393 772.423 26.482 772.089 26.66C771.76 26.8343 771.499 27.0767 771.305 27.3873C771.116 27.6941 771.021 28.0445 771.021 28.4385V33.9612H769.68ZM779.315 22.3248H780.929L784.156 27.7566H784.293L787.52 22.3248H789.134L784.929 29.1657V33.9612H783.52V29.1657L779.315 22.3248ZM793.085 34.143C792.297 34.143 791.606 33.9555 791.011 33.5805C790.42 33.2055 789.958 32.6809 789.625 32.0066C789.295 31.3324 789.131 30.5445 789.131 29.643C789.131 28.7339 789.295 27.9403 789.625 27.2623C789.958 26.5843 790.42 26.0578 791.011 25.6828C791.606 25.3078 792.297 25.1203 793.085 25.1203C793.873 25.1203 794.563 25.3078 795.153 25.6828C795.748 26.0578 796.21 26.5843 796.54 27.2623C796.873 27.9403 797.04 28.7339 797.04 29.643C797.04 30.5445 796.873 31.3324 796.54 32.0066C796.21 32.6809 795.748 33.2055 795.153 33.5805C794.563 33.9555 793.873 34.143 793.085 34.143ZM793.085 32.9385C793.684 32.9385 794.176 32.785 794.562 32.4782C794.949 32.1714 795.235 31.768 795.42 31.268C795.606 30.768 795.699 30.2263 795.699 29.643C795.699 29.0597 795.606 28.5161 795.42 28.0123C795.235 27.5085 794.949 27.1013 794.562 26.7907C794.176 26.4801 793.684 26.3248 793.085 26.3248C792.487 26.3248 791.994 26.4801 791.608 26.7907C791.222 27.1013 790.936 27.5085 790.75 28.0123C790.564 28.5161 790.472 29.0597 790.472 29.643C790.472 30.2263 790.564 30.768 790.75 31.268C790.936 31.768 791.222 32.1714 791.608 32.4782C791.994 32.785 792.487 32.9385 793.085 32.9385ZM804.587 30.393V25.2339H805.928V33.9612H804.587V32.4839H804.496C804.291 32.9271 803.973 33.304 803.541 33.6146C803.109 33.9214 802.564 34.0748 801.905 34.0748C801.359 34.0748 800.875 33.9555 800.45 33.7169C800.026 33.4744 799.693 33.1108 799.45 32.626C799.208 32.1373 799.087 31.5218 799.087 30.7794V25.2339H800.428V30.6885C800.428 31.3248 800.606 31.8324 800.962 32.2112C801.321 32.59 801.78 32.7794 802.337 32.7794C802.67 32.7794 803.009 32.6941 803.354 32.5237C803.702 32.3532 803.994 32.0919 804.229 31.7396C804.467 31.3873 804.587 30.9385 804.587 30.393ZM808.384 33.9612V25.2339H809.679V26.5521H809.77C809.929 26.1203 810.217 25.7699 810.634 25.501C811.05 25.232 811.52 25.0975 812.043 25.0975C812.141 25.0975 812.264 25.0994 812.412 25.1032C812.56 25.107 812.671 25.1127 812.747 25.1203V26.4839C812.702 26.4725 812.598 26.4555 812.435 26.4328C812.276 26.4063 812.107 26.393 811.929 26.393C811.505 26.393 811.126 26.482 810.793 26.66C810.463 26.8343 810.202 27.0767 810.009 27.3873C809.819 27.6941 809.724 28.0445 809.724 28.4385V33.9612H808.384ZM819.018 33.9612V22.3248H826.041V23.5748H820.428V27.5066H825.678V28.7566H820.428V32.7112H826.132V33.9612H819.018ZM828.399 33.9612V25.2339H829.695V26.5975H829.808C829.99 26.1316 830.284 25.7699 830.689 25.5123C831.094 25.251 831.581 25.1203 832.149 25.1203C832.725 25.1203 833.204 25.251 833.587 25.5123C833.973 25.7699 834.274 26.1316 834.49 26.5975H834.581C834.804 26.1468 835.14 25.7888 835.587 25.5237C836.034 25.2547 836.57 25.1203 837.195 25.1203C837.975 25.1203 838.613 25.3646 839.109 25.8532C839.606 26.3381 839.854 27.0938 839.854 28.1203V33.9612H838.513V28.1203C838.513 27.4763 838.337 27.0161 837.984 26.7396C837.632 26.4631 837.217 26.3248 836.74 26.3248C836.126 26.3248 835.651 26.5104 835.314 26.8816C834.977 27.2491 834.808 27.715 834.808 28.2794V33.9612H833.445V27.9839C833.445 27.4877 833.284 27.0881 832.962 26.785C832.64 26.4782 832.225 26.3248 831.717 26.3248C831.369 26.3248 831.043 26.4176 830.74 26.6032C830.441 26.7888 830.198 27.0464 830.013 27.376C829.831 27.7017 829.74 28.0786 829.74 28.5066V33.9612H828.399ZM844.874 34.1657C844.321 34.1657 843.819 34.0616 843.368 33.8532C842.917 33.6411 842.559 33.3362 842.294 32.9385C842.029 32.5369 841.896 32.0521 841.896 31.4839C841.896 30.9839 841.995 30.5786 842.192 30.268C842.389 29.9536 842.652 29.7074 842.982 29.5294C843.311 29.3513 843.675 29.2188 844.072 29.1316C844.474 29.0407 844.877 28.9688 845.283 28.9157C845.813 28.8475 846.243 28.7964 846.572 28.7623C846.906 28.7244 847.148 28.6619 847.3 28.5748C847.455 28.4877 847.533 28.3362 847.533 28.1203V28.0748C847.533 27.5142 847.379 27.0786 847.072 26.768C846.769 26.4574 846.309 26.3021 845.692 26.3021C845.052 26.3021 844.55 26.4422 844.186 26.7225C843.822 27.0028 843.567 27.3021 843.419 27.6203L842.146 27.1657C842.374 26.6354 842.677 26.2225 843.055 25.9271C843.438 25.6278 843.855 25.4195 844.305 25.3021C844.76 25.1809 845.207 25.1203 845.646 25.1203C845.927 25.1203 846.249 25.1544 846.612 25.2225C846.98 25.2869 847.334 25.4214 847.675 25.626C848.019 25.8305 848.305 26.1392 848.533 26.5521C848.76 26.965 848.874 27.518 848.874 28.2112V33.9612H847.533V32.7794H847.464C847.374 32.9688 847.222 33.1714 847.01 33.3873C846.798 33.6032 846.516 33.7869 846.163 33.9385C845.811 34.09 845.381 34.1657 844.874 34.1657ZM845.078 32.9612C845.608 32.9612 846.055 32.857 846.419 32.6487C846.786 32.4403 847.063 32.1714 847.249 31.8419C847.438 31.5123 847.533 31.1657 847.533 30.8021V29.5748C847.476 29.643 847.351 29.7055 847.158 29.7623C846.968 29.8153 846.749 29.8627 846.499 29.9044C846.252 29.9422 846.012 29.9763 845.777 30.0066C845.546 30.0332 845.358 30.0559 845.214 30.0748C844.866 30.1203 844.54 30.1941 844.237 30.2964C843.938 30.3949 843.696 30.5445 843.51 30.7453C843.328 30.9422 843.237 31.2112 843.237 31.5521C843.237 32.018 843.41 32.3703 843.754 32.6089C844.103 32.8438 844.544 32.9612 845.078 32.9612ZM851.321 33.9612V25.2339H852.662V33.9612H851.321ZM852.003 23.7794C851.741 23.7794 851.516 23.6903 851.327 23.5123C851.141 23.3343 851.048 23.1203 851.048 22.8703C851.048 22.6203 851.141 22.4063 851.327 22.2282C851.516 22.0502 851.741 21.9612 852.003 21.9612C852.264 21.9612 852.488 22.0502 852.673 22.2282C852.863 22.4063 852.957 22.6203 852.957 22.8703C852.957 23.1203 852.863 23.3343 852.673 23.5123C852.488 23.6903 852.264 23.7794 852.003 23.7794ZM856.459 22.3248V33.9612H855.118V22.3248H856.459Z" fill="white"/>
<path d="M5.625 72.5361C6.15104 72.5361 6.58333 72.4814 6.92188 72.372C7.52604 72.1689 8.02083 71.7783 8.40625 71.2001C8.71354 70.7366 8.9349 70.1428 9.07031 69.4189C9.14844 68.9866 9.1875 68.5856 9.1875 68.2158C9.1875 66.7939 8.90365 65.6897 8.33594 64.9033C7.77344 64.1168 6.86458 63.7236 5.60938 63.7236H2.85156V72.5361H5.625ZM1.28906 62.3876H5.9375C7.51562 62.3876 8.73958 62.9475 9.60938 64.0673C10.3854 65.0777 10.7734 66.372 10.7734 67.9501C10.7734 69.1689 10.5443 70.2704 10.0859 71.2548C9.27865 72.9944 7.89062 73.8642 5.92188 73.8642H1.28906V62.3876ZM15.9141 72.9579C16.8464 72.9579 17.4844 72.6064 17.8281 71.9033C18.1771 71.1949 18.3516 70.4085 18.3516 69.5439C18.3516 68.7626 18.2266 68.1272 17.9766 67.6376C17.5807 66.8668 16.8984 66.4814 15.9297 66.4814C15.0703 66.4814 14.4453 66.8095 14.0547 67.4658C13.6641 68.122 13.4688 68.9137 13.4688 69.8408C13.4688 70.7314 13.6641 71.4736 14.0547 72.0673C14.4453 72.6611 15.0651 72.9579 15.9141 72.9579ZM15.9688 65.2548C17.0469 65.2548 17.9583 65.6142 18.7031 66.3329C19.4479 67.0517 19.8203 68.109 19.8203 69.5048C19.8203 70.8538 19.4922 71.9684 18.8359 72.8486C18.1797 73.7288 17.1615 74.1689 15.7812 74.1689C14.6302 74.1689 13.7161 73.7809 13.0391 73.0048C12.362 72.2236 12.0234 71.1767 12.0234 69.8642C12.0234 68.4579 12.3802 67.3382 13.0938 66.5048C13.8073 65.6715 14.7656 65.2548 15.9688 65.2548ZM21.5 65.497H22.8359V66.6845C23.2318 66.1949 23.651 65.8434 24.0938 65.6298C24.5365 65.4163 25.0286 65.3095 25.5703 65.3095C26.7578 65.3095 27.5599 65.7236 27.9766 66.5517C28.2057 67.0048 28.3203 67.6533 28.3203 68.497V73.8642H26.8906V68.5908C26.8906 68.0803 26.8151 67.6689 26.6641 67.3564C26.4141 66.8356 25.9609 66.5751 25.3047 66.5751C24.9714 66.5751 24.6979 66.609 24.4844 66.6767C24.099 66.7913 23.7604 67.0204 23.4688 67.3642C23.2344 67.6402 23.0807 67.9267 23.0078 68.2236C22.9401 68.5152 22.9062 68.9345 22.9062 69.4814V73.8642H21.5V65.497ZM30.7031 65.7236C30.9896 65.6767 31.2057 65.5152 31.3516 65.2392C31.5026 64.9632 31.5781 64.6454 31.5781 64.2861C31.5781 64.2496 31.5755 64.2184 31.5703 64.1923C31.5703 64.1611 31.5651 64.1272 31.5547 64.0908H30.7031V62.3876H32.375V63.9579C32.375 64.6246 32.237 65.1923 31.9609 65.6611C31.6849 66.1246 31.2656 66.3902 30.7031 66.4579V65.7236ZM34.25 63.1611H35.6719V65.497H37.0078V66.6454H35.6719V72.1064C35.6719 72.3981 35.7708 72.5934 35.9688 72.6923C36.0781 72.7496 36.2604 72.7783 36.5156 72.7783C36.5833 72.7783 36.6562 72.7783 36.7344 72.7783C36.8125 72.7731 36.9036 72.7652 37.0078 72.7548V73.8642C36.8464 73.9111 36.6771 73.9449 36.5 73.9658C36.3281 73.9866 36.1406 73.997 35.9375 73.997C35.2812 73.997 34.8359 73.8303 34.6016 73.497C34.3672 73.1585 34.25 72.721 34.25 72.1845V66.6454H33.1172V65.497H34.25V63.1611ZM43.5234 65.497L45.1328 72.0908L46.7656 65.497H48.3438L49.9844 72.0517L51.6953 65.497H53.1016L50.6719 73.8642H49.2109L47.5078 67.3876L45.8594 73.8642H44.3984L41.9844 65.497H43.5234ZM55.5156 71.6376C55.5156 72.0439 55.6641 72.3642 55.9609 72.5986C56.2578 72.8329 56.6094 72.9501 57.0156 72.9501C57.5104 72.9501 57.9896 72.8356 58.4531 72.6064C59.2344 72.2262 59.625 71.6038 59.625 70.7392V69.6064C59.4531 69.7158 59.2318 69.8069 58.9609 69.8798C58.6901 69.9527 58.4245 70.0048 58.1641 70.0361L57.3125 70.1454C56.8021 70.2132 56.4193 70.3199 56.1641 70.4658C55.7318 70.7106 55.5156 71.1012 55.5156 71.6376ZM58.9219 68.7939C59.2448 68.7522 59.4609 68.6168 59.5703 68.3876C59.6328 68.2626 59.6641 68.0829 59.6641 67.8486C59.6641 67.3694 59.4922 67.0231 59.1484 66.8095C58.8099 66.5908 58.3229 66.4814 57.6875 66.4814C56.9531 66.4814 56.4323 66.6793 56.125 67.0751C55.9531 67.2939 55.8411 67.6194 55.7891 68.0517H54.4766C54.5026 67.0204 54.8359 66.3043 55.4766 65.9033C56.1224 65.497 56.8698 65.2939 57.7188 65.2939C58.7031 65.2939 59.5026 65.4814 60.1172 65.8564C60.7266 66.2314 61.0312 66.8147 61.0312 67.6064V72.4267C61.0312 72.5725 61.0599 72.6897 61.1172 72.7783C61.1797 72.8668 61.3073 72.9111 61.5 72.9111C61.5625 72.9111 61.6328 72.9085 61.7109 72.9033C61.7891 72.8928 61.8724 72.8798 61.9609 72.8642V73.9033C61.7422 73.9658 61.5755 74.0048 61.4609 74.0204C61.3464 74.0361 61.1901 74.0439 60.9922 74.0439C60.5078 74.0439 60.1562 73.872 59.9375 73.5283C59.8229 73.346 59.7422 73.0882 59.6953 72.7548C59.4089 73.1298 58.9974 73.4553 58.4609 73.7314C57.9245 74.0074 57.3333 74.1454 56.6875 74.1454C55.9115 74.1454 55.276 73.9111 54.7812 73.4423C54.2917 72.9684 54.0469 72.3772 54.0469 71.6689C54.0469 70.8928 54.2891 70.2913 54.7734 69.8642C55.2578 69.4371 55.8932 69.1741 56.6797 69.0751L58.9219 68.7939ZM63.3438 65.5361H64.7734V73.8642H63.3438V65.5361ZM63.3438 62.3876H64.7734V63.9814H63.3438V62.3876ZM67.1875 63.1611H68.6094V65.497H69.9453V66.6454H68.6094V72.1064C68.6094 72.3981 68.7083 72.5934 68.9062 72.6923C69.0156 72.7496 69.1979 72.7783 69.4531 72.7783C69.5208 72.7783 69.5938 72.7783 69.6719 72.7783C69.75 72.7731 69.8411 72.7652 69.9453 72.7548V73.8642C69.7839 73.9111 69.6146 73.9449 69.4375 73.9658C69.2656 73.9866 69.0781 73.997 68.875 73.997C68.2188 73.997 67.7734 73.8303 67.5391 73.497C67.3047 73.1585 67.1875 72.721 67.1875 72.1845V66.6454H66.0547V65.497H67.1875V63.1611ZM75.8125 65.497H77.2031V66.6845C77.5365 66.2731 77.8385 65.9736 78.1094 65.7861C78.5729 65.4684 79.099 65.3095 79.6875 65.3095C80.3542 65.3095 80.8906 65.4736 81.2969 65.8017C81.526 65.9892 81.7344 66.2652 81.9219 66.6298C82.2344 66.1819 82.6016 65.8512 83.0234 65.6376C83.4453 65.4189 83.9193 65.3095 84.4453 65.3095C85.5703 65.3095 86.3359 65.7158 86.7422 66.5283C86.9609 66.9658 87.0703 67.5543 87.0703 68.2939V73.8642H85.6094V68.0517C85.6094 67.4944 85.4688 67.1116 85.1875 66.9033C84.9115 66.6949 84.5729 66.5908 84.1719 66.5908C83.6198 66.5908 83.1432 66.7757 82.7422 67.1454C82.3464 67.5152 82.1484 68.1324 82.1484 68.997V73.8642H80.7188V68.4033C80.7188 67.8356 80.651 67.4215 80.5156 67.1611C80.3021 66.7704 79.9036 66.5751 79.3203 66.5751C78.7891 66.5751 78.3047 66.7809 77.8672 67.1923C77.4349 67.6038 77.2188 68.3486 77.2188 69.4267V73.8642H75.8125V65.497ZM90.2188 71.6376C90.2188 72.0439 90.3672 72.3642 90.6641 72.5986C90.9609 72.8329 91.3125 72.9501 91.7188 72.9501C92.2135 72.9501 92.6927 72.8356 93.1562 72.6064C93.9375 72.2262 94.3281 71.6038 94.3281 70.7392V69.6064C94.1562 69.7158 93.9349 69.8069 93.6641 69.8798C93.3932 69.9527 93.1276 70.0048 92.8672 70.0361L92.0156 70.1454C91.5052 70.2132 91.1224 70.3199 90.8672 70.4658C90.4349 70.7106 90.2188 71.1012 90.2188 71.6376ZM93.625 68.7939C93.9479 68.7522 94.1641 68.6168 94.2734 68.3876C94.3359 68.2626 94.3672 68.0829 94.3672 67.8486C94.3672 67.3694 94.1953 67.0231 93.8516 66.8095C93.513 66.5908 93.026 66.4814 92.3906 66.4814C91.6562 66.4814 91.1354 66.6793 90.8281 67.0751C90.6562 67.2939 90.5443 67.6194 90.4922 68.0517H89.1797C89.2057 67.0204 89.5391 66.3043 90.1797 65.9033C90.8255 65.497 91.5729 65.2939 92.4219 65.2939C93.4062 65.2939 94.2057 65.4814 94.8203 65.8564C95.4297 66.2314 95.7344 66.8147 95.7344 67.6064V72.4267C95.7344 72.5725 95.763 72.6897 95.8203 72.7783C95.8828 72.8668 96.0104 72.9111 96.2031 72.9111C96.2656 72.9111 96.3359 72.9085 96.4141 72.9033C96.4922 72.8928 96.5755 72.8798 96.6641 72.8642V73.9033C96.4453 73.9658 96.2786 74.0048 96.1641 74.0204C96.0495 74.0361 95.8932 74.0439 95.6953 74.0439C95.2109 74.0439 94.8594 73.872 94.6406 73.5283C94.526 73.346 94.4453 73.0882 94.3984 72.7548C94.112 73.1298 93.7005 73.4553 93.1641 73.7314C92.6276 74.0074 92.0365 74.1454 91.3906 74.1454C90.6146 74.1454 89.9792 73.9111 89.4844 73.4423C88.9948 72.9684 88.75 72.3772 88.75 71.6689C88.75 70.8928 88.9922 70.2913 89.4766 69.8642C89.9609 69.4371 90.5964 69.1741 91.3828 69.0751L93.625 68.7939ZM98.0156 62.3876H99.3672V69.0517L102.977 65.497H104.773L101.57 68.6298L104.953 73.8642H103.156L100.547 69.6454L99.3672 70.7236V73.8642H98.0156V62.3876ZM109.531 65.3095C110.125 65.3095 110.701 65.4501 111.258 65.7314C111.815 66.0074 112.24 66.3668 112.531 66.8095C112.812 67.2314 113 67.7236 113.094 68.2861C113.177 68.6715 113.219 69.2861 113.219 70.1298H107.086C107.112 70.9788 107.312 71.6611 107.688 72.1767C108.062 72.6871 108.643 72.9423 109.43 72.9423C110.164 72.9423 110.75 72.7001 111.188 72.2158C111.438 71.9345 111.615 71.609 111.719 71.2392H113.102C113.065 71.5465 112.943 71.8902 112.734 72.2704C112.531 72.6454 112.302 72.9527 112.047 73.1923C111.62 73.609 111.091 73.8902 110.461 74.0361C110.122 74.1194 109.74 74.1611 109.312 74.1611C108.271 74.1611 107.388 73.7835 106.664 73.0283C105.94 72.2678 105.578 71.2053 105.578 69.8408C105.578 68.497 105.943 67.4059 106.672 66.5673C107.401 65.7288 108.354 65.3095 109.531 65.3095ZM111.773 69.0126C111.716 68.4033 111.583 67.9163 111.375 67.5517C110.99 66.8746 110.346 66.5361 109.445 66.5361C108.799 66.5361 108.258 66.7704 107.82 67.2392C107.383 67.7027 107.151 68.2939 107.125 69.0126H111.773ZM120.484 71.6376C120.484 72.0439 120.633 72.3642 120.93 72.5986C121.227 72.8329 121.578 72.9501 121.984 72.9501C122.479 72.9501 122.958 72.8356 123.422 72.6064C124.203 72.2262 124.594 71.6038 124.594 70.7392V69.6064C124.422 69.7158 124.201 69.8069 123.93 69.8798C123.659 69.9527 123.393 70.0048 123.133 70.0361L122.281 70.1454C121.771 70.2132 121.388 70.3199 121.133 70.4658C120.701 70.7106 120.484 71.1012 120.484 71.6376ZM123.891 68.7939C124.214 68.7522 124.43 68.6168 124.539 68.3876C124.602 68.2626 124.633 68.0829 124.633 67.8486C124.633 67.3694 124.461 67.0231 124.117 66.8095C123.779 66.5908 123.292 66.4814 122.656 66.4814C121.922 66.4814 121.401 66.6793 121.094 67.0751C120.922 67.2939 120.81 67.6194 120.758 68.0517H119.445C119.471 67.0204 119.805 66.3043 120.445 65.9033C121.091 65.497 121.839 65.2939 122.688 65.2939C123.672 65.2939 124.471 65.4814 125.086 65.8564C125.695 66.2314 126 66.8147 126 67.6064V72.4267C126 72.5725 126.029 72.6897 126.086 72.7783C126.148 72.8668 126.276 72.9111 126.469 72.9111C126.531 72.9111 126.602 72.9085 126.68 72.9033C126.758 72.8928 126.841 72.8798 126.93 72.8642V73.9033C126.711 73.9658 126.544 74.0048 126.43 74.0204C126.315 74.0361 126.159 74.0439 125.961 74.0439C125.477 74.0439 125.125 73.872 124.906 73.5283C124.792 73.346 124.711 73.0882 124.664 72.7548C124.378 73.1298 123.966 73.4553 123.43 73.7314C122.893 74.0074 122.302 74.1454 121.656 74.1454C120.88 74.1454 120.245 73.9111 119.75 73.4423C119.26 72.9684 119.016 72.3772 119.016 71.6689C119.016 70.8928 119.258 70.2913 119.742 69.8642C120.227 69.4371 120.862 69.1741 121.648 69.0751L123.891 68.7939ZM133.602 71.2392C133.643 71.7079 133.76 72.0673 133.953 72.3173C134.307 72.7704 134.922 72.997 135.797 72.997C136.318 72.997 136.776 72.885 137.172 72.6611C137.568 72.4319 137.766 72.0803 137.766 71.6064C137.766 71.247 137.607 70.9736 137.289 70.7861C137.086 70.6715 136.685 70.5387 136.086 70.3876L134.969 70.1064C134.255 69.9293 133.729 69.7314 133.391 69.5126C132.786 69.1324 132.484 68.6064 132.484 67.9345C132.484 67.1428 132.768 66.5022 133.336 66.0126C133.909 65.5231 134.677 65.2783 135.641 65.2783C136.901 65.2783 137.81 65.6481 138.367 66.3876C138.716 66.8564 138.885 67.3616 138.875 67.9033H137.547C137.521 67.5856 137.409 67.2965 137.211 67.0361C136.888 66.6663 136.328 66.4814 135.531 66.4814C135 66.4814 134.596 66.5829 134.32 66.7861C134.049 66.9892 133.914 67.2574 133.914 67.5908C133.914 67.9553 134.094 68.247 134.453 68.4658C134.661 68.596 134.969 68.7106 135.375 68.8095L136.305 69.0361C137.315 69.2809 137.992 69.5178 138.336 69.747C138.883 70.1064 139.156 70.6715 139.156 71.4423C139.156 72.1871 138.872 72.8303 138.305 73.372C137.742 73.9137 136.883 74.1845 135.727 74.1845C134.482 74.1845 133.599 73.9033 133.078 73.3408C132.562 72.7731 132.286 72.0725 132.25 71.2392H133.602ZM140.766 65.497H142.156V66.6845C142.49 66.2731 142.792 65.9736 143.062 65.7861C143.526 65.4684 144.052 65.3095 144.641 65.3095C145.307 65.3095 145.844 65.4736 146.25 65.8017C146.479 65.9892 146.688 66.2652 146.875 66.6298C147.188 66.1819 147.555 65.8512 147.977 65.6376C148.398 65.4189 148.872 65.3095 149.398 65.3095C150.523 65.3095 151.289 65.7158 151.695 66.5283C151.914 66.9658 152.023 67.5543 152.023 68.2939V73.8642H150.562V68.0517C150.562 67.4944 150.422 67.1116 150.141 66.9033C149.865 66.6949 149.526 66.5908 149.125 66.5908C148.573 66.5908 148.096 66.7757 147.695 67.1454C147.299 67.5152 147.102 68.1324 147.102 68.997V73.8642H145.672V68.4033C145.672 67.8356 145.604 67.4215 145.469 67.1611C145.255 66.7704 144.857 66.5751 144.273 66.5751C143.742 66.5751 143.258 66.7809 142.82 67.1923C142.388 67.6038 142.172 68.3486 142.172 69.4267V73.8642H140.766V65.497ZM155.172 71.6376C155.172 72.0439 155.32 72.3642 155.617 72.5986C155.914 72.8329 156.266 72.9501 156.672 72.9501C157.167 72.9501 157.646 72.8356 158.109 72.6064C158.891 72.2262 159.281 71.6038 159.281 70.7392V69.6064C159.109 69.7158 158.888 69.8069 158.617 69.8798C158.346 69.9527 158.081 70.0048 157.82 70.0361L156.969 70.1454C156.458 70.2132 156.076 70.3199 155.82 70.4658C155.388 70.7106 155.172 71.1012 155.172 71.6376ZM158.578 68.7939C158.901 68.7522 159.117 68.6168 159.227 68.3876C159.289 68.2626 159.32 68.0829 159.32 67.8486C159.32 67.3694 159.148 67.0231 158.805 66.8095C158.466 66.5908 157.979 66.4814 157.344 66.4814C156.609 66.4814 156.089 66.6793 155.781 67.0751C155.609 67.2939 155.497 67.6194 155.445 68.0517H154.133C154.159 67.0204 154.492 66.3043 155.133 65.9033C155.779 65.497 156.526 65.2939 157.375 65.2939C158.359 65.2939 159.159 65.4814 159.773 65.8564C160.383 66.2314 160.688 66.8147 160.688 67.6064V72.4267C160.688 72.5725 160.716 72.6897 160.773 72.7783C160.836 72.8668 160.964 72.9111 161.156 72.9111C161.219 72.9111 161.289 72.9085 161.367 72.9033C161.445 72.8928 161.529 72.8798 161.617 72.8642V73.9033C161.398 73.9658 161.232 74.0048 161.117 74.0204C161.003 74.0361 160.846 74.0439 160.648 74.0439C160.164 74.0439 159.812 73.872 159.594 73.5283C159.479 73.346 159.398 73.0882 159.352 72.7548C159.065 73.1298 158.654 73.4553 158.117 73.7314C157.581 74.0074 156.99 74.1454 156.344 74.1454C155.568 74.1454 154.932 73.9111 154.438 73.4423C153.948 72.9684 153.703 72.3772 153.703 71.6689C153.703 70.8928 153.945 70.2913 154.43 69.8642C154.914 69.4371 155.549 69.1741 156.336 69.0751L158.578 68.7939ZM163.039 65.497H164.375V66.9423C164.484 66.6611 164.753 66.3199 165.18 65.9189C165.607 65.5126 166.099 65.3095 166.656 65.3095C166.682 65.3095 166.727 65.3121 166.789 65.3173C166.852 65.3225 166.958 65.3329 167.109 65.3486V66.8329C167.026 66.8173 166.948 66.8069 166.875 66.8017C166.807 66.7965 166.732 66.7939 166.648 66.7939C165.94 66.7939 165.396 67.0231 165.016 67.4814C164.635 67.9345 164.445 68.4579 164.445 69.0517V73.8642H163.039V65.497ZM168.609 63.1611H170.031V65.497H171.367V66.6454H170.031V72.1064C170.031 72.3981 170.13 72.5934 170.328 72.6923C170.438 72.7496 170.62 72.7783 170.875 72.7783C170.943 72.7783 171.016 72.7783 171.094 72.7783C171.172 72.7731 171.263 72.7652 171.367 72.7548V73.8642C171.206 73.9111 171.036 73.9449 170.859 73.9658C170.688 73.9866 170.5 73.997 170.297 73.997C169.641 73.997 169.195 73.8303 168.961 73.497C168.727 73.1585 168.609 72.721 168.609 72.1845V66.6454H167.477V65.497H168.609V63.1611ZM180.773 66.8486C181.268 66.4996 181.609 66.2158 181.797 65.997C182.104 65.6428 182.258 65.2496 182.258 64.8173C182.258 64.4788 182.146 64.1871 181.922 63.9423C181.698 63.6975 181.396 63.5751 181.016 63.5751C180.438 63.5751 180.036 63.7678 179.812 64.1533C179.698 64.3512 179.641 64.5673 179.641 64.8017C179.641 65.1194 179.727 65.4241 179.898 65.7158C180.076 66.0074 180.367 66.385 180.773 66.8486ZM180.414 72.8954C180.992 72.8954 181.49 72.7626 181.906 72.497C182.323 72.2314 182.643 71.9345 182.867 71.6064L180.273 68.4423C179.539 68.9319 179.06 69.3069 178.836 69.5673C178.492 69.9579 178.32 70.4345 178.32 70.997C178.32 71.6064 178.542 72.0751 178.984 72.4033C179.432 72.7314 179.909 72.8954 180.414 72.8954ZM179.492 67.4814C179.008 66.9241 178.682 66.4553 178.516 66.0751C178.354 65.6949 178.273 65.3277 178.273 64.9736C178.273 64.234 178.523 63.622 179.023 63.1376C179.523 62.6481 180.193 62.4033 181.031 62.4033C181.828 62.4033 182.451 62.6298 182.898 63.0829C183.346 63.5361 183.57 64.0777 183.57 64.7079C183.57 65.4423 183.339 66.0856 182.875 66.6376C182.604 66.9606 182.151 67.3329 181.516 67.7548L183.609 70.2548C183.75 69.8382 183.846 69.5283 183.898 69.3251C183.956 69.1168 184.013 68.8277 184.07 68.4579H185.406C185.318 69.1923 185.141 69.8981 184.875 70.5751C184.609 71.247 184.477 71.5178 184.477 71.3876L186.516 73.8642H184.703L183.625 72.5517C183.198 73.0152 182.807 73.3538 182.453 73.5673C181.833 73.9423 181.12 74.1298 180.312 74.1298C179.12 74.1298 178.253 73.8095 177.711 73.1689C177.169 72.5231 176.898 71.7965 176.898 70.9892C176.898 70.1194 177.161 69.3928 177.688 68.8095C178.01 68.4553 178.612 68.0126 179.492 67.4814ZM192.398 62.3876H193.805V73.8642H192.398V62.3876ZM199.242 72.9579C200.174 72.9579 200.812 72.6064 201.156 71.9033C201.505 71.1949 201.68 70.4085 201.68 69.5439C201.68 68.7626 201.555 68.1272 201.305 67.6376C200.909 66.8668 200.227 66.4814 199.258 66.4814C198.398 66.4814 197.773 66.8095 197.383 67.4658C196.992 68.122 196.797 68.9137 196.797 69.8408C196.797 70.7314 196.992 71.4736 197.383 72.0673C197.773 72.6611 198.393 72.9579 199.242 72.9579ZM199.297 65.2548C200.375 65.2548 201.286 65.6142 202.031 66.3329C202.776 67.0517 203.148 68.109 203.148 69.5048C203.148 70.8538 202.82 71.9684 202.164 72.8486C201.508 73.7288 200.49 74.1689 199.109 74.1689C197.958 74.1689 197.044 73.7809 196.367 73.0048C195.69 72.2236 195.352 71.1767 195.352 69.8642C195.352 68.4579 195.708 67.3382 196.422 66.5048C197.135 65.6715 198.094 65.2548 199.297 65.2548ZM207.781 65.3486C208.438 65.3486 209.01 65.51 209.5 65.8329C209.766 66.0152 210.036 66.2809 210.312 66.6298V65.5751H211.609V73.1845C211.609 74.247 211.453 75.0856 211.141 75.7001C210.557 76.8356 209.456 77.4033 207.836 77.4033C206.935 77.4033 206.177 77.2001 205.562 76.7939C204.948 76.3928 204.604 75.7626 204.531 74.9033H205.961C206.029 75.2783 206.164 75.5673 206.367 75.7704C206.685 76.0829 207.185 76.2392 207.867 76.2392C208.945 76.2392 209.651 75.859 209.984 75.0986C210.182 74.6507 210.273 73.8512 210.258 72.7001C209.977 73.1272 209.638 73.4449 209.242 73.6533C208.846 73.8616 208.323 73.9658 207.672 73.9658C206.766 73.9658 205.971 73.6454 205.289 73.0048C204.612 72.359 204.273 71.2939 204.273 69.8095C204.273 68.4085 204.615 67.3147 205.297 66.5283C205.984 65.7418 206.812 65.3486 207.781 65.3486ZM210.312 69.6454C210.312 68.609 210.099 67.8408 209.672 67.3408C209.245 66.8408 208.701 66.5908 208.039 66.5908C207.049 66.5908 206.372 67.0543 206.008 67.9814C205.815 68.4762 205.719 69.1246 205.719 69.9267C205.719 70.8694 205.909 71.5882 206.289 72.0829C206.674 72.5725 207.19 72.8173 207.836 72.8173C208.846 72.8173 209.557 72.3616 209.969 71.4501C210.198 70.9345 210.312 70.3329 210.312 69.6454ZM213.734 65.5361H215.164V73.8642H213.734V65.5361ZM213.734 62.3876H215.164V63.9814H213.734V62.3876ZM220.523 65.2548C221.466 65.2548 222.232 65.484 222.82 65.9423C223.414 66.4007 223.771 67.1897 223.891 68.3095H222.523C222.44 67.7939 222.25 67.3668 221.953 67.0283C221.656 66.6845 221.18 66.5126 220.523 66.5126C219.628 66.5126 218.987 66.9501 218.602 67.8251C218.352 68.3928 218.227 69.0934 218.227 69.9267C218.227 70.7652 218.404 71.471 218.758 72.0439C219.112 72.6168 219.669 72.9033 220.43 72.9033C221.013 72.9033 221.474 72.7262 221.812 72.372C222.156 72.0126 222.393 71.5231 222.523 70.9033H223.891C223.734 72.0126 223.344 72.8251 222.719 73.3408C222.094 73.8512 221.294 74.1064 220.32 74.1064C219.227 74.1064 218.354 73.7079 217.703 72.9111C217.052 72.109 216.727 71.109 216.727 69.9111C216.727 68.4423 217.083 67.2991 217.797 66.4814C218.51 65.6637 219.419 65.2548 220.523 65.2548ZM226.375 71.6376C226.375 72.0439 226.523 72.3642 226.82 72.5986C227.117 72.8329 227.469 72.9501 227.875 72.9501C228.37 72.9501 228.849 72.8356 229.312 72.6064C230.094 72.2262 230.484 71.6038 230.484 70.7392V69.6064C230.312 69.7158 230.091 69.8069 229.82 69.8798C229.549 69.9527 229.284 70.0048 229.023 70.0361L228.172 70.1454C227.661 70.2132 227.279 70.3199 227.023 70.4658C226.591 70.7106 226.375 71.1012 226.375 71.6376ZM229.781 68.7939C230.104 68.7522 230.32 68.6168 230.43 68.3876C230.492 68.2626 230.523 68.0829 230.523 67.8486C230.523 67.3694 230.352 67.0231 230.008 66.8095C229.669 66.5908 229.182 66.4814 228.547 66.4814C227.812 66.4814 227.292 66.6793 226.984 67.0751C226.812 67.2939 226.701 67.6194 226.648 68.0517H225.336C225.362 67.0204 225.695 66.3043 226.336 65.9033C226.982 65.497 227.729 65.2939 228.578 65.2939C229.562 65.2939 230.362 65.4814 230.977 65.8564C231.586 66.2314 231.891 66.8147 231.891 67.6064V72.4267C231.891 72.5725 231.919 72.6897 231.977 72.7783C232.039 72.8668 232.167 72.9111 232.359 72.9111C232.422 72.9111 232.492 72.9085 232.57 72.9033C232.648 72.8928 232.732 72.8798 232.82 72.8642V73.9033C232.602 73.9658 232.435 74.0048 232.32 74.0204C232.206 74.0361 232.049 74.0439 231.852 74.0439C231.367 74.0439 231.016 73.872 230.797 73.5283C230.682 73.346 230.602 73.0882 230.555 72.7548C230.268 73.1298 229.857 73.4553 229.32 73.7314C228.784 74.0074 228.193 74.1454 227.547 74.1454C226.771 74.1454 226.135 73.9111 225.641 73.4423C225.151 72.9684 224.906 72.3772 224.906 71.6689C224.906 70.8928 225.148 70.2913 225.633 69.8642C226.117 69.4371 226.753 69.1741 227.539 69.0751L229.781 68.7939ZM234.242 62.3876H235.648V73.8642H234.242V62.3876ZM243.125 69.7939C243.125 70.5178 243.227 71.1246 243.43 71.6142C243.789 72.484 244.432 72.9189 245.359 72.9189C246.339 72.9189 247.013 72.4606 247.383 71.5439C247.586 71.0387 247.688 70.3928 247.688 69.6064C247.688 68.8824 247.576 68.2783 247.352 67.7939C246.971 66.9658 246.302 66.5517 245.344 66.5517C244.734 66.5517 244.211 66.8173 243.773 67.3486C243.341 67.8746 243.125 68.6897 243.125 69.7939ZM245.203 65.3095C245.896 65.3095 246.479 65.484 246.953 65.8329C247.214 66.0204 247.464 66.2965 247.703 66.6611V65.497H249.039V77.2001H247.625V72.9033C247.391 73.2783 247.065 73.5777 246.648 73.8017C246.237 74.0204 245.721 74.1298 245.102 74.1298C244.211 74.1298 243.414 73.7809 242.711 73.0829C242.008 72.385 241.656 71.3225 241.656 69.8954C241.656 68.5569 241.984 67.4579 242.641 66.5986C243.302 65.7392 244.156 65.3095 245.203 65.3095ZM252.531 65.497V71.0517C252.531 71.4788 252.599 71.8277 252.734 72.0986C252.984 72.5986 253.451 72.8486 254.133 72.8486C255.112 72.8486 255.779 72.4111 256.133 71.5361C256.326 71.0673 256.422 70.4241 256.422 69.6064V65.497H257.828V73.8642H256.5L256.516 72.6298C256.333 72.9475 256.107 73.2158 255.836 73.4345C255.299 73.872 254.648 74.0908 253.883 74.0908C252.69 74.0908 251.878 73.6923 251.445 72.8954C251.211 72.4684 251.094 71.8981 251.094 71.1845V65.497H252.531ZM263.352 72.9579C264.284 72.9579 264.922 72.6064 265.266 71.9033C265.615 71.1949 265.789 70.4085 265.789 69.5439C265.789 68.7626 265.664 68.1272 265.414 67.6376C265.018 66.8668 264.336 66.4814 263.367 66.4814C262.508 66.4814 261.883 66.8095 261.492 67.4658C261.102 68.122 260.906 68.9137 260.906 69.8408C260.906 70.7314 261.102 71.4736 261.492 72.0673C261.883 72.6611 262.503 72.9579 263.352 72.9579ZM263.406 65.2548C264.484 65.2548 265.396 65.6142 266.141 66.3329C266.885 67.0517 267.258 68.109 267.258 69.5048C267.258 70.8538 266.93 71.9684 266.273 72.8486C265.617 73.7288 264.599 74.1689 263.219 74.1689C262.068 74.1689 261.154 73.7809 260.477 73.0048C259.799 72.2236 259.461 71.1767 259.461 69.8642C259.461 68.4579 259.818 67.3382 260.531 66.5048C261.245 65.6715 262.203 65.2548 263.406 65.2548ZM269.219 63.1611H270.641V65.497H271.977V66.6454H270.641V72.1064C270.641 72.3981 270.74 72.5934 270.938 72.6923C271.047 72.7496 271.229 72.7783 271.484 72.7783C271.552 72.7783 271.625 72.7783 271.703 72.7783C271.781 72.7731 271.872 72.7652 271.977 72.7548V73.8642C271.815 73.9111 271.646 73.9449 271.469 73.9658C271.297 73.9866 271.109 73.997 270.906 73.997C270.25 73.997 269.805 73.8303 269.57 73.497C269.336 73.1585 269.219 72.721 269.219 72.1845V66.6454H268.086V65.497H269.219V63.1611ZM276.875 65.3095C277.469 65.3095 278.044 65.4501 278.602 65.7314C279.159 66.0074 279.583 66.3668 279.875 66.8095C280.156 67.2314 280.344 67.7236 280.438 68.2861C280.521 68.6715 280.562 69.2861 280.562 70.1298H274.43C274.456 70.9788 274.656 71.6611 275.031 72.1767C275.406 72.6871 275.987 72.9423 276.773 72.9423C277.508 72.9423 278.094 72.7001 278.531 72.2158C278.781 71.9345 278.958 71.609 279.062 71.2392H280.445C280.409 71.5465 280.286 71.8902 280.078 72.2704C279.875 72.6454 279.646 72.9527 279.391 73.1923C278.964 73.609 278.435 73.8902 277.805 74.0361C277.466 74.1194 277.083 74.1611 276.656 74.1611C275.615 74.1611 274.732 73.7835 274.008 73.0283C273.284 72.2678 272.922 71.2053 272.922 69.8408C272.922 68.497 273.286 67.4059 274.016 66.5673C274.745 65.7288 275.698 65.3095 276.875 65.3095ZM279.117 69.0126C279.06 68.4033 278.927 67.9163 278.719 67.5517C278.333 66.8746 277.69 66.5361 276.789 66.5361C276.143 66.5361 275.602 66.7704 275.164 67.2392C274.727 67.7027 274.495 68.2939 274.469 69.0126H279.117ZM286.75 62.3486H288.156V66.6298C288.49 66.2079 288.789 65.9111 289.055 65.7392C289.508 65.4423 290.073 65.2939 290.75 65.2939C291.964 65.2939 292.786 65.7184 293.219 66.5673C293.453 67.0309 293.57 67.6741 293.57 68.497V73.8642H292.125V68.5908C292.125 67.9762 292.047 67.5257 291.891 67.2392C291.635 66.7809 291.156 66.5517 290.453 66.5517C289.87 66.5517 289.341 66.7522 288.867 67.1533C288.393 67.5543 288.156 68.3121 288.156 69.4267V73.8642H286.75V62.3486ZM299.141 65.3095C299.734 65.3095 300.31 65.4501 300.867 65.7314C301.424 66.0074 301.849 66.3668 302.141 66.8095C302.422 67.2314 302.609 67.7236 302.703 68.2861C302.786 68.6715 302.828 69.2861 302.828 70.1298H296.695C296.721 70.9788 296.922 71.6611 297.297 72.1767C297.672 72.6871 298.253 72.9423 299.039 72.9423C299.773 72.9423 300.359 72.7001 300.797 72.2158C301.047 71.9345 301.224 71.609 301.328 71.2392H302.711C302.674 71.5465 302.552 71.8902 302.344 72.2704C302.141 72.6454 301.911 72.9527 301.656 73.1923C301.229 73.609 300.701 73.8902 300.07 74.0361C299.732 74.1194 299.349 74.1611 298.922 74.1611C297.88 74.1611 296.997 73.7835 296.273 73.0283C295.549 72.2678 295.188 71.2053 295.188 69.8408C295.188 68.497 295.552 67.4059 296.281 66.5673C297.01 65.7288 297.964 65.3095 299.141 65.3095ZM301.383 69.0126C301.326 68.4033 301.193 67.9163 300.984 67.5517C300.599 66.8746 299.956 66.5361 299.055 66.5361C298.409 66.5361 297.867 66.7704 297.43 67.2392C296.992 67.7027 296.76 68.2939 296.734 69.0126H301.383ZM304.602 65.497H305.938V66.9423C306.047 66.6611 306.315 66.3199 306.742 65.9189C307.169 65.5126 307.661 65.3095 308.219 65.3095C308.245 65.3095 308.289 65.3121 308.352 65.3173C308.414 65.3225 308.521 65.3329 308.672 65.3486V66.8329C308.589 66.8173 308.51 66.8069 308.438 66.8017C308.37 66.7965 308.294 66.7939 308.211 66.7939C307.503 66.7939 306.958 67.0231 306.578 67.4814C306.198 67.9345 306.008 68.4579 306.008 69.0517V73.8642H304.602V65.497ZM313.375 65.3095C313.969 65.3095 314.544 65.4501 315.102 65.7314C315.659 66.0074 316.083 66.3668 316.375 66.8095C316.656 67.2314 316.844 67.7236 316.938 68.2861C317.021 68.6715 317.062 69.2861 317.062 70.1298H310.93C310.956 70.9788 311.156 71.6611 311.531 72.1767C311.906 72.6871 312.487 72.9423 313.273 72.9423C314.008 72.9423 314.594 72.7001 315.031 72.2158C315.281 71.9345 315.458 71.609 315.562 71.2392H316.945C316.909 71.5465 316.786 71.8902 316.578 72.2704C316.375 72.6454 316.146 72.9527 315.891 73.1923C315.464 73.609 314.935 73.8902 314.305 74.0361C313.966 74.1194 313.583 74.1611 313.156 74.1611C312.115 74.1611 311.232 73.7835 310.508 73.0283C309.784 72.2678 309.422 71.2053 309.422 69.8408C309.422 68.497 309.786 67.4059 310.516 66.5673C311.245 65.7288 312.198 65.3095 313.375 65.3095ZM315.617 69.0126C315.56 68.4033 315.427 67.9163 315.219 67.5517C314.833 66.8746 314.19 66.5361 313.289 66.5361C312.643 66.5361 312.102 66.7704 311.664 67.2392C311.227 67.7027 310.995 68.2939 310.969 69.0126H315.617ZM319.133 72.1611H320.766V73.8642H319.133V72.1611ZM328.242 62.3876H329.812V73.8642H328.242V62.3876ZM332.438 63.1611H333.859V65.497H335.195V66.6454H333.859V72.1064C333.859 72.3981 333.958 72.5934 334.156 72.6923C334.266 72.7496 334.448 72.7783 334.703 72.7783C334.771 72.7783 334.844 72.7783 334.922 72.7783C335 72.7731 335.091 72.7652 335.195 72.7548V73.8642C335.034 73.9111 334.865 73.9449 334.688 73.9658C334.516 73.9866 334.328 73.997 334.125 73.997C333.469 73.997 333.023 73.8303 332.789 73.497C332.555 73.1585 332.438 72.721 332.438 72.1845V66.6454H331.305V65.497H332.438V63.1611ZM337.445 71.2392C337.487 71.7079 337.604 72.0673 337.797 72.3173C338.151 72.7704 338.766 72.997 339.641 72.997C340.161 72.997 340.62 72.885 341.016 72.6611C341.411 72.4319 341.609 72.0803 341.609 71.6064C341.609 71.247 341.451 70.9736 341.133 70.7861C340.93 70.6715 340.529 70.5387 339.93 70.3876L338.812 70.1064C338.099 69.9293 337.573 69.7314 337.234 69.5126C336.63 69.1324 336.328 68.6064 336.328 67.9345C336.328 67.1428 336.612 66.5022 337.18 66.0126C337.753 65.5231 338.521 65.2783 339.484 65.2783C340.745 65.2783 341.654 65.6481 342.211 66.3876C342.56 66.8564 342.729 67.3616 342.719 67.9033H341.391C341.365 67.5856 341.253 67.2965 341.055 67.0361C340.732 66.6663 340.172 66.4814 339.375 66.4814C338.844 66.4814 338.44 66.5829 338.164 66.7861C337.893 66.9892 337.758 67.2574 337.758 67.5908C337.758 67.9553 337.938 68.247 338.297 68.4658C338.505 68.596 338.812 68.7106 339.219 68.8095L340.148 69.0361C341.159 69.2809 341.836 69.5178 342.18 69.747C342.727 70.1064 343 70.6715 343 71.4423C343 72.1871 342.716 72.8303 342.148 73.372C341.586 73.9137 340.727 74.1845 339.57 74.1845C338.326 74.1845 337.443 73.9033 336.922 73.3408C336.406 72.7731 336.13 72.0725 336.094 71.2392H337.445ZM352.594 72.9189C353.25 72.9189 353.794 72.6454 354.227 72.0986C354.664 71.5465 354.883 70.7236 354.883 69.6298C354.883 68.9632 354.786 68.3902 354.594 67.9111C354.229 66.9892 353.562 66.5283 352.594 66.5283C351.62 66.5283 350.953 67.0152 350.594 67.9892C350.401 68.51 350.305 69.1715 350.305 69.9736C350.305 70.6194 350.401 71.1689 350.594 71.622C350.958 72.4866 351.625 72.9189 352.594 72.9189ZM348.953 65.5361H350.32V66.6454C350.602 66.2652 350.909 65.971 351.242 65.7626C351.716 65.4501 352.273 65.2939 352.914 65.2939C353.862 65.2939 354.667 65.6585 355.328 66.3876C355.99 67.1116 356.32 68.1481 356.32 69.497C356.32 71.3199 355.844 72.622 354.891 73.4033C354.286 73.8981 353.583 74.1454 352.781 74.1454C352.151 74.1454 351.622 74.0074 351.195 73.7314C350.945 73.5751 350.667 73.3069 350.359 72.9267V77.2001H348.953V65.5361ZM358.008 65.497H359.344V66.9423C359.453 66.6611 359.721 66.3199 360.148 65.9189C360.576 65.5126 361.068 65.3095 361.625 65.3095C361.651 65.3095 361.695 65.3121 361.758 65.3173C361.82 65.3225 361.927 65.3329 362.078 65.3486V66.8329C361.995 66.8173 361.917 66.8069 361.844 66.8017C361.776 66.7965 361.701 66.7939 361.617 66.7939C360.909 66.7939 360.365 67.0231 359.984 67.4814C359.604 67.9345 359.414 68.4579 359.414 69.0517V73.8642H358.008V65.497ZM366.781 65.3095C367.375 65.3095 367.951 65.4501 368.508 65.7314C369.065 66.0074 369.49 66.3668 369.781 66.8095C370.062 67.2314 370.25 67.7236 370.344 68.2861C370.427 68.6715 370.469 69.2861 370.469 70.1298H364.336C364.362 70.9788 364.562 71.6611 364.938 72.1767C365.312 72.6871 365.893 72.9423 366.68 72.9423C367.414 72.9423 368 72.7001 368.438 72.2158C368.688 71.9345 368.865 71.609 368.969 71.2392H370.352C370.315 71.5465 370.193 71.8902 369.984 72.2704C369.781 72.6454 369.552 72.9527 369.297 73.1923C368.87 73.609 368.341 73.8902 367.711 74.0361C367.372 74.1194 366.99 74.1611 366.562 74.1611C365.521 74.1611 364.638 73.7835 363.914 73.0283C363.19 72.2678 362.828 71.2053 362.828 69.8408C362.828 68.497 363.193 67.4059 363.922 66.5673C364.651 65.7288 365.604 65.3095 366.781 65.3095ZM369.023 69.0126C368.966 68.4033 368.833 67.9163 368.625 67.5517C368.24 66.8746 367.596 66.5361 366.695 66.5361C366.049 66.5361 365.508 66.7704 365.07 67.2392C364.633 67.7027 364.401 68.2939 364.375 69.0126H369.023ZM372.484 63.1611H373.906V65.497H375.242V66.6454H373.906V72.1064C373.906 72.3981 374.005 72.5934 374.203 72.6923C374.312 72.7496 374.495 72.7783 374.75 72.7783C374.818 72.7783 374.891 72.7783 374.969 72.7783C375.047 72.7731 375.138 72.7652 375.242 72.7548V73.8642C375.081 73.9111 374.911 73.9449 374.734 73.9658C374.562 73.9866 374.375 73.997 374.172 73.997C373.516 73.997 373.07 73.8303 372.836 73.497C372.602 73.1585 372.484 72.721 372.484 72.1845V66.6454H371.352V65.497H372.484V63.1611ZM376.938 63.1611H378.359V65.497H379.695V66.6454H378.359V72.1064C378.359 72.3981 378.458 72.5934 378.656 72.6923C378.766 72.7496 378.948 72.7783 379.203 72.7783C379.271 72.7783 379.344 72.7783 379.422 72.7783C379.5 72.7731 379.591 72.7652 379.695 72.7548V73.8642C379.534 73.9111 379.365 73.9449 379.188 73.9658C379.016 73.9866 378.828 73.997 378.625 73.997C377.969 73.997 377.523 73.8303 377.289 73.497C377.055 73.1585 376.938 72.721 376.938 72.1845V66.6454H375.805V65.497H376.938V63.1611ZM386.336 65.497H387.891C387.693 66.0335 387.253 67.2574 386.57 69.1689C386.06 70.6064 385.633 71.7783 385.289 72.6845C384.477 74.8199 383.904 76.122 383.57 76.5908C383.237 77.0595 382.664 77.2939 381.852 77.2939C381.654 77.2939 381.5 77.2861 381.391 77.2704C381.286 77.2548 381.156 77.2262 381 77.1845V75.9033C381.245 75.971 381.422 76.0126 381.531 76.0283C381.641 76.0439 381.737 76.0517 381.82 76.0517C382.081 76.0517 382.271 76.0074 382.391 75.9189C382.516 75.8356 382.62 75.7314 382.703 75.6064C382.729 75.5647 382.823 75.3512 382.984 74.9658C383.146 74.5803 383.263 74.2939 383.336 74.1064L380.242 65.497H381.836L384.078 72.3095L386.336 65.497ZM397.047 65.3095C397.641 65.3095 398.216 65.4501 398.773 65.7314C399.331 66.0074 399.755 66.3668 400.047 66.8095C400.328 67.2314 400.516 67.7236 400.609 68.2861C400.693 68.6715 400.734 69.2861 400.734 70.1298H394.602C394.628 70.9788 394.828 71.6611 395.203 72.1767C395.578 72.6871 396.159 72.9423 396.945 72.9423C397.68 72.9423 398.266 72.7001 398.703 72.2158C398.953 71.9345 399.13 71.609 399.234 71.2392H400.617C400.581 71.5465 400.458 71.8902 400.25 72.2704C400.047 72.6454 399.818 72.9527 399.562 73.1923C399.135 73.609 398.607 73.8902 397.977 74.0361C397.638 74.1194 397.255 74.1611 396.828 74.1611C395.786 74.1611 394.904 73.7835 394.18 73.0283C393.456 72.2678 393.094 71.2053 393.094 69.8408C393.094 68.497 393.458 67.4059 394.188 66.5673C394.917 65.7288 395.87 65.3095 397.047 65.3095ZM399.289 69.0126C399.232 68.4033 399.099 67.9163 398.891 67.5517C398.505 66.8746 397.862 66.5361 396.961 66.5361C396.315 66.5361 395.773 66.7704 395.336 67.2392C394.898 67.7027 394.667 68.2939 394.641 69.0126H399.289ZM403.547 71.6376C403.547 72.0439 403.695 72.3642 403.992 72.5986C404.289 72.8329 404.641 72.9501 405.047 72.9501C405.542 72.9501 406.021 72.8356 406.484 72.6064C407.266 72.2262 407.656 71.6038 407.656 70.7392V69.6064C407.484 69.7158 407.263 69.8069 406.992 69.8798C406.721 69.9527 406.456 70.0048 406.195 70.0361L405.344 70.1454C404.833 70.2132 404.451 70.3199 404.195 70.4658C403.763 70.7106 403.547 71.1012 403.547 71.6376ZM406.953 68.7939C407.276 68.7522 407.492 68.6168 407.602 68.3876C407.664 68.2626 407.695 68.0829 407.695 67.8486C407.695 67.3694 407.523 67.0231 407.18 66.8095C406.841 66.5908 406.354 66.4814 405.719 66.4814C404.984 66.4814 404.464 66.6793 404.156 67.0751C403.984 67.2939 403.872 67.6194 403.82 68.0517H402.508C402.534 67.0204 402.867 66.3043 403.508 65.9033C404.154 65.497 404.901 65.2939 405.75 65.2939C406.734 65.2939 407.534 65.4814 408.148 65.8564C408.758 66.2314 409.062 66.8147 409.062 67.6064V72.4267C409.062 72.5725 409.091 72.6897 409.148 72.7783C409.211 72.8668 409.339 72.9111 409.531 72.9111C409.594 72.9111 409.664 72.9085 409.742 72.9033C409.82 72.8928 409.904 72.8798 409.992 72.8642V73.9033C409.773 73.9658 409.607 74.0048 409.492 74.0204C409.378 74.0361 409.221 74.0439 409.023 74.0439C408.539 74.0439 408.188 73.872 407.969 73.5283C407.854 73.346 407.773 73.0882 407.727 72.7548C407.44 73.1298 407.029 73.4553 406.492 73.7314C405.956 74.0074 405.365 74.1454 404.719 74.1454C403.943 74.1454 403.307 73.9111 402.812 73.4423C402.323 72.9684 402.078 72.3772 402.078 71.6689C402.078 70.8928 402.32 70.2913 402.805 69.8642C403.289 69.4371 403.924 69.1741 404.711 69.0751L406.953 68.7939ZM412.211 71.2392C412.253 71.7079 412.37 72.0673 412.562 72.3173C412.917 72.7704 413.531 72.997 414.406 72.997C414.927 72.997 415.385 72.885 415.781 72.6611C416.177 72.4319 416.375 72.0803 416.375 71.6064C416.375 71.247 416.216 70.9736 415.898 70.7861C415.695 70.6715 415.294 70.5387 414.695 70.3876L413.578 70.1064C412.865 69.9293 412.339 69.7314 412 69.5126C411.396 69.1324 411.094 68.6064 411.094 67.9345C411.094 67.1428 411.378 66.5022 411.945 66.0126C412.518 65.5231 413.286 65.2783 414.25 65.2783C415.51 65.2783 416.419 65.6481 416.977 66.3876C417.326 66.8564 417.495 67.3616 417.484 67.9033H416.156C416.13 67.5856 416.018 67.2965 415.82 67.0361C415.497 66.6663 414.938 66.4814 414.141 66.4814C413.609 66.4814 413.206 66.5829 412.93 66.7861C412.659 66.9892 412.523 67.2574 412.523 67.5908C412.523 67.9553 412.703 68.247 413.062 68.4658C413.271 68.596 413.578 68.7106 413.984 68.8095L414.914 69.0361C415.924 69.2809 416.602 69.5178 416.945 69.747C417.492 70.1064 417.766 70.6715 417.766 71.4423C417.766 72.1871 417.482 72.8303 416.914 73.372C416.352 73.9137 415.492 74.1845 414.336 74.1845C413.091 74.1845 412.208 73.9033 411.688 73.3408C411.172 72.7731 410.896 72.0725 410.859 71.2392H412.211ZM424.602 65.497H426.156C425.958 66.0335 425.518 67.2574 424.836 69.1689C424.326 70.6064 423.898 71.7783 423.555 72.6845C422.742 74.8199 422.169 76.122 421.836 76.5908C421.503 77.0595 420.93 77.2939 420.117 77.2939C419.919 77.2939 419.766 77.2861 419.656 77.2704C419.552 77.2548 419.422 77.2262 419.266 77.1845V75.9033C419.51 75.971 419.688 76.0126 419.797 76.0283C419.906 76.0439 420.003 76.0517 420.086 76.0517C420.346 76.0517 420.536 76.0074 420.656 75.9189C420.781 75.8356 420.885 75.7314 420.969 75.6064C420.995 75.5647 421.089 75.3512 421.25 74.9658C421.411 74.5803 421.529 74.2939 421.602 74.1064L418.508 65.497H420.102L422.344 72.3095L424.602 65.497ZM426.523 72.1611H428.156V73.8642H426.523V72.1611Z" fill="white"/>
<path d="M5.92188 23.8906C6.06771 24.9427 6.35417 25.7292 6.78125 26.25C7.5625 27.1979 8.90104 27.6719 10.7969 27.6719C11.9323 27.6719 12.8542 27.5469 13.5625 27.2969C14.9062 26.8177 15.5781 25.9271 15.5781 24.625C15.5781 23.8646 15.2448 23.276 14.5781 22.8594C13.9115 22.4531 12.8646 22.0938 11.4375 21.7812L9 21.2344C6.60417 20.6927 4.94792 20.1042 4.03125 19.4688C2.47917 18.4062 1.70312 16.7448 1.70312 14.4844C1.70312 12.4219 2.45312 10.7083 3.95312 9.34375C5.45312 7.97917 7.65625 7.29688 10.5625 7.29688C12.9896 7.29688 15.0573 7.94271 16.7656 9.23438C18.4844 10.5156 19.3854 12.3802 19.4688 14.8281H14.8438C14.7604 13.4427 14.1562 12.4583 13.0312 11.875C12.2812 11.4896 11.349 11.2969 10.2344 11.2969C8.99479 11.2969 8.00521 11.5469 7.26562 12.0469C6.52604 12.5469 6.15625 13.2448 6.15625 14.1406C6.15625 14.9635 6.52083 15.5781 7.25 15.9844C7.71875 16.2552 8.71875 16.5729 10.25 16.9375L14.2188 17.8906C15.9583 18.3073 17.2708 18.8646 18.1562 19.5625C19.5312 20.6458 20.2188 22.2135 20.2188 24.2656C20.2188 26.3698 19.4115 28.1198 17.7969 29.5156C16.1927 30.901 13.9219 31.5938 10.9844 31.5938C7.98438 31.5938 5.625 30.9115 3.90625 29.5469C2.1875 28.1719 1.32812 26.2865 1.32812 23.8906H5.92188ZM21.6719 17.2969V14.125H24.0469V9.375H28.4531V14.125H31.2188V17.2969H28.4531V26.2969C28.4531 26.9948 28.5417 27.4323 28.7188 27.6094C28.8958 27.776 29.4375 27.8594 30.3438 27.8594C30.4792 27.8594 30.6198 27.8594 30.7656 27.8594C30.9219 27.849 31.0729 27.8385 31.2188 27.8281V31.1562L29.1094 31.2344C27.0052 31.3073 25.5677 30.9427 24.7969 30.1406C24.2969 29.6302 24.0469 28.8438 24.0469 27.7812V17.2969H21.6719Z" fill="#FF9F0D"/>
<path d="M38.6562 11.9375H34.1406V7.82812H38.6562V11.9375ZM34.1406 13.9688H38.6562V31H34.1406V13.9688ZM47.5312 31H43.0781V7.96875H47.5312V31ZM56.4375 31H51.9844V7.96875H56.4375V31ZM82.6406 7.96875H88.0938L80.3906 22.3438V31H75.5781V22.3438L67.6094 7.96875H73.2812L78.0625 18L82.6406 7.96875ZM95.75 27.8594C97.0521 27.8594 98.0521 27.3958 98.75 26.4688C99.4479 25.5417 99.7969 24.224 99.7969 22.5156C99.7969 20.8073 99.4479 19.4948 98.75 18.5781C98.0521 17.651 97.0521 17.1875 95.75 17.1875C94.4479 17.1875 93.4427 17.651 92.7344 18.5781C92.0365 19.4948 91.6875 20.8073 91.6875 22.5156C91.6875 24.224 92.0365 25.5417 92.7344 26.4688C93.4427 27.3958 94.4479 27.8594 95.75 27.8594ZM104.469 22.5156C104.469 25.0156 103.75 27.1562 102.312 28.9375C100.875 30.7083 98.6927 31.5938 95.7656 31.5938C92.8385 31.5938 90.6562 30.7083 89.2188 28.9375C87.7812 27.1562 87.0625 25.0156 87.0625 22.5156C87.0625 20.0573 87.7812 17.9271 89.2188 16.125C90.6562 14.3229 92.8385 13.4219 95.7656 13.4219C98.6927 13.4219 100.875 14.3229 102.312 16.125C103.75 17.9271 104.469 20.0573 104.469 22.5156ZM112.109 13.9688V24.2344C112.109 25.2031 112.224 25.9323 112.453 26.4219C112.859 27.2865 113.656 27.7188 114.844 27.7188C116.365 27.7188 117.406 27.1042 117.969 25.875C118.26 25.2083 118.406 24.3281 118.406 23.2344V13.9688H122.922V31H118.594V28.5938C118.552 28.6458 118.448 28.8021 118.281 29.0625C118.115 29.3229 117.917 29.5521 117.688 29.75C116.99 30.375 116.312 30.8021 115.656 31.0312C115.01 31.2604 114.25 31.375 113.375 31.375C110.854 31.375 109.156 30.4688 108.281 28.6562C107.792 27.6562 107.547 26.1823 107.547 24.2344V13.9688H112.109ZM136.422 7.96875H141.469L150.641 24.0469V7.96875H155.125V31H150.312L140.906 14.6406V31H136.422V7.96875ZM165.984 17.1875C164.953 17.1875 164.151 17.5104 163.578 18.1562C163.016 18.8021 162.661 19.6771 162.516 20.7812H169.438C169.365 19.6042 169.005 18.7135 168.359 18.1094C167.724 17.4948 166.932 17.1875 165.984 17.1875ZM165.984 13.5156C167.401 13.5156 168.677 13.7812 169.812 14.3125C170.948 14.8438 171.885 15.6823 172.625 16.8281C173.292 17.8385 173.724 19.0104 173.922 20.3438C174.036 21.125 174.083 22.25 174.062 23.7188H162.406C162.469 25.4271 163.005 26.625 164.016 27.3125C164.63 27.7396 165.37 27.9531 166.234 27.9531C167.151 27.9531 167.896 27.6927 168.469 27.1719C168.781 26.8906 169.057 26.5 169.297 26H173.844C173.729 27.0104 173.203 28.0365 172.266 29.0781C170.807 30.7344 168.766 31.5625 166.141 31.5625C163.974 31.5625 162.062 30.8646 160.406 29.4688C158.75 28.0729 157.922 25.8021 157.922 22.6562C157.922 19.7083 158.667 17.4479 160.156 15.875C161.656 14.3021 163.599 13.5156 165.984 13.5156ZM183.797 17.1875C182.766 17.1875 181.964 17.5104 181.391 18.1562C180.828 18.8021 180.474 19.6771 180.328 20.7812H187.25C187.177 19.6042 186.818 18.7135 186.172 18.1094C185.536 17.4948 184.745 17.1875 183.797 17.1875ZM183.797 13.5156C185.214 13.5156 186.49 13.7812 187.625 14.3125C188.76 14.8438 189.698 15.6823 190.438 16.8281C191.104 17.8385 191.536 19.0104 191.734 20.3438C191.849 21.125 191.896 22.25 191.875 23.7188H180.219C180.281 25.4271 180.818 26.625 181.828 27.3125C182.443 27.7396 183.182 27.9531 184.047 27.9531C184.964 27.9531 185.708 27.6927 186.281 27.1719C186.594 26.8906 186.87 26.5 187.109 26H191.656C191.542 27.0104 191.016 28.0365 190.078 29.0781C188.62 30.7344 186.578 31.5625 183.953 31.5625C181.786 31.5625 179.875 30.8646 178.219 29.4688C176.562 28.0729 175.734 25.8021 175.734 22.6562C175.734 19.7083 176.479 17.4479 177.969 15.875C179.469 14.3021 181.411 13.5156 183.797 13.5156ZM201.172 13.5625C202.203 13.5625 203.12 13.7917 203.922 14.25C204.724 14.6979 205.375 15.3229 205.875 16.125V8H210.391V31H206.062V28.6406C205.427 29.651 204.703 30.3854 203.891 30.8438C203.078 31.3021 202.068 31.5312 200.859 31.5312C198.87 31.5312 197.193 30.7292 195.828 29.125C194.474 27.5104 193.797 25.4427 193.797 22.9219C193.797 20.0156 194.464 17.7292 195.797 16.0625C197.141 14.3958 198.932 13.5625 201.172 13.5625ZM202.141 27.7812C203.401 27.7812 204.359 27.3125 205.016 26.375C205.672 25.4375 206 24.224 206 22.7344C206 20.651 205.474 19.1615 204.422 18.2656C203.776 17.724 203.026 17.4531 202.172 17.4531C200.87 17.4531 199.911 17.9479 199.297 18.9375C198.693 19.9167 198.391 21.1354 198.391 22.5938C198.391 24.1667 198.698 25.4271 199.312 26.375C199.938 27.3125 200.88 27.7812 202.141 27.7812ZM233.906 27.5625C235.812 27.5625 237.323 26.8594 238.438 25.4531C239.562 24.0469 240.125 22.0469 240.125 19.4531C240.125 16.8698 239.562 14.875 238.438 13.4688C237.323 12.0521 235.812 11.3438 233.906 11.3438C232 11.3438 230.479 12.0469 229.344 13.4531C228.208 14.8594 227.641 16.8594 227.641 19.4531C227.641 22.0469 228.208 24.0469 229.344 25.4531C230.479 26.8594 232 27.5625 233.906 27.5625ZM244.938 19.4531C244.938 23.5885 243.776 26.7552 241.453 28.9531C239.714 30.7448 237.198 31.6406 233.906 31.6406C230.615 31.6406 228.099 30.7448 226.359 28.9531C224.026 26.7552 222.859 23.5885 222.859 19.4531C222.859 15.2344 224.026 12.0677 226.359 9.95312C228.099 8.16146 230.615 7.26562 233.906 7.26562C237.198 7.26562 239.714 8.16146 241.453 9.95312C243.776 12.0677 244.938 15.2344 244.938 19.4531ZM252.703 13.9688V24.2344C252.703 25.2031 252.818 25.9323 253.047 26.4219C253.453 27.2865 254.25 27.7188 255.438 27.7188C256.958 27.7188 258 27.1042 258.562 25.875C258.854 25.2083 259 24.3281 259 23.2344V13.9688H263.516V31H259.188V28.5938C259.146 28.6458 259.042 28.8021 258.875 29.0625C258.708 29.3229 258.51 29.5521 258.281 29.75C257.583 30.375 256.906 30.8021 256.25 31.0312C255.604 31.2604 254.844 31.375 253.969 31.375C251.448 31.375 249.75 30.4688 248.875 28.6562C248.385 27.6562 248.141 26.1823 248.141 24.2344V13.9688H252.703ZM277.078 13.5625C277.161 13.5625 277.229 13.5677 277.281 13.5781C277.344 13.5781 277.474 13.5833 277.672 13.5938V18.1562C277.391 18.125 277.141 18.1042 276.922 18.0938C276.703 18.0833 276.526 18.0781 276.391 18.0781C274.599 18.0781 273.396 18.6615 272.781 19.8281C272.438 20.4844 272.266 21.4948 272.266 22.8594V31H267.781V13.9688H272.031V16.9375C272.719 15.8021 273.318 15.026 273.828 14.6094C274.661 13.9115 275.745 13.5625 277.078 13.5625ZM293.047 23.8906C293.193 24.9427 293.479 25.7292 293.906 26.25C294.688 27.1979 296.026 27.6719 297.922 27.6719C299.057 27.6719 299.979 27.5469 300.688 27.2969C302.031 26.8177 302.703 25.9271 302.703 24.625C302.703 23.8646 302.37 23.276 301.703 22.8594C301.036 22.4531 299.99 22.0938 298.562 21.7812L296.125 21.2344C293.729 20.6927 292.073 20.1042 291.156 19.4688C289.604 18.4062 288.828 16.7448 288.828 14.4844C288.828 12.4219 289.578 10.7083 291.078 9.34375C292.578 7.97917 294.781 7.29688 297.688 7.29688C300.115 7.29688 302.182 7.94271 303.891 9.23438C305.609 10.5156 306.51 12.3802 306.594 14.8281H301.969C301.885 13.4427 301.281 12.4583 300.156 11.875C299.406 11.4896 298.474 11.2969 297.359 11.2969C296.12 11.2969 295.13 11.5469 294.391 12.0469C293.651 12.5469 293.281 13.2448 293.281 14.1406C293.281 14.9635 293.646 15.5781 294.375 15.9844C294.844 16.2552 295.844 16.5729 297.375 16.9375L301.344 17.8906C303.083 18.3073 304.396 18.8646 305.281 19.5625C306.656 20.6458 307.344 22.2135 307.344 24.2656C307.344 26.3698 306.536 28.1198 304.922 29.5156C303.318 30.901 301.047 31.5938 298.109 31.5938C295.109 31.5938 292.75 30.9115 291.031 29.5469C289.312 28.1719 288.453 26.2865 288.453 23.8906H293.047ZM314.984 13.9688V24.2344C314.984 25.2031 315.099 25.9323 315.328 26.4219C315.734 27.2865 316.531 27.7188 317.719 27.7188C319.24 27.7188 320.281 27.1042 320.844 25.875C321.135 25.2083 321.281 24.3281 321.281 23.2344V13.9688H325.797V31H321.469V28.5938C321.427 28.6458 321.323 28.8021 321.156 29.0625C320.99 29.3229 320.792 29.5521 320.562 29.75C319.865 30.375 319.188 30.8021 318.531 31.0312C317.885 31.2604 317.125 31.375 316.25 31.375C313.729 31.375 312.031 30.4688 311.156 28.6562C310.667 27.6562 310.422 26.1823 310.422 24.2344V13.9688H314.984ZM341.844 22.4844C341.844 21.1719 341.542 20.0104 340.938 19C340.344 17.9896 339.375 17.4844 338.031 17.4844C336.417 17.4844 335.307 18.25 334.703 19.7812C334.391 20.5938 334.234 21.625 334.234 22.875C334.234 24.8542 334.76 26.2448 335.812 27.0469C336.438 27.5156 337.177 27.75 338.031 27.75C339.271 27.75 340.214 27.2708 340.859 26.3125C341.516 25.3542 341.844 24.0781 341.844 22.4844ZM339.312 13.5938C341.302 13.5938 342.984 14.3281 344.359 15.7969C345.745 17.2656 346.438 19.4219 346.438 22.2656C346.438 25.2656 345.76 27.5521 344.406 29.125C343.062 30.6979 341.328 31.4844 339.203 31.4844C337.849 31.4844 336.724 31.1458 335.828 30.4688C335.339 30.0938 334.859 29.5469 334.391 28.8281V37.7031H329.984V13.9688H334.25V16.4844C334.729 15.7448 335.24 15.1615 335.781 14.7344C336.771 13.974 337.948 13.5938 339.312 13.5938ZM361.406 22.4844C361.406 21.1719 361.104 20.0104 360.5 19C359.906 17.9896 358.938 17.4844 357.594 17.4844C355.979 17.4844 354.87 18.25 354.266 19.7812C353.953 20.5938 353.797 21.625 353.797 22.875C353.797 24.8542 354.323 26.2448 355.375 27.0469C356 27.5156 356.74 27.75 357.594 27.75C358.833 27.75 359.776 27.2708 360.422 26.3125C361.078 25.3542 361.406 24.0781 361.406 22.4844ZM358.875 13.5938C360.865 13.5938 362.547 14.3281 363.922 15.7969C365.307 17.2656 366 19.4219 366 22.2656C366 25.2656 365.323 27.5521 363.969 29.125C362.625 30.6979 360.891 31.4844 358.766 31.4844C357.411 31.4844 356.286 31.1458 355.391 30.4688C354.901 30.0938 354.422 29.5469 353.953 28.8281V37.7031H349.547V13.9688H353.812V16.4844C354.292 15.7448 354.802 15.1615 355.344 14.7344C356.333 13.974 357.51 13.5938 358.875 13.5938ZM376.875 27.8594C378.177 27.8594 379.177 27.3958 379.875 26.4688C380.573 25.5417 380.922 24.224 380.922 22.5156C380.922 20.8073 380.573 19.4948 379.875 18.5781C379.177 17.651 378.177 17.1875 376.875 17.1875C375.573 17.1875 374.568 17.651 373.859 18.5781C373.161 19.4948 372.812 20.8073 372.812 22.5156C372.812 24.224 373.161 25.5417 373.859 26.4688C374.568 27.3958 375.573 27.8594 376.875 27.8594ZM385.594 22.5156C385.594 25.0156 384.875 27.1562 383.438 28.9375C382 30.7083 379.818 31.5938 376.891 31.5938C373.964 31.5938 371.781 30.7083 370.344 28.9375C368.906 27.1562 368.188 25.0156 368.188 22.5156C368.188 20.0573 368.906 17.9271 370.344 16.125C371.781 14.3229 373.964 13.4219 376.891 13.4219C379.818 13.4219 382 14.3229 383.438 16.125C384.875 17.9271 385.594 20.0573 385.594 22.5156ZM398.047 13.5625C398.13 13.5625 398.198 13.5677 398.25 13.5781C398.312 13.5781 398.443 13.5833 398.641 13.5938V18.1562C398.359 18.125 398.109 18.1042 397.891 18.0938C397.672 18.0833 397.495 18.0781 397.359 18.0781C395.568 18.0781 394.365 18.6615 393.75 19.8281C393.406 20.4844 393.234 21.4948 393.234 22.8594V31H388.75V13.9688H393V16.9375C393.688 15.8021 394.286 15.026 394.797 14.6094C395.63 13.9115 396.714 13.5625 398.047 13.5625ZM399.516 17.2969V14.125H401.891V9.375H406.297V14.125H409.062V17.2969H406.297V26.2969C406.297 26.9948 406.385 27.4323 406.562 27.6094C406.74 27.776 407.281 27.8594 408.188 27.8594C408.323 27.8594 408.464 27.8594 408.609 27.8594C408.766 27.849 408.917 27.8385 409.062 27.8281V31.1562L406.953 31.2344C404.849 31.3073 403.411 30.9427 402.641 30.1406C402.141 29.6302 401.891 28.8438 401.891 27.7812V17.2969H399.516ZM426.375 26.4844H431.031V31H426.375V26.4844ZM420.672 15.2344C420.797 12.2656 421.833 10.1615 423.781 8.92188C425.01 8.13021 426.521 7.73438 428.312 7.73438C430.667 7.73438 432.62 8.29688 434.172 9.42188C435.734 10.5469 436.516 12.2135 436.516 14.4219C436.516 15.776 436.177 16.9167 435.5 17.8438C435.104 18.4062 434.344 19.125 433.219 20L432.109 20.8594C431.505 21.3281 431.104 21.875 430.906 22.5C430.781 22.8958 430.714 23.5104 430.703 24.3438H426.484C426.547 22.5833 426.714 21.3698 426.984 20.7031C427.255 20.026 427.953 19.25 429.078 18.375L430.219 17.4844C430.594 17.2031 430.896 16.8958 431.125 16.5625C431.542 15.9896 431.75 15.3594 431.75 14.6719C431.75 13.8802 431.516 13.1615 431.047 12.5156C430.589 11.8594 429.745 11.5312 428.516 11.5312C427.307 11.5312 426.448 11.9323 425.938 12.7344C425.438 13.5365 425.188 14.3698 425.188 15.2344H420.672Z" fill="white"/>
<path d="M0 111.728L1169 112" stroke="#FF9F0D"/>
</svg>
