<svg width="43" height="42" viewBox="0 0 43 42" fill="none" xmlns="http://www.w3.org/2000/svg">
<path d="M14.6121 42C15.1065 42.0001 15.6002 41.9592 16.0881 41.8779C16.2446 41.8522 16.4056 41.821 16.5652 41.7851C17.4594 41.5849 18.3185 41.2483 19.1131 40.7869C21.485 39.4141 23.3532 36.9079 24.3736 33.73C24.7169 32.6541 24.9597 31.5479 25.0987 30.4259C25.4369 30.4594 25.7781 30.4781 26.1227 30.4781C28.2121 30.4781 30.407 29.8658 32.5634 28.6704C35.3507 27.1253 37.8188 24.7373 39.7008 21.7647C43.9545 15.0486 44.0708 7.07474 39.9781 2.80528C39.2758 2.07114 38.4563 1.46226 37.5542 1.00422C34.8402 -0.375688 31.4992 -0.332152 28.1468 1.12657C24.8436 2.5637 21.8198 5.25804 19.6323 8.71267C18.9856 9.73311 18.4231 10.8059 17.9505 11.9201C16.0337 10.4917 13.8824 9.66939 11.6776 9.64123C10.9872 9.63251 10.2981 9.70406 9.62378 9.85446C9.31404 9.92347 9.00822 10.0095 8.70768 10.1121C5.82812 11.0871 3.50091 13.5166 2.15486 16.9535C0.828354 20.3386 0.578133 24.4111 1.45005 28.4195C3.17529 36.3551 8.77957 42 14.6121 42V42ZM39.4383 4.32913C40.8533 6.09998 41.602 8.56944 41.559 11.3701C41.5103 14.5612 40.431 17.9805 38.5203 20.997C36.7647 23.7699 34.472 25.9921 31.8902 27.4234C29.691 28.6425 27.3849 29.1973 25.3147 29.0186C29.3928 25.773 32.1388 21.1105 33.0221 15.9324C33.7278 11.8187 35.6941 8.03463 38.642 5.1174L39.4383 4.32913ZM36.2804 3.58173L37.3595 2.51403C37.4471 2.56637 37.5353 2.62012 37.6225 2.67636C37.9161 2.86749 38.1964 3.07892 38.4613 3.30914L37.6619 4.0999C34.5029 7.22588 32.3959 11.2809 31.6398 15.6892C30.8761 20.1664 28.6175 24.2418 25.2422 27.2327C25.2233 26.6577 25.1807 26.0789 25.1145 25.4963C28.0144 22.4401 29.946 18.5748 30.6608 14.3972C31.3584 10.2806 33.3258 6.49404 36.2804 3.58173V3.58173ZM20.8126 9.48041C24.6929 3.35232 31.163 0.187702 35.9946 1.87814L35.3004 2.56494C32.1345 5.68548 30.0262 9.74285 29.2787 14.154C28.6753 17.6823 27.1399 20.9791 24.8357 23.694C24.8048 23.536 24.7728 23.378 24.7384 23.2199C23.8086 18.9434 21.7349 15.2946 19.0823 12.8593C19.5546 11.6812 20.1339 10.55 20.8126 9.48041V9.48041ZM12.3521 12.2329L12.3631 11.1045C14.5995 11.3385 16.8543 12.5438 18.7822 14.5506C20.9788 16.8376 22.6077 20.0252 23.3689 23.5259C24.0996 26.8876 23.9826 30.3554 23.0402 33.2904C22.3188 35.5366 21.1412 37.3966 19.6576 38.6689C20.2662 33.4502 18.9442 28.1883 15.9473 23.8999C13.6014 20.5493 12.3443 16.5411 12.3508 12.4329C12.3508 12.3666 12.3508 12.3011 12.3517 12.2329H12.3521ZM9.6123 12.8448L9.62659 11.3166C9.72557 11.2899 9.82499 11.2651 9.92512 11.2428C10.2663 11.1669 10.6122 11.1148 10.9605 11.0869L10.9494 12.2172C10.9484 12.2895 10.9484 12.3608 10.9484 12.4331C10.9414 16.8354 12.2884 21.1305 14.8022 24.7209C17.6364 28.7762 18.8645 33.7622 18.2432 38.6914L18.1149 39.7186C17.6934 39.939 17.2527 40.1191 16.7983 40.2568L16.8947 39.4821C17.0055 38.5934 17.0612 37.6986 17.0613 36.8029C17.0689 32.3995 15.7218 28.1033 13.2074 24.512C10.8215 21.1062 9.5626 17.0213 9.61186 12.8448H9.6123ZM8.21829 11.848L8.20908 12.8309C8.1564 17.3063 9.50537 21.6833 12.0621 25.3328C14.4084 28.6841 15.6656 32.6932 15.6588 36.8023C15.6586 37.6384 15.6066 38.4736 15.5031 39.3031L15.3484 40.5423C12.8518 40.7821 10.2551 39.7698 7.98078 37.6547C5.48602 35.3344 3.65329 31.946 2.82013 28.1137C1.2733 21.0034 3.62611 14.125 8.21829 11.848V11.848Z" fill="#BC9A6C"/>
<path d="M24.9741 8.8612C25.1513 8.86141 25.322 8.79339 25.4517 8.67089C25.7459 8.3935 26.0552 8.12535 26.371 7.87391C26.4434 7.81623 26.5039 7.74466 26.549 7.66329C26.5942 7.58191 26.623 7.49233 26.634 7.39965C26.645 7.30697 26.6378 7.21301 26.6129 7.12313C26.5881 7.03325 26.546 6.94922 26.489 6.87583C26.4321 6.80244 26.3615 6.74113 26.2812 6.69539C26.2009 6.64966 26.1125 6.62041 26.0211 6.6093C25.9296 6.59819 25.8369 6.60545 25.7482 6.63065C25.6595 6.65585 25.5766 6.69851 25.5042 6.75619C25.158 7.03162 24.8189 7.3258 24.4959 7.62993C24.3928 7.72718 24.3209 7.85366 24.2897 7.99289C24.2584 8.13213 24.2693 8.27767 24.3209 8.41055C24.3724 8.54343 24.4623 8.65749 24.5788 8.73788C24.6952 8.81826 24.8329 8.86123 24.9737 8.8612H24.9741Z" fill="#BC9A6C"/>
<path d="M21.3901 13.2258C21.4725 13.2674 21.5622 13.2922 21.6541 13.2986C21.746 13.3051 21.8383 13.2931 21.9256 13.2634C22.0129 13.2337 22.0936 13.1868 22.163 13.1255C22.2325 13.0642 22.2893 12.9896 22.3303 12.906C22.7772 11.9956 23.3156 11.1343 23.9369 10.3358C23.9953 10.2627 24.0388 10.1786 24.0648 10.0883C24.0909 9.99797 24.099 9.90333 24.0887 9.80984C24.0784 9.71635 24.0498 9.62586 24.0048 9.54362C23.9597 9.46138 23.899 9.38903 23.8261 9.33076C23.7532 9.27249 23.6696 9.22945 23.5802 9.20416C23.4908 9.17886 23.3973 9.1718 23.3052 9.18339C23.2131 9.19498 23.1242 9.22499 23.0436 9.27167C22.963 9.31836 22.8923 9.38079 22.8357 9.45535C22.1544 10.3307 21.5642 11.2749 21.0742 12.2731C20.9915 12.4419 20.9783 12.6371 21.0375 12.8157C21.0967 12.9944 21.2235 13.1419 21.3901 13.2258V13.2258Z" fill="#BC9A6C"/>
<path d="M7.82082 35.2956C7.94173 35.4389 8.11386 35.5277 8.29934 35.5424C8.48482 35.557 8.66846 35.4964 8.80986 35.3739C8.95126 35.2514 9.03883 35.0769 9.05332 34.889C9.0678 34.701 9.00802 34.5149 8.8871 34.3716C8.62592 34.062 8.3743 33.7376 8.13969 33.4074C8.03096 33.2545 7.86672 33.1515 7.68311 33.1213C7.49949 33.091 7.31154 33.1359 7.16059 33.2461C7.00965 33.3563 6.90808 33.5227 6.87823 33.7088C6.84838 33.8949 6.8927 34.0854 7.00142 34.2383C7.2591 34.6005 7.53474 34.9561 7.82082 35.2956Z" fill="#BC9A6C"/>
<path d="M9.55117 37.0532C10.3857 37.7796 11.292 38.4168 12.2556 38.9546C12.3364 38.9999 12.4251 39.0287 12.5168 39.0392C12.6085 39.0497 12.7014 39.0418 12.7901 39.0159C12.8787 38.99 12.9615 38.9466 13.0336 38.8882C13.1057 38.8298 13.1657 38.7576 13.2102 38.6757C13.2547 38.5937 13.2828 38.5037 13.2929 38.4107C13.303 38.3178 13.2949 38.2237 13.2691 38.1339C13.2433 38.0441 13.2002 37.9604 13.1423 37.8875C13.0845 37.8146 13.013 37.754 12.932 37.7092C12.0531 37.2187 11.2265 36.6376 10.4653 35.9751C10.3239 35.854 10.1411 35.7945 9.95665 35.8094C9.77218 35.8243 9.601 35.9125 9.48041 36.0547C9.35981 36.197 9.29958 36.3818 9.31284 36.5688C9.32609 36.7559 9.41176 36.9301 9.55117 37.0534V37.0532Z" fill="#BC9A6C"/>
</svg>
