    <svg width="138" height="16" viewBox="0 0 138 16" fill="none" xmlns="http://www.w3.org/2000/svg">
    <path d="M9.45703 4.05078C9.48047 3.96875 9.49805 3.88672 9.50977 3.80469C9.52148 3.72266 9.52734 3.64648 9.52734 3.57617C9.52734 3.35352 9.48633 3.1543 9.4043 2.97852C9.32227 2.80273 9.22266 2.65625 9.10547 2.53906C8.98828 2.41016 8.85938 2.31641 8.71875 2.25781C8.57812 2.19922 8.45508 2.16992 8.34961 2.16992H8.33203C8.20312 2.16992 7.97461 2.22852 7.64648 2.3457C7.31836 2.45117 6.96094 2.59766 6.57422 2.78516C6.19922 2.96094 5.83008 3.16016 5.4668 3.38281C5.11523 3.60547 4.85156 3.82813 4.67578 4.05078L4.64062 4.06836C4.54688 4.57227 4.41211 5.16992 4.23633 5.86133C4.07227 6.54102 3.89062 7.25586 3.69141 8.00586C3.82031 8.20508 3.9668 8.38086 4.13086 8.5332C4.30664 8.67383 4.47656 8.74414 4.64062 8.74414C4.66406 8.74414 4.67578 8.74414 4.67578 8.74414C4.6875 8.73242 4.70508 8.72656 4.72852 8.72656C4.83398 8.71484 5.01562 8.61523 5.27344 8.42773C5.53125 8.24023 5.82422 8.01172 6.15234 7.74219C6.49219 7.46094 6.84375 7.15039 7.20703 6.81055C7.57031 6.45898 7.91016 6.11328 8.22656 5.77344C8.54297 5.43359 8.8125 5.11133 9.03516 4.80664C9.25781 4.50195 9.39844 4.25 9.45703 4.05078ZM10.5645 1.99414C10.6348 2.19336 10.6699 2.49805 10.6699 2.9082C10.6699 3.20117 10.6465 3.52344 10.5996 3.875C10.5645 4.21484 10.5117 4.55469 10.4414 4.89453C10.3711 5.22266 10.2832 5.52734 10.1777 5.80859C10.0723 6.08984 9.95508 6.3125 9.82617 6.47656C9.70898 6.61719 9.5332 6.80469 9.29883 7.03906C9.06445 7.27344 8.78906 7.52539 8.47266 7.79492C8.16797 8.05273 7.83984 8.31641 7.48828 8.58594C7.14844 8.85547 6.80859 9.10156 6.46875 9.32422C6.14062 9.54688 5.82422 9.72852 5.51953 9.86914C5.22656 9.99805 4.98047 10.0625 4.78125 10.0625H4.72852C4.49414 10.0391 4.24805 9.96875 3.99023 9.85156C3.74414 9.72266 3.50391 9.57617 3.26953 9.41211C3.11719 9.96289 2.95898 10.4902 2.79492 10.9941C2.63086 11.498 2.4668 11.9668 2.30273 12.4004C2.13867 12.8223 1.98047 13.1914 1.82812 13.5078C1.67578 13.8242 1.53516 14.0645 1.40625 14.2285L0.0878906 13.8594C0.193359 13.6836 0.328125 13.4082 0.492188 13.0332C0.65625 12.6582 0.832031 12.2188 1.01953 11.7148C1.21875 11.2109 1.42383 10.6602 1.63477 10.0625C1.8457 9.46484 2.05078 8.86719 2.25 8.26953C2.17969 8.15234 2.14453 8.03516 2.14453 7.91797L2.44336 7.70703C2.68945 6.95703 2.90039 6.25977 3.07617 5.61523C3.26367 4.95898 3.4043 4.43164 3.49805 4.0332L3.04102 3.52344C3.1582 3.40625 3.32227 3.27734 3.5332 3.13672C3.46289 2.75 3.30469 2.55664 3.05859 2.55664C2.94141 2.55664 2.81836 2.60352 2.68945 2.69727C2.58398 2.76758 2.4668 2.85547 2.33789 2.96094C2.10352 3.13672 1.81055 3.41211 1.45898 3.78711L0.949219 2.71484C1.11328 2.52734 1.30078 2.3457 1.51172 2.16992C1.73438 1.98242 1.96289 1.81836 2.19727 1.67773C2.43164 1.52539 2.67188 1.40234 2.91797 1.30859C3.16406 1.20312 3.4043 1.13867 3.63867 1.11523H3.79688C4.125 1.11523 4.36523 1.21484 4.51758 1.41406C4.66992 1.61328 4.76367 1.88867 4.79883 2.24023C5.05664 2.08789 5.31445 1.93555 5.57227 1.7832C5.8418 1.63086 6.09961 1.49609 6.3457 1.37891C6.5918 1.25 6.81445 1.14453 7.01367 1.0625C7.21289 0.980469 7.38281 0.927734 7.52344 0.904297C7.57031 0.892578 7.62305 0.886719 7.68164 0.886719C7.75195 0.886719 7.82812 0.886719 7.91016 0.886719C8.12109 0.886719 8.36133 0.904297 8.63086 0.939453C8.91211 0.974609 9.18164 1.03906 9.43945 1.13281C9.69727 1.21484 9.93164 1.32617 10.1426 1.4668C10.3535 1.60742 10.4941 1.7832 10.5645 1.99414ZM11.9707 12.9453C12.0996 12.9453 12.2695 12.8809 12.4805 12.752C12.6914 12.6113 12.9199 12.4297 13.166 12.207C13.4121 11.9844 13.6641 11.7324 13.9219 11.4512C14.1914 11.1699 14.4492 10.8887 14.6953 10.6074C14.8242 10.1973 14.9883 9.69922 15.1875 9.11328C15.3984 8.51562 15.6328 7.87109 15.8906 7.17969L15.6445 7.6543C15.6094 7.47852 15.5508 7.31445 15.4688 7.16211C15.3867 7.00977 15.293 6.875 15.1875 6.75781C15.082 6.62891 14.9707 6.5293 14.8535 6.45898C14.748 6.38867 14.6543 6.35352 14.5723 6.35352C14.5137 6.35352 14.4727 6.36523 14.4492 6.38867C14.4023 6.42383 14.2969 6.53516 14.1328 6.72266C13.9805 6.89844 13.793 7.12109 13.5703 7.39062C13.3594 7.66016 13.1309 7.95898 12.8848 8.28711C12.6504 8.61523 12.4277 8.9375 12.2168 9.25391C12.0176 9.57031 11.8418 9.86914 11.6895 10.1504C11.5371 10.4199 11.4492 10.6367 11.4258 10.8008C11.4023 10.9648 11.3789 11.1348 11.3555 11.3105C11.332 11.4746 11.3203 11.6387 11.3203 11.8027C11.3203 12.1074 11.3613 12.3711 11.4434 12.5938C11.5371 12.8164 11.7012 12.9336 11.9355 12.9453H11.9707ZM19.8984 11.7676C19.7461 11.9434 19.5293 12.1895 19.248 12.5059C18.9668 12.8223 18.6621 13.1387 18.334 13.4551C18.0176 13.7598 17.6953 14.0234 17.3672 14.2461C17.0508 14.4805 16.7812 14.5977 16.5586 14.5977H16.5234C16.3008 14.5977 16.0605 14.5684 15.8027 14.5098C15.5449 14.4512 15.3047 14.3691 15.082 14.2637C14.8711 14.1699 14.6895 14.0586 14.5371 13.9297C14.3965 13.7891 14.3262 13.6367 14.3262 13.4727V13.4551C14.3262 13.3379 14.332 13.2031 14.3438 13.0508C14.3555 12.8867 14.3672 12.7168 14.3789 12.541C13.875 13.0332 13.3711 13.4434 12.8672 13.7715C12.375 14.0996 11.9414 14.2637 11.5664 14.2637C11.4727 14.2637 11.4082 14.2578 11.373 14.2461C11.1621 14.2109 10.9688 14.1113 10.793 13.9473C10.6172 13.7715 10.4648 13.5605 10.3359 13.3145C10.2188 13.0566 10.125 12.7754 10.0547 12.4707C9.98438 12.166 9.94922 11.8613 9.94922 11.5566C9.94922 11.1113 10.0195 10.6953 10.1602 10.3086C10.2539 10.0625 10.3887 9.76953 10.5645 9.42969C10.7402 9.08984 10.9395 8.73242 11.1621 8.35742C11.3965 7.98242 11.6426 7.61328 11.9004 7.25C12.1699 6.875 12.4336 6.53516 12.6914 6.23047C12.9609 5.92578 13.2246 5.67969 13.4824 5.49219C13.7402 5.29297 13.9805 5.17578 14.2031 5.14062C14.2617 5.12891 14.3145 5.12305 14.3613 5.12305C14.4082 5.12305 14.4551 5.12305 14.502 5.12305C14.748 5.12305 14.9648 5.1582 15.1523 5.22852C15.3516 5.29883 15.5215 5.39258 15.6621 5.50977C15.8145 5.61523 15.9375 5.73242 16.0312 5.86133C16.125 5.99023 16.1953 6.10742 16.2422 6.21289C16.2773 6.07227 16.3184 5.96094 16.3652 5.87891L17.5078 6.05469C17.1914 6.85156 16.8984 7.66016 16.6289 8.48047C16.3594 9.28906 16.1484 10.0625 15.9961 10.8008L16.0137 10.8535L15.9785 10.8887C15.9082 11.2402 15.8496 11.5742 15.8027 11.8906C15.7676 12.207 15.75 12.5 15.75 12.7695C15.75 12.8984 15.75 13.0098 15.75 13.1035C15.7617 13.1973 15.7734 13.291 15.7852 13.3848C16.0781 13.2793 16.4062 13.1211 16.7695 12.9102C17.1445 12.6992 17.5078 12.4648 17.8594 12.207C18.2227 11.9492 18.5625 11.6855 18.8789 11.416C19.1953 11.1348 19.4531 10.8887 19.6523 10.6777L19.8984 11.7676ZM28.0898 12.1543C27.9609 12.4004 27.8027 12.6465 27.6152 12.8926C27.4277 13.1387 27.2109 13.373 26.9648 13.5957C26.7305 13.8066 26.4727 13.9883 26.1914 14.1406C25.9102 14.3047 25.6172 14.416 25.3125 14.4746C25.1836 14.498 25.0605 14.5156 24.9434 14.5273C24.8379 14.5391 24.7266 14.5449 24.6094 14.5449C24.1055 14.5449 23.666 14.4395 23.291 14.2285C22.916 14.0293 22.7051 13.7188 22.6582 13.2969V13.1211C22.6582 12.8633 22.6816 12.5 22.7285 12.0312C22.7871 11.5508 22.8516 11.0469 22.9219 10.5195C23.0039 9.98047 23.0859 9.45312 23.168 8.9375C23.25 8.41016 23.3203 7.96484 23.3789 7.60156L22.2715 7.10938L19.3711 14.3516L17.8418 14.123C17.9121 13.959 18.0469 13.6602 18.2461 13.2266C18.4453 12.793 18.668 12.3125 18.9141 11.7852C19.1602 11.2578 19.4004 10.7363 19.6348 10.2207C19.8809 9.69336 20.0801 9.25977 20.2324 8.91992C20.3613 8.60352 20.502 8.2168 20.6543 7.75977C20.8066 7.30273 20.9473 6.85156 21.0762 6.40625C21.2051 5.94922 21.3105 5.53906 21.3926 5.17578C21.4746 4.8125 21.5156 4.56641 21.5156 4.4375L23.0625 4.82422C23.0273 4.87109 23.0039 4.92383 22.9922 4.98242C22.9805 5.0293 22.9746 5.08203 22.9746 5.14062C22.9746 5.28125 22.998 5.42188 23.0449 5.5625C23.1035 5.69141 23.168 5.81445 23.2383 5.93164C23.3203 6.03711 23.4082 6.125 23.502 6.19531C23.6074 6.26562 23.707 6.30078 23.8008 6.30078C23.8711 6.30078 23.9355 6.27148 23.9941 6.21289C24.0645 6.14258 24.1113 6.02539 24.1348 5.86133C24.1465 5.79102 24.1934 5.72656 24.2754 5.66797C24.3691 5.59766 24.4688 5.53906 24.5742 5.49219C24.6914 5.43359 24.8086 5.39258 24.9258 5.36914C25.0547 5.33398 25.1602 5.31641 25.2422 5.31641C25.3594 5.31641 25.4238 5.33984 25.4355 5.38672C25.4941 5.46875 25.5469 5.56836 25.5938 5.68555C25.6523 5.79102 25.6816 5.9082 25.6816 6.03711C25.6816 6.16602 25.6523 6.28906 25.5938 6.40625C25.5469 6.52344 25.459 6.62891 25.3301 6.72266C25.1426 6.86328 24.9785 7.0918 24.8379 7.4082C24.6973 7.72461 24.5742 8.08789 24.4688 8.49805C24.375 8.9082 24.3047 9.34766 24.2578 9.81641C24.2109 10.2852 24.1875 10.748 24.1875 11.2051C24.1875 11.6504 24.2109 12.0781 24.2578 12.4883C24.3047 12.8984 24.3809 13.2383 24.4863 13.5078C24.8496 13.4375 25.166 13.3496 25.4355 13.2441C25.7051 13.1387 25.9453 13.0039 26.1562 12.8398C26.3789 12.6641 26.5781 12.459 26.7539 12.2246C26.9414 11.9785 27.123 11.6797 27.2988 11.3281L28.0898 12.1543ZM29.3906 13.0332C29.4609 13.0684 29.5547 13.0859 29.6719 13.0859C29.9648 13.0859 30.2988 12.9805 30.6738 12.7695C31.0605 12.5586 31.4355 12.3125 31.7988 12.0312C32.1621 11.7383 32.4961 11.4453 32.8008 11.1523C33.1055 10.8477 33.3281 10.6133 33.4688 10.4492L34.0664 11.5742C33.9492 11.7148 33.7148 11.9434 33.3633 12.2598C33.0234 12.5762 32.6484 12.8984 32.2383 13.2266C31.8281 13.543 31.4297 13.8242 31.043 14.0703C30.6562 14.3281 30.3633 14.4629 30.1641 14.4746C30.1406 14.4746 30.123 14.4746 30.1113 14.4746C30.0996 14.4863 30.082 14.4922 30.0586 14.4922C29.8477 14.4922 29.5898 14.4453 29.2852 14.3516C28.9922 14.2695 28.7051 14.1523 28.4238 14C28.1426 13.8359 27.8965 13.6426 27.6855 13.4199C27.4746 13.1973 27.3574 12.957 27.334 12.6992V12.6289C27.334 12.4414 27.3691 12.1367 27.4395 11.7148C27.5215 11.293 27.627 10.8066 27.7559 10.2559C27.8965 9.69336 28.0488 9.08984 28.2129 8.44531C28.3887 7.78906 28.5703 7.13867 28.7578 6.49414C28.1953 6.5293 27.7324 6.61133 27.3691 6.74023C27.0059 6.85742 26.748 6.92773 26.5957 6.95117L26.4727 5.66797C26.9648 5.55078 27.4102 5.45703 27.8086 5.38672C28.207 5.30469 28.6465 5.25781 29.127 5.24609C29.3379 4.51953 29.543 3.88086 29.7422 3.33008C29.9414 2.76758 30.1055 2.36914 30.2344 2.13477L31.834 2.1875C31.7051 2.38672 31.5293 2.77344 31.3066 3.34766C31.084 3.92187 30.8555 4.60156 30.6211 5.38672C30.9961 5.46875 31.3828 5.5625 31.7812 5.66797C32.1797 5.77344 32.5547 5.82617 32.9062 5.82617C33.1172 5.82617 33.3281 5.79102 33.5391 5.7207L33.7324 6.98633C33.6738 6.99805 33.6094 7.00391 33.5391 7.00391C33.4805 7.00391 33.416 7.00391 33.3457 7.00391C33.0059 7.00391 32.6016 6.96875 32.1328 6.89844C31.6641 6.81641 31.166 6.71094 30.6387 6.58203C30.5332 6.57031 30.4102 6.55273 30.2695 6.5293C30.1172 7.05664 29.9707 7.5957 29.8301 8.14648C29.7012 8.68555 29.584 9.20703 29.4785 9.71094C29.373 10.2031 29.2852 10.666 29.2148 11.0996C29.1562 11.5332 29.127 11.9023 29.127 12.207C29.127 12.4414 29.1445 12.6348 29.1797 12.7871C29.2266 12.9277 29.2969 13.0098 29.3906 13.0332ZM34.1016 6.96875C34.418 6.80469 34.6992 6.6582 34.9453 6.5293C35.1562 6.42383 35.3496 6.32422 35.5254 6.23047C35.7129 6.13672 35.8184 6.08984 35.8418 6.08984C35.8418 6.14844 35.8418 6.19531 35.8418 6.23047C35.8535 6.26562 35.8594 6.30078 35.8594 6.33594C35.8594 6.39453 35.8535 6.45312 35.8418 6.51172C35.8418 6.57031 35.8359 6.62891 35.8242 6.6875C36.1758 6.35938 36.5508 6.08984 36.9492 5.87891C37.3594 5.65625 37.7402 5.49805 38.0918 5.4043H38.1797C38.3086 5.4043 38.4844 5.44531 38.707 5.52734C38.9297 5.60938 39.1465 5.71484 39.3574 5.84375C39.5684 5.97266 39.75 6.11328 39.9023 6.26562C40.0664 6.40625 40.1484 6.54102 40.1484 6.66992C40.1484 6.75195 40.1016 6.92773 40.0078 7.19727C39.9258 7.45508 39.8145 7.77148 39.6738 8.14648C39.5449 8.52148 39.3984 8.9375 39.2344 9.39453C39.082 9.83984 38.9355 10.291 38.7949 10.748C38.666 11.1934 38.5547 11.6211 38.4609 12.0312C38.3672 12.4297 38.3203 12.7754 38.3203 13.0684C38.3203 13.2676 38.3496 13.4316 38.4082 13.5605C38.4668 13.6895 38.5605 13.7656 38.6895 13.7891C39.123 13.7188 39.5391 13.5957 39.9375 13.4199C40.2773 13.2676 40.6348 13.0625 41.0098 12.8047C41.3965 12.5352 41.7363 12.1777 42.0293 11.7324L42.5391 13.0684C42.2578 13.373 41.9238 13.6602 41.5371 13.9297C41.1621 14.1875 40.7754 14.416 40.377 14.6152C39.9785 14.8145 39.5801 14.9668 39.1816 15.0723C38.7949 15.1895 38.4551 15.248 38.1621 15.248C37.8809 15.248 37.6641 15.1895 37.5117 15.0723C37.3477 14.9551 37.2246 14.7148 37.1426 14.3516C37.0723 13.9883 37.0371 13.584 37.0371 13.1387C37.0371 12.9043 37.043 12.6758 37.0547 12.4531C37.0781 12.2188 37.1133 11.9844 37.1602 11.75C37.2422 11.2695 37.3594 10.7773 37.5117 10.2734C37.6641 9.76953 37.8105 9.28906 37.9512 8.83203C38.1035 8.36328 38.2324 7.94141 38.3379 7.56641C38.4434 7.17969 38.502 6.86914 38.5137 6.63477C37.7637 6.86914 37.0957 7.25 36.5098 7.77734C35.9238 8.30469 35.4727 8.89648 35.1562 9.55273C34.7695 10.3379 34.4414 11.1582 34.1719 12.0137C33.9141 12.8574 33.6328 13.7012 33.3281 14.5449L31.7461 14.1406C31.8984 13.9062 32.0625 13.6074 32.2383 13.2441C32.4141 12.8691 32.584 12.459 32.748 12.0137C32.9238 11.5684 33.0938 11.1055 33.2578 10.625C33.4219 10.1445 33.5684 9.68164 33.6973 9.23633C33.8262 8.79102 33.9258 8.375 33.9961 7.98828C34.0781 7.60156 34.125 7.2793 34.1367 7.02148L34.1016 6.96875ZM45.668 6.74023C45.5742 6.74023 45.4453 6.81055 45.2812 6.95117C45.1289 7.0918 44.959 7.2793 44.7715 7.51367C44.5957 7.73633 44.4082 8 44.209 8.30469C44.0098 8.60938 43.834 8.92578 43.6816 9.25391C43.623 9.37109 43.5703 9.48828 43.5234 9.60547C43.4766 9.72266 43.4297 9.8457 43.3828 9.97461C43.6875 9.91602 44.0039 9.8457 44.332 9.76367C44.6719 9.66992 44.9238 9.57031 45.0879 9.46484C45.1699 9.40625 45.2578 9.28906 45.3516 9.11328C45.457 8.9375 45.5508 8.74414 45.6328 8.5332C45.7266 8.31055 45.8027 8.08203 45.8613 7.84766C45.9199 7.60156 45.9492 7.39062 45.9492 7.21484C45.9492 7.08594 45.9258 6.97461 45.8789 6.88086C45.832 6.78711 45.7617 6.74023 45.668 6.74023ZM49.5703 11.75C49.3594 11.9023 49.1133 12.0781 48.832 12.2773C48.5508 12.4648 48.252 12.6641 47.9355 12.875C47.6309 13.0742 47.3203 13.2734 47.0039 13.4727C46.6992 13.6719 46.4121 13.8477 46.1426 14C45.8848 14.1641 45.6621 14.293 45.4746 14.3867C45.2871 14.4922 45.1641 14.5508 45.1055 14.5625C45.0703 14.5742 45.0234 14.5801 44.9648 14.5801C44.7656 14.5801 44.502 14.5273 44.1738 14.4219C43.8574 14.3281 43.5352 14.2051 43.207 14.0527C42.8789 13.9121 42.5742 13.7598 42.293 13.5957C42.0234 13.4199 41.8418 13.2559 41.748 13.1035C41.6777 12.9746 41.625 12.8105 41.5898 12.6113C41.5664 12.4004 41.5547 12.1602 41.5547 11.8906C41.5547 11.6562 41.5664 11.4102 41.5898 11.1523C41.6133 10.8828 41.6426 10.6309 41.6777 10.3965C41.7246 10.1504 41.7715 9.92773 41.8184 9.72852C41.877 9.5293 41.9414 9.37109 42.0117 9.25391C42.0938 9.08984 42.2227 8.88477 42.3984 8.63867C42.5742 8.38086 42.7734 8.11719 42.9961 7.84766C43.2305 7.56641 43.4766 7.28516 43.7344 7.00391C43.9922 6.72266 44.25 6.4707 44.5078 6.24805C44.7656 6.01367 45.0117 5.82617 45.2461 5.68555C45.4922 5.5332 45.709 5.45117 45.8965 5.43945C45.9082 5.43945 45.9141 5.43945 45.9141 5.43945C45.9258 5.42773 45.9434 5.42188 45.9668 5.42188C46.1543 5.42188 46.3418 5.50391 46.5293 5.66797C46.7168 5.83203 46.8809 6.03125 47.0215 6.26562C47.1621 6.5 47.2734 6.75195 47.3555 7.02148C47.4492 7.2793 47.4961 7.51367 47.4961 7.72461C47.4961 7.83008 47.4902 7.90625 47.4785 7.95312C47.4316 8.14062 47.3262 8.375 47.1621 8.65625C46.998 8.92578 46.8164 9.19531 46.6172 9.46484C46.418 9.72266 46.2246 9.95703 46.0371 10.168C45.8496 10.3672 45.709 10.502 45.6152 10.5723C45.5449 10.6309 45.416 10.6895 45.2285 10.748C45.0527 10.7949 44.8418 10.8477 44.5957 10.9062C44.3613 10.9531 44.1094 11 43.8398 11.0469C43.5703 11.0938 43.3066 11.1348 43.0488 11.1699C43.002 11.4043 42.9668 11.6094 42.9434 11.7852C42.9199 11.9492 42.9023 12.0664 42.8906 12.1367C42.9141 12.2656 42.9844 12.3945 43.1016 12.5234C43.2188 12.6523 43.3652 12.7695 43.541 12.875C43.7168 12.9805 43.9102 13.0684 44.1211 13.1387C44.3438 13.1973 44.5664 13.2266 44.7891 13.2266C44.8359 13.2266 44.8828 13.2266 44.9297 13.2266C44.9883 13.2266 45.041 13.2207 45.0879 13.209C45.2988 13.1504 45.5801 13.0156 45.9316 12.8047C46.2832 12.5938 46.6465 12.3535 47.0215 12.084C47.4082 11.8145 47.7715 11.5391 48.1113 11.2578C48.4629 10.9648 48.7324 10.707 48.9199 10.4844L49.5703 11.75ZM57.6562 12.1543C57.5273 12.4004 57.3691 12.6465 57.1816 12.8926C56.9941 13.1387 56.7773 13.373 56.5312 13.5957C56.2969 13.8066 56.0391 13.9883 55.7578 14.1406C55.4766 14.3047 55.1836 14.416 54.8789 14.4746C54.75 14.498 54.627 14.5156 54.5098 14.5273C54.4043 14.5391 54.293 14.5449 54.1758 14.5449C53.6719 14.5449 53.2324 14.4395 52.8574 14.2285C52.4824 14.0293 52.2715 13.7188 52.2246 13.2969V13.1211C52.2246 12.8633 52.248 12.5 52.2949 12.0312C52.3535 11.5508 52.418 11.0469 52.4883 10.5195C52.5703 9.98047 52.6523 9.45312 52.7344 8.9375C52.8164 8.41016 52.8867 7.96484 52.9453 7.60156L51.8379 7.10938L48.9375 14.3516L47.4082 14.123C47.4785 13.959 47.6133 13.6602 47.8125 13.2266C48.0117 12.793 48.2344 12.3125 48.4805 11.7852C48.7266 11.2578 48.9668 10.7363 49.2012 10.2207C49.4473 9.69336 49.6465 9.25977 49.7988 8.91992C49.9277 8.60352 50.0684 8.2168 50.2207 7.75977C50.373 7.30273 50.5137 6.85156 50.6426 6.40625C50.7715 5.94922 50.877 5.53906 50.959 5.17578C51.041 4.8125 51.082 4.56641 51.082 4.4375L52.6289 4.82422C52.5938 4.87109 52.5703 4.92383 52.5586 4.98242C52.5469 5.0293 52.541 5.08203 52.541 5.14062C52.541 5.28125 52.5645 5.42188 52.6113 5.5625C52.6699 5.69141 52.7344 5.81445 52.8047 5.93164C52.8867 6.03711 52.9746 6.125 53.0684 6.19531C53.1738 6.26562 53.2734 6.30078 53.3672 6.30078C53.4375 6.30078 53.502 6.27148 53.5605 6.21289C53.6309 6.14258 53.6777 6.02539 53.7012 5.86133C53.7129 5.79102 53.7598 5.72656 53.8418 5.66797C53.9355 5.59766 54.0352 5.53906 54.1406 5.49219C54.2578 5.43359 54.375 5.39258 54.4922 5.36914C54.6211 5.33398 54.7266 5.31641 54.8086 5.31641C54.9258 5.31641 54.9902 5.33984 55.002 5.38672C55.0605 5.46875 55.1133 5.56836 55.1602 5.68555C55.2188 5.79102 55.248 5.9082 55.248 6.03711C55.248 6.16602 55.2188 6.28906 55.1602 6.40625C55.1133 6.52344 55.0254 6.62891 54.8965 6.72266C54.709 6.86328 54.5449 7.0918 54.4043 7.4082C54.2637 7.72461 54.1406 8.08789 54.0352 8.49805C53.9414 8.9082 53.8711 9.34766 53.8242 9.81641C53.7773 10.2852 53.7539 10.748 53.7539 11.2051C53.7539 11.6504 53.7773 12.0781 53.8242 12.4883C53.8711 12.8984 53.9473 13.2383 54.0527 13.5078C54.416 13.4375 54.7324 13.3496 55.002 13.2441C55.2715 13.1387 55.5117 13.0039 55.7227 12.8398C55.9453 12.6641 56.1445 12.459 56.3203 12.2246C56.5078 11.9785 56.6895 11.6797 56.8652 11.3281L57.6562 12.1543ZM59.8184 13.1562C59.9473 13.1562 60.082 13.1387 60.2227 13.1035C60.2461 13.0918 60.2695 13.0801 60.293 13.0684C60.3281 13.0566 60.3633 13.0449 60.3984 13.0332C60.5273 12.9746 60.6387 12.8691 60.7324 12.7168C60.8379 12.5527 60.9199 12.3711 60.9785 12.1719C61.0488 11.9727 61.0957 11.7617 61.1191 11.5391C61.1543 11.3164 61.1719 11.1055 61.1719 10.9062C61.1719 10.6836 61.1484 10.4844 61.1016 10.3086C61.0664 10.1211 61.0078 9.95117 60.9258 9.79883C60.8555 9.63477 60.7734 9.48242 60.6797 9.3418C60.5977 9.18945 60.5156 9.03711 60.4336 8.88477C60.3281 8.69727 60.252 8.50391 60.2051 8.30469C60.1582 8.10547 60.123 7.90625 60.0996 7.70703L57.4805 11.4512C57.668 11.5332 57.8438 11.6621 58.0078 11.8379C58.1719 12.002 58.3359 12.1777 58.5 12.3652C58.6758 12.541 58.8574 12.7051 59.0449 12.8574C59.2324 13.0098 59.4434 13.1094 59.6777 13.1562H59.8184ZM65.4434 12.207C65.373 12.2422 65.1973 12.3359 64.916 12.4883C64.6348 12.6289 64.2949 12.7988 63.8965 12.998C63.5098 13.1855 63.0879 13.3906 62.6309 13.6133C62.1738 13.8242 61.7344 14.0176 61.3125 14.1934C60.8906 14.3809 60.5098 14.5332 60.1699 14.6504C59.8301 14.7676 59.584 14.8262 59.4316 14.8262H59.3789C59.168 14.8027 58.9336 14.7148 58.6758 14.5625C58.4297 14.4219 58.1836 14.2402 57.9375 14.0176C57.7031 13.8066 57.4746 13.5723 57.252 13.3145C57.041 13.0449 56.8652 12.7871 56.7246 12.541L55.5645 14.4746L54.6855 13.666C54.8262 13.502 55.0312 13.2324 55.3008 12.8574C55.5586 12.4824 55.8516 12.0547 56.1797 11.5742C56.4961 11.082 56.8301 10.5664 57.1816 10.0273C57.5332 9.47656 57.873 8.94336 58.2012 8.42773C58.541 7.91211 58.8457 7.4375 59.1152 7.00391C59.3965 6.57031 59.6191 6.22461 59.7832 5.9668C59.8535 5.54492 59.9648 5.1582 60.1172 4.80664C60.2812 4.44336 60.4746 4.22656 60.6973 4.15625H60.7852C60.8555 4.15625 60.9316 4.19141 61.0137 4.26172C61.1074 4.33203 61.1895 4.42578 61.2598 4.54297C61.3418 4.64844 61.4062 4.76562 61.4531 4.89453C61.5117 5.01172 61.541 5.12305 61.541 5.22852C61.541 5.28711 61.5352 5.33984 61.5234 5.38672C61.4531 5.5625 61.3711 5.7793 61.2773 6.03711C61.1836 6.2832 61.1074 6.5293 61.0488 6.77539C61.0254 6.8457 61.0137 6.91016 61.0137 6.96875C61.0137 7.14453 61.0605 7.32617 61.1543 7.51367C61.248 7.68945 61.3535 7.86523 61.4707 8.04102C61.5996 8.20508 61.7227 8.36328 61.8398 8.51562C61.9688 8.65625 62.0625 8.7793 62.1211 8.88477C62.3086 9.20117 62.4434 9.53516 62.5254 9.88672C62.6074 10.2266 62.6484 10.5547 62.6484 10.8711C62.6484 11.0703 62.6309 11.2578 62.5957 11.4336C62.5723 11.6094 62.5312 11.7676 62.4727 11.9082C62.4727 11.9199 62.4492 11.9668 62.4023 12.0488C62.3672 12.1309 62.3262 12.2246 62.2793 12.3301C62.2324 12.4238 62.1855 12.5117 62.1387 12.5938C62.1035 12.6758 62.0859 12.7227 62.0859 12.7344C62.4844 12.5234 62.8652 12.3242 63.2285 12.1367C63.5332 11.9727 63.832 11.8086 64.125 11.6445C64.4297 11.4805 64.6523 11.3516 64.793 11.2578L65.4434 12.207ZM74.584 12.3301C74.8066 12.2363 75.0879 12.084 75.4277 11.873C75.7793 11.6621 76.1602 11.4336 76.5703 11.1875C76.2305 10.6016 75.8906 10.0156 75.5508 9.42969C75.2109 8.83203 74.9238 8.26953 74.6895 7.74219C74.0449 8.23438 73.4824 8.70312 73.002 9.14844C72.5215 9.59375 72.2344 9.98633 72.1406 10.3262C72.1055 10.502 72.0879 10.666 72.0879 10.8184C72.0879 11.334 72.252 11.7441 72.5801 12.0488C72.9199 12.3535 73.3184 12.5059 73.7754 12.5059C74.0449 12.5059 74.3145 12.4473 74.584 12.3301ZM75.8848 3.40039C75.7676 3.7168 75.6855 4.02734 75.6387 4.33203C75.5918 4.625 75.5684 4.90625 75.5684 5.17578C75.5684 5.24609 75.5684 5.32227 75.5684 5.4043C75.5684 5.48633 75.5742 5.5625 75.5859 5.63281C75.8438 5.41016 76.084 5.19922 76.3066 5C76.5293 4.78906 76.7402 4.58398 76.9395 4.38477C77.1738 4.11523 77.3613 3.85156 77.502 3.59375C77.6543 3.32422 77.7305 3.07812 77.7305 2.85547C77.7305 2.65625 77.6484 2.49219 77.4844 2.36328C77.2969 2.23437 77.1328 2.16992 76.9922 2.16992C76.5703 2.16992 76.2012 2.58008 75.8848 3.40039ZM78.4336 11.5391C78.7734 12.1016 79.0781 12.582 79.3477 12.9805C79.6289 13.3789 79.8457 13.625 79.998 13.7188L78.8906 14.7383C78.7734 14.5859 78.5566 14.2812 78.2402 13.8242C77.9355 13.3672 77.5898 12.8281 77.2031 12.207C76.7227 12.4531 76.2363 12.6934 75.7441 12.9277C75.2637 13.1504 74.8066 13.3496 74.373 13.5254C73.9512 13.6895 73.5645 13.8242 73.2129 13.9297C72.873 14.0352 72.6035 14.0879 72.4043 14.0879C72.3457 14.0879 72.3047 14.082 72.2812 14.0703C72.0703 14.0352 71.8711 13.9062 71.6836 13.6836C71.4961 13.4609 71.332 13.1855 71.1914 12.8574C71.0508 12.5176 70.9395 12.1484 70.8574 11.75C70.7754 11.3516 70.7344 10.9648 70.7344 10.5898C70.7344 10.25 70.7754 9.93945 70.8574 9.6582C70.9395 9.36523 71.0684 9.11914 71.2441 8.91992C71.4668 8.69727 71.8535 8.39258 72.4043 8.00586C72.9668 7.60742 73.5703 7.16211 74.2148 6.66992C74.168 6.54102 74.127 6.42383 74.0918 6.31836C74.0684 6.20117 74.0449 6.08984 74.0215 5.98438C74.0098 5.92578 73.998 5.86133 73.9863 5.79102C73.9863 5.7207 73.9863 5.65039 73.9863 5.58008C73.9863 5.08789 74.1094 4.56641 74.3555 4.01562C74.6016 3.45312 74.8945 2.9375 75.2344 2.46875C75.5859 1.98828 75.9551 1.5957 76.3418 1.29102C76.7285 0.974609 77.0625 0.816406 77.3438 0.816406C77.3672 0.816406 77.3848 0.822266 77.3965 0.833984C77.6191 0.857422 77.8184 0.933594 77.9941 1.0625C78.1816 1.19141 78.3398 1.35547 78.4688 1.55469C78.5977 1.75391 78.6914 1.98242 78.75 2.24023C78.8203 2.49805 78.8555 2.76758 78.8555 3.04883C78.8555 3.23633 78.8379 3.42383 78.8027 3.61133C78.7793 3.78711 78.7383 3.96875 78.6797 4.15625C78.6211 4.32031 78.5039 4.50781 78.3281 4.71875C78.1641 4.91797 77.959 5.12891 77.7129 5.35156C77.4668 5.57422 77.1855 5.80859 76.8691 6.05469C76.5527 6.30078 76.2305 6.55273 75.9023 6.81055C76.0781 7.23242 76.3359 7.77148 76.6758 8.42773C77.0273 9.08398 77.3965 9.75195 77.7832 10.4316C78.0176 10.2793 78.2695 10.1152 78.5391 9.93945C78.7617 9.78711 79.0137 9.62305 79.2949 9.44727C79.5762 9.25977 79.8516 9.07227 80.1211 8.88477L80.8242 9.99219C80.5898 10.1914 80.2617 10.4258 79.8398 10.6953C79.4297 10.9531 78.9609 11.2344 78.4336 11.5391ZM94.7285 4.05078C94.7285 3.80469 94.7051 3.59375 94.6582 3.41797C94.623 3.23047 94.582 3.07812 94.5352 2.96094C94.4883 2.83203 94.4297 2.71484 94.3594 2.60938C94.207 2.43359 93.9668 2.3457 93.6387 2.3457C93.3574 2.3457 93.0352 2.42188 92.6719 2.57422C92.3203 2.72656 91.9746 2.98438 91.6348 3.34766C91.459 3.53516 91.2656 3.83984 91.0547 4.26172C90.8438 4.68359 90.6328 5.16406 90.4219 5.70312C90.2109 6.24219 90.0059 6.80469 89.8066 7.39062C89.6074 7.97656 89.4316 8.5332 89.2793 9.06055C89.127 9.57617 89.0039 10.0332 88.9102 10.4316C88.8164 10.8301 88.7695 11.1055 88.7695 11.2578C88.7695 11.457 88.834 11.668 88.9629 11.8906C89.1035 12.1133 89.2734 12.3242 89.4727 12.5234C89.6836 12.7109 89.9062 12.8691 90.1406 12.998C90.3867 13.1152 90.6152 13.1738 90.8262 13.1738C90.9316 13.1738 91.0312 13.1562 91.125 13.1211C91.3477 13.0391 91.6172 12.8984 91.9336 12.6992C92.25 12.4883 92.5723 12.2598 92.9004 12.0137C93.2402 11.7676 93.5566 11.5215 93.8496 11.2754C94.1543 11.0176 94.3945 10.7891 94.5703 10.5898L95.3613 11.5215C95.2676 11.6621 95.168 11.8203 95.0625 11.9961C94.9336 12.1953 94.7871 12.3945 94.623 12.5938C94.459 12.8047 94.248 13.0156 93.9902 13.2266C93.7324 13.4375 93.416 13.6426 93.041 13.8418C92.5605 14.0762 92.0801 14.2402 91.5996 14.334C91.1191 14.4277 90.6855 14.4746 90.2988 14.4746C90.0996 14.4746 89.9121 14.4629 89.7363 14.4395C89.5723 14.4277 89.4316 14.3984 89.3145 14.3516C88.998 14.2695 88.7285 14.0703 88.5059 13.7539C88.2832 13.4258 88.1016 13.0391 87.9609 12.5938C87.8203 12.1484 87.7207 11.6738 87.6621 11.1699C87.6035 10.6543 87.5742 10.168 87.5742 9.71094C87.5742 9.34766 87.668 8.88477 87.8555 8.32227C88.0547 7.75977 88.2949 7.16797 88.5762 6.54688C88.8574 5.91406 89.1445 5.31055 89.4375 4.73633C89.7422 4.15039 89.9941 3.65234 90.1934 3.24219C90.3809 2.85547 90.668 2.50391 91.0547 2.1875C91.4531 1.85938 91.8691 1.58398 92.3027 1.36133C92.748 1.12695 93.1699 0.945313 93.5684 0.816406C93.9785 0.6875 94.2949 0.623047 94.5176 0.623047H94.6582C94.8457 0.658203 95.0449 0.810547 95.2559 1.08008C95.4668 1.34961 95.6602 1.67187 95.8359 2.04688C96.0117 2.41016 96.1523 2.79687 96.2578 3.20703C96.375 3.60547 96.4336 3.94531 96.4336 4.22656L94.7285 4.05078ZM100.67 2.46875C100.424 2.82031 100.201 3.21289 100.002 3.64648C99.8027 4.08008 99.6211 4.53125 99.457 5C99.3047 5.45703 99.1699 5.91406 99.0527 6.37109C98.9355 6.82812 98.8477 7.25586 98.7891 7.6543C98.9531 7.33789 99.1289 6.96875 99.3164 6.54688C99.5039 6.11328 99.6855 5.66211 99.8613 5.19336C100.037 4.71289 100.195 4.23828 100.336 3.76953C100.488 3.30078 100.6 2.86719 100.67 2.46875ZM102.867 12.207C102.645 12.4883 102.451 12.7402 102.287 12.9629C102.123 13.1738 101.959 13.3672 101.795 13.543C101.631 13.707 101.455 13.8594 101.268 14C101.08 14.1289 100.863 14.2578 100.617 14.3867C100.312 14.5273 99.9141 14.5977 99.4219 14.5977C99.1289 14.5977 98.8242 14.5684 98.5078 14.5098C98.1914 14.4512 97.8984 14.3574 97.6289 14.2285C97.3711 14.1113 97.1484 13.959 96.9609 13.7715C96.7734 13.584 96.6621 13.3613 96.627 13.1035C96.6152 13.0449 96.6094 12.9863 96.6094 12.9277C96.6094 12.8574 96.6094 12.7754 96.6094 12.6816C96.6094 12.3066 96.6387 11.7852 96.6973 11.1172C96.7676 10.4492 96.8672 9.7168 96.9961 8.91992C97.125 8.12305 97.2832 7.30273 97.4707 6.45898C97.6699 5.60352 97.8984 4.80664 98.1562 4.06836C98.4141 3.31836 98.7012 2.65625 99.0176 2.08203C99.334 1.50781 99.6797 1.09766 100.055 0.851562C100.184 0.757812 100.318 0.693359 100.459 0.658203C100.611 0.623047 100.752 0.605469 100.881 0.605469C101.209 0.605469 101.496 0.699219 101.742 0.886719C102 1.0625 102.158 1.23828 102.217 1.41406V1.4668C102.217 1.5957 102.164 1.8418 102.059 2.20508C101.965 2.55664 101.83 2.98438 101.654 3.48828C101.479 3.98047 101.268 4.52539 101.021 5.12305C100.775 5.7207 100.512 6.32422 100.23 6.93359C99.9492 7.54297 99.6504 8.14062 99.334 8.72656C99.0293 9.3125 98.7188 9.83984 98.4023 10.3086C98.3906 10.3672 98.3672 10.4609 98.332 10.5898C98.3086 10.7188 98.2852 10.8711 98.2617 11.0469C98.2383 11.2227 98.2148 11.416 98.1914 11.627C98.168 11.8262 98.1562 12.0312 98.1562 12.2422C98.1562 12.5938 98.1973 12.9277 98.2793 13.2441C98.3613 13.5488 98.5195 13.7656 98.7539 13.8945C99.1289 13.7891 99.4746 13.6367 99.791 13.4375C100.107 13.2266 100.406 12.9922 100.688 12.7344C100.98 12.4648 101.268 12.1777 101.549 11.873C101.83 11.5566 102.123 11.2344 102.428 10.9062L102.867 12.207ZM106.77 1.20312C106.5 1.51953 106.295 1.82422 106.154 2.11719C106.014 2.41016 105.914 2.66797 105.855 2.89062C105.785 3.14844 105.744 3.38867 105.732 3.61133L104.361 3.7168C104.385 3.18945 104.502 2.67969 104.713 2.1875C104.936 1.69531 105.199 1.29688 105.504 0.992188L106.77 1.20312ZM108.492 11.2754C108.082 11.7559 107.666 12.1895 107.244 12.5762C106.834 12.9629 106.441 13.2969 106.066 13.5781C105.691 13.8594 105.346 14.0762 105.029 14.2285C104.713 14.3926 104.443 14.4863 104.221 14.5098C104.197 14.5215 104.15 14.5273 104.08 14.5273C103.857 14.5273 103.623 14.4746 103.377 14.3691C103.131 14.2637 102.902 14.123 102.691 13.9473C102.48 13.7715 102.305 13.5781 102.164 13.3672C102.023 13.1445 101.953 12.9277 101.953 12.7168V12.6816C101.977 12.4473 102.047 12.0488 102.164 11.4863C102.258 10.9941 102.41 10.3027 102.621 9.41211C102.832 8.50977 103.137 7.30859 103.535 5.80859L104.977 6.07227C104.496 7.70117 104.186 9.03125 104.045 10.0625C103.904 11.0938 103.834 11.873 103.834 12.4004C103.834 12.5527 103.834 12.6875 103.834 12.8047C103.834 12.9102 103.84 12.998 103.852 13.0684C103.863 13.1504 103.875 13.2207 103.887 13.2793C104.32 13.0566 104.771 12.793 105.24 12.4883C105.639 12.2188 106.078 11.8906 106.559 11.5039C107.039 11.1172 107.508 10.666 107.965 10.1504L108.492 11.2754ZM111.34 6.74023C111.246 6.74023 111.117 6.81055 110.953 6.95117C110.801 7.0918 110.631 7.2793 110.443 7.51367C110.268 7.73633 110.08 8 109.881 8.30469C109.682 8.60938 109.506 8.92578 109.354 9.25391C109.295 9.37109 109.242 9.48828 109.195 9.60547C109.148 9.72266 109.102 9.8457 109.055 9.97461C109.359 9.91602 109.676 9.8457 110.004 9.76367C110.344 9.66992 110.596 9.57031 110.76 9.46484C110.842 9.40625 110.93 9.28906 111.023 9.11328C111.129 8.9375 111.223 8.74414 111.305 8.5332C111.398 8.31055 111.475 8.08203 111.533 7.84766C111.592 7.60156 111.621 7.39062 111.621 7.21484C111.621 7.08594 111.598 6.97461 111.551 6.88086C111.504 6.78711 111.434 6.74023 111.34 6.74023ZM115.242 11.75C115.031 11.9023 114.785 12.0781 114.504 12.2773C114.223 12.4648 113.924 12.6641 113.607 12.875C113.303 13.0742 112.992 13.2734 112.676 13.4727C112.371 13.6719 112.084 13.8477 111.814 14C111.557 14.1641 111.334 14.293 111.146 14.3867C110.959 14.4922 110.836 14.5508 110.777 14.5625C110.742 14.5742 110.695 14.5801 110.637 14.5801C110.438 14.5801 110.174 14.5273 109.846 14.4219C109.529 14.3281 109.207 14.2051 108.879 14.0527C108.551 13.9121 108.246 13.7598 107.965 13.5957C107.695 13.4199 107.514 13.2559 107.42 13.1035C107.35 12.9746 107.297 12.8105 107.262 12.6113C107.238 12.4004 107.227 12.1602 107.227 11.8906C107.227 11.6562 107.238 11.4102 107.262 11.1523C107.285 10.8828 107.314 10.6309 107.35 10.3965C107.396 10.1504 107.443 9.92773 107.49 9.72852C107.549 9.5293 107.613 9.37109 107.684 9.25391C107.766 9.08984 107.895 8.88477 108.07 8.63867C108.246 8.38086 108.445 8.11719 108.668 7.84766C108.902 7.56641 109.148 7.28516 109.406 7.00391C109.664 6.72266 109.922 6.4707 110.18 6.24805C110.438 6.01367 110.684 5.82617 110.918 5.68555C111.164 5.5332 111.381 5.45117 111.568 5.43945C111.58 5.43945 111.586 5.43945 111.586 5.43945C111.598 5.42773 111.615 5.42188 111.639 5.42188C111.826 5.42188 112.014 5.50391 112.201 5.66797C112.389 5.83203 112.553 6.03125 112.693 6.26562C112.834 6.5 112.945 6.75195 113.027 7.02148C113.121 7.2793 113.168 7.51367 113.168 7.72461C113.168 7.83008 113.162 7.90625 113.15 7.95312C113.104 8.14062 112.998 8.375 112.834 8.65625C112.67 8.92578 112.488 9.19531 112.289 9.46484C112.09 9.72266 111.896 9.95703 111.709 10.168C111.521 10.3672 111.381 10.502 111.287 10.5723C111.217 10.6309 111.088 10.6895 110.9 10.748C110.725 10.7949 110.514 10.8477 110.268 10.9062C110.033 10.9531 109.781 11 109.512 11.0469C109.242 11.0938 108.979 11.1348 108.721 11.1699C108.674 11.4043 108.639 11.6094 108.615 11.7852C108.592 11.9492 108.574 12.0664 108.562 12.1367C108.586 12.2656 108.656 12.3945 108.773 12.5234C108.891 12.6523 109.037 12.7695 109.213 12.875C109.389 12.9805 109.582 13.0684 109.793 13.1387C110.016 13.1973 110.238 13.2266 110.461 13.2266C110.508 13.2266 110.555 13.2266 110.602 13.2266C110.66 13.2266 110.713 13.2207 110.76 13.209C110.971 13.1504 111.252 13.0156 111.604 12.8047C111.955 12.5938 112.318 12.3535 112.693 12.084C113.08 11.8145 113.443 11.5391 113.783 11.2578C114.135 10.9648 114.404 10.707 114.592 10.4844L115.242 11.75ZM115.523 6.96875C115.84 6.80469 116.121 6.6582 116.367 6.5293C116.578 6.42383 116.771 6.32422 116.947 6.23047C117.135 6.13672 117.24 6.08984 117.264 6.08984C117.264 6.14844 117.264 6.19531 117.264 6.23047C117.275 6.26562 117.281 6.30078 117.281 6.33594C117.281 6.39453 117.275 6.45312 117.264 6.51172C117.264 6.57031 117.258 6.62891 117.246 6.6875C117.598 6.35938 117.973 6.08984 118.371 5.87891C118.781 5.65625 119.162 5.49805 119.514 5.4043H119.602C119.73 5.4043 119.906 5.44531 120.129 5.52734C120.352 5.60938 120.568 5.71484 120.779 5.84375C120.99 5.97266 121.172 6.11328 121.324 6.26562C121.488 6.40625 121.57 6.54102 121.57 6.66992C121.57 6.75195 121.523 6.92773 121.43 7.19727C121.348 7.45508 121.236 7.77148 121.096 8.14648C120.967 8.52148 120.82 8.9375 120.656 9.39453C120.504 9.83984 120.357 10.291 120.217 10.748C120.088 11.1934 119.977 11.6211 119.883 12.0312C119.789 12.4297 119.742 12.7754 119.742 13.0684C119.742 13.2676 119.771 13.4316 119.83 13.5605C119.889 13.6895 119.982 13.7656 120.111 13.7891C120.545 13.7188 120.961 13.5957 121.359 13.4199C121.699 13.2676 122.057 13.0625 122.432 12.8047C122.818 12.5352 123.158 12.1777 123.451 11.7324L123.961 13.0684C123.68 13.373 123.346 13.6602 122.959 13.9297C122.584 14.1875 122.197 14.416 121.799 14.6152C121.4 14.8145 121.002 14.9668 120.604 15.0723C120.217 15.1895 119.877 15.248 119.584 15.248C119.303 15.248 119.086 15.1895 118.934 15.0723C118.77 14.9551 118.646 14.7148 118.564 14.3516C118.494 13.9883 118.459 13.584 118.459 13.1387C118.459 12.9043 118.465 12.6758 118.477 12.4531C118.5 12.2188 118.535 11.9844 118.582 11.75C118.664 11.2695 118.781 10.7773 118.934 10.2734C119.086 9.76953 119.232 9.28906 119.373 8.83203C119.525 8.36328 119.654 7.94141 119.76 7.56641C119.865 7.17969 119.924 6.86914 119.936 6.63477C119.186 6.86914 118.518 7.25 117.932 7.77734C117.346 8.30469 116.895 8.89648 116.578 9.55273C116.191 10.3379 115.863 11.1582 115.594 12.0137C115.336 12.8574 115.055 13.7012 114.75 14.5449L113.168 14.1406C113.32 13.9062 113.484 13.6074 113.66 13.2441C113.836 12.8691 114.006 12.459 114.17 12.0137C114.346 11.5684 114.516 11.1055 114.68 10.625C114.844 10.1445 114.99 9.68164 115.119 9.23633C115.248 8.79102 115.348 8.375 115.418 7.98828C115.5 7.60156 115.547 7.2793 115.559 7.02148L115.523 6.96875ZM125.35 13.0332C125.42 13.0684 125.514 13.0859 125.631 13.0859C125.924 13.0859 126.258 12.9805 126.633 12.7695C127.02 12.5586 127.395 12.3125 127.758 12.0312C128.121 11.7383 128.455 11.4453 128.76 11.1523C129.064 10.8477 129.287 10.6133 129.428 10.4492L130.025 11.5742C129.908 11.7148 129.674 11.9434 129.322 12.2598C128.982 12.5762 128.607 12.8984 128.197 13.2266C127.787 13.543 127.389 13.8242 127.002 14.0703C126.615 14.3281 126.322 14.4629 126.123 14.4746C126.1 14.4746 126.082 14.4746 126.07 14.4746C126.059 14.4863 126.041 14.4922 126.018 14.4922C125.807 14.4922 125.549 14.4453 125.244 14.3516C124.951 14.2695 124.664 14.1523 124.383 14C124.102 13.8359 123.855 13.6426 123.645 13.4199C123.434 13.1973 123.316 12.957 123.293 12.6992V12.6289C123.293 12.4414 123.328 12.1367 123.398 11.7148C123.48 11.293 123.586 10.8066 123.715 10.2559C123.855 9.69336 124.008 9.08984 124.172 8.44531C124.348 7.78906 124.529 7.13867 124.717 6.49414C124.154 6.5293 123.691 6.61133 123.328 6.74023C122.965 6.85742 122.707 6.92773 122.555 6.95117L122.432 5.66797C122.924 5.55078 123.369 5.45703 123.768 5.38672C124.166 5.30469 124.605 5.25781 125.086 5.24609C125.297 4.51953 125.502 3.88086 125.701 3.33008C125.9 2.76758 126.064 2.36914 126.193 2.13477L127.793 2.1875C127.664 2.38672 127.488 2.77344 127.266 3.34766C127.043 3.92187 126.814 4.60156 126.58 5.38672C126.955 5.46875 127.342 5.5625 127.74 5.66797C128.139 5.77344 128.514 5.82617 128.865 5.82617C129.076 5.82617 129.287 5.79102 129.498 5.7207L129.691 6.98633C129.633 6.99805 129.568 7.00391 129.498 7.00391C129.439 7.00391 129.375 7.00391 129.305 7.00391C128.965 7.00391 128.561 6.96875 128.092 6.89844C127.623 6.81641 127.125 6.71094 126.598 6.58203C126.492 6.57031 126.369 6.55273 126.229 6.5293C126.076 7.05664 125.93 7.5957 125.789 8.14648C125.66 8.68555 125.543 9.20703 125.438 9.71094C125.332 10.2031 125.244 10.666 125.174 11.0996C125.115 11.5332 125.086 11.9023 125.086 12.207C125.086 12.4414 125.104 12.6348 125.139 12.7871C125.186 12.9277 125.256 13.0098 125.35 13.0332ZM131.924 13.1562C132.053 13.1562 132.188 13.1387 132.328 13.1035C132.352 13.0918 132.375 13.0801 132.398 13.0684C132.434 13.0566 132.469 13.0449 132.504 13.0332C132.633 12.9746 132.744 12.8691 132.838 12.7168C132.943 12.5527 133.025 12.3711 133.084 12.1719C133.154 11.9727 133.201 11.7617 133.225 11.5391C133.26 11.3164 133.277 11.1055 133.277 10.9062C133.277 10.6836 133.254 10.4844 133.207 10.3086C133.172 10.1211 133.113 9.95117 133.031 9.79883C132.961 9.63477 132.879 9.48242 132.785 9.3418C132.703 9.18945 132.621 9.03711 132.539 8.88477C132.434 8.69727 132.357 8.50391 132.311 8.30469C132.264 8.10547 132.229 7.90625 132.205 7.70703L129.586 11.4512C129.773 11.5332 129.949 11.6621 130.113 11.8379C130.277 12.002 130.441 12.1777 130.605 12.3652C130.781 12.541 130.963 12.7051 131.15 12.8574C131.338 13.0098 131.549 13.1094 131.783 13.1562H131.924ZM137.549 12.207C137.479 12.2422 137.303 12.3359 137.021 12.4883C136.74 12.6289 136.4 12.7988 136.002 12.998C135.615 13.1855 135.193 13.3906 134.736 13.6133C134.279 13.8242 133.84 14.0176 133.418 14.1934C132.996 14.3809 132.615 14.5332 132.275 14.6504C131.936 14.7676 131.689 14.8262 131.537 14.8262H131.484C131.273 14.8027 131.039 14.7148 130.781 14.5625C130.535 14.4219 130.289 14.2402 130.043 14.0176C129.809 13.8066 129.58 13.5723 129.357 13.3145C129.146 13.0449 128.971 12.7871 128.83 12.541L127.67 14.4746L126.791 13.666C126.932 13.502 127.137 13.2324 127.406 12.8574C127.664 12.4824 127.957 12.0547 128.285 11.5742C128.602 11.082 128.936 10.5664 129.287 10.0273C129.639 9.47656 129.979 8.94336 130.307 8.42773C130.646 7.91211 130.951 7.4375 131.221 7.00391C131.502 6.57031 131.725 6.22461 131.889 5.9668C131.959 5.54492 132.07 5.1582 132.223 4.80664C132.387 4.44336 132.58 4.22656 132.803 4.15625H132.891C132.961 4.15625 133.037 4.19141 133.119 4.26172C133.213 4.33203 133.295 4.42578 133.365 4.54297C133.447 4.64844 133.512 4.76562 133.559 4.89453C133.617 5.01172 133.646 5.12305 133.646 5.22852C133.646 5.28711 133.641 5.33984 133.629 5.38672C133.559 5.5625 133.477 5.7793 133.383 6.03711C133.289 6.2832 133.213 6.5293 133.154 6.77539C133.131 6.8457 133.119 6.91016 133.119 6.96875C133.119 7.14453 133.166 7.32617 133.26 7.51367C133.354 7.68945 133.459 7.86523 133.576 8.04102C133.705 8.20508 133.828 8.36328 133.945 8.51562C134.074 8.65625 134.168 8.7793 134.227 8.88477C134.414 9.20117 134.549 9.53516 134.631 9.88672C134.713 10.2266 134.754 10.5547 134.754 10.8711C134.754 11.0703 134.736 11.2578 134.701 11.4336C134.678 11.6094 134.637 11.7676 134.578 11.9082C134.578 11.9199 134.555 11.9668 134.508 12.0488C134.473 12.1309 134.432 12.2246 134.385 12.3301C134.338 12.4238 134.291 12.5117 134.244 12.5938C134.209 12.6758 134.191 12.7227 134.191 12.7344C134.59 12.5234 134.971 12.3242 135.334 12.1367C135.639 11.9727 135.938 11.8086 136.23 11.6445C136.535 11.4805 136.758 11.3516 136.898 11.2578L137.549 12.207Z" fill="#BC9A6C"/>
    </svg>
