<svg width="312" height="552" viewBox="0 0 312 552" fill="none" xmlns="http://www.w3.org/2000/svg">
<rect width="312" height="552" fill="#EDEAE3"/>
<rect x="24" y="31" width="258" height="79" fill="white"/>
<path d="M114.459 66.5605H118.111L116.314 60.8965L114.459 66.5605ZM114.645 57.6055H118.043L123.141 72H119.879L118.951 69.041H113.648L112.652 72H109.508L114.645 57.6055ZM136.646 61.1211C137.115 61.1211 137.577 61.2122 138.033 61.3945C138.489 61.5768 138.902 61.8958 139.273 62.3516C139.573 62.7227 139.775 63.1784 139.879 63.7188C139.944 64.0768 139.977 64.6009 139.977 65.291L139.957 72H137.105V65.2227C137.105 64.819 137.04 64.487 136.91 64.2266C136.663 63.7318 136.207 63.4844 135.543 63.4844C134.775 63.4844 134.244 63.8034 133.951 64.4414C133.801 64.7799 133.727 65.1868 133.727 65.6621V72H130.924V65.6621C130.924 65.0306 130.859 64.5716 130.729 64.2852C130.494 63.7708 130.035 63.5137 129.352 63.5137C128.557 63.5137 128.023 63.7708 127.75 64.2852C127.6 64.5781 127.525 65.0143 127.525 65.5938V72H124.703V61.375H127.408V62.9277C127.753 62.3743 128.079 61.9805 128.385 61.7461C128.925 61.3294 129.625 61.1211 130.484 61.1211C131.298 61.1211 131.956 61.3001 132.457 61.6582C132.861 61.9902 133.167 62.4167 133.375 62.9375C133.74 62.3125 134.192 61.8535 134.732 61.5605C135.305 61.2676 135.943 61.1211 136.646 61.1211ZM146.744 63.3672C146.1 63.3672 145.598 63.569 145.24 63.9727C144.889 64.3763 144.667 64.9232 144.576 65.6133H148.902C148.857 64.8776 148.632 64.321 148.229 63.9434C147.831 63.5592 147.337 63.3672 146.744 63.3672ZM146.744 61.0723C147.63 61.0723 148.427 61.2383 149.137 61.5703C149.846 61.9023 150.432 62.4264 150.895 63.1426C151.311 63.7741 151.581 64.5065 151.705 65.3398C151.777 65.8281 151.806 66.5312 151.793 67.4492H144.508C144.547 68.5169 144.882 69.2656 145.514 69.6953C145.898 69.9622 146.36 70.0957 146.9 70.0957C147.473 70.0957 147.939 69.9329 148.297 69.6074C148.492 69.4316 148.665 69.1875 148.814 68.875H151.656C151.585 69.5065 151.256 70.1478 150.67 70.7988C149.758 71.834 148.482 72.3516 146.842 72.3516C145.488 72.3516 144.293 71.9154 143.258 71.043C142.223 70.1706 141.705 68.7513 141.705 66.7852C141.705 64.9427 142.171 63.5299 143.102 62.5469C144.039 61.5638 145.253 61.0723 146.744 61.0723ZM159.459 61.1016C159.511 61.1016 159.553 61.1048 159.586 61.1113C159.625 61.1113 159.706 61.1146 159.83 61.1211V63.9727C159.654 63.9531 159.498 63.9401 159.361 63.9336C159.225 63.9271 159.114 63.9238 159.029 63.9238C157.91 63.9238 157.158 64.2884 156.773 65.0176C156.559 65.4277 156.451 66.0592 156.451 66.9121V72H153.648V61.3555H156.305V63.2109C156.734 62.5013 157.109 62.0163 157.428 61.7559C157.949 61.3197 158.626 61.1016 159.459 61.1016ZM164.332 60.0859H161.51V57.5176H164.332V60.0859ZM161.51 61.3555H164.332V72H161.51V61.3555ZM173.395 65.1738C173.342 64.7767 173.209 64.4186 172.994 64.0996C172.682 63.6699 172.197 63.4551 171.539 63.4551C170.602 63.4551 169.96 63.9206 169.615 64.8516C169.433 65.3464 169.342 66.0039 169.342 66.8242C169.342 67.6055 169.433 68.2337 169.615 68.709C169.947 69.5944 170.572 70.0371 171.49 70.0371C172.141 70.0371 172.604 69.8613 172.877 69.5098C173.15 69.1582 173.316 68.7025 173.375 68.1426H176.217C176.152 68.9889 175.846 69.7897 175.299 70.5449C174.426 71.7624 173.134 72.3711 171.422 72.3711C169.71 72.3711 168.45 71.8633 167.643 70.8477C166.835 69.832 166.432 68.5137 166.432 66.8926C166.432 65.0632 166.878 63.6406 167.77 62.625C168.661 61.6094 169.892 61.1016 171.461 61.1016C172.796 61.1016 173.886 61.401 174.732 62C175.585 62.599 176.09 63.6569 176.246 65.1738H173.395ZM184.039 66.8242C183.863 66.9349 183.684 67.026 183.502 67.0977C183.326 67.1628 183.082 67.2246 182.77 67.2832L182.145 67.4004C181.559 67.5046 181.139 67.6315 180.885 67.7812C180.455 68.0352 180.24 68.429 180.24 68.9629C180.24 69.4382 180.37 69.7832 180.631 69.998C180.898 70.2064 181.22 70.3105 181.598 70.3105C182.197 70.3105 182.747 70.1348 183.248 69.7832C183.756 69.4316 184.02 68.7904 184.039 67.8594V66.8242ZM182.35 65.5254C182.864 65.4603 183.232 65.3789 183.453 65.2812C183.85 65.112 184.049 64.8483 184.049 64.4902C184.049 64.054 183.896 63.7546 183.59 63.5918C183.29 63.4225 182.848 63.3379 182.262 63.3379C181.604 63.3379 181.139 63.5007 180.865 63.8262C180.67 64.0671 180.54 64.3926 180.475 64.8027H177.789C177.848 63.8717 178.108 63.1068 178.57 62.5078C179.306 61.5703 180.569 61.1016 182.359 61.1016C183.525 61.1016 184.56 61.3327 185.465 61.7949C186.37 62.2572 186.822 63.1296 186.822 64.4121V69.2949C186.822 69.6335 186.829 70.0436 186.842 70.5254C186.861 70.89 186.917 71.1374 187.008 71.2676C187.099 71.3978 187.236 71.5052 187.418 71.5898V72H184.391C184.306 71.7852 184.247 71.5833 184.215 71.3945C184.182 71.2057 184.156 70.9909 184.137 70.75C183.753 71.1667 183.31 71.5215 182.809 71.8145C182.21 72.1595 181.533 72.332 180.777 72.332C179.814 72.332 179.016 72.0586 178.385 71.5117C177.76 70.9583 177.447 70.1771 177.447 69.168C177.447 67.8594 177.952 66.9121 178.961 66.3262C179.514 66.0072 180.328 65.7793 181.402 65.6426L182.35 65.5254ZM195.201 61.1016C196.301 61.1016 197.2 61.3913 197.896 61.9707C198.6 62.5436 198.951 63.4974 198.951 64.832V72H196.1V65.5254C196.1 64.9655 196.025 64.5358 195.875 64.2363C195.602 63.6895 195.081 63.416 194.312 63.416C193.368 63.416 192.721 63.8164 192.369 64.6172C192.187 65.0404 192.096 65.5807 192.096 66.2383V72H189.322V61.375H192.008V62.9277C192.366 62.3809 192.704 61.987 193.023 61.7461C193.596 61.3164 194.322 61.1016 195.201 61.1016ZM206.305 70.0371C207.118 70.0371 207.743 69.7474 208.18 69.168C208.616 68.5885 208.834 67.765 208.834 66.6973C208.834 65.6296 208.616 64.8092 208.18 64.2363C207.743 63.6569 207.118 63.3672 206.305 63.3672C205.491 63.3672 204.863 63.6569 204.42 64.2363C203.984 64.8092 203.766 65.6296 203.766 66.6973C203.766 67.765 203.984 68.5885 204.42 69.168C204.863 69.7474 205.491 70.0371 206.305 70.0371ZM211.754 66.6973C211.754 68.2598 211.305 69.5977 210.406 70.7109C209.508 71.8177 208.144 72.3711 206.314 72.3711C204.485 72.3711 203.121 71.8177 202.223 70.7109C201.324 69.5977 200.875 68.2598 200.875 66.6973C200.875 65.1608 201.324 63.8294 202.223 62.7031C203.121 61.5768 204.485 61.0137 206.314 61.0137C208.144 61.0137 209.508 61.5768 210.406 62.7031C211.305 63.8294 211.754 65.1608 211.754 66.6973Z" fill="#4F4F4F"/>
<g clip-path="url(#clip0_400_15151)">
<path d="M82.1646 80.6656H75.7996C75.4354 80.6656 75.1404 80.9608 75.1404 81.3248C75.1404 81.6889 75.4354 81.984 75.7996 81.984H81.5054V82.3559L71.9072 84.1786H52.6673L43.0691 82.3559V81.984H45.69C45.691 81.984 45.6921 81.9842 45.6931 81.9842C45.6939 81.9842 45.6947 81.984 45.6955 81.984H48.0705C48.0713 81.984 48.072 81.9842 48.0728 81.9842C48.074 81.9842 48.0753 81.984 48.0766 81.984H55.9794C55.9799 81.984 55.9803 81.9841 55.9808 81.9841C55.9813 81.9841 55.9816 81.984 55.9821 81.984H58.3371C58.3378 81.984 58.3385 81.9842 58.3392 81.9842C58.3399 81.9842 58.3407 81.984 58.3414 81.984H66.2331C66.2339 81.984 66.2346 81.9842 66.2353 81.9842C66.236 81.9842 66.2367 81.984 66.2373 81.984H73.3517C73.7158 81.984 74.0109 81.6889 74.0109 81.3248C74.0109 80.9608 73.7158 80.6656 73.3517 80.6656H69.0999C69.8872 80.1654 70.6218 79.5795 71.2823 78.9194C72.2357 77.9656 73.0183 76.8869 73.6165 75.7206C74.4501 76.0601 75.3327 76.2324 76.2477 76.2324C80.1083 76.2324 83.2491 73.0912 83.2491 69.2302C83.2491 65.3696 80.1083 62.2288 76.2477 62.2288C75.8294 62.2288 75.4149 62.2667 75.0076 62.3397V61.9626C75.0076 61.1189 74.3212 60.4324 73.4775 60.4324H70.3599C69.9958 60.4324 69.7007 60.7276 69.7007 61.0916C69.7007 61.4557 69.9958 61.7508 70.3599 61.7508H73.4775C73.5942 61.7508 73.6892 61.8458 73.6892 61.9626V63.0832H50.8842V61.9626C50.8842 61.8458 50.9792 61.7508 51.0961 61.7508H67.9113C68.2754 61.7508 68.5705 61.4557 68.5705 61.0916C68.5705 60.7276 68.2754 60.4324 67.9113 60.4324H51.0961C50.2523 60.4324 49.5659 61.1189 49.5659 61.9626V69.9237C49.5659 70.918 49.6822 71.9037 49.9087 72.861C48.8359 72.5411 47.5574 72.7925 46.3909 73.5906C46.0904 73.7962 46.0134 74.2064 46.219 74.5069C46.4247 74.8073 46.8349 74.8842 47.1354 74.6787C47.8998 74.1557 48.7021 73.9504 49.3655 74.0833L46.9645 77.6755C46.7622 77.9782 46.8436 78.3876 47.1462 78.5898C47.2587 78.6651 47.386 78.7011 47.5119 78.7011C47.7247 78.7011 47.9335 78.5983 48.0605 78.4082L50.4622 74.8147C50.7113 75.1844 50.8478 75.6683 50.8542 76.2322C50.8542 76.2324 50.8542 76.2326 50.8542 76.2329C50.8542 76.2341 50.8543 76.2353 50.8543 76.2366C50.8631 77.1074 50.5589 78.0493 49.9977 78.8888C49.6778 79.3676 49.2995 79.7781 48.8711 80.1107C48.5741 80.3433 48.2621 80.5293 47.9425 80.6656H45.8601C45.8362 80.6514 45.8125 80.6371 45.7889 80.6211C44.6914 79.8881 44.6219 77.9924 45.6308 76.3053C45.8176 75.9929 45.7158 75.588 45.4034 75.4012C45.0911 75.2145 44.6862 75.3161 44.4993 75.6286C43.8562 76.704 43.5421 77.9021 43.6149 79.0024C43.6562 79.6267 43.8196 80.1893 44.0885 80.6656H42.4099C42.0458 80.6656 41.7507 80.9607 41.7507 81.3247V82.9015C41.7507 83.2182 41.9759 83.49 42.287 83.5491L51.9804 85.3899V87.3408C51.9804 87.7048 52.2755 87.9999 52.6396 87.9999H71.934C72.2982 87.9999 72.5932 87.7048 72.5932 87.3408V85.3901L82.2876 83.5491C82.5986 83.49 82.8238 83.2181 82.8238 82.9015V81.3247C82.8238 80.9608 82.5286 80.6656 82.1646 80.6656ZM75.0075 69.9236V66.8049H75.0076C75.3895 66.6088 75.812 66.5047 76.2477 66.5047C77.7506 66.5047 78.9732 67.7274 78.9732 69.2302C78.9732 70.733 77.7506 71.9557 76.2477 71.9557C75.7688 71.9557 75.3078 71.8313 74.8983 71.5968C74.9702 71.0465 75.0075 70.4879 75.0075 69.9236ZM74.648 72.9448C75.1492 73.1612 75.6906 73.2741 76.2477 73.2741C78.4775 73.2741 80.2916 71.4601 80.2916 69.2303C80.2916 67.0005 78.4775 65.1864 76.2477 65.1864C75.8223 65.1864 75.405 65.253 75.0076 65.381V63.7492C75.0076 63.7469 75.0079 63.7447 75.0079 63.7424C75.0079 63.7401 75.0076 63.7379 75.0076 63.7356V63.6839C75.4122 63.5935 75.8276 63.5472 76.2478 63.5472C79.3814 63.5472 81.9308 66.0965 81.9308 69.2302C81.9308 72.3643 79.3814 74.9141 76.2478 74.9141C75.521 74.9141 74.8205 74.7786 74.1575 74.5152C74.355 74.0042 74.5184 73.4796 74.648 72.9448ZM50.8842 64.4016H73.6892V66.4306C73.6892 66.4313 73.6892 66.4321 73.6892 66.4328V69.9237C73.6892 72.9694 72.5033 75.8332 70.3502 77.9872C69.1572 79.1793 67.6961 80.1032 66.1197 80.6656H58.4556C58.243 80.59 58.0314 80.5086 57.8225 80.4196C58.3062 79.6591 58.4905 78.8131 58.3313 78.0068C58.3311 78.0057 58.331 78.0048 58.3309 78.0037C58.3306 78.0025 58.3302 78.0012 58.33 78C58.1198 76.951 57.3787 76.088 56.2424 75.5696C55.178 75.084 53.8772 74.9583 52.5793 75.216C52.4613 75.2395 52.3443 75.2663 52.2283 75.2957C51.3484 73.6509 50.8842 71.8049 50.8842 69.9237V64.4016ZM51.0939 79.6213C51.7042 78.7083 52.0724 77.6845 52.1547 76.6924C52.3758 76.6178 52.6033 76.5554 52.8363 76.5089C54.5135 76.176 56.1307 76.6807 56.7755 77.6408L52.5392 78.4829C52.1821 78.5539 51.9502 78.9008 52.0211 79.2579C52.0835 79.5716 52.3589 79.7887 52.667 79.7887C52.7096 79.7887 52.7529 79.7845 52.7962 79.7758L57.0352 78.9331C56.9506 79.3668 56.7089 79.8015 56.3218 80.2009C56.3207 80.2019 56.3197 80.2031 56.3188 80.2041C56.1573 80.3698 55.9748 80.5241 55.776 80.6655H50.2335C50.5495 80.3539 50.8377 80.0049 51.0939 79.6213ZM71.2749 86.6818H53.2987V85.497H71.2749V86.6818Z" fill="#BC9A6C"/>
<path d="M64.0034 56.1791C63.9912 56.1869 63.9812 56.1931 63.974 56.1977C63.9807 56.1933 63.9906 56.1871 64.0034 56.1791Z" fill="#BC9A6C"/>
<path d="M63.9741 56.1972C63.9562 56.2084 63.9585 56.207 63.9741 56.1972V56.1972Z" fill="#BC9A6C"/>
<path d="M65.4299 50.1954C66.3176 49.3517 66.8288 48.1825 66.8288 46.9274C66.8288 45.3651 66.038 43.9349 64.7133 43.1013C64.4052 42.9075 63.9981 43.0001 63.8043 43.3082C63.6105 43.6164 63.7031 44.0233 64.0112 44.2172C64.9501 44.8079 65.5106 45.821 65.5106 46.9273C65.5106 48.0336 64.9501 49.0467 64.0112 49.6374C63.6083 49.8902 63.6083 50.4996 64.0112 50.7533C64.9501 51.344 65.5106 52.3571 65.5106 53.4634C65.5106 54.5697 64.9502 55.583 64.0113 56.1737C64.0079 56.1758 64.0057 56.1772 64.0027 56.1791C64.0055 56.1774 64.0082 56.1757 64.0113 56.1738C63.7032 56.3676 63.6105 56.7746 63.8044 57.0827C63.9297 57.2819 64.1439 57.3909 64.3629 57.3909C64.4829 57.3909 64.6043 57.3582 64.7133 57.2896C66.038 56.4561 66.8288 55.0258 66.8288 53.4636C66.8288 52.2084 66.3175 51.0392 65.4299 50.1954ZM64.3551 55.9573C64.3707 55.9475 64.3726 55.9463 64.3551 55.9573V55.9573ZM64.2693 56.0114C64.2837 56.0023 64.2971 55.9939 64.3091 55.9864C64.2976 55.9936 64.2847 56.0017 64.2693 56.0114Z" fill="#BC9A6C"/>
<path d="M69.3523 49.6376C69.0443 49.4437 68.6372 49.5363 68.4434 49.8445C68.2495 50.1526 68.3421 50.5596 68.6503 50.7535C69.589 51.3442 70.1495 52.3574 70.1495 53.4637C70.1496 54.5698 69.5891 55.583 68.6504 56.1737C68.3422 56.3676 68.2496 56.7745 68.4435 57.0826C68.5687 57.2818 68.7829 57.3909 69.0019 57.3909C69.1219 57.3909 69.2434 57.3581 69.3523 57.2895C70.6769 56.4561 71.4678 55.0257 71.4678 53.4636C71.4678 51.9014 70.6769 50.4711 69.3523 49.6376Z" fill="#BC9A6C"/>
<path d="M59.6944 49.6375C59.3863 49.4436 58.9791 49.5363 58.7854 49.8444C58.5915 50.1526 58.6842 50.5595 58.9923 50.7534C59.9312 51.3441 60.4916 52.3572 60.4916 53.4635C60.4917 54.5698 59.9313 55.583 58.9924 56.1737C58.6843 56.3676 58.5916 56.7745 58.7855 57.0826C58.9108 57.2818 59.1249 57.3909 59.344 57.3909C59.4639 57.3909 59.5854 57.3581 59.6944 57.2895C61.0191 56.4561 61.8099 55.0257 61.8099 53.4636C61.8099 51.9013 61.0191 50.4711 59.6944 49.6375Z" fill="#BC9A6C"/>
</g>
<mask id="path-10-inside-1_400_15151" fill="white">
<path d="M77.9252 156.9L76.2065 151.744C76.0896 151.393 75.7613 151.156 75.3909 151.156H74.2918L72.769 146.588C72.6521 146.236 72.3238 146 71.9534 146H41.0159C40.6455 146 40.3172 146.236 40.2004 146.588L38.6776 151.156H37.5784C37.208 151.156 36.8806 151.393 36.7629 151.744L35.0441 156.9C34.9565 157.162 35.0012 157.45 35.1627 157.675C35.3243 157.899 35.5838 158.031 35.8597 158.031H38.504L41.8779 200.209C41.914 200.656 42.2869 201 42.7347 201H70.2347C70.6824 201 71.0554 200.656 71.0915 200.209L74.4654 158.031H77.1097C77.3855 158.031 77.6451 157.899 77.8066 157.674C77.9682 157.45 78.012 157.162 77.9252 156.9ZM70.3034 188.506H42.6659L40.9953 167.626H71.9732L70.3034 188.506ZM43.5279 199.281L42.8034 190.225H70.1659L69.4415 199.281H43.5279ZM72.1115 165.908H40.8578L40.2279 158.031H72.7415L72.1115 165.908ZM37.0516 156.312L38.1972 152.875H39.2972C39.6676 152.875 39.9958 152.639 40.1127 152.287L41.6355 147.719H71.3347L72.8575 152.287C72.9744 152.639 73.3018 152.875 73.6722 152.875H74.7713L75.9169 156.312H37.0516Z"/>
</mask>
<path d="M77.9252 156.9L76.2065 151.744C76.0896 151.393 75.7613 151.156 75.3909 151.156H74.2918L72.769 146.588C72.6521 146.236 72.3238 146 71.9534 146H41.0159C40.6455 146 40.3172 146.236 40.2004 146.588L38.6776 151.156H37.5784C37.208 151.156 36.8806 151.393 36.7629 151.744L35.0441 156.9C34.9565 157.162 35.0012 157.45 35.1627 157.675C35.3243 157.899 35.5838 158.031 35.8597 158.031H38.504L41.8779 200.209C41.914 200.656 42.2869 201 42.7347 201H70.2347C70.6824 201 71.0554 200.656 71.0915 200.209L74.4654 158.031H77.1097C77.3855 158.031 77.6451 157.899 77.8066 157.674C77.9682 157.45 78.012 157.162 77.9252 156.9ZM70.3034 188.506H42.6659L40.9953 167.626H71.9732L70.3034 188.506ZM43.5279 199.281L42.8034 190.225H70.1659L69.4415 199.281H43.5279ZM72.1115 165.908H40.8578L40.2279 158.031H72.7415L72.1115 165.908ZM37.0516 156.312L38.1972 152.875H39.2972C39.6676 152.875 39.9958 152.639 40.1127 152.287L41.6355 147.719H71.3347L72.8575 152.287C72.9744 152.639 73.3018 152.875 73.6722 152.875H74.7713L75.9169 156.312H37.0516Z" fill="#BC9A6C"/>
<path d="M76.2065 151.744L68.6151 154.268L68.617 154.274L76.2065 151.744ZM74.2918 151.156L66.7023 153.686L68.5257 159.156H74.2918V151.156ZM72.769 146.588L65.1776 149.112L65.1795 149.118L72.769 146.588ZM40.2004 146.588L47.7898 149.118L47.7917 149.112L40.2004 146.588ZM38.6776 151.156V159.156H44.4436L46.267 153.686L38.6776 151.156ZM36.7629 151.744L29.1771 149.203L29.1734 149.214L36.7629 151.744ZM35.0441 156.9L42.6311 159.438L42.6336 159.43L35.0441 156.9ZM38.504 158.031L46.4785 157.393L45.8896 150.031H38.504V158.031ZM41.8779 200.209L33.9033 200.847L33.9038 200.853L41.8779 200.209ZM71.0915 200.209L79.0655 200.853L79.066 200.847L71.0915 200.209ZM74.4654 158.031V150.031H67.0798L66.4908 157.393L74.4654 158.031ZM77.8066 157.674L71.3238 152.986L71.3153 152.998L71.3068 153.01L77.8066 157.674ZM70.3034 188.506V196.506H77.6892L78.278 189.144L70.3034 188.506ZM42.6659 188.506L34.6914 189.144L35.2804 196.506H42.6659V188.506ZM40.9953 167.626V159.626H32.3296L33.0208 168.264L40.9953 167.626ZM71.9732 167.626L79.9477 168.264L80.6385 159.626H71.9732V167.626ZM43.5279 199.281L35.5533 199.919L36.1423 207.281H43.5279V199.281ZM42.8034 190.225V182.225H34.1379L34.8289 190.863L42.8034 190.225ZM70.1659 190.225L78.1404 190.863L78.8314 182.225H70.1659V190.225ZM69.4415 199.281V207.281H76.8271L77.416 199.919L69.4415 199.281ZM72.1115 165.908V173.908H79.4973L80.0861 166.546L72.1115 165.908ZM40.8578 165.908L32.8833 166.546L33.472 173.908H40.8578V165.908ZM40.2279 158.031V150.031H31.5626L32.2533 158.669L40.2279 158.031ZM72.7415 158.031L80.716 158.669L81.4068 150.031H72.7415V158.031ZM37.0516 156.312L29.462 153.783L25.9531 164.312H37.0516V156.312ZM38.1972 152.875V144.875H32.4306L30.6075 150.346L38.1972 152.875ZM40.1127 152.287L32.5232 149.757L32.5214 149.763L40.1127 152.287ZM41.6355 147.719V139.719H35.8695L34.0461 145.189L41.6355 147.719ZM71.3347 147.719L78.9241 145.189L77.1007 139.719H71.3347V147.719ZM72.8575 152.287L80.4488 149.763L80.4469 149.757L72.8575 152.287ZM74.7713 152.875L82.361 150.346L80.5378 144.875H74.7713V152.875ZM75.9169 156.312V164.312H87.0154L83.5065 153.783L75.9169 156.312ZM85.5147 154.37L83.7959 149.214L68.617 154.274L70.3358 159.43L85.5147 154.37ZM83.7978 149.22C82.5915 145.592 79.1999 143.156 75.3909 143.156V159.156C72.3227 159.156 69.5877 157.193 68.6152 154.268L83.7978 149.22ZM75.3909 143.156H74.2918V159.156H75.3909V143.156ZM81.8812 148.626L80.3584 144.058L65.1795 149.118L66.7023 153.686L81.8812 148.626ZM80.3603 144.064C79.154 140.436 75.7624 138 71.9534 138V154C68.8852 154 66.1502 152.037 65.1777 149.112L80.3603 144.064ZM71.9534 138H41.0159V154H71.9534V138ZM41.0159 138C37.2069 138 33.8153 140.436 32.6091 144.064L47.7917 149.112C46.8192 152.037 44.0842 154 41.0159 154V138ZM32.6109 144.058L31.0881 148.626L46.267 153.686L47.7898 149.118L32.6109 144.058ZM38.6776 143.156H37.5784V159.156H38.6776V143.156ZM37.5784 143.156C33.7567 143.156 30.3833 145.602 29.1771 149.203L44.3486 154.285C43.3779 157.183 40.6593 159.156 37.5784 159.156V143.156ZM29.1734 149.214L27.4547 154.37L42.6336 159.43L44.3523 154.274L29.1734 149.214ZM27.4571 154.363C26.5465 157.086 27.0182 160.055 28.6714 162.35L41.654 152.999C42.9841 154.845 43.3664 157.239 42.6311 159.438L27.4571 154.363ZM28.6714 162.35C30.3413 164.669 33.0197 166.031 35.8597 166.031V150.031C38.1479 150.031 40.3073 151.129 41.654 152.999L28.6714 162.35ZM35.8597 166.031H38.504V150.031H35.8597V166.031ZM30.5294 158.669L33.9033 200.847L49.8524 199.571L46.4785 157.393L30.5294 158.669ZM33.9038 200.853C34.2756 205.456 38.1189 209 42.7347 209V193C46.455 193 49.5524 195.857 49.8519 199.565L33.9038 200.853ZM42.7347 209H70.2347V193H42.7347V209ZM70.2347 209C74.8505 209 78.6938 205.456 79.0655 200.853L63.1174 199.565C63.417 195.857 66.5143 193 70.2347 193V209ZM79.066 200.847L82.4399 158.669L66.4908 157.393L63.1169 199.571L79.066 200.847ZM74.4654 166.031H77.1097V150.031H74.4654V166.031ZM77.1097 166.031C79.9524 166.031 82.636 164.666 84.3064 162.338L71.3068 153.01C72.6541 151.132 74.8187 150.031 77.1097 150.031V166.031ZM84.2894 162.361C85.966 160.043 86.4096 157.073 85.5197 154.385L70.3308 159.415C69.6144 157.252 69.9704 154.858 71.3238 152.986L84.2894 162.361ZM70.3034 180.506H42.6659V196.506H70.3034V180.506ZM50.6404 187.868L48.9698 166.988L33.0208 168.264L34.6914 189.144L50.6404 187.868ZM40.9953 175.626H71.9732V159.626H40.9953V175.626ZM63.9986 166.988L62.3289 187.869L78.278 189.144L79.9477 168.264L63.9986 166.988ZM51.5024 198.643L50.7779 189.587L34.8289 190.863L35.5533 199.919L51.5024 198.643ZM42.8034 198.225H70.1659V182.225H42.8034V198.225ZM62.1914 189.587L61.4669 198.643L77.416 199.919L78.1404 190.863L62.1914 189.587ZM69.4415 191.281H43.5279V207.281H69.4415V191.281ZM72.1115 157.908H40.8578V173.908H72.1115V157.908ZM48.8323 165.271L48.2024 157.394L32.2533 158.669L32.8833 166.546L48.8323 165.271ZM40.2279 166.031H72.7415V150.031H40.2279V166.031ZM64.7669 157.394L64.137 165.271L80.0861 166.546L80.716 158.669L64.7669 157.394ZM44.6413 158.842L45.7868 155.404L30.6075 150.346L29.462 153.783L44.6413 158.842ZM38.1972 160.875H39.2972V144.875H38.1972V160.875ZM39.2972 160.875C43.1062 160.875 46.4978 158.439 47.704 154.811L32.5214 149.763C33.4939 146.838 36.2289 144.875 39.2972 144.875V160.875ZM47.7022 154.817L49.225 150.249L34.0461 145.189L32.5233 149.757L47.7022 154.817ZM41.6355 155.719H71.3347V139.719H41.6355V155.719ZM63.7452 150.249L65.268 154.817L80.4469 149.757L78.9241 145.189L63.7452 150.249ZM65.2662 154.811C66.4695 158.43 69.8538 160.875 73.6722 160.875V144.875C76.7498 144.875 79.4792 146.847 80.4488 149.763L65.2662 154.811ZM73.6722 160.875H74.7713V144.875H73.6722V160.875ZM67.1817 155.404L68.3272 158.842L83.5065 153.783L82.361 150.346L67.1817 155.404ZM75.9169 148.312H37.0516V164.312H75.9169V148.312Z" fill="#BC9A6C" mask="url(#path-10-inside-1_400_15151)"/>
<mask id="path-12-inside-2_400_15151" fill="white">
<path d="M56.4847 170.062C53.0815 170.062 50.3126 173.725 50.3126 178.227C50.3126 182.728 53.0815 186.391 56.4847 186.391C59.8878 186.391 62.6567 182.728 62.6567 178.227C62.6567 173.725 59.8878 170.062 56.4847 170.062ZM52.0314 178.227C52.0314 176.644 52.4284 175.196 53.0841 174.074C53.0712 174.241 53.0472 174.402 53.0472 174.574C53.0472 177.104 54.5571 179.086 56.4847 179.086C57.3999 179.086 58.2034 180.391 58.2034 181.879C58.2034 183.366 57.3999 184.672 56.4847 184.672C54.0294 184.672 52.0314 181.781 52.0314 178.227ZM59.8852 182.379C59.8981 182.212 59.9222 182.051 59.9222 181.879C59.9222 179.349 58.4122 177.367 56.4847 177.367C55.5694 177.367 54.7659 176.062 54.7659 174.574C54.7659 173.087 55.5694 171.781 56.4847 171.781C58.9399 171.781 60.9379 174.672 60.9379 178.227C60.9379 179.809 60.54 181.257 59.8852 182.379Z"/>
</mask>
<path d="M56.4847 170.062C53.0815 170.062 50.3126 173.725 50.3126 178.227C50.3126 182.728 53.0815 186.391 56.4847 186.391C59.8878 186.391 62.6567 182.728 62.6567 178.227C62.6567 173.725 59.8878 170.062 56.4847 170.062ZM52.0314 178.227C52.0314 176.644 52.4284 175.196 53.0841 174.074C53.0712 174.241 53.0472 174.402 53.0472 174.574C53.0472 177.104 54.5571 179.086 56.4847 179.086C57.3999 179.086 58.2034 180.391 58.2034 181.879C58.2034 183.366 57.3999 184.672 56.4847 184.672C54.0294 184.672 52.0314 181.781 52.0314 178.227ZM59.8852 182.379C59.8981 182.212 59.9222 182.051 59.9222 181.879C59.9222 179.349 58.4122 177.367 56.4847 177.367C55.5694 177.367 54.7659 176.062 54.7659 174.574C54.7659 173.087 55.5694 171.781 56.4847 171.781C58.9399 171.781 60.9379 174.672 60.9379 178.227C60.9379 179.809 60.54 181.257 59.8852 182.379Z" fill="#BC9A6C"/>
<path d="M53.0841 174.074L61.0603 174.691L46.1766 170.038L53.0841 174.074ZM59.8852 182.379L51.909 181.762L66.7951 186.411L59.8852 182.379ZM56.4847 162.062C51.7198 162.062 48.0004 164.643 45.7409 167.632C43.4822 170.62 42.3126 174.391 42.3126 178.227H58.3126C58.3126 177.56 58.5275 177.25 58.5041 177.281C58.482 177.31 58.3369 177.493 57.9959 177.684C57.6332 177.887 57.1075 178.062 56.4847 178.062V162.062ZM42.3126 178.227C42.3126 182.062 43.4822 185.833 45.7409 188.821C48.0004 191.81 51.7198 194.391 56.4847 194.391V178.391C57.1075 178.391 57.6332 178.566 57.9959 178.769C58.3369 178.96 58.482 179.143 58.5041 179.172C58.5275 179.203 58.3126 178.893 58.3126 178.227H42.3126ZM56.4847 194.391C61.2495 194.391 64.9689 191.81 67.2284 188.821C69.4871 185.833 70.6567 182.062 70.6567 178.227H54.6567C54.6567 178.893 54.4419 179.203 54.4653 179.172C54.4873 179.143 54.6324 178.96 54.9734 178.769C55.3361 178.566 55.8619 178.391 56.4847 178.391V194.391ZM70.6567 178.227C70.6567 174.391 69.4871 170.62 67.2284 167.632C64.9689 164.643 61.2495 162.062 56.4847 162.062V178.062C55.8619 178.062 55.3361 177.887 54.9734 177.684C54.6324 177.493 54.4873 177.31 54.4653 177.281C54.4419 177.25 54.6567 177.56 54.6567 178.227H70.6567ZM60.0314 178.227C60.0314 178.101 60.0475 178.018 60.0566 177.983C60.0608 177.966 60.0615 177.968 60.0538 177.987C60.0462 178.006 60.0277 178.048 59.9916 178.11L46.1766 170.038C44.745 172.489 44.0314 175.351 44.0314 178.227H60.0314ZM45.1079 173.457C45.1114 173.413 45.1141 173.387 45.1115 173.414C45.1113 173.415 45.1015 173.513 45.0946 173.588C45.0785 173.763 45.0472 174.127 45.0472 174.574H61.0472C61.0472 174.717 61.0422 174.834 61.0374 174.915C61.0328 174.994 61.0278 175.048 61.027 175.057C61.0266 175.061 61.0266 175.061 61.0279 175.047C61.0286 175.04 61.0293 175.033 61.0304 175.022C61.0315 175.012 61.0329 174.998 61.0343 174.983C61.0372 174.954 61.0413 174.912 61.0457 174.864C61.0501 174.816 61.0552 174.757 61.0603 174.691L45.1079 173.457ZM45.0472 174.574C45.0472 179.367 48.2546 187.086 56.4847 187.086V171.086C58.4739 171.086 59.8116 172.15 60.4065 172.93C60.9729 173.674 61.0472 174.302 61.0472 174.574H45.0472ZM56.4847 187.086C52.9519 187.086 51.2401 184.712 50.8741 184.118C50.3461 183.26 50.2034 182.482 50.2034 181.879H66.2034C66.2034 179.788 65.659 177.614 64.5004 175.732C63.5038 174.112 60.9326 171.086 56.4847 171.086V187.086ZM50.2034 181.879C50.2034 181.276 50.3461 180.498 50.8741 179.64C51.2401 179.046 52.9519 176.672 56.4847 176.672V192.672C60.9326 192.672 63.5038 189.645 64.5004 188.026C65.659 186.144 66.2034 183.969 66.2034 181.879H50.2034ZM56.4847 176.672C58.6393 176.672 59.719 177.945 59.9189 178.234C60.1443 178.561 60.0314 178.58 60.0314 178.227H44.0314C44.0314 181.427 44.9175 184.67 46.7557 187.33C48.5684 189.953 51.8747 192.672 56.4847 192.672V176.672ZM67.8614 182.996C67.858 183.04 67.8552 183.066 67.8578 183.039C67.858 183.038 67.8678 182.94 67.8747 182.865C67.8909 182.691 67.9222 182.326 67.9222 181.879H51.9222C51.9222 181.736 51.9272 181.619 51.9319 181.538C51.9365 181.459 51.9415 181.405 51.9423 181.396C51.9427 181.392 51.9427 181.392 51.9414 181.406C51.9407 181.413 51.94 181.42 51.9389 181.431C51.9378 181.441 51.9365 181.455 51.935 181.47C51.9321 181.5 51.928 181.541 51.9237 181.589C51.9192 181.637 51.9141 181.696 51.909 181.762L67.8614 182.996ZM67.9222 181.879C67.9222 177.087 64.7147 169.367 56.4847 169.367V185.367C54.4954 185.367 53.1577 184.303 52.5628 183.523C51.9964 182.779 51.9222 182.151 51.9222 181.879H67.9222ZM56.4847 169.367C60.0174 169.367 61.7292 171.741 62.0952 172.336C62.6232 173.194 62.7659 173.971 62.7659 174.574H46.7659C46.7659 176.665 47.3103 178.839 48.4689 180.722C49.4655 182.341 52.0367 185.367 56.4847 185.367V169.367ZM62.7659 174.574C62.7659 175.177 62.6232 175.955 62.0952 176.813C61.7292 177.408 60.0174 179.781 56.4847 179.781V163.781C52.0367 163.781 49.4655 166.808 48.4689 168.427C47.3103 170.309 46.7659 172.484 46.7659 174.574H62.7659ZM56.4847 179.781C54.33 179.781 53.2503 178.508 53.0504 178.219C52.825 177.893 52.9379 177.873 52.9379 178.227H68.9379C68.9379 175.026 68.0519 171.783 66.2136 169.123C64.4009 166.5 61.0946 163.781 56.4847 163.781V179.781ZM52.9379 178.227C52.9379 178.351 52.9219 178.434 52.9127 178.469C52.9084 178.486 52.9075 178.485 52.9149 178.467C52.9221 178.449 52.9401 178.408 52.9754 178.347L66.7951 186.411C68.2219 183.965 68.9379 181.105 68.9379 178.227H52.9379Z" fill="#BC9A6C" mask="url(#path-12-inside-2_400_15151)"/>
<path d="M46.7346 152.016C46.7346 152.314 46.6931 152.602 46.6156 152.875H45.7286C45.6511 152.602 45.6096 152.314 45.6096 152.016C45.6096 151.718 45.6511 151.429 45.7286 151.156H46.6156C46.6931 151.429 46.7346 151.718 46.7346 152.016Z" fill="#BC9A6C" stroke="#BC9A6C" stroke-width="8"/>
<mask id="path-15-inside-3_400_15151" fill="white">
<path d="M68.516 151.156H55.6254C55.151 151.156 54.766 151.541 54.766 152.016C54.766 152.49 55.151 152.875 55.6254 152.875H68.516C68.9904 152.875 69.3754 152.49 69.3754 152.016C69.3754 151.541 68.9904 151.156 68.516 151.156Z"/>
</mask>
<path d="M68.516 151.156H55.6254C55.151 151.156 54.766 151.541 54.766 152.016C54.766 152.49 55.151 152.875 55.6254 152.875H68.516C68.9904 152.875 69.3754 152.49 69.3754 152.016C69.3754 151.541 68.9904 151.156 68.516 151.156Z" fill="#BC9A6C"/>
<path d="M68.516 143.156H55.6254V159.156H68.516V143.156ZM55.6254 143.156C50.7327 143.156 46.766 147.123 46.766 152.016H62.766C62.766 155.96 59.5693 159.156 55.6254 159.156V143.156ZM46.766 152.016C46.766 156.908 50.7327 160.875 55.6254 160.875V144.875C59.5693 144.875 62.766 148.072 62.766 152.016H46.766ZM55.6254 160.875H68.516V144.875H55.6254V160.875ZM68.516 160.875C73.4086 160.875 77.3754 156.908 77.3754 152.016H61.3754C61.3754 148.072 64.5721 144.875 68.516 144.875V160.875ZM77.3754 152.016C77.3754 147.123 73.4086 143.156 68.516 143.156V159.156C64.5721 159.156 61.3754 155.96 61.3754 152.016H77.3754Z" fill="#BC9A6C" mask="url(#path-15-inside-3_400_15151)"/>
<rect x="24" y="443" width="258" height="79" fill="white"/>
<path d="M121.891 487.852C123.082 487.852 124.026 487.412 124.723 486.533C125.426 485.654 125.777 484.404 125.777 482.783C125.777 481.169 125.426 479.922 124.723 479.043C124.026 478.158 123.082 477.715 121.891 477.715C120.699 477.715 119.749 478.154 119.039 479.033C118.329 479.912 117.975 481.162 117.975 482.783C117.975 484.404 118.329 485.654 119.039 486.533C119.749 487.412 120.699 487.852 121.891 487.852ZM128.785 482.783C128.785 485.368 128.059 487.347 126.607 488.721C125.52 489.84 123.948 490.4 121.891 490.4C119.833 490.4 118.261 489.84 117.174 488.721C115.715 487.347 114.986 485.368 114.986 482.783C114.986 480.146 115.715 478.167 117.174 476.846C118.261 475.726 119.833 475.166 121.891 475.166C123.948 475.166 125.52 475.726 126.607 476.846C128.059 478.167 128.785 480.146 128.785 482.783ZM136.646 479.102C136.699 479.102 136.741 479.105 136.773 479.111C136.812 479.111 136.894 479.115 137.018 479.121V481.973C136.842 481.953 136.686 481.94 136.549 481.934C136.412 481.927 136.301 481.924 136.217 481.924C135.097 481.924 134.345 482.288 133.961 483.018C133.746 483.428 133.639 484.059 133.639 484.912V490H130.836V479.355H133.492V481.211C133.922 480.501 134.296 480.016 134.615 479.756C135.136 479.32 135.813 479.102 136.646 479.102ZM143.229 487.715C143.88 487.715 144.43 487.471 144.879 486.982C145.328 486.488 145.553 485.703 145.553 484.629C145.553 483.62 145.338 482.852 144.908 482.324C144.485 481.797 143.915 481.533 143.199 481.533C142.223 481.533 141.549 481.992 141.178 482.91C140.982 483.398 140.885 484.001 140.885 484.717C140.885 485.335 140.989 485.885 141.197 486.367C141.575 487.266 142.252 487.715 143.229 487.715ZM142.535 479.102C143.069 479.102 143.535 479.183 143.932 479.346C144.609 479.626 145.156 480.14 145.572 480.889V479.355H148.277V489.453C148.277 490.827 148.046 491.862 147.584 492.559C146.79 493.757 145.266 494.355 143.014 494.355C141.653 494.355 140.543 494.089 139.684 493.555C138.824 493.021 138.349 492.223 138.258 491.162H141.285C141.363 491.488 141.49 491.722 141.666 491.865C141.965 492.119 142.47 492.246 143.18 492.246C144.182 492.246 144.853 491.911 145.191 491.24C145.413 490.811 145.523 490.088 145.523 489.072V488.389C145.257 488.844 144.97 489.186 144.664 489.414C144.111 489.837 143.391 490.049 142.506 490.049C141.139 490.049 140.045 489.57 139.225 488.613C138.411 487.65 138.004 486.348 138.004 484.707C138.004 483.125 138.398 481.797 139.186 480.723C139.973 479.642 141.09 479.102 142.535 479.102ZM156.754 484.824C156.578 484.935 156.399 485.026 156.217 485.098C156.041 485.163 155.797 485.225 155.484 485.283L154.859 485.4C154.273 485.505 153.854 485.632 153.6 485.781C153.17 486.035 152.955 486.429 152.955 486.963C152.955 487.438 153.085 487.783 153.346 487.998C153.613 488.206 153.935 488.311 154.312 488.311C154.911 488.311 155.462 488.135 155.963 487.783C156.471 487.432 156.734 486.79 156.754 485.859V484.824ZM155.064 483.525C155.579 483.46 155.947 483.379 156.168 483.281C156.565 483.112 156.764 482.848 156.764 482.49C156.764 482.054 156.611 481.755 156.305 481.592C156.005 481.423 155.562 481.338 154.977 481.338C154.319 481.338 153.854 481.501 153.58 481.826C153.385 482.067 153.255 482.393 153.189 482.803H150.504C150.562 481.872 150.823 481.107 151.285 480.508C152.021 479.57 153.284 479.102 155.074 479.102C156.24 479.102 157.275 479.333 158.18 479.795C159.085 480.257 159.537 481.13 159.537 482.412V487.295C159.537 487.633 159.544 488.044 159.557 488.525C159.576 488.89 159.632 489.137 159.723 489.268C159.814 489.398 159.951 489.505 160.133 489.59V490H157.105C157.021 489.785 156.962 489.583 156.93 489.395C156.897 489.206 156.871 488.991 156.852 488.75C156.467 489.167 156.025 489.521 155.523 489.814C154.924 490.16 154.247 490.332 153.492 490.332C152.529 490.332 151.731 490.059 151.1 489.512C150.475 488.958 150.162 488.177 150.162 487.168C150.162 485.859 150.667 484.912 151.676 484.326C152.229 484.007 153.043 483.779 154.117 483.643L155.064 483.525ZM167.916 479.102C169.016 479.102 169.915 479.391 170.611 479.971C171.314 480.544 171.666 481.497 171.666 482.832V490H168.814V483.525C168.814 482.965 168.74 482.536 168.59 482.236C168.316 481.689 167.796 481.416 167.027 481.416C166.083 481.416 165.436 481.816 165.084 482.617C164.902 483.04 164.811 483.581 164.811 484.238V490H162.037V479.375H164.723V480.928C165.081 480.381 165.419 479.987 165.738 479.746C166.311 479.316 167.037 479.102 167.916 479.102ZM177.105 478.086H174.283V475.518H177.105V478.086ZM174.283 479.355H177.105V490H174.283V479.355ZM186.168 483.174C186.116 482.777 185.982 482.419 185.768 482.1C185.455 481.67 184.97 481.455 184.312 481.455C183.375 481.455 182.734 481.921 182.389 482.852C182.206 483.346 182.115 484.004 182.115 484.824C182.115 485.605 182.206 486.234 182.389 486.709C182.721 487.594 183.346 488.037 184.264 488.037C184.915 488.037 185.377 487.861 185.65 487.51C185.924 487.158 186.09 486.702 186.148 486.143H188.99C188.925 486.989 188.619 487.79 188.072 488.545C187.2 489.762 185.908 490.371 184.195 490.371C182.483 490.371 181.223 489.863 180.416 488.848C179.609 487.832 179.205 486.514 179.205 484.893C179.205 483.063 179.651 481.641 180.543 480.625C181.435 479.609 182.665 479.102 184.234 479.102C185.569 479.102 186.66 479.401 187.506 480C188.359 480.599 188.863 481.657 189.02 483.174H186.168ZM204.84 480.186C204.84 479.437 204.641 478.903 204.244 478.584C203.854 478.265 203.303 478.105 202.594 478.105H199.791V482.344H202.594C203.303 482.344 203.854 482.171 204.244 481.826C204.641 481.481 204.84 480.934 204.84 480.186ZM207.818 480.166C207.818 481.865 207.389 483.066 206.529 483.77C205.67 484.473 204.443 484.824 202.848 484.824H199.791V490H196.803V475.605H203.072C204.518 475.605 205.67 475.977 206.529 476.719C207.389 477.461 207.818 478.61 207.818 480.166ZM215.719 484.824C215.543 484.935 215.364 485.026 215.182 485.098C215.006 485.163 214.762 485.225 214.449 485.283L213.824 485.4C213.238 485.505 212.818 485.632 212.564 485.781C212.135 486.035 211.92 486.429 211.92 486.963C211.92 487.438 212.05 487.783 212.311 487.998C212.577 488.206 212.9 488.311 213.277 488.311C213.876 488.311 214.426 488.135 214.928 487.783C215.436 487.432 215.699 486.79 215.719 485.859V484.824ZM214.029 483.525C214.544 483.46 214.911 483.379 215.133 483.281C215.53 483.112 215.729 482.848 215.729 482.49C215.729 482.054 215.576 481.755 215.27 481.592C214.97 481.423 214.527 481.338 213.941 481.338C213.284 481.338 212.818 481.501 212.545 481.826C212.35 482.067 212.219 482.393 212.154 482.803H209.469C209.527 481.872 209.788 481.107 210.25 480.508C210.986 479.57 212.249 479.102 214.039 479.102C215.204 479.102 216.24 479.333 217.145 479.795C218.049 480.257 218.502 481.13 218.502 482.412V487.295C218.502 487.633 218.508 488.044 218.521 488.525C218.541 488.89 218.596 489.137 218.688 489.268C218.779 489.398 218.915 489.505 219.098 489.59V490H216.07C215.986 489.785 215.927 489.583 215.895 489.395C215.862 489.206 215.836 488.991 215.816 488.75C215.432 489.167 214.99 489.521 214.488 489.814C213.889 490.16 213.212 490.332 212.457 490.332C211.493 490.332 210.696 490.059 210.064 489.512C209.439 488.958 209.127 488.177 209.127 487.168C209.127 485.859 209.632 484.912 210.641 484.326C211.194 484.007 212.008 483.779 213.082 483.643L214.029 483.525ZM227.34 483.174C227.288 482.777 227.154 482.419 226.939 482.1C226.627 481.67 226.142 481.455 225.484 481.455C224.547 481.455 223.906 481.921 223.561 482.852C223.378 483.346 223.287 484.004 223.287 484.824C223.287 485.605 223.378 486.234 223.561 486.709C223.893 487.594 224.518 488.037 225.436 488.037C226.087 488.037 226.549 487.861 226.822 487.51C227.096 487.158 227.262 486.702 227.32 486.143H230.162C230.097 486.989 229.791 487.79 229.244 488.545C228.372 489.762 227.079 490.371 225.367 490.371C223.655 490.371 222.395 489.863 221.588 488.848C220.781 487.832 220.377 486.514 220.377 484.893C220.377 483.063 220.823 481.641 221.715 480.625C222.607 479.609 223.837 479.102 225.406 479.102C226.741 479.102 227.831 479.401 228.678 480C229.531 480.599 230.035 481.657 230.191 483.174H227.34ZM232.086 475.654H234.82V483.408L238.287 479.404H241.734L238.014 483.477L241.881 490H238.521L235.973 485.449L234.82 486.65V490H232.086V475.654Z" fill="#4F4F4F"/>
<path d="M86.7626 467.614L82.9739 462.502V458.484C82.9713 456.561 80.8789 455.002 78.2976 455H51.7017C49.1204 455.002 47.0287 456.561 47.0261 458.484V462.502L43.2367 467.614C41.1164 470.479 40.0026 473.697 40 476.969V505.95C40.0046 508.186 42.4357 509.998 45.4364 510H84.5636C87.5637 509.998 89.9954 508.186 90 505.95V476.969C89.9967 473.697 88.8836 470.479 86.7626 467.614ZM70.2098 457.442H78.2944C79.0662 457.443 79.6917 457.909 79.6923 458.484V461.596H70.213L70.2098 457.442ZM62.8345 463.427C62.9801 463.242 63.0562 463.031 63.0562 462.816V457.442H66.9269V462.489L64.1082 466.112H60.7584L62.8345 463.427ZM50.3038 458.484C50.3044 457.909 50.9299 457.443 51.7017 457.442H59.7863V461.595H50.3038V458.484ZM43.2777 505.95V476.969C43.2803 474.11 44.2536 471.298 46.1067 468.794L49.6315 464.039H58.5815L56.4957 466.726C56.2031 467.103 56.2024 467.569 56.495 467.947C56.7876 468.324 57.3279 468.557 57.9131 468.558H65.0601C65.6453 468.557 66.1856 468.324 66.4782 467.947L69.5179 464.039H78.5571L75.9068 467.614C73.7865 470.479 72.6727 473.697 72.6701 476.969V507.56H45.4364C44.2439 507.559 43.2777 506.839 43.2777 505.95ZM86.7217 505.95C86.7204 506.838 85.7548 507.557 84.5636 507.558H82.9739V490.806C82.9739 490.132 82.2398 489.585 81.3347 489.585C80.4297 489.585 79.6962 490.132 79.6962 490.806V507.56H75.9478V476.969C75.9504 474.11 76.9238 471.298 78.7762 468.794L81.3347 465.343L83.8933 468.794C85.7464 471.298 86.7191 474.11 86.7217 476.969V505.95Z" fill="#BC9A6C"/>
<rect x="24" y="340" width="258" height="79" fill="white"/>
<path d="M114.898 379.92C114.898 377.407 115.572 375.47 116.92 374.109C118.092 372.924 119.583 372.332 121.393 372.332C123.814 372.332 125.585 373.126 126.705 374.715C127.324 375.607 127.656 376.502 127.701 377.4H124.693C124.498 376.71 124.247 376.189 123.941 375.838C123.395 375.213 122.584 374.9 121.51 374.9C120.416 374.9 119.553 375.343 118.922 376.229C118.29 377.107 117.975 378.354 117.975 379.969C117.975 381.583 118.307 382.794 118.971 383.602C119.641 384.402 120.491 384.803 121.52 384.803C122.574 384.803 123.378 384.458 123.932 383.768C124.238 383.396 124.492 382.84 124.693 382.098H127.672C127.411 383.667 126.744 384.943 125.67 385.926C124.602 386.909 123.232 387.4 121.559 387.4C119.488 387.4 117.861 386.736 116.676 385.408C115.491 384.074 114.898 382.244 114.898 379.92ZM134.527 385.037C135.341 385.037 135.966 384.747 136.402 384.168C136.839 383.589 137.057 382.765 137.057 381.697C137.057 380.63 136.839 379.809 136.402 379.236C135.966 378.657 135.341 378.367 134.527 378.367C133.714 378.367 133.085 378.657 132.643 379.236C132.206 379.809 131.988 380.63 131.988 381.697C131.988 382.765 132.206 383.589 132.643 384.168C133.085 384.747 133.714 385.037 134.527 385.037ZM139.977 381.697C139.977 383.26 139.527 384.598 138.629 385.711C137.73 386.818 136.367 387.371 134.537 387.371C132.708 387.371 131.344 386.818 130.445 385.711C129.547 384.598 129.098 383.26 129.098 381.697C129.098 380.161 129.547 378.829 130.445 377.703C131.344 376.577 132.708 376.014 134.537 376.014C136.367 376.014 137.73 376.577 138.629 377.703C139.527 378.829 139.977 380.161 139.977 381.697ZM145.904 372.459C146.08 372.459 146.24 372.465 146.383 372.479C146.526 372.485 146.721 372.498 146.969 372.518V374.783C146.812 374.764 146.549 374.751 146.178 374.744C145.813 374.731 145.559 374.812 145.416 374.988C145.279 375.158 145.211 375.346 145.211 375.555C145.211 375.763 145.211 376.062 145.211 376.453H147.037V378.416H145.211V387H142.438V378.416H140.885V376.453H142.408V375.77C142.408 374.63 142.6 373.846 142.984 373.416C143.388 372.778 144.361 372.459 145.904 372.459ZM152.564 372.459C152.74 372.459 152.9 372.465 153.043 372.479C153.186 372.485 153.382 372.498 153.629 372.518V374.783C153.473 374.764 153.209 374.751 152.838 374.744C152.473 374.731 152.219 374.812 152.076 374.988C151.939 375.158 151.871 375.346 151.871 375.555C151.871 375.763 151.871 376.062 151.871 376.453H153.697V378.416H151.871V387H149.098V378.416H147.545V376.453H149.068V375.77C149.068 374.63 149.26 373.846 149.645 373.416C150.048 372.778 151.021 372.459 152.564 372.459ZM159.498 378.367C158.854 378.367 158.352 378.569 157.994 378.973C157.643 379.376 157.421 379.923 157.33 380.613H161.656C161.611 379.878 161.386 379.321 160.982 378.943C160.585 378.559 160.09 378.367 159.498 378.367ZM159.498 376.072C160.383 376.072 161.181 376.238 161.891 376.57C162.6 376.902 163.186 377.426 163.648 378.143C164.065 378.774 164.335 379.507 164.459 380.34C164.531 380.828 164.56 381.531 164.547 382.449H157.262C157.301 383.517 157.636 384.266 158.268 384.695C158.652 384.962 159.114 385.096 159.654 385.096C160.227 385.096 160.693 384.933 161.051 384.607C161.246 384.432 161.419 384.188 161.568 383.875H164.41C164.339 384.507 164.01 385.148 163.424 385.799C162.512 386.834 161.236 387.352 159.596 387.352C158.242 387.352 157.047 386.915 156.012 386.043C154.977 385.171 154.459 383.751 154.459 381.785C154.459 379.943 154.924 378.53 155.855 377.547C156.793 376.564 158.007 376.072 159.498 376.072ZM170.631 378.367C169.986 378.367 169.485 378.569 169.127 378.973C168.775 379.376 168.554 379.923 168.463 380.613H172.789C172.743 379.878 172.519 379.321 172.115 378.943C171.718 378.559 171.223 378.367 170.631 378.367ZM170.631 376.072C171.516 376.072 172.314 376.238 173.023 376.57C173.733 376.902 174.319 377.426 174.781 378.143C175.198 378.774 175.468 379.507 175.592 380.34C175.663 380.828 175.693 381.531 175.68 382.449H168.395C168.434 383.517 168.769 384.266 169.4 384.695C169.785 384.962 170.247 385.096 170.787 385.096C171.36 385.096 171.826 384.933 172.184 384.607C172.379 384.432 172.551 384.188 172.701 383.875H175.543C175.471 384.507 175.143 385.148 174.557 385.799C173.645 386.834 172.369 387.352 170.729 387.352C169.374 387.352 168.18 386.915 167.145 386.043C166.109 385.171 165.592 383.751 165.592 381.785C165.592 379.943 166.057 378.53 166.988 377.547C167.926 376.564 169.14 376.072 170.631 376.072ZM185.299 383.602C185.357 384.096 185.484 384.448 185.68 384.656C186.025 385.027 186.663 385.213 187.594 385.213C188.141 385.213 188.574 385.132 188.893 384.969C189.218 384.806 189.381 384.562 189.381 384.236C189.381 383.924 189.251 383.686 188.99 383.523C188.73 383.361 187.763 383.081 186.09 382.684C184.885 382.384 184.036 382.01 183.541 381.561C183.046 381.118 182.799 380.48 182.799 379.646C182.799 378.663 183.183 377.82 183.951 377.117C184.726 376.408 185.813 376.053 187.213 376.053C188.541 376.053 189.622 376.32 190.455 376.854C191.295 377.381 191.777 378.296 191.9 379.598H189.117C189.078 379.24 188.977 378.956 188.814 378.748C188.508 378.37 187.988 378.182 187.252 378.182C186.646 378.182 186.214 378.276 185.953 378.465C185.699 378.654 185.572 378.875 185.572 379.129C185.572 379.448 185.709 379.679 185.982 379.822C186.256 379.972 187.223 380.229 188.883 380.594C189.99 380.854 190.82 381.248 191.373 381.775C191.92 382.309 192.193 382.977 192.193 383.777C192.193 384.832 191.799 385.695 191.012 386.365C190.23 387.029 189.02 387.361 187.379 387.361C185.706 387.361 184.469 387.01 183.668 386.307C182.874 385.597 182.477 384.695 182.477 383.602H185.299ZM193.17 378.436V376.453H194.654V373.484H197.408V376.453H199.137V378.436H197.408V384.061C197.408 384.497 197.464 384.77 197.574 384.881C197.685 384.985 198.023 385.037 198.59 385.037C198.674 385.037 198.762 385.037 198.854 385.037C198.951 385.031 199.046 385.024 199.137 385.018V387.098L197.818 387.146C196.503 387.192 195.605 386.964 195.123 386.463C194.811 386.144 194.654 385.652 194.654 384.988V378.436H193.17ZM203.785 375.086H200.963V372.518H203.785V375.086ZM200.963 376.355H203.785V387H200.963V376.355ZM218.385 376.121C218.854 376.121 219.316 376.212 219.771 376.395C220.227 376.577 220.641 376.896 221.012 377.352C221.311 377.723 221.513 378.178 221.617 378.719C221.682 379.077 221.715 379.601 221.715 380.291L221.695 387H218.844V380.223C218.844 379.819 218.779 379.487 218.648 379.227C218.401 378.732 217.945 378.484 217.281 378.484C216.513 378.484 215.982 378.803 215.689 379.441C215.54 379.78 215.465 380.187 215.465 380.662V387H212.662V380.662C212.662 380.031 212.597 379.572 212.467 379.285C212.232 378.771 211.773 378.514 211.09 378.514C210.296 378.514 209.762 378.771 209.488 379.285C209.339 379.578 209.264 380.014 209.264 380.594V387H206.441V376.375H209.146V377.928C209.492 377.374 209.817 376.98 210.123 376.746C210.663 376.329 211.363 376.121 212.223 376.121C213.036 376.121 213.694 376.3 214.195 376.658C214.599 376.99 214.905 377.417 215.113 377.938C215.478 377.312 215.93 376.854 216.471 376.561C217.044 376.268 217.682 376.121 218.385 376.121ZM224.713 389.041L225.064 389.061C225.338 389.074 225.598 389.064 225.846 389.031C226.093 388.999 226.301 388.924 226.471 388.807C226.633 388.696 226.783 388.465 226.92 388.113C227.063 387.762 227.122 387.547 227.096 387.469L223.189 376.355H226.285L228.609 384.207L230.807 376.355H233.766L230.113 386.824C229.41 388.842 228.854 390.092 228.443 390.574C228.033 391.062 227.213 391.307 225.982 391.307C225.735 391.307 225.536 391.303 225.387 391.297C225.237 391.297 225.012 391.287 224.713 391.268V389.041Z" fill="#4F4F4F"/>
<path d="M84.9725 390.887C87.8149 386.236 89.0428 380.481 88.4055 374.798L87.535 367.01C86.991 362.186 79.0103 360.504 70.9571 360.93C71.5578 358.544 71.9568 355.69 70.8313 353.827C69.9628 352.549 68.6077 351.87 67.2242 352.021C65.8396 351.871 64.4837 352.55 63.6146 353.829C62.3192 355.975 63.0273 359.369 63.7362 361.847C54.231 363.726 47.1225 367.863 46.3253 372.016C46.2148 372.474 46.1864 372.953 46.242 373.424V373.44L46.4569 375.366C44.4035 375.647 42.5541 376.963 41.3869 378.973C40.2224 381.135 39.7687 383.724 40.1115 386.253C40.4659 388.987 41.8417 391.389 43.8603 392.799C44.56 393.323 45.3114 393.744 46.0979 394.053C45.4274 394.907 45.0426 396.019 45.0149 397.182C45.0149 403.564 56.6036 407 67.5074 407C78.4113 407 90 403.564 90 397.182C90 394.766 88.2639 392.605 84.9725 390.887ZM71.6936 398.185L68.3905 398.698C58.8165 400.164 50.0399 392.228 48.7637 380.95L48.2963 376.768C50.8238 378.688 55.3773 379.559 60.414 379.559C62.9069 379.553 65.3968 379.356 67.8682 378.97C74.9408 377.877 81.2262 375.45 84.7092 372.468C84.7361 372.45 84.762 372.43 84.7867 372.408C85.3306 371.95 85.8331 371.427 86.2862 370.847L86.7561 375.049C88.0069 386.336 81.2684 396.687 71.6936 398.185ZM47.1092 381.207C47.4057 383.846 48.0976 386.401 49.1527 388.755C48.2836 388.747 47.4314 388.47 46.681 387.954C45.8559 387.455 45.2631 386.548 45.0649 385.48C44.9263 384.511 45.0266 383.515 45.3539 382.611C45.6823 381.805 46.3525 381.269 47.1092 381.207ZM85.8839 367.266C85.9938 368.247 85.3374 369.42 84.042 370.604C81.7644 370.313 79.4659 370.339 77.1934 370.68C74.3927 371.088 72.2567 370.621 71.0146 369.328C70.1738 368.412 69.7067 367.115 69.7317 365.765C69.8553 364.793 70.0791 363.841 70.3982 362.932C79.7201 362.307 85.5848 364.609 85.8839 367.27V367.266ZM64.9725 354.966C65.5394 354.222 66.3805 353.855 67.2217 353.984C68.063 353.854 68.9047 354.221 69.471 354.966C70.4815 356.64 69.3685 360.424 69.0028 361.667L68.9945 361.697L68.8337 362.245C68.4324 363.368 68.1736 364.554 68.0656 365.765C68.038 367.679 68.7106 369.514 69.9117 370.802C71.5453 372.502 74.0644 373.121 77.3983 372.63C78.796 372.428 80.2043 372.347 81.6119 372.388C77.2013 374.815 72.4853 376.381 67.6482 377.025C56.4619 378.76 48.2638 376.389 47.8939 373.188V373.167C47.8939 373.137 47.8939 373.11 47.8939 373.081C50.9021 372.295 54.0044 372.143 57.0576 372.63C60.3898 373.121 62.9048 372.503 64.5376 370.805C65.7414 369.519 66.4118 367.68 66.3745 365.765C66.2705 364.564 66.0179 363.387 65.6247 362.272C65.5464 362.031 65.4756 361.789 65.4015 361.526C64.4485 358.282 64.3027 356.075 64.9725 354.966ZM64.2868 363.728C64.501 364.383 64.6427 365.068 64.7084 365.765C64.7334 367.116 64.2664 368.415 63.4255 369.333C62.185 370.625 60.0516 371.09 57.2533 370.682C54.433 370.248 51.5735 370.31 48.7687 370.867C50.8296 368.22 56.4419 365.237 64.2868 363.729V363.728ZM41.766 385.997C41.4763 383.945 41.8317 381.84 42.7656 380.075C43.661 378.523 45.09 377.513 46.6735 377.313L46.8909 379.26C45.5806 379.407 44.4307 380.35 43.8594 381.748C43.3868 383 43.2323 384.387 43.4146 385.741C43.6595 387.419 44.5565 388.865 45.8388 389.65C47.0459 390.493 48.4512 390.855 49.8466 390.683C49.9299 390.67 49.9982 390.636 50.0782 390.619C50.4114 391.215 50.7622 391.797 51.1387 392.348C50.7879 392.479 50.428 392.573 50.0632 392.63C48.2002 392.861 46.3259 392.337 44.75 391.143C43.1527 390.04 42.0581 388.152 41.766 385.997ZM67.5074 405.036C55.2348 405.036 46.681 400.897 46.681 397.182C46.7917 396.127 47.2786 395.177 48.0197 394.571C48.399 394.629 48.781 394.659 49.1635 394.662C50.2467 394.671 51.32 394.42 52.3183 393.925C56.5319 399.091 62.5802 401.586 68.6079 400.644L71.9118 400.128C76.5708 399.408 80.8406 396.688 83.9029 392.487C86.7178 393.876 88.3339 395.565 88.3339 397.182C88.3339 400.897 79.78 405.036 67.5074 405.036Z" fill="#BC9A6C"/>
<rect x="24" y="237" width="258" height="79" fill="white"/>
<path d="M114.459 278.561H118.111L116.314 272.896L114.459 278.561ZM114.645 269.605H118.043L123.141 284H119.879L118.951 281.041H113.648L112.652 284H109.508L114.645 269.605ZM130.533 273.102C130.585 273.102 130.628 273.105 130.66 273.111C130.699 273.111 130.781 273.115 130.904 273.121V275.973C130.729 275.953 130.572 275.94 130.436 275.934C130.299 275.927 130.188 275.924 130.104 275.924C128.984 275.924 128.232 276.288 127.848 277.018C127.633 277.428 127.525 278.059 127.525 278.912V284H124.723V273.355H127.379V275.211C127.809 274.501 128.183 274.016 128.502 273.756C129.023 273.32 129.7 273.102 130.533 273.102ZM138.414 278.824C138.238 278.935 138.059 279.026 137.877 279.098C137.701 279.163 137.457 279.225 137.145 279.283L136.52 279.4C135.934 279.505 135.514 279.632 135.26 279.781C134.83 280.035 134.615 280.429 134.615 280.963C134.615 281.438 134.745 281.783 135.006 281.998C135.273 282.206 135.595 282.311 135.973 282.311C136.572 282.311 137.122 282.135 137.623 281.783C138.131 281.432 138.395 280.79 138.414 279.859V278.824ZM136.725 277.525C137.239 277.46 137.607 277.379 137.828 277.281C138.225 277.112 138.424 276.848 138.424 276.49C138.424 276.054 138.271 275.755 137.965 275.592C137.665 275.423 137.223 275.338 136.637 275.338C135.979 275.338 135.514 275.501 135.24 275.826C135.045 276.067 134.915 276.393 134.85 276.803H132.164C132.223 275.872 132.483 275.107 132.945 274.508C133.681 273.57 134.944 273.102 136.734 273.102C137.9 273.102 138.935 273.333 139.84 273.795C140.745 274.257 141.197 275.13 141.197 276.412V281.295C141.197 281.633 141.204 282.044 141.217 282.525C141.236 282.89 141.292 283.137 141.383 283.268C141.474 283.398 141.611 283.505 141.793 283.59V284H138.766C138.681 283.785 138.622 283.583 138.59 283.395C138.557 283.206 138.531 282.991 138.512 282.75C138.128 283.167 137.685 283.521 137.184 283.814C136.585 284.16 135.908 284.332 135.152 284.332C134.189 284.332 133.391 284.059 132.76 283.512C132.135 282.958 131.822 282.177 131.822 281.168C131.822 279.859 132.327 278.912 133.336 278.326C133.889 278.007 134.703 277.779 135.777 277.643L136.725 277.525ZM149.43 273.121C150.829 273.121 151.923 273.626 152.711 274.635C153.505 275.644 153.902 276.946 153.902 278.541C153.902 280.195 153.512 281.565 152.73 282.652C151.949 283.74 150.859 284.283 149.459 284.283C148.58 284.283 147.874 284.107 147.34 283.756C147.021 283.548 146.676 283.183 146.305 282.662V284H143.58V269.625H146.354V274.742C146.705 274.247 147.092 273.87 147.516 273.609C148.017 273.284 148.655 273.121 149.43 273.121ZM148.717 281.988C149.433 281.988 149.99 281.699 150.387 281.119C150.784 280.54 150.982 279.778 150.982 278.834C150.982 278.079 150.885 277.454 150.689 276.959C150.318 276.021 149.635 275.553 148.639 275.553C147.63 275.553 146.936 276.012 146.559 276.93C146.363 277.418 146.266 278.049 146.266 278.824C146.266 279.736 146.467 280.491 146.871 281.09C147.275 281.689 147.89 281.988 148.717 281.988ZM158.766 272.086H155.943V269.518H158.766V272.086ZM155.943 273.355H158.766V284H155.943V273.355ZM167.828 277.174C167.776 276.777 167.643 276.419 167.428 276.1C167.115 275.67 166.63 275.455 165.973 275.455C165.035 275.455 164.394 275.921 164.049 276.852C163.867 277.346 163.775 278.004 163.775 278.824C163.775 279.605 163.867 280.234 164.049 280.709C164.381 281.594 165.006 282.037 165.924 282.037C166.575 282.037 167.037 281.861 167.311 281.51C167.584 281.158 167.75 280.702 167.809 280.143H170.65C170.585 280.989 170.279 281.79 169.732 282.545C168.86 283.762 167.568 284.371 165.855 284.371C164.143 284.371 162.883 283.863 162.076 282.848C161.269 281.832 160.865 280.514 160.865 278.893C160.865 277.063 161.311 275.641 162.203 274.625C163.095 273.609 164.326 273.102 165.895 273.102C167.229 273.102 168.32 273.401 169.166 274C170.019 274.599 170.523 275.657 170.68 277.174H167.828ZM178.473 278.824C178.297 278.935 178.118 279.026 177.936 279.098C177.76 279.163 177.516 279.225 177.203 279.283L176.578 279.4C175.992 279.505 175.572 279.632 175.318 279.781C174.889 280.035 174.674 280.429 174.674 280.963C174.674 281.438 174.804 281.783 175.064 281.998C175.331 282.206 175.654 282.311 176.031 282.311C176.63 282.311 177.18 282.135 177.682 281.783C178.189 281.432 178.453 280.79 178.473 279.859V278.824ZM176.783 277.525C177.298 277.46 177.665 277.379 177.887 277.281C178.284 277.112 178.482 276.848 178.482 276.49C178.482 276.054 178.329 275.755 178.023 275.592C177.724 275.423 177.281 275.338 176.695 275.338C176.038 275.338 175.572 275.501 175.299 275.826C175.104 276.067 174.973 276.393 174.908 276.803H172.223C172.281 275.872 172.542 275.107 173.004 274.508C173.74 273.57 175.003 273.102 176.793 273.102C177.958 273.102 178.993 273.333 179.898 273.795C180.803 274.257 181.256 275.13 181.256 276.412V281.295C181.256 281.633 181.262 282.044 181.275 282.525C181.295 282.89 181.35 283.137 181.441 283.268C181.533 283.398 181.669 283.505 181.852 283.59V284H178.824C178.74 283.785 178.681 283.583 178.648 283.395C178.616 283.206 178.59 282.991 178.57 282.75C178.186 283.167 177.743 283.521 177.242 283.814C176.643 284.16 175.966 284.332 175.211 284.332C174.247 284.332 173.45 284.059 172.818 283.512C172.193 282.958 171.881 282.177 171.881 281.168C171.881 279.859 172.385 278.912 173.395 278.326C173.948 278.007 174.762 277.779 175.836 277.643L176.783 277.525Z" fill="#4F4F4F"/>
<mask id="path-25-inside-4_400_15151" fill="white">
<path d="M84.9542 262.918L83.1542 258.7C83.0318 258.412 82.688 258.219 82.3001 258.219H81.149L79.5542 254.481C79.4318 254.193 79.088 254 78.7001 254H46.3003C45.9124 254 45.5686 254.193 45.4462 254.481L43.8514 258.219H42.7003C42.3124 258.219 41.9695 258.412 41.8462 258.7L40.0462 262.918C39.9544 263.133 40.0012 263.368 40.1704 263.552C40.3396 263.735 40.6114 263.844 40.9003 263.844H43.6696L47.203 298.353C47.2408 298.719 47.6314 299 48.1003 299H76.9001C77.369 299 77.7596 298.719 77.7974 298.353L81.3308 263.844H84.1001C84.389 263.844 84.6608 263.735 84.83 263.551C84.9992 263.368 85.0451 263.133 84.9542 262.918ZM76.9721 288.778H48.0283L46.2787 271.694H78.7208L76.9721 288.778ZM48.931 297.594L48.1723 290.184H76.8281L76.0694 297.594H48.931ZM78.8657 270.289H46.1347L45.475 263.844H79.5254L78.8657 270.289ZM42.1486 262.438L43.3483 259.625H44.5003C44.8882 259.625 45.232 259.432 45.3544 259.144L46.9492 255.406H78.0521L79.6469 259.144C79.7693 259.432 80.1122 259.625 80.5001 259.625H81.6512L82.8509 262.438H42.1486Z"/>
</mask>
<path d="M84.9542 262.918L83.1542 258.7C83.0318 258.412 82.688 258.219 82.3001 258.219H81.149L79.5542 254.481C79.4318 254.193 79.088 254 78.7001 254H46.3003C45.9124 254 45.5686 254.193 45.4462 254.481L43.8514 258.219H42.7003C42.3124 258.219 41.9695 258.412 41.8462 258.7L40.0462 262.918C39.9544 263.133 40.0012 263.368 40.1704 263.552C40.3396 263.735 40.6114 263.844 40.9003 263.844H43.6696L47.203 298.353C47.2408 298.719 47.6314 299 48.1003 299H76.9001C77.369 299 77.7596 298.719 77.7974 298.353L81.3308 263.844H84.1001C84.389 263.844 84.6608 263.735 84.83 263.551C84.9992 263.368 85.0451 263.133 84.9542 262.918ZM76.9721 288.778H48.0283L46.2787 271.694H78.7208L76.9721 288.778ZM48.931 297.594L48.1723 290.184H76.8281L76.0694 297.594H48.931ZM78.8657 270.289H46.1347L45.475 263.844H79.5254L78.8657 270.289ZM42.1486 262.438L43.3483 259.625H44.5003C44.8882 259.625 45.232 259.432 45.3544 259.144L46.9492 255.406H78.0521L79.6469 259.144C79.7693 259.432 80.1122 259.625 80.5001 259.625H81.6512L82.8509 262.438H42.1486Z" fill="#BC9A6C"/>
<path d="M83.1542 258.7L75.7932 261.833L75.796 261.839L83.1542 258.7ZM81.149 258.219L73.7908 261.358L75.8646 266.219H81.149V258.219ZM79.5542 254.481L72.1932 257.614L72.196 257.62L79.5542 254.481ZM45.4462 254.481L52.8044 257.62L52.8072 257.614L45.4462 254.481ZM43.8514 258.219V266.219H49.1358L51.2096 261.358L43.8514 258.219ZM41.8462 258.7L34.4935 255.547L34.488 255.56L41.8462 258.7ZM40.0462 262.918L47.4007 266.067L47.4044 266.058L40.0462 262.918ZM43.6696 263.844L51.628 263.029L50.8923 255.844H43.6696V263.844ZM47.203 298.353L39.2446 299.168L39.2454 299.176L47.203 298.353ZM77.7974 298.353L85.755 299.176L85.7558 299.168L77.7974 298.353ZM81.3308 263.844V255.844H74.1081L73.3724 263.029L81.3308 263.844ZM84.83 263.551L78.9588 258.117L78.9484 258.128L78.9381 258.14L84.83 263.551ZM76.9721 288.778V296.778H84.1951L84.9305 289.593L76.9721 288.778ZM48.0283 288.778L40.0699 289.593L40.8057 296.778H48.0283V288.778ZM46.2787 271.694V263.694H37.4175L38.3203 272.509L46.2787 271.694ZM78.7208 271.694L86.6792 272.509L87.5815 263.694H78.7208V271.694ZM48.931 297.594L40.9726 298.409L41.7083 305.594H48.931V297.594ZM48.1723 290.184V282.184H39.3113L40.2139 290.999L48.1723 290.184ZM76.8281 290.184L84.7865 290.999L85.6891 282.184H76.8281V290.184ZM76.0694 297.594V305.594H83.2921L84.0278 298.409L76.0694 297.594ZM78.8657 270.289V278.289H86.0886L86.8241 271.103L78.8657 270.289ZM46.1347 270.289L38.1763 271.103L38.9118 278.289H46.1347V270.289ZM45.475 263.844V255.844H36.6143L37.5166 264.658L45.475 263.844ZM79.5254 263.844L87.4838 264.658L88.3861 255.844H79.5254V263.844ZM42.1486 262.438L34.7901 259.299L30.0387 270.438H42.1486V262.438ZM43.3483 259.625V251.625H38.0633L35.9898 256.486L43.3483 259.625ZM45.3544 259.144L37.9961 256.005L37.9934 256.011L45.3544 259.144ZM46.9492 255.406V247.406H41.6647L39.5909 252.267L46.9492 255.406ZM78.0521 255.406L85.4104 252.267L83.3366 247.406H78.0521V255.406ZM79.6469 259.144L87.0079 256.011L87.0051 256.005L79.6469 259.144ZM81.6512 259.625L89.0097 256.486L86.9362 251.625H81.6512V259.625ZM82.8509 262.438V270.438H94.9608L90.2094 259.299L82.8509 262.438ZM92.3124 259.779L90.5124 255.56L75.796 261.839L77.596 266.058L92.3124 259.779ZM90.5152 255.567C88.7982 251.533 84.9325 250.219 82.3001 250.219V266.219C80.4435 266.219 77.2654 265.292 75.7932 261.833L90.5152 255.567ZM82.3001 250.219H81.149V266.219H82.3001V250.219ZM88.5072 255.079L86.9125 251.341L72.196 257.62L73.7908 261.358L88.5072 255.079ZM86.9152 251.348C85.1983 247.314 81.3325 246 78.7001 246V262C76.8436 262 73.6654 261.073 72.1932 257.614L86.9152 251.348ZM78.7001 246H46.3003V262H78.7001V246ZM46.3003 246C43.6679 246 39.8021 247.314 38.0852 251.348L52.8072 257.614C51.335 261.073 48.1568 262 46.3003 262V246ZM38.088 251.341L36.4932 255.079L51.2096 261.358L52.8044 257.62L38.088 251.341ZM43.8514 250.219H42.7003V266.219H43.8514V250.219ZM42.7003 250.219C40.0517 250.219 36.2105 251.543 34.4935 255.547L49.1989 261.852C47.7285 265.282 44.5731 266.219 42.7003 266.219V250.219ZM34.488 255.56L32.688 259.779L47.4044 266.058L49.2044 261.839L34.488 255.56ZM32.6917 259.77C31.2413 263.159 32.1944 266.703 34.2888 268.975L46.052 258.129C47.808 260.034 48.6676 263.107 47.4007 266.067L32.6917 259.77ZM34.2888 268.975C36.2232 271.073 38.7756 271.844 40.9003 271.844V255.844C42.4472 255.844 44.456 256.398 46.052 258.129L34.2888 268.975ZM40.9003 271.844H43.6696V255.844H40.9003V271.844ZM35.7112 264.659L39.2446 299.168L55.1614 297.538L51.628 263.029L35.7112 264.659ZM39.2454 299.176C39.8563 305.085 45.1958 307 48.1003 307V291C49.4228 291 50.8704 291.389 52.1672 292.323C53.4633 293.257 54.8989 295 55.1606 297.53L39.2454 299.176ZM48.1003 307H76.9001V291H48.1003V307ZM76.9001 307C79.8046 307 85.1441 305.085 85.755 299.176L69.8398 297.53C70.1015 295 71.5371 293.257 72.8332 292.323C74.13 291.389 75.5776 291 76.9001 291V307ZM85.7558 299.168L89.2892 264.659L73.3724 263.029L69.839 297.538L85.7558 299.168ZM81.3308 271.844H84.1001V255.844H81.3308V271.844ZM84.1001 271.844C86.2256 271.844 88.7849 271.072 90.7219 268.963L78.9381 258.14C80.5366 256.399 82.5524 255.844 84.1001 255.844V271.844ZM90.7012 268.985C92.8284 266.687 93.7391 263.145 92.3198 259.796L77.5885 266.04C76.3511 263.121 77.17 260.05 78.9588 258.117L90.7012 268.985ZM76.9721 280.778H48.0283V296.778H76.9721V280.778ZM55.9866 287.963L54.2371 270.879L38.3203 272.509L40.0699 289.593L55.9866 287.963ZM46.2787 279.694H78.7208V263.694H46.2787V279.694ZM70.7624 270.88L69.0137 287.963L84.9305 289.593L86.6792 272.509L70.7624 270.88ZM56.8894 296.779L56.1307 289.369L40.2139 290.999L40.9726 298.409L56.8894 296.779ZM48.1723 298.184H76.8281V282.184H48.1723V298.184ZM68.8697 289.369L68.111 296.779L84.0278 298.409L84.7865 290.999L68.8697 289.369ZM76.0694 289.594H48.931V305.594H76.0694V289.594ZM78.8657 262.289H46.1347V278.289H78.8657V262.289ZM54.0931 269.474L53.4334 263.029L37.5166 264.658L38.1763 271.103L54.0931 269.474ZM45.475 271.844H79.5254V255.844H45.475V271.844ZM71.567 263.029L70.9073 269.474L86.8241 271.103L87.4838 264.658L71.567 263.029ZM49.5071 265.576L50.7068 262.764L35.9898 256.486L34.7901 259.299L49.5071 265.576ZM43.3483 267.625H44.5003V251.625H43.3483V267.625ZM44.5003 267.625C47.1327 267.625 50.9984 266.311 52.7154 262.277L37.9934 256.011C39.4655 252.552 42.6437 251.625 44.5003 251.625V267.625ZM52.7126 262.284L54.3074 258.546L39.5909 252.267L37.9962 256.005L52.7126 262.284ZM46.9492 263.406H78.0521V247.406H46.9492V263.406ZM70.6939 258.546L72.2887 262.284L87.0051 256.005L85.4104 252.267L70.6939 258.546ZM72.2859 262.277C74 266.304 77.8587 267.625 80.5001 267.625V251.625C82.3658 251.625 85.5386 252.559 87.0079 256.011L72.2859 262.277ZM80.5001 267.625H81.6512V251.625H80.5001V267.625ZM74.2927 262.764L75.4924 265.576L90.2094 259.299L89.0097 256.486L74.2927 262.764ZM82.8509 254.438H42.1486V270.438H82.8509V254.438Z" fill="#BC9A6C" mask="url(#path-25-inside-4_400_15151)"/>
<mask id="path-27-inside-5_400_15151" fill="white">
<path d="M62.4999 273.688C58.9359 273.688 56.0361 276.684 56.0361 280.367C56.0361 284.05 58.9359 287.047 62.4999 287.047C66.0639 287.047 68.9637 284.05 68.9637 280.367C68.9637 276.684 66.0639 273.688 62.4999 273.688ZM57.8361 280.367C57.8361 279.073 58.2519 277.888 58.9386 276.97C58.9251 277.106 58.8999 277.238 58.8999 277.379C58.8999 279.449 60.4812 281.07 62.4999 281.07C63.4584 281.07 64.2999 282.138 64.2999 283.355C64.2999 284.573 63.4584 285.641 62.4999 285.641C59.9286 285.641 57.8361 283.275 57.8361 280.367ZM66.0612 283.765C66.0747 283.628 66.0999 283.496 66.0999 283.355C66.0999 281.285 64.5186 279.664 62.4999 279.664C61.5414 279.664 60.6999 278.596 60.6999 277.379C60.6999 276.162 61.5414 275.094 62.4999 275.094C65.0712 275.094 67.1637 277.459 67.1637 280.367C67.1637 281.662 66.747 282.846 66.0612 283.765Z"/>
</mask>
<path d="M62.4999 273.688C58.9359 273.688 56.0361 276.684 56.0361 280.367C56.0361 284.05 58.9359 287.047 62.4999 287.047C66.0639 287.047 68.9637 284.05 68.9637 280.367C68.9637 276.684 66.0639 273.688 62.4999 273.688ZM57.8361 280.367C57.8361 279.073 58.2519 277.888 58.9386 276.97C58.9251 277.106 58.8999 277.238 58.8999 277.379C58.8999 279.449 60.4812 281.07 62.4999 281.07C63.4584 281.07 64.2999 282.138 64.2999 283.355C64.2999 284.573 63.4584 285.641 62.4999 285.641C59.9286 285.641 57.8361 283.275 57.8361 280.367ZM66.0612 283.765C66.0747 283.628 66.0999 283.496 66.0999 283.355C66.0999 281.285 64.5186 279.664 62.4999 279.664C61.5414 279.664 60.6999 278.596 60.6999 277.379C60.6999 276.162 61.5414 275.094 62.4999 275.094C65.0712 275.094 67.1637 277.459 67.1637 280.367C67.1637 281.662 66.747 282.846 66.0612 283.765Z" fill="#BC9A6C"/>
<path d="M58.9386 276.97L66.8997 277.758L69.7276 249.184L52.5319 272.179L58.9386 276.97ZM66.0612 283.765L58.1001 282.977L55.2687 311.585L72.4709 288.552L66.0612 283.765ZM62.4999 265.688C54.2718 265.688 48.0361 272.516 48.0361 280.367H64.0361C64.0361 280.853 63.6 281.688 62.4999 281.688V265.688ZM48.0361 280.367C48.0361 288.219 54.2718 295.047 62.4999 295.047V279.047C63.6 279.047 64.0361 279.882 64.0361 280.367H48.0361ZM62.4999 295.047C70.728 295.047 76.9637 288.219 76.9637 280.367H60.9637C60.9637 279.882 61.3998 279.047 62.4999 279.047V295.047ZM76.9637 280.367C76.9637 272.516 70.728 265.688 62.4999 265.688V281.688C61.3998 281.688 60.9637 280.853 60.9637 280.367H76.9637ZM65.8361 280.367C65.8361 280.788 65.7003 281.286 65.3454 281.761L52.5319 272.179C50.8035 274.49 49.8361 277.358 49.8361 280.367H65.8361ZM50.9775 276.182C50.985 276.106 50.9918 276.054 50.9898 276.07C50.9849 276.109 50.9916 276.056 50.9837 276.118C50.9804 276.144 50.9752 276.186 50.9693 276.235C50.9476 276.419 50.8999 276.846 50.8999 277.379H66.8999C66.8999 277.582 66.8908 277.751 66.8816 277.873C66.8727 277.993 66.8626 278.081 66.8591 278.11C66.8573 278.126 66.8562 278.134 66.8572 278.126C66.8577 278.122 66.8582 278.118 66.8595 278.108C66.8605 278.1 66.8622 278.087 66.864 278.073C66.8705 278.021 66.8855 277.901 66.8997 277.758L50.9775 276.182ZM50.8999 277.379C50.8999 283.677 55.8751 289.07 62.4999 289.07V273.07C65.0874 273.07 66.8999 275.221 66.8999 277.379H50.8999ZM62.4999 289.07C59.8934 289.07 58.2203 287.653 57.475 286.707C56.6903 285.711 56.2999 284.537 56.2999 283.355H72.2999C72.2999 280.957 71.4887 278.64 70.0437 276.806C68.638 275.022 66.0649 273.07 62.4999 273.07V289.07ZM56.2999 283.355C56.2999 282.174 56.6903 281 57.475 280.004C58.2203 279.058 59.8934 277.641 62.4999 277.641V293.641C66.0649 293.641 68.638 291.689 70.0437 289.905C71.4887 288.071 72.2999 285.754 72.2999 283.355H56.2999ZM62.4999 277.641C63.7732 277.641 64.7085 278.243 65.1962 278.794C65.6719 279.332 65.8361 279.909 65.8361 280.367H49.8361C49.8361 286.742 54.6156 293.641 62.4999 293.641V277.641ZM74.0223 284.553C74.0148 284.628 74.008 284.68 74.01 284.664C74.0149 284.625 74.0082 284.679 74.0161 284.617C74.0194 284.591 74.0247 284.549 74.0305 284.499C74.0522 284.315 74.0999 283.888 74.0999 283.355H58.0999C58.0999 283.152 58.109 282.983 58.1182 282.861C58.1271 282.741 58.1372 282.654 58.1407 282.624C58.1426 282.609 58.1436 282.6 58.1427 282.608C58.1421 282.612 58.1416 282.616 58.1404 282.626C58.1393 282.634 58.1376 282.647 58.1359 282.662C58.1293 282.713 58.1143 282.833 58.1001 282.977L74.0223 284.553ZM74.0999 283.355C74.0999 277.057 69.1248 271.664 62.4999 271.664V287.664C59.9124 287.664 58.0999 285.513 58.0999 283.355H74.0999ZM62.4999 271.664C65.1064 271.664 66.7795 273.081 67.5248 274.027C68.3095 275.023 68.6999 276.197 68.6999 277.379H52.6999C52.6999 279.778 53.5111 282.094 54.9561 283.928C56.3618 285.713 58.9349 287.664 62.4999 287.664V271.664ZM68.6999 277.379C68.6999 278.561 68.3095 279.734 67.5248 280.73C66.7795 281.676 65.1064 283.094 62.4999 283.094V267.094C58.9349 267.094 56.3618 269.045 54.9561 270.829C53.5111 272.664 52.6999 274.98 52.6999 277.379H68.6999ZM62.4999 283.094C61.2266 283.094 60.2913 282.491 59.8036 281.94C59.3279 281.402 59.1637 280.825 59.1637 280.367H75.1637C75.1637 273.992 70.3842 267.094 62.4999 267.094V283.094ZM59.1637 280.367C59.1637 279.943 59.3008 279.447 59.6514 278.978L72.4709 288.552C74.1932 286.246 75.1637 283.38 75.1637 280.367H59.1637Z" fill="#BC9A6C" mask="url(#path-27-inside-5_400_15151)"/>
<path d="M52.1001 258.922C52.1001 259.17 52.0746 259.405 52.0292 259.625H51.371C51.3255 259.405 51.3001 259.17 51.3001 258.922C51.3001 258.673 51.3255 258.439 51.371 258.219H52.0292C52.0746 258.439 52.1001 258.673 52.1001 258.922Z" fill="#BC9A6C" stroke="#BC9A6C" stroke-width="8"/>
<mask id="path-30-inside-6_400_15151" fill="white">
<path d="M75.1001 258.219H61.6002C61.1034 258.219 60.7002 258.534 60.7002 258.922C60.7002 259.31 61.1034 259.625 61.6002 259.625H75.1001C75.5969 259.625 76.0001 259.31 76.0001 258.922C76.0001 258.534 75.5969 258.219 75.1001 258.219Z"/>
</mask>
<path d="M75.1001 258.219H61.6002C61.1034 258.219 60.7002 258.534 60.7002 258.922C60.7002 259.31 61.1034 259.625 61.6002 259.625H75.1001C75.5969 259.625 76.0001 259.31 76.0001 258.922C76.0001 258.534 75.5969 258.219 75.1001 258.219Z" fill="#BC9A6C"/>
<path d="M75.1001 250.219H61.6002V266.219H75.1001V250.219ZM61.6002 250.219C58.6363 250.219 52.7002 252.389 52.7002 258.922H68.7002C68.7002 261.674 67.2506 263.665 65.8891 264.729C64.5381 265.784 62.9956 266.219 61.6002 266.219V250.219ZM52.7002 258.922C52.7002 265.454 58.6363 267.625 61.6002 267.625V251.625C62.9956 251.625 64.5381 252.059 65.8891 253.115C67.2506 254.179 68.7002 256.169 68.7002 258.922H52.7002ZM61.6002 267.625H75.1001V251.625H61.6002V267.625ZM75.1001 267.625C78.064 267.625 84.0001 265.454 84.0001 258.922H68.0001C68.0001 256.169 69.4497 254.179 70.8113 253.115C72.1622 252.059 73.7047 251.625 75.1001 251.625V267.625ZM84.0001 258.922C84.0001 252.389 78.064 250.219 75.1001 250.219V266.219C73.7047 266.219 72.1622 265.784 70.8113 264.729C69.4497 263.665 68.0001 261.674 68.0001 258.922H84.0001Z" fill="#BC9A6C" mask="url(#path-30-inside-6_400_15151)"/>
<rect x="24" y="134" width="258" height="79" fill="#BC9A6C"/>
<path d="M121.168 168.154H113.551V171.211H120.543V173.711H113.551V177.412H121.52V180H110.611V165.605H121.168V168.154ZM125.807 176.602C125.865 177.096 125.992 177.448 126.188 177.656C126.533 178.027 127.171 178.213 128.102 178.213C128.648 178.213 129.081 178.132 129.4 177.969C129.726 177.806 129.889 177.562 129.889 177.236C129.889 176.924 129.758 176.686 129.498 176.523C129.238 176.361 128.271 176.081 126.598 175.684C125.393 175.384 124.544 175.01 124.049 174.561C123.554 174.118 123.307 173.48 123.307 172.646C123.307 171.663 123.691 170.82 124.459 170.117C125.234 169.408 126.321 169.053 127.721 169.053C129.049 169.053 130.13 169.32 130.963 169.854C131.803 170.381 132.285 171.296 132.408 172.598H129.625C129.586 172.24 129.485 171.956 129.322 171.748C129.016 171.37 128.495 171.182 127.76 171.182C127.154 171.182 126.721 171.276 126.461 171.465C126.207 171.654 126.08 171.875 126.08 172.129C126.08 172.448 126.217 172.679 126.49 172.822C126.764 172.972 127.73 173.229 129.391 173.594C130.497 173.854 131.327 174.248 131.881 174.775C132.428 175.309 132.701 175.977 132.701 176.777C132.701 177.832 132.307 178.695 131.52 179.365C130.738 180.029 129.527 180.361 127.887 180.361C126.214 180.361 124.977 180.01 124.176 179.307C123.382 178.597 122.984 177.695 122.984 176.602H125.807ZM142.105 174.678C142.105 173.857 141.917 173.132 141.539 172.5C141.168 171.868 140.562 171.553 139.723 171.553C138.714 171.553 138.02 172.031 137.643 172.988C137.447 173.496 137.35 174.141 137.35 174.922C137.35 176.159 137.678 177.028 138.336 177.529C138.727 177.822 139.189 177.969 139.723 177.969C140.497 177.969 141.087 177.669 141.49 177.07C141.9 176.471 142.105 175.674 142.105 174.678ZM140.523 169.121C141.767 169.121 142.818 169.58 143.678 170.498C144.544 171.416 144.977 172.764 144.977 174.541C144.977 176.416 144.553 177.845 143.707 178.828C142.867 179.811 141.783 180.303 140.455 180.303C139.609 180.303 138.906 180.091 138.346 179.668C138.04 179.434 137.74 179.092 137.447 178.643V184.189H134.693V169.355H137.359V170.928C137.659 170.465 137.978 170.101 138.316 169.834C138.935 169.359 139.671 169.121 140.523 169.121ZM151.197 171.367C150.553 171.367 150.051 171.569 149.693 171.973C149.342 172.376 149.12 172.923 149.029 173.613H153.355C153.31 172.878 153.085 172.321 152.682 171.943C152.285 171.559 151.79 171.367 151.197 171.367ZM151.197 169.072C152.083 169.072 152.88 169.238 153.59 169.57C154.299 169.902 154.885 170.426 155.348 171.143C155.764 171.774 156.035 172.507 156.158 173.34C156.23 173.828 156.259 174.531 156.246 175.449H148.961C149 176.517 149.335 177.266 149.967 177.695C150.351 177.962 150.813 178.096 151.354 178.096C151.926 178.096 152.392 177.933 152.75 177.607C152.945 177.432 153.118 177.188 153.268 176.875H156.109C156.038 177.507 155.709 178.148 155.123 178.799C154.212 179.834 152.936 180.352 151.295 180.352C149.941 180.352 148.746 179.915 147.711 179.043C146.676 178.171 146.158 176.751 146.158 174.785C146.158 172.943 146.624 171.53 147.555 170.547C148.492 169.564 149.706 169.072 151.197 169.072ZM163.912 169.102C163.964 169.102 164.007 169.105 164.039 169.111C164.078 169.111 164.16 169.115 164.283 169.121V171.973C164.107 171.953 163.951 171.94 163.814 171.934C163.678 171.927 163.567 171.924 163.482 171.924C162.363 171.924 161.611 172.288 161.227 173.018C161.012 173.428 160.904 174.059 160.904 174.912V180H158.102V169.355H160.758V171.211C161.188 170.501 161.562 170.016 161.881 169.756C162.402 169.32 163.079 169.102 163.912 169.102ZM170.123 171.367C169.479 171.367 168.977 171.569 168.619 171.973C168.268 172.376 168.046 172.923 167.955 173.613H172.281C172.236 172.878 172.011 172.321 171.607 171.943C171.21 171.559 170.715 171.367 170.123 171.367ZM170.123 169.072C171.008 169.072 171.806 169.238 172.516 169.57C173.225 169.902 173.811 170.426 174.273 171.143C174.69 171.774 174.96 172.507 175.084 173.34C175.156 173.828 175.185 174.531 175.172 175.449H167.887C167.926 176.517 168.261 177.266 168.893 177.695C169.277 177.962 169.739 178.096 170.279 178.096C170.852 178.096 171.318 177.933 171.676 177.607C171.871 177.432 172.044 177.188 172.193 176.875H175.035C174.964 177.507 174.635 178.148 174.049 178.799C173.137 179.834 171.861 180.352 170.221 180.352C168.867 180.352 167.672 179.915 166.637 179.043C165.602 178.171 165.084 176.751 165.084 174.785C165.084 172.943 165.549 171.53 166.48 170.547C167.418 169.564 168.632 169.072 170.123 169.072ZM179.225 176.602C179.283 177.096 179.41 177.448 179.605 177.656C179.951 178.027 180.589 178.213 181.52 178.213C182.066 178.213 182.499 178.132 182.818 177.969C183.144 177.806 183.307 177.562 183.307 177.236C183.307 176.924 183.176 176.686 182.916 176.523C182.656 176.361 181.689 176.081 180.016 175.684C178.811 175.384 177.962 175.01 177.467 174.561C176.972 174.118 176.725 173.48 176.725 172.646C176.725 171.663 177.109 170.82 177.877 170.117C178.652 169.408 179.739 169.053 181.139 169.053C182.467 169.053 183.548 169.32 184.381 169.854C185.221 170.381 185.702 171.296 185.826 172.598H183.043C183.004 172.24 182.903 171.956 182.74 171.748C182.434 171.37 181.913 171.182 181.178 171.182C180.572 171.182 180.139 171.276 179.879 171.465C179.625 171.654 179.498 171.875 179.498 172.129C179.498 172.448 179.635 172.679 179.908 172.822C180.182 172.972 181.148 173.229 182.809 173.594C183.915 173.854 184.745 174.248 185.299 174.775C185.846 175.309 186.119 175.977 186.119 176.777C186.119 177.832 185.725 178.695 184.938 179.365C184.156 180.029 182.945 180.361 181.305 180.361C179.632 180.361 178.395 180.01 177.594 179.307C176.799 178.597 176.402 177.695 176.402 176.602H179.225ZM190.357 176.602C190.416 177.096 190.543 177.448 190.738 177.656C191.083 178.027 191.721 178.213 192.652 178.213C193.199 178.213 193.632 178.132 193.951 177.969C194.277 177.806 194.439 177.562 194.439 177.236C194.439 176.924 194.309 176.686 194.049 176.523C193.788 176.361 192.822 176.081 191.148 175.684C189.944 175.384 189.094 175.01 188.6 174.561C188.105 174.118 187.857 173.48 187.857 172.646C187.857 171.663 188.242 170.82 189.01 170.117C189.785 169.408 190.872 169.053 192.271 169.053C193.6 169.053 194.68 169.32 195.514 169.854C196.354 170.381 196.835 171.296 196.959 172.598H194.176C194.137 172.24 194.036 171.956 193.873 171.748C193.567 171.37 193.046 171.182 192.311 171.182C191.705 171.182 191.272 171.276 191.012 171.465C190.758 171.654 190.631 171.875 190.631 172.129C190.631 172.448 190.768 172.679 191.041 172.822C191.314 172.972 192.281 173.229 193.941 173.594C195.048 173.854 195.878 174.248 196.432 174.775C196.979 175.309 197.252 175.977 197.252 176.777C197.252 177.832 196.858 178.695 196.07 179.365C195.289 180.029 194.078 180.361 192.438 180.361C190.764 180.361 189.527 180.01 188.727 179.307C187.932 178.597 187.535 177.695 187.535 176.602H190.357ZM204.098 178.037C204.911 178.037 205.536 177.747 205.973 177.168C206.409 176.589 206.627 175.765 206.627 174.697C206.627 173.63 206.409 172.809 205.973 172.236C205.536 171.657 204.911 171.367 204.098 171.367C203.284 171.367 202.656 171.657 202.213 172.236C201.777 172.809 201.559 173.63 201.559 174.697C201.559 175.765 201.777 176.589 202.213 177.168C202.656 177.747 203.284 178.037 204.098 178.037ZM209.547 174.697C209.547 176.26 209.098 177.598 208.199 178.711C207.301 179.818 205.937 180.371 204.107 180.371C202.278 180.371 200.914 179.818 200.016 178.711C199.117 177.598 198.668 176.26 198.668 174.697C198.668 173.161 199.117 171.829 200.016 170.703C200.914 169.577 202.278 169.014 204.107 169.014C205.937 169.014 207.301 169.577 208.199 170.703C209.098 171.829 209.547 173.161 209.547 174.697Z" fill="white"/>
<path d="M54.6384 196C55.1678 196 55.6963 195.956 56.2186 195.869C56.3862 195.842 56.5586 195.808 56.7294 195.77C57.6868 195.555 58.6066 195.195 59.4573 194.7C61.9966 193.229 63.9968 190.544 65.0892 187.139C65.4568 185.987 65.7168 184.801 65.8656 183.599C66.2276 183.635 66.5929 183.655 66.9618 183.655C69.1988 183.655 71.5487 182.999 73.8573 181.718C76.8415 180.063 79.4839 177.504 81.4988 174.319C86.0528 167.123 86.1774 158.58 81.7957 154.006C81.0437 153.219 80.1664 152.567 79.2006 152.076C76.295 150.597 72.718 150.644 69.1289 152.207C65.5924 153.747 62.3551 156.634 60.0131 160.335C59.3207 161.428 58.7185 162.578 58.2126 163.772C56.1604 162.241 53.8572 161.36 51.4967 161.33C50.7576 161.321 50.0198 161.397 49.2978 161.558C48.9662 161.632 48.6388 161.724 48.3171 161.834C45.2342 162.879 42.7426 165.482 41.3015 169.164C39.8813 172.791 39.6134 177.155 40.5469 181.449C42.394 189.952 48.394 196 54.6384 196ZM81.2178 155.638C82.7326 157.536 83.5342 160.182 83.4883 163.182C83.4361 166.601 82.2806 170.265 80.2349 173.497C78.3553 176.468 75.9008 178.849 73.1366 180.382C70.7821 181.688 68.3132 182.283 66.0968 182.091C70.4628 178.614 73.4028 173.618 74.3484 168.07C75.104 163.663 77.2092 159.609 80.3652 156.483L81.2178 155.638ZM77.8368 154.838L78.9921 153.694C79.086 153.75 79.1804 153.807 79.2737 153.868C79.5881 154.072 79.8882 154.299 80.1718 154.546L79.316 155.393C75.9339 158.742 73.678 163.087 72.8686 167.81C72.0509 172.607 69.6328 176.973 66.0192 180.178C65.999 179.562 65.9534 178.942 65.8825 178.317C68.9872 175.043 71.0551 170.902 71.8205 166.426C72.5673 162.015 74.6736 157.958 77.8368 154.838ZM61.2768 161.158C65.4311 154.592 72.3581 151.201 77.5308 153.012L76.7877 153.748C73.3982 157.092 71.1411 161.439 70.3408 166.165C69.6948 169.945 68.0509 173.478 65.584 176.386C65.5508 176.217 65.5166 176.048 65.4798 175.878C64.4844 171.297 62.2642 167.387 59.4243 164.778C59.9299 163.516 60.5501 162.304 61.2768 161.158ZM52.2188 164.107L52.2307 162.898C54.625 163.148 57.039 164.44 59.103 166.59C61.4548 169.04 63.1987 172.456 64.0136 176.206C64.7959 179.808 64.6707 183.524 63.6617 186.668C62.8893 189.075 61.6286 191.068 60.0402 192.431C60.6918 186.84 59.2765 181.202 56.0679 176.607C53.5563 173.017 52.2104 168.723 52.2174 164.321C52.2174 164.25 52.2174 164.18 52.2184 164.107H52.2188ZM49.2856 164.762L49.3009 163.125C49.4068 163.096 49.5133 163.07 49.6205 163.046C49.9857 162.964 50.3561 162.909 50.7289 162.879L50.7171 164.09C50.7161 164.167 50.7161 164.244 50.7161 164.321C50.7085 169.038 52.1507 173.64 54.842 177.487C57.8763 181.832 59.1911 187.174 58.5259 192.455L58.3886 193.556C57.9373 193.792 57.4655 193.985 56.979 194.132L57.0823 193.302C57.2009 192.35 57.2604 191.391 57.2606 190.432C57.2687 185.714 55.8264 181.111 53.1346 177.263C50.5801 173.614 49.2323 169.237 49.2851 164.762H49.2856ZM47.7931 163.694L47.7832 164.747C47.7268 169.542 49.1711 174.232 51.9083 178.142C54.4204 181.733 55.7664 186.028 55.759 190.431C55.7588 191.327 55.7031 192.222 55.5923 193.11L55.4268 194.438C52.7538 194.695 49.9738 193.611 47.5388 191.344C44.8679 188.858 42.9057 185.228 42.0137 181.122C40.3577 173.504 42.8766 166.134 47.7931 163.694Z" fill="white"/>
<path d="M65.7319 160.494C65.9217 160.494 66.1044 160.422 66.2432 160.29C66.5582 159.993 66.8894 159.706 67.2275 159.436C67.305 159.375 67.3698 159.298 67.4181 159.211C67.4664 159.124 67.4973 159.028 67.5091 158.928C67.5208 158.829 67.5131 158.728 67.4865 158.632C67.4599 158.536 67.4148 158.446 67.3539 158.367C67.2929 158.288 67.2173 158.223 67.1313 158.174C67.0454 158.125 66.9507 158.093 66.8528 158.081C66.7549 158.07 66.6556 158.077 66.5607 158.104C66.4657 158.131 66.377 158.177 66.2994 158.239C65.9289 158.534 65.5658 158.849 65.22 159.175C65.1095 159.279 65.0326 159.415 64.9991 159.564C64.9657 159.713 64.9774 159.869 65.0326 160.011C65.0878 160.154 65.184 160.276 65.3087 160.362C65.4333 160.448 65.5807 160.494 65.7315 160.494H65.7319Z" fill="white"/>
<path d="M61.8951 165.171C61.9833 165.215 62.0794 165.242 62.1778 165.249C62.2762 165.255 62.3749 165.243 62.4684 165.211C62.5619 165.179 62.6483 165.129 62.7226 165.063C62.797 164.997 62.8578 164.917 62.9017 164.828C63.3802 163.852 63.9566 162.93 64.6217 162.074C64.6843 161.996 64.7308 161.906 64.7587 161.809C64.7866 161.712 64.7953 161.611 64.7842 161.511C64.7732 161.41 64.7427 161.313 64.6944 161.225C64.6462 161.137 64.5811 161.06 64.5031 160.997C64.4251 160.935 64.3356 160.889 64.2399 160.862C64.1442 160.835 64.0441 160.827 63.9455 160.839C63.8468 160.852 63.7516 160.884 63.6653 160.934C63.579 160.984 63.5034 161.051 63.4428 161.131C62.7134 162.069 62.0815 163.08 61.557 164.15C61.4684 164.331 61.4542 164.54 61.5176 164.731C61.581 164.923 61.7168 165.081 61.8951 165.171Z" fill="white"/>
<path d="M47.367 188.817C47.4965 188.97 47.6808 189.065 47.8793 189.081C48.0779 189.097 48.2745 189.032 48.4259 188.901C48.5773 188.769 48.6711 188.582 48.6866 188.381C48.7021 188.18 48.6381 187.98 48.5086 187.827C48.229 187.495 47.9596 187.147 47.7084 186.794C47.592 186.63 47.4162 186.52 47.2196 186.487C47.023 186.455 46.8218 186.503 46.6602 186.621C46.4986 186.739 46.3898 186.917 46.3579 187.117C46.3259 187.316 46.3734 187.52 46.4898 187.684C46.7656 188.072 47.0607 188.453 47.367 188.817Z" fill="white"/>
<path d="M49.22 190.7C50.1135 191.478 51.0837 192.161 52.1154 192.737C52.2019 192.786 52.2969 192.816 52.3951 192.828C52.4932 192.839 52.5926 192.831 52.6876 192.803C52.7825 192.775 52.8711 192.728 52.9483 192.666C53.0255 192.603 53.0898 192.526 53.1374 192.438C53.1851 192.35 53.2152 192.254 53.226 192.154C53.2368 192.055 53.2281 191.954 53.2005 191.858C53.1728 191.762 53.1267 191.672 53.0648 191.594C53.0028 191.516 52.9263 191.451 52.8396 191.403C51.8986 190.877 51.0136 190.255 50.1986 189.545C50.0473 189.415 49.8516 189.351 49.6541 189.367C49.4566 189.383 49.2733 189.478 49.1442 189.63C49.0151 189.782 48.9506 189.98 48.9648 190.181C48.979 190.381 49.0707 190.568 49.22 190.7V190.7Z" fill="white"/>
<defs>
<clipPath id="clip0_400_15151">
<rect width="45" height="45" fill="white" transform="translate(40 43)"/>
</clipPath>
</defs>
</svg>
