<svg width="144" height="32" viewBox="0 0 144 32" fill="none" xmlns="http://www.w3.org/2000/svg">
<rect x="114" width="30" height="32" rx="4" fill="#BC9A6C"/>
<path d="M137.156 12.2878C137.531 13.6003 137.531 16.4128 137.531 16.4128C137.531 16.4128 137.531 19.1941 137.156 20.5378C136.969 21.2878 136.375 21.8503 135.656 22.0378C134.312 22.3816 129 22.3816 129 22.3816C129 22.3816 123.656 22.3816 122.312 22.0378C121.594 21.8503 121 21.2878 120.812 20.5378C120.438 19.1941 120.438 16.4128 120.438 16.4128C120.438 16.4128 120.438 13.6003 120.812 12.2878C121 11.5378 121.594 10.9441 122.312 10.7566C123.656 10.3816 129 10.3816 129 10.3816C129 10.3816 134.312 10.3816 135.656 10.7566C136.375 10.9441 136.969 11.5378 137.156 12.2878ZM127.25 18.9441L131.688 16.4128L127.25 13.8816V18.9441Z" fill="#333333"/>
<rect x="76" width="30" height="32" rx="4" fill="#BC9A6C"/>
<path d="M91 11.8064C92.9688 11.8064 94.5938 13.4314 94.5938 15.4001C94.5938 17.4001 92.9688 18.9939 91 18.9939C89 18.9939 87.4062 17.4001 87.4062 15.4001C87.4062 13.4314 89 11.8064 91 11.8064ZM91 17.7439C92.2812 17.7439 93.3125 16.7126 93.3125 15.4001C93.3125 14.1189 92.2812 13.0876 91 13.0876C89.6875 13.0876 88.6562 14.1189 88.6562 15.4001C88.6562 16.7126 89.7188 17.7439 91 17.7439ZM95.5625 11.6814C95.5625 12.1501 95.1875 12.5251 94.7188 12.5251C94.25 12.5251 93.875 12.1501 93.875 11.6814C93.875 11.2126 94.25 10.8376 94.7188 10.8376C95.1875 10.8376 95.5625 11.2126 95.5625 11.6814ZM97.9375 12.5251C98 13.6814 98 17.1501 97.9375 18.3064C97.875 19.4314 97.625 20.4001 96.8125 21.2439C96 22.0564 95 22.3064 93.875 22.3689C92.7188 22.4314 89.25 22.4314 88.0938 22.3689C86.9688 22.3064 86 22.0564 85.1562 21.2439C84.3438 20.4001 84.0938 19.4314 84.0312 18.3064C83.9688 17.1501 83.9688 13.6814 84.0312 12.5251C84.0938 11.4001 84.3438 10.4001 85.1562 9.58765C86 8.77515 86.9688 8.52515 88.0938 8.46265C89.25 8.40015 92.7188 8.40015 93.875 8.46265C95 8.52515 96 8.77515 96.8125 9.58765C97.625 10.4001 97.875 11.4001 97.9375 12.5251ZM96.4375 19.5251C96.8125 18.6189 96.7188 16.4314 96.7188 15.4001C96.7188 14.4001 96.8125 12.2126 96.4375 11.2751C96.1875 10.6814 95.7188 10.1814 95.125 9.96265C94.1875 9.58765 92 9.6814 91 9.6814C89.9688 9.6814 87.7812 9.58765 86.875 9.96265C86.25 10.2126 85.7812 10.6814 85.5312 11.2751C85.1562 12.2126 85.25 14.4001 85.25 15.4001C85.25 16.4314 85.1562 18.6189 85.5312 19.5251C85.7812 20.1501 86.25 20.6189 86.875 20.8689C87.7812 21.2439 89.9688 21.1501 91 21.1501C92 21.1501 94.1875 21.2439 95.125 20.8689C95.7188 20.6189 96.2188 20.1501 96.4375 19.5251Z" fill="#1E1E1E"/>
<rect width="30" height="32" rx="4" fill="#BC9A6C"/>
<path d="M18.7188 16.4001H16.375V23.4001H13.25V16.4001H10.6875V13.5251H13.25V11.3064C13.25 8.8064 14.75 7.40015 17.0312 7.40015C18.125 7.40015 19.2812 7.6189 19.2812 7.6189V10.0876H18C16.75 10.0876 16.375 10.8376 16.375 11.6501V13.5251H19.1562L18.7188 16.4001Z" fill="#1E1E1E"/>
<rect x="38" width="30" height="32" rx="4" fill="#BC9A6C"/>
<path d="M59.3438 12.1501C59.3438 12.3064 59.3438 12.4314 59.3438 12.5876C59.3438 16.9314 56.0625 21.9001 50.0312 21.9001C48.1562 21.9001 46.4375 21.3689 45 20.4314C45.25 20.4626 45.5 20.4939 45.7812 20.4939C47.3125 20.4939 48.7188 19.9626 49.8438 19.0876C48.4062 19.0564 47.1875 18.1189 46.7812 16.8064C47 16.8376 47.1875 16.8689 47.4062 16.8689C47.6875 16.8689 48 16.8064 48.25 16.7439C46.75 16.4314 45.625 15.1189 45.625 13.5251V13.4939C46.0625 13.7439 46.5938 13.8689 47.125 13.9001C46.2188 13.3064 45.6562 12.3064 45.6562 11.1814C45.6562 10.5564 45.8125 9.9939 46.0938 9.52515C47.7188 11.4939 50.1562 12.8064 52.875 12.9626C52.8125 12.7126 52.7812 12.4626 52.7812 12.2126C52.7812 10.4001 54.25 8.9314 56.0625 8.9314C57 8.9314 57.8438 9.3064 58.4688 9.96265C59.1875 9.8064 59.9062 9.52515 60.5312 9.15015C60.2812 9.9314 59.7812 10.5564 59.0938 10.9626C59.75 10.9001 60.4062 10.7126 60.9688 10.4626C60.5312 11.1189 59.9688 11.6814 59.3438 12.1501Z" fill="white"/>
</svg>
