<svg width="96" height="16" viewBox="0 0 96 16" fill="none" xmlns="http://www.w3.org/2000/svg">
<path d="M8.275 11.9187L11.425 13.9187C11.8312 14.175 12.3312 13.7937 12.2125 13.325L11.3 9.73748C11.2753 9.63804 11.2792 9.53366 11.3113 9.43635C11.3434 9.33904 11.4023 9.25277 11.4812 9.18748L14.3062 6.83123C14.675 6.52498 14.4875 5.90623 14.0062 5.87498L10.3187 5.63748C10.2181 5.63163 10.1214 5.59659 10.0404 5.53666C9.95935 5.47672 9.89754 5.39448 9.8625 5.29999L8.4875 1.83748C8.4511 1.73742 8.38479 1.65099 8.29758 1.58991C8.21037 1.52883 8.10647 1.49606 8 1.49606C7.89352 1.49606 7.78963 1.52883 7.70241 1.58991C7.6152 1.65099 7.54889 1.73742 7.5125 1.83748L6.1375 5.29999C6.10245 5.39448 6.04064 5.47672 5.95962 5.53666C5.87859 5.59659 5.78186 5.63163 5.68125 5.63748L1.99375 5.87498C1.5125 5.90623 1.325 6.52498 1.69375 6.83123L4.51875 9.18748C4.59771 9.25277 4.65661 9.33904 4.68868 9.43635C4.72075 9.53366 4.72467 9.63804 4.7 9.73748L3.85625 13.0625C3.7125 13.625 4.3125 14.0812 4.79375 13.775L7.725 11.9187C7.8072 11.8665 7.90259 11.8387 8 11.8387C8.09741 11.8387 8.1928 11.8665 8.275 11.9187Z" fill="#BC9A6C"/>
<path d="M28.275 11.9187L31.425 13.9187C31.8312 14.175 32.3312 13.7937 32.2125 13.325L31.3 9.73748C31.2753 9.63804 31.2792 9.53366 31.3113 9.43635C31.3434 9.33904 31.4023 9.25277 31.4812 9.18748L34.3062 6.83123C34.675 6.52498 34.4875 5.90623 34.0062 5.87498L30.3187 5.63748C30.2181 5.63163 30.1214 5.59659 30.0404 5.53666C29.9594 5.47672 29.8975 5.39448 29.8625 5.29999L28.4875 1.83748C28.4511 1.73742 28.3848 1.65099 28.2976 1.58991C28.2104 1.52883 28.1065 1.49606 28 1.49606C27.8935 1.49606 27.7896 1.52883 27.7024 1.58991C27.6152 1.65099 27.5489 1.73742 27.5125 1.83748L26.1375 5.29999C26.1025 5.39448 26.0406 5.47672 25.9596 5.53666C25.8786 5.59659 25.7819 5.63163 25.6812 5.63748L21.9937 5.87498C21.5125 5.90623 21.325 6.52498 21.6937 6.83123L24.5187 9.18748C24.5977 9.25277 24.6566 9.33904 24.6887 9.43635C24.7207 9.53366 24.7247 9.63804 24.7 9.73748L23.8562 13.0625C23.7125 13.625 24.3125 14.0812 24.7937 13.775L27.725 11.9187C27.8072 11.8665 27.9026 11.8387 28 11.8387C28.0974 11.8387 28.1928 11.8665 28.275 11.9187Z" fill="#BC9A6C"/>
<path d="M48.275 11.9187L51.425 13.9187C51.8312 14.175 52.3312 13.7937 52.2125 13.325L51.3 9.73748C51.2753 9.63804 51.2792 9.53366 51.3113 9.43635C51.3434 9.33904 51.4023 9.25277 51.4812 9.18748L54.3062 6.83123C54.675 6.52498 54.4875 5.90623 54.0062 5.87498L50.3187 5.63748C50.2181 5.63163 50.1214 5.59659 50.0404 5.53666C49.9594 5.47672 49.8975 5.39448 49.8625 5.29999L48.4875 1.83748C48.4511 1.73742 48.3848 1.65099 48.2976 1.58991C48.2104 1.52883 48.1065 1.49606 48 1.49606C47.8935 1.49606 47.7896 1.52883 47.7024 1.58991C47.6152 1.65099 47.5489 1.73742 47.5125 1.83748L46.1375 5.29999C46.1025 5.39448 46.0406 5.47672 45.9596 5.53666C45.8786 5.59659 45.7819 5.63163 45.6812 5.63748L41.9937 5.87498C41.5125 5.90623 41.325 6.52498 41.6937 6.83123L44.5187 9.18748C44.5977 9.25277 44.6566 9.33904 44.6887 9.43635C44.7207 9.53366 44.7247 9.63804 44.7 9.73748L43.8562 13.0625C43.7125 13.625 44.3125 14.0812 44.7937 13.775L47.725 11.9187C47.8072 11.8665 47.9026 11.8387 48 11.8387C48.0974 11.8387 48.1928 11.8665 48.275 11.9187Z" fill="#BC9A6C"/>
<path d="M68.275 11.9187L71.425 13.9187C71.8312 14.175 72.3312 13.7937 72.2125 13.325L71.3 9.73748C71.2753 9.63804 71.2792 9.53366 71.3113 9.43635C71.3434 9.33904 71.4023 9.25277 71.4812 9.18748L74.3062 6.83123C74.675 6.52498 74.4875 5.90623 74.0062 5.87498L70.3187 5.63748C70.2181 5.63163 70.1214 5.59659 70.0404 5.53666C69.9594 5.47672 69.8975 5.39448 69.8625 5.29999L68.4875 1.83748C68.4511 1.73742 68.3848 1.65099 68.2976 1.58991C68.2104 1.52883 68.1065 1.49606 68 1.49606C67.8935 1.49606 67.7896 1.52883 67.7024 1.58991C67.6152 1.65099 67.5489 1.73742 67.5125 1.83748L66.1375 5.29999C66.1025 5.39448 66.0406 5.47672 65.9596 5.53666C65.8786 5.59659 65.7819 5.63163 65.6812 5.63748L61.9937 5.87498C61.5125 5.90623 61.325 6.52498 61.6937 6.83123L64.5187 9.18748C64.5977 9.25277 64.6566 9.33904 64.6887 9.43635C64.7207 9.53366 64.7247 9.63804 64.7 9.73748L63.8562 13.0625C63.7125 13.625 64.3125 14.0812 64.7937 13.775L67.725 11.9187C67.8072 11.8665 67.9026 11.8387 68 11.8387C68.0974 11.8387 68.1928 11.8665 68.275 11.9187Z" fill="#BC9A6C"/>
<path d="M88.275 11.9187L91.425 13.9187C91.8312 14.175 92.3312 13.7937 92.2125 13.325L91.3 9.73748C91.2753 9.63804 91.2792 9.53366 91.3113 9.43635C91.3434 9.33904 91.4023 9.25277 91.4812 9.18748L94.3062 6.83123C94.675 6.52498 94.4875 5.90623 94.0062 5.87498L90.3187 5.63748C90.2181 5.63163 90.1214 5.59659 90.0404 5.53666C89.9594 5.47672 89.8975 5.39448 89.8625 5.29999L88.4875 1.83748C88.4511 1.73742 88.3848 1.65099 88.2976 1.58991C88.2104 1.52883 88.1065 1.49606 88 1.49606C87.8935 1.49606 87.7896 1.52883 87.7024 1.58991C87.6152 1.65099 87.5489 1.73742 87.5125 1.83748L86.1375 5.29999C86.1025 5.39448 86.0406 5.47672 85.9596 5.53666C85.8786 5.59659 85.7819 5.63163 85.6812 5.63748L81.9937 5.87498C81.5125 5.90623 81.325 6.52498 81.6937 6.83123L84.5187 9.18748C84.5977 9.25277 84.6566 9.33904 84.6887 9.43635C84.7207 9.53366 84.7247 9.63804 84.7 9.73748L83.8562 13.0625C83.7125 13.625 84.3125 14.0812 84.7937 13.775L87.725 11.9187C87.8072 11.8665 87.9026 11.8387 88 11.8387C88.0974 11.8387 88.1928 11.8665 88.275 11.9187Z" fill="#BC9A6C"/>
</svg>
