<svg width="382" height="142" viewBox="0 0 382 142" fill="none" xmlns="http://www.w3.org/2000/svg">
<path d="M2.4375 8H18.7656V12.0469H7.21875V17.3438H17.3281V21.3438H7.21875V31H2.4375V8ZM29.2812 27.8594C30.5833 27.8594 31.5833 27.3958 32.2812 26.4688C32.9792 25.5417 33.3281 24.224 33.3281 22.5156C33.3281 20.8073 32.9792 19.4948 32.2812 18.5781C31.5833 17.651 30.5833 17.1875 29.2812 17.1875C27.9792 17.1875 26.974 17.651 26.2656 18.5781C25.5677 19.4948 25.2188 20.8073 25.2188 22.5156C25.2188 24.224 25.5677 25.5417 26.2656 26.4688C26.974 27.3958 27.9792 27.8594 29.2812 27.8594ZM38 22.5156C38 25.0156 37.2812 27.1562 35.8438 28.9375C34.4062 30.7083 32.224 31.5938 29.2969 31.5938C26.3698 31.5938 24.1875 30.7083 22.75 28.9375C21.3125 27.1562 20.5938 25.0156 20.5938 22.5156C20.5938 20.0573 21.3125 17.9271 22.75 16.125C24.1875 14.3229 26.3698 13.4219 29.2969 13.4219C32.224 13.4219 34.4062 14.3229 35.8438 16.125C37.2812 17.9271 38 20.0573 38 22.5156ZM48.8438 27.8594C50.1458 27.8594 51.1458 27.3958 51.8438 26.4688C52.5417 25.5417 52.8906 24.224 52.8906 22.5156C52.8906 20.8073 52.5417 19.4948 51.8438 18.5781C51.1458 17.651 50.1458 17.1875 48.8438 17.1875C47.5417 17.1875 46.5365 17.651 45.8281 18.5781C45.1302 19.4948 44.7812 20.8073 44.7812 22.5156C44.7812 24.224 45.1302 25.5417 45.8281 26.4688C46.5365 27.3958 47.5417 27.8594 48.8438 27.8594ZM57.5625 22.5156C57.5625 25.0156 56.8438 27.1562 55.4062 28.9375C53.9688 30.7083 51.7865 31.5938 48.8594 31.5938C45.9323 31.5938 43.75 30.7083 42.3125 28.9375C40.875 27.1562 40.1562 25.0156 40.1562 22.5156C40.1562 20.0573 40.875 17.9271 42.3125 16.125C43.75 14.3229 45.9323 13.4219 48.8594 13.4219C51.7865 13.4219 53.9688 14.3229 55.4062 16.125C56.8438 17.9271 57.5625 20.0573 57.5625 22.5156ZM67.0469 13.5625C68.0781 13.5625 68.9948 13.7917 69.7969 14.25C70.599 14.6979 71.25 15.3229 71.75 16.125V8H76.2656V31H71.9375V28.6406C71.3021 29.651 70.5781 30.3854 69.7656 30.8438C68.9531 31.3021 67.9427 31.5312 66.7344 31.5312C64.7448 31.5312 63.0677 30.7292 61.7031 29.125C60.349 27.5104 59.6719 25.4427 59.6719 22.9219C59.6719 20.0156 60.3385 17.7292 61.6719 16.0625C63.0156 14.3958 64.8073 13.5625 67.0469 13.5625ZM68.0156 27.7812C69.276 27.7812 70.2344 27.3125 70.8906 26.375C71.5469 25.4375 71.875 24.224 71.875 22.7344C71.875 20.651 71.349 19.1615 70.2969 18.2656C69.651 17.724 68.901 17.4531 68.0469 17.4531C66.7448 17.4531 65.7865 17.9479 65.1719 18.9375C64.5677 19.9167 64.2656 21.1354 64.2656 22.5938C64.2656 24.1667 64.5729 25.4271 65.1875 26.375C65.8125 27.3125 66.7552 27.7812 68.0156 27.7812Z" fill="white"/>
<path d="M78.5781 17.2969V14.125H80.9531V9.375H85.3594V14.125H88.125V17.2969H85.3594V26.2969C85.3594 26.9948 85.4479 27.4323 85.625 27.6094C85.8021 27.776 86.3438 27.8594 87.25 27.8594C87.3854 27.8594 87.526 27.8594 87.6719 27.8594C87.8281 27.849 87.9792 27.8385 88.125 27.8281V31.1562L86.0156 31.2344C83.9115 31.3073 82.474 30.9427 81.7031 30.1406C81.2031 29.6302 80.9531 28.8438 80.9531 27.7812V17.2969H78.5781ZM95.4219 13.9688V24.2344C95.4219 25.2031 95.5365 25.9323 95.7656 26.4219C96.1719 27.2865 96.9688 27.7188 98.1562 27.7188C99.6771 27.7188 100.719 27.1042 101.281 25.875C101.573 25.2083 101.719 24.3281 101.719 23.2344V13.9688H106.234V31H101.906V28.5938C101.865 28.6458 101.76 28.8021 101.594 29.0625C101.427 29.3229 101.229 29.5521 101 29.75C100.302 30.375 99.625 30.8021 98.9688 31.0312C98.3229 31.2604 97.5625 31.375 96.6875 31.375C94.1667 31.375 92.4688 30.4688 91.5938 28.6562C91.1042 27.6562 90.8594 26.1823 90.8594 24.2344V13.9688H95.4219ZM120.719 20.0781C120.635 19.4427 120.422 18.8698 120.078 18.3594C119.578 17.6719 118.802 17.3281 117.75 17.3281C116.25 17.3281 115.224 18.0729 114.672 19.5625C114.38 20.3542 114.234 21.4062 114.234 22.7188C114.234 23.9688 114.38 24.974 114.672 25.7344C115.203 27.151 116.203 27.8594 117.672 27.8594C118.714 27.8594 119.453 27.5781 119.891 27.0156C120.328 26.4531 120.594 25.724 120.688 24.8281H125.234C125.13 26.1823 124.641 27.4635 123.766 28.6719C122.37 30.6198 120.302 31.5938 117.562 31.5938C114.823 31.5938 112.807 30.7812 111.516 29.1562C110.224 27.5312 109.578 25.4219 109.578 22.8281C109.578 19.901 110.292 17.625 111.719 16C113.146 14.375 115.115 13.5625 117.625 13.5625C119.76 13.5625 121.505 14.0417 122.859 15C124.224 15.9583 125.031 17.651 125.281 20.0781H120.719ZM128.312 8.04688H132.688V20.4531L138.234 14.0469H143.75L137.797 20.5625L143.984 31H138.609L134.531 23.7188L132.688 25.6406V31H128.312V8.04688Z" fill="#BC9A6C"/>
<path d="M1.37109 70.0889H3.12012V81.4619H9.65918V83H1.37109V70.0889ZM14.915 81.9805C15.9639 81.9805 16.6816 81.585 17.0684 80.7939C17.4609 79.9971 17.6572 79.1123 17.6572 78.1396C17.6572 77.2607 17.5166 76.5459 17.2354 75.9951C16.79 75.1279 16.0225 74.6943 14.9326 74.6943C13.9658 74.6943 13.2627 75.0635 12.8232 75.8018C12.3838 76.54 12.1641 77.4307 12.1641 78.4736C12.1641 79.4756 12.3838 80.3105 12.8232 80.9785C13.2627 81.6465 13.96 81.9805 14.915 81.9805ZM14.9766 73.3145C16.1895 73.3145 17.2148 73.7188 18.0527 74.5273C18.8906 75.3359 19.3096 76.5254 19.3096 78.0957C19.3096 79.6133 18.9404 80.8672 18.2021 81.8574C17.4639 82.8477 16.3184 83.3428 14.7656 83.3428C13.4707 83.3428 12.4424 82.9062 11.6807 82.0332C10.9189 81.1543 10.5381 79.9766 10.5381 78.5C10.5381 76.918 10.9395 75.6582 11.7422 74.7207C12.5449 73.7832 13.623 73.3145 14.9766 73.3145ZM21.2432 73.5869H22.7461V75.2129C22.8691 74.8965 23.1709 74.5127 23.6514 74.0615C24.1318 73.6045 24.6855 73.376 25.3125 73.376C25.3418 73.376 25.3916 73.3789 25.4619 73.3848C25.5322 73.3906 25.6523 73.4023 25.8223 73.4199V75.0898C25.7285 75.0723 25.6406 75.0605 25.5586 75.0547C25.4824 75.0488 25.3975 75.0459 25.3037 75.0459C24.5068 75.0459 23.8945 75.3037 23.4668 75.8193C23.0391 76.3291 22.8252 76.918 22.8252 77.5859V83H21.2432V73.5869ZM31.1133 73.376C31.7812 73.376 32.4287 73.5342 33.0557 73.8506C33.6826 74.1611 34.1602 74.5654 34.4883 75.0635C34.8047 75.5381 35.0156 76.0918 35.1211 76.7246C35.2148 77.1582 35.2617 77.8496 35.2617 78.7988H28.3623C28.3916 79.7539 28.6172 80.5215 29.0391 81.1016C29.4609 81.6758 30.1143 81.9629 30.999 81.9629C31.8252 81.9629 32.4844 81.6904 32.9766 81.1455C33.2578 80.8291 33.457 80.4629 33.5742 80.0469H35.1299C35.0889 80.3926 34.9512 80.7793 34.7168 81.207C34.4883 81.6289 34.2305 81.9746 33.9434 82.2441C33.4629 82.7129 32.8682 83.0293 32.1592 83.1934C31.7783 83.2871 31.3477 83.334 30.8672 83.334C29.6953 83.334 28.7021 82.9092 27.8877 82.0596C27.0732 81.2041 26.666 80.0088 26.666 78.4736C26.666 76.9619 27.0762 75.7344 27.8965 74.791C28.7168 73.8477 29.7891 73.376 31.1133 73.376ZM33.6357 77.542C33.5713 76.8564 33.4219 76.3086 33.1875 75.8984C32.7539 75.1367 32.0303 74.7559 31.0166 74.7559C30.29 74.7559 29.6807 75.0195 29.1885 75.5469C28.6963 76.0684 28.4355 76.7334 28.4062 77.542H33.6357ZM37.2129 73.5869H38.7773V74.9229C39.1523 74.46 39.4922 74.123 39.7969 73.9121C40.3184 73.5547 40.9102 73.376 41.5723 73.376C42.3223 73.376 42.9258 73.5605 43.3828 73.9297C43.6406 74.1406 43.875 74.4512 44.0859 74.8613C44.4375 74.3574 44.8506 73.9854 45.3252 73.7451C45.7998 73.499 46.333 73.376 46.9248 73.376C48.1904 73.376 49.0518 73.833 49.5088 74.7471C49.7549 75.2393 49.8779 75.9014 49.8779 76.7334V83H48.2344V76.4609C48.2344 75.834 48.0762 75.4033 47.7598 75.1689C47.4492 74.9346 47.0684 74.8174 46.6172 74.8174C45.9961 74.8174 45.46 75.0254 45.0088 75.4414C44.5635 75.8574 44.3408 76.5518 44.3408 77.5244V83H42.7324V76.8564C42.7324 76.2178 42.6562 75.752 42.5039 75.459C42.2637 75.0195 41.8154 74.7998 41.1592 74.7998C40.5615 74.7998 40.0166 75.0312 39.5244 75.4941C39.0381 75.957 38.7949 76.7949 38.7949 78.0078V83H37.2129V73.5869ZM57.8232 70.0889H59.5898V83H57.8232V70.0889ZM66.1992 81.9365C66.9375 81.9365 67.5498 81.6289 68.0361 81.0137C68.5283 80.3926 68.7744 79.4668 68.7744 78.2363C68.7744 77.4863 68.666 76.8418 68.4492 76.3027C68.0391 75.2656 67.2891 74.7471 66.1992 74.7471C65.1035 74.7471 64.3535 75.2949 63.9492 76.3906C63.7324 76.9766 63.624 77.7207 63.624 78.623C63.624 79.3496 63.7324 79.9678 63.9492 80.4775C64.3594 81.4502 65.1094 81.9365 66.1992 81.9365ZM62.1035 73.6309H63.6416V74.8789C63.958 74.4512 64.3037 74.1201 64.6787 73.8857C65.2119 73.5342 65.8389 73.3584 66.5596 73.3584C67.626 73.3584 68.5312 73.7686 69.2754 74.5889C70.0195 75.4033 70.3916 76.5693 70.3916 78.0869C70.3916 80.1377 69.8555 81.6025 68.7832 82.4814C68.1035 83.0381 67.3125 83.3164 66.4102 83.3164C65.7012 83.3164 65.1064 83.1611 64.626 82.8506C64.3447 82.6748 64.0312 82.373 63.6855 81.9453V86.7529H62.1035V73.6309ZM73.1865 80.0469C73.2334 80.5742 73.3652 80.9785 73.582 81.2598C73.9805 81.7695 74.6719 82.0244 75.6562 82.0244C76.2422 82.0244 76.7578 81.8984 77.2031 81.6465C77.6484 81.3887 77.8711 80.9932 77.8711 80.46C77.8711 80.0557 77.6924 79.748 77.335 79.5371C77.1064 79.4082 76.6553 79.2588 75.9814 79.0889L74.7246 78.7725C73.9219 78.5732 73.3301 78.3506 72.9492 78.1045C72.2695 77.6768 71.9297 77.085 71.9297 76.3291C71.9297 75.4385 72.249 74.7178 72.8877 74.167C73.5322 73.6162 74.3965 73.3408 75.4805 73.3408C76.8984 73.3408 77.9209 73.7568 78.5479 74.5889C78.9404 75.1162 79.1309 75.6846 79.1191 76.2939H77.625C77.5957 75.9365 77.4697 75.6113 77.2471 75.3184C76.8838 74.9023 76.2539 74.6943 75.3574 74.6943C74.7598 74.6943 74.3057 74.8086 73.9951 75.0371C73.6904 75.2656 73.5381 75.5674 73.5381 75.9424C73.5381 76.3525 73.7402 76.6807 74.1445 76.9268C74.3789 77.0732 74.7246 77.2021 75.1816 77.3135L76.2275 77.5684C77.3643 77.8438 78.126 78.1104 78.5127 78.3682C79.1279 78.7725 79.4355 79.4082 79.4355 80.2754C79.4355 81.1133 79.1162 81.8369 78.4775 82.4463C77.8447 83.0557 76.8779 83.3604 75.5771 83.3604C74.1768 83.3604 73.1836 83.0439 72.5977 82.4111C72.0176 81.7725 71.707 80.9844 71.666 80.0469H73.1865ZM82.8281 73.5869V79.8359C82.8281 80.3164 82.9043 80.709 83.0566 81.0137C83.3379 81.5762 83.8623 81.8574 84.6299 81.8574C85.7314 81.8574 86.4814 81.3652 86.8799 80.3809C87.0967 79.8535 87.2051 79.1299 87.2051 78.21V73.5869H88.7871V83H87.293L87.3105 81.6113C87.1055 81.9688 86.8506 82.2705 86.5459 82.5166C85.9424 83.0088 85.21 83.2549 84.3486 83.2549C83.0068 83.2549 82.0928 82.8066 81.6064 81.9102C81.3428 81.4297 81.2109 80.7881 81.2109 79.9854V73.5869H82.8281ZM91.2656 73.5869H92.8301V74.9229C93.2051 74.46 93.5449 74.123 93.8496 73.9121C94.3711 73.5547 94.9629 73.376 95.625 73.376C96.375 73.376 96.9785 73.5605 97.4355 73.9297C97.6934 74.1406 97.9277 74.4512 98.1387 74.8613C98.4902 74.3574 98.9033 73.9854 99.3779 73.7451C99.8525 73.499 100.386 73.376 100.978 73.376C102.243 73.376 103.104 73.833 103.562 74.7471C103.808 75.2393 103.931 75.9014 103.931 76.7334V83H102.287V76.4609C102.287 75.834 102.129 75.4033 101.812 75.1689C101.502 74.9346 101.121 74.8174 100.67 74.8174C100.049 74.8174 99.5127 75.0254 99.0615 75.4414C98.6162 75.8574 98.3936 76.5518 98.3936 77.5244V83H96.7852V76.8564C96.7852 76.2178 96.709 75.752 96.5566 75.459C96.3164 75.0195 95.8682 74.7998 95.2119 74.7998C94.6143 74.7998 94.0693 75.0312 93.5771 75.4941C93.0908 75.957 92.8477 76.7949 92.8477 78.0078V83H91.2656V73.5869ZM111.27 73.6309H112.878V83H111.27V73.6309ZM111.27 70.0889H112.878V71.8818H111.27V70.0889ZM116.218 80.0469C116.265 80.5742 116.396 80.9785 116.613 81.2598C117.012 81.7695 117.703 82.0244 118.688 82.0244C119.273 82.0244 119.789 81.8984 120.234 81.6465C120.68 81.3887 120.902 80.9932 120.902 80.46C120.902 80.0557 120.724 79.748 120.366 79.5371C120.138 79.4082 119.687 79.2588 119.013 79.0889L117.756 78.7725C116.953 78.5732 116.361 78.3506 115.98 78.1045C115.301 77.6768 114.961 77.085 114.961 76.3291C114.961 75.4385 115.28 74.7178 115.919 74.167C116.563 73.6162 117.428 73.3408 118.512 73.3408C119.93 73.3408 120.952 73.7568 121.579 74.5889C121.972 75.1162 122.162 75.6846 122.15 76.2939H120.656C120.627 75.9365 120.501 75.6113 120.278 75.3184C119.915 74.9023 119.285 74.6943 118.389 74.6943C117.791 74.6943 117.337 74.8086 117.026 75.0371C116.722 75.2656 116.569 75.5674 116.569 75.9424C116.569 76.3525 116.771 76.6807 117.176 76.9268C117.41 77.0732 117.756 77.2021 118.213 77.3135L119.259 77.5684C120.396 77.8438 121.157 78.1104 121.544 78.3682C122.159 78.7725 122.467 79.4082 122.467 80.2754C122.467 81.1133 122.147 81.8369 121.509 82.4463C120.876 83.0557 119.909 83.3604 118.608 83.3604C117.208 83.3604 116.215 83.0439 115.629 82.4111C115.049 81.7725 114.738 80.9844 114.697 80.0469H116.218ZM129.287 73.5869H130.79V74.9229C131.235 74.3721 131.707 73.9766 132.205 73.7363C132.703 73.4961 133.257 73.376 133.866 73.376C135.202 73.376 136.104 73.8418 136.573 74.7734C136.831 75.2832 136.96 76.0127 136.96 76.9619V83H135.352V77.0674C135.352 76.4932 135.267 76.0303 135.097 75.6787C134.815 75.0928 134.306 74.7998 133.567 74.7998C133.192 74.7998 132.885 74.8379 132.645 74.9141C132.211 75.043 131.83 75.3008 131.502 75.6875C131.238 75.998 131.065 76.3203 130.983 76.6543C130.907 76.9824 130.869 77.4541 130.869 78.0693V83H129.287V73.5869ZM143.042 81.9805C144.091 81.9805 144.809 81.585 145.195 80.7939C145.588 79.9971 145.784 79.1123 145.784 78.1396C145.784 77.2607 145.644 76.5459 145.362 75.9951C144.917 75.1279 144.149 74.6943 143.06 74.6943C142.093 74.6943 141.39 75.0635 140.95 75.8018C140.511 76.54 140.291 77.4307 140.291 78.4736C140.291 79.4756 140.511 80.3105 140.95 80.9785C141.39 81.6465 142.087 81.9805 143.042 81.9805ZM143.104 73.3145C144.316 73.3145 145.342 73.7188 146.18 74.5273C147.018 75.3359 147.437 76.5254 147.437 78.0957C147.437 79.6133 147.067 80.8672 146.329 81.8574C145.591 82.8477 144.445 83.3428 142.893 83.3428C141.598 83.3428 140.569 82.9062 139.808 82.0332C139.046 81.1543 138.665 79.9766 138.665 78.5C138.665 76.918 139.066 75.6582 139.869 74.7207C140.672 73.7832 141.75 73.3145 143.104 73.3145ZM149.643 70.959H151.242V73.5869H152.745V74.8789H151.242V81.0225C151.242 81.3506 151.354 81.5703 151.576 81.6816C151.699 81.7461 151.904 81.7783 152.191 81.7783C152.268 81.7783 152.35 81.7783 152.438 81.7783C152.525 81.7725 152.628 81.7637 152.745 81.752V83C152.563 83.0527 152.373 83.0908 152.174 83.1143C151.98 83.1377 151.77 83.1494 151.541 83.1494C150.803 83.1494 150.302 82.9619 150.038 82.5869C149.774 82.2061 149.643 81.7139 149.643 81.1104V74.8789H148.368V73.5869H149.643V70.959ZM160.286 80.0469C160.333 80.5742 160.465 80.9785 160.682 81.2598C161.08 81.7695 161.771 82.0244 162.756 82.0244C163.342 82.0244 163.857 81.8984 164.303 81.6465C164.748 81.3887 164.971 80.9932 164.971 80.46C164.971 80.0557 164.792 79.748 164.435 79.5371C164.206 79.4082 163.755 79.2588 163.081 79.0889L161.824 78.7725C161.021 78.5732 160.43 78.3506 160.049 78.1045C159.369 77.6768 159.029 77.085 159.029 76.3291C159.029 75.4385 159.349 74.7178 159.987 74.167C160.632 73.6162 161.496 73.3408 162.58 73.3408C163.998 73.3408 165.021 73.7568 165.647 74.5889C166.04 75.1162 166.23 75.6846 166.219 76.2939H164.725C164.695 75.9365 164.569 75.6113 164.347 75.3184C163.983 74.9023 163.354 74.6943 162.457 74.6943C161.859 74.6943 161.405 74.8086 161.095 75.0371C160.79 75.2656 160.638 75.5674 160.638 75.9424C160.638 76.3525 160.84 76.6807 161.244 76.9268C161.479 77.0732 161.824 77.2021 162.281 77.3135L163.327 77.5684C164.464 77.8438 165.226 78.1104 165.612 78.3682C166.228 78.7725 166.535 79.4082 166.535 80.2754C166.535 81.1133 166.216 81.8369 165.577 82.4463C164.944 83.0557 163.978 83.3604 162.677 83.3604C161.276 83.3604 160.283 83.0439 159.697 82.4111C159.117 81.7725 158.807 80.9844 158.766 80.0469H160.286ZM168.346 73.6309H169.954V83H168.346V73.6309ZM168.346 70.0889H169.954V71.8818H168.346V70.0889ZM172.354 73.5869H173.918V74.9229C174.293 74.46 174.633 74.123 174.938 73.9121C175.459 73.5547 176.051 73.376 176.713 73.376C177.463 73.376 178.066 73.5605 178.523 73.9297C178.781 74.1406 179.016 74.4512 179.227 74.8613C179.578 74.3574 179.991 73.9854 180.466 73.7451C180.94 73.499 181.474 73.376 182.065 73.376C183.331 73.376 184.192 73.833 184.649 74.7471C184.896 75.2393 185.019 75.9014 185.019 76.7334V83H183.375V76.4609C183.375 75.834 183.217 75.4033 182.9 75.1689C182.59 74.9346 182.209 74.8174 181.758 74.8174C181.137 74.8174 180.601 75.0254 180.149 75.4414C179.704 75.8574 179.481 76.5518 179.481 77.5244V83H177.873V76.8564C177.873 76.2178 177.797 75.752 177.645 75.459C177.404 75.0195 176.956 74.7998 176.3 74.7998C175.702 74.7998 175.157 75.0312 174.665 75.4941C174.179 75.957 173.936 76.7949 173.936 78.0078V83H172.354V73.5869ZM191.32 81.9365C192.059 81.9365 192.671 81.6289 193.157 81.0137C193.649 80.3926 193.896 79.4668 193.896 78.2363C193.896 77.4863 193.787 76.8418 193.57 76.3027C193.16 75.2656 192.41 74.7471 191.32 74.7471C190.225 74.7471 189.475 75.2949 189.07 76.3906C188.854 76.9766 188.745 77.7207 188.745 78.623C188.745 79.3496 188.854 79.9678 189.07 80.4775C189.48 81.4502 190.23 81.9365 191.32 81.9365ZM187.225 73.6309H188.763V74.8789C189.079 74.4512 189.425 74.1201 189.8 73.8857C190.333 73.5342 190.96 73.3584 191.681 73.3584C192.747 73.3584 193.652 73.7686 194.396 74.5889C195.141 75.4033 195.513 76.5693 195.513 78.0869C195.513 80.1377 194.977 81.6025 193.904 82.4814C193.225 83.0381 192.434 83.3164 191.531 83.3164C190.822 83.3164 190.228 83.1611 189.747 82.8506C189.466 82.6748 189.152 82.373 188.807 81.9453V86.7529H187.225V73.6309ZM197.411 70.0889H198.993V83H197.411V70.0889ZM207.255 73.5869H209.004C208.781 74.1904 208.286 75.5674 207.519 77.7178C206.944 79.335 206.464 80.6533 206.077 81.6729C205.163 84.0752 204.519 85.54 204.144 86.0674C203.769 86.5947 203.124 86.8584 202.21 86.8584C201.987 86.8584 201.814 86.8496 201.691 86.832C201.574 86.8145 201.428 86.7822 201.252 86.7354V85.2939C201.527 85.3701 201.727 85.417 201.85 85.4346C201.973 85.4521 202.081 85.4609 202.175 85.4609C202.468 85.4609 202.682 85.4111 202.816 85.3115C202.957 85.2178 203.074 85.1006 203.168 84.96C203.197 84.9131 203.303 84.6729 203.484 84.2393C203.666 83.8057 203.798 83.4834 203.88 83.2725L200.399 73.5869H202.192L204.715 81.251L207.255 73.5869ZM215.429 73.5869H216.932V75.2129C217.055 74.8965 217.356 74.5127 217.837 74.0615C218.317 73.6045 218.871 73.376 219.498 73.376C219.527 73.376 219.577 73.3789 219.647 73.3848C219.718 73.3906 219.838 73.4023 220.008 73.4199V75.0898C219.914 75.0723 219.826 75.0605 219.744 75.0547C219.668 75.0488 219.583 75.0459 219.489 75.0459C218.692 75.0459 218.08 75.3037 217.652 75.8193C217.225 76.3291 217.011 76.918 217.011 77.5859V83H215.429V73.5869ZM222.592 80.4951C222.592 80.9521 222.759 81.3125 223.093 81.5762C223.427 81.8398 223.822 81.9717 224.279 81.9717C224.836 81.9717 225.375 81.8428 225.896 81.585C226.775 81.1572 227.215 80.457 227.215 79.4844V78.21C227.021 78.333 226.772 78.4355 226.468 78.5176C226.163 78.5996 225.864 78.6582 225.571 78.6934L224.613 78.8164C224.039 78.8926 223.608 79.0127 223.321 79.1768C222.835 79.4521 222.592 79.8916 222.592 80.4951ZM226.424 77.2959C226.787 77.249 227.03 77.0967 227.153 76.8389C227.224 76.6982 227.259 76.4961 227.259 76.2324C227.259 75.6934 227.065 75.3037 226.679 75.0635C226.298 74.8174 225.75 74.6943 225.035 74.6943C224.209 74.6943 223.623 74.917 223.277 75.3623C223.084 75.6084 222.958 75.9746 222.899 76.4609H221.423C221.452 75.3008 221.827 74.4951 222.548 74.0439C223.274 73.5869 224.115 73.3584 225.07 73.3584C226.178 73.3584 227.077 73.5693 227.769 73.9912C228.454 74.4131 228.797 75.0693 228.797 75.96V81.3828C228.797 81.5469 228.829 81.6787 228.894 81.7783C228.964 81.8779 229.107 81.9277 229.324 81.9277C229.395 81.9277 229.474 81.9248 229.562 81.9189C229.649 81.9072 229.743 81.8926 229.843 81.875V83.0439C229.597 83.1143 229.409 83.1582 229.28 83.1758C229.151 83.1934 228.976 83.2021 228.753 83.2021C228.208 83.2021 227.812 83.0088 227.566 82.6221C227.438 82.417 227.347 82.127 227.294 81.752C226.972 82.1738 226.509 82.54 225.905 82.8506C225.302 83.1611 224.637 83.3164 223.91 83.3164C223.037 83.3164 222.322 83.0527 221.766 82.5254C221.215 81.9922 220.939 81.3271 220.939 80.5303C220.939 79.6572 221.212 78.9805 221.757 78.5C222.302 78.0195 223.017 77.7236 223.901 77.6123L226.424 77.2959ZM231.398 73.5869H232.901V74.9229C233.347 74.3721 233.818 73.9766 234.316 73.7363C234.814 73.4961 235.368 73.376 235.978 73.376C237.313 73.376 238.216 73.8418 238.685 74.7734C238.942 75.2832 239.071 76.0127 239.071 76.9619V83H237.463V77.0674C237.463 76.4932 237.378 76.0303 237.208 75.6787C236.927 75.0928 236.417 74.7998 235.679 74.7998C235.304 74.7998 234.996 74.8379 234.756 74.9141C234.322 75.043 233.941 75.3008 233.613 75.6875C233.35 75.998 233.177 76.3203 233.095 76.6543C233.019 76.9824 232.98 77.4541 232.98 78.0693V83H231.398V73.5869ZM242.42 78.4033C242.42 79.4111 242.634 80.2549 243.062 80.9346C243.489 81.6143 244.175 81.9541 245.118 81.9541C245.851 81.9541 246.451 81.6406 246.92 81.0137C247.395 80.3809 247.632 79.4756 247.632 78.2979C247.632 77.1084 247.389 76.2295 246.902 75.6611C246.416 75.0869 245.815 74.7998 245.101 74.7998C244.304 74.7998 243.656 75.1045 243.158 75.7139C242.666 76.3232 242.42 77.2197 242.42 78.4033ZM244.802 73.4199C245.522 73.4199 246.126 73.5723 246.612 73.877C246.894 74.0527 247.213 74.3604 247.57 74.7998V70.0449H249.091V83H247.667V81.6904C247.298 82.2705 246.861 82.6895 246.357 82.9473C245.854 83.2051 245.276 83.334 244.626 83.334C243.577 83.334 242.669 82.8945 241.901 82.0156C241.134 81.1309 240.75 79.9561 240.75 78.4912C240.75 77.1201 241.099 75.9336 241.796 74.9316C242.499 73.9238 243.501 73.4199 244.802 73.4199ZM255.173 81.9805C256.222 81.9805 256.939 81.585 257.326 80.7939C257.719 79.9971 257.915 79.1123 257.915 78.1396C257.915 77.2607 257.774 76.5459 257.493 75.9951C257.048 75.1279 256.28 74.6943 255.19 74.6943C254.224 74.6943 253.521 75.0635 253.081 75.8018C252.642 76.54 252.422 77.4307 252.422 78.4736C252.422 79.4756 252.642 80.3105 253.081 80.9785C253.521 81.6465 254.218 81.9805 255.173 81.9805ZM255.234 73.3145C256.447 73.3145 257.473 73.7188 258.311 74.5273C259.148 75.3359 259.567 76.5254 259.567 78.0957C259.567 79.6133 259.198 80.8672 258.46 81.8574C257.722 82.8477 256.576 83.3428 255.023 83.3428C253.729 83.3428 252.7 82.9062 251.938 82.0332C251.177 81.1543 250.796 79.9766 250.796 78.5C250.796 76.918 251.197 75.6582 252 74.7207C252.803 73.7832 253.881 73.3145 255.234 73.3145ZM261.457 73.5869H263.021V74.9229C263.396 74.46 263.736 74.123 264.041 73.9121C264.562 73.5547 265.154 73.376 265.816 73.376C266.566 73.376 267.17 73.5605 267.627 73.9297C267.885 74.1406 268.119 74.4512 268.33 74.8613C268.682 74.3574 269.095 73.9854 269.569 73.7451C270.044 73.499 270.577 73.376 271.169 73.376C272.435 73.376 273.296 73.833 273.753 74.7471C273.999 75.2393 274.122 75.9014 274.122 76.7334V83H272.479V76.4609C272.479 75.834 272.32 75.4033 272.004 75.1689C271.693 74.9346 271.312 74.8174 270.861 74.8174C270.24 74.8174 269.704 75.0254 269.253 75.4414C268.808 75.8574 268.585 76.5518 268.585 77.5244V83H266.977V76.8564C266.977 76.2178 266.9 75.752 266.748 75.459C266.508 75.0195 266.06 74.7998 265.403 74.7998C264.806 74.7998 264.261 75.0312 263.769 75.4941C263.282 75.957 263.039 76.7949 263.039 78.0078V83H261.457V73.5869ZM281.777 70.959H283.377V73.5869H284.88V74.8789H283.377V81.0225C283.377 81.3506 283.488 81.5703 283.711 81.6816C283.834 81.7461 284.039 81.7783 284.326 81.7783C284.402 81.7783 284.484 81.7783 284.572 81.7783C284.66 81.7725 284.763 81.7637 284.88 81.752V83C284.698 83.0527 284.508 83.0908 284.309 83.1143C284.115 83.1377 283.904 83.1494 283.676 83.1494C282.938 83.1494 282.437 82.9619 282.173 82.5869C281.909 82.2061 281.777 81.7139 281.777 81.1104V74.8789H280.503V73.5869H281.777V70.959ZM290.391 73.376C291.059 73.376 291.706 73.5342 292.333 73.8506C292.96 74.1611 293.438 74.5654 293.766 75.0635C294.082 75.5381 294.293 76.0918 294.398 76.7246C294.492 77.1582 294.539 77.8496 294.539 78.7988H287.64C287.669 79.7539 287.895 80.5215 288.316 81.1016C288.738 81.6758 289.392 81.9629 290.276 81.9629C291.103 81.9629 291.762 81.6904 292.254 81.1455C292.535 80.8291 292.734 80.4629 292.852 80.0469H294.407C294.366 80.3926 294.229 80.7793 293.994 81.207C293.766 81.6289 293.508 81.9746 293.221 82.2441C292.74 82.7129 292.146 83.0293 291.437 83.1934C291.056 83.2871 290.625 83.334 290.145 83.334C288.973 83.334 287.979 82.9092 287.165 82.0596C286.351 81.2041 285.943 80.0088 285.943 78.4736C285.943 76.9619 286.354 75.7344 287.174 74.791C287.994 73.8477 289.066 73.376 290.391 73.376ZM292.913 77.542C292.849 76.8564 292.699 76.3086 292.465 75.8984C292.031 75.1367 291.308 74.7559 290.294 74.7559C289.567 74.7559 288.958 75.0195 288.466 75.5469C287.974 76.0684 287.713 76.7334 287.684 77.542H292.913ZM295.594 73.5869H297.642L299.804 76.9004L301.992 73.5869L303.917 73.6309L300.744 78.1748L304.058 83H302.036L299.698 79.4668L297.431 83H295.427L298.74 78.1748L295.594 73.5869ZM305.807 70.959H307.406V73.5869H308.909V74.8789H307.406V81.0225C307.406 81.3506 307.518 81.5703 307.74 81.6816C307.863 81.7461 308.068 81.7783 308.355 81.7783C308.432 81.7783 308.514 81.7783 308.602 81.7783C308.689 81.7725 308.792 81.7637 308.909 81.752V83C308.728 83.0527 308.537 83.0908 308.338 83.1143C308.145 83.1377 307.934 83.1494 307.705 83.1494C306.967 83.1494 306.466 82.9619 306.202 82.5869C305.938 82.2061 305.807 81.7139 305.807 81.1104V74.8789H304.532V73.5869H305.807V70.959ZM310.878 81.084H312.715V83H310.878V81.084ZM321.126 70.0889H322.893V83H321.126V70.0889ZM325.846 70.959H327.445V73.5869H328.948V74.8789H327.445V81.0225C327.445 81.3506 327.557 81.5703 327.779 81.6816C327.902 81.7461 328.107 81.7783 328.395 81.7783C328.471 81.7783 328.553 81.7783 328.641 81.7783C328.729 81.7725 328.831 81.7637 328.948 81.752V83C328.767 83.0527 328.576 83.0908 328.377 83.1143C328.184 83.1377 327.973 83.1494 327.744 83.1494C327.006 83.1494 326.505 82.9619 326.241 82.5869C325.978 82.2061 325.846 81.7139 325.846 81.1104V74.8789H324.571V73.5869H325.846V70.959ZM335.549 70.0449H337.131V74.8613C337.506 74.3867 337.843 74.0527 338.142 73.8594C338.651 73.5254 339.287 73.3584 340.049 73.3584C341.414 73.3584 342.34 73.8359 342.826 74.791C343.09 75.3125 343.222 76.0361 343.222 76.9619V83H341.596V77.0674C341.596 76.376 341.508 75.8691 341.332 75.5469C341.045 75.0312 340.506 74.7734 339.715 74.7734C339.059 74.7734 338.464 74.999 337.931 75.4502C337.397 75.9014 337.131 76.7539 337.131 78.0078V83H335.549V70.0449ZM346.781 80.4951C346.781 80.9521 346.948 81.3125 347.282 81.5762C347.616 81.8398 348.012 81.9717 348.469 81.9717C349.025 81.9717 349.564 81.8428 350.086 81.585C350.965 81.1572 351.404 80.457 351.404 79.4844V78.21C351.211 78.333 350.962 78.4355 350.657 78.5176C350.353 78.5996 350.054 78.6582 349.761 78.6934L348.803 78.8164C348.229 78.8926 347.798 79.0127 347.511 79.1768C347.024 79.4521 346.781 79.8916 346.781 80.4951ZM350.613 77.2959C350.977 77.249 351.22 77.0967 351.343 76.8389C351.413 76.6982 351.448 76.4961 351.448 76.2324C351.448 75.6934 351.255 75.3037 350.868 75.0635C350.487 74.8174 349.939 74.6943 349.225 74.6943C348.398 74.6943 347.812 74.917 347.467 75.3623C347.273 75.6084 347.147 75.9746 347.089 76.4609H345.612C345.642 75.3008 346.017 74.4951 346.737 74.0439C347.464 73.5869 348.305 73.3584 349.26 73.3584C350.367 73.3584 351.267 73.5693 351.958 73.9912C352.644 74.4131 352.986 75.0693 352.986 75.96V81.3828C352.986 81.5469 353.019 81.6787 353.083 81.7783C353.153 81.8779 353.297 81.9277 353.514 81.9277C353.584 81.9277 353.663 81.9248 353.751 81.9189C353.839 81.9072 353.933 81.8926 354.032 81.875V83.0439C353.786 83.1143 353.599 83.1582 353.47 83.1758C353.341 83.1934 353.165 83.2021 352.942 83.2021C352.397 83.2021 352.002 83.0088 351.756 82.6221C351.627 82.417 351.536 82.127 351.483 81.752C351.161 82.1738 350.698 82.54 350.095 82.8506C349.491 83.1611 348.826 83.3164 348.1 83.3164C347.227 83.3164 346.512 83.0527 345.955 82.5254C345.404 81.9922 345.129 81.3271 345.129 80.5303C345.129 79.6572 345.401 78.9805 345.946 78.5C346.491 78.0195 347.206 77.7236 348.091 77.6123L350.613 77.2959ZM356.528 80.0469C356.575 80.5742 356.707 80.9785 356.924 81.2598C357.322 81.7695 358.014 82.0244 358.998 82.0244C359.584 82.0244 360.1 81.8984 360.545 81.6465C360.99 81.3887 361.213 80.9932 361.213 80.46C361.213 80.0557 361.034 79.748 360.677 79.5371C360.448 79.4082 359.997 79.2588 359.323 79.0889L358.066 78.7725C357.264 78.5732 356.672 78.3506 356.291 78.1045C355.611 77.6768 355.271 77.085 355.271 76.3291C355.271 75.4385 355.591 74.7178 356.229 74.167C356.874 73.6162 357.738 73.3408 358.822 73.3408C360.24 73.3408 361.263 73.7568 361.89 74.5889C362.282 75.1162 362.473 75.6846 362.461 76.2939H360.967C360.938 75.9365 360.812 75.6113 360.589 75.3184C360.226 74.9023 359.596 74.6943 358.699 74.6943C358.102 74.6943 357.647 74.8086 357.337 75.0371C357.032 75.2656 356.88 75.5674 356.88 75.9424C356.88 76.3525 357.082 76.6807 357.486 76.9268C357.721 77.0732 358.066 77.2021 358.523 77.3135L359.569 77.5684C360.706 77.8438 361.468 78.1104 361.854 78.3682C362.47 78.7725 362.777 79.4082 362.777 80.2754C362.777 81.1133 362.458 81.8369 361.819 82.4463C361.187 83.0557 360.22 83.3604 358.919 83.3604C357.519 83.3604 356.525 83.0439 355.939 82.4111C355.359 81.7725 355.049 80.9844 355.008 80.0469H356.528ZM1.2041 99.5869H2.70703V101.213C2.83008 100.896 3.13184 100.513 3.6123 100.062C4.09277 99.6045 4.64648 99.376 5.27344 99.376C5.30273 99.376 5.35254 99.3789 5.42285 99.3848C5.49316 99.3906 5.61328 99.4023 5.7832 99.4199V101.09C5.68945 101.072 5.60156 101.061 5.51953 101.055C5.44336 101.049 5.3584 101.046 5.26465 101.046C4.46777 101.046 3.85547 101.304 3.42773 101.819C3 102.329 2.78613 102.918 2.78613 103.586V109H1.2041V99.5869ZM10.8896 107.98C11.9385 107.98 12.6562 107.585 13.043 106.794C13.4355 105.997 13.6318 105.112 13.6318 104.14C13.6318 103.261 13.4912 102.546 13.21 101.995C12.7646 101.128 11.9971 100.694 10.9072 100.694C9.94043 100.694 9.2373 101.063 8.79785 101.802C8.3584 102.54 8.13867 103.431 8.13867 104.474C8.13867 105.476 8.3584 106.311 8.79785 106.979C9.2373 107.646 9.93457 107.98 10.8896 107.98ZM10.9512 99.3145C12.1641 99.3145 13.1895 99.7188 14.0273 100.527C14.8652 101.336 15.2842 102.525 15.2842 104.096C15.2842 105.613 14.915 106.867 14.1768 107.857C13.4385 108.848 12.293 109.343 10.7402 109.343C9.44531 109.343 8.41699 108.906 7.65527 108.033C6.89355 107.154 6.5127 105.977 6.5127 104.5C6.5127 102.918 6.91406 101.658 7.7168 100.721C8.51953 99.7832 9.59766 99.3145 10.9512 99.3145ZM20.9092 107.98C21.958 107.98 22.6758 107.585 23.0625 106.794C23.4551 105.997 23.6514 105.112 23.6514 104.14C23.6514 103.261 23.5107 102.546 23.2295 101.995C22.7842 101.128 22.0166 100.694 20.9268 100.694C19.96 100.694 19.2568 101.063 18.8174 101.802C18.3779 102.54 18.1582 103.431 18.1582 104.474C18.1582 105.476 18.3779 106.311 18.8174 106.979C19.2568 107.646 19.9541 107.98 20.9092 107.98ZM20.9707 99.3145C22.1836 99.3145 23.209 99.7188 24.0469 100.527C24.8848 101.336 25.3037 102.525 25.3037 104.096C25.3037 105.613 24.9346 106.867 24.1963 107.857C23.458 108.848 22.3125 109.343 20.7598 109.343C19.4648 109.343 18.4365 108.906 17.6748 108.033C16.9131 107.154 16.5322 105.977 16.5322 104.5C16.5322 102.918 16.9336 101.658 17.7363 100.721C18.5391 99.7832 19.6172 99.3145 20.9707 99.3145ZM27.5098 96.959H29.1094V99.5869H30.6123V100.879H29.1094V107.022C29.1094 107.351 29.2207 107.57 29.4434 107.682C29.5664 107.746 29.7715 107.778 30.0586 107.778C30.1348 107.778 30.2168 107.778 30.3047 107.778C30.3926 107.772 30.4951 107.764 30.6123 107.752V109C30.4307 109.053 30.2402 109.091 30.041 109.114C29.8477 109.138 29.6367 109.149 29.4082 109.149C28.6699 109.149 28.1689 108.962 27.9053 108.587C27.6416 108.206 27.5098 107.714 27.5098 107.11V100.879H26.2354V99.5869H27.5098V96.959ZM33.1436 106.047C33.1904 106.574 33.3223 106.979 33.5391 107.26C33.9375 107.77 34.6289 108.024 35.6133 108.024C36.1992 108.024 36.7148 107.898 37.1602 107.646C37.6055 107.389 37.8281 106.993 37.8281 106.46C37.8281 106.056 37.6494 105.748 37.292 105.537C37.0635 105.408 36.6123 105.259 35.9385 105.089L34.6816 104.772C33.8789 104.573 33.2871 104.351 32.9062 104.104C32.2266 103.677 31.8867 103.085 31.8867 102.329C31.8867 101.438 32.2061 100.718 32.8447 100.167C33.4893 99.6162 34.3535 99.3408 35.4375 99.3408C36.8555 99.3408 37.8779 99.7568 38.5049 100.589C38.8975 101.116 39.0879 101.685 39.0762 102.294H37.582C37.5527 101.937 37.4268 101.611 37.2041 101.318C36.8408 100.902 36.2109 100.694 35.3145 100.694C34.7168 100.694 34.2627 100.809 33.9521 101.037C33.6475 101.266 33.4951 101.567 33.4951 101.942C33.4951 102.353 33.6973 102.681 34.1016 102.927C34.3359 103.073 34.6816 103.202 35.1387 103.313L36.1846 103.568C37.3213 103.844 38.083 104.11 38.4697 104.368C39.085 104.772 39.3926 105.408 39.3926 106.275C39.3926 107.113 39.0732 107.837 38.4346 108.446C37.8018 109.056 36.835 109.36 35.5342 109.36C34.1338 109.36 33.1406 109.044 32.5547 108.411C31.9746 107.772 31.6641 106.984 31.623 106.047H33.1436ZM46.2129 99.6309H47.8213V109H46.2129V99.6309ZM46.2129 96.0889H47.8213V97.8818H46.2129V96.0889ZM50.2207 99.5869H51.7236V100.923C52.1689 100.372 52.6406 99.9766 53.1387 99.7363C53.6367 99.4961 54.1904 99.376 54.7998 99.376C56.1357 99.376 57.0381 99.8418 57.5068 100.773C57.7646 101.283 57.8936 102.013 57.8936 102.962V109H56.2852V103.067C56.2852 102.493 56.2002 102.03 56.0303 101.679C55.749 101.093 55.2393 100.8 54.501 100.8C54.126 100.8 53.8184 100.838 53.5781 100.914C53.1445 101.043 52.7637 101.301 52.4355 101.688C52.1719 101.998 51.999 102.32 51.917 102.654C51.8408 102.982 51.8027 103.454 51.8027 104.069V109H50.2207V99.5869ZM66.4629 106.495C66.4629 106.952 66.6299 107.312 66.9639 107.576C67.2979 107.84 67.6934 107.972 68.1504 107.972C68.707 107.972 69.2461 107.843 69.7676 107.585C70.6465 107.157 71.0859 106.457 71.0859 105.484V104.21C70.8926 104.333 70.6436 104.436 70.3389 104.518C70.0342 104.6 69.7354 104.658 69.4424 104.693L68.4844 104.816C67.9102 104.893 67.4795 105.013 67.1924 105.177C66.7061 105.452 66.4629 105.892 66.4629 106.495ZM70.2949 103.296C70.6582 103.249 70.9014 103.097 71.0244 102.839C71.0947 102.698 71.1299 102.496 71.1299 102.232C71.1299 101.693 70.9365 101.304 70.5498 101.063C70.1689 100.817 69.6211 100.694 68.9062 100.694C68.0801 100.694 67.4941 100.917 67.1484 101.362C66.9551 101.608 66.8291 101.975 66.7705 102.461H65.2939C65.3232 101.301 65.6982 100.495 66.4189 100.044C67.1455 99.5869 67.9863 99.3584 68.9414 99.3584C70.0488 99.3584 70.9482 99.5693 71.6396 99.9912C72.3252 100.413 72.668 101.069 72.668 101.96V107.383C72.668 107.547 72.7002 107.679 72.7646 107.778C72.835 107.878 72.9785 107.928 73.1953 107.928C73.2656 107.928 73.3447 107.925 73.4326 107.919C73.5205 107.907 73.6143 107.893 73.7139 107.875V109.044C73.4678 109.114 73.2803 109.158 73.1514 109.176C73.0225 109.193 72.8467 109.202 72.624 109.202C72.0791 109.202 71.6836 109.009 71.4375 108.622C71.3086 108.417 71.2178 108.127 71.165 107.752C70.8428 108.174 70.3799 108.54 69.7764 108.851C69.1729 109.161 68.5078 109.316 67.7812 109.316C66.9082 109.316 66.1934 109.053 65.6367 108.525C65.0859 107.992 64.8105 107.327 64.8105 106.53C64.8105 105.657 65.083 104.98 65.6279 104.5C66.1729 104.02 66.8877 103.724 67.7725 103.612L70.2949 103.296ZM84.252 107.937C84.9902 107.937 85.6025 107.629 86.0889 107.014C86.5811 106.393 86.8271 105.467 86.8271 104.236C86.8271 103.486 86.7188 102.842 86.502 102.303C86.0918 101.266 85.3418 100.747 84.252 100.747C83.1562 100.747 82.4062 101.295 82.002 102.391C81.7852 102.977 81.6768 103.721 81.6768 104.623C81.6768 105.35 81.7852 105.968 82.002 106.478C82.4121 107.45 83.1621 107.937 84.252 107.937ZM80.1562 99.6309H81.6943V100.879C82.0107 100.451 82.3564 100.12 82.7314 99.8857C83.2646 99.5342 83.8916 99.3584 84.6123 99.3584C85.6787 99.3584 86.584 99.7686 87.3281 100.589C88.0723 101.403 88.4443 102.569 88.4443 104.087C88.4443 106.138 87.9082 107.603 86.8359 108.481C86.1562 109.038 85.3652 109.316 84.4629 109.316C83.7539 109.316 83.1592 109.161 82.6787 108.851C82.3975 108.675 82.084 108.373 81.7383 107.945V112.753H80.1562V99.6309ZM90.2988 99.6309H91.9072V109H90.2988V99.6309ZM90.2988 96.0889H91.9072V97.8818H90.2988V96.0889ZM98.2266 99.376C98.8945 99.376 99.542 99.5342 100.169 99.8506C100.796 100.161 101.273 100.565 101.602 101.063C101.918 101.538 102.129 102.092 102.234 102.725C102.328 103.158 102.375 103.85 102.375 104.799H95.4756C95.5049 105.754 95.7305 106.521 96.1523 107.102C96.5742 107.676 97.2275 107.963 98.1123 107.963C98.9385 107.963 99.5977 107.69 100.09 107.146C100.371 106.829 100.57 106.463 100.688 106.047H102.243C102.202 106.393 102.064 106.779 101.83 107.207C101.602 107.629 101.344 107.975 101.057 108.244C100.576 108.713 99.9814 109.029 99.2725 109.193C98.8916 109.287 98.4609 109.334 97.9805 109.334C96.8086 109.334 95.8154 108.909 95.001 108.06C94.1865 107.204 93.7793 106.009 93.7793 104.474C93.7793 102.962 94.1895 101.734 95.0098 100.791C95.8301 99.8477 96.9023 99.376 98.2266 99.376ZM100.749 103.542C100.685 102.856 100.535 102.309 100.301 101.898C99.8672 101.137 99.1436 100.756 98.1299 100.756C97.4033 100.756 96.7939 101.02 96.3018 101.547C95.8096 102.068 95.5488 102.733 95.5195 103.542H100.749ZM107.956 99.3145C109.017 99.3145 109.878 99.5723 110.54 100.088C111.208 100.604 111.609 101.491 111.744 102.751H110.206C110.112 102.171 109.898 101.69 109.564 101.31C109.23 100.923 108.694 100.729 107.956 100.729C106.948 100.729 106.228 101.222 105.794 102.206C105.513 102.845 105.372 103.633 105.372 104.57C105.372 105.514 105.571 106.308 105.97 106.952C106.368 107.597 106.995 107.919 107.851 107.919C108.507 107.919 109.025 107.72 109.406 107.321C109.793 106.917 110.06 106.366 110.206 105.669H111.744C111.568 106.917 111.129 107.831 110.426 108.411C109.723 108.985 108.823 109.272 107.728 109.272C106.497 109.272 105.516 108.824 104.783 107.928C104.051 107.025 103.685 105.9 103.685 104.553C103.685 102.9 104.086 101.614 104.889 100.694C105.691 99.7744 106.714 99.3145 107.956 99.3145ZM117.246 99.376C117.914 99.376 118.562 99.5342 119.188 99.8506C119.815 100.161 120.293 100.565 120.621 101.063C120.938 101.538 121.148 102.092 121.254 102.725C121.348 103.158 121.395 103.85 121.395 104.799H114.495C114.524 105.754 114.75 106.521 115.172 107.102C115.594 107.676 116.247 107.963 117.132 107.963C117.958 107.963 118.617 107.69 119.109 107.146C119.391 106.829 119.59 106.463 119.707 106.047H121.263C121.222 106.393 121.084 106.779 120.85 107.207C120.621 107.629 120.363 107.975 120.076 108.244C119.596 108.713 119.001 109.029 118.292 109.193C117.911 109.287 117.48 109.334 117 109.334C115.828 109.334 114.835 108.909 114.021 108.06C113.206 107.204 112.799 106.009 112.799 104.474C112.799 102.962 113.209 101.734 114.029 100.791C114.85 99.8477 115.922 99.376 117.246 99.376ZM119.769 103.542C119.704 102.856 119.555 102.309 119.32 101.898C118.887 101.137 118.163 100.756 117.149 100.756C116.423 100.756 115.813 101.02 115.321 101.547C114.829 102.068 114.568 102.733 114.539 103.542H119.769ZM132.091 107.98C133.14 107.98 133.857 107.585 134.244 106.794C134.637 105.997 134.833 105.112 134.833 104.14C134.833 103.261 134.692 102.546 134.411 101.995C133.966 101.128 133.198 100.694 132.108 100.694C131.142 100.694 130.438 101.063 129.999 101.802C129.56 102.54 129.34 103.431 129.34 104.474C129.34 105.476 129.56 106.311 129.999 106.979C130.438 107.646 131.136 107.98 132.091 107.98ZM132.152 99.3145C133.365 99.3145 134.391 99.7188 135.229 100.527C136.066 101.336 136.485 102.525 136.485 104.096C136.485 105.613 136.116 106.867 135.378 107.857C134.64 108.848 133.494 109.343 131.941 109.343C130.646 109.343 129.618 108.906 128.856 108.033C128.095 107.154 127.714 105.977 127.714 104.5C127.714 102.918 128.115 101.658 128.918 100.721C129.721 99.7832 130.799 99.3145 132.152 99.3145ZM138.771 98.1543C138.794 97.498 138.908 97.0176 139.113 96.7129C139.482 96.1738 140.194 95.9043 141.249 95.9043C141.349 95.9043 141.451 95.9072 141.557 95.9131C141.662 95.9189 141.782 95.9277 141.917 95.9395V97.3809C141.753 97.3691 141.633 97.3633 141.557 97.3633C141.486 97.3574 141.419 97.3545 141.354 97.3545C140.874 97.3545 140.587 97.4805 140.493 97.7324C140.399 97.9785 140.353 98.6113 140.353 99.6309H141.917V100.879H140.335V109H138.771V100.879H137.461V99.6309H138.771V98.1543ZM152.024 99.3145C153.085 99.3145 153.946 99.5723 154.608 100.088C155.276 100.604 155.678 101.491 155.812 102.751H154.274C154.181 102.171 153.967 101.69 153.633 101.31C153.299 100.923 152.763 100.729 152.024 100.729C151.017 100.729 150.296 101.222 149.862 102.206C149.581 102.845 149.44 103.633 149.44 104.57C149.44 105.514 149.64 106.308 150.038 106.952C150.437 107.597 151.063 107.919 151.919 107.919C152.575 107.919 153.094 107.72 153.475 107.321C153.861 106.917 154.128 106.366 154.274 105.669H155.812C155.637 106.917 155.197 107.831 154.494 108.411C153.791 108.985 152.892 109.272 151.796 109.272C150.565 109.272 149.584 108.824 148.852 107.928C148.119 107.025 147.753 105.9 147.753 104.553C147.753 102.9 148.154 101.614 148.957 100.694C149.76 99.7744 150.782 99.3145 152.024 99.3145ZM157.438 96.0889H159.021V109H157.438V96.0889ZM162.615 106.495C162.615 106.952 162.782 107.312 163.116 107.576C163.45 107.84 163.846 107.972 164.303 107.972C164.859 107.972 165.398 107.843 165.92 107.585C166.799 107.157 167.238 106.457 167.238 105.484V104.21C167.045 104.333 166.796 104.436 166.491 104.518C166.187 104.6 165.888 104.658 165.595 104.693L164.637 104.816C164.062 104.893 163.632 105.013 163.345 105.177C162.858 105.452 162.615 105.892 162.615 106.495ZM166.447 103.296C166.811 103.249 167.054 103.097 167.177 102.839C167.247 102.698 167.282 102.496 167.282 102.232C167.282 101.693 167.089 101.304 166.702 101.063C166.321 100.817 165.773 100.694 165.059 100.694C164.232 100.694 163.646 100.917 163.301 101.362C163.107 101.608 162.981 101.975 162.923 102.461H161.446C161.476 101.301 161.851 100.495 162.571 100.044C163.298 99.5869 164.139 99.3584 165.094 99.3584C166.201 99.3584 167.101 99.5693 167.792 99.9912C168.478 100.413 168.82 101.069 168.82 101.96V107.383C168.82 107.547 168.853 107.679 168.917 107.778C168.987 107.878 169.131 107.928 169.348 107.928C169.418 107.928 169.497 107.925 169.585 107.919C169.673 107.907 169.767 107.893 169.866 107.875V109.044C169.62 109.114 169.433 109.158 169.304 109.176C169.175 109.193 168.999 109.202 168.776 109.202C168.231 109.202 167.836 109.009 167.59 108.622C167.461 108.417 167.37 108.127 167.317 107.752C166.995 108.174 166.532 108.54 165.929 108.851C165.325 109.161 164.66 109.316 163.934 109.316C163.061 109.316 162.346 109.053 161.789 108.525C161.238 107.992 160.963 107.327 160.963 106.53C160.963 105.657 161.235 104.98 161.78 104.5C162.325 104.02 163.04 103.724 163.925 103.612L166.447 103.296ZM172.362 106.047C172.409 106.574 172.541 106.979 172.758 107.26C173.156 107.77 173.848 108.024 174.832 108.024C175.418 108.024 175.934 107.898 176.379 107.646C176.824 107.389 177.047 106.993 177.047 106.46C177.047 106.056 176.868 105.748 176.511 105.537C176.282 105.408 175.831 105.259 175.157 105.089L173.9 104.772C173.098 104.573 172.506 104.351 172.125 104.104C171.445 103.677 171.105 103.085 171.105 102.329C171.105 101.438 171.425 100.718 172.063 100.167C172.708 99.6162 173.572 99.3408 174.656 99.3408C176.074 99.3408 177.097 99.7568 177.724 100.589C178.116 101.116 178.307 101.685 178.295 102.294H176.801C176.771 101.937 176.646 101.611 176.423 101.318C176.06 100.902 175.43 100.694 174.533 100.694C173.936 100.694 173.481 100.809 173.171 101.037C172.866 101.266 172.714 101.567 172.714 101.942C172.714 102.353 172.916 102.681 173.32 102.927C173.555 103.073 173.9 103.202 174.357 103.313L175.403 103.568C176.54 103.844 177.302 104.11 177.688 104.368C178.304 104.772 178.611 105.408 178.611 106.275C178.611 107.113 178.292 107.837 177.653 108.446C177.021 109.056 176.054 109.36 174.753 109.36C173.353 109.36 172.359 109.044 171.773 108.411C171.193 107.772 170.883 106.984 170.842 106.047H172.362ZM181.362 106.047C181.409 106.574 181.541 106.979 181.758 107.26C182.156 107.77 182.848 108.024 183.832 108.024C184.418 108.024 184.934 107.898 185.379 107.646C185.824 107.389 186.047 106.993 186.047 106.46C186.047 106.056 185.868 105.748 185.511 105.537C185.282 105.408 184.831 105.259 184.157 105.089L182.9 104.772C182.098 104.573 181.506 104.351 181.125 104.104C180.445 103.677 180.105 103.085 180.105 102.329C180.105 101.438 180.425 100.718 181.063 100.167C181.708 99.6162 182.572 99.3408 183.656 99.3408C185.074 99.3408 186.097 99.7568 186.724 100.589C187.116 101.116 187.307 101.685 187.295 102.294H185.801C185.771 101.937 185.646 101.611 185.423 101.318C185.06 100.902 184.43 100.694 183.533 100.694C182.936 100.694 182.481 100.809 182.171 101.037C181.866 101.266 181.714 101.567 181.714 101.942C181.714 102.353 181.916 102.681 182.32 102.927C182.555 103.073 182.9 103.202 183.357 103.313L184.403 103.568C185.54 103.844 186.302 104.11 186.688 104.368C187.304 104.772 187.611 105.408 187.611 106.275C187.611 107.113 187.292 107.837 186.653 108.446C186.021 109.056 185.054 109.36 183.753 109.36C182.353 109.36 181.359 109.044 180.773 108.411C180.193 107.772 179.883 106.984 179.842 106.047H181.362ZM189.422 99.6309H191.03V109H189.422V99.6309ZM189.422 96.0889H191.03V97.8818H189.422V96.0889ZM197.06 99.3145C198.12 99.3145 198.981 99.5723 199.644 100.088C200.312 100.604 200.713 101.491 200.848 102.751H199.31C199.216 102.171 199.002 101.69 198.668 101.31C198.334 100.923 197.798 100.729 197.06 100.729C196.052 100.729 195.331 101.222 194.897 102.206C194.616 102.845 194.476 103.633 194.476 104.57C194.476 105.514 194.675 106.308 195.073 106.952C195.472 107.597 196.099 107.919 196.954 107.919C197.61 107.919 198.129 107.72 198.51 107.321C198.896 106.917 199.163 106.366 199.31 105.669H200.848C200.672 106.917 200.232 107.831 199.529 108.411C198.826 108.985 197.927 109.272 196.831 109.272C195.601 109.272 194.619 108.824 193.887 107.928C193.154 107.025 192.788 105.9 192.788 104.553C192.788 102.9 193.189 101.614 193.992 100.694C194.795 99.7744 195.817 99.3145 197.06 99.3145ZM203.643 106.495C203.643 106.952 203.81 107.312 204.144 107.576C204.478 107.84 204.873 107.972 205.33 107.972C205.887 107.972 206.426 107.843 206.947 107.585C207.826 107.157 208.266 106.457 208.266 105.484V104.21C208.072 104.333 207.823 104.436 207.519 104.518C207.214 104.6 206.915 104.658 206.622 104.693L205.664 104.816C205.09 104.893 204.659 105.013 204.372 105.177C203.886 105.452 203.643 105.892 203.643 106.495ZM207.475 103.296C207.838 103.249 208.081 103.097 208.204 102.839C208.274 102.698 208.31 102.496 208.31 102.232C208.31 101.693 208.116 101.304 207.729 101.063C207.349 100.817 206.801 100.694 206.086 100.694C205.26 100.694 204.674 100.917 204.328 101.362C204.135 101.608 204.009 101.975 203.95 102.461H202.474C202.503 101.301 202.878 100.495 203.599 100.044C204.325 99.5869 205.166 99.3584 206.121 99.3584C207.229 99.3584 208.128 99.5693 208.819 99.9912C209.505 100.413 209.848 101.069 209.848 101.96V107.383C209.848 107.547 209.88 107.679 209.944 107.778C210.015 107.878 210.158 107.928 210.375 107.928C210.445 107.928 210.524 107.925 210.612 107.919C210.7 107.907 210.794 107.893 210.894 107.875V109.044C210.647 109.114 210.46 109.158 210.331 109.176C210.202 109.193 210.026 109.202 209.804 109.202C209.259 109.202 208.863 109.009 208.617 108.622C208.488 108.417 208.397 108.127 208.345 107.752C208.022 108.174 207.56 108.54 206.956 108.851C206.353 109.161 205.688 109.316 204.961 109.316C204.088 109.316 203.373 109.053 202.816 108.525C202.266 107.992 201.99 107.327 201.99 106.53C201.99 105.657 202.263 104.98 202.808 104.5C203.353 104.02 204.067 103.724 204.952 103.612L207.475 103.296ZM212.493 96.0889H214.075V109H212.493V96.0889ZM221.678 96.0889H223.427V107.462H229.966V109H221.678V96.0889ZM232.699 106.495C232.699 106.952 232.866 107.312 233.2 107.576C233.534 107.84 233.93 107.972 234.387 107.972C234.943 107.972 235.482 107.843 236.004 107.585C236.883 107.157 237.322 106.457 237.322 105.484V104.21C237.129 104.333 236.88 104.436 236.575 104.518C236.271 104.6 235.972 104.658 235.679 104.693L234.721 104.816C234.146 104.893 233.716 105.013 233.429 105.177C232.942 105.452 232.699 105.892 232.699 106.495ZM236.531 103.296C236.895 103.249 237.138 103.097 237.261 102.839C237.331 102.698 237.366 102.496 237.366 102.232C237.366 101.693 237.173 101.304 236.786 101.063C236.405 100.817 235.857 100.694 235.143 100.694C234.316 100.694 233.73 100.917 233.385 101.362C233.191 101.608 233.065 101.975 233.007 102.461H231.53C231.56 101.301 231.935 100.495 232.655 100.044C233.382 99.5869 234.223 99.3584 235.178 99.3584C236.285 99.3584 237.185 99.5693 237.876 99.9912C238.562 100.413 238.904 101.069 238.904 101.96V107.383C238.904 107.547 238.937 107.679 239.001 107.778C239.071 107.878 239.215 107.928 239.432 107.928C239.502 107.928 239.581 107.925 239.669 107.919C239.757 107.907 239.851 107.893 239.95 107.875V109.044C239.704 109.114 239.517 109.158 239.388 109.176C239.259 109.193 239.083 109.202 238.86 109.202C238.315 109.202 237.92 109.009 237.674 108.622C237.545 108.417 237.454 108.127 237.401 107.752C237.079 108.174 236.616 108.54 236.013 108.851C235.409 109.161 234.744 109.316 234.018 109.316C233.145 109.316 232.43 109.053 231.873 108.525C231.322 107.992 231.047 107.327 231.047 106.53C231.047 105.657 231.319 104.98 231.864 104.5C232.409 104.02 233.124 103.724 234.009 103.612L236.531 103.296ZM241.822 96.959H243.422V99.5869H244.925V100.879H243.422V107.022C243.422 107.351 243.533 107.57 243.756 107.682C243.879 107.746 244.084 107.778 244.371 107.778C244.447 107.778 244.529 107.778 244.617 107.778C244.705 107.772 244.808 107.764 244.925 107.752V109C244.743 109.053 244.553 109.091 244.354 109.114C244.16 109.138 243.949 109.149 243.721 109.149C242.982 109.149 242.481 108.962 242.218 108.587C241.954 108.206 241.822 107.714 241.822 107.11V100.879H240.548V99.5869H241.822V96.959ZM246.516 99.6309H248.124V109H246.516V99.6309ZM246.516 96.0889H248.124V97.8818H246.516V96.0889ZM250.523 99.5869H252.026V100.923C252.472 100.372 252.943 99.9766 253.441 99.7363C253.939 99.4961 254.493 99.376 255.103 99.376C256.438 99.376 257.341 99.8418 257.81 100.773C258.067 101.283 258.196 102.013 258.196 102.962V109H256.588V103.067C256.588 102.493 256.503 102.03 256.333 101.679C256.052 101.093 255.542 100.8 254.804 100.8C254.429 100.8 254.121 100.838 253.881 100.914C253.447 101.043 253.066 101.301 252.738 101.688C252.475 101.998 252.302 102.32 252.22 102.654C252.144 102.982 252.105 103.454 252.105 104.069V109H250.523V99.5869ZM265.597 96.0889H267.179V109H265.597V96.0889ZM269.561 99.6309H271.169V109H269.561V99.6309ZM269.561 96.0889H271.169V97.8818H269.561V96.0889ZM273.885 96.959H275.484V99.5869H276.987V100.879H275.484V107.022C275.484 107.351 275.596 107.57 275.818 107.682C275.941 107.746 276.146 107.778 276.434 107.778C276.51 107.778 276.592 107.778 276.68 107.778C276.768 107.772 276.87 107.764 276.987 107.752V109C276.806 109.053 276.615 109.091 276.416 109.114C276.223 109.138 276.012 109.149 275.783 109.149C275.045 109.149 274.544 108.962 274.28 108.587C274.017 108.206 273.885 107.714 273.885 107.11V100.879H272.61V99.5869H273.885V96.959ZM282.498 99.376C283.166 99.376 283.813 99.5342 284.44 99.8506C285.067 100.161 285.545 100.565 285.873 101.063C286.189 101.538 286.4 102.092 286.506 102.725C286.6 103.158 286.646 103.85 286.646 104.799H279.747C279.776 105.754 280.002 106.521 280.424 107.102C280.846 107.676 281.499 107.963 282.384 107.963C283.21 107.963 283.869 107.69 284.361 107.146C284.643 106.829 284.842 106.463 284.959 106.047H286.515C286.474 106.393 286.336 106.779 286.102 107.207C285.873 107.629 285.615 107.975 285.328 108.244C284.848 108.713 284.253 109.029 283.544 109.193C283.163 109.287 282.732 109.334 282.252 109.334C281.08 109.334 280.087 108.909 279.272 108.06C278.458 107.204 278.051 106.009 278.051 104.474C278.051 102.962 278.461 101.734 279.281 100.791C280.102 99.8477 281.174 99.376 282.498 99.376ZM285.021 103.542C284.956 102.856 284.807 102.309 284.572 101.898C284.139 101.137 283.415 100.756 282.401 100.756C281.675 100.756 281.065 101.02 280.573 101.547C280.081 102.068 279.82 102.733 279.791 103.542H285.021ZM288.642 99.5869H290.145V101.213C290.268 100.896 290.569 100.513 291.05 100.062C291.53 99.6045 292.084 99.376 292.711 99.376C292.74 99.376 292.79 99.3789 292.86 99.3848C292.931 99.3906 293.051 99.4023 293.221 99.4199V101.09C293.127 101.072 293.039 101.061 292.957 101.055C292.881 101.049 292.796 101.046 292.702 101.046C291.905 101.046 291.293 101.304 290.865 101.819C290.438 102.329 290.224 102.918 290.224 103.586V109H288.642V99.5869ZM295.805 106.495C295.805 106.952 295.972 107.312 296.306 107.576C296.64 107.84 297.035 107.972 297.492 107.972C298.049 107.972 298.588 107.843 299.109 107.585C299.988 107.157 300.428 106.457 300.428 105.484V104.21C300.234 104.333 299.985 104.436 299.681 104.518C299.376 104.6 299.077 104.658 298.784 104.693L297.826 104.816C297.252 104.893 296.821 105.013 296.534 105.177C296.048 105.452 295.805 105.892 295.805 106.495ZM299.637 103.296C300 103.249 300.243 103.097 300.366 102.839C300.437 102.698 300.472 102.496 300.472 102.232C300.472 101.693 300.278 101.304 299.892 101.063C299.511 100.817 298.963 100.694 298.248 100.694C297.422 100.694 296.836 100.917 296.49 101.362C296.297 101.608 296.171 101.975 296.112 102.461H294.636C294.665 101.301 295.04 100.495 295.761 100.044C296.487 99.5869 297.328 99.3584 298.283 99.3584C299.391 99.3584 300.29 99.5693 300.981 99.9912C301.667 100.413 302.01 101.069 302.01 101.96V107.383C302.01 107.547 302.042 107.679 302.106 107.778C302.177 107.878 302.32 107.928 302.537 107.928C302.607 107.928 302.687 107.925 302.774 107.919C302.862 107.907 302.956 107.893 303.056 107.875V109.044C302.81 109.114 302.622 109.158 302.493 109.176C302.364 109.193 302.188 109.202 301.966 109.202C301.421 109.202 301.025 109.009 300.779 108.622C300.65 108.417 300.56 108.127 300.507 107.752C300.185 108.174 299.722 108.54 299.118 108.851C298.515 109.161 297.85 109.316 297.123 109.316C296.25 109.316 295.535 109.053 294.979 108.525C294.428 107.992 294.152 107.327 294.152 106.53C294.152 105.657 294.425 104.98 294.97 104.5C295.515 104.02 296.229 103.724 297.114 103.612L299.637 103.296ZM304.928 96.959H306.527V99.5869H308.03V100.879H306.527V107.022C306.527 107.351 306.639 107.57 306.861 107.682C306.984 107.746 307.189 107.778 307.477 107.778C307.553 107.778 307.635 107.778 307.723 107.778C307.811 107.772 307.913 107.764 308.03 107.752V109C307.849 109.053 307.658 109.091 307.459 109.114C307.266 109.138 307.055 109.149 306.826 109.149C306.088 109.149 305.587 108.962 305.323 108.587C305.06 108.206 304.928 107.714 304.928 107.11V100.879H303.653V99.5869H304.928V96.959ZM311.203 99.5869V105.836C311.203 106.316 311.279 106.709 311.432 107.014C311.713 107.576 312.237 107.857 313.005 107.857C314.106 107.857 314.856 107.365 315.255 106.381C315.472 105.854 315.58 105.13 315.58 104.21V99.5869H317.162V109H315.668L315.686 107.611C315.48 107.969 315.226 108.271 314.921 108.517C314.317 109.009 313.585 109.255 312.724 109.255C311.382 109.255 310.468 108.807 309.981 107.91C309.718 107.43 309.586 106.788 309.586 105.985V99.5869H311.203ZM319.685 99.5869H321.188V101.213C321.311 100.896 321.612 100.513 322.093 100.062C322.573 99.6045 323.127 99.376 323.754 99.376C323.783 99.376 323.833 99.3789 323.903 99.3848C323.974 99.3906 324.094 99.4023 324.264 99.4199V101.09C324.17 101.072 324.082 101.061 324 101.055C323.924 101.049 323.839 101.046 323.745 101.046C322.948 101.046 322.336 101.304 321.908 101.819C321.48 102.329 321.267 102.918 321.267 103.586V109H319.685V99.5869ZM329.555 99.376C330.223 99.376 330.87 99.5342 331.497 99.8506C332.124 100.161 332.602 100.565 332.93 101.063C333.246 101.538 333.457 102.092 333.562 102.725C333.656 103.158 333.703 103.85 333.703 104.799H326.804C326.833 105.754 327.059 106.521 327.48 107.102C327.902 107.676 328.556 107.963 329.44 107.963C330.267 107.963 330.926 107.69 331.418 107.146C331.699 106.829 331.898 106.463 332.016 106.047H333.571C333.53 106.393 333.393 106.779 333.158 107.207C332.93 107.629 332.672 107.975 332.385 108.244C331.904 108.713 331.31 109.029 330.601 109.193C330.22 109.287 329.789 109.334 329.309 109.334C328.137 109.334 327.144 108.909 326.329 108.06C325.515 107.204 325.107 106.009 325.107 104.474C325.107 102.962 325.518 101.734 326.338 100.791C327.158 99.8477 328.23 99.376 329.555 99.376ZM332.077 103.542C332.013 102.856 331.863 102.309 331.629 101.898C331.195 101.137 330.472 100.756 329.458 100.756C328.731 100.756 328.122 101.02 327.63 101.547C327.138 102.068 326.877 102.733 326.848 103.542H332.077ZM341.06 98.1543C341.083 97.498 341.197 97.0176 341.402 96.7129C341.771 96.1738 342.483 95.9043 343.538 95.9043C343.638 95.9043 343.74 95.9072 343.846 95.9131C343.951 95.9189 344.071 95.9277 344.206 95.9395V97.3809C344.042 97.3691 343.922 97.3633 343.846 97.3633C343.775 97.3574 343.708 97.3545 343.644 97.3545C343.163 97.3545 342.876 97.4805 342.782 97.7324C342.688 97.9785 342.642 98.6113 342.642 99.6309H344.206V100.879H342.624V109H341.06V100.879H339.75V99.6309H341.06V98.1543ZM345.718 99.5869H347.221V101.213C347.344 100.896 347.646 100.513 348.126 100.062C348.606 99.6045 349.16 99.376 349.787 99.376C349.816 99.376 349.866 99.3789 349.937 99.3848C350.007 99.3906 350.127 99.4023 350.297 99.4199V101.09C350.203 101.072 350.115 101.061 350.033 101.055C349.957 101.049 349.872 101.046 349.778 101.046C348.981 101.046 348.369 101.304 347.941 101.819C347.514 102.329 347.3 102.918 347.3 103.586V109H345.718V99.5869ZM355.403 107.98C356.452 107.98 357.17 107.585 357.557 106.794C357.949 105.997 358.146 105.112 358.146 104.14C358.146 103.261 358.005 102.546 357.724 101.995C357.278 101.128 356.511 100.694 355.421 100.694C354.454 100.694 353.751 101.063 353.312 101.802C352.872 102.54 352.652 103.431 352.652 104.474C352.652 105.476 352.872 106.311 353.312 106.979C353.751 107.646 354.448 107.98 355.403 107.98ZM355.465 99.3145C356.678 99.3145 357.703 99.7188 358.541 100.527C359.379 101.336 359.798 102.525 359.798 104.096C359.798 105.613 359.429 106.867 358.69 107.857C357.952 108.848 356.807 109.343 355.254 109.343C353.959 109.343 352.931 108.906 352.169 108.033C351.407 107.154 351.026 105.977 351.026 104.5C351.026 102.918 351.428 101.658 352.23 100.721C353.033 99.7832 354.111 99.3145 355.465 99.3145ZM361.688 99.5869H363.252V100.923C363.627 100.46 363.967 100.123 364.271 99.9121C364.793 99.5547 365.385 99.376 366.047 99.376C366.797 99.376 367.4 99.5605 367.857 99.9297C368.115 100.141 368.35 100.451 368.561 100.861C368.912 100.357 369.325 99.9854 369.8 99.7451C370.274 99.499 370.808 99.376 371.399 99.376C372.665 99.376 373.526 99.833 373.983 100.747C374.229 101.239 374.353 101.901 374.353 102.733V109H372.709V102.461C372.709 101.834 372.551 101.403 372.234 101.169C371.924 100.935 371.543 100.817 371.092 100.817C370.471 100.817 369.935 101.025 369.483 101.441C369.038 101.857 368.815 102.552 368.815 103.524V109H367.207V102.856C367.207 102.218 367.131 101.752 366.979 101.459C366.738 101.02 366.29 100.8 365.634 100.8C365.036 100.8 364.491 101.031 363.999 101.494C363.513 101.957 363.27 102.795 363.27 104.008V109H361.688V99.5869ZM5.9502 130.544V124.84L1.91602 130.544H5.9502ZM5.97656 135V131.924H0.457031V130.377L6.22266 122.379H7.55859V130.544H9.41309V131.924H7.55859V135H5.97656ZM12.2432 131.792C12.3486 132.694 12.7676 133.318 13.5 133.664C13.875 133.84 14.3086 133.928 14.8008 133.928C15.7383 133.928 16.4326 133.629 16.8838 133.031C17.335 132.434 17.5605 131.771 17.5605 131.045C17.5605 130.166 17.291 129.486 16.752 129.006C16.2188 128.525 15.5771 128.285 14.8271 128.285C14.2822 128.285 13.8135 128.391 13.4209 128.602C13.0342 128.812 12.7031 129.105 12.4277 129.48L11.0566 129.401L12.0146 122.625H18.5537V124.154H13.2012L12.665 127.652C12.958 127.43 13.2363 127.263 13.5 127.151C13.9688 126.958 14.5107 126.861 15.126 126.861C16.2803 126.861 17.2588 127.233 18.0615 127.978C18.8643 128.722 19.2656 129.665 19.2656 130.808C19.2656 131.997 18.8965 133.046 18.1582 133.954C17.4258 134.862 16.2539 135.316 14.6426 135.316C13.6172 135.316 12.709 135.029 11.918 134.455C11.1328 133.875 10.6934 132.987 10.5996 131.792H12.2432ZM31.2715 127.547C32.0098 127.547 32.584 127.444 32.9941 127.239C33.6387 126.917 33.9609 126.337 33.9609 125.499C33.9609 124.655 33.6182 124.087 32.9326 123.794C32.5459 123.63 31.9717 123.548 31.21 123.548H28.0898V127.547H31.2715ZM31.8604 133.506C32.9326 133.506 33.6973 133.195 34.1543 132.574C34.4414 132.182 34.585 131.707 34.585 131.15C34.585 130.213 34.166 129.574 33.3281 129.234C32.8828 129.053 32.2939 128.962 31.5615 128.962H28.0898V133.506H31.8604ZM26.376 122.089H31.9219C33.4336 122.089 34.5088 122.54 35.1475 123.442C35.5225 123.976 35.71 124.591 35.71 125.288C35.71 126.103 35.4785 126.771 35.0156 127.292C34.7754 127.567 34.4297 127.819 33.9785 128.048C34.6406 128.3 35.1357 128.584 35.4639 128.9C36.0439 129.463 36.334 130.239 36.334 131.229C36.334 132.062 36.0732 132.814 35.5518 133.488C34.7725 134.496 33.5332 135 31.834 135H26.376V122.089ZM43.8662 121.737C45.501 121.737 46.7695 122.168 47.6719 123.029C48.5742 123.891 49.0752 124.869 49.1748 125.965H47.4697C47.2764 125.133 46.8896 124.474 46.3096 123.987C45.7354 123.501 44.9268 123.258 43.8838 123.258C42.6123 123.258 41.584 123.706 40.7988 124.603C40.0195 125.493 39.6299 126.861 39.6299 128.707C39.6299 130.219 39.9814 131.446 40.6846 132.39C41.3936 133.327 42.4482 133.796 43.8486 133.796C45.1377 133.796 46.1191 133.301 46.793 132.311C47.1504 131.789 47.417 131.104 47.5928 130.254H49.2979C49.1455 131.613 48.6416 132.753 47.7861 133.673C46.7607 134.78 45.3779 135.334 43.6377 135.334C42.1377 135.334 40.8779 134.88 39.8584 133.972C38.5166 132.771 37.8457 130.916 37.8457 128.408C37.8457 126.504 38.3496 124.942 39.3574 123.724C40.4473 122.399 41.9502 121.737 43.8662 121.737ZM51.5566 136.837C51.9609 136.767 52.2451 136.482 52.4092 135.984C52.4971 135.721 52.541 135.466 52.541 135.22C52.541 135.179 52.5381 135.141 52.5322 135.105C52.5322 135.076 52.5264 135.041 52.5146 135H51.5566V133.084H53.4375V134.859C53.4375 135.557 53.2969 136.169 53.0156 136.696C52.7344 137.224 52.248 137.549 51.5566 137.672V136.837ZM61.2422 125.587H62.8066V126.923C63.1816 126.46 63.5215 126.123 63.8262 125.912C64.3477 125.555 64.9395 125.376 65.6016 125.376C66.3516 125.376 66.9551 125.561 67.4121 125.93C67.6699 126.141 67.9043 126.451 68.1152 126.861C68.4668 126.357 68.8799 125.985 69.3545 125.745C69.8291 125.499 70.3623 125.376 70.9541 125.376C72.2197 125.376 73.0811 125.833 73.5381 126.747C73.7842 127.239 73.9072 127.901 73.9072 128.733V135H72.2637V128.461C72.2637 127.834 72.1055 127.403 71.7891 127.169C71.4785 126.935 71.0977 126.817 70.6465 126.817C70.0254 126.817 69.4893 127.025 69.0381 127.441C68.5928 127.857 68.3701 128.552 68.3701 129.524V135H66.7617V128.856C66.7617 128.218 66.6855 127.752 66.5332 127.459C66.293 127.02 65.8447 126.8 65.1885 126.8C64.5908 126.8 64.0459 127.031 63.5537 127.494C63.0674 127.957 62.8242 128.795 62.8242 130.008V135H61.2422V125.587ZM77.4492 132.495C77.4492 132.952 77.6162 133.312 77.9502 133.576C78.2842 133.84 78.6797 133.972 79.1367 133.972C79.6934 133.972 80.2324 133.843 80.7539 133.585C81.6328 133.157 82.0723 132.457 82.0723 131.484V130.21C81.8789 130.333 81.6299 130.436 81.3252 130.518C81.0205 130.6 80.7217 130.658 80.4287 130.693L79.4707 130.816C78.8965 130.893 78.4658 131.013 78.1787 131.177C77.6924 131.452 77.4492 131.892 77.4492 132.495ZM81.2812 129.296C81.6445 129.249 81.8877 129.097 82.0107 128.839C82.0811 128.698 82.1162 128.496 82.1162 128.232C82.1162 127.693 81.9229 127.304 81.5361 127.063C81.1553 126.817 80.6074 126.694 79.8926 126.694C79.0664 126.694 78.4805 126.917 78.1348 127.362C77.9414 127.608 77.8154 127.975 77.7568 128.461H76.2803C76.3096 127.301 76.6846 126.495 77.4053 126.044C78.1318 125.587 78.9727 125.358 79.9277 125.358C81.0352 125.358 81.9346 125.569 82.626 125.991C83.3115 126.413 83.6543 127.069 83.6543 127.96V133.383C83.6543 133.547 83.6865 133.679 83.751 133.778C83.8213 133.878 83.9648 133.928 84.1816 133.928C84.252 133.928 84.3311 133.925 84.4189 133.919C84.5068 133.907 84.6006 133.893 84.7002 133.875V135.044C84.4541 135.114 84.2666 135.158 84.1377 135.176C84.0088 135.193 83.833 135.202 83.6104 135.202C83.0654 135.202 82.6699 135.009 82.4238 134.622C82.2949 134.417 82.2041 134.127 82.1514 133.752C81.8291 134.174 81.3662 134.54 80.7627 134.851C80.1592 135.161 79.4941 135.316 78.7676 135.316C77.8945 135.316 77.1797 135.053 76.623 134.525C76.0723 133.992 75.7969 133.327 75.7969 132.53C75.7969 131.657 76.0693 130.98 76.6143 130.5C77.1592 130.02 77.874 129.724 78.7588 129.612L81.2812 129.296ZM86.2207 122.089H87.7412V129.586L91.8018 125.587H93.8232L90.2197 129.111L94.0254 135H92.0039L89.0684 130.254L87.7412 131.467V135H86.2207V122.089ZM95.2559 125.631H96.8643V135H95.2559V125.631ZM95.2559 122.089H96.8643V123.882H95.2559V122.089ZM99.2637 125.587H100.767V126.923C101.212 126.372 101.684 125.977 102.182 125.736C102.68 125.496 103.233 125.376 103.843 125.376C105.179 125.376 106.081 125.842 106.55 126.773C106.808 127.283 106.937 128.013 106.937 128.962V135H105.328V129.067C105.328 128.493 105.243 128.03 105.073 127.679C104.792 127.093 104.282 126.8 103.544 126.8C103.169 126.8 102.861 126.838 102.621 126.914C102.188 127.043 101.807 127.301 101.479 127.688C101.215 127.998 101.042 128.32 100.96 128.654C100.884 128.982 100.846 129.454 100.846 130.069V135H99.2637V125.587ZM112.605 125.42C113.344 125.42 113.988 125.602 114.539 125.965C114.838 126.17 115.143 126.469 115.453 126.861V125.675H116.912V134.235C116.912 135.431 116.736 136.374 116.385 137.065C115.729 138.343 114.489 138.981 112.667 138.981C111.653 138.981 110.801 138.753 110.109 138.296C109.418 137.845 109.031 137.136 108.949 136.169H110.558C110.634 136.591 110.786 136.916 111.015 137.145C111.372 137.496 111.935 137.672 112.702 137.672C113.915 137.672 114.709 137.244 115.084 136.389C115.307 135.885 115.409 134.985 115.392 133.69C115.075 134.171 114.694 134.528 114.249 134.763C113.804 134.997 113.215 135.114 112.482 135.114C111.463 135.114 110.569 134.754 109.802 134.033C109.04 133.307 108.659 132.108 108.659 130.438C108.659 128.862 109.043 127.632 109.811 126.747C110.584 125.862 111.516 125.42 112.605 125.42ZM115.453 130.254C115.453 129.088 115.213 128.224 114.732 127.661C114.252 127.099 113.64 126.817 112.896 126.817C111.782 126.817 111.021 127.339 110.61 128.382C110.394 128.938 110.285 129.668 110.285 130.57C110.285 131.631 110.499 132.439 110.927 132.996C111.36 133.547 111.94 133.822 112.667 133.822C113.804 133.822 114.604 133.31 115.066 132.284C115.324 131.704 115.453 131.027 115.453 130.254ZM124.312 125.631H125.921V135H124.312V125.631ZM124.312 122.089H125.921V123.882H124.312V122.089ZM128.637 122.959H130.236V125.587H131.739V126.879H130.236V133.022C130.236 133.351 130.348 133.57 130.57 133.682C130.693 133.746 130.898 133.778 131.186 133.778C131.262 133.778 131.344 133.778 131.432 133.778C131.52 133.772 131.622 133.764 131.739 133.752V135C131.558 135.053 131.367 135.091 131.168 135.114C130.975 135.138 130.764 135.149 130.535 135.149C129.797 135.149 129.296 134.962 129.032 134.587C128.769 134.206 128.637 133.714 128.637 133.11V126.879H127.362V125.587H128.637V122.959ZM142.075 133.98C143.124 133.98 143.842 133.585 144.229 132.794C144.621 131.997 144.817 131.112 144.817 130.14C144.817 129.261 144.677 128.546 144.396 127.995C143.95 127.128 143.183 126.694 142.093 126.694C141.126 126.694 140.423 127.063 139.983 127.802C139.544 128.54 139.324 129.431 139.324 130.474C139.324 131.476 139.544 132.311 139.983 132.979C140.423 133.646 141.12 133.98 142.075 133.98ZM142.137 125.314C143.35 125.314 144.375 125.719 145.213 126.527C146.051 127.336 146.47 128.525 146.47 130.096C146.47 131.613 146.101 132.867 145.362 133.857C144.624 134.848 143.479 135.343 141.926 135.343C140.631 135.343 139.603 134.906 138.841 134.033C138.079 133.154 137.698 131.977 137.698 130.5C137.698 128.918 138.1 127.658 138.902 126.721C139.705 125.783 140.783 125.314 142.137 125.314ZM149.133 125.587L151.646 133.251L154.274 125.587H156.006L152.455 135H150.768L147.296 125.587H149.133ZM161.279 125.376C161.947 125.376 162.595 125.534 163.222 125.851C163.849 126.161 164.326 126.565 164.654 127.063C164.971 127.538 165.182 128.092 165.287 128.725C165.381 129.158 165.428 129.85 165.428 130.799H158.528C158.558 131.754 158.783 132.521 159.205 133.102C159.627 133.676 160.28 133.963 161.165 133.963C161.991 133.963 162.65 133.69 163.143 133.146C163.424 132.829 163.623 132.463 163.74 132.047H165.296C165.255 132.393 165.117 132.779 164.883 133.207C164.654 133.629 164.396 133.975 164.109 134.244C163.629 134.713 163.034 135.029 162.325 135.193C161.944 135.287 161.514 135.334 161.033 135.334C159.861 135.334 158.868 134.909 158.054 134.06C157.239 133.204 156.832 132.009 156.832 130.474C156.832 128.962 157.242 127.734 158.062 126.791C158.883 125.848 159.955 125.376 161.279 125.376ZM163.802 129.542C163.737 128.856 163.588 128.309 163.354 127.898C162.92 127.137 162.196 126.756 161.183 126.756C160.456 126.756 159.847 127.02 159.354 127.547C158.862 128.068 158.602 128.733 158.572 129.542H163.802ZM167.423 125.587H168.926V127.213C169.049 126.896 169.351 126.513 169.831 126.062C170.312 125.604 170.865 125.376 171.492 125.376C171.521 125.376 171.571 125.379 171.642 125.385C171.712 125.391 171.832 125.402 172.002 125.42V127.09C171.908 127.072 171.82 127.061 171.738 127.055C171.662 127.049 171.577 127.046 171.483 127.046C170.687 127.046 170.074 127.304 169.646 127.819C169.219 128.329 169.005 128.918 169.005 129.586V135H167.423V125.587ZM177.785 135C177.844 133.916 178.066 132.973 178.453 132.17C178.846 131.367 179.607 130.638 180.738 129.981L182.426 129.006C183.182 128.566 183.712 128.191 184.017 127.881C184.497 127.395 184.737 126.838 184.737 126.211C184.737 125.479 184.518 124.898 184.078 124.471C183.639 124.037 183.053 123.82 182.32 123.82C181.236 123.82 180.486 124.23 180.07 125.051C179.848 125.49 179.725 126.1 179.701 126.879H178.093C178.11 125.783 178.312 124.89 178.699 124.198C179.385 122.979 180.595 122.37 182.329 122.37C183.771 122.37 184.822 122.76 185.484 123.539C186.152 124.318 186.486 125.186 186.486 126.141C186.486 127.148 186.132 128.01 185.423 128.725C185.013 129.141 184.277 129.645 183.217 130.236L182.013 130.904C181.438 131.221 180.987 131.522 180.659 131.81C180.073 132.319 179.704 132.885 179.552 133.506H186.425V135H177.785ZM192.111 122.414C193.74 122.414 194.918 123.085 195.645 124.427C196.207 125.464 196.488 126.885 196.488 128.689C196.488 130.4 196.233 131.815 195.724 132.935C194.985 134.54 193.778 135.343 192.103 135.343C190.591 135.343 189.466 134.687 188.728 133.374C188.112 132.278 187.805 130.808 187.805 128.962C187.805 127.532 187.989 126.305 188.358 125.279C189.05 123.369 190.301 122.414 192.111 122.414ZM192.094 133.901C192.914 133.901 193.567 133.538 194.054 132.812C194.54 132.085 194.783 130.731 194.783 128.751C194.783 127.321 194.607 126.146 194.256 125.227C193.904 124.301 193.222 123.838 192.208 123.838C191.276 123.838 190.594 124.277 190.16 125.156C189.732 126.029 189.519 127.318 189.519 129.023C189.519 130.307 189.656 131.338 189.932 132.117C190.354 133.307 191.074 133.901 192.094 133.901ZM202.131 122.414C203.76 122.414 204.938 123.085 205.664 124.427C206.227 125.464 206.508 126.885 206.508 128.689C206.508 130.4 206.253 131.815 205.743 132.935C205.005 134.54 203.798 135.343 202.122 135.343C200.61 135.343 199.485 134.687 198.747 133.374C198.132 132.278 197.824 130.808 197.824 128.962C197.824 127.532 198.009 126.305 198.378 125.279C199.069 123.369 200.32 122.414 202.131 122.414ZM202.113 133.901C202.934 133.901 203.587 133.538 204.073 132.812C204.56 132.085 204.803 130.731 204.803 128.751C204.803 127.321 204.627 126.146 204.275 125.227C203.924 124.301 203.241 123.838 202.228 123.838C201.296 123.838 200.613 124.277 200.18 125.156C199.752 126.029 199.538 127.318 199.538 129.023C199.538 130.307 199.676 131.338 199.951 132.117C200.373 133.307 201.094 133.901 202.113 133.901ZM212.15 122.414C213.779 122.414 214.957 123.085 215.684 124.427C216.246 125.464 216.527 126.885 216.527 128.689C216.527 130.4 216.272 131.815 215.763 132.935C215.024 134.54 213.817 135.343 212.142 135.343C210.63 135.343 209.505 134.687 208.767 133.374C208.151 132.278 207.844 130.808 207.844 128.962C207.844 127.532 208.028 126.305 208.397 125.279C209.089 123.369 210.34 122.414 212.15 122.414ZM212.133 133.901C212.953 133.901 213.606 133.538 214.093 132.812C214.579 132.085 214.822 130.731 214.822 128.751C214.822 127.321 214.646 126.146 214.295 125.227C213.943 124.301 213.261 123.838 212.247 123.838C211.315 123.838 210.633 124.277 210.199 125.156C209.771 126.029 209.558 127.318 209.558 129.023C209.558 130.307 209.695 131.338 209.971 132.117C210.393 133.307 211.113 133.901 212.133 133.901ZM229.351 125.587H231.1C230.877 126.19 230.382 127.567 229.614 129.718C229.04 131.335 228.56 132.653 228.173 133.673C227.259 136.075 226.614 137.54 226.239 138.067C225.864 138.595 225.22 138.858 224.306 138.858C224.083 138.858 223.91 138.85 223.787 138.832C223.67 138.814 223.523 138.782 223.348 138.735V137.294C223.623 137.37 223.822 137.417 223.945 137.435C224.068 137.452 224.177 137.461 224.271 137.461C224.563 137.461 224.777 137.411 224.912 137.312C225.053 137.218 225.17 137.101 225.264 136.96C225.293 136.913 225.398 136.673 225.58 136.239C225.762 135.806 225.894 135.483 225.976 135.272L222.495 125.587H224.288L226.811 133.251L229.351 125.587ZM236.391 125.376C237.059 125.376 237.706 125.534 238.333 125.851C238.96 126.161 239.438 126.565 239.766 127.063C240.082 127.538 240.293 128.092 240.398 128.725C240.492 129.158 240.539 129.85 240.539 130.799H233.64C233.669 131.754 233.895 132.521 234.316 133.102C234.738 133.676 235.392 133.963 236.276 133.963C237.103 133.963 237.762 133.69 238.254 133.146C238.535 132.829 238.734 132.463 238.852 132.047H240.407C240.366 132.393 240.229 132.779 239.994 133.207C239.766 133.629 239.508 133.975 239.221 134.244C238.74 134.713 238.146 135.029 237.437 135.193C237.056 135.287 236.625 135.334 236.145 135.334C234.973 135.334 233.979 134.909 233.165 134.06C232.351 133.204 231.943 132.009 231.943 130.474C231.943 128.962 232.354 127.734 233.174 126.791C233.994 125.848 235.066 125.376 236.391 125.376ZM238.913 129.542C238.849 128.856 238.699 128.309 238.465 127.898C238.031 127.137 237.308 126.756 236.294 126.756C235.567 126.756 234.958 127.02 234.466 127.547C233.974 128.068 233.713 128.733 233.684 129.542H238.913ZM243.703 132.495C243.703 132.952 243.87 133.312 244.204 133.576C244.538 133.84 244.934 133.972 245.391 133.972C245.947 133.972 246.486 133.843 247.008 133.585C247.887 133.157 248.326 132.457 248.326 131.484V130.21C248.133 130.333 247.884 130.436 247.579 130.518C247.274 130.6 246.976 130.658 246.683 130.693L245.725 130.816C245.15 130.893 244.72 131.013 244.433 131.177C243.946 131.452 243.703 131.892 243.703 132.495ZM247.535 129.296C247.898 129.249 248.142 129.097 248.265 128.839C248.335 128.698 248.37 128.496 248.37 128.232C248.37 127.693 248.177 127.304 247.79 127.063C247.409 126.817 246.861 126.694 246.146 126.694C245.32 126.694 244.734 126.917 244.389 127.362C244.195 127.608 244.069 127.975 244.011 128.461H242.534C242.563 127.301 242.938 126.495 243.659 126.044C244.386 125.587 245.227 125.358 246.182 125.358C247.289 125.358 248.188 125.569 248.88 125.991C249.565 126.413 249.908 127.069 249.908 127.96V133.383C249.908 133.547 249.94 133.679 250.005 133.778C250.075 133.878 250.219 133.928 250.436 133.928C250.506 133.928 250.585 133.925 250.673 133.919C250.761 133.907 250.854 133.893 250.954 133.875V135.044C250.708 135.114 250.521 135.158 250.392 135.176C250.263 135.193 250.087 135.202 249.864 135.202C249.319 135.202 248.924 135.009 248.678 134.622C248.549 134.417 248.458 134.127 248.405 133.752C248.083 134.174 247.62 134.54 247.017 134.851C246.413 135.161 245.748 135.316 245.021 135.316C244.148 135.316 243.434 135.053 242.877 134.525C242.326 133.992 242.051 133.327 242.051 132.53C242.051 131.657 242.323 130.98 242.868 130.5C243.413 130.02 244.128 129.724 245.013 129.612L247.535 129.296ZM252.554 125.587H254.057V127.213C254.18 126.896 254.481 126.513 254.962 126.062C255.442 125.604 255.996 125.376 256.623 125.376C256.652 125.376 256.702 125.379 256.772 125.385C256.843 125.391 256.963 125.402 257.133 125.42V127.09C257.039 127.072 256.951 127.061 256.869 127.055C256.793 127.049 256.708 127.046 256.614 127.046C255.817 127.046 255.205 127.304 254.777 127.819C254.35 128.329 254.136 128.918 254.136 129.586V135H252.554V125.587ZM259.444 132.047C259.491 132.574 259.623 132.979 259.84 133.26C260.238 133.77 260.93 134.024 261.914 134.024C262.5 134.024 263.016 133.898 263.461 133.646C263.906 133.389 264.129 132.993 264.129 132.46C264.129 132.056 263.95 131.748 263.593 131.537C263.364 131.408 262.913 131.259 262.239 131.089L260.982 130.772C260.18 130.573 259.588 130.351 259.207 130.104C258.527 129.677 258.188 129.085 258.188 128.329C258.188 127.438 258.507 126.718 259.146 126.167C259.79 125.616 260.654 125.341 261.738 125.341C263.156 125.341 264.179 125.757 264.806 126.589C265.198 127.116 265.389 127.685 265.377 128.294H263.883C263.854 127.937 263.728 127.611 263.505 127.318C263.142 126.902 262.512 126.694 261.615 126.694C261.018 126.694 260.563 126.809 260.253 127.037C259.948 127.266 259.796 127.567 259.796 127.942C259.796 128.353 259.998 128.681 260.402 128.927C260.637 129.073 260.982 129.202 261.439 129.313L262.485 129.568C263.622 129.844 264.384 130.11 264.771 130.368C265.386 130.772 265.693 131.408 265.693 132.275C265.693 133.113 265.374 133.837 264.735 134.446C264.103 135.056 263.136 135.36 261.835 135.36C260.435 135.36 259.441 135.044 258.855 134.411C258.275 133.772 257.965 132.984 257.924 132.047H259.444ZM276.249 133.98C277.298 133.98 278.016 133.585 278.402 132.794C278.795 131.997 278.991 131.112 278.991 130.14C278.991 129.261 278.851 128.546 278.569 127.995C278.124 127.128 277.356 126.694 276.267 126.694C275.3 126.694 274.597 127.063 274.157 127.802C273.718 128.54 273.498 129.431 273.498 130.474C273.498 131.476 273.718 132.311 274.157 132.979C274.597 133.646 275.294 133.98 276.249 133.98ZM276.311 125.314C277.523 125.314 278.549 125.719 279.387 126.527C280.225 127.336 280.644 128.525 280.644 130.096C280.644 131.613 280.274 132.867 279.536 133.857C278.798 134.848 277.652 135.343 276.1 135.343C274.805 135.343 273.776 134.906 273.015 134.033C272.253 133.154 271.872 131.977 271.872 130.5C271.872 128.918 272.273 127.658 273.076 126.721C273.879 125.783 274.957 125.314 276.311 125.314ZM282.577 122.089H284.159V135H282.577V122.089ZM287.543 130.403C287.543 131.411 287.757 132.255 288.185 132.935C288.612 133.614 289.298 133.954 290.241 133.954C290.974 133.954 291.574 133.641 292.043 133.014C292.518 132.381 292.755 131.476 292.755 130.298C292.755 129.108 292.512 128.229 292.025 127.661C291.539 127.087 290.938 126.8 290.224 126.8C289.427 126.8 288.779 127.104 288.281 127.714C287.789 128.323 287.543 129.22 287.543 130.403ZM289.925 125.42C290.646 125.42 291.249 125.572 291.735 125.877C292.017 126.053 292.336 126.36 292.693 126.8V122.045H294.214V135H292.79V133.69C292.421 134.271 291.984 134.689 291.48 134.947C290.977 135.205 290.399 135.334 289.749 135.334C288.7 135.334 287.792 134.895 287.024 134.016C286.257 133.131 285.873 131.956 285.873 130.491C285.873 129.12 286.222 127.934 286.919 126.932C287.622 125.924 288.624 125.42 289.925 125.42ZM296.938 133.084H298.775V135H296.938V133.084Z" fill="white"/>
</svg>
