<svg width="43" height="42" viewBox="0 0 43 42" fill="none" xmlns="http://www.w3.org/2000/svg">
<path d="M33.5155 21.0423C32.3058 21.0423 31.1149 21.2387 30.0214 21.6132L29.149 17.611C29.0843 17.3143 28.7487 17.097 28.3553 17.097H25.5095L33.7706 1.75744C33.9825 1.36402 33.9242 0.918094 33.6144 0.564539C33.3048 0.211066 32.7877 0 32.2312 0H2.11768C1.56116 0 1.04413 0.211066 0.73438 0.564621C0.424739 0.918176 0.366373 1.3641 0.578272 1.75744L8.83943 17.097H5.99365C5.90503 17.097 5.81974 17.1085 5.73938 17.1289L0.579023 18.4436C0.330324 18.507 0.13763 18.659 0.0625266 18.851C-0.0125768 19.0431 0.0394591 19.251 0.201897 19.4083L4.00513 23.093L0.707342 38.2209C0.501774 39.1639 0.847464 40.123 1.65558 40.8523C2.46369 41.5816 3.64421 42 4.89446 42H29.4544C30.7047 42 31.8852 41.5816 32.6933 40.8523C33.5014 40.123 33.847 39.1639 33.6416 38.2209L33.3181 36.7369C33.3839 36.738 33.4497 36.7394 33.5155 36.7394C38.2274 36.7394 42.0606 33.8085 42.0606 30.206V27.5757C42.0606 23.9732 38.2274 21.0423 33.5155 21.0423ZM2.07165 1.24925C2.08817 1.23047 2.10738 1.23047 2.11768 1.23047H32.2312C32.2415 1.23047 32.2607 1.23047 32.2773 1.24925C32.2938 1.26804 32.2864 1.28166 32.2824 1.28896L30.8518 3.94546H28.3555C27.9111 3.94546 27.5508 4.22092 27.5508 4.56069C27.5508 4.90047 27.9111 5.17593 28.3555 5.17593H30.1892L28.489 8.33273C28.1108 8.23134 27.7853 8.10288 27.4283 7.96056C26.5729 7.61964 25.6036 7.23327 23.7565 7.23327C21.9104 7.23327 20.9416 7.61964 20.0867 7.96056C19.2959 8.27597 18.6128 8.54839 17.1613 8.54839C15.7114 8.54839 15.029 8.27605 14.239 7.96064C13.3849 7.61964 12.4167 7.23319 10.572 7.23319C8.72742 7.23319 7.75944 7.61964 6.9053 7.96064C6.56476 8.09657 6.23699 8.22667 5.85825 8.32945L4.15984 5.17584H24.9152C25.3596 5.17584 25.7199 4.90038 25.7199 4.56061C25.7199 4.22084 25.3596 3.94537 24.9152 3.94537H3.49722L2.0665 1.28887C2.06253 1.28166 2.05523 1.26804 2.07165 1.24925ZM6.47142 9.46797C6.92343 9.34032 7.30335 9.18996 7.65033 9.05141C8.4402 8.736 9.12246 8.46366 10.5721 8.46366C12.022 8.46366 12.7044 8.736 13.4943 9.05141C14.3485 9.39241 15.3167 9.77886 17.1614 9.77886C19.0075 9.77886 19.9763 9.3925 20.8312 9.05157C21.622 8.73616 22.305 8.46374 23.7566 8.46374C25.2094 8.46374 25.8929 8.73616 26.6844 9.05166C27.036 9.19177 27.418 9.34361 27.8757 9.47174L23.7691 17.0969H10.58L6.47142 9.46797ZM23.1063 18.3273L20.95 22.3312C20.9414 22.3471 20.9212 22.3575 20.8987 22.3575H13.4501C13.4276 22.3575 13.4075 22.3472 13.3988 22.3313L12.2028 20.1103C12.0336 19.7961 11.5633 19.6462 11.1523 19.7756C10.7414 19.905 10.5453 20.2645 10.7145 20.5788L11.9106 22.7998C12.1685 23.2786 12.7728 23.588 13.45 23.588H20.8986C21.5759 23.588 22.18 23.2787 22.438 22.7998L24.8466 18.3274H27.6734L30.8429 32.8669C30.6862 32.8745 30.524 32.8787 30.356 32.8787C28.9032 32.8787 28.2196 32.6063 27.4282 32.2908C26.5728 31.9499 25.6035 31.5635 23.7563 31.5635C21.9103 31.5635 20.9415 31.9499 20.0866 32.2908C19.2957 32.6062 18.6127 32.8786 17.1612 32.8786C15.7113 32.8786 15.0289 32.6063 14.2389 32.2909C13.3848 31.9499 12.4166 31.5634 10.5718 31.5634C8.72731 31.5634 7.75933 31.9499 6.90519 32.2909C6.11521 32.6063 5.43306 32.8786 3.98335 32.8786C3.81652 32.8786 3.6588 32.8741 3.5058 32.8668L6.67527 18.3273L23.1063 18.3273ZM2.17497 19.3339L4.9803 18.6189L4.36252 21.4531L2.17497 19.3339ZM31.4654 40.0569C30.9637 40.5098 30.2307 40.7695 29.4544 40.7695H4.89446C4.11822 40.7695 3.38531 40.5098 2.88352 40.0569C2.38172 39.604 2.16714 39.0086 2.29481 38.4231L3.24026 34.0862C3.47748 34.1012 3.7236 34.1091 3.98357 34.1091C5.8281 34.1091 6.79619 33.7226 7.65033 33.3816C8.4402 33.0662 9.12235 32.7939 10.5721 32.7939C12.022 32.7939 12.7044 33.0662 13.4943 33.3816C14.3485 33.7226 15.3167 34.1091 17.1614 34.1091C19.0075 34.1091 19.9763 33.7227 20.8312 33.3818C21.622 33.0664 22.305 32.794 23.7566 32.794C25.2094 32.794 25.8929 33.0664 26.6844 33.3819C27.5397 33.7228 28.5091 34.1092 30.3562 34.1092C30.6162 34.1092 30.8678 34.101 31.1088 34.0856L32.0543 38.4232C32.1818 39.0086 31.9672 39.6041 31.4654 40.0569ZM40.4513 30.206C40.4513 33.1301 37.3399 35.5089 33.5155 35.5089C33.3597 35.5089 33.2034 35.5049 33.0478 35.497L30.297 22.8779C31.2851 22.4817 32.3901 22.2728 33.5155 22.2728C37.34 22.2728 40.4513 24.6517 40.4513 27.5757V30.206Z" fill="#BC9A6C"/>
</svg>
