<svg width="244" height="75" viewBox="0 0 244 75" fill="none" xmlns="http://www.w3.org/2000/svg">
<path d="M106.916 13.8883C106.916 15.2689 106.667 16.4621 106.168 17.4678C105.669 18.4735 104.985 19.2491 104.116 19.7945C103.247 20.34 102.254 20.6127 101.137 20.6127C100.021 20.6127 99.0281 20.34 98.1587 19.7945C97.2894 19.2491 96.6055 18.4735 96.1069 17.4678C95.6083 16.4621 95.359 15.2689 95.359 13.8883C95.359 12.5076 95.6083 11.3144 96.1069 10.3087C96.6055 9.30303 97.2894 8.52747 98.1587 7.98201C99.0281 7.43656 100.021 7.16383 101.137 7.16383C102.254 7.16383 103.247 7.43656 104.116 7.98201C104.985 8.52747 105.669 9.30303 106.168 10.3087C106.667 11.3144 106.916 12.5076 106.916 13.8883ZM105.382 13.8883C105.382 12.7547 105.192 11.7981 104.813 11.0182C104.438 10.2384 103.929 9.6482 103.285 9.24764C102.646 8.84707 101.93 8.64678 101.137 8.64678C100.345 8.64678 99.6268 8.84707 98.9833 9.24764C98.3441 9.6482 97.8349 10.2384 97.4556 11.0182C97.0806 11.7981 96.8931 12.7547 96.8931 13.8883C96.8931 15.0218 97.0806 15.9785 97.4556 16.7583C97.8349 17.5381 98.3441 18.1283 98.9833 18.5289C99.6268 18.9295 100.345 19.1297 101.137 19.1297C101.93 19.1297 102.646 18.9295 103.285 18.5289C103.929 18.1283 104.438 17.5381 104.813 16.7583C105.192 15.9785 105.382 15.0218 105.382 13.8883ZM109.377 24.1155V10.6155H110.834V12.1752H111.013C111.124 12.0047 111.277 11.7874 111.473 11.5232C111.674 11.2547 111.959 11.0161 112.33 10.8073C112.705 10.5942 113.212 10.4877 113.851 10.4877C114.678 10.4877 115.407 10.6944 116.037 11.1077C116.668 11.5211 117.16 12.107 117.514 12.8655C117.868 13.6241 118.044 14.5189 118.044 15.5502C118.044 16.59 117.868 17.4912 117.514 18.254C117.16 19.0126 116.67 19.6006 116.044 20.0182C115.417 20.4316 114.695 20.6383 113.877 20.6383C113.246 20.6383 112.741 20.5339 112.362 20.3251C111.983 20.112 111.691 19.8712 111.486 19.6027C111.282 19.33 111.124 19.1042 111.013 18.9252H110.885V24.1155H109.377ZM110.86 15.5246C110.86 16.2661 110.968 16.9202 111.186 17.487C111.403 18.0495 111.721 18.4905 112.138 18.8101C112.556 19.1255 113.067 19.2831 113.672 19.2831C114.303 19.2831 114.829 19.117 115.251 18.7846C115.677 18.4479 115.997 17.9962 116.21 17.4295C116.427 16.8584 116.536 16.2235 116.536 15.5246C116.536 14.8343 116.429 14.2121 116.216 13.6581C116.007 13.0999 115.69 12.6589 115.264 12.335C114.842 12.0069 114.311 11.8428 113.672 11.8428C113.059 11.8428 112.543 11.9983 112.125 12.3094C111.708 12.6162 111.392 13.0466 111.179 13.6006C110.966 14.1503 110.86 14.7917 110.86 15.5246ZM124.462 20.6383C123.516 20.6383 122.7 20.4295 122.014 20.0118C121.332 19.59 120.806 19.0019 120.435 18.2476C120.069 17.4891 119.885 16.607 119.885 15.6013C119.885 14.5956 120.069 13.7093 120.435 12.9422C120.806 12.1709 121.321 11.5701 121.982 11.1397C122.647 10.705 123.422 10.4877 124.309 10.4877C124.82 10.4877 125.325 10.5729 125.824 10.7434C126.322 10.9138 126.776 11.1908 127.185 11.5743C127.594 11.9536 127.92 12.4564 128.163 13.0829C128.406 13.7093 128.527 14.4806 128.527 15.3968V16.036H120.959V14.732H126.993C126.993 14.178 126.882 13.6837 126.661 13.2491C126.444 12.8144 126.132 12.4714 125.728 12.2199C125.327 11.9685 124.854 11.8428 124.309 11.8428C123.708 11.8428 123.188 11.992 122.749 12.2902C122.314 12.5843 121.98 12.9678 121.745 13.4408C121.511 13.9138 121.394 14.4209 121.394 14.9621V15.8314C121.394 16.5729 121.522 17.2015 121.777 17.7171C122.037 18.2285 122.397 18.6184 122.858 18.8868C123.318 19.151 123.853 19.2831 124.462 19.2831C124.858 19.2831 125.216 19.2277 125.536 19.117C125.86 19.0019 126.139 18.8314 126.373 18.6056C126.608 18.3755 126.789 18.09 126.917 17.7491L128.374 18.1581C128.221 18.6525 127.963 19.0871 127.6 19.4621C127.238 19.8329 126.791 20.1226 126.258 20.3314C125.725 20.536 125.127 20.6383 124.462 20.6383ZM132.331 14.5275V20.4337H130.822V10.6155H132.279V12.1496H132.407C132.637 11.651 132.987 11.2505 133.456 10.9479C133.924 10.6411 134.529 10.4877 135.271 10.4877C135.936 10.4877 136.517 10.6241 137.016 10.8968C137.515 11.1652 137.902 11.5743 138.179 12.1241C138.456 12.6695 138.595 13.3599 138.595 14.1951V20.4337H137.086V14.2974C137.086 13.526 136.886 12.9252 136.485 12.4948C136.085 12.0601 135.535 11.8428 134.836 11.8428C134.355 11.8428 133.924 11.9472 133.545 12.156C133.17 12.3648 132.874 12.6695 132.657 13.0701C132.439 13.4706 132.331 13.9564 132.331 14.5275ZM141.351 20.4337V10.6155H142.86V20.4337H141.351ZM142.118 8.97917C141.824 8.97917 141.571 8.87903 141.358 8.67874C141.149 8.47846 141.045 8.23769 141.045 7.95644C141.045 7.67519 141.149 7.43443 141.358 7.23414C141.571 7.03386 141.824 6.93372 142.118 6.93372C142.412 6.93372 142.664 7.03386 142.873 7.23414C143.086 7.43443 143.192 7.67519 143.192 7.95644C143.192 8.23769 143.086 8.47846 142.873 8.67874C142.664 8.87903 142.412 8.97917 142.118 8.97917ZM147.131 14.5275V20.4337H145.623V10.6155H147.08V12.1496H147.208C147.438 11.651 147.788 11.2505 148.256 10.9479C148.725 10.6411 149.33 10.4877 150.072 10.4877C150.737 10.4877 151.318 10.6241 151.817 10.8968C152.315 11.1652 152.703 11.5743 152.98 12.1241C153.257 12.6695 153.396 13.3599 153.396 14.1951V20.4337H151.887V14.2974C151.887 13.526 151.687 12.9252 151.286 12.4948C150.886 12.0601 150.336 11.8428 149.637 11.8428C149.156 11.8428 148.725 11.9472 148.346 12.156C147.971 12.3648 147.675 12.6695 147.457 13.0701C147.24 13.4706 147.131 13.9564 147.131 14.5275ZM160.115 24.3201C159.387 24.3201 158.76 24.2263 158.236 24.0388C157.712 23.8556 157.275 23.6127 156.926 23.3101C156.58 23.0118 156.306 22.6922 156.101 22.3513L157.303 21.5076C157.439 21.6866 157.612 21.8911 157.82 22.1212C158.029 22.3556 158.315 22.558 158.677 22.7285C159.044 22.9032 159.523 22.9905 160.115 22.9905C160.908 22.9905 161.562 22.7988 162.078 22.4153C162.593 22.0317 162.851 21.4309 162.851 20.6127V18.6184H162.723C162.612 18.7974 162.455 19.0189 162.25 19.2831C162.05 19.5431 161.76 19.7753 161.381 19.9799C161.006 20.1802 160.499 20.2803 159.86 20.2803C159.067 20.2803 158.355 20.0928 157.725 19.7178C157.098 19.3428 156.602 18.7974 156.235 18.0814C155.873 17.3655 155.692 16.4962 155.692 15.4735C155.692 14.4678 155.869 13.5921 156.222 12.8464C156.576 12.0964 157.068 11.5168 157.699 11.1077C158.33 10.6944 159.058 10.4877 159.885 10.4877C160.524 10.4877 161.031 10.5942 161.406 10.8073C161.786 11.0161 162.075 11.2547 162.276 11.5232C162.48 11.7874 162.638 12.0047 162.749 12.1752H162.902V10.6155H164.36V20.715C164.36 21.5587 164.168 22.2448 163.784 22.7732C163.405 23.3059 162.894 23.6958 162.25 23.9429C161.611 24.1944 160.899 24.3201 160.115 24.3201ZM160.064 18.9252C160.669 18.9252 161.181 18.7867 161.598 18.5097C162.016 18.2327 162.333 17.8343 162.551 17.3144C162.768 16.7945 162.877 16.1724 162.877 15.4479C162.877 14.7405 162.77 14.1162 162.557 13.5751C162.344 13.0339 162.029 12.6099 161.611 12.303C161.193 11.9962 160.678 11.8428 160.064 11.8428C159.425 11.8428 158.892 12.0047 158.466 12.3286C158.044 12.6525 157.727 13.0871 157.514 13.6326C157.305 14.178 157.2 14.7831 157.2 15.4479C157.2 16.1297 157.307 16.7327 157.52 17.2569C157.737 17.7768 158.057 18.1858 158.479 18.4841C158.905 18.7782 159.433 18.9252 160.064 18.9252ZM172.388 20.4337V7.34281H173.973V13.1724H180.953V7.34281H182.539V20.4337H180.953V14.5786H173.973V20.4337H172.388ZM189.496 20.6383C188.61 20.6383 187.832 20.4273 187.163 20.0054C186.498 19.5836 185.979 18.9934 185.604 18.2349C185.233 17.4763 185.047 16.59 185.047 15.5758C185.047 14.553 185.233 13.6603 185.604 12.8975C185.979 12.1347 186.498 11.5424 187.163 11.1205C187.832 10.6986 188.61 10.4877 189.496 10.4877C190.383 10.4877 191.158 10.6986 191.823 11.1205C192.492 11.5424 193.012 12.1347 193.383 12.8975C193.758 13.6603 193.945 14.553 193.945 15.5758C193.945 16.59 193.758 17.4763 193.383 18.2349C193.012 18.9934 192.492 19.5836 191.823 20.0054C191.158 20.4273 190.383 20.6383 189.496 20.6383ZM189.496 19.2831C190.17 19.2831 190.724 19.1106 191.158 18.7654C191.593 18.4202 191.915 17.9664 192.123 17.4039C192.332 16.8414 192.437 16.232 192.437 15.5758C192.437 14.9195 192.332 14.308 192.123 13.7412C191.915 13.1745 191.593 12.7164 191.158 12.367C190.724 12.0175 190.17 11.8428 189.496 11.8428C188.823 11.8428 188.269 12.0175 187.834 12.367C187.4 12.7164 187.078 13.1745 186.869 13.7412C186.66 14.308 186.556 14.9195 186.556 15.5758C186.556 16.232 186.66 16.8414 186.869 17.4039C187.078 17.9664 187.4 18.4202 187.834 18.7654C188.269 19.1106 188.823 19.2831 189.496 19.2831ZM202.435 16.4195V10.6155H203.944V20.4337H202.435V18.7718H202.333C202.103 19.2704 201.745 19.6944 201.259 20.0438C200.773 20.389 200.16 20.5616 199.418 20.5616C198.805 20.5616 198.259 20.4273 197.782 20.1589C197.305 19.8861 196.93 19.477 196.657 18.9316C196.384 18.3819 196.248 17.6894 196.248 16.8542V10.6155H197.756V16.7519C197.756 17.4678 197.957 18.0388 198.357 18.465C198.762 18.8911 199.278 19.1042 199.904 19.1042C200.279 19.1042 200.661 19.0083 201.048 18.8165C201.44 18.6248 201.768 18.3307 202.033 17.9344C202.301 17.5381 202.435 17.0331 202.435 16.4195ZM206.707 20.4337V10.6155H208.164V12.0985H208.267C208.445 11.6127 208.769 11.2185 209.238 10.916C209.707 10.6134 210.235 10.4621 210.823 10.4621C210.934 10.4621 211.073 10.4643 211.239 10.4685C211.405 10.4728 211.531 10.4792 211.616 10.4877V12.0218C211.565 12.009 211.448 11.9898 211.264 11.9643C211.085 11.9344 210.896 11.9195 210.695 11.9195C210.218 11.9195 209.792 12.0197 209.417 12.2199C209.046 12.416 208.752 12.6887 208.535 13.0381C208.322 13.3833 208.215 13.7775 208.215 14.2206V20.4337H206.707ZM217.222 20.6383C216.276 20.6383 215.46 20.4295 214.774 20.0118C214.092 19.59 213.566 19.0019 213.195 18.2476C212.828 17.4891 212.645 16.607 212.645 15.6013C212.645 14.5956 212.828 13.7093 213.195 12.9422C213.566 12.1709 214.081 11.5701 214.742 11.1397C215.406 10.705 216.182 10.4877 217.068 10.4877C217.58 10.4877 218.085 10.5729 218.583 10.7434C219.082 10.9138 219.536 11.1908 219.945 11.5743C220.354 11.9536 220.68 12.4564 220.923 13.0829C221.166 13.7093 221.287 14.4806 221.287 15.3968V16.036H213.719V14.732H219.753C219.753 14.178 219.642 13.6837 219.421 13.2491C219.203 12.8144 218.892 12.4714 218.487 12.2199C218.087 11.9685 217.614 11.8428 217.068 11.8428C216.468 11.8428 215.948 11.992 215.509 12.2902C215.074 12.5843 214.74 12.9678 214.505 13.4408C214.271 13.9138 214.154 14.4209 214.154 14.9621V15.8314C214.154 16.5729 214.281 17.2015 214.537 17.7171C214.797 18.2285 215.157 18.6184 215.617 18.8868C216.078 19.151 216.612 19.2831 217.222 19.2831C217.618 19.2831 217.976 19.2277 218.296 19.117C218.619 19.0019 218.899 18.8314 219.133 18.6056C219.367 18.3755 219.548 18.09 219.676 17.7491L221.134 18.1581C220.98 18.6525 220.722 19.0871 220.36 19.4621C219.998 19.8329 219.551 20.1226 219.018 20.3314C218.485 20.536 217.887 20.6383 217.222 20.6383ZM230.536 12.8144L229.181 13.1979C229.096 12.9721 228.97 12.7526 228.804 12.5395C228.642 12.3222 228.421 12.1432 228.139 12.0026C227.858 11.862 227.498 11.7917 227.059 11.7917C226.458 11.7917 225.958 11.9302 225.557 12.2072C225.161 12.4799 224.963 12.8272 224.963 13.2491C224.963 13.6241 225.099 13.9202 225.372 14.1376C225.644 14.3549 226.07 14.536 226.65 14.6809L228.107 15.0388C228.985 15.2519 229.639 15.5779 230.07 16.0168C230.5 16.4515 230.715 17.0118 230.715 17.6979C230.715 18.2604 230.553 18.7633 230.23 19.2064C229.91 19.6496 229.463 19.9991 228.887 20.2547C228.312 20.5104 227.643 20.6383 226.88 20.6383C225.879 20.6383 225.05 20.4209 224.394 19.9863C223.737 19.5516 223.322 18.9167 223.147 18.0814L224.579 17.7235C224.715 18.2519 224.973 18.6482 225.352 18.9124C225.736 19.1766 226.237 19.3087 226.855 19.3087C227.558 19.3087 228.116 19.1596 228.529 18.8613C228.947 18.5587 229.156 18.1965 229.156 17.7746C229.156 17.4337 229.036 17.1482 228.798 16.9181C228.559 16.6837 228.193 16.509 227.698 16.3939L226.062 16.0104C225.163 15.7974 224.502 15.4671 224.08 15.0197C223.663 14.5679 223.454 14.0033 223.454 13.3258C223.454 12.7718 223.61 12.2817 223.921 11.8556C224.236 11.4295 224.664 11.0949 225.205 10.852C225.751 10.6091 226.369 10.4877 227.059 10.4877C228.031 10.4877 228.794 10.7008 229.347 11.1269C229.906 11.553 230.302 12.1155 230.536 12.8144Z" fill="white"/>
<path d="M95.7666 33.8568H97.2382L100.698 42.3085H100.818L104.278 33.8568H105.75V44.0386H104.596V36.3028H104.497L101.315 44.0386H100.201L97.0195 36.3028H96.9201V44.0386H95.7666V33.8568ZM111.165 44.1977C110.476 44.1977 109.871 44.0336 109.35 43.7055C108.833 43.3774 108.429 42.9183 108.137 42.3283C107.849 41.7384 107.705 41.049 107.705 40.2602C107.705 39.4647 107.849 38.7703 108.137 38.1771C108.429 37.5838 108.833 37.1231 109.35 36.795C109.871 36.4668 110.476 36.3028 111.165 36.3028C111.854 36.3028 112.458 36.4668 112.975 36.795C113.495 37.1231 113.899 37.5838 114.188 38.1771C114.479 38.7703 114.625 39.4647 114.625 40.2602C114.625 41.049 114.479 41.7384 114.188 42.3283C113.899 42.9183 113.495 43.3774 112.975 43.7055C112.458 44.0336 111.854 44.1977 111.165 44.1977ZM111.165 43.1437C111.689 43.1437 112.119 43.0095 112.458 42.741C112.796 42.4725 113.046 42.1195 113.208 41.682C113.371 41.2445 113.452 40.7706 113.452 40.2602C113.452 39.7497 113.371 39.2741 113.208 38.8333C113.046 38.3925 112.796 38.0362 112.458 37.7644C112.119 37.4926 111.689 37.3568 111.165 37.3568C110.641 37.3568 110.21 37.4926 109.872 37.7644C109.534 38.0362 109.284 38.3925 109.122 38.8333C108.959 39.2741 108.878 39.7497 108.878 40.2602C108.878 40.7706 108.959 41.2445 109.122 41.682C109.284 42.1195 109.534 42.4725 109.872 42.741C110.21 43.0095 110.641 43.1437 111.165 43.1437ZM117.589 39.4448V44.0386H116.416V36.4022H117.55V37.5954H117.649C117.828 37.2076 118.1 36.8961 118.464 36.6607C118.829 36.4221 119.3 36.3028 119.876 36.3028C120.393 36.3028 120.846 36.4088 121.234 36.621C121.621 36.8298 121.923 37.1479 122.138 37.5755C122.354 37.9997 122.462 38.5367 122.462 39.1863V44.0386H121.288V39.2658C121.288 38.6659 121.133 38.1986 120.821 37.8639C120.509 37.5258 120.082 37.3568 119.538 37.3568C119.164 37.3568 118.829 37.438 118.534 37.6004C118.242 37.7628 118.012 37.9997 117.843 38.3113C117.674 38.6229 117.589 39.0007 117.589 39.4448ZM132.918 38.4008V39.4945H128.464V38.4008H132.918ZM144.647 36.4022C144.588 35.8984 144.346 35.5073 143.921 35.2289C143.497 34.9505 142.977 34.8113 142.36 34.8113C141.91 34.8113 141.515 34.8842 141.177 35.0301C140.842 35.1759 140.581 35.3764 140.392 35.6316C140.206 35.8868 140.113 36.1768 140.113 36.5016C140.113 36.7734 140.178 37.0071 140.307 37.2026C140.44 37.3949 140.609 37.5556 140.814 37.6849C141.02 37.8108 141.235 37.9152 141.461 37.9981C141.686 38.0776 141.893 38.1423 142.082 38.192L143.116 38.4704C143.381 38.54 143.676 38.6361 144.001 38.7587C144.329 38.8814 144.642 39.0488 144.941 39.2609C145.242 39.4697 145.491 39.7381 145.686 40.0663C145.882 40.3944 145.98 40.7971 145.98 41.2744C145.98 41.8246 145.836 42.3217 145.547 42.7658C145.262 43.21 144.845 43.563 144.294 43.8248C143.747 44.0866 143.083 44.2176 142.301 44.2176C141.572 44.2176 140.94 44.0999 140.407 43.8646C139.876 43.6292 139.459 43.3011 139.154 42.8802C138.852 42.4593 138.681 41.9704 138.642 41.4136H139.914C139.948 41.798 140.077 42.1162 140.302 42.3681C140.531 42.6167 140.819 42.8023 141.167 42.9249C141.519 43.0443 141.896 43.1039 142.301 43.1039C142.771 43.1039 143.194 43.0277 143.568 42.8752C143.943 42.7194 144.24 42.504 144.458 42.2289C144.677 41.9505 144.787 41.6257 144.787 41.2545C144.787 40.9164 144.692 40.6413 144.503 40.4292C144.314 40.2171 144.066 40.0447 143.757 39.9122C143.449 39.7796 143.116 39.6636 142.758 39.5641L141.505 39.2062C140.71 38.9775 140.08 38.651 139.616 38.2268C139.152 37.8025 138.92 37.2474 138.92 36.5613C138.92 35.9912 139.074 35.4941 139.382 35.0698C139.694 34.6423 140.112 34.3108 140.635 34.0755C141.162 33.8369 141.751 33.7176 142.4 33.7176C143.056 33.7176 143.64 33.8352 144.15 34.0705C144.661 34.3025 145.065 34.6207 145.363 35.0251C145.665 35.4294 145.824 35.8885 145.841 36.4022H144.647ZM150.095 44.2176C149.611 44.2176 149.172 44.1264 148.777 43.9441C148.383 43.7585 148.07 43.4917 147.838 43.1437C147.606 42.7924 147.49 42.3681 147.49 41.871C147.49 41.4335 147.576 41.0788 147.748 40.807C147.921 40.5319 148.151 40.3165 148.439 40.1607C148.728 40.005 149.046 39.889 149.394 39.8127C149.745 39.7332 150.098 39.6702 150.453 39.6238C150.917 39.5641 151.293 39.5194 151.581 39.4896C151.873 39.4564 152.085 39.4017 152.218 39.3255C152.354 39.2493 152.422 39.1167 152.422 38.9278V38.888C152.422 38.3975 152.287 38.0163 152.019 37.7445C151.754 37.4728 151.351 37.3369 150.811 37.3369C150.251 37.3369 149.812 37.4595 149.493 37.7048C149.175 37.95 148.951 38.2119 148.822 38.4903L147.709 38.0926C147.907 37.6285 148.173 37.2673 148.504 37.0087C148.839 36.7469 149.203 36.5646 149.598 36.4619C149.996 36.3558 150.387 36.3028 150.771 36.3028C151.016 36.3028 151.298 36.3326 151.616 36.3923C151.938 36.4486 152.248 36.5663 152.546 36.7452C152.848 36.9242 153.098 37.1944 153.297 37.5556C153.496 37.9169 153.595 38.4008 153.595 39.0073V44.0386H152.422V43.0045H152.362C152.282 43.1702 152.15 43.3475 151.964 43.5364C151.779 43.7254 151.532 43.8861 151.223 44.0187C150.915 44.1513 150.539 44.2176 150.095 44.2176ZM150.274 43.1636C150.738 43.1636 151.129 43.0724 151.447 42.8901C151.769 42.7078 152.011 42.4725 152.173 42.1842C152.339 41.8958 152.422 41.5926 152.422 41.2744V40.2005C152.372 40.2602 152.263 40.3149 152.094 40.3646C151.928 40.411 151.736 40.4524 151.517 40.4889C151.301 40.522 151.091 40.5518 150.885 40.5783C150.683 40.6015 150.519 40.6214 150.393 40.638C150.088 40.6778 149.803 40.7424 149.538 40.8319C149.276 40.9181 149.064 41.049 148.902 41.2247C148.743 41.397 148.663 41.6323 148.663 41.9306C148.663 42.3383 148.814 42.6465 149.116 42.8553C149.42 43.0608 149.807 43.1636 150.274 43.1636ZM159.057 36.4022V37.3965H155.1V36.4022H159.057ZM156.254 34.5727H157.427V41.8511C157.427 42.1825 157.475 42.4311 157.571 42.5968C157.67 42.7592 157.796 42.8686 157.949 42.9249C158.105 42.978 158.269 43.0045 158.441 43.0045C158.57 43.0045 158.676 42.9979 158.759 42.9846C158.842 42.968 158.908 42.9548 158.958 42.9448L159.197 43.9988C159.117 44.0286 159.006 44.0585 158.864 44.0883C158.721 44.1214 158.54 44.138 158.322 44.138C157.99 44.138 157.665 44.0667 157.347 43.9242C157.032 43.7817 156.771 43.5646 156.562 43.2729C156.356 42.9813 156.254 42.6134 156.254 42.1693V34.5727ZM161.24 39.7431C161.24 38.4903 161.402 37.3385 161.727 36.2879C162.055 35.2339 162.523 34.2644 163.129 33.3795H164.163C163.925 33.7076 163.701 34.112 163.492 34.5926C163.287 35.0698 163.106 35.5952 162.95 36.1685C162.794 36.7386 162.672 37.3286 162.582 37.9384C162.496 38.5483 162.453 39.1498 162.453 39.7431C162.453 40.5319 162.529 41.3324 162.682 42.1444C162.834 42.9564 163.04 43.7104 163.298 44.4065C163.557 45.1025 163.845 45.6693 164.163 46.1068H163.129C162.523 45.2218 162.055 44.254 161.727 43.2033C161.402 42.1494 161.24 40.996 161.24 39.7431ZM169.136 44.1778C168.453 44.1778 167.85 44.0568 167.326 43.8149C166.806 43.5696 166.4 43.2332 166.108 42.8056C165.817 42.3747 165.673 41.8842 165.676 41.334C165.673 40.9032 165.757 40.5054 165.929 40.1408C166.102 39.7729 166.337 39.4664 166.635 39.2211C166.937 38.9725 167.273 38.8151 167.645 38.7488V38.6891C167.157 38.5632 166.77 38.2898 166.481 37.8688C166.193 37.4446 166.05 36.9623 166.054 36.4221C166.05 35.9051 166.181 35.4427 166.447 35.035C166.712 34.6274 167.076 34.3059 167.54 34.0705C168.008 33.8352 168.54 33.7176 169.136 33.7176C169.726 33.7176 170.253 33.8352 170.717 34.0705C171.181 34.3059 171.546 34.6274 171.811 35.035C172.079 35.4427 172.215 35.9051 172.219 36.4221C172.215 36.9623 172.068 37.4446 171.776 37.8688C171.488 38.2898 171.105 38.5632 170.628 38.6891V38.7488C170.996 38.8151 171.327 38.9725 171.622 39.2211C171.917 39.4664 172.152 39.7729 172.328 40.1408C172.504 40.5054 172.593 40.9032 172.596 41.334C172.593 41.8842 172.444 42.3747 172.149 42.8056C171.857 43.2332 171.451 43.5696 170.931 43.8149C170.414 44.0568 169.816 44.1778 169.136 44.1778ZM169.136 43.084C169.597 43.084 169.995 43.0095 170.329 42.8603C170.664 42.7112 170.923 42.5007 171.105 42.2289C171.287 41.9571 171.38 41.639 171.383 41.2744C171.38 40.8899 171.281 40.5502 171.085 40.2552C170.889 39.9602 170.623 39.7282 170.285 39.5592C169.95 39.3901 169.567 39.3056 169.136 39.3056C168.702 39.3056 168.314 39.3901 167.973 39.5592C167.635 39.7282 167.368 39.9602 167.172 40.2552C166.98 40.5502 166.886 40.8899 166.889 41.2744C166.886 41.639 166.973 41.9571 167.152 42.2289C167.335 42.5007 167.595 42.7112 167.933 42.8603C168.271 43.0095 168.672 43.084 169.136 43.084ZM169.136 38.2516C169.501 38.2516 169.824 38.1787 170.106 38.0329C170.391 37.8871 170.614 37.6832 170.777 37.4214C170.939 37.1595 171.022 36.853 171.025 36.5016C171.022 36.1569 170.941 35.857 170.782 35.6018C170.623 35.3433 170.402 35.1444 170.121 35.0052C169.839 34.8627 169.511 34.7914 169.136 34.7914C168.755 34.7914 168.422 34.8627 168.137 35.0052C167.852 35.1444 167.631 35.3433 167.476 35.6018C167.32 35.857 167.244 36.1569 167.247 36.5016C167.244 36.853 167.322 37.1595 167.481 37.4214C167.643 37.6832 167.867 37.8871 168.152 38.0329C168.437 38.1787 168.765 38.2516 169.136 38.2516ZM175.062 44.1181C174.817 44.1181 174.607 44.0303 174.431 43.8546C174.255 43.679 174.167 43.4685 174.167 43.2232C174.167 42.978 174.255 42.7675 174.431 42.5918C174.607 42.4162 174.817 42.3283 175.062 42.3283C175.308 42.3283 175.518 42.4162 175.694 42.5918C175.869 42.7675 175.957 42.978 175.957 43.2232C175.957 43.3856 175.916 43.5348 175.833 43.6707C175.753 43.8066 175.646 43.9159 175.51 43.9988C175.377 44.0783 175.228 44.1181 175.062 44.1181ZM181.008 44.1778C180.259 44.1778 179.621 43.9739 179.094 43.5663C178.567 43.1553 178.165 42.5604 177.886 41.7815C177.608 40.9993 177.469 40.0547 177.469 38.9477C177.469 37.8473 177.608 36.9077 177.886 36.1288C178.168 35.3466 178.572 34.75 179.099 34.339C179.63 33.9247 180.266 33.7176 181.008 33.7176C181.751 33.7176 182.385 33.9247 182.912 34.339C183.443 34.75 183.847 35.3466 184.125 36.1288C184.407 36.9077 184.548 37.8473 184.548 38.9477C184.548 40.0547 184.409 40.9993 184.13 41.7815C183.852 42.5604 183.449 43.1553 182.922 43.5663C182.395 43.9739 181.757 44.1778 181.008 44.1778ZM181.008 43.084C181.751 43.084 182.327 42.7261 182.738 42.0102C183.149 41.2943 183.355 40.2734 183.355 38.9477C183.355 38.066 183.26 37.3153 183.072 36.6955C182.886 36.0757 182.617 35.6034 182.266 35.2786C181.918 34.9538 181.499 34.7914 181.008 34.7914C180.273 34.7914 179.697 35.1543 179.283 35.8802C178.869 36.6027 178.662 37.6252 178.662 38.9477C178.662 39.8293 178.755 40.5783 178.94 41.1948C179.126 41.8113 179.393 42.2803 179.741 42.6018C180.092 42.9233 180.514 43.084 181.008 43.084ZM189.758 44.1778C189.009 44.1778 188.371 43.9739 187.844 43.5663C187.317 43.1553 186.915 42.5604 186.636 41.7815C186.358 40.9993 186.219 40.0547 186.219 38.9477C186.219 37.8473 186.358 36.9077 186.636 36.1288C186.918 35.3466 187.322 34.75 187.849 34.339C188.38 33.9247 189.016 33.7176 189.758 33.7176C190.501 33.7176 191.135 33.9247 191.662 34.339C192.193 34.75 192.597 35.3466 192.875 36.1288C193.157 36.9077 193.298 37.8473 193.298 38.9477C193.298 40.0547 193.159 40.9993 192.88 41.7815C192.602 42.5604 192.199 43.1553 191.672 43.5663C191.145 43.9739 190.507 44.1778 189.758 44.1778ZM189.758 43.084C190.501 43.084 191.077 42.7261 191.488 42.0102C191.899 41.2943 192.105 40.2734 192.105 38.9477C192.105 38.066 192.01 37.3153 191.822 36.6955C191.636 36.0757 191.367 35.6034 191.016 35.2786C190.668 34.9538 190.249 34.7914 189.758 34.7914C189.023 34.7914 188.447 35.1543 188.033 35.8802C187.619 36.6027 187.412 37.6252 187.412 38.9477C187.412 39.8293 187.505 40.5783 187.69 41.1948C187.876 41.8113 188.143 42.2803 188.491 42.6018C188.842 42.9233 189.264 43.084 189.758 43.084ZM203.52 38.4008V39.4945H199.065V38.4008H203.52ZM212.882 44.1778C212.465 44.1711 212.047 44.0916 211.63 43.9391C211.212 43.7867 210.831 43.5298 210.486 43.1685C210.141 42.804 209.865 42.3118 209.656 41.692C209.447 41.0689 209.343 40.2867 209.343 39.3454C209.343 38.4439 209.427 37.6451 209.596 36.9491C209.765 36.2497 210.01 35.6614 210.332 35.1842C210.653 34.7036 211.041 34.339 211.495 34.0904C211.953 33.8418 212.468 33.7176 213.042 33.7176C213.612 33.7176 214.119 33.8319 214.563 34.0606C215.01 34.286 215.375 34.6008 215.657 35.0052C215.938 35.4095 216.121 35.8752 216.203 36.4022H214.99C214.878 35.9448 214.659 35.5653 214.334 35.2637C214.009 34.9621 213.578 34.8113 213.042 34.8113C212.253 34.8113 211.631 35.1543 211.177 35.8404C210.726 36.5265 210.499 37.4893 210.496 38.7289H210.576C210.761 38.4472 210.982 38.2069 211.237 38.008C211.495 37.8059 211.78 37.6501 212.092 37.5407C212.403 37.4313 212.733 37.3766 213.081 37.3766C213.665 37.3766 214.198 37.5225 214.682 37.8141C215.166 38.1025 215.554 38.5019 215.845 39.0123C216.137 39.5194 216.283 40.1011 216.283 40.7573C216.283 41.3871 216.142 41.9638 215.86 42.4874C215.579 43.0078 215.183 43.4221 214.672 43.7303C214.165 44.0353 213.568 44.1844 212.882 44.1778ZM212.882 43.084C213.3 43.084 213.675 42.9796 214.006 42.7708C214.341 42.562 214.604 42.2819 214.796 41.9306C214.992 41.5793 215.09 41.1882 215.09 40.7573C215.09 40.3364 214.995 39.9536 214.806 39.6089C214.621 39.2609 214.364 38.9841 214.036 38.7786C213.711 38.5731 213.34 38.4704 212.922 38.4704C212.607 38.4704 212.314 38.5334 212.042 38.6593C211.77 38.7819 211.532 38.951 211.326 39.1664C211.124 39.3819 210.965 39.6288 210.849 39.9072C210.733 40.1823 210.675 40.4723 210.675 40.7772C210.675 41.1816 210.769 41.5594 210.958 41.9107C211.151 42.2621 211.412 42.5454 211.744 42.7609C212.079 42.9763 212.458 43.084 212.882 43.084ZM218.635 44.1181C218.389 44.1181 218.179 44.0303 218.003 43.8546C217.827 43.679 217.74 43.4685 217.74 43.2232C217.74 42.978 217.827 42.7675 218.003 42.5918C218.179 42.4162 218.389 42.3283 218.635 42.3283C218.88 42.3283 219.09 42.4162 219.266 42.5918C219.442 42.7675 219.529 42.978 219.529 43.2232C219.529 43.3856 219.488 43.5348 219.405 43.6707C219.326 43.8066 219.218 43.9159 219.082 43.9988C218.949 44.0783 218.8 44.1181 218.635 44.1181ZM224.581 44.1778C223.832 44.1778 223.193 43.9739 222.667 43.5663C222.14 43.1553 221.737 42.5604 221.458 41.7815C221.18 40.9993 221.041 40.0547 221.041 38.9477C221.041 37.8473 221.18 36.9077 221.458 36.1288C221.74 35.3466 222.144 34.75 222.671 34.339C223.202 33.9247 223.838 33.7176 224.581 33.7176C225.323 33.7176 225.958 33.9247 226.485 34.339C227.015 34.75 227.419 35.3466 227.698 36.1288C227.979 36.9077 228.12 37.8473 228.12 38.9477C228.12 40.0547 227.981 40.9993 227.703 41.7815C227.424 42.5604 227.022 43.1553 226.495 43.5663C225.968 43.9739 225.33 44.1778 224.581 44.1778ZM224.581 43.084C225.323 43.084 225.9 42.7261 226.311 42.0102C226.722 41.2943 226.927 40.2734 226.927 38.9477C226.927 38.066 226.833 37.3153 226.644 36.6955C226.458 36.0757 226.19 35.6034 225.838 35.2786C225.49 34.9538 225.071 34.7914 224.581 34.7914C223.845 34.7914 223.27 35.1543 222.855 35.8802C222.441 36.6027 222.234 37.6252 222.234 38.9477C222.234 39.8293 222.327 40.5783 222.512 41.1948C222.698 41.8113 222.965 42.2803 223.313 42.6018C223.664 42.9233 224.087 43.084 224.581 43.084ZM233.331 44.1778C232.582 44.1778 231.943 43.9739 231.417 43.5663C230.89 43.1553 230.487 42.5604 230.208 41.7815C229.93 40.9993 229.791 40.0547 229.791 38.9477C229.791 37.8473 229.93 36.9077 230.208 36.1288C230.49 35.3466 230.894 34.75 231.421 34.339C231.952 33.9247 232.588 33.7176 233.331 33.7176C234.073 33.7176 234.708 33.9247 235.235 34.339C235.765 34.75 236.169 35.3466 236.448 36.1288C236.729 36.9077 236.87 37.8473 236.87 38.9477C236.87 40.0547 236.731 40.9993 236.453 41.7815C236.174 42.5604 235.772 43.1553 235.245 43.5663C234.718 43.9739 234.08 44.1778 233.331 44.1778ZM233.331 43.084C234.073 43.084 234.65 42.7261 235.061 42.0102C235.472 41.2943 235.677 40.2734 235.677 38.9477C235.677 38.066 235.583 37.3153 235.394 36.6955C235.208 36.0757 234.94 35.6034 234.588 35.2786C234.24 34.9538 233.821 34.7914 233.331 34.7914C232.595 34.7914 232.02 35.1543 231.605 35.8802C231.191 36.6027 230.984 37.6252 230.984 38.9477C230.984 39.8293 231.077 40.5783 231.262 41.1948C231.448 41.8113 231.715 42.2803 232.063 42.6018C232.414 42.9233 232.837 43.084 233.331 43.084ZM241.285 38.9477C241.285 40.2005 241.121 41.3539 240.793 42.4079C240.468 43.4586 240.002 44.4264 239.396 45.3113H238.362C238.6 44.9832 238.823 44.5788 239.028 44.0982C239.237 43.621 239.419 43.0973 239.575 42.5272C239.731 41.9538 239.852 41.3622 239.938 40.7524C240.027 40.1392 240.072 39.5376 240.072 38.9477C240.072 38.1588 239.996 37.3584 239.843 36.5464C239.691 35.7344 239.485 34.9803 239.227 34.2843C238.968 33.5883 238.68 33.0215 238.362 32.584H239.396C240.002 33.469 240.468 34.4384 240.793 35.4924C241.121 36.5431 241.285 37.6948 241.285 38.9477Z" fill="white"/>
<path d="M101.335 60.732C101.275 60.2283 101.033 59.8372 100.609 59.5587C100.185 59.2803 99.6644 59.1411 99.0479 59.1411C98.5971 59.1411 98.2027 59.2141 97.8647 59.3599C97.5299 59.5057 97.2681 59.7062 97.0791 59.9614C96.8935 60.2167 96.8007 60.5067 96.8007 60.8315C96.8007 61.1033 96.8654 61.3369 96.9946 61.5325C97.1272 61.7247 97.2962 61.8855 97.5017 62.0147C97.7072 62.1407 97.9227 62.2451 98.148 62.3279C98.3734 62.4075 98.5806 62.4721 98.7695 62.5218L99.8036 62.8002C100.069 62.8698 100.364 62.9659 100.689 63.0886C101.017 63.2112 101.33 63.3786 101.628 63.5907C101.93 63.7995 102.178 64.068 102.374 64.3961C102.569 64.7242 102.667 65.1269 102.667 65.6042C102.667 66.1544 102.523 66.6516 102.235 67.0957C101.95 67.5398 101.532 67.8928 100.982 68.1546C100.435 68.4165 99.7704 68.5474 98.9882 68.5474C98.2591 68.5474 97.6277 68.4297 97.0941 68.1944C96.5638 67.9591 96.1461 67.631 95.8412 67.21C95.5396 66.7891 95.3689 66.3002 95.3291 65.7434H96.6019C96.635 66.1279 96.7643 66.4461 96.9897 66.698C97.2184 66.9465 97.5067 67.1321 97.8547 67.2548C98.206 67.3741 98.5839 67.4337 98.9882 67.4337C99.4589 67.4337 99.8815 67.3575 100.256 67.2051C100.631 67.0493 100.927 66.8338 101.146 66.5587C101.365 66.2803 101.474 65.9555 101.474 65.5843C101.474 65.2462 101.38 64.9712 101.191 64.759C101.002 64.5469 100.753 64.3746 100.445 64.242C100.137 64.1094 99.8036 63.9934 99.4456 63.894L98.1928 63.536C97.3973 63.3073 96.7676 62.9809 96.3036 62.5566C95.8396 62.1324 95.6076 61.5772 95.6076 60.8911C95.6076 60.3211 95.7617 59.8239 96.0699 59.3997C96.3815 58.9721 96.7991 58.6407 97.3228 58.4053C97.8497 58.1667 98.438 58.0474 99.0877 58.0474C99.7439 58.0474 100.327 58.165 100.838 58.4004C101.348 58.6324 101.752 58.9506 102.051 59.3549C102.352 59.7593 102.511 60.2183 102.528 60.732H101.335ZM109.348 65.2462V60.732H110.521V68.3684H109.348V67.0758H109.268C109.089 67.4636 108.811 67.7934 108.433 68.0651C108.055 68.3336 107.578 68.4678 107.001 68.4678C106.524 68.4678 106.1 68.3634 105.728 68.1546C105.357 67.9425 105.066 67.6243 104.853 67.2001C104.641 66.7725 104.535 66.2339 104.535 65.5843V60.732H105.709V65.5048C105.709 66.0616 105.864 66.5057 106.176 66.8372C106.491 67.1686 106.892 67.3343 107.379 67.3343C107.671 67.3343 107.967 67.2597 108.269 67.1106C108.574 66.9614 108.829 66.7328 109.035 66.4245C109.243 66.1163 109.348 65.7235 109.348 65.2462ZM113.843 63.7747V68.3684H112.67V60.732H113.804V61.9252H113.903C114.082 61.5374 114.354 61.2259 114.718 60.9906C115.083 60.7519 115.554 60.6326 116.13 60.6326C116.647 60.6326 117.1 60.7387 117.488 60.9508C117.875 61.1596 118.177 61.4778 118.392 61.9053C118.608 62.3296 118.716 62.8665 118.716 63.5161V68.3684H117.542V63.5957C117.542 62.9958 117.386 62.5284 117.075 62.1937C116.763 61.8556 116.336 61.6866 115.792 61.6866C115.418 61.6866 115.083 61.7678 114.788 61.9302C114.496 62.0926 114.266 62.3296 114.097 62.6411C113.928 62.9527 113.843 63.3305 113.843 63.7747ZM123.743 68.5275C123.107 68.5275 122.545 68.3668 122.058 68.0453C121.57 67.7204 121.189 67.2631 120.914 66.6731C120.639 66.0798 120.502 65.3788 120.502 64.5701C120.502 63.768 120.639 63.072 120.914 62.482C121.189 61.8921 121.572 61.4364 122.063 61.1149C122.553 60.7934 123.12 60.6326 123.763 60.6326C124.26 60.6326 124.653 60.7155 124.941 60.8812C125.233 61.0436 125.455 61.2292 125.607 61.438C125.763 61.6435 125.884 61.8125 125.97 61.9451H126.07V58.1866H127.243V68.3684H126.11V67.1951H125.97C125.884 67.3343 125.761 67.51 125.602 67.7221C125.443 67.9309 125.216 68.1182 124.921 68.2839C124.626 68.4463 124.234 68.5275 123.743 68.5275ZM123.902 67.4735C124.373 67.4735 124.77 67.3509 125.095 67.1056C125.42 66.857 125.667 66.514 125.836 66.0765C126.005 65.6357 126.09 65.1269 126.09 64.5502C126.09 63.9802 126.007 63.4813 125.841 63.0538C125.675 62.6229 125.43 62.2882 125.105 62.0495C124.78 61.8076 124.379 61.6866 123.902 61.6866C123.405 61.6866 122.991 61.8142 122.659 62.0694C122.331 62.3213 122.084 62.6643 121.918 63.0985C121.756 63.5294 121.675 64.0133 121.675 64.5502C121.675 65.0938 121.758 65.5876 121.923 66.0318C122.092 66.4726 122.341 66.8239 122.669 67.0857C123.001 67.3443 123.412 67.4735 123.902 67.4735ZM131.802 68.5474C131.318 68.5474 130.879 68.4562 130.485 68.2739C130.09 68.0883 129.777 67.8215 129.545 67.4735C129.313 67.1222 129.197 66.698 129.197 66.2008C129.197 65.7633 129.283 65.4087 129.455 65.1369C129.628 64.8618 129.858 64.6463 130.146 64.4906C130.435 64.3348 130.753 64.2188 131.101 64.1426C131.452 64.063 131.805 64 132.16 63.9536C132.624 63.894 133 63.8492 133.288 63.8194C133.58 63.7863 133.792 63.7316 133.925 63.6553C134.061 63.5791 134.129 63.4465 134.129 63.2576V63.2178C134.129 62.7273 133.994 62.3462 133.726 62.0744C133.461 61.8026 133.058 61.6667 132.518 61.6667C131.958 61.6667 131.519 61.7893 131.2 62.0346C130.882 62.2799 130.659 62.5417 130.529 62.8201L129.416 62.4224C129.614 61.9584 129.88 61.5971 130.211 61.3386C130.546 61.0767 130.91 60.8944 131.305 60.7917C131.703 60.6856 132.094 60.6326 132.478 60.6326C132.723 60.6326 133.005 60.6624 133.323 60.7221C133.645 60.7784 133.955 60.8961 134.253 61.0751C134.555 61.2541 134.805 61.5242 135.004 61.8855C135.203 62.2467 135.302 62.7306 135.302 63.3372V68.3684H134.129V67.3343H134.069C133.989 67.5 133.857 67.6774 133.671 67.8663C133.486 68.0552 133.239 68.2159 132.931 68.3485C132.622 68.4811 132.246 68.5474 131.802 68.5474ZM131.981 67.4934C132.445 67.4934 132.836 67.4023 133.154 67.22C133.476 67.0377 133.718 66.8024 133.88 66.514C134.046 66.2257 134.129 65.9224 134.129 65.6042V64.5303C134.079 64.59 133.97 64.6447 133.801 64.6944C133.635 64.7408 133.443 64.7822 133.224 64.8187C133.008 64.8518 132.798 64.8817 132.592 64.9082C132.39 64.9314 132.226 64.9513 132.1 64.9678C131.795 65.0076 131.51 65.0722 131.245 65.1617C130.983 65.2479 130.771 65.3788 130.609 65.5545C130.45 65.7268 130.37 65.9622 130.37 66.2605C130.37 66.6681 130.521 66.9764 130.823 67.1852C131.128 67.3907 131.514 67.4934 131.981 67.4934ZM137.926 71.232C137.727 71.232 137.55 71.2155 137.394 71.1823C137.238 71.1525 137.13 71.1227 137.071 71.0928L137.369 70.0587C137.654 70.1317 137.906 70.1582 138.125 70.1383C138.343 70.1184 138.537 70.0206 138.706 69.845C138.879 69.6726 139.036 69.3926 139.179 69.0048L139.397 68.4082L136.573 60.732H137.846L139.954 66.8173H140.034L142.142 60.732H143.414L140.173 69.482C140.027 69.8765 139.846 70.2029 139.631 70.4614C139.416 70.7233 139.165 70.9172 138.88 71.0431C138.599 71.1691 138.28 71.232 137.926 71.232ZM153.276 62.7306V63.8244H148.821V62.7306H153.276ZM167.63 61.3684H166.397C166.324 61.0138 166.196 60.7022 166.014 60.4337C165.835 60.1653 165.616 59.9399 165.358 59.7576C165.103 59.572 164.819 59.4328 164.508 59.34C164.196 59.2472 163.871 59.2008 163.533 59.2008C162.917 59.2008 162.358 59.3566 161.858 59.6681C161.361 59.9797 160.965 60.4387 160.67 61.0453C160.378 61.6518 160.232 62.3959 160.232 63.2775C160.232 64.1591 160.378 64.9032 160.67 65.5097C160.965 66.1163 161.361 66.5753 161.858 66.8869C162.358 67.1984 162.917 67.3542 163.533 67.3542C163.871 67.3542 164.196 67.3078 164.508 67.215C164.819 67.1222 165.103 66.9846 165.358 66.8024C165.616 66.6168 165.835 66.3897 166.014 66.1212C166.196 65.8495 166.324 65.5379 166.397 65.1866H167.63C167.537 65.7069 167.368 66.1726 167.123 66.5836C166.877 66.9946 166.572 67.3443 166.208 67.6326C165.843 67.9177 165.434 68.1347 164.98 68.2839C164.529 68.433 164.047 68.5076 163.533 68.5076C162.665 68.5076 161.893 68.2955 161.216 67.8712C160.54 67.447 160.008 66.8438 159.621 66.0616C159.233 65.2794 159.039 64.3514 159.039 63.2775C159.039 62.2036 159.233 61.2756 159.621 60.4934C160.008 59.7112 160.54 59.108 161.216 58.6837C161.893 58.2595 162.665 58.0474 163.533 58.0474C164.047 58.0474 164.529 58.122 164.98 58.2711C165.434 58.4203 165.843 58.639 166.208 58.9274C166.572 59.2124 166.877 59.5604 167.123 59.9714C167.368 60.3791 167.537 60.8447 167.63 61.3684ZM170.636 58.1866V68.3684H169.463V58.1866H170.636ZM175.888 68.5275C175.198 68.5275 174.593 68.3634 174.073 68.0353C173.556 67.7072 173.152 67.2481 172.86 66.6582C172.572 66.0682 172.427 65.3788 172.427 64.59C172.427 63.7945 172.572 63.1002 172.86 62.5069C173.152 61.9136 173.556 61.4529 174.073 61.1248C174.593 60.7967 175.198 60.6326 175.888 60.6326C176.577 60.6326 177.18 60.7967 177.697 61.1248C178.218 61.4529 178.622 61.9136 178.91 62.5069C179.202 63.1002 179.348 63.7945 179.348 64.59C179.348 65.3788 179.202 66.0682 178.91 66.6582C178.622 67.2481 178.218 67.7072 177.697 68.0353C177.18 68.3634 176.577 68.5275 175.888 68.5275ZM175.888 67.4735C176.411 67.4735 176.842 67.3393 177.18 67.0708C177.518 66.8024 177.768 66.4494 177.931 66.0119C178.093 65.5744 178.174 65.1004 178.174 64.59C178.174 64.0796 178.093 63.604 177.931 63.1632C177.768 62.7223 177.518 62.366 177.18 62.0943C176.842 61.8225 176.411 61.6866 175.888 61.6866C175.364 61.6866 174.933 61.8225 174.595 62.0943C174.257 62.366 174.007 62.7223 173.844 63.1632C173.682 63.604 173.601 64.0796 173.601 64.59C173.601 65.1004 173.682 65.5744 173.844 66.0119C174.007 66.4494 174.257 66.8024 174.595 67.0708C174.933 67.3393 175.364 67.4735 175.888 67.4735ZM186.548 62.4423L185.494 62.7406C185.428 62.5649 185.33 62.3942 185.201 62.2285C185.075 62.0595 184.902 61.9203 184.684 61.8109C184.465 61.7015 184.185 61.6468 183.843 61.6468C183.376 61.6468 182.987 61.7545 182.675 61.97C182.367 62.1821 182.213 62.4522 182.213 62.7803C182.213 63.072 182.319 63.3024 182.531 63.4714C182.743 63.6404 183.074 63.7813 183.525 63.894L184.659 64.1724C185.341 64.3381 185.85 64.5917 186.185 64.933C186.52 65.2711 186.687 65.7069 186.687 66.2406C186.687 66.6781 186.561 67.0692 186.309 67.4139C186.061 67.7586 185.713 68.0303 185.265 68.2292C184.818 68.4281 184.297 68.5275 183.704 68.5275C182.925 68.5275 182.281 68.3585 181.77 68.0204C181.26 67.6823 180.937 67.1885 180.801 66.5389L181.914 66.2605C182.02 66.6714 182.221 66.9797 182.516 67.1852C182.814 67.3907 183.204 67.4934 183.684 67.4934C184.231 67.4934 184.665 67.3774 184.987 67.1454C185.312 66.9101 185.474 66.6284 185.474 66.3002C185.474 66.0351 185.381 65.813 185.196 65.634C185.01 65.4517 184.725 65.3159 184.341 65.2264L183.068 64.9281C182.368 64.7623 181.855 64.5055 181.527 64.1575C181.202 63.8061 181.039 63.367 181.039 62.84C181.039 62.4091 181.16 62.028 181.402 61.6965C181.648 61.3651 181.981 61.1049 182.402 60.916C182.826 60.7271 183.306 60.6326 183.843 60.6326C184.599 60.6326 185.192 60.7983 185.623 61.1298C186.057 61.4612 186.366 61.8987 186.548 62.4423ZM191.655 68.5275C190.919 68.5275 190.284 68.3651 189.751 68.0403C189.221 67.7122 188.811 67.2548 188.523 66.6681C188.238 66.0782 188.095 65.3921 188.095 64.6099C188.095 63.8277 188.238 63.1383 188.523 62.5417C188.811 61.9418 189.212 61.4745 189.726 61.1397C190.243 60.8016 190.846 60.6326 191.536 60.6326C191.933 60.6326 192.326 60.6989 192.714 60.8315C193.102 60.9641 193.455 61.1795 193.773 61.4778C194.091 61.7728 194.345 62.1639 194.534 62.6511C194.722 63.1383 194.817 63.7382 194.817 64.4508V64.948H188.931V63.9337H193.624C193.624 63.5029 193.538 63.1184 193.365 62.7803C193.196 62.4423 192.954 62.1755 192.639 61.9799C192.328 61.7844 191.96 61.6866 191.536 61.6866C191.068 61.6866 190.664 61.8026 190.323 62.0346C189.985 62.2633 189.724 62.5616 189.542 62.9295C189.36 63.2974 189.269 63.6918 189.269 64.1127V64.7889C189.269 65.3656 189.368 65.8544 189.567 66.2555C189.769 66.6532 190.049 66.9565 190.407 67.1653C190.765 67.3708 191.181 67.4735 191.655 67.4735C191.963 67.4735 192.242 67.4304 192.49 67.3443C192.742 67.2548 192.959 67.1222 193.141 66.9465C193.324 66.7676 193.465 66.5455 193.564 66.2803L194.698 66.5985C194.578 66.983 194.378 67.3211 194.096 67.6127C193.814 67.9011 193.466 68.1265 193.052 68.2889C192.638 68.448 192.172 68.5275 191.655 68.5275ZM199.485 68.5275C198.849 68.5275 198.287 68.3668 197.8 68.0453C197.313 67.7204 196.931 67.2631 196.656 66.6731C196.381 66.0798 196.244 65.3788 196.244 64.5701C196.244 63.768 196.381 63.072 196.656 62.482C196.931 61.8921 197.314 61.4364 197.805 61.1149C198.295 60.7934 198.862 60.6326 199.505 60.6326C200.002 60.6326 200.395 60.7155 200.683 60.8812C200.975 61.0436 201.197 61.2292 201.35 61.438C201.505 61.6435 201.626 61.8125 201.712 61.9451H201.812V58.1866H202.985V68.3684H201.852V67.1951H201.712C201.626 67.3343 201.504 67.51 201.345 67.7221C201.186 67.9309 200.958 68.1182 200.663 68.2839C200.369 68.4463 199.976 68.5275 199.485 68.5275ZM199.644 67.4735C200.115 67.4735 200.513 67.3509 200.837 67.1056C201.162 66.857 201.409 66.514 201.578 66.0765C201.747 65.6357 201.832 65.1269 201.832 64.5502C201.832 63.9802 201.749 63.4813 201.583 63.0538C201.418 62.6229 201.172 62.2882 200.847 62.0495C200.523 61.8076 200.122 61.6866 199.644 61.6866C199.147 61.6866 198.733 61.8142 198.401 62.0694C198.073 62.3213 197.826 62.6643 197.661 63.0985C197.498 63.5294 197.417 64.0133 197.417 64.5502C197.417 65.0938 197.5 65.5876 197.666 66.0318C197.835 66.4726 198.083 66.8239 198.411 67.0857C198.743 67.3443 199.154 67.4735 199.644 67.4735Z" fill="white"/>
<rect y="1.43079" width="77.234" height="70.7861" rx="3" fill="#FF9F0D"/>
<path d="M38.6167 29.4502V36.8238" stroke="white" stroke-width="1.5" stroke-linecap="round" stroke-linejoin="round"/>
<path d="M45.0481 40.5105L38.6167 36.8237" stroke="white" stroke-width="1.5" stroke-linecap="round" stroke-linejoin="round"/>
<path d="M47.3066 32.4789H53.4953V26.3342" stroke="white" stroke-width="1.5" stroke-linecap="round" stroke-linejoin="round"/>
<path d="M48.2442 46.3826C46.3401 48.2731 43.9141 49.5606 41.2731 50.0822C38.632 50.6038 35.8945 50.3361 33.4067 49.3129C30.9189 48.2898 28.7925 46.5571 27.2965 44.3341C25.8005 42.111 25.002 39.4974 25.002 36.8237C25.002 34.1501 25.8005 31.5365 27.2965 29.3134C28.7925 27.0904 30.9189 25.3577 33.4067 24.3346C35.8945 23.3114 38.632 23.0437 41.2731 23.5653C43.9141 24.0869 46.3401 25.3744 48.2442 27.2649L53.4954 32.4788" stroke="white" stroke-width="1.5" stroke-linecap="round" stroke-linejoin="round"/>
</svg>
